<svg xmlns="http://www.w3.org/2000/svg" xmlns:xlink="http://www.w3.org/1999/xlink" width="23.495mm" height="36.068mm" viewBox="4009.5 3258.5 92.5 142"><title></title><style type="text/css">
*[layerid="1"] {stroke:#000000;fill:#000000;}
*[layerid="2"] {stroke:#000000;fill:#000000;}
*[layerid="3"] {stroke:#000000;fill:#000000;}
*[layerid="4"] {stroke:#000000;fill:#000000;}
*[layerid="5"] {stroke:#000000;fill:#000000;}
*[layerid="6"] {stroke:#000000;fill:#000000;}
*[layerid="7"] {stroke:#000000;fill:#000000;}
*[layerid="8"] {stroke:#000000;fill:#000000;}
*[layerid="9"] {stroke:#000000;fill:#000000;}
*[layerid="10"] {stroke:#000000;fill:#000000;}
*[layerid="11"] {stroke:#000000;fill:#000000;}
*[layerid="12"] {stroke:#000000;fill:#000000;}
*[layerid="13"] {stroke:#000000;fill:#000000;}
*[layerid="14"] {stroke:#000000;fill:#000000;}
*[layerid="15"] {stroke:#000000;fill:#000000;}
*[layerid="19"] {stroke:#000000;fill:#000000;}
*[layerid="21"] {stroke:#000000;fill:#000000;}
*[layerid="22"] {stroke:#000000;fill:#000000;}
*[layerid="23"] {stroke:#000000;fill:#000000;}
*[layerid="24"] {stroke:#000000;fill:#000000;}
*[layerid="25"] {stroke:#000000;fill:#000000;}
*[layerid="26"] {stroke:#000000;fill:#000000;}
*[layerid="27"] {stroke:#000000;fill:#000000;}
*[layerid="28"] {stroke:#000000;fill:#000000;}
*[layerid="29"] {stroke:#000000;fill:#000000;}
*[layerid="30"] {stroke:#000000;fill:#000000;}
*[layerid="31"] {stroke:#000000;fill:#000000;}
*[layerid="32"] {stroke:#000000;fill:#000000;}
*[layerid="33"] {stroke:#000000;fill:#000000;}
*[layerid="34"] {stroke:#000000;fill:#000000;}
*[layerid="35"] {stroke:#000000;fill:#000000;}
*[layerid="36"] {stroke:#000000;fill:#000000;}
*[layerid="37"] {stroke:#000000;fill:#000000;}
*[layerid="38"] {stroke:#000000;fill:#000000;}
*[layerid="39"] {stroke:#000000;fill:#000000;}
*[layerid="40"] {stroke:#000000;fill:#000000;}
*[layerid="41"] {stroke:#000000;fill:#000000;}
*[layerid="42"] {stroke:#000000;fill:#000000;}
*[layerid="43"] {stroke:#000000;fill:#000000;}
*[layerid="44"] {stroke:#000000;fill:#000000;}
*[layerid="45"] {stroke:#000000;fill:#000000;}
*[layerid="46"] {stroke:#000000;fill:#000000;}
*[layerid="47"] {stroke:#000000;fill:#000000;}
*[layerid="48"] {stroke:#000000;fill:#000000;}
*[layerid="49"] {stroke:#000000;fill:#000000;}
*[layerid="50"] {stroke:#000000;fill:#000000;}
*[layerid="51"] {stroke:#000000;fill:#000000;}
*[layerid="52"] {stroke:#000000;fill:#000000;}
*[layerid="99"] {stroke:#000000;fill:#000000;}
*[layerid="100"] {stroke:#000000;fill:#000000;}
*[layerid="101"] {stroke:#000000;fill:#000000;}
*[layerid="Hole"] {stroke:#000000;fill:#000000;}
*[layerid="DRCError"] {stroke:#000000;fill:#000000;}
*[fill="none"] {fill: none;}
*[stroke="none"] {stroke: none;}
path, polyline, polygon, line {stroke-linecap:round;}
g[c_partid="part_pad"][layerid="1"] ellipse:not([c_etype="pad_outer"]) {fill:#000000;}
g[c_partid="part_pad"][layerid="1"] polygon:not([c_etype="pad_outer"]) {fill:#000000;}
g[c_partid="part_pad"][layerid="1"] polyline:not([c_etype="pad_outer"]) {stroke:#000000;}
g[c_partid="part_pad"][layerid="2"] ellipse:not([c_etype="pad_outer"]) {fill:#000000;}
g[c_partid="part_pad"][layerid="2"] polygon:not([c_etype="pad_outer"]) {fill:#000000;}
g[c_partid="part_pad"][layerid="2"] polyline:not([c_etype="pad_outer"]) {stroke:#000000;}
g[c_partid="part_pad"][layerid="11"] ellipse:not([c_etype="pad_outer"]) {fill:#000000;}
g[c_partid="part_pad"][layerid="11"] polygon:not([c_etype="pad_outer"]) {fill:#000000;}
g[c_partid="part_pad"][layerid="11"] polyline:not([c_etype="pad_outer"]) {stroke:#000000;}
g[c_partid="part_pad"][layerid="11"] circle {fill:#FFFFFF;}
g[c_partid="part_pad"][layerid="11"] > polyline:nth-of-type(2) {stroke:#FFFFFF;}
g[c_partid="part_pad"][layerid="11"][c_shape="ELLIPSE"]  polyline:nth-last-of-type(1) {stroke:#FFFFFF;}
g[c_partid="part_pad"][layerid="11"][c_shape="RECT"]  polyline:nth-last-of-type(1) {stroke:#FFFFFF;}
g[c_partid="part_pad"][layerid="11"][c_shape="POLYGON"]  polyline:nth-last-of-type(1) {stroke:#FFFFFF;}
g[c_partid="part_via"] > * + circle, #gCurParts g[c_partid="part_via"] > * + circle {fill:#FFFFFF;}
g[c_partid="part_pad"] > polygon[c_etype="pad_outer"], #gCurParts g[c_partid="part_pad"] > polygon[c_etype="pad_outer"] {stroke-linejoin: round;stroke-miterlimit: 100;}
g[c_partid="part_hole"] > circle {fill: #FFFFFF;}path, polyline, polygon {stroke-linejoin:round;}
rect, circle, ellipse, polyline, line, polygon, path {shape-rendering:crispEdges;}
</style>
<rect x="4009.5" y="3258.5" width="92.5" height="142" fill="#FFFFFF" stroke="none"/><path d="M 4055.99439 3389.47983 L 4020.92032 3388.99936 4020.76856 3388.9672 4020.64045 3388.87971 4020.55526 3388.75006 4020.5258 3388.59775 4021.01415 3270.41835 4021.04507 3270.26578 4021.13189 3270.13657 4021.26145 3270.05029 4021.41414 3270.02 4090.58 3270.02 4090.73307 3270.05045 4090.86284 3270.13716 4090.94955 3270.26693 4090.98 3270.42 4090.98 3388.59959 4090.95008 3388.75137 4090.8648 3388.88046 4090.73691 3388.96752 4090.58556 3388.99955 4084.57818 3389.08298 4084.42562 3389.05503 4084.29516 3388.97113 4084.20642 3388.84392 4084.17274 3388.69251 4084.1992 3388.53967 4084.2504 3388.40628 4084.30755 3388.13743 4084.3153 3387.98953 4084.3153 3295.27096 4084.2844 3294.97699 4084.19957 3294.71592 4084.05971 3294.47367 4083.91819 3294.30809 4077.27419 3287.67406 4077.04434 3287.48821 4076.79965 3287.36377 4076.52926 3287.29153 4076.31436 3287.2747 4074.15096 3287.2747 4073.85699 3287.3056 4073.59592 3287.39043 4073.3536 3287.53033 4073.18883 3287.67106 4067.02477 3293.83512 4066.83874 3294.06484 4066.71412 3294.30943 4066.6417 3294.57969 4066.6247 3294.79572 4066.6247 3318.7989 4066.59675 3318.94579 4066.51682 3319.07215 4066.39606 3319.16033 4066.25137 3319.19801 4066.10294 3319.17992 4065.97153 3319.10858 4065.71433 3318.89832 4065.47057 3318.77412 4065.20031 3318.7017 4064.98428 3318.6847 4062.15096 3318.6847 4061.85699 3318.7156 4061.59592 3318.80043 4061.35339 3318.94045 4061.19123 3319.07861 4059.82541 3320.43783 4059.74848 3320.49765 4059.65936 3320.53708 4059.45644 3320.59864 4059.26593 3320.70047 4059.17456 3320.73571 4059.07737 3320.7477 4050.92263 3320.7477 4050.82544 3320.73571 4050.73407 3320.70047 4050.54356 3320.59864 4050.34545 3320.53854 4050.25593 3320.49886 4050.17872 3320.43861 4049.11488 3319.37477 4048.88516 3319.18874 4048.64057 3319.06412 4048.37031 3318.9917 4048.15428 3318.9747 4044.52793 3318.9747 4044.27893 3318.99707 4044.01247 3319.07481 4043.75212 3319.21479 4042.31151 3320.19624 4042.15172 3320.26028 4041.9798 3320.25123 4041.82762 3320.17076 4041.72334 3320.03379 4041.6863 3319.86567 4041.6863 3303.3395 4041.71675 3303.18643 4041.80346 3303.05666 4061.5566 3283.30352 4061.68329 3283.2181 4061.83276 3283.18642 4061.9832 3283.21309 4062.30924 3283.33866 4062.8315 3283.46312 4063.3657 3283.51686 4063.9023 3283.49892 4064.43171 3283.40962 4064.9445 3283.25055 4065.43151 3283.02455 4065.88405 3282.73566 4066.29405 3282.38903 4066.65419 3281.99084 4066.95804 3281.5482 4067.20019 3281.06902 4067.3763 3280.56183 4067.48324 3280.03569 4067.5191 3279.5 4067.48324 3278.96431 4067.3763 3278.43817 4067.20019 3277.93098 4066.95804 3277.4518 4066.65419 3277.00916 4066.29405 3276.61097 4065.88405 3276.26434 4065.43151 3275.97545 4064.9445 3275.74945 4064.43171 3275.59038 4063.9023 3275.50108 4063.3657 3275.48314 4062.8315 3275.53688 4062.30924 3275.66134 4061.80822 3275.85431 4061.33739 3276.11233 4060.90515 3276.4308 4060.51922 3276.80405 4060.18648 3277.2254 4059.91287 3277.68734 4059.70328 3278.18163 4059.56143 3278.69945 4059.48987 3279.23155 4059.48987 3279.76845 4059.56143 3280.30055 4059.70328 3280.81837 4059.78208 3281.00422 4059.81382 3281.15815 4059.7838 3281.31242 4059.69667 3281.44322 4040.26214 3300.87774 4040.13237 3300.96445 4039.9793 3300.9949 4039.82623 3300.96445 4039.69646 3300.87774 4039.60975 3300.74797 4039.5793 3300.5949 4039.5793 3288.9465 4039.60975 3288.79343 4039.69646 3288.66366 4045.0566 3283.30352 4045.18329 3283.2181 4045.33276 3283.18642 4045.4832 3283.21309 4045.80924 3283.33866 4046.3315 3283.46312 4046.8657 3283.51686 4047.4023 3283.49892 4047.93171 3283.40962 4048.4445 3283.25055 4048.93151 3283.02455 4049.38405 3282.73566 4049.79405 3282.38903 4050.15419 3281.99084 4050.45804 3281.5482 4050.70019 3281.06902 4050.8763 3280.56183 4050.98324 3280.03569 4051.0191 3279.5 4050.98324 3278.96431 4050.8763 3278.43817 4050.70019 3277.93098 4050.45804 3277.4518 4050.15419 3277.00916 4049.79405 3276.61097 4049.38405 3276.26434 4048.93151 3275.97545 4048.4445 3275.74945 4047.93171 3275.59038 4047.4023 3275.50108 4046.8657 3275.48314 4046.3315 3275.53688 4045.80924 3275.66134 4045.30822 3275.85431 4044.83739 3276.11233 4044.40515 3276.4308 4044.01922 3276.80405 4043.68648 3277.2254 4043.41287 3277.68734 4043.20328 3278.18163 4043.06143 3278.69945 4042.98987 3279.23155 4042.98987 3279.76845 4043.06143 3280.30055 4043.20328 3280.81837 4043.28208 3281.00422 4043.31382 3281.15815 4043.2838 3281.31242 4043.19667 3281.44322 4037.34877 3287.29112 4037.16274 3287.52084 4037.03812 3287.76543 4036.9657 3288.03569 4036.9487 3288.25172 4036.9487 3324.78504 4036.9796 3325.07901 4037.06443 3325.34008 4037.20433 3325.5824 4037.34506 3325.74717 4040.48173 3328.88384 4040.57806 3329.00419 4040.62172 3329.15203 4040.60623 3329.3054 4040.50844 3329.62778 4040.47799 3329.937 4040.50844 3330.24622 4040.59864 3330.54356 4040.67271 3330.70757 4040.6847 3330.80477 4040.6847 3341.97904 4040.7156 3342.27301 4040.80043 3342.53408 4040.94033 3342.7764 4041.08106 3342.94117 4065.19624 3367.05636 4065.28295 3367.18613 4065.3134 3367.3392 4065.3134 3370.12573 4065.28295 3370.2788 4065.19624 3370.40857 4065.06647 3370.49528 4064.9134 3370.52573 4064.76033 3370.49528 4064.63056 3370.40857 4054.62489 3360.4029 4054.37183 3360.19522 4054.10052 3360.05021 4053.80614 3359.96091 4053.48035 3359.92882 4040.51965 3359.92882 4040.19386 3359.96091 4039.89948 3360.05021 4039.62817 3360.19522 4039.37511 3360.4029 4032.60239 3367.17562 4032.47456 3367.26153 4032.32374 3367.29276 4032.1723 3367.26469 4031.90989 3367.1608 4031.35493 3367.01831 4030.78648 3366.94649 4030.21352 3366.94649 4029.64507 3367.01831 4029.09011 3367.1608 4028.55738 3367.37172 4028.05529 3367.64775 4027.59175 3367.98453 4027.17407 3368.37675 4026.80885 3368.81822 4026.50184 3369.30199 4026.25789 3369.82043 4026.08083 3370.36535 4025.97347 3370.92817 4025.93749 3371.5 4025.97347 3372.07183 4026.08083 3372.63465 4026.25789 3373.17957 4026.50184 3373.69801 4026.80885 3374.18178 4027.17407 3374.62325 4027.59175 3375.01547 4028.05529 3375.35225 4028.55738 3375.62828 4028.67607 3375.67528 4028.80869 3375.7614 4028.89757 3375.89218 4028.92882 3376.04719 4028.92882 3376.5367 4028.89837 3376.68977 4028.81166 3376.81954 4028.68189 3376.90625 4028.52882 3376.9367 4026.97916 3376.9367 4026.73029 3376.96474 4026.51524 3377.03999 4026.32232 3377.16121 4026.16121 3377.32232 4026.03999 3377.51524 4025.96474 3377.73029 4025.9367 3377.97916 4025.9367 3385.02084 4025.96474 3385.26971 4026.03999 3385.48476 4026.16121 3385.67768 4026.32232 3385.83879 4026.51524 3385.96001 4026.73029 3386.03526 4026.97916 3386.0633 4034.02084 3386.0633 4034.26971 3386.03526 4034.48476 3385.96001 4034.67768 3385.83879 4034.83879 3385.67768 4034.96001 3385.48476 4035.03526 3385.26971 4035.0633 3385.02084 4035.0633 3377.97916 4035.03526 3377.73029 4034.96001 3377.51524 4034.83879 3377.32232 4034.67768 3377.16121 4034.48476 3377.03999 4034.26971 3376.96474 4034.02084 3376.9367 4032.47118 3376.9367 4032.31811 3376.90625 4032.18834 3376.81954 4032.10163 3376.68977 4032.07118 3376.5367 4032.07118 3376.04719 4032.10243 3375.89218 4032.19131 3375.7614 4032.32393 3375.67528 4032.44262 3375.62828 4032.94471 3375.35225 4033.40825 3375.01547 4033.82593 3374.62325 4034.19115 3374.18178 4034.49816 3373.69801 4034.74211 3373.17957 4034.91917 3372.63465 4035.02653 3372.07183 4035.06251 3371.5 4035.02653 3370.92817 4034.91917 3370.36535 4034.73434 3369.79651 4034.71531 3369.65197 4034.74935 3369.51021 4034.83192 3369.39006 4041.03365 3363.18834 4041.16342 3363.10163 4041.31649 3363.07118 4052.68351 3363.07118 4052.83658 3363.10163 4052.96635 3363.18834 4068.37511 3378.5971 4068.62817 3378.80478 4068.89948 3378.94979 4069.19386 3379.03909 4069.51965 3379.07118 4071.68351 3379.07118 4071.83658 3379.10163 4071.96635 3379.18834 4073.5923 3380.81429 4073.6631 3380.91022 4073.70248 3381.02276 4073.70694 3381.14191 4073.6878 3381.31181 4073.6878 3385.15264 4073.65563 3385.30981 4073.5643 3385.44169 4073.42849 3385.52709 4073.27005 3385.55225 4073.11447 3385.51314 4072.98677 3385.41605 4072.41117 3384.75822 4072.33776 3384.63551 4072.3122 3384.49482 4072.3122 3381.31181 4072.28416 3381.06294 4072.20891 3380.84789 4072.08769 3380.65497 4071.92658 3380.49386 4071.73366 3380.37264 4071.51861 3380.29739 4071.26974 3380.26935 4066.85586 3380.26935 4066.60699 3380.29739 4066.39194 3380.37264 4066.19902 3380.49386 4066.03791 3380.65497 4065.91669 3380.84789 4065.84144 3381.06294 4065.8134 3381.31181 4065.8134 3386.68819 4065.84144 3386.93706 4065.91669 3387.15211 4066.03791 3387.34503 4066.19902 3387.50614 4066.39194 3387.62736 4066.60699 3387.70261 4066.85586 3387.73065 4071.26974 3387.73065 4071.4143 3387.73497 4071.53365 3387.78125 4071.63226 3387.86285 4072.27258 3388.59463 4072.34871 3388.72481 4072.37123 3388.87393 4072.33694 3389.02079 4072.25071 3389.14451 4072.1248 3389.22751 4071.9771 3389.258 4056.00542 3389.47983 4055.99439 3389.47983 Z M 4050.78648 3386.05351 L 4051.35493 3385.98169 4051.90989 3385.8392 4052.44262 3385.62828 4052.94471 3385.35225 4053.40825 3385.01547 4053.82593 3384.62325 4054.19115 3384.18178 4054.49816 3383.69801 4054.74211 3383.17957 4054.91917 3382.63465 4055.02653 3382.07183 4055.06251 3381.5 4055.02653 3380.92817 4054.91917 3380.36535 4054.74211 3379.82043 4054.49816 3379.30199 4054.19115 3378.81822 4053.82593 3378.37675 4053.40825 3377.98453 4052.94471 3377.64775 4052.44262 3377.37172 4052.32393 3377.32472 4052.19131 3377.2386 4052.10243 3377.10782 4052.07118 3376.95281 4052.07118 3376.04719 4052.10243 3375.89218 4052.19131 3375.7614 4052.32393 3375.67528 4052.44262 3375.62828 4052.94471 3375.35225 4053.40825 3375.01547 4053.82593 3374.62325 4054.19115 3374.18178 4054.49816 3373.69801 4054.74211 3373.17957 4054.91917 3372.63465 4055.02653 3372.07183 4055.06251 3371.5 4055.02653 3370.92817 4054.91917 3370.36535 4054.74211 3369.82043 4054.49816 3369.30199 4054.19115 3368.81822 4053.82593 3368.37675 4053.40825 3367.98453 4052.94471 3367.64775 4052.44262 3367.37172 4051.90989 3367.1608 4051.35493 3367.01831 4050.78648 3366.94649 4050.21352 3366.94649 4049.64507 3367.01831 4049.09011 3367.1608 4048.55738 3367.37172 4048.05529 3367.64775 4047.59175 3367.98453 4047.17407 3368.37675 4046.80885 3368.81822 4046.50184 3369.30199 4046.25789 3369.82043 4046.08083 3370.36535 4045.97347 3370.92817 4045.93749 3371.5 4045.97347 3372.07183 4046.08083 3372.63465 4046.25789 3373.17957 4046.50184 3373.69801 4046.80885 3374.18178 4047.17407 3374.62325 4047.59175 3375.01547 4048.05529 3375.35225 4048.55738 3375.62828 4048.67607 3375.67528 4048.80869 3375.7614 4048.89757 3375.89218 4048.92882 3376.04719 4048.92882 3376.95281 4048.89757 3377.10782 4048.80869 3377.2386 4048.67607 3377.32472 4048.55738 3377.37172 4048.05529 3377.64775 4047.59175 3377.98453 4047.17407 3378.37675 4046.80885 3378.81822 4046.50184 3379.30199 4046.25789 3379.82043 4046.08083 3380.36535 4045.97347 3380.92817 4045.93749 3381.5 4045.97347 3382.07183 4046.08083 3382.63465 4046.25789 3383.17957 4046.50184 3383.69801 4046.80885 3384.18178 4047.17407 3384.62325 4047.59175 3385.01547 4048.05529 3385.35225 4048.55738 3385.62828 4049.09011 3385.8392 4049.64507 3385.98169 4050.21352 3386.05351 4050.78648 3386.05351 Z M 4028.8657 3283.51686 L 4029.4023 3283.49892 4029.93171 3283.40962 4030.4445 3283.25055 4030.93151 3283.02455 4031.38405 3282.73566 4031.79405 3282.38903 4032.15419 3281.99084 4032.45804 3281.5482 4032.70019 3281.06902 4032.8763 3280.56183 4032.98324 3280.03569 4033.0191 3279.5 4032.98324 3278.96431 4032.8763 3278.43817 4032.70019 3277.93098 4032.45804 3277.4518 4032.15419 3277.00916 4031.79405 3276.61097 4031.38405 3276.26434 4030.93151 3275.97545 4030.4445 3275.74945 4029.93171 3275.59038 4029.4023 3275.50108 4028.8657 3275.48314 4028.3315 3275.53688 4027.80924 3275.66134 4027.30822 3275.85431 4026.83739 3276.11233 4026.40515 3276.4308 4026.01922 3276.80405 4025.68648 3277.2254 4025.41287 3277.68734 4025.20328 3278.18163 4025.06143 3278.69945 4024.98987 3279.23155 4024.98987 3279.76845 4025.06143 3280.30055 4025.20328 3280.81837 4025.41287 3281.31266 4025.68648 3281.7746 4026.01922 3282.19595 4026.40515 3282.5692 4026.83739 3282.88767 4027.30822 3283.14569 4027.80924 3283.33866 4028.3315 3283.46312 4028.8657 3283.51686 Z M 4038.47835 3385.58484 L 4038.47835 3383.52165 4036.41886 3383.52165 4036.50184 3383.69801 4036.80885 3384.18178 4037.17407 3384.62325 4037.59175 3385.01547 4038.05529 3385.35225 4038.47835 3385.58484 Z M 4038.47835 3375.58484 L 4038.47835 3373.52165 4036.41886 3373.52165 4036.50184 3373.69801 4036.80885 3374.18178 4037.17407 3374.62325 4037.59175 3375.01547 4038.05529 3375.35225 4038.47835 3375.58484 Z M 4042.52165 3367.41516 L 4042.52165 3369.47835 4044.58114 3369.47835 4044.49816 3369.30199 4044.19115 3368.81822 4043.82593 3368.37675 4043.40825 3367.98453 4042.94471 3367.64775 4042.52165 3367.41516 Z M 4042.52165 3373.52165 L 4042.52165 3375.58484 4042.94471 3375.35225 4043.40825 3375.01547 4043.82593 3374.62325 4044.19115 3374.18178 4044.49816 3373.69801 4044.58114 3373.52165 4042.52165 3373.52165 Z M 4042.52165 3383.52165 L 4042.52165 3385.58484 4042.94471 3385.35225 4043.40825 3385.01547 4043.82593 3384.62325 4044.19115 3384.18178 4044.49816 3383.69801 4044.58114 3383.52165 4042.52165 3383.52165 Z M 4042.52165 3377.41516 L 4042.52165 3379.47835 4044.58114 3379.47835 4044.49816 3379.30199 4044.19115 3378.81822 4043.82593 3378.37675 4043.40825 3377.98453 4042.94471 3377.64775 4042.52165 3377.41516 Z M 4038.47835 3379.47835 L 4038.47835 3377.41516 4038.05529 3377.64775 4037.59175 3377.98453 4037.17407 3378.37675 4036.80885 3378.81822 4036.50184 3379.30199 4036.41886 3379.47835 4038.47835 3379.47835 Z M 4038.47835 3369.47835 L 4038.47835 3367.41516 4038.05529 3367.64775 4037.59175 3367.98453 4037.17407 3368.37675 4036.80885 3368.81822 4036.50184 3369.30199 4036.41886 3369.47835 4038.47835 3369.47835 Z " stroke-width="0" layerid="1" attachedcopperid="gge3963" c_shapetype="line" id="gge3963_0" class=""></path><polyline points="4047.76 3323.7771 4047.9829 3324 4048 3324" stroke-width="1"  stroke-linecap="round" fill="none" layerid="1" net="SIPM_C" id="gge3821" locked="0" /><polyline points="4067.502 3322.498 4067.937 3322.063" stroke-width="1"  stroke-linecap="round" fill="none" layerid="1" net="R3" id="gge3773" locked="0" /><polyline points="4067.5 3322.5 4063.998 3326.002" stroke-width="0.5906"  stroke-linecap="round" fill="none" layerid="1" net="R3" id="gge3794" locked="0" /><polyline points="4054 3330.5 4059.5 3330.5 4060.063 3329.937" stroke-width="0.5906"  stroke-linecap="round" fill="none" layerid="1" net="R2" id="gge3743" locked="0" /><polyline points="4049.937 3329.937 4050.5 3330.5 4054 3330.5" stroke-width="0.5906"  stroke-linecap="round" fill="none" layerid="1" net="R2" id="gge3746" locked="0" /><polyline points="4060.063 3322.063 4049.937 3322.063" stroke-width="0.5906"  stroke-linecap="round" fill="none" layerid="1" net="R3" id="gge3788" locked="0" /><polyline points="4067.5 3322.5 4065 3320 4062.13 3320 4060.06 3322.06" stroke-width="0.5906"  stroke-linecap="round" fill="none" layerid="1" net="R3" id="gge3791" locked="0" /><polyline points="4056.5 3327.5 4058.563 3327.5 4060.063 3326" stroke-width="1"  stroke-linecap="round" fill="none" layerid="1" net="SIPM_A" id="gge3752" locked="0" /><polyline points="4046 3329.937 4048.964 3332.901 4061.036 3332.901 4064 3329.937" stroke-width="0.5906"  stroke-linecap="round" fill="none" layerid="1" net="C2" id="gge3734" locked="0" /><polyline points="4042 3330 4042 3337 4042 3341.5" stroke-width="0.5906"  stroke-linecap="round" fill="none" layerid="1" net="R1" id="gge3924" locked="0" /><polyline points="4042 3341.5 4042 3342 4068 3368" stroke-width="0.5906"  stroke-linecap="round" fill="none" layerid="1" net="R1" id="gge3949" locked="0" /><polyline points="4068 3330 4068 3366.5" stroke-width="0.5906"  stroke-linecap="round" fill="none" layerid="1" net="R1" id="gge3953" locked="0" /><polyline points="4030.5 3371.5 4030.5 3381.5" stroke-width="1.10236"  stroke-linecap="round" fill="none" layerid="1" net="SIPM_C" id="gge3809" locked="0" /><polyline points="4066.5 3374.5 4069.5 3377.5 4072.5 3377.5 4076.937 3381.937 4076.937 3384" stroke-width="1.10236"  stroke-linecap="round" fill="none" layerid="1" net="SIPM_C" id="gge3879" locked="0" /><polyline points="4076.44 3368 4076.44 3371.55 4073 3375 4067 3375 4053.5 3361.5 4040.5 3361.5 4030.5 3371.5" stroke-width="1.10236"  stroke-linecap="round" fill="none" layerid="1" net="SIPM_C" id="gge3812" locked="0" /><polyline points="4050.5 3381.5 4050.5 3371.5" stroke-width="1.10236"  stroke-linecap="round" fill="none" layerid="1" net="SIPM_A" id="gge3764" locked="0" /><polyline points="4040.5 3381.5 4040.5 3371.5" stroke-width="1.10236"  stroke-linecap="round" fill="none" layerid="1" net="GND" id="gge3836" locked="0" /><polyline points="4064 3322.06 4062.29 3323.78 4047.76 3323.78" stroke-width="1"  stroke-linecap="round" fill="none" layerid="1" net="SIPM_C" id="gge3818" locked="0" /><polyline points="4050 3326 4051.5 3327.5 4056.5 3327.5" stroke-width="1"  stroke-linecap="round" fill="none" layerid="1" net="SIPM_A" id="gge3755" locked="0" /><polyline points="4047.76 3323.777 4047.714 3323.777 4046 3322.063" stroke-width="1.10236"  stroke-linecap="round" fill="none" layerid="1" net="SIPM_C" id="gge3815" locked="0" /><polyline points="4049.94 3322.06 4048.17 3320.29 4044.51 3320.29 4042 3322" stroke-width="0.5906"  stroke-linecap="round" fill="none" layerid="1" net="R3" id="gge3782" locked="0" /><polyline points="4042 3322 4042.74 3322.74 4046 3326" stroke-width="0.5906"  stroke-linecap="round" fill="none" layerid="1" net="R3" id="gge3779" locked="0" /><polyline points="4042.063 3326 4040.371 3324.308 4040.371 3302.629 4063.5 3279.5" stroke-width="0.5906"  stroke-linecap="round" fill="none" layerid="1" net="A1" id="gge3728" locked="0" /><polyline points="4047 3279.5 4038.264 3288.236 4038.264 3324.806 4041.426 3327.968 4044.031 3327.968 4046 3329.937" stroke-width="0.5906"  stroke-linecap="round" fill="none" layerid="1" net="C2" id="gge3737" locked="0" /><polyline points="4067.937 3326 4075.314 3318.623 4075.314 3291.314" stroke-width="0.5906"  stroke-linecap="round" fill="none" layerid="1" net="A1" id="gge3722" locked="0" /><polyline points="4067.94 3322.06 4067.94 3294.78 4074.13 3288.59 4076.33 3288.59 4083 3295.25 4083 3388 4073.5 3388 4070 3384 4069.06 3384" stroke-width="0.5906"  stroke-linecap="round" fill="none" layerid="1" net="R3" id="gge3770" locked="0" /><g c_partid="part_pad" c_etype="pinpart" c_origin="4076.437,3368" layerid="1" number="2" net="SIPM_C" plated ="Y"  id="gge628" locked="0" c_rotation="0" c_width="4.4588" c_height="5.4213" title="SIPM_C" c_shape="RECT" pasteexpansion="-393.7008" solderexpansion="0.2000"><polygon  c_etype="pad_shell" points="4074.2078 3370.7106 4074.2078 3365.2894 4078.6666 3365.2894 4078.6666 3370.7106" layerid="1" stroke-width="0" /><circle c_etype="pad_hole" cx="4076.4372" cy="3368" r="0" layerid="1" stroke-width="0"/></g><g c_partid="part_pad" c_etype="pinpart" c_origin="4068.563,3368" layerid="1" number="1" net="R1" plated ="Y"  id="gge640" locked="0" c_rotation="0" c_width="4.4588" c_height="5.4213" title="R1" c_shape="RECT" pasteexpansion="-393.7008" solderexpansion="0.2000"><polygon  c_etype="pad_shell" points="4070.7922 3370.7106 4070.7922 3365.2894 4066.3334 3365.2894 4066.3334 3370.7106" layerid="1" stroke-width="0" /><circle c_etype="pad_hole" cx="4068.5628" cy="3368" r="0" layerid="1" stroke-width="0"/></g><g c_partid="part_pad" c_etype="pinpart" c_origin="4042.063,3329.937" layerid="1" number="R1" net="R1" plated ="Y"  id="gge2315" locked="0" c_rotation="0" c_width="1.1339" c_height="1.1339" title="R1" c_shape="ELLIPSE" pasteexpansion="-393.7" solderexpansion="0.2"><ellipse c_etype="pad_shell" cx="4042.063" cy="3329.937" rx="0.56695" ry="0.56695" layerid="1" stroke-width="0"/><circle c_etype="pad_hole" cx="4042.063" cy="3329.937" r="0" layerid="1" stroke-width="0"/></g><g c_partid="part_pad" c_etype="pinpart" c_origin="4042.063,3326" layerid="1" number="A1" net="A1" plated ="Y"  id="gge2330" locked="0" c_rotation="0" c_width="1.1339" c_height="1.1339" title="A1" c_shape="ELLIPSE" pasteexpansion="-393.7" solderexpansion="0.2"><ellipse c_etype="pad_shell" cx="4042.063" cy="3326" rx="0.56695" ry="0.56695" layerid="1" stroke-width="0"/><circle c_etype="pad_hole" cx="4042.063" cy="3326" r="0" layerid="1" stroke-width="0"/></g><g c_partid="part_pad" c_etype="pinpart" c_origin="4042.063,3322.063" layerid="1" number="" net="R3" plated ="Y"  id="gge2345" locked="0" c_rotation="0" c_width="1.1339" c_height="1.1339" title="R3" c_shape="ELLIPSE" pasteexpansion="-393.7" solderexpansion="0.2"><ellipse c_etype="pad_shell" cx="4042.063" cy="3322.063" rx="0.56695" ry="0.56695" layerid="1" stroke-width="0"/><circle c_etype="pad_hole" cx="4042.063" cy="3322.063" r="0" layerid="1" stroke-width="0"/></g><g c_partid="part_pad" c_etype="pinpart" c_origin="4046,3329.937" layerid="1" number="C2" net="C2" plated ="Y"  id="gge2360" locked="0" c_rotation="0" c_width="1.1339" c_height="1.1339" title="C2" c_shape="ELLIPSE" pasteexpansion="-393.7" solderexpansion="0.2"><ellipse c_etype="pad_shell" cx="4046" cy="3329.937" rx="0.56695" ry="0.56695" layerid="1" stroke-width="0"/><circle c_etype="pad_hole" cx="4046" cy="3329.937" r="0" layerid="1" stroke-width="0"/></g><g c_partid="part_pad" c_etype="pinpart" c_origin="4046,3326" layerid="1" number="" net="R3" plated ="Y"  id="gge2375" locked="0" c_rotation="0" c_width="1.1339" c_height="1.1339" title="R3" c_shape="ELLIPSE" pasteexpansion="-393.7" solderexpansion="0.2"><ellipse c_etype="pad_shell" cx="4046" cy="3326" rx="0.56695" ry="0.56695" layerid="1" stroke-width="0"/><circle c_etype="pad_hole" cx="4046" cy="3326" r="0" layerid="1" stroke-width="0"/></g><g c_partid="part_pad" c_etype="pinpart" c_origin="4046,3322.063" layerid="1" number="C1" net="SIPM_C" plated ="Y"  id="gge2390" locked="0" c_rotation="0" c_width="1.1339" c_height="1.1339" title="SIPM_C" c_shape="ELLIPSE" pasteexpansion="-393.7" solderexpansion="0.2"><ellipse c_etype="pad_shell" cx="4046" cy="3322.063" rx="0.56695" ry="0.56695" layerid="1" stroke-width="0"/><circle c_etype="pad_hole" cx="4046" cy="3322.063" r="0" layerid="1" stroke-width="0"/></g><g c_partid="part_pad" c_etype="pinpart" c_origin="4049.937,3329.937" layerid="1" number="R2" net="R2" plated ="Y"  id="gge2405" locked="0" c_rotation="0" c_width="1.1339" c_height="1.1339" title="R2" c_shape="ELLIPSE" pasteexpansion="-393.7" solderexpansion="0.2"><ellipse c_etype="pad_shell" cx="4049.937" cy="3329.937" rx="0.56695" ry="0.56695" layerid="1" stroke-width="0"/><circle c_etype="pad_hole" cx="4049.937" cy="3329.937" r="0" layerid="1" stroke-width="0"/></g><g c_partid="part_pad" c_etype="pinpart" c_origin="4049.937,3326" layerid="1" number="A2" net="SIPM_A" plated ="Y"  id="gge2420" locked="0" c_rotation="0" c_width="1.1339" c_height="1.1339" title="SIPM_A" c_shape="ELLIPSE" pasteexpansion="-393.7" solderexpansion="0.2"><ellipse c_etype="pad_shell" cx="4049.937" cy="3326" rx="0.56695" ry="0.56695" layerid="1" stroke-width="0"/><circle c_etype="pad_hole" cx="4049.937" cy="3326" r="0" layerid="1" stroke-width="0"/></g><g c_partid="part_pad" c_etype="pinpart" c_origin="4049.937,3322.063" layerid="1" number="" net="R3" plated ="Y"  id="gge2435" locked="0" c_rotation="0" c_width="1.1339" c_height="1.1339" title="R3" c_shape="ELLIPSE" pasteexpansion="-393.7" solderexpansion="0.2"><ellipse c_etype="pad_shell" cx="4049.937" cy="3322.063" rx="0.56695" ry="0.56695" layerid="1" stroke-width="0"/><circle c_etype="pad_hole" cx="4049.937" cy="3322.063" r="0" layerid="1" stroke-width="0"/></g><g c_partid="part_pad" c_etype="pinpart" c_origin="4076.937,3384" layerid="1" number="2" net="SIPM_C" plated ="Y"  id="gge2855" locked="0" c_rotation="0" c_width="4.4588" c_height="5.4213" title="SIPM_C" c_shape="RECT" pasteexpansion="-393.7008" solderexpansion="0.2000"><polygon  c_etype="pad_shell" points="4074.7078 3386.7106 4074.7078 3381.2894 4079.1666 3381.2894 4079.1666 3386.7106" layerid="1" stroke-width="0" /><circle c_etype="pad_hole" cx="4076.9372" cy="3384" r="0" layerid="1" stroke-width="0"/></g><g c_partid="part_pad" c_etype="pinpart" c_origin="4069.063,3384" layerid="1" number="1" net="R3" plated ="Y"  id="gge2867" locked="0" c_rotation="0" c_width="4.4588" c_height="5.4213" title="R3" c_shape="RECT" pasteexpansion="-393.7008" solderexpansion="0.2000"><polygon  c_etype="pad_shell" points="4071.2922 3386.7106 4071.2922 3381.2894 4066.8334 3381.2894 4066.8334 3386.7106" layerid="1" stroke-width="0" /><circle c_etype="pad_hole" cx="4069.0628" cy="3384" r="0" layerid="1" stroke-width="0"/></g><g c_partid="part_pad" c_etype="pinpart" c_origin="4060.063,3329.937" layerid="1" number="R2" net="R2" plated ="Y"  id="gge3032" locked="0" c_rotation="0" c_width="1.1339" c_height="1.1339" title="R2" c_shape="ELLIPSE" pasteexpansion="-393.7" solderexpansion="0.2"><ellipse c_etype="pad_shell" cx="4060.063" cy="3329.937" rx="0.56695" ry="0.56695" layerid="1" stroke-width="0"/><circle c_etype="pad_hole" cx="4060.063" cy="3329.937" r="0" layerid="1" stroke-width="0"/></g><g c_partid="part_pad" c_etype="pinpart" c_origin="4060.063,3326" layerid="1" number="A2" net="SIPM_A" plated ="Y"  id="gge3047" locked="0" c_rotation="0" c_width="1.1339" c_height="1.1339" title="SIPM_A" c_shape="ELLIPSE" pasteexpansion="-393.7" solderexpansion="0.2"><ellipse c_etype="pad_shell" cx="4060.063" cy="3326" rx="0.56695" ry="0.56695" layerid="1" stroke-width="0"/><circle c_etype="pad_hole" cx="4060.063" cy="3326" r="0" layerid="1" stroke-width="0"/></g><g c_partid="part_pad" c_etype="pinpart" c_origin="4060.063,3322.063" layerid="1" number="" net="R3" plated ="Y"  id="gge3062" locked="0" c_rotation="0" c_width="1.1339" c_height="1.1339" title="R3" c_shape="ELLIPSE" pasteexpansion="-393.7" solderexpansion="0.2"><ellipse c_etype="pad_shell" cx="4060.063" cy="3322.063" rx="0.56695" ry="0.56695" layerid="1" stroke-width="0"/><circle c_etype="pad_hole" cx="4060.063" cy="3322.063" r="0" layerid="1" stroke-width="0"/></g><g c_partid="part_pad" c_etype="pinpart" c_origin="4064,3329.937" layerid="1" number="C2" net="C2" plated ="Y"  id="gge3077" locked="0" c_rotation="0" c_width="1.1339" c_height="1.1339" title="C2" c_shape="ELLIPSE" pasteexpansion="-393.7" solderexpansion="0.2"><ellipse c_etype="pad_shell" cx="4064" cy="3329.937" rx="0.56695" ry="0.56695" layerid="1" stroke-width="0"/><circle c_etype="pad_hole" cx="4064" cy="3329.937" r="0" layerid="1" stroke-width="0"/></g><g c_partid="part_pad" c_etype="pinpart" c_origin="4064,3326" layerid="1" number="" net="R3" plated ="Y"  id="gge3092" locked="0" c_rotation="0" c_width="1.1339" c_height="1.1339" title="R3" c_shape="ELLIPSE" pasteexpansion="-393.7" solderexpansion="0.2"><ellipse c_etype="pad_shell" cx="4064" cy="3326" rx="0.56695" ry="0.56695" layerid="1" stroke-width="0"/><circle c_etype="pad_hole" cx="4064" cy="3326" r="0" layerid="1" stroke-width="0"/></g><g c_partid="part_pad" c_etype="pinpart" c_origin="4064,3322.063" layerid="1" number="C1" net="SIPM_C" plated ="Y"  id="gge3107" locked="0" c_rotation="0" c_width="1.1339" c_height="1.1339" title="SIPM_C" c_shape="ELLIPSE" pasteexpansion="-393.7" solderexpansion="0.2"><ellipse c_etype="pad_shell" cx="4064" cy="3322.063" rx="0.56695" ry="0.56695" layerid="1" stroke-width="0"/><circle c_etype="pad_hole" cx="4064" cy="3322.063" r="0" layerid="1" stroke-width="0"/></g><g c_partid="part_pad" c_etype="pinpart" c_origin="4067.937,3329.937" layerid="1" number="R1" net="R1" plated ="Y"  id="gge3122" locked="0" c_rotation="0" c_width="1.1339" c_height="1.1339" title="R1" c_shape="ELLIPSE" pasteexpansion="-393.7" solderexpansion="0.2"><ellipse c_etype="pad_shell" cx="4067.937" cy="3329.937" rx="0.56695" ry="0.56695" layerid="1" stroke-width="0"/><circle c_etype="pad_hole" cx="4067.937" cy="3329.937" r="0" layerid="1" stroke-width="0"/></g><g c_partid="part_pad" c_etype="pinpart" c_origin="4067.937,3326" layerid="1" number="A1" net="A1" plated ="Y"  id="gge3137" locked="0" c_rotation="0" c_width="1.1339" c_height="1.1339" title="A1" c_shape="ELLIPSE" pasteexpansion="-393.7" solderexpansion="0.2"><ellipse c_etype="pad_shell" cx="4067.937" cy="3326" rx="0.56695" ry="0.56695" layerid="1" stroke-width="0"/><circle c_etype="pad_hole" cx="4067.937" cy="3326" r="0" layerid="1" stroke-width="0"/></g><g c_partid="part_pad" c_etype="pinpart" c_origin="4067.937,3322.063" layerid="1" number="" net="R3" plated ="Y"  id="gge3152" locked="0" c_rotation="0" c_width="1.1339" c_height="1.1339" title="R3" c_shape="ELLIPSE" pasteexpansion="-393.7" solderexpansion="0.2"><ellipse c_etype="pad_shell" cx="4067.937" cy="3322.063" rx="0.56695" ry="0.56695" layerid="1" stroke-width="0"/><circle c_etype="pad_hole" cx="4067.937" cy="3322.063" r="0" layerid="1" stroke-width="0"/></g><g c_partid="part_pad" c_etype="pinpart" c_origin="4063.5,3279.5" layerid="11" number="8" net="A1" plated ="Y"  id="gge1123" locked="0" c_rotation="0" c_width="6" c_height="6" title="A1" c_shape="ELLIPSE" pasteexpansion="0" solderexpansion="0.2"><ellipse c_etype="pad_shell" cx="4063.5" cy="3279.5" rx="3" ry="3" layerid="11" stroke-width="0"/><circle c_etype="pad_hole" cx="4063.5" cy="3279.5" r="1.8" layerid="11" stroke-width="0"/></g><g c_partid="part_pad" c_etype="pinpart" c_origin="4047,3279.5" layerid="11" number="8" net="C2" plated ="Y"  id="gge1171" locked="0" c_rotation="0" c_width="6" c_height="6" title="C2" c_shape="ELLIPSE" pasteexpansion="0" solderexpansion="0.2"><ellipse c_etype="pad_shell" cx="4047" cy="3279.5" rx="3" ry="3" layerid="11" stroke-width="0"/><circle c_etype="pad_hole" cx="4047" cy="3279.5" r="1.8" layerid="11" stroke-width="0"/></g><g c_partid="part_pad" c_etype="pinpart" c_origin="4029,3279.5" layerid="11" number="8" net="R2" plated ="Y"  id="gge1195" locked="0" c_rotation="0" c_width="6" c_height="6" title="R2" c_shape="ELLIPSE" pasteexpansion="0" solderexpansion="0.2"><ellipse c_etype="pad_shell" cx="4029" cy="3279.5" rx="3" ry="3" layerid="11" stroke-width="0"/><circle c_etype="pad_hole" cx="4029" cy="3279.5" r="1.8" layerid="11" stroke-width="0"/></g><g c_partid="part_pad" c_etype="pinpart" c_origin="4030.5,3371.5" layerid="11" number="6" net="SIPM_A" plated ="Y"  id="gge499" locked="0" c_rotation="0" c_width="7.0866" c_height="7.0866" title="SIPM_A" c_shape="ELLIPSE" pasteexpansion="0" solderexpansion="0.2"><ellipse c_etype="pad_shell" cx="4030.5" cy="3371.5" rx="3.5433" ry="3.5433" layerid="11" stroke-width="0"/><circle c_etype="pad_hole" cx="4030.5" cy="3371.4998" r="2.0669" layerid="11" stroke-width="0"/></g><g c_partid="part_pad" c_etype="pinpart" c_origin="4030.5,3381.5" layerid="11" number="5" net="SIPM_A" plated ="Y"  id="gge514" locked="0" c_rotation="0" c_width="7.0866" c_height="7.0866" title="SIPM_A" c_shape="ELLIPSE" pasteexpansion="0" solderexpansion="0.2"><ellipse c_etype="pad_shell" cx="4030.5" cy="3381.5" rx="3.5433" ry="3.5433" layerid="11" stroke-width="0"/><circle c_etype="pad_hole" cx="4030.5" cy="3381.4998" r="2.0669" layerid="11" stroke-width="0"/></g><g c_partid="part_pad" c_etype="pinpart" c_origin="4040.5,3371.5" layerid="11" number="4" net="GND" plated ="Y"  id="gge529" locked="0" c_rotation="0" c_width="7.0866" c_height="7.0866" title="GND" c_shape="ELLIPSE" pasteexpansion="0" solderexpansion="0.2"><ellipse c_etype="pad_shell" cx="4040.5" cy="3371.5" rx="3.5433" ry="3.5433" layerid="11" stroke-width="0"/><circle c_etype="pad_hole" cx="4040.5" cy="3371.4998" r="2.0669" layerid="11" stroke-width="0"/></g><g c_partid="part_pad" c_etype="pinpart" c_origin="4040.5,3381.5" layerid="11" number="3" net="GND" plated ="Y"  id="gge544" locked="0" c_rotation="0" c_width="7.0866" c_height="7.0866" title="GND" c_shape="ELLIPSE" pasteexpansion="0" solderexpansion="0.2"><ellipse c_etype="pad_shell" cx="4040.5" cy="3381.5" rx="3.5433" ry="3.5433" layerid="11" stroke-width="0"/><circle c_etype="pad_hole" cx="4040.5" cy="3381.4998" r="2.0669" layerid="11" stroke-width="0"/></g><g c_partid="part_pad" c_etype="pinpart" c_origin="4050.5,3371.5" layerid="11" number="2" net="SIPM_C" plated ="Y"  id="gge559" locked="0" c_rotation="0" c_width="7.0866" c_height="7.0866" title="SIPM_C" c_shape="ELLIPSE" pasteexpansion="0" solderexpansion="0.2"><ellipse c_etype="pad_shell" cx="4050.5" cy="3371.5" rx="3.5433" ry="3.5433" layerid="11" stroke-width="0"/><circle c_etype="pad_hole" cx="4050.5" cy="3371.4998" r="2.0669" layerid="11" stroke-width="0"/></g><g c_partid="part_pad" c_etype="pinpart" c_origin="4050.5,3381.5" layerid="11" number="1" net="SIPM_C" plated ="Y"  id="gge574" locked="0" c_rotation="0" c_width="7.0866" c_height="7.0866" title="SIPM_C" c_shape="RECT" pasteexpansion="0" solderexpansion="0.2"><polygon  c_etype="pad_shell" points="4054.0433 3377.9565 4046.9567 3377.9565 4046.9567 3385.0431 4054.0433 3385.0431" layerid="11" stroke-width="0" /><circle c_etype="pad_hole" cx="4050.5" cy="3381.4998" r="2.0669" layerid="11" stroke-width="0"/></g><g c_partid="part_via" c_etype="pinpart" c_shapetype="group" net="A1" c_origin="4075.314,3291.314" layerid="11" id="gge3731" locked="0" solderexpansion=""><circle cx="4075.314" cy="3291.314" r="1.2" stroke-width="0" c_etype="pad_shell"/><circle cx="4075.314" cy="3291.314" r="0.6"  stroke-width="0" c_etype="pad_hole"/></g><g c_partid="part_via" c_etype="pinpart" c_shapetype="group" net="R2" c_origin="4054,3330.5" layerid="11" id="gge3749" locked="0" solderexpansion=""><circle cx="4054" cy="3330.5" r="1.2" stroke-width="0" c_etype="pad_shell"/><circle cx="4054" cy="3330.5" r="0.6"  stroke-width="0" c_etype="pad_hole"/></g><g c_partid="part_via" c_etype="pinpart" c_shapetype="group" net="SIPM_A" c_origin="4056.5,3327.5" layerid="11" id="gge3767" locked="0" solderexpansion=""><circle cx="4056.5" cy="3327.5" r="1.2" stroke-width="0" c_etype="pad_shell"/><circle cx="4056.5" cy="3327.5" r="0.6"  stroke-width="0" c_etype="pad_hole"/></g><g c_partid="part_via" c_etype="pinpart" c_shapetype="group" net="SIPM_C" c_origin="4048,3324" layerid="11" id="gge3833" locked="0" solderexpansion=""><circle cx="4048" cy="3324" r="1.2" stroke-width="0" c_etype="pad_shell"/><circle cx="4048" cy="3324" r="0.6"  stroke-width="0" c_etype="pad_hole"/></g><polyline points="4074.3748 3371.6106 4079.4336 3371.6106 4079.4336 3364.3894 4074.3748 3364.3894" stroke-width="0.6"  stroke-linecap="round" fill="none" layerid="3" net="" id="gge613" locked="0" /><polyline points="4070.6252 3371.6106 4065.5664 3371.6106 4065.5664 3364.3894 4070.6252 3364.3894" stroke-width="0.6"  stroke-linecap="round" fill="none" layerid="3" net="" id="gge616" locked="0" /><polyline points="4039.5091 3319.5091 4052.4909 3319.5091 4052.4909 3332.4909 4039.5091 3332.4909 4039.5091 3319.5091" stroke-width="0.6"  stroke-linecap="round" fill="none" layerid="3" net="" id="gge2303" locked="0" /><polyline points="4038.6091 3330.6878 4038.6091 3333.3909 4041.3122 3333.3909" stroke-width="0.6"  stroke-linecap="round" fill="none" layerid="3" net="" id="gge2312" locked="0" /><polyline points="4074.8748 3387.6106 4079.9336 3387.6106 4079.9336 3380.3894 4074.8748 3380.3894" stroke-width="0.6"  stroke-linecap="round" fill="none" layerid="3" net="" id="gge2840" locked="0" /><polyline points="4071.1252 3387.6106 4066.0664 3387.6106 4066.0664 3380.3894 4071.1252 3380.3894" stroke-width="0.6"  stroke-linecap="round" fill="none" layerid="3" net="" id="gge2843" locked="0" /><polyline points="4057.5189 3319.5189 4070.4811 3319.5189 4070.4811 3332.4811 4057.5189 3332.4811 4057.5189 3319.5189" stroke-width="0.6"  stroke-linecap="round" fill="none" layerid="3" net="" id="gge3020" locked="0" /><polyline points="4056.6189 3330.6858 4056.6189 3333.3811 4059.3142 3333.3811" stroke-width="0.6"  stroke-linecap="round" fill="none" layerid="3" net="" id="gge3029" locked="0" /><g c_partid="part_pcbtext" c_etype="" c_origin="4072.5,3349.5" c_rotation="0" c_mirror="0" id="gge991" locked="0" layerid="3" c_shapetype="group" display="none"><path c_fontsize="4.5" c_fontfamily="NotoSerifCJKsc-Medium" c_text="0Ω" d="M 4073.07 3348.01 C 4073.07 3346.96 4073.32 3346.68 4073.6 3346.68 C 4073.87 3346.68 4074.12 3346.96 4074.12 3348.01 C 4074.12 3349.1 4073.87 3349.39 4073.6 3349.39 C 4073.32 3349.39 4073.07 3349.1 4073.07 3348.01 Z  M 4073.6 3346.51 C 4073.13 3346.51 4072.68 3346.92 4072.68 3348.01 C 4072.68 3349.14 4073.13 3349.56 4073.6 3349.56 C 4074.06 3349.56 4074.52 3349.14 4074.52 3348.01 C 4074.52 3346.92 4074.06 3346.51 4073.6 3346.51 Z  M 4077.5 3348.76 L 4077.39 3349.19 L 4076.77 3349.19 L 4076.77 3349.19 C 4077.22 3348.87 4077.58 3348.4 4077.58 3347.83 C 4077.58 3346.97 4076.98 3346.5 4076.3 3346.5 C 4075.62 3346.5 4075.02 3346.97 4075.02 3347.83 C 4075.02 3348.4 4075.38 3348.87 4075.83 3349.19 L 4075.83 3349.19 L 4075.2 3349.19 L 4075.1 3348.76 L 4074.87 3348.76 L 4074.92 3349.5 L 4076.09 3349.5 L 4076.09 3349.23 C 4075.68 3348.9 4075.42 3348.38 4075.42 3347.83 C 4075.42 3347.18 4075.75 3346.69 4076.3 3346.69 C 4076.85 3346.69 4077.17 3347.18 4077.17 3347.83 C 4077.17 3348.38 4076.92 3348.9 4076.5 3349.23 L 4076.5 3349.5 L 4077.68 3349.5 L 4077.72 3348.76 Z "  stroke="none" stroke-width="0.6" c_note="note_name" /></g><g c_partid="part_pcbtext" c_etype="" c_origin="4083,3370.5" c_rotation="0" c_mirror="0" id="gge592" locked="0" layerid="3" c_shapetype="group" ><path c_fontsize="4.5" c_fontfamily="" c_text="R1" d="M 4083 3365.96 L 4083 3370.25 M 4083 3365.96 L 4084.84 3365.96 L 4085.45 3366.16 L 4085.66 3366.37 L 4085.86 3366.78 L 4085.86 3367.19 L 4085.66 3367.6 L 4085.45 3367.8 L 4084.84 3368 L 4083 3368 M 4084.43 3368 L 4085.86 3370.25 M 4087.21 3366.78 L 4087.62 3366.57 L 4088.24 3365.96 L 4088.24 3370.25" fill="none"  stroke-width="0.6" c_note="note_pre" /></g><g c_partid="part_pcbtext" c_etype="" c_origin="4045,3311" c_rotation="0" c_mirror="0" id="gge721" locked="0" layerid="3" c_shapetype="group" display="none"><path c_fontsize="4.5" c_fontfamily="" c_text="NO" d="M 4045 3306.46 L 4045 3310.75 M 4045 3306.46 L 4047.86 3310.75 M 4047.86 3306.46 L 4047.86 3310.75 M 4050.44 3306.46 L 4050.03 3306.66 L 4049.62 3307.07 L 4049.42 3307.48 L 4049.21 3308.1 L 4049.21 3309.12 L 4049.42 3309.73 L 4049.62 3310.14 L 4050.03 3310.55 L 4050.44 3310.75 L 4051.26 3310.75 L 4051.67 3310.55 L 4052.08 3310.14 L 4052.28 3309.73 L 4052.49 3309.12 L 4052.49 3308.1 L 4052.28 3307.48 L 4052.08 3307.07 L 4051.67 3306.66 L 4051.26 3306.46 L 4050.44 3306.46" fill="none"  stroke-width="0.6" c_note="note_name" /></g><g c_partid="part_pcbtext" c_etype="" c_origin="4045,3318" c_rotation="0" c_mirror="0" id="gge727" locked="0" layerid="3" c_shapetype="group" ><path c_fontsize="4.5" c_fontfamily="" c_text="U1" d="M 4045 3313.46 L 4045 3316.53 L 4045.2 3317.14 L 4045.61 3317.55 L 4046.23 3317.75 L 4046.64 3317.75 L 4047.25 3317.55 L 4047.66 3317.14 L 4047.86 3316.53 L 4047.86 3313.46 M 4049.21 3314.28 L 4049.62 3314.07 L 4050.24 3313.46 L 4050.24 3317.75" fill="none"  stroke-width="0.6" c_note="note_pre" /></g><g c_partid="part_pcbtext" c_etype="" c_origin="4073,3366" c_rotation="0" c_mirror="0" id="gge2930" locked="0" layerid="3" c_shapetype="group" display="none"><path c_fontsize="4.5" c_fontfamily="NotoSerifCJKsc-Medium" c_text="0Ω" d="M 4073.57 3364.51 C 4073.57 3363.46 4073.82 3363.18 4074.1 3363.18 C 4074.37 3363.18 4074.62 3363.46 4074.62 3364.51 C 4074.62 3365.6 4074.37 3365.89 4074.1 3365.89 C 4073.82 3365.89 4073.57 3365.6 4073.57 3364.51 Z  M 4074.1 3363.01 C 4073.63 3363.01 4073.18 3363.42 4073.18 3364.51 C 4073.18 3365.64 4073.63 3366.06 4074.1 3366.06 C 4074.56 3366.06 4075.02 3365.64 4075.02 3364.51 C 4075.02 3363.42 4074.56 3363.01 4074.1 3363.01 Z  M 4078 3365.26 L 4077.89 3365.69 L 4077.27 3365.69 L 4077.27 3365.69 C 4077.72 3365.37 4078.08 3364.9 4078.08 3364.33 C 4078.08 3363.47 4077.48 3363 4076.8 3363 C 4076.12 3363 4075.52 3363.47 4075.52 3364.33 C 4075.52 3364.9 4075.88 3365.37 4076.33 3365.69 L 4076.33 3365.69 L 4075.7 3365.69 L 4075.6 3365.26 L 4075.37 3365.26 L 4075.42 3366 L 4076.59 3366 L 4076.59 3365.73 C 4076.18 3365.4 4075.92 3364.88 4075.92 3364.33 C 4075.92 3363.68 4076.25 3363.19 4076.8 3363.19 C 4077.35 3363.19 4077.67 3363.68 4077.67 3364.33 C 4077.67 3364.88 4077.42 3365.4 4077 3365.73 L 4077 3366 L 4078.18 3366 L 4078.22 3365.26 Z "  stroke="none" stroke-width="0.6" c_note="note_name" /></g><g c_partid="part_pcbtext" c_etype="" c_origin="4081.5,3385.5" c_rotation="0" c_mirror="0" id="gge2819" locked="0" layerid="3" c_shapetype="group" ><path c_fontsize="4.5" c_fontfamily="" c_text="R2" d="M 4081.5 3380.96 L 4081.5 3385.25 M 4081.5 3380.96 L 4083.34 3380.96 L 4083.95 3381.16 L 4084.16 3381.37 L 4084.36 3381.78 L 4084.36 3382.19 L 4084.16 3382.6 L 4083.95 3382.8 L 4083.34 3383 L 4081.5 3383 M 4082.93 3383 L 4084.36 3385.25 M 4085.92 3381.98 L 4085.92 3381.78 L 4086.12 3381.37 L 4086.33 3381.16 L 4086.74 3380.96 L 4087.55 3380.96 L 4087.96 3381.16 L 4088.17 3381.37 L 4088.37 3381.78 L 4088.37 3382.19 L 4088.17 3382.6 L 4087.76 3383.21 L 4085.71 3385.25 L 4088.58 3385.25" fill="none"  stroke-width="0.6" c_note="note_pre" /></g><g c_partid="part_pcbtext" c_etype="" c_origin="4063,3311" c_rotation="0" c_mirror="0" id="gge2942" locked="0" layerid="3" c_shapetype="group" display="none"><path c_fontsize="4.5" c_fontfamily="" c_text="Sipm2" d="M 4065.86 3307.07 L 4065.45 3306.66 L 4064.84 3306.46 L 4064.02 3306.46 L 4063.41 3306.66 L 4063 3307.07 L 4063 3307.48 L 4063.2 3307.89 L 4063.41 3308.1 L 4063.82 3308.3 L 4065.05 3308.71 L 4065.45 3308.91 L 4065.66 3309.12 L 4065.86 3309.53 L 4065.86 3310.14 L 4065.45 3310.55 L 4064.84 3310.75 L 4064.02 3310.75 L 4063.41 3310.55 L 4063 3310.14 M 4067.21 3306.46 L 4067.42 3306.66 L 4067.62 3306.46 L 4067.42 3306.25 L 4067.21 3306.46 M 4067.42 3307.89 L 4067.42 3310.75 M 4068.97 3307.89 L 4068.97 3312.19 M 4068.97 3308.5 L 4069.38 3308.1 L 4069.79 3307.89 L 4070.4 3307.89 L 4070.81 3308.1 L 4071.22 3308.5 L 4071.43 3309.12 L 4071.43 3309.53 L 4071.22 3310.14 L 4070.81 3310.55 L 4070.4 3310.75 L 4069.79 3310.75 L 4069.38 3310.55 L 4068.97 3310.14 M 4072.78 3307.89 L 4072.78 3310.75 M 4072.78 3308.71 L 4073.39 3308.1 L 4073.8 3307.89 L 4074.41 3307.89 L 4074.82 3308.1 L 4075.03 3308.71 L 4075.03 3310.75 M 4075.03 3308.71 L 4075.64 3308.1 L 4076.05 3307.89 L 4076.66 3307.89 L 4077.07 3308.1 L 4077.28 3308.71 L 4077.28 3310.75 M 4078.83 3307.48 L 4078.83 3307.28 L 4079.04 3306.87 L 4079.24 3306.66 L 4079.65 3306.46 L 4080.47 3306.46 L 4080.88 3306.66 L 4081.08 3306.87 L 4081.29 3307.28 L 4081.29 3307.69 L 4081.08 3308.1 L 4080.67 3308.71 L 4078.63 3310.75 L 4081.49 3310.75" fill="none"  stroke-width="0.6" c_note="note_name" /></g><g c_partid="part_pcbtext" c_etype="" c_origin="4063,3318" c_rotation="0" c_mirror="0" id="gge2948" locked="0" layerid="3" c_shapetype="group" ><path c_fontsize="4.5" c_fontfamily="" c_text="U2" d="M 4063 3313.46L4063 3316.53 L4063.2 3317.14 L4063.61 3317.55 L4064.23 3317.75 L4064.64 3317.75 L4065.25 3317.55 L4065.66 3317.14 L4065.86 3316.53 L4065.86 3313.46 M 4067.42 3314.48L4067.42 3314.28 L4067.62 3313.87 L4067.83 3313.66 L4068.24 3313.46 L4069.05 3313.46 L4069.46 3313.66 L4069.67 3313.87 L4069.87 3314.28 L4069.87 3314.69 L4069.67 3315.1 L4069.26 3315.71 L4067.21 3317.75 L4070.08 3317.75 " fill="none"  stroke-width="0.6" c_note="note_pre" /></g><circle cx="4042.063" cy="3334.459" r="0.197" stroke-width="0.3937" fill="none" layerid="3" id="gge2306" locked="0"  /><circle cx="4060.063" cy="3334.45" r="0.197" stroke-width="0.3937" fill="none" layerid="3" id="gge3023" locked="0"  /><path d="M 4039.5091 3332.4909 L 4041.3122 3332.4909 L 4041.3122 3332.4909 L 4039.5091 3330.6878 L 4039.5091 3330.6878 L 4039.5091 3332.4909 Z " stroke-width="0"   net="" type="solid" layerid="3" id="gge2309" locked="0" c_teardrop="" c_targetpad="" c_targetwire="" /><path d="M 4057.5189 3332.4811 L 4059.3142 3332.4811 L 4059.3142 3332.4811 L 4057.5189 3330.6858 L 4057.5189 3330.6858 L 4057.5189 3332.4811 Z " stroke-width="0"   net="" type="solid" layerid="3" id="gge3026" locked="0" c_teardrop="" c_targetpad="" c_targetwire="" /><polyline points="4020 3269 4092 3269 4092 3390 4056 3390.5 4019.5 3390 4020 3269" stroke-width="1"  stroke-linecap="round" fill="none" layerid="10" net="" id="gge420" locked="0" /></svg>