G04 Layer: TopSolderMaskLayer*
G04 EasyEDA v6.5.51, 2025-09-17 03:24:35*
G04 4f8a5b0b326d43f2b3a6dc604e954ae0,d57bd40a603b42be9e37e0d49851eb9c,10*
G04 Gerber Generator version 0.2*
G04 Scale: 100 percent, Rotated: No, Reflected: No *
G04 Dimensions in millimeters *
G04 leading zeros omitted , absolute positions ,4 integer and 5 decimal *
%FSLAX45Y45*%
%MOMM*%

%AMMACRO1*4,1,8,-0.8709,-0.9007,-0.9007,-0.8709,-0.9007,0.8709,-0.8709,0.9007,0.8709,0.9007,0.9007,0.8709,0.9007,-0.8709,0.8709,-0.9007,-0.8709,-0.9007,0*%
%AMMACRO2*4,1,8,-1.2707,-1.55,-1.3,-1.5207,-1.3,1.5207,-1.2707,1.55,1.2707,1.55,1.3,1.5207,1.3,-1.5207,1.2707,-1.55,-1.2707,-1.55,0*%
%AMMACRO3*4,1,8,-0.6961,-0.7558,-0.7258,-0.726,-0.7258,0.7261,-0.6961,0.7558,0.696,0.7558,0.7258,0.7261,0.7258,-0.726,0.696,-0.7558,-0.6961,-0.7558,0*%
%AMMACRO4*4,1,8,-0.7261,-0.7258,-0.7558,-0.696,-0.7558,0.6961,-0.7261,0.7258,0.726,0.7258,0.7558,0.6961,0.7558,-0.696,0.726,-0.7258,-0.7261,-0.7258,0*%
%AMMACRO5*4,1,8,-0.5211,-0.4258,-0.5508,-0.396,-0.5508,0.3961,-0.5211,0.4258,0.521,0.4258,0.5508,0.3961,0.5508,-0.396,0.521,-0.4258,-0.5211,-0.4258,0*%
%AMMACRO6*4,1,8,-1.3927,-1.1303,-1.4224,-1.1005,-1.4224,1.1006,-1.3927,1.1303,1.3926,1.1303,1.4224,1.1006,1.4224,-1.1005,1.3926,-1.1303,-1.3927,-1.1303,0*%
%AMMACRO7*4,1,8,-0.6711,-1.9008,-0.7008,-1.871,-0.7008,1.8711,-0.6711,1.9008,0.671,1.9008,0.7008,1.8711,0.7008,-1.871,0.671,-1.9008,-0.6711,-1.9008,0*%
%AMMACRO8*4,1,8,-0.9211,-0.9508,-0.9508,-0.921,-0.9508,0.9211,-0.9211,0.9508,0.921,0.9508,0.9508,0.9211,0.9508,-0.921,0.921,-0.9508,-0.9211,-0.9508,0*%
%AMMACRO9*4,1,8,-0.3711,-0.6758,-0.4008,-0.646,-0.4008,0.646,-0.3711,0.6758,0.371,0.6758,0.4008,0.646,0.4008,-0.646,0.371,-0.6758,-0.3711,-0.6758,0*%
%AMMACRO10*4,1,8,-0.646,-0.4008,-0.6758,-0.371,-0.6758,0.3711,-0.646,0.4008,0.646,0.4008,0.6758,0.3711,0.6758,-0.371,0.646,-0.4008,-0.646,-0.4008,0*%
%AMMACRO11*4,1,8,-0.7095,-0.6171,-0.7393,-0.5873,-0.7393,0.5873,-0.7095,0.6171,0.7095,0.6171,0.7393,0.5873,0.7393,-0.5873,0.7095,-0.6171,-0.7095,-0.6171,0*%
%AMMACRO12*4,1,8,-0.5873,-0.7393,-0.6171,-0.7095,-0.6171,0.7095,-0.5873,0.7393,0.5873,0.7393,0.6171,0.7095,0.6171,-0.7095,0.5873,-0.7393,-0.5873,-0.7393,0*%
%AMMACRO13*4,1,8,-0.6205,-1.1303,-0.6502,-1.1005,-0.6502,1.1006,-0.6205,1.1303,0.6205,1.1303,0.6502,1.1006,0.6502,-1.1005,0.6205,-1.1303,-0.6205,-1.1303,0*%
%AMMACRO14*4,1,8,-0.2911,-0.4458,-0.3208,-0.4161,-0.3208,0.4161,-0.2911,0.4458,0.291,0.4458,0.3208,0.4161,0.3208,-0.4161,0.291,-0.4458,-0.2911,-0.4458,0*%
%AMMACRO15*4,1,8,-0.4161,-0.3208,-0.4458,-0.291,-0.4458,0.2911,-0.4161,0.3208,0.4161,0.3208,0.4458,0.2911,0.4458,-0.291,0.4161,-0.3208,-0.4161,-0.3208,0*%
%AMMACRO16*4,1,8,-0.3211,-0.601,-0.351,-0.5711,-0.351,0.5711,-0.3211,0.601,0.3211,0.601,0.351,0.5711,0.351,-0.5711,0.3211,-0.601,-0.3211,-0.601,0*%
%AMMACRO17*4,1,8,-0.5711,-0.351,-0.601,-0.3211,-0.601,0.3211,-0.5711,0.351,0.5711,0.351,0.601,0.3211,0.601,-0.3211,0.5711,-0.351,-0.5711,-0.351,0*%
%AMMACRO18*4,1,8,-0.3711,-0.6008,-0.4008,-0.571,-0.4008,0.5711,-0.3711,0.6008,0.371,0.6008,0.4008,0.5711,0.4008,-0.571,0.371,-0.6008,-0.3711,-0.6008,0*%
%AMMACRO19*4,1,8,-0.5207,-1.05,-0.55,-1.0207,-0.55,1.0207,-0.5207,1.05,0.5207,1.05,0.55,1.0207,0.55,-1.0207,0.5207,-1.05,-0.5207,-1.05,0*%
%AMMACRO20*4,1,8,-0.3707,-0.4,-0.4,-0.3707,-0.4,0.3707,-0.3707,0.4,0.3707,0.4,0.4,0.3707,0.4,-0.3707,0.3707,-0.4,-0.3707,-0.4,0*%
%AMMACRO21*4,1,8,-0.646,-0.5508,-0.6758,-0.521,-0.6758,0.5211,-0.646,0.5508,0.646,0.5508,0.6758,0.5211,0.6758,-0.521,0.646,-0.5508,-0.646,-0.5508,0*%
%AMMACRO22*4,1,8,-0.3208,-1.1506,-0.3505,-1.1209,-0.3505,1.1209,-0.3208,1.1506,0.3208,1.1506,0.3505,1.1209,0.3505,-1.1209,0.3208,-1.1506,-0.3208,-1.1506,0*%
%AMMACRO23*4,1,8,-1.5961,-1.6258,-1.6258,-1.596,-1.6258,1.5961,-1.5961,1.6258,1.596,1.6258,1.6258,1.5961,1.6258,-1.596,1.596,-1.6258,-1.5961,-1.6258,0*%
%AMMACRO24*4,1,8,-0.8086,-0.3868,-0.8383,-0.357,-0.8383,0.357,-0.8086,0.3868,0.8085,0.3868,0.8383,0.357,0.8383,-0.357,0.8085,-0.3868,-0.8086,-0.3868,0*%
%AMMACRO25*4,1,8,-0.2711,-0.6208,-0.3008,-0.591,-0.3008,0.5911,-0.2711,0.6208,0.271,0.6208,0.3008,0.5911,0.3008,-0.591,0.271,-0.6208,-0.2711,-0.6208,0*%
%AMMACRO26*4,1,8,-0.1711,-0.6208,-0.2008,-0.591,-0.2008,0.5911,-0.1711,0.6208,0.171,0.6208,0.2008,0.5911,0.2008,-0.591,0.171,-0.6208,-0.1711,-0.6208,0*%
%AMMACRO27*4,1,8,-0.5711,-1.3008,-0.6008,-1.271,-0.6008,1.2711,-0.5711,1.3008,0.571,1.3008,0.6008,1.2711,0.6008,-1.271,0.571,-1.3008,-0.5711,-1.3008,0*%
%AMMACRO28*4,1,8,-1.8211,-1.2208,-1.8508,-1.191,-1.8508,1.1911,-1.8211,1.2208,1.821,1.2208,1.8508,1.1911,1.8508,-1.191,1.821,-1.2208,-1.8211,-1.2208,0*%
%AMMACRO29*4,1,8,-0.5211,-0.9508,-0.5508,-0.921,-0.5508,0.9211,-0.5211,0.9508,0.521,0.9508,0.5508,0.9211,0.5508,-0.921,0.521,-0.9508,-0.5211,-0.9508,0*%
%AMMACRO30*4,1,8,-2.8711,-1.3008,-2.9008,-1.271,-2.9008,1.2711,-2.8711,1.3008,2.871,1.3008,2.9008,1.2711,2.9008,-1.271,2.871,-1.3008,-2.8711,-1.3008,0*%
%ADD10C,1.8016*%
%ADD11MACRO1*%
%ADD12MACRO2*%
%ADD13C,10.1000*%
%ADD14MACRO3*%
%ADD15MACRO4*%
%ADD16C,0.0151*%
%ADD17C,2.6016*%
%ADD18MACRO5*%
%ADD19MACRO6*%
%ADD20MACRO7*%
%ADD21C,1.7016*%
%ADD22MACRO8*%
%ADD23MACRO9*%
%ADD24MACRO10*%
%ADD25MACRO11*%
%ADD26MACRO12*%
%ADD27MACRO13*%
%ADD28MACRO14*%
%ADD29MACRO15*%
%ADD30MACRO16*%
%ADD31MACRO17*%
%ADD32MACRO18*%
%ADD33MACRO19*%
%ADD34MACRO20*%
%ADD35MACRO21*%
%ADD36MACRO22*%
%ADD37O,0.38161X1.051611*%
%ADD38O,1.051611X0.38161*%
%ADD39MACRO23*%
%ADD40MACRO24*%
%ADD41MACRO25*%
%ADD42MACRO26*%
%ADD43O,1.101598X2.101596*%
%ADD44O,1.101598X1.901596*%
%ADD45MACRO27*%
%ADD46MACRO28*%
%ADD47MACRO29*%
%ADD48MACRO30*%

%LPD*%
D10*
G01*
X3517900Y-2895600D03*
G01*
X3517900Y-3149600D03*
G01*
X3771900Y-2895600D03*
G01*
X3771900Y-3149600D03*
G01*
X4025900Y-2895600D03*
D11*
G01*
X4025900Y-3149600D03*
D12*
G01*
X6258712Y-1530499D03*
D13*
G01*
X6057925Y-2730500D03*
D12*
G01*
X5958713Y-1530499D03*
G01*
X5958713Y-3930500D03*
G01*
X6258712Y-3930500D03*
D14*
G01*
X4260217Y-554685D03*
G01*
X4260217Y-754689D03*
G01*
X2952117Y-554685D03*
G01*
X2952117Y-754689D03*
D15*
G01*
X1563697Y-4749800D03*
G01*
X1763702Y-4749800D03*
D14*
G01*
X3556000Y-6084897D03*
G01*
X3556000Y-6284902D03*
G01*
X3613144Y-3611547D03*
G01*
X3613144Y-3411542D03*
G01*
X3371844Y-3611547D03*
G01*
X3371844Y-3411542D03*
D15*
G01*
X3976697Y-4152900D03*
G01*
X4176702Y-4152900D03*
G01*
X3976697Y-3911600D03*
G01*
X4176702Y-3911600D03*
G01*
X1563697Y-6146800D03*
G01*
X1763702Y-6146800D03*
G01*
X1563697Y-5918200D03*
G01*
X1763702Y-5918200D03*
G01*
X1563697Y-5664200D03*
G01*
X1763702Y-5664200D03*
D14*
G01*
X1562100Y-5434002D03*
G01*
X1562100Y-5233997D03*
D17*
G01*
X6680200Y-5439613D03*
G01*
X6680200Y-5939612D03*
D18*
G01*
X2225455Y-4737100D03*
G01*
X1990949Y-4737100D03*
G01*
X3018572Y-299087D03*
G01*
X2784067Y-299087D03*
D19*
G01*
X3810007Y-1201419D03*
G01*
X3810007Y-1643380D03*
G01*
X3327407Y-1201419D03*
G01*
X3327407Y-1643380D03*
D20*
G01*
X4198600Y-5067300D03*
G01*
X3878599Y-5067300D03*
D21*
G01*
X2273300Y-190500D03*
G01*
X2019300Y-190500D03*
G01*
X1765300Y-190500D03*
G01*
X1511300Y-190500D03*
G01*
X1257300Y-190500D03*
D22*
G01*
X1003300Y-190500D03*
D23*
G01*
X895603Y-5141899D03*
G01*
X1085594Y-5141899D03*
G01*
X990598Y-4941900D03*
D24*
G01*
X1077899Y-5898896D03*
G01*
X1077899Y-5708905D03*
G01*
X877900Y-5803901D03*
D25*
G01*
X2082800Y-4151304D03*
G01*
X2082800Y-3951295D03*
G01*
X1625600Y-3951295D03*
G01*
X1625600Y-4151304D03*
D26*
G01*
X903295Y-5410200D03*
G01*
X1103304Y-5410200D03*
D25*
G01*
X3111500Y-5678495D03*
G01*
X3111500Y-5878504D03*
D26*
G01*
X5294304Y-6299200D03*
G01*
X5094295Y-6299200D03*
D25*
G01*
X889000Y-3875095D03*
G01*
X889000Y-4075104D03*
D26*
G01*
X1090604Y-6172200D03*
G01*
X890595Y-6172200D03*
D25*
G01*
X5473700Y-5091104D03*
G01*
X5473700Y-4891095D03*
G01*
X3365500Y-5878504D03*
G01*
X3365500Y-5678495D03*
G01*
X1524000Y-1423995D03*
G01*
X1524000Y-1624004D03*
D26*
G01*
X5789604Y-6172200D03*
G01*
X5589595Y-6172200D03*
D25*
G01*
X1765300Y-1423995D03*
G01*
X1765300Y-1624004D03*
D26*
G01*
X5294304Y-6083300D03*
G01*
X5094295Y-6083300D03*
D25*
G01*
X2723517Y-554682D03*
G01*
X2723517Y-754692D03*
G01*
X4488817Y-754692D03*
G01*
X4488817Y-554682D03*
D26*
G01*
X1052504Y-1600200D03*
G01*
X852495Y-1600200D03*
D25*
G01*
X2298700Y-3951295D03*
G01*
X2298700Y-4151304D03*
G01*
X1854200Y-4151304D03*
G01*
X1854200Y-3951295D03*
G01*
X2527300Y-3951295D03*
G01*
X2527300Y-4151304D03*
D26*
G01*
X4214804Y-2095500D03*
G01*
X4014795Y-2095500D03*
G01*
X4214804Y-2336800D03*
G01*
X4014795Y-2336800D03*
D25*
G01*
X3632200Y-5268904D03*
G01*
X3632200Y-5068895D03*
G01*
X3175000Y-2055804D03*
G01*
X3175000Y-1855795D03*
G01*
X3111500Y-5259395D03*
G01*
X3111500Y-5459404D03*
D26*
G01*
X3671895Y-5702300D03*
G01*
X3871904Y-5702300D03*
D25*
G01*
X2946400Y-1878004D03*
G01*
X2946400Y-1677995D03*
D26*
G01*
X3871904Y-5486400D03*
G01*
X3671895Y-5486400D03*
D25*
G01*
X2387600Y-2424104D03*
G01*
X2387600Y-2224095D03*
D26*
G01*
X1281104Y-6692900D03*
G01*
X1081095Y-6692900D03*
D25*
G01*
X2616200Y-2224095D03*
G01*
X2616200Y-2424104D03*
D26*
G01*
X1982795Y-5918200D03*
G01*
X2182804Y-5918200D03*
G01*
X1982795Y-6146800D03*
G01*
X2182804Y-6146800D03*
D25*
G01*
X1784611Y-5224058D03*
G01*
X1784611Y-5424068D03*
D26*
G01*
X1763704Y-5003800D03*
G01*
X1563695Y-5003800D03*
D27*
G01*
X3129280Y-6705600D03*
G01*
X3329939Y-6705600D03*
G01*
X3530600Y-6705600D03*
G01*
X3728719Y-6705600D03*
G01*
X4919980Y-279400D03*
G01*
X5120639Y-279400D03*
G01*
X5321300Y-279400D03*
G01*
X5519419Y-279400D03*
D28*
G01*
X5321300Y-5762094D03*
G01*
X5321300Y-5871105D03*
D29*
G01*
X1324505Y-3949700D03*
G01*
X1215494Y-3949700D03*
G01*
X1324505Y-4102100D03*
G01*
X1215494Y-4102100D03*
G01*
X5533494Y-5359400D03*
G01*
X5642505Y-5359400D03*
G01*
X5534990Y-5506976D03*
G01*
X5644001Y-5506976D03*
D28*
G01*
X203200Y-3889905D03*
G01*
X203200Y-3780894D03*
G01*
X5270500Y-5495394D03*
G01*
X5270500Y-5604405D03*
G01*
X5143500Y-5495394D03*
G01*
X5143500Y-5604405D03*
G01*
X1066800Y-4055005D03*
G01*
X1066800Y-3945994D03*
D29*
G01*
X473605Y-6197600D03*
G01*
X364594Y-6197600D03*
G01*
X4283605Y-5397500D03*
G01*
X4174594Y-5397500D03*
D28*
G01*
X2755900Y-2294994D03*
G01*
X2755900Y-2404005D03*
G01*
X4559292Y-5439303D03*
G01*
X4559292Y-5330291D03*
G01*
X4686292Y-5439303D03*
G01*
X4686292Y-5330291D03*
G01*
X4699000Y-5596994D03*
G01*
X4699000Y-5706005D03*
G01*
X4559300Y-5596994D03*
G01*
X4559300Y-5706005D03*
D29*
G01*
X6066894Y-5359400D03*
G01*
X6175905Y-5359400D03*
G01*
X6068390Y-5506976D03*
G01*
X6177401Y-5506976D03*
G01*
X5909205Y-5359400D03*
G01*
X5800194Y-5359400D03*
G01*
X5910701Y-5505015D03*
G01*
X5801690Y-5505015D03*
D28*
G01*
X2184400Y-2282294D03*
G01*
X2184400Y-2391305D03*
D30*
G01*
X5480303Y-5694292D03*
G01*
X5575300Y-5694292D03*
G01*
X5670296Y-5694292D03*
G01*
X5670296Y-5964303D03*
G01*
X5575300Y-5964303D03*
G01*
X5480303Y-5964303D03*
D31*
G01*
X4364107Y-5543804D03*
G01*
X4364107Y-5638800D03*
G01*
X4364107Y-5733796D03*
G01*
X4094096Y-5733796D03*
G01*
X4094096Y-5638800D03*
G01*
X4094096Y-5543804D03*
D32*
G01*
X3320907Y-6055499D03*
G01*
X3225911Y-6055499D03*
G01*
X3130712Y-6055499D03*
G01*
X3130712Y-6314300D03*
G01*
X3320704Y-6314300D03*
D33*
G01*
X771601Y-3592804D03*
G01*
X921588Y-3592804D03*
G01*
X1071600Y-3592804D03*
G01*
X1221587Y-3592804D03*
G01*
X1371600Y-3592804D03*
G01*
X1521586Y-3592804D03*
G01*
X1671599Y-3592804D03*
G01*
X1821586Y-3592804D03*
G01*
X1971598Y-3592804D03*
G01*
X1971598Y-1842795D03*
G01*
X1821586Y-1842795D03*
G01*
X1671599Y-1842795D03*
G01*
X1521586Y-1842795D03*
G01*
X1371600Y-1842795D03*
G01*
X1221587Y-1842795D03*
G01*
X1071600Y-1842795D03*
G01*
X921588Y-1842795D03*
G01*
X771601Y-1842795D03*
D34*
G01*
X1281592Y-2731800D03*
G01*
X1391592Y-2731800D03*
G01*
X1501592Y-2731800D03*
G01*
X1281592Y-2621800D03*
G01*
X1391592Y-2621800D03*
G01*
X1501592Y-2621800D03*
G01*
X1501592Y-2511800D03*
G01*
X1391592Y-2511800D03*
G01*
X1281592Y-2511800D03*
D35*
G01*
X5232389Y-4868397D03*
G01*
X5232389Y-5088412D03*
G01*
X3365510Y-5469402D03*
G01*
X3365510Y-5249387D03*
D36*
G01*
X3035300Y-2689859D03*
G01*
X2781300Y-3609340D03*
G01*
X3162300Y-2689859D03*
G01*
X2908300Y-2689859D03*
G01*
X2781300Y-2689859D03*
G01*
X2908300Y-3609340D03*
G01*
X2654300Y-3609340D03*
G01*
X2527300Y-3609340D03*
G01*
X2527300Y-2689859D03*
G01*
X2273300Y-3609340D03*
G01*
X2654300Y-2689859D03*
G01*
X2400300Y-2689859D03*
G01*
X2400300Y-3609340D03*
G01*
X2273300Y-2689859D03*
G01*
X3035300Y-3609340D03*
G01*
X3162300Y-3609340D03*
D37*
G01*
X3731539Y-1992706D03*
G01*
X3681475Y-1992706D03*
G01*
X3631463Y-1992706D03*
G01*
X3581425Y-1992706D03*
G01*
X3531387Y-1992706D03*
G01*
X3481324Y-1992706D03*
G01*
X3431311Y-1992706D03*
D38*
G01*
X3338906Y-2085086D03*
G01*
X3338906Y-2135123D03*
G01*
X3338906Y-2185162D03*
G01*
X3338906Y-2235200D03*
G01*
X3338906Y-2285237D03*
G01*
X3338906Y-2335276D03*
G01*
X3338906Y-2385313D03*
D37*
G01*
X3431311Y-2477719D03*
G01*
X3481324Y-2477719D03*
G01*
X3531387Y-2477719D03*
G01*
X3581425Y-2477719D03*
G01*
X3631463Y-2477719D03*
G01*
X3681475Y-2477719D03*
G01*
X3731539Y-2477719D03*
D38*
G01*
X3823893Y-2385313D03*
G01*
X3823893Y-2335276D03*
G01*
X3823893Y-2285237D03*
G01*
X3823893Y-2235200D03*
G01*
X3823893Y-2185162D03*
G01*
X3823893Y-2135123D03*
G01*
X3823893Y-2085086D03*
D39*
G01*
X3581412Y-2235187D03*
G36*
X6100803Y-5942883D02*
G01*
X6100683Y-5942881D01*
X6096231Y-5942774D01*
X6096000Y-5942764D01*
X6091557Y-5942451D01*
X6091323Y-5942431D01*
X6086899Y-5941910D01*
X6086668Y-5941877D01*
X6082273Y-5941151D01*
X6082040Y-5941105D01*
X6077684Y-5940170D01*
X6077458Y-5940117D01*
X6073152Y-5938982D01*
X6072926Y-5938916D01*
X6068677Y-5937580D01*
X6068456Y-5937504D01*
X6064275Y-5935969D01*
X6064054Y-5935883D01*
X6059949Y-5934153D01*
X6059738Y-5934059D01*
X6055718Y-5932142D01*
X6055507Y-5932035D01*
X6051583Y-5929929D01*
X6051379Y-5929812D01*
X6047557Y-5927524D01*
X6047359Y-5927399D01*
X6043648Y-5924936D01*
X6043457Y-5924804D01*
X6039865Y-5922170D01*
X6039678Y-5922025D01*
X6036216Y-5919226D01*
X6036035Y-5919073D01*
X6032705Y-5916112D01*
X6032535Y-5915952D01*
X6029350Y-5912840D01*
X6029187Y-5912675D01*
X6026150Y-5909416D01*
X6025992Y-5909241D01*
X6023112Y-5905845D01*
X6022964Y-5905662D01*
X6020247Y-5902134D01*
X6020109Y-5901944D01*
X6017559Y-5898291D01*
X6017427Y-5898095D01*
X6015052Y-5894329D01*
X6014933Y-5894128D01*
X6012736Y-5890252D01*
X6012627Y-5890046D01*
X6010612Y-5886074D01*
X6010508Y-5885855D01*
X6010414Y-5885632D01*
X6010330Y-5885403D01*
X6010259Y-5885169D01*
X6010198Y-5884933D01*
X6009266Y-5880884D01*
X5843516Y-5880884D01*
X5843026Y-5880862D01*
X5842541Y-5880788D01*
X5842063Y-5880668D01*
X5841601Y-5880503D01*
X5841159Y-5880295D01*
X5840737Y-5880041D01*
X5840343Y-5879749D01*
X5839980Y-5879419D01*
X5839650Y-5879056D01*
X5839358Y-5878662D01*
X5839104Y-5878240D01*
X5838896Y-5877798D01*
X5838731Y-5877336D01*
X5838611Y-5876858D01*
X5838537Y-5876373D01*
X5838515Y-5875883D01*
X5838515Y-5809884D01*
X5838537Y-5809394D01*
X5838611Y-5808908D01*
X5838731Y-5808431D01*
X5838896Y-5807969D01*
X5839104Y-5807527D01*
X5839358Y-5807105D01*
X5839650Y-5806711D01*
X5839980Y-5806348D01*
X5840343Y-5806018D01*
X5840737Y-5805726D01*
X5841159Y-5805472D01*
X5841601Y-5805263D01*
X5842063Y-5805098D01*
X5842541Y-5804979D01*
X5843026Y-5804905D01*
X5843516Y-5804882D01*
X6009266Y-5804882D01*
X6010198Y-5800829D01*
X6010259Y-5800592D01*
X6010330Y-5800361D01*
X6010414Y-5800130D01*
X6010508Y-5799907D01*
X6010612Y-5799688D01*
X6012627Y-5795716D01*
X6012736Y-5795510D01*
X6014933Y-5791634D01*
X6015052Y-5791433D01*
X6017427Y-5787666D01*
X6017559Y-5787471D01*
X6020109Y-5783818D01*
X6020247Y-5783628D01*
X6022964Y-5780100D01*
X6023112Y-5779917D01*
X6025992Y-5776521D01*
X6026150Y-5776346D01*
X6029187Y-5773087D01*
X6029350Y-5772922D01*
X6032535Y-5769810D01*
X6032705Y-5769650D01*
X6036035Y-5766688D01*
X6036216Y-5766536D01*
X6039678Y-5763737D01*
X6039865Y-5763592D01*
X6043457Y-5760958D01*
X6043648Y-5760826D01*
X6047359Y-5758362D01*
X6047557Y-5758238D01*
X6051379Y-5755949D01*
X6051583Y-5755833D01*
X6055507Y-5753727D01*
X6055718Y-5753620D01*
X6059738Y-5751703D01*
X6059949Y-5751609D01*
X6064054Y-5749879D01*
X6064275Y-5749792D01*
X6068456Y-5748258D01*
X6068677Y-5748182D01*
X6072926Y-5746846D01*
X6073152Y-5746780D01*
X6077458Y-5745645D01*
X6077684Y-5745591D01*
X6082040Y-5744657D01*
X6082273Y-5744611D01*
X6086668Y-5743884D01*
X6086899Y-5743851D01*
X6091323Y-5743331D01*
X6091557Y-5743310D01*
X6096000Y-5742998D01*
X6096231Y-5742988D01*
X6100683Y-5742881D01*
X6100803Y-5742879D01*
X6286223Y-5742879D01*
X6286342Y-5742881D01*
X6290795Y-5742988D01*
X6291026Y-5742998D01*
X6295468Y-5743310D01*
X6295702Y-5743331D01*
X6300127Y-5743851D01*
X6300358Y-5743884D01*
X6304752Y-5744611D01*
X6304986Y-5744657D01*
X6309342Y-5745591D01*
X6309568Y-5745645D01*
X6313873Y-5746780D01*
X6314099Y-5746846D01*
X6318349Y-5748182D01*
X6318570Y-5748258D01*
X6322750Y-5749792D01*
X6322971Y-5749879D01*
X6327076Y-5751609D01*
X6327287Y-5751703D01*
X6331308Y-5753620D01*
X6331518Y-5753727D01*
X6335443Y-5755833D01*
X6335646Y-5755949D01*
X6339469Y-5758238D01*
X6339667Y-5758362D01*
X6343378Y-5760826D01*
X6343568Y-5760958D01*
X6347160Y-5763592D01*
X6347348Y-5763737D01*
X6350810Y-5766536D01*
X6350990Y-5766688D01*
X6354320Y-5769650D01*
X6354490Y-5769810D01*
X6357675Y-5772922D01*
X6357838Y-5773087D01*
X6360876Y-5776346D01*
X6361033Y-5776521D01*
X6363914Y-5779917D01*
X6364061Y-5780100D01*
X6366779Y-5783628D01*
X6366916Y-5783818D01*
X6369466Y-5787471D01*
X6369598Y-5787666D01*
X6371973Y-5791433D01*
X6372092Y-5791634D01*
X6374290Y-5795510D01*
X6374399Y-5795716D01*
X6376413Y-5799688D01*
X6376515Y-5799902D01*
X6378338Y-5803966D01*
X6378430Y-5804179D01*
X6380063Y-5808322D01*
X6380144Y-5808545D01*
X6381579Y-5812762D01*
X6381650Y-5812983D01*
X6382887Y-5817262D01*
X6382946Y-5817491D01*
X6383980Y-5821824D01*
X6384028Y-5822053D01*
X6384858Y-5826427D01*
X6384899Y-5826658D01*
X6385524Y-5831070D01*
X6385549Y-5831304D01*
X6385966Y-5835738D01*
X6385984Y-5835972D01*
X6386192Y-5840420D01*
X6386197Y-5840653D01*
X6386197Y-5845108D01*
X6386192Y-5845342D01*
X6385984Y-5849790D01*
X6385966Y-5850023D01*
X6385549Y-5854458D01*
X6385524Y-5854692D01*
X6384899Y-5859104D01*
X6384858Y-5859335D01*
X6384028Y-5863709D01*
X6383980Y-5863937D01*
X6382946Y-5868271D01*
X6382887Y-5868499D01*
X6381650Y-5872779D01*
X6381579Y-5873000D01*
X6380144Y-5877217D01*
X6380063Y-5877440D01*
X6378430Y-5881583D01*
X6378338Y-5881796D01*
X6376515Y-5885860D01*
X6376413Y-5886074D01*
X6374399Y-5890046D01*
X6374290Y-5890252D01*
X6372092Y-5894128D01*
X6371973Y-5894329D01*
X6369598Y-5898095D01*
X6369466Y-5898291D01*
X6366916Y-5901944D01*
X6366779Y-5902134D01*
X6364061Y-5905662D01*
X6363914Y-5905845D01*
X6361033Y-5909241D01*
X6360876Y-5909416D01*
X6357838Y-5912675D01*
X6357675Y-5912840D01*
X6354490Y-5915952D01*
X6354320Y-5916112D01*
X6350990Y-5919073D01*
X6350810Y-5919226D01*
X6347348Y-5922025D01*
X6347160Y-5922170D01*
X6343568Y-5924804D01*
X6343378Y-5924936D01*
X6339667Y-5927399D01*
X6339469Y-5927524D01*
X6335646Y-5929812D01*
X6335443Y-5929929D01*
X6331518Y-5932035D01*
X6331308Y-5932142D01*
X6327287Y-5934059D01*
X6327076Y-5934153D01*
X6322971Y-5935883D01*
X6322750Y-5935969D01*
X6318570Y-5937504D01*
X6318349Y-5937580D01*
X6314099Y-5938916D01*
X6313873Y-5938982D01*
X6309568Y-5940117D01*
X6309342Y-5940170D01*
X6304986Y-5941105D01*
X6304752Y-5941151D01*
X6300358Y-5941877D01*
X6300127Y-5941910D01*
X6295702Y-5942431D01*
X6295468Y-5942451D01*
X6291026Y-5942764D01*
X6290795Y-5942774D01*
X6286342Y-5942881D01*
X6286223Y-5942883D01*
G37*
D40*
G01*
X5922271Y-5992012D03*
G01*
X5922271Y-5692013D03*
D41*
G01*
X3305218Y-816815D03*
G01*
X3385218Y-816815D03*
D42*
G01*
X3450210Y-816803D03*
G01*
X3500248Y-816904D03*
G01*
X3550210Y-816803D03*
G01*
X3600222Y-816803D03*
G01*
X3650209Y-816803D03*
G01*
X3700222Y-816803D03*
G01*
X3750209Y-816803D03*
G01*
X3800222Y-816904D03*
D41*
G01*
X3865217Y-816815D03*
G01*
X3945218Y-816815D03*
D43*
G01*
X4057218Y-760069D03*
G01*
X3193211Y-760095D03*
D44*
G01*
X3193211Y-340080D03*
G01*
X4057218Y-340080D03*
D20*
G01*
X6129000Y-4978400D03*
G01*
X5808999Y-4978400D03*
D19*
G01*
X2590792Y-1503680D03*
G01*
X2590792Y-1061719D03*
D45*
G01*
X5094098Y-4284800D03*
G01*
X4864101Y-4284800D03*
G01*
X4634104Y-4284800D03*
D46*
G01*
X4864100Y-3690797D03*
D28*
G01*
X4991100Y-4601105D03*
G01*
X4991100Y-4492094D03*
G01*
X5130800Y-4601105D03*
G01*
X5130800Y-4492094D03*
G01*
X5270500Y-4347105D03*
G01*
X5270500Y-4238094D03*
G01*
X5397500Y-4347105D03*
G01*
X5397500Y-4238094D03*
D47*
G01*
X656800Y-4081213D03*
G01*
X206799Y-4081213D03*
G01*
X656800Y-4961211D03*
G01*
X206799Y-4961211D03*
G01*
X206799Y-6180411D03*
G01*
X656800Y-6180411D03*
G01*
X206799Y-5300413D03*
G01*
X656800Y-5300413D03*
D48*
G01*
X2236468Y-5505500D03*
G01*
X2233929Y-5035499D03*
M02*
