G04 Layer: BottomSilkscreenLayer*
G04 EasyEDA v6.5.51, 2025-09-17 03:24:35*
G04 4f8a5b0b326d43f2b3a6dc604e954ae0,d57bd40a603b42be9e37e0d49851eb9c,10*
G04 Gerber Generator version 0.2*
G04 Scale: 100 percent, Rotated: No, Reflected: No *
G04 Dimensions in millimeters *
G04 leading zeros omitted , absolute positions ,4 integer and 5 decimal *
%FSLAX45Y45*%
%MOMM*%

%ADD10C,0.2032*%
%ADD11C,0.2540*%
%ADD12C,0.1524*%
%ADD13C,0.1520*%
%ADD14C,0.1000*%
%ADD15C,0.0119*%

%LPD*%
D10*
X3475118Y-2652318D02*
G01*
X3479662Y-2643228D01*
X3488753Y-2634137D01*
X3497846Y-2629590D01*
X3516028Y-2629590D01*
X3525118Y-2634137D01*
X3534209Y-2643228D01*
X3538753Y-2652318D01*
X3543300Y-2665953D01*
X3543300Y-2688681D01*
X3538753Y-2702318D01*
X3534209Y-2711409D01*
X3525118Y-2720500D01*
X3516028Y-2725046D01*
X3497846Y-2725046D01*
X3488753Y-2720500D01*
X3479662Y-2711409D01*
X3475118Y-2702318D01*
X4014937Y-2629590D02*
G01*
X4051300Y-2725046D01*
X4014937Y-2629590D02*
G01*
X3978572Y-2725046D01*
X4037662Y-2693228D02*
G01*
X3992209Y-2693228D01*
G36*
X3010357Y-4411624D02*
G01*
X3010357Y-4457242D01*
X3055975Y-4457242D01*
G37*
G36*
X2815640Y-5658662D02*
G01*
X2811830Y-5659272D01*
X2808224Y-5660694D01*
X2805074Y-5662879D01*
X2802432Y-5665724D01*
X2800451Y-5669026D01*
X2799283Y-5672683D01*
X2798876Y-5676544D01*
X2799283Y-5680354D01*
X2799740Y-5682234D01*
X2801366Y-5685739D01*
X2803652Y-5688838D01*
X2806598Y-5691327D01*
X2810002Y-5693156D01*
X2811830Y-5693816D01*
X2815640Y-5694426D01*
X2819501Y-5694222D01*
X2821381Y-5693816D01*
X2824937Y-5692343D01*
X2828137Y-5690158D01*
X2830779Y-5687364D01*
X2832709Y-5684062D01*
X2833928Y-5680354D01*
X2834233Y-5678474D01*
X2834233Y-5674614D01*
X2833420Y-5670854D01*
X2831846Y-5667298D01*
X2829509Y-5664250D01*
X2826613Y-5661710D01*
X2823210Y-5659882D01*
X2819501Y-5658866D01*
G37*
G36*
X2371140Y-5023662D02*
G01*
X2367330Y-5024272D01*
X2363724Y-5025694D01*
X2360574Y-5027879D01*
X2357932Y-5030724D01*
X2355951Y-5034026D01*
X2354783Y-5037683D01*
X2354376Y-5041544D01*
X2354783Y-5045354D01*
X2355240Y-5047234D01*
X2356866Y-5050739D01*
X2359152Y-5053838D01*
X2362098Y-5056327D01*
X2365502Y-5058156D01*
X2367330Y-5058816D01*
X2371140Y-5059426D01*
X2375001Y-5059222D01*
X2376881Y-5058816D01*
X2380437Y-5057343D01*
X2383637Y-5055158D01*
X2386279Y-5052364D01*
X2388209Y-5049062D01*
X2389428Y-5045354D01*
X2389733Y-5043474D01*
X2389733Y-5039614D01*
X2388920Y-5035854D01*
X2387346Y-5032298D01*
X2385009Y-5029250D01*
X2382113Y-5026710D01*
X2378710Y-5024882D01*
X2375001Y-5023866D01*
G37*
D11*
X3367900Y-2768600D02*
G01*
X3367900Y-3276600D01*
X4175899Y-2768600D02*
G01*
X3367900Y-2768600D01*
X4175899Y-3276600D02*
G01*
X3367900Y-3276600D01*
X4175899Y-3021893D02*
G01*
X3898900Y-3021893D01*
X3898900Y-3276600D01*
X4175899Y-2768600D02*
G01*
X4175899Y-3276600D01*
D12*
X3339619Y-4457219D02*
G01*
X3339619Y-4127980D01*
X3010380Y-4127980D01*
X3010380Y-4457219D01*
X3339619Y-4457219D01*
X3055980Y-4480079D02*
G01*
X2987520Y-4480079D01*
X2987520Y-4411619D01*
X1586151Y-4949314D02*
G01*
X1586151Y-5090314D01*
X1405430Y-5090314D02*
G01*
X1405430Y-4949314D01*
X1420670Y-4934074D02*
G01*
X1570911Y-4934074D01*
X1586151Y-5311554D02*
G01*
X1586151Y-5170553D01*
X1405430Y-5170553D02*
G01*
X1405430Y-5311554D01*
X1420670Y-5326794D02*
G01*
X1570911Y-5326794D01*
X1586151Y-5609714D02*
G01*
X1586151Y-5750714D01*
X1405430Y-5750714D02*
G01*
X1405430Y-5609714D01*
X1420670Y-5594474D02*
G01*
X1570911Y-5594474D01*
X1586151Y-5971954D02*
G01*
X1586151Y-5830953D01*
X1405430Y-5830953D02*
G01*
X1405430Y-5971954D01*
X1420670Y-5987194D02*
G01*
X1570911Y-5987194D01*
X2597370Y-5027373D02*
G01*
X2738371Y-5027373D01*
X2738371Y-5208094D02*
G01*
X2597370Y-5208094D01*
X2582130Y-5192854D02*
G01*
X2582130Y-5042613D01*
X2959610Y-5027373D02*
G01*
X2818610Y-5027373D01*
X2818610Y-5208094D02*
G01*
X2959610Y-5208094D01*
X2974850Y-5192854D02*
G01*
X2974850Y-5042613D01*
X2600180Y-4646739D02*
G01*
X2741180Y-4646739D01*
X2741180Y-4827460D02*
G01*
X2600180Y-4827460D01*
X2584940Y-4812220D02*
G01*
X2584940Y-4661979D01*
X2962419Y-4646739D02*
G01*
X2821419Y-4646739D01*
X2821419Y-4827460D02*
G01*
X2962419Y-4827460D01*
X2977659Y-4812220D02*
G01*
X2977659Y-4661979D01*
X2597370Y-5268673D02*
G01*
X2738371Y-5268673D01*
X2738371Y-5449394D02*
G01*
X2597370Y-5449394D01*
X2582130Y-5434154D02*
G01*
X2582130Y-5283913D01*
X2959610Y-5268673D02*
G01*
X2818610Y-5268673D01*
X2818610Y-5449394D02*
G01*
X2959610Y-5449394D01*
X2974850Y-5434154D02*
G01*
X2974850Y-5283913D01*
D13*
X1661576Y-5263034D02*
G01*
X1661576Y-5245651D01*
X1812604Y-5263034D02*
G01*
X1812604Y-5245651D01*
X1812604Y-5263034D02*
G01*
X1823709Y-5263034D01*
X1823709Y-5245651D01*
X1650471Y-5245651D02*
G01*
X1650471Y-5263034D01*
X1661576Y-5263034D01*
X1661576Y-5245651D02*
G01*
X1650471Y-5245651D01*
X1823709Y-5245651D02*
G01*
X1812604Y-5245651D01*
X1823709Y-5187746D02*
G01*
X1650471Y-5187746D01*
D12*
X1823709Y-5202034D02*
G01*
X1650471Y-5202034D01*
X1823709Y-5245651D02*
G01*
X1823709Y-4964417D01*
X1823709Y-4964417D02*
G01*
X1806910Y-4964417D01*
X1650471Y-5245651D02*
G01*
X1650471Y-4964417D01*
X1650471Y-4964417D02*
G01*
X1667271Y-4964417D01*
D13*
X2066604Y-4947033D02*
G01*
X2066604Y-4964417D01*
X1915576Y-4947033D02*
G01*
X1915576Y-4964417D01*
X1915576Y-4947033D02*
G01*
X1904471Y-4947033D01*
X1904471Y-4964417D01*
X2077709Y-4964417D02*
G01*
X2077709Y-4947033D01*
X2066604Y-4947033D01*
X2066604Y-4964417D02*
G01*
X2077709Y-4964417D01*
X1904471Y-4964417D02*
G01*
X1915576Y-4964417D01*
X1904471Y-5022321D02*
G01*
X2077709Y-5022321D01*
D12*
X1904471Y-5008034D02*
G01*
X2077709Y-5008034D01*
X1904471Y-4964417D02*
G01*
X1904471Y-5245651D01*
X1904471Y-5245651D02*
G01*
X1921271Y-5245651D01*
X2077709Y-4964417D02*
G01*
X2077709Y-5245651D01*
X2077709Y-5245651D02*
G01*
X2060910Y-5245651D01*
X2324100Y-5851154D02*
G01*
X2324100Y-5979647D01*
X2140681Y-5979647D01*
X2140681Y-5851154D01*
X2324100Y-5755914D02*
G01*
X2324100Y-5627420D01*
X2140681Y-5627420D01*
X2140681Y-5755914D01*
X3213100Y-5825754D02*
G01*
X3213100Y-5954247D01*
X3029681Y-5954247D01*
X3029681Y-5825754D01*
X3213100Y-5730514D02*
G01*
X3213100Y-5602020D01*
X3029681Y-5602020D01*
X3029681Y-5730514D01*
X2369281Y-5755914D02*
G01*
X2369281Y-5627420D01*
X2552700Y-5627420D01*
X2552700Y-5755914D01*
X2369281Y-5851154D02*
G01*
X2369281Y-5979647D01*
X2552700Y-5979647D01*
X2552700Y-5851154D01*
X1886681Y-5755914D02*
G01*
X1886681Y-5627420D01*
X2070100Y-5627420D01*
X2070100Y-5755914D01*
X1886681Y-5851154D02*
G01*
X1886681Y-5979647D01*
X2070100Y-5979647D01*
X2070100Y-5851154D01*
X1632681Y-5755914D02*
G01*
X1632681Y-5627420D01*
X1816100Y-5627420D01*
X1816100Y-5755914D01*
X1632681Y-5851154D02*
G01*
X1632681Y-5979647D01*
X1816100Y-5979647D01*
X1816100Y-5851154D01*
X2451470Y-6250843D02*
G01*
X2322977Y-6250843D01*
X2322977Y-6067425D01*
X2451470Y-6067425D01*
X2546710Y-6250843D02*
G01*
X2675204Y-6250843D01*
X2675204Y-6067425D01*
X2546710Y-6067425D01*
X2394310Y-5368925D02*
G01*
X2522804Y-5368925D01*
X2522804Y-5552343D01*
X2394310Y-5552343D01*
X2299070Y-5368925D02*
G01*
X2170577Y-5368925D01*
X2170577Y-5552343D01*
X2299070Y-5552343D01*
X1924410Y-5368925D02*
G01*
X2052904Y-5368925D01*
X2052904Y-5552343D01*
X1924410Y-5552343D01*
X1829170Y-5368925D02*
G01*
X1700677Y-5368925D01*
X1700677Y-5552343D01*
X1829170Y-5552343D01*
D14*
X2868488Y-5637723D02*
G01*
X2868488Y-5623128D01*
X2868488Y-5732721D02*
G01*
X2868488Y-5728553D01*
X2868488Y-5827715D02*
G01*
X2868488Y-5823549D01*
X2868488Y-5933130D02*
G01*
X2868488Y-5918545D01*
X2688485Y-5637723D02*
G01*
X2688485Y-5623128D01*
X2688485Y-5827715D02*
G01*
X2688485Y-5728550D01*
X2688485Y-5933130D02*
G01*
X2688485Y-5918542D01*
X2688485Y-5933130D02*
G01*
X2868488Y-5933130D01*
X2688485Y-5623128D02*
G01*
X2868488Y-5623128D01*
X2423988Y-5002723D02*
G01*
X2423988Y-4988128D01*
X2423988Y-5097721D02*
G01*
X2423988Y-5093553D01*
X2423988Y-5192715D02*
G01*
X2423988Y-5188549D01*
X2423988Y-5298130D02*
G01*
X2423988Y-5283545D01*
X2243985Y-5002723D02*
G01*
X2243985Y-4988128D01*
X2243985Y-5192715D02*
G01*
X2243985Y-5093550D01*
X2243985Y-5298130D02*
G01*
X2243985Y-5283542D01*
X2243985Y-5298130D02*
G01*
X2423988Y-5298130D01*
X2243985Y-4988128D02*
G01*
X2423988Y-4988128D01*
D12*
G75*
G01*
X1405430Y-4949314D02*
G02*
X1420670Y-4934074I15240J0D01*
G75*
G01*
X1570911Y-4934074D02*
G02*
X1586151Y-4949314I0J-15240D01*
G75*
G01*
X1405430Y-5311554D02*
G03*
X1420670Y-5326794I15240J0D01*
G75*
G01*
X1570911Y-5326794D02*
G03*
X1586151Y-5311554I0J15240D01*
G75*
G01*
X1405430Y-5609714D02*
G02*
X1420670Y-5594474I15240J0D01*
G75*
G01*
X1570911Y-5594474D02*
G02*
X1586151Y-5609714I0J-15240D01*
G75*
G01*
X1405430Y-5971954D02*
G03*
X1420670Y-5987194I15240J0D01*
G75*
G01*
X1570911Y-5987194D02*
G03*
X1586151Y-5971954I0J15240D01*
G75*
G01*
X2597371Y-5208095D02*
G02*
X2582131Y-5192855I0J15240D01*
G75*
G01*
X2582131Y-5042614D02*
G02*
X2597371Y-5027374I15240J0D01*
G75*
G01*
X2959611Y-5208095D02*
G03*
X2974851Y-5192855I0J15240D01*
G75*
G01*
X2974851Y-5042614D02*
G03*
X2959611Y-5027374I-15240J0D01*
G75*
G01*
X2600180Y-4827460D02*
G02*
X2584940Y-4812220I0J15240D01*
G75*
G01*
X2584940Y-4661980D02*
G02*
X2600180Y-4646740I15240J0D01*
G75*
G01*
X2962420Y-4827460D02*
G03*
X2977660Y-4812220I0J15240D01*
G75*
G01*
X2977660Y-4661980D02*
G03*
X2962420Y-4646740I-15240J0D01*
G75*
G01*
X2597371Y-5449395D02*
G02*
X2582131Y-5434155I0J15240D01*
G75*
G01*
X2582131Y-5283914D02*
G02*
X2597371Y-5268674I15240J0D01*
G75*
G01*
X2959611Y-5449395D02*
G03*
X2974851Y-5434155I0J15240D01*
G75*
G01*
X2974851Y-5283914D02*
G03*
X2959611Y-5268674I-15240J0D01*
D14*
G75*
G01
X2965374Y-4392600D02*
G03X2965374Y-4392600I-5004J0D01*
M02*
