M48
INCH,LZ
;FILE_FORMAT=2:4
;TYPE=PLATED
;Layer: PTH_Through_Via
;EasyEDA v6.5.51, 2025-09-17 03:18:51
;4aee9cc30035422d88a860af958d7afb,d57bd40a603b42be9e37e0d49851eb9c,10
;Gerber Generator version 0.2
;Holesize 1 = 0.0120 inch
T01C0.0120
%
G05
G90
T01
X020250Y-023250
X023950Y-024250
X014450Y-023000
X017250Y-021500
X013650Y-003950
X014450Y-004050
X005000Y-002000
X005300Y-008200
X003600Y-003750
X002850Y-006550
X005200Y-016900
X007400Y-014750
X004200Y-015050
X003900Y-019000
X018250Y-004700
X016300Y-003500
X008400Y-014800
X010550Y-015350
X004800Y-015100
X005850Y-015450
X011950Y-009950
X012500Y-007200
X010650Y-015950
X014450Y-017050
X012050Y-020149
X010650Y-021900
X010900Y-019250
X002450Y-015050
X003350Y-014700
X015350Y-007650
X004950Y-021000
X004050Y-013300
X015400Y-009950
X004850Y-017950
X011250Y-025000
X017650Y-014100
X010200Y-001300
X014450Y-002100
X015000Y-002200
X009700Y-018750
X013850Y-022700
X019000Y-018450
X018500Y-020350
X012900Y-016250
X015600Y-013900
X013550Y-025700
X010200Y-025700
X009200Y-024900
X012450Y-017800
X012450Y-019800
X010200Y-014800
X010900Y-015300
X010250Y-008100
X011350Y-008000
X013450Y-007100
X013150Y-007600
X008950Y-005430
X008700Y-007400
X020250Y-022050
X020056Y-016869
X012750Y-015250
X011150Y-023600
X018450Y-026080
X018000Y-021650
X011950Y-017200
X013550Y-017700
X010700Y-023900
X024130Y-019600
X021950Y-022418
X013074Y-023841
X013900Y-017950
X013250Y-015200
X013850Y-015250
X012200Y-019400
X011700Y-019450
X011400Y-023850
X010750Y-025050
X008150Y-025300
X007806Y-024200
X004750Y-022500
X011700Y-022050
X011700Y-024050
X010800Y-023100
X010950Y-021950
X010950Y-021950
X017800Y-023535
X005215Y-016150
X004200Y-015965
X004200Y-016650
X005215Y-015550
X007762Y-014145
X010556Y-018650
X010300Y-008756
X008400Y-009000
X011623Y-002184
X013100Y-004730
X013013Y-003216
X016773Y-002184
X015532Y-003216
X015000Y-004730
X013250Y-022356
X012743Y-023757
X014450Y-020900
X013850Y-021050
X004200Y-018000
X010150Y-019550
X009300Y-017600
M30
