G04 Layer: TopSilkscreenLayer*
G04 EasyEDA v6.5.51, 2025-09-17 03:18:51*
G04 4aee9cc30035422d88a860af958d7afb,d57bd40a603b42be9e37e0d49851eb9c,10*
G04 Gerber Generator version 0.2*
G04 Scale: 100 percent, Rotated: No, Reflected: No *
G04 Dimensions in inches *
G04 leading zeros omitted , absolute positions ,3 integer and 6 decimal *
%FSLAX36Y36*%
%MOIN*%

%ADD10C,0.0080*%
%ADD11C,0.0060*%
%ADD12C,0.0100*%
%ADD13C,0.0060*%
%ADD14C,0.0050*%
%ADD15C,0.0079*%
%ADD16C,0.0118*%
%ADD17C,0.0197*%
%ADD18C,0.0194*%

%LPD*%
G36*
X1910280Y-459460D02*
G01*
X1909720Y-460540D01*
X1908680Y-463140D01*
X1907440Y-466900D01*
X1904920Y-476360D01*
X1903140Y-485460D01*
X1901660Y-494200D01*
X1899139Y-513000D01*
X1897580Y-527660D01*
X1896020Y-546080D01*
X1895760Y-547560D01*
X1890760Y-548320D01*
X1886020Y-549280D01*
X1881080Y-550480D01*
X1877920Y-551380D01*
X1872040Y-553280D01*
X1867840Y-554860D01*
X1862120Y-557260D01*
X1857960Y-559240D01*
X1852620Y-562100D01*
X1847300Y-565280D01*
X1844120Y-567300D01*
X1838400Y-571320D01*
X1831279Y-576980D01*
X1826940Y-580880D01*
X1822260Y-585400D01*
X1815080Y-593180D01*
X1809740Y-599740D01*
X1804460Y-606980D01*
X1801040Y-612260D01*
X1796639Y-619580D01*
X1794139Y-624280D01*
X1789860Y-633020D01*
X1785820Y-642740D01*
X1784180Y-647240D01*
X1782520Y-652200D01*
X1781360Y-655980D01*
X1779259Y-663540D01*
X1778040Y-668520D01*
X1776279Y-677600D01*
X1775460Y-682740D01*
X1774360Y-691560D01*
X1773860Y-697580D01*
X1773420Y-704659D01*
X1773420Y-712000D01*
X1788120Y-712000D01*
X1788300Y-702540D01*
X1789100Y-692620D01*
X1790080Y-685120D01*
X1791120Y-678900D01*
X1793580Y-667800D01*
X1795760Y-660240D01*
X1797980Y-653620D01*
X1799440Y-649599D01*
X1802720Y-641800D01*
X1805280Y-636380D01*
X1810080Y-627380D01*
X1813300Y-622180D01*
X1817100Y-616520D01*
X1821440Y-610600D01*
X1829120Y-601620D01*
X1835820Y-595000D01*
X1839580Y-591640D01*
X1846500Y-586100D01*
X1853000Y-581620D01*
X1860340Y-577280D01*
X1864480Y-575140D01*
X1867240Y-573860D01*
X1872560Y-571640D01*
X1878520Y-569420D01*
X1884139Y-567740D01*
X1892740Y-565800D01*
X1894680Y-565520D01*
X1894420Y-569240D01*
X1894180Y-575400D01*
X1893779Y-575980D01*
X1892760Y-575980D01*
X1887300Y-577160D01*
X1883360Y-578120D01*
X1879100Y-579320D01*
X1874960Y-580780D01*
X1871000Y-582340D01*
X1867840Y-583720D01*
X1862700Y-586260D01*
X1855000Y-590860D01*
X1850460Y-594040D01*
X1845120Y-598260D01*
X1840760Y-602180D01*
X1837020Y-605880D01*
X1835240Y-607760D01*
X1827120Y-617460D01*
X1825520Y-619580D01*
X1821720Y-625120D01*
X1818400Y-630460D01*
X1814440Y-637560D01*
X1811980Y-642520D01*
X1809440Y-647940D01*
X1806720Y-654560D01*
X1805140Y-658820D01*
X1802940Y-665440D01*
X1801380Y-671340D01*
X1800540Y-676420D01*
X1799780Y-681740D01*
X1798980Y-688600D01*
X1798580Y-693319D01*
X1798180Y-699479D01*
X1798020Y-708680D01*
X1798360Y-719320D01*
X1798779Y-724280D01*
X1799340Y-729140D01*
X1800360Y-735860D01*
X1801140Y-739880D01*
X1802500Y-745740D01*
X1803480Y-749340D01*
X1804660Y-753120D01*
X1805920Y-756760D01*
X1808920Y-764220D01*
X1811620Y-769800D01*
X1814460Y-774860D01*
X1816579Y-778180D01*
X1819880Y-782900D01*
X1823580Y-787420D01*
X1825940Y-790000D01*
X1830500Y-794280D01*
X1835240Y-798100D01*
X1837600Y-799460D01*
X1840820Y-800500D01*
X1844920Y-800500D01*
X1847480Y-799840D01*
X1849460Y-799040D01*
X1852260Y-797440D01*
X1855600Y-794620D01*
X1859079Y-790460D01*
X1861900Y-785980D01*
X1864580Y-780660D01*
X1868000Y-772140D01*
X1871140Y-762580D01*
X1873520Y-754060D01*
X1874700Y-749340D01*
X1876840Y-739700D01*
X1878839Y-729720D01*
X1880780Y-718860D01*
X1882980Y-704900D01*
X1884940Y-690480D01*
X1886720Y-675900D01*
X1888480Y-659060D01*
X1890480Y-636840D01*
X1891660Y-621480D01*
X1892640Y-606580D01*
X1893640Y-588860D01*
X1894000Y-580600D01*
X1894280Y-575980D01*
X1926579Y-575980D01*
X1927420Y-593480D01*
X1928620Y-613440D01*
X1930200Y-635180D01*
X1931960Y-655040D01*
X1933740Y-672520D01*
X1935740Y-689539D01*
X1937740Y-704200D01*
X1939720Y-716960D01*
X1941240Y-725699D01*
X1943440Y-737159D01*
X1946420Y-750520D01*
X1947620Y-755240D01*
X1949580Y-762340D01*
X1952000Y-769900D01*
X1954720Y-776979D01*
X1957880Y-784020D01*
X1960520Y-788560D01*
X1963680Y-793000D01*
X1966459Y-795699D01*
X1968880Y-797640D01*
X1971200Y-798980D01*
X1973980Y-800000D01*
X1975600Y-800500D01*
X1979900Y-800480D01*
X1982080Y-799840D01*
X1984040Y-799040D01*
X1985640Y-798080D01*
X1991240Y-793480D01*
X1994720Y-790240D01*
X2000200Y-783840D01*
X2003640Y-779120D01*
X2007800Y-772380D01*
X2010860Y-766440D01*
X2011680Y-764700D01*
X2014139Y-758800D01*
X2014940Y-756660D01*
X2016980Y-750560D01*
X2018520Y-744840D01*
X2019720Y-739640D01*
X2020700Y-734440D01*
X2021519Y-728900D01*
X2022520Y-718860D01*
X2022720Y-700660D01*
X2022280Y-693800D01*
X2021879Y-689080D01*
X2020920Y-680920D01*
X2019500Y-671580D01*
X2017920Y-665680D01*
X2016560Y-661420D01*
X2015580Y-658700D01*
X2015580Y-658460D01*
X2014740Y-656220D01*
X2010640Y-646300D01*
X2008480Y-641720D01*
X2006020Y-636840D01*
X2003660Y-632580D01*
X1998880Y-624800D01*
X1994940Y-619120D01*
X1993160Y-616760D01*
X1986220Y-608440D01*
X1983060Y-605100D01*
X1978680Y-600920D01*
X1973680Y-596620D01*
X1970800Y-594420D01*
X1964740Y-590160D01*
X1959340Y-586940D01*
X1953620Y-584040D01*
X1950740Y-582740D01*
X1947100Y-581240D01*
X1943140Y-579820D01*
X1940180Y-578880D01*
X1933760Y-577200D01*
X1929900Y-576420D01*
X1928240Y-575980D01*
X1927080Y-575980D01*
X1926680Y-575400D01*
X1926200Y-565300D01*
X1928920Y-565620D01*
X1933660Y-566580D01*
X1934800Y-567000D01*
X1935800Y-567000D01*
X1937020Y-567440D01*
X1942160Y-568860D01*
X1946699Y-570380D01*
X1953060Y-572880D01*
X1958560Y-575460D01*
X1962120Y-577280D01*
X1969440Y-581620D01*
X1975940Y-586100D01*
X1982860Y-591640D01*
X1987220Y-595560D01*
X1990960Y-599220D01*
X1995900Y-604540D01*
X2002440Y-612500D01*
X2006000Y-617460D01*
X2009160Y-622180D01*
X2012360Y-627380D01*
X2017160Y-636380D01*
X2019720Y-641800D01*
X2023000Y-649599D01*
X2025460Y-656460D01*
X2026680Y-660240D01*
X2028860Y-667800D01*
X2031320Y-678900D01*
X2032360Y-685120D01*
X2033340Y-692620D01*
X2034139Y-702540D01*
X2034319Y-712240D01*
X2033959Y-722860D01*
X2033560Y-727840D01*
X2032800Y-734680D01*
X2032180Y-738700D01*
X2030800Y-746500D01*
X2029259Y-753360D01*
X2027660Y-759260D01*
X2026399Y-763280D01*
X2026200Y-764360D01*
X2025840Y-764599D01*
X2025840Y-765300D01*
X2024259Y-769539D01*
X2024259Y-769760D01*
X2023240Y-772500D01*
X2020120Y-780060D01*
X2018500Y-783600D01*
X2015760Y-789140D01*
X2010780Y-798020D01*
X2010520Y-798259D01*
X2009560Y-799920D01*
X2005620Y-805819D01*
X2002180Y-810580D01*
X1997300Y-816640D01*
X1991360Y-823100D01*
X1987600Y-826820D01*
X1982140Y-831720D01*
X1976860Y-835939D01*
X1971800Y-839520D01*
X1968240Y-841860D01*
X1962940Y-844980D01*
X1960420Y-846360D01*
X1960240Y-846360D01*
X1958160Y-847500D01*
X1952820Y-849920D01*
X1946500Y-852420D01*
X1943740Y-853400D01*
X1936819Y-855360D01*
X1933060Y-856260D01*
X1924960Y-857680D01*
X1920420Y-858160D01*
X1914280Y-858640D01*
X1908160Y-858640D01*
X1902040Y-858160D01*
X1897480Y-857680D01*
X1890560Y-856500D01*
X1885640Y-855360D01*
X1878720Y-853400D01*
X1875940Y-852420D01*
X1869620Y-849920D01*
X1866459Y-848540D01*
X1862200Y-846360D01*
X1862020Y-846360D01*
X1859500Y-844980D01*
X1854199Y-841860D01*
X1849660Y-838860D01*
X1845580Y-835939D01*
X1840300Y-831720D01*
X1834840Y-826820D01*
X1830400Y-822360D01*
X1825140Y-816640D01*
X1820280Y-810580D01*
X1816819Y-805819D01*
X1813640Y-801100D01*
X1811000Y-796880D01*
X1806160Y-788100D01*
X1803959Y-783600D01*
X1802340Y-780060D01*
X1798180Y-769760D01*
X1798180Y-769539D01*
X1796600Y-765300D01*
X1796600Y-764599D01*
X1796240Y-764360D01*
X1796040Y-763280D01*
X1794800Y-759260D01*
X1793020Y-752580D01*
X1791440Y-745320D01*
X1790420Y-739880D01*
X1789660Y-734680D01*
X1788880Y-727840D01*
X1788500Y-722860D01*
X1788120Y-712000D01*
X1773420Y-712000D01*
X1773420Y-718139D01*
X1773839Y-725240D01*
X1774640Y-733740D01*
X1775040Y-737039D01*
X1776200Y-744620D01*
X1777420Y-751100D01*
X1778640Y-756660D01*
X1780960Y-765440D01*
X1783380Y-773199D01*
X1785760Y-779820D01*
X1789680Y-789280D01*
X1791800Y-793760D01*
X1794280Y-798740D01*
X1798360Y-806100D01*
X1801840Y-811720D01*
X1805160Y-816680D01*
X1810140Y-823540D01*
X1817240Y-832060D01*
X1823000Y-838080D01*
X1828520Y-843300D01*
X1834740Y-848600D01*
X1838980Y-851820D01*
X1844120Y-855420D01*
X1847300Y-857460D01*
X1852420Y-860480D01*
X1855920Y-862420D01*
X1856080Y-862420D01*
X1858160Y-863560D01*
X1861320Y-865080D01*
X1866660Y-867380D01*
X1870800Y-869000D01*
X1874760Y-870420D01*
X1881279Y-872320D01*
X1884240Y-873060D01*
X1888800Y-874020D01*
X1892840Y-874740D01*
X1897680Y-875400D01*
X1904000Y-876020D01*
X1918440Y-876020D01*
X1924760Y-875400D01*
X1929600Y-874740D01*
X1936220Y-873500D01*
X1942540Y-871900D01*
X1947680Y-870420D01*
X1955400Y-867600D01*
X1956180Y-867180D01*
X1957960Y-866480D01*
X1961120Y-865080D01*
X1966380Y-862420D01*
X1966519Y-862420D01*
X1970020Y-860480D01*
X1975160Y-857460D01*
X1982260Y-852660D01*
X1987700Y-848600D01*
X1993940Y-843300D01*
X1999440Y-838080D01*
X2005200Y-832060D01*
X2012320Y-823540D01*
X2018100Y-815520D01*
X2020620Y-811720D01*
X2024100Y-806100D01*
X2028180Y-798740D01*
X2030660Y-793760D01*
X2033160Y-788340D01*
X2036100Y-781240D01*
X2037700Y-777060D01*
X2037700Y-776860D01*
X2038800Y-773920D01*
X2041500Y-765440D01*
X2043640Y-757380D01*
X2044840Y-752000D01*
X2045800Y-747220D01*
X2047420Y-737039D01*
X2048180Y-729960D01*
X2048600Y-725240D01*
X2049019Y-718139D01*
X2049019Y-704659D01*
X2048600Y-697580D01*
X2048080Y-691560D01*
X2047200Y-684220D01*
X2046360Y-678680D01*
X2044400Y-668520D01*
X2043400Y-664500D01*
X2041100Y-655980D01*
X2038260Y-647240D01*
X2036620Y-642760D01*
X2032380Y-632580D01*
X2029760Y-627160D01*
X2025400Y-618880D01*
X2021420Y-612260D01*
X2019440Y-609180D01*
X2019220Y-608960D01*
X2017020Y-605640D01*
X2012700Y-599740D01*
X2007380Y-593180D01*
X2002820Y-588160D01*
X2000180Y-585400D01*
X1995520Y-580880D01*
X1991160Y-576980D01*
X1984040Y-571320D01*
X1979700Y-568240D01*
X1976740Y-566280D01*
X1968940Y-561620D01*
X1964480Y-559240D01*
X1960340Y-557260D01*
X1955980Y-555400D01*
X1949760Y-553060D01*
X1946200Y-551880D01*
X1942200Y-550720D01*
X1935620Y-549080D01*
X1930880Y-548140D01*
X1925060Y-547360D01*
X1924860Y-546960D01*
X1923860Y-534620D01*
X1923100Y-526300D01*
X1921320Y-509920D01*
X1919540Y-496760D01*
X1918500Y-490080D01*
X1916960Y-481560D01*
X1914620Y-471160D01*
X1912600Y-464320D01*
X1910640Y-459460D01*
G37*
G36*
X1909940Y-590440D02*
G01*
X1908560Y-590780D01*
X1906279Y-592040D01*
X1904199Y-594560D01*
X1903140Y-597140D01*
X1902580Y-599260D01*
X1902140Y-602580D01*
X1901940Y-608960D01*
X1901140Y-625960D01*
X1899960Y-648060D01*
X1899180Y-660939D01*
X1898160Y-675840D01*
X1896800Y-693920D01*
X1894820Y-716480D01*
X1893260Y-731840D01*
X1891480Y-747260D01*
X1889480Y-762280D01*
X1887920Y-772740D01*
X1886120Y-783379D01*
X1883380Y-797560D01*
X1880640Y-809360D01*
X1878800Y-815980D01*
X1876759Y-822140D01*
X1875620Y-825200D01*
X1874520Y-827800D01*
X1872100Y-832580D01*
X1872100Y-834700D01*
X1873100Y-835920D01*
X1878640Y-838560D01*
X1883860Y-840620D01*
X1888200Y-842060D01*
X1891560Y-843000D01*
X1896100Y-843960D01*
X1899860Y-844580D01*
X1921000Y-844580D01*
X1927140Y-843500D01*
X1930680Y-842600D01*
X1934240Y-841580D01*
X1940960Y-839060D01*
X1947760Y-835920D01*
X1948779Y-834700D01*
X1948779Y-832620D01*
X1947640Y-830639D01*
X1946600Y-828520D01*
X1944660Y-823780D01*
X1943700Y-821180D01*
X1941819Y-815300D01*
X1939660Y-807120D01*
X1937900Y-799680D01*
X1936100Y-790939D01*
X1934120Y-780180D01*
X1932360Y-769180D01*
X1930580Y-756900D01*
X1928820Y-742840D01*
X1927040Y-726760D01*
X1925260Y-708460D01*
X1923460Y-687000D01*
X1921680Y-661660D01*
X1920900Y-648780D01*
X1919740Y-627160D01*
X1918560Y-601160D01*
X1918200Y-599020D01*
X1917500Y-596660D01*
X1916300Y-594100D01*
X1914580Y-592080D01*
X1912120Y-590680D01*
G37*
G36*
X1830500Y-907580D02*
G01*
X1829300Y-907960D01*
X1827820Y-908800D01*
X1826040Y-911220D01*
X1816540Y-926600D01*
X1815740Y-927780D01*
X1815340Y-928960D01*
X1815560Y-930560D01*
X1816639Y-931900D01*
X1818460Y-931900D01*
X1819660Y-930380D01*
X1827520Y-917840D01*
X1827740Y-917600D01*
X1829000Y-915480D01*
X1831000Y-913000D01*
X1831639Y-913000D01*
X1832940Y-914180D01*
X1843480Y-931000D01*
X1844300Y-931900D01*
X1846120Y-931900D01*
X1847140Y-930600D01*
X1847400Y-929720D01*
X1847140Y-928100D01*
X1838420Y-914060D01*
X1838180Y-913820D01*
X1836040Y-910280D01*
X1834900Y-908780D01*
X1833100Y-907760D01*
G37*
G36*
X1951040Y-907600D02*
G01*
X1950060Y-907820D01*
X1948760Y-908540D01*
X1947340Y-910040D01*
X1936120Y-928080D01*
X1935880Y-929520D01*
X1936120Y-930660D01*
X1937160Y-931900D01*
X1939019Y-931900D01*
X1940020Y-930600D01*
X1950380Y-914180D01*
X1951680Y-913000D01*
X1952320Y-913000D01*
X1954000Y-915020D01*
X1955580Y-917600D01*
X1955800Y-917840D01*
X1956759Y-919500D01*
X1957000Y-919740D01*
X1957940Y-921400D01*
X1958180Y-921620D01*
X1959120Y-923280D01*
X1959360Y-923520D01*
X1960320Y-925180D01*
X1960560Y-925400D01*
X1964019Y-931080D01*
X1964760Y-931900D01*
X1966680Y-931900D01*
X1967820Y-930500D01*
X1967820Y-928420D01*
X1956240Y-909820D01*
X1955360Y-908800D01*
X1953680Y-907780D01*
G37*
G36*
X1808500Y-908740D02*
G01*
X1778720Y-908780D01*
X1777000Y-909760D01*
X1775400Y-911700D01*
X1774460Y-914200D01*
X1774460Y-917300D01*
X1775660Y-920300D01*
X1777300Y-921979D01*
X1779420Y-922920D01*
X1805520Y-922920D01*
X1806279Y-923420D01*
X1806879Y-924820D01*
X1806279Y-926220D01*
X1805520Y-926700D01*
X1777280Y-926700D01*
X1776200Y-927740D01*
X1775660Y-929260D01*
X1776100Y-930840D01*
X1777020Y-931900D01*
X1806660Y-931900D01*
X1808560Y-930680D01*
X1810020Y-928980D01*
X1810900Y-926820D01*
X1810900Y-922800D01*
X1810180Y-921160D01*
X1809040Y-919400D01*
X1807560Y-918319D01*
X1806180Y-917740D01*
X1779960Y-917720D01*
X1778820Y-916760D01*
X1778820Y-914980D01*
X1779720Y-913940D01*
X1807880Y-913940D01*
X1808980Y-913259D01*
X1809640Y-912080D01*
X1809640Y-910220D01*
G37*
G36*
X1856980Y-908740D02*
G01*
X1854199Y-908780D01*
X1852920Y-909740D01*
X1851840Y-911940D01*
X1851840Y-930460D01*
X1853000Y-931900D01*
X1854800Y-931900D01*
X1855420Y-931320D01*
X1856080Y-930140D01*
X1856080Y-916900D01*
X1856320Y-915840D01*
X1856620Y-915840D01*
X1866220Y-928960D01*
X1868040Y-931220D01*
X1869180Y-931900D01*
X1872100Y-931900D01*
X1873600Y-930780D01*
X1883779Y-916900D01*
X1884760Y-915840D01*
X1885140Y-916100D01*
X1885140Y-930400D01*
X1886260Y-931900D01*
X1888260Y-931900D01*
X1889480Y-930140D01*
X1889480Y-912840D01*
X1888880Y-910759D01*
X1888200Y-909800D01*
X1886960Y-908740D01*
X1884280Y-908740D01*
X1882660Y-909880D01*
X1872200Y-924160D01*
X1871879Y-924820D01*
X1870720Y-925540D01*
X1869760Y-925260D01*
X1858920Y-910520D01*
G37*
G36*
X1899000Y-908740D02*
G01*
X1896300Y-908800D01*
X1895420Y-909380D01*
X1894640Y-910220D01*
X1893839Y-912280D01*
X1893839Y-930240D01*
X1895060Y-931900D01*
X1896920Y-931900D01*
X1898080Y-930460D01*
X1898280Y-915960D01*
X1898760Y-915960D01*
X1907960Y-928480D01*
X1910100Y-931200D01*
X1911279Y-931900D01*
X1914199Y-931900D01*
X1915760Y-930680D01*
X1926680Y-915840D01*
X1927040Y-915840D01*
X1927040Y-929479D01*
X1927600Y-931080D01*
X1928420Y-931900D01*
X1930320Y-931900D01*
X1931480Y-930460D01*
X1931480Y-912180D01*
X1930780Y-910440D01*
X1929139Y-908740D01*
X1926320Y-908740D01*
X1924560Y-910100D01*
X1913899Y-924760D01*
X1912820Y-925540D01*
X1911840Y-925240D01*
X1900740Y-910180D01*
G37*
G36*
X1973580Y-908740D02*
G01*
X1972440Y-909820D01*
X1972280Y-911940D01*
X1972800Y-913120D01*
X1974160Y-913940D01*
X2002060Y-913940D01*
X2002920Y-915040D01*
X2002920Y-916420D01*
X2002420Y-917180D01*
X2001560Y-917720D01*
X1976459Y-917720D01*
X1974360Y-918840D01*
X1973320Y-920220D01*
X1972400Y-922099D01*
X1972240Y-929560D01*
X1972480Y-930660D01*
X1973540Y-931900D01*
X1975380Y-931900D01*
X1976540Y-930460D01*
X1976780Y-923760D01*
X1976840Y-923640D01*
X1978000Y-922920D01*
X1988600Y-922920D01*
X1991600Y-923620D01*
X1994700Y-924860D01*
X1997860Y-926760D01*
X2000460Y-928640D01*
X2004259Y-931900D01*
X2005880Y-931900D01*
X2006720Y-931080D01*
X2007280Y-929800D01*
X2007280Y-928580D01*
X2005400Y-926340D01*
X2001740Y-923319D01*
X2001740Y-922980D01*
X2003620Y-922380D01*
X2005200Y-921080D01*
X2006220Y-919740D01*
X2006840Y-918319D01*
X2007280Y-916720D01*
X2007280Y-914680D01*
X2006459Y-912099D01*
X2004940Y-910020D01*
X2002760Y-908740D01*
G37*
G36*
X2012780Y-908740D02*
G01*
X2011620Y-910120D01*
X2011620Y-912080D01*
X2012280Y-913259D01*
X2013380Y-913940D01*
X2040300Y-913940D01*
X2041800Y-914860D01*
X2043040Y-916560D01*
X2043640Y-918259D01*
X2043640Y-922460D01*
X2042800Y-924580D01*
X2041440Y-926000D01*
X2040020Y-926700D01*
X2015960Y-926700D01*
X2015960Y-919340D01*
X2014620Y-917720D01*
X2012840Y-917720D01*
X2011620Y-919180D01*
X2011620Y-930460D01*
X2012840Y-931900D01*
X2041579Y-931900D01*
X2043680Y-930699D01*
X2045660Y-928480D01*
X2046720Y-926600D01*
X2047540Y-924000D01*
X2048040Y-921760D01*
X2047840Y-917600D01*
X2047160Y-915240D01*
X2046600Y-913760D01*
X2045060Y-911300D01*
X2042860Y-909340D01*
X2041260Y-908740D01*
G37*
D10*
X1943422Y-214609D02*
G01*
X1942527Y-212820D01*
X1940736Y-211030D01*
X1938948Y-210136D01*
X1935369Y-210136D01*
X1933578Y-211030D01*
X1931790Y-212820D01*
X1930895Y-214609D01*
X1930000Y-217294D01*
X1930000Y-221768D01*
X1930895Y-224452D01*
X1931790Y-226242D01*
X1933578Y-228031D01*
X1935369Y-228926D01*
X1938948Y-228926D01*
X1940736Y-228031D01*
X1942527Y-226242D01*
X1943422Y-224452D01*
X1943422Y-221768D01*
X1938948Y-221768D02*
G01*
X1943422Y-221768D01*
X2170000Y-210100D02*
G01*
X2177200Y-228899D01*
X2184300Y-210100D02*
G01*
X2177200Y-228899D01*
X2190200Y-210100D02*
G01*
X2190200Y-228899D01*
X2190200Y-210100D02*
G01*
X2198299Y-210100D01*
X2201000Y-210999D01*
X2201899Y-211900D01*
X2202700Y-213699D01*
X2202700Y-215500D01*
X2201899Y-217300D01*
X2201000Y-218200D01*
X2198299Y-219099D01*
X2190200Y-219099D02*
G01*
X2198299Y-219099D01*
X2201000Y-220000D01*
X2201899Y-220900D01*
X2202700Y-222699D01*
X2202700Y-225300D01*
X2201899Y-227100D01*
X2201000Y-228000D01*
X2198299Y-228899D01*
X2190200Y-228899D01*
X2208699Y-210100D02*
G01*
X2208699Y-223600D01*
X2209499Y-226199D01*
X2211300Y-228000D01*
X2213999Y-228899D01*
X2215799Y-228899D01*
X2218500Y-228000D01*
X2220299Y-226199D01*
X2221199Y-223600D01*
X2221199Y-210100D01*
X2239600Y-212800D02*
G01*
X2237799Y-210999D01*
X2235100Y-210100D01*
X2231599Y-210100D01*
X2228900Y-210999D01*
X2227100Y-212800D01*
X2227100Y-214600D01*
X2228000Y-216399D01*
X2228900Y-217300D01*
X2230699Y-218200D01*
X2236000Y-220000D01*
X2237799Y-220900D01*
X2238699Y-221799D01*
X2239600Y-223600D01*
X2239600Y-226199D01*
X2237799Y-228000D01*
X2235100Y-228899D01*
X2231599Y-228899D01*
X2228900Y-228000D01*
X2227100Y-226199D01*
X1995000Y-210100D02*
G01*
X1995000Y-228899D01*
X1995000Y-210100D02*
G01*
X2001300Y-210100D01*
X2003900Y-210999D01*
X2005699Y-212800D01*
X2006599Y-214600D01*
X2007500Y-217300D01*
X2007500Y-221799D01*
X2006599Y-224499D01*
X2005699Y-226199D01*
X2003900Y-228000D01*
X2001300Y-228899D01*
X1995000Y-228899D01*
X2013400Y-210100D02*
G01*
X2013400Y-228899D01*
X2013400Y-210100D02*
G01*
X2026000Y-228899D01*
X2026000Y-210100D02*
G01*
X2026000Y-228899D01*
X2080000Y-210100D02*
G01*
X2080000Y-228899D01*
X2080000Y-210100D02*
G01*
X2086300Y-210100D01*
X2088900Y-210999D01*
X2090699Y-212800D01*
X2091599Y-214600D01*
X2092500Y-217300D01*
X2092500Y-221799D01*
X2091599Y-224499D01*
X2090699Y-226199D01*
X2088900Y-228000D01*
X2086300Y-228899D01*
X2080000Y-228899D01*
X2098400Y-210100D02*
G01*
X2098400Y-228899D01*
X2098400Y-210100D02*
G01*
X2106499Y-210100D01*
X2109200Y-210999D01*
X2110100Y-211900D01*
X2111000Y-213699D01*
X2111000Y-216399D01*
X2110100Y-218200D01*
X2109200Y-219099D01*
X2106499Y-220000D01*
X2098400Y-220000D01*
D11*
X143600Y-1595700D02*
G01*
X139499Y-1591599D01*
X133400Y-1589600D01*
X125199Y-1589600D01*
X119099Y-1591599D01*
X115000Y-1595700D01*
X115000Y-1599800D01*
X116999Y-1603899D01*
X119099Y-1605999D01*
X123200Y-1608000D01*
X135500Y-1612100D01*
X139499Y-1614099D01*
X141599Y-1616199D01*
X143600Y-1620300D01*
X143600Y-1626399D01*
X139499Y-1630500D01*
X133400Y-1632500D01*
X125199Y-1632500D01*
X119099Y-1630500D01*
X115000Y-1626399D01*
X157100Y-1589600D02*
G01*
X167399Y-1632500D01*
X177600Y-1589600D02*
G01*
X167399Y-1632500D01*
X177600Y-1589600D02*
G01*
X187800Y-1632500D01*
X198000Y-1589600D02*
G01*
X187800Y-1632500D01*
X211500Y-1597800D02*
G01*
X215599Y-1595700D01*
X221799Y-1589600D01*
X221799Y-1632500D01*
X130700Y-2076399D02*
G01*
X126599Y-2080500D01*
X124600Y-2086599D01*
X124600Y-2094800D01*
X126599Y-2100900D01*
X130700Y-2105000D01*
X134800Y-2105000D01*
X138899Y-2103000D01*
X140999Y-2100900D01*
X143000Y-2096799D01*
X147100Y-2084499D01*
X149099Y-2080500D01*
X151199Y-2078400D01*
X155300Y-2076399D01*
X161399Y-2076399D01*
X165500Y-2080500D01*
X167500Y-2086599D01*
X167500Y-2094800D01*
X165500Y-2100900D01*
X161399Y-2105000D01*
X124600Y-2062899D02*
G01*
X167500Y-2052600D01*
X124600Y-2042399D02*
G01*
X167500Y-2052600D01*
X124600Y-2042399D02*
G01*
X167500Y-2032199D01*
X124600Y-2021999D02*
G01*
X167500Y-2032199D01*
X134800Y-2006399D02*
G01*
X132800Y-2006399D01*
X128699Y-2004400D01*
X126599Y-2002300D01*
X124600Y-1998200D01*
X124600Y-1990000D01*
X126599Y-1985999D01*
X128699Y-1983899D01*
X132800Y-1981900D01*
X136900Y-1981900D01*
X140999Y-1983899D01*
X147100Y-1988000D01*
X167500Y-2008499D01*
X167500Y-1979800D01*
X2555000Y-1514600D02*
G01*
X2555000Y-1557500D01*
X2555000Y-1514600D02*
G01*
X2573400Y-1514600D01*
X2579499Y-1516599D01*
X2581599Y-1518699D01*
X2583599Y-1522800D01*
X2583599Y-1526900D01*
X2581599Y-1530999D01*
X2579499Y-1533000D01*
X2573400Y-1535000D01*
X2555000Y-1535000D02*
G01*
X2573400Y-1535000D01*
X2579499Y-1537100D01*
X2581599Y-1539099D01*
X2583599Y-1543200D01*
X2583599Y-1549400D01*
X2581599Y-1553499D01*
X2579499Y-1555500D01*
X2573400Y-1557500D01*
X2555000Y-1557500D01*
X2611499Y-1514600D02*
G01*
X2611499Y-1557500D01*
X2597100Y-1514600D02*
G01*
X2625799Y-1514600D01*
X2639300Y-1522800D02*
G01*
X2643400Y-1520700D01*
X2649499Y-1514600D01*
X2649499Y-1557500D01*
D10*
X2633299Y-1994994D02*
G01*
X2633299Y-2027195D01*
X2644399Y-2466095D02*
G01*
X2612100Y-2466095D01*
X2628299Y-2449994D02*
G01*
X2628299Y-2482195D01*
D11*
X1460000Y-2698699D02*
G01*
X1461800Y-2697800D01*
X1464499Y-2695100D01*
X1464499Y-2714200D01*
X2165000Y-168699D02*
G01*
X2166800Y-167800D01*
X2169499Y-165100D01*
X2169499Y-184200D01*
D10*
X89319Y-1275875D02*
G01*
X165619Y-1304976D01*
X89319Y-1275875D02*
G01*
X165619Y-1246775D01*
X140219Y-1294076D02*
G01*
X140219Y-1257676D01*
X89319Y-1222775D02*
G01*
X165619Y-1222775D01*
X89319Y-1222775D02*
G01*
X165619Y-1171876D01*
X89319Y-1171876D02*
G01*
X165619Y-1171876D01*
X89319Y-1122476D02*
G01*
X165619Y-1122476D01*
X89319Y-1147876D02*
G01*
X89319Y-1096975D01*
X89319Y-1072975D02*
G01*
X165619Y-1072975D01*
X89319Y-1072975D02*
G01*
X89319Y-1025675D01*
X125619Y-1072975D02*
G01*
X125619Y-1043876D01*
X165619Y-1072975D02*
G01*
X165619Y-1025675D01*
X89319Y-1001676D02*
G01*
X165619Y-1001676D01*
X89319Y-1001676D02*
G01*
X165619Y-950776D01*
X89319Y-950776D02*
G01*
X165619Y-950776D01*
X89319Y-926775D02*
G01*
X165619Y-926775D01*
X89319Y-926775D02*
G01*
X165619Y-875875D01*
X89319Y-875875D02*
G01*
X165619Y-875875D01*
X89319Y-822775D02*
G01*
X165619Y-851876D01*
X89319Y-822775D02*
G01*
X165619Y-793676D01*
X140219Y-840976D02*
G01*
X140219Y-804675D01*
G36*
X787480Y-1783400D02*
G01*
X787480Y-1797280D01*
X799479Y-1797280D01*
X799479Y-1783400D01*
G37*
G36*
X787480Y-1832720D02*
G01*
X787480Y-1846600D01*
X799479Y-1846600D01*
X799479Y-1832720D01*
G37*
G36*
X1099740Y-86160D02*
G01*
X1099740Y-100040D01*
X1111740Y-100040D01*
X1111740Y-86160D01*
G37*
G36*
X1099740Y-135460D02*
G01*
X1099740Y-149340D01*
X1111740Y-149340D01*
X1111740Y-135460D01*
G37*
D12*
X288110Y-1661894D02*
G01*
X288110Y-1898114D01*
X51889Y-1898114D01*
X51889Y-1661894D01*
X288110Y-1661894D01*
X51889Y-2378114D02*
G01*
X51889Y-2141894D01*
X288110Y-2141894D01*
X288110Y-2378114D01*
X51889Y-2378114D01*
X2277804Y-1495300D02*
G01*
X2227105Y-1495300D01*
X2078204Y-1346500D01*
X2078204Y-1330900D01*
X2078204Y-818600D02*
G01*
X2078204Y-1330657D01*
X2078234Y-1330904D01*
X2277804Y-654699D02*
G01*
X2227804Y-654699D01*
X2078204Y-804299D01*
X2078204Y-818600D01*
X2537773Y-654724D02*
G01*
X2532214Y-654724D01*
X2532214Y-654724D02*
G01*
X2680595Y-654724D01*
X2680595Y-1495275D01*
X2680595Y-1495275D02*
G01*
X2532214Y-1495275D01*
D11*
X1641675Y-186444D02*
G01*
X1641675Y-241956D01*
X1712825Y-241956D02*
G01*
X1712825Y-186444D01*
X1706826Y-180444D02*
G01*
X1647676Y-180444D01*
X1641675Y-329058D02*
G01*
X1641675Y-273546D01*
X1712825Y-273546D02*
G01*
X1712825Y-329058D01*
X1706826Y-335057D02*
G01*
X1647676Y-335057D01*
X1126675Y-186444D02*
G01*
X1126675Y-241956D01*
X1197825Y-241956D02*
G01*
X1197825Y-186444D01*
X1191826Y-180444D02*
G01*
X1132676Y-180444D01*
X1126675Y-329058D02*
G01*
X1126675Y-273546D01*
X1197825Y-273546D02*
G01*
X1197825Y-329058D01*
X1191826Y-335057D02*
G01*
X1132676Y-335057D01*
X578692Y-1850574D02*
G01*
X634205Y-1850574D01*
X634205Y-1779425D02*
G01*
X578692Y-1779425D01*
X572692Y-1785425D02*
G01*
X572692Y-1844574D01*
X721307Y-1850574D02*
G01*
X665794Y-1850574D01*
X665794Y-1779425D02*
G01*
X721307Y-1779425D01*
X727307Y-1785425D02*
G01*
X727307Y-1844574D01*
X1364425Y-2363692D02*
G01*
X1364425Y-2419205D01*
X1435574Y-2419205D02*
G01*
X1435574Y-2363692D01*
X1429575Y-2357692D02*
G01*
X1370424Y-2357692D01*
X1364425Y-2506307D02*
G01*
X1364425Y-2450794D01*
X1435574Y-2450794D02*
G01*
X1435574Y-2506307D01*
X1429575Y-2512307D02*
G01*
X1370424Y-2512307D01*
X1455574Y-1331307D02*
G01*
X1455574Y-1275794D01*
X1384425Y-1275794D02*
G01*
X1384425Y-1331307D01*
X1390424Y-1337307D02*
G01*
X1449575Y-1337307D01*
X1455574Y-1188692D02*
G01*
X1455574Y-1244205D01*
X1384425Y-1244205D02*
G01*
X1384425Y-1188692D01*
X1390424Y-1182692D02*
G01*
X1449575Y-1182692D01*
X1370574Y-1326307D02*
G01*
X1370574Y-1270794D01*
X1299425Y-1270794D02*
G01*
X1299425Y-1326307D01*
X1305424Y-1332307D02*
G01*
X1364575Y-1332307D01*
X1370574Y-1183692D02*
G01*
X1370574Y-1239205D01*
X1299425Y-1239205D02*
G01*
X1299425Y-1183692D01*
X1305424Y-1177692D02*
G01*
X1364575Y-1177692D01*
X1533693Y-1670574D02*
G01*
X1589205Y-1670574D01*
X1589205Y-1599425D02*
G01*
X1533693Y-1599425D01*
X1527692Y-1605425D02*
G01*
X1527692Y-1664574D01*
X1676306Y-1670574D02*
G01*
X1620794Y-1670574D01*
X1620794Y-1599425D02*
G01*
X1676306Y-1599425D01*
X1682307Y-1605425D02*
G01*
X1682307Y-1664574D01*
X1533693Y-1575574D02*
G01*
X1589205Y-1575574D01*
X1589205Y-1504425D02*
G01*
X1533693Y-1504425D01*
X1527692Y-1510425D02*
G01*
X1527692Y-1569574D01*
X1676306Y-1575574D02*
G01*
X1620794Y-1575574D01*
X1620794Y-1504425D02*
G01*
X1676306Y-1504425D01*
X1682307Y-1510425D02*
G01*
X1682307Y-1569574D01*
X583692Y-2455574D02*
G01*
X639205Y-2455574D01*
X639205Y-2384425D02*
G01*
X583692Y-2384425D01*
X577692Y-2390425D02*
G01*
X577692Y-2449575D01*
X726307Y-2455574D02*
G01*
X670794Y-2455574D01*
X670794Y-2384425D02*
G01*
X726307Y-2384425D01*
X732307Y-2390425D02*
G01*
X732307Y-2449575D01*
X583692Y-2365574D02*
G01*
X639205Y-2365574D01*
X639205Y-2294425D02*
G01*
X583692Y-2294425D01*
X577692Y-2300425D02*
G01*
X577692Y-2359575D01*
X726307Y-2365574D02*
G01*
X670794Y-2365574D01*
X670794Y-2294425D02*
G01*
X726307Y-2294425D01*
X732307Y-2300425D02*
G01*
X732307Y-2359575D01*
X583692Y-2265574D02*
G01*
X639205Y-2265574D01*
X639205Y-2194425D02*
G01*
X583692Y-2194425D01*
X577692Y-2200425D02*
G01*
X577692Y-2259575D01*
X726307Y-2265574D02*
G01*
X670794Y-2265574D01*
X670794Y-2194425D02*
G01*
X726307Y-2194425D01*
X732307Y-2200425D02*
G01*
X732307Y-2259575D01*
X630574Y-2171307D02*
G01*
X630574Y-2115794D01*
X559425Y-2115794D02*
G01*
X559425Y-2171307D01*
X565425Y-2177307D02*
G01*
X624574Y-2177307D01*
X630574Y-2028692D02*
G01*
X630574Y-2084205D01*
X559425Y-2084205D02*
G01*
X559425Y-2028692D01*
X565425Y-2022692D02*
G01*
X624574Y-2022692D01*
D12*
X2732362Y-2440781D02*
G01*
X2527637Y-2440781D01*
X2527637Y-2440781D02*
G01*
X2527622Y-2141334D01*
X2732362Y-2137761D02*
G01*
X2732362Y-2440781D01*
X2710000Y-2414994D02*
G01*
X2555000Y-2414994D01*
X2555000Y-2104994D01*
X2595000Y-2064994D01*
X2670000Y-2064994D01*
X2710000Y-2104994D01*
X2710000Y-2414994D01*
D13*
X865482Y-1843591D02*
G01*
X865482Y-1835471D01*
X865482Y-1786408D02*
G01*
X865482Y-1794133D01*
D11*
X796487Y-1786408D02*
G01*
X865482Y-1786408D01*
X796487Y-1843591D02*
G01*
X865482Y-1843591D01*
X812411Y-1786408D02*
G01*
X812411Y-1843591D01*
D13*
X1177732Y-146341D02*
G01*
X1177732Y-138222D01*
X1177732Y-89160D02*
G01*
X1177732Y-96885D01*
D11*
X1108738Y-89160D02*
G01*
X1177732Y-89160D01*
X1108738Y-146341D02*
G01*
X1177732Y-146341D01*
X1124661Y-89160D02*
G01*
X1124661Y-146341D01*
D12*
X1560002Y-645000D02*
G01*
X1578743Y-645000D01*
X1578743Y-475000D01*
X1560002Y-475000D01*
X1440002Y-645000D02*
G01*
X1421262Y-645000D01*
X1421262Y-475000D01*
X1440002Y-475000D01*
D14*
X1520002Y-560000D02*
G01*
X1480002Y-560000D01*
X1480002Y-535000D02*
G01*
X1520002Y-535000D01*
X1500002Y-555000D01*
X1480002Y-535000D01*
X1520002Y-585000D02*
G01*
X1480002Y-585000D01*
X1500002Y-565000D01*
X1520002Y-585000D01*
D12*
X1370002Y-645000D02*
G01*
X1388743Y-645000D01*
X1388743Y-475000D01*
X1370002Y-475000D01*
X1250002Y-645000D02*
G01*
X1231262Y-645000D01*
X1231262Y-475000D01*
X1250002Y-475000D01*
D14*
X1330002Y-560000D02*
G01*
X1290002Y-560000D01*
X1290002Y-535000D02*
G01*
X1330002Y-535000D01*
X1310002Y-555000D01*
X1290002Y-535000D01*
X1330002Y-585000D02*
G01*
X1290002Y-585000D01*
X1310002Y-565000D01*
X1330002Y-585000D01*
D10*
X1761999Y-2626853D02*
G01*
X1761999Y-2461500D01*
X1927353Y-2626853D02*
G01*
X1927353Y-2461500D01*
D12*
X445000Y-25787D02*
G01*
X445000Y-124212D01*
X335158Y-124212D02*
G01*
X954841Y-124212D01*
X335158Y-25787D02*
G01*
X335158Y-124212D01*
X954841Y-25787D02*
G01*
X335158Y-25787D01*
X954841Y-124212D02*
G01*
X954841Y-25787D01*
D11*
X450086Y-2013591D02*
G01*
X450086Y-1956408D01*
X409472Y-1956408D01*
X329913Y-2013591D02*
G01*
X329913Y-1956408D01*
X370527Y-1956408D01*
X407928Y-2013591D02*
G01*
X372071Y-2013591D01*
X413591Y-2224913D02*
G01*
X356408Y-2224913D01*
X356408Y-2265527D01*
X413591Y-2345086D02*
G01*
X356408Y-2345086D01*
X356408Y-2304472D01*
X413591Y-2267071D02*
G01*
X413591Y-2302928D01*
X783894Y-1613748D02*
G01*
X783894Y-1664335D01*
X856105Y-1664335D01*
X856105Y-1613748D01*
X783894Y-1576251D02*
G01*
X783894Y-1525664D01*
X856105Y-1525664D01*
X856105Y-1576251D01*
X676105Y-1576251D02*
G01*
X676105Y-1525664D01*
X603894Y-1525664D01*
X603894Y-1576251D01*
X676105Y-1613748D02*
G01*
X676105Y-1664335D01*
X603894Y-1664335D01*
X603894Y-1613748D01*
X376251Y-2093894D02*
G01*
X325664Y-2093894D01*
X325664Y-2166106D01*
X376251Y-2166106D01*
X413748Y-2093894D02*
G01*
X464335Y-2093894D01*
X464335Y-2166106D01*
X413748Y-2166106D01*
X1261105Y-2256251D02*
G01*
X1261105Y-2205664D01*
X1188894Y-2205664D01*
X1188894Y-2256251D01*
X1261105Y-2293748D02*
G01*
X1261105Y-2344335D01*
X1188894Y-2344335D01*
X1188894Y-2293748D01*
X2063747Y-2516106D02*
G01*
X2114336Y-2516106D01*
X2114336Y-2443894D01*
X2063747Y-2443894D01*
X2026252Y-2516106D02*
G01*
X1975663Y-2516106D01*
X1975663Y-2443894D01*
X2026252Y-2443894D01*
X386105Y-1546251D02*
G01*
X386105Y-1495664D01*
X313894Y-1495664D01*
X313894Y-1546251D01*
X386105Y-1583748D02*
G01*
X386105Y-1634335D01*
X313894Y-1634335D01*
X313894Y-1583748D01*
X408748Y-2466106D02*
G01*
X459335Y-2466106D01*
X459335Y-2393894D01*
X408748Y-2393894D01*
X371251Y-2466106D02*
G01*
X320664Y-2466106D01*
X320664Y-2393894D01*
X371251Y-2393894D01*
X2118894Y-1983748D02*
G01*
X2118894Y-2034335D01*
X2191106Y-2034335D01*
X2191106Y-1983748D01*
X2118894Y-1946251D02*
G01*
X2118894Y-1895664D01*
X2191106Y-1895664D01*
X2191106Y-1946251D01*
X1288894Y-2293748D02*
G01*
X1288894Y-2344335D01*
X1361105Y-2344335D01*
X1361105Y-2293748D01*
X1288894Y-2256251D02*
G01*
X1288894Y-2205664D01*
X1361105Y-2205664D01*
X1361105Y-2256251D01*
X636105Y-581251D02*
G01*
X636105Y-530664D01*
X563894Y-530664D01*
X563894Y-581251D01*
X636105Y-618748D02*
G01*
X636105Y-669335D01*
X563894Y-669335D01*
X563894Y-618748D01*
X2258747Y-2466106D02*
G01*
X2309336Y-2466106D01*
X2309336Y-2393894D01*
X2258747Y-2393894D01*
X2221252Y-2466106D02*
G01*
X2170663Y-2466106D01*
X2170663Y-2393894D01*
X2221252Y-2393894D01*
X731105Y-581251D02*
G01*
X731105Y-530664D01*
X658894Y-530664D01*
X658894Y-581251D01*
X731105Y-618748D02*
G01*
X731105Y-669335D01*
X658894Y-669335D01*
X658894Y-618748D01*
X2063747Y-2431106D02*
G01*
X2114336Y-2431106D01*
X2114336Y-2358894D01*
X2063747Y-2358894D01*
X2026252Y-2431106D02*
G01*
X1975663Y-2431106D01*
X1975663Y-2358894D01*
X2026252Y-2358894D01*
X1108356Y-239002D02*
G01*
X1108356Y-188414D01*
X1036144Y-188414D01*
X1036144Y-239002D01*
X1108356Y-276498D02*
G01*
X1108356Y-327087D01*
X1036144Y-327087D01*
X1036144Y-276498D01*
X1731144Y-276498D02*
G01*
X1731144Y-327087D01*
X1803356Y-327087D01*
X1803356Y-276498D01*
X1731144Y-239002D02*
G01*
X1731144Y-188414D01*
X1803356Y-188414D01*
X1803356Y-239002D01*
X393748Y-666105D02*
G01*
X444335Y-666105D01*
X444335Y-593894D01*
X393748Y-593894D01*
X356251Y-666105D02*
G01*
X305664Y-666105D01*
X305664Y-593894D01*
X356251Y-593894D01*
X941105Y-1576251D02*
G01*
X941105Y-1525664D01*
X868894Y-1525664D01*
X868894Y-1576251D01*
X941105Y-1613748D02*
G01*
X941105Y-1664335D01*
X868894Y-1664335D01*
X868894Y-1613748D01*
X693894Y-1613748D02*
G01*
X693894Y-1664335D01*
X766105Y-1664335D01*
X766105Y-1613748D01*
X693894Y-1576251D02*
G01*
X693894Y-1525664D01*
X766105Y-1525664D01*
X766105Y-1576251D01*
X1031105Y-1576251D02*
G01*
X1031105Y-1525664D01*
X958894Y-1525664D01*
X958894Y-1576251D01*
X1031105Y-1613748D02*
G01*
X1031105Y-1664335D01*
X958894Y-1664335D01*
X958894Y-1613748D01*
X1638747Y-861105D02*
G01*
X1689336Y-861105D01*
X1689336Y-788894D01*
X1638747Y-788894D01*
X1601252Y-861105D02*
G01*
X1550663Y-861105D01*
X1550663Y-788894D01*
X1601252Y-788894D01*
X1638747Y-956105D02*
G01*
X1689336Y-956105D01*
X1689336Y-883894D01*
X1638747Y-883894D01*
X1601252Y-956105D02*
G01*
X1550663Y-956105D01*
X1550663Y-883894D01*
X1601252Y-883894D01*
X1328894Y-1913748D02*
G01*
X1328894Y-1964335D01*
X1401105Y-1964335D01*
X1401105Y-1913748D01*
X1328894Y-1876251D02*
G01*
X1328894Y-1825664D01*
X1401105Y-1825664D01*
X1401105Y-1876251D01*
X1213894Y-788748D02*
G01*
X1213894Y-839335D01*
X1286105Y-839335D01*
X1286105Y-788748D01*
X1213894Y-751251D02*
G01*
X1213894Y-700664D01*
X1286105Y-700664D01*
X1286105Y-751251D01*
X1261105Y-2091251D02*
G01*
X1261105Y-2040664D01*
X1188894Y-2040664D01*
X1188894Y-2091251D01*
X1261105Y-2128748D02*
G01*
X1261105Y-2179335D01*
X1188894Y-2179335D01*
X1188894Y-2128748D01*
X1466252Y-2208894D02*
G01*
X1415663Y-2208894D01*
X1415663Y-2281106D01*
X1466252Y-2281106D01*
X1503747Y-2208894D02*
G01*
X1554336Y-2208894D01*
X1554336Y-2281106D01*
X1503747Y-2281106D01*
X1123894Y-718748D02*
G01*
X1123894Y-769335D01*
X1196105Y-769335D01*
X1196105Y-718748D01*
X1123894Y-681251D02*
G01*
X1123894Y-630664D01*
X1196105Y-630664D01*
X1196105Y-681251D01*
X1503747Y-2196106D02*
G01*
X1554336Y-2196106D01*
X1554336Y-2123894D01*
X1503747Y-2123894D01*
X1466252Y-2196106D02*
G01*
X1415663Y-2196106D01*
X1415663Y-2123894D01*
X1466252Y-2123894D01*
X903894Y-933748D02*
G01*
X903894Y-984335D01*
X976105Y-984335D01*
X976105Y-933748D01*
X903894Y-896251D02*
G01*
X903894Y-845664D01*
X976105Y-845664D01*
X976105Y-896251D01*
X483748Y-2671106D02*
G01*
X534335Y-2671106D01*
X534335Y-2598894D01*
X483748Y-2598894D01*
X446251Y-2671106D02*
G01*
X395664Y-2671106D01*
X395664Y-2598894D01*
X446251Y-2598894D01*
X1066105Y-896251D02*
G01*
X1066105Y-845664D01*
X993894Y-845664D01*
X993894Y-896251D01*
X1066105Y-933748D02*
G01*
X1066105Y-984335D01*
X993894Y-984335D01*
X993894Y-933748D01*
X801252Y-2293894D02*
G01*
X750664Y-2293894D01*
X750664Y-2366106D01*
X801252Y-2366106D01*
X838747Y-2293894D02*
G01*
X889336Y-2293894D01*
X889336Y-2366106D01*
X838747Y-2366106D01*
X801252Y-2383894D02*
G01*
X750664Y-2383894D01*
X750664Y-2456106D01*
X801252Y-2456106D01*
X838747Y-2383894D02*
G01*
X889336Y-2383894D01*
X889336Y-2456106D01*
X838747Y-2456106D01*
X721105Y-2081251D02*
G01*
X721105Y-2030664D01*
X648894Y-2030664D01*
X648894Y-2081251D01*
X721105Y-2118748D02*
G01*
X721105Y-2169335D01*
X648894Y-2169335D01*
X648894Y-2118748D01*
X673748Y-2006105D02*
G01*
X724335Y-2006105D01*
X724335Y-1933894D01*
X673748Y-1933894D01*
X636251Y-2006105D02*
G01*
X585664Y-2006105D01*
X585664Y-1933894D01*
X636251Y-1933894D01*
D12*
X1155000Y-2548000D02*
G01*
X1543000Y-2548000D01*
X1543000Y-2548000D02*
G01*
X1543000Y-2725000D01*
X1543000Y-2725000D02*
G01*
X1155000Y-2725000D01*
X1155000Y-2725000D02*
G01*
X1155000Y-2548000D01*
X1860000Y-18000D02*
G01*
X2248000Y-18000D01*
X2248000Y-18000D02*
G01*
X2248000Y-195000D01*
X2248000Y-195000D02*
G01*
X1860000Y-195000D01*
X1860000Y-195000D02*
G01*
X1860000Y-18000D01*
D11*
X2075370Y-2249987D02*
G01*
X2075370Y-2281093D01*
X2114629Y-2281093D02*
G01*
X2114629Y-2249987D01*
X2108630Y-2243987D02*
G01*
X2081369Y-2243987D01*
X2075370Y-2330012D02*
G01*
X2075370Y-2298906D01*
X2114629Y-2298906D02*
G01*
X2114629Y-2330012D01*
X2108630Y-2336012D02*
G01*
X2081369Y-2336012D01*
X540012Y-1535369D02*
G01*
X508906Y-1535369D01*
X508906Y-1574630D02*
G01*
X540012Y-1574630D01*
X546012Y-1568629D02*
G01*
X546012Y-1541370D01*
X459987Y-1535369D02*
G01*
X491093Y-1535369D01*
X491093Y-1574630D02*
G01*
X459987Y-1574630D01*
X453987Y-1568629D02*
G01*
X453987Y-1541370D01*
X540012Y-1595369D02*
G01*
X508906Y-1595369D01*
X508906Y-1634630D02*
G01*
X540012Y-1634630D01*
X546012Y-1628629D02*
G01*
X546012Y-1601370D01*
X459987Y-1595369D02*
G01*
X491093Y-1595369D01*
X491093Y-1634630D02*
G01*
X459987Y-1634630D01*
X453987Y-1628629D02*
G01*
X453987Y-1601370D01*
X2159988Y-2129630D02*
G01*
X2191094Y-2129630D01*
X2191094Y-2090369D02*
G01*
X2159988Y-2090369D01*
X2153987Y-2096370D02*
G01*
X2153987Y-2123629D01*
X2240011Y-2129630D02*
G01*
X2208905Y-2129630D01*
X2208905Y-2090369D02*
G01*
X2240011Y-2090369D01*
X2246012Y-2096370D02*
G01*
X2246012Y-2123629D01*
X2160577Y-2187730D02*
G01*
X2191683Y-2187730D01*
X2191683Y-2148470D02*
G01*
X2160577Y-2148470D01*
X2154576Y-2154470D02*
G01*
X2154576Y-2181731D01*
X2240600Y-2187730D02*
G01*
X2209494Y-2187730D01*
X2209494Y-2148470D02*
G01*
X2240600Y-2148470D01*
X2246601Y-2154470D02*
G01*
X2246601Y-2181731D01*
X99630Y-1550012D02*
G01*
X99630Y-1518906D01*
X60369Y-1518906D02*
G01*
X60369Y-1550012D01*
X66370Y-1556012D02*
G01*
X93629Y-1556012D01*
X99630Y-1469987D02*
G01*
X99630Y-1501093D01*
X60369Y-1501093D02*
G01*
X60369Y-1469987D01*
X66370Y-1463987D02*
G01*
X93629Y-1463987D01*
X2055370Y-2144987D02*
G01*
X2055370Y-2176093D01*
X2094629Y-2176093D02*
G01*
X2094629Y-2144987D01*
X2088630Y-2138987D02*
G01*
X2061369Y-2138987D01*
X2055370Y-2225012D02*
G01*
X2055370Y-2193906D01*
X2094629Y-2193906D02*
G01*
X2094629Y-2225012D01*
X2088630Y-2231012D02*
G01*
X2061369Y-2231012D01*
X2005370Y-2144987D02*
G01*
X2005370Y-2176093D01*
X2044629Y-2176093D02*
G01*
X2044629Y-2144987D01*
X2038630Y-2138987D02*
G01*
X2011369Y-2138987D01*
X2005370Y-2225012D02*
G01*
X2005370Y-2193906D01*
X2044629Y-2193906D02*
G01*
X2044629Y-2225012D01*
X2038630Y-2231012D02*
G01*
X2011369Y-2231012D01*
X439630Y-1615012D02*
G01*
X439630Y-1583906D01*
X400369Y-1583906D02*
G01*
X400369Y-1615012D01*
X406370Y-1621012D02*
G01*
X433629Y-1621012D01*
X439630Y-1534987D02*
G01*
X439630Y-1566093D01*
X400369Y-1566093D02*
G01*
X400369Y-1534987D01*
X406370Y-1528987D02*
G01*
X433629Y-1528987D01*
X205012Y-2420369D02*
G01*
X173906Y-2420369D01*
X173906Y-2459630D02*
G01*
X205012Y-2459630D01*
X211012Y-2453629D02*
G01*
X211012Y-2426370D01*
X124987Y-2420369D02*
G01*
X156093Y-2420369D01*
X156093Y-2459630D02*
G01*
X124987Y-2459630D01*
X118987Y-2453629D02*
G01*
X118987Y-2426370D01*
X1705011Y-2105369D02*
G01*
X1673905Y-2105369D01*
X1673905Y-2144630D02*
G01*
X1705011Y-2144630D01*
X1711012Y-2138629D02*
G01*
X1711012Y-2111370D01*
X1624988Y-2105369D02*
G01*
X1656094Y-2105369D01*
X1656094Y-2144630D02*
G01*
X1624988Y-2144630D01*
X1618987Y-2138629D02*
G01*
X1618987Y-2111370D01*
X1065370Y-884987D02*
G01*
X1065370Y-916093D01*
X1104629Y-916093D02*
G01*
X1104629Y-884987D01*
X1098630Y-878987D02*
G01*
X1071369Y-878987D01*
X1065370Y-965012D02*
G01*
X1065370Y-933906D01*
X1104629Y-933906D02*
G01*
X1104629Y-965012D01*
X1098630Y-971012D02*
G01*
X1071369Y-971012D01*
X1819629Y-2230012D02*
G01*
X1819629Y-2198906D01*
X1780370Y-2198906D02*
G01*
X1780370Y-2230012D01*
X1786369Y-2236012D02*
G01*
X1813630Y-2236012D01*
X1819629Y-2149987D02*
G01*
X1819629Y-2181093D01*
X1780370Y-2181093D02*
G01*
X1780370Y-2149987D01*
X1786369Y-2143987D02*
G01*
X1813630Y-2143987D01*
X1874629Y-2225012D02*
G01*
X1874629Y-2193906D01*
X1835370Y-2193906D02*
G01*
X1835370Y-2225012D01*
X1841369Y-2231012D02*
G01*
X1868630Y-2231012D01*
X1874629Y-2144987D02*
G01*
X1874629Y-2176093D01*
X1835370Y-2176093D02*
G01*
X1835370Y-2144987D01*
X1841369Y-2138987D02*
G01*
X1868630Y-2138987D01*
X1835370Y-2334987D02*
G01*
X1835370Y-2366093D01*
X1874629Y-2366093D02*
G01*
X1874629Y-2334987D01*
X1868630Y-2328987D02*
G01*
X1841369Y-2328987D01*
X1835370Y-2415012D02*
G01*
X1835370Y-2383906D01*
X1874629Y-2383906D02*
G01*
X1874629Y-2415012D01*
X1868630Y-2421012D02*
G01*
X1841369Y-2421012D01*
X1760370Y-2334987D02*
G01*
X1760370Y-2366093D01*
X1799629Y-2366093D02*
G01*
X1799629Y-2334987D01*
X1793630Y-2328987D02*
G01*
X1766369Y-2328987D01*
X1760370Y-2415012D02*
G01*
X1760370Y-2383906D01*
X1799629Y-2383906D02*
G01*
X1799629Y-2415012D01*
X1793630Y-2421012D02*
G01*
X1766369Y-2421012D01*
X2369988Y-2129630D02*
G01*
X2401094Y-2129630D01*
X2401094Y-2090369D02*
G01*
X2369988Y-2090369D01*
X2363987Y-2096370D02*
G01*
X2363987Y-2123629D01*
X2450011Y-2129630D02*
G01*
X2418905Y-2129630D01*
X2418905Y-2090369D02*
G01*
X2450011Y-2090369D01*
X2456012Y-2096370D02*
G01*
X2456012Y-2123629D01*
X2370577Y-2187730D02*
G01*
X2401683Y-2187730D01*
X2401683Y-2148470D02*
G01*
X2370577Y-2148470D01*
X2364576Y-2154470D02*
G01*
X2364576Y-2181731D01*
X2450600Y-2187730D02*
G01*
X2419494Y-2187730D01*
X2419494Y-2148470D02*
G01*
X2450600Y-2148470D01*
X2456601Y-2154470D02*
G01*
X2456601Y-2181731D01*
X2345011Y-2090369D02*
G01*
X2313905Y-2090369D01*
X2313905Y-2129630D02*
G01*
X2345011Y-2129630D01*
X2351012Y-2123629D02*
G01*
X2351012Y-2096370D01*
X2264988Y-2090369D02*
G01*
X2296094Y-2090369D01*
X2296094Y-2129630D02*
G01*
X2264988Y-2129630D01*
X2258987Y-2123629D02*
G01*
X2258987Y-2096370D01*
X2345600Y-2147698D02*
G01*
X2314494Y-2147698D01*
X2314494Y-2186959D02*
G01*
X2345600Y-2186959D01*
X2351601Y-2180958D02*
G01*
X2351601Y-2153699D01*
X2265577Y-2147698D02*
G01*
X2296683Y-2147698D01*
X2296683Y-2186959D02*
G01*
X2265577Y-2186959D01*
X2259576Y-2180958D02*
G01*
X2259576Y-2153699D01*
X840370Y-879987D02*
G01*
X840370Y-911093D01*
X879629Y-911093D02*
G01*
X879629Y-879987D01*
X873630Y-873987D02*
G01*
X846369Y-873987D01*
X840370Y-960012D02*
G01*
X840370Y-928906D01*
X879629Y-928906D02*
G01*
X879629Y-960012D01*
X873630Y-966012D02*
G01*
X846369Y-966012D01*
D12*
X2133980Y-2330432D02*
G01*
X2133980Y-2259566D01*
X2256027Y-2330432D02*
G01*
X2256027Y-2259566D01*
X1624566Y-2383980D02*
G01*
X1695433Y-2383980D01*
X1624566Y-2506028D02*
G01*
X1695433Y-2506028D01*
X1333346Y-2465153D02*
G01*
X1333346Y-2404522D01*
X1206653Y-2466729D02*
G01*
X1206656Y-2403737D01*
X1287047Y-2473029D02*
G01*
X1252251Y-2473029D01*
D15*
X278022Y-715668D02*
G01*
X24247Y-715668D01*
X24247Y-1424331D01*
X278022Y-1424331D01*
X260468Y-1424331D02*
G01*
X260468Y-715668D01*
X801970Y-1424331D02*
G01*
X811649Y-1424331D01*
X742917Y-1424331D02*
G01*
X750464Y-1424331D01*
X683861Y-1424331D02*
G01*
X691408Y-1424331D01*
X624807Y-1424331D02*
G01*
X632354Y-1424331D01*
X565749Y-1424331D02*
G01*
X573297Y-1424331D01*
X506694Y-1424331D02*
G01*
X514243Y-1424331D01*
X447642Y-1424331D02*
G01*
X455187Y-1424331D01*
X388586Y-1424331D02*
G01*
X396132Y-1424331D01*
X329531Y-1424331D02*
G01*
X337078Y-1424331D01*
X337078Y-715668D02*
G01*
X329531Y-715668D01*
X396132Y-715668D02*
G01*
X388586Y-715668D01*
X455187Y-715668D02*
G01*
X447642Y-715668D01*
X514243Y-715668D02*
G01*
X506694Y-715668D01*
X573297Y-715668D02*
G01*
X565749Y-715668D01*
X632354Y-715668D02*
G01*
X624807Y-715668D01*
X691408Y-715668D02*
G01*
X683861Y-715668D01*
X750464Y-715668D02*
G01*
X742917Y-715668D01*
X811649Y-1424331D02*
G01*
X811649Y-715668D01*
X801970Y-715668D01*
D12*
X2022597Y-1940318D02*
G01*
X2022205Y-1882046D01*
X2097007Y-1934803D02*
G01*
X2097007Y-1882046D01*
X2022205Y-1882046D02*
G01*
X2097008Y-1882046D01*
X2097402Y-2028901D02*
G01*
X2097399Y-2028901D01*
X2083622Y-2042678D01*
X2022597Y-2028901D02*
G01*
X2022600Y-2028901D01*
X2036377Y-2042678D01*
X2022597Y-1979688D02*
G01*
X2022597Y-2028901D01*
X2097402Y-1979688D02*
G01*
X2097402Y-2028901D01*
X2036377Y-2042678D02*
G01*
X2083622Y-2042678D01*
X2040315Y-1948189D02*
G01*
X2079684Y-1948189D01*
X2060199Y-1948189D02*
G01*
X2060199Y-1967874D01*
X1362402Y-2129681D02*
G01*
X1362794Y-2187953D01*
X1287992Y-2135196D02*
G01*
X1287992Y-2187953D01*
X1362794Y-2187953D02*
G01*
X1287991Y-2187953D01*
X1287597Y-2041098D02*
G01*
X1287600Y-2041098D01*
X1301377Y-2027321D01*
X1362402Y-2041098D02*
G01*
X1362399Y-2041098D01*
X1348622Y-2027321D01*
X1362402Y-2090311D02*
G01*
X1362402Y-2041098D01*
X1287597Y-2090311D02*
G01*
X1287597Y-2041098D01*
X1348622Y-2027321D02*
G01*
X1301377Y-2027321D01*
X1344684Y-2121810D02*
G01*
X1305315Y-2121810D01*
X1324800Y-2121810D02*
G01*
X1324800Y-2102125D01*
D15*
X1488750Y-775664D02*
G01*
X1514340Y-775664D01*
X1514340Y-801253D01*
X1488750Y-984324D02*
G01*
X1514340Y-984324D01*
X1514340Y-958733D01*
X1305680Y-958733D02*
G01*
X1305680Y-984324D01*
X1331270Y-984324D01*
X1331270Y-775664D02*
G01*
X1305680Y-775664D01*
X1305680Y-801253D01*
D11*
X2354245Y-2208422D02*
G01*
X2458669Y-2208422D01*
X2458669Y-2253652D01*
X2354245Y-2391586D02*
G01*
X2458669Y-2391586D01*
X2458669Y-2346358D01*
D12*
X1247250Y-176653D02*
G01*
X1247250Y-252550D01*
X1607250Y-91127D02*
G01*
X1607250Y-27750D01*
X1247250Y-27750D01*
X1247250Y-91127D01*
X1607250Y-252541D02*
G01*
X1607250Y-176653D01*
D10*
X2268145Y-1876999D02*
G01*
X2433500Y-1876999D01*
X2268145Y-2042354D02*
G01*
X2433500Y-2042354D01*
D12*
X959997Y-420000D02*
G01*
X941256Y-420000D01*
X941256Y-590000D01*
X959997Y-590000D01*
X1079997Y-420000D02*
G01*
X1098737Y-420000D01*
X1098737Y-590000D01*
X1079997Y-590000D01*
D14*
X999997Y-505000D02*
G01*
X1039997Y-505000D01*
X1039997Y-530000D02*
G01*
X999997Y-530000D01*
X1019997Y-510000D01*
X1039997Y-530000D01*
X999997Y-480000D02*
G01*
X1039997Y-480000D01*
X1019997Y-500000D01*
X999997Y-480000D01*
D11*
X1784047Y-1508132D02*
G01*
X2045952Y-1508132D01*
X2045952Y-1623991D01*
X1784047Y-1623991D01*
X1784047Y-1508132D01*
X1984629Y-1830012D02*
G01*
X1984629Y-1798906D01*
X1945370Y-1798906D02*
G01*
X1945370Y-1830012D01*
X1951369Y-1836012D02*
G01*
X1978630Y-1836012D01*
X1984629Y-1749987D02*
G01*
X1984629Y-1781093D01*
X1945370Y-1781093D02*
G01*
X1945370Y-1749987D01*
X1951369Y-1743987D02*
G01*
X1978630Y-1743987D01*
X2039629Y-1830012D02*
G01*
X2039629Y-1798906D01*
X2000370Y-1798906D02*
G01*
X2000370Y-1830012D01*
X2006369Y-1836012D02*
G01*
X2033630Y-1836012D01*
X2039629Y-1749987D02*
G01*
X2039629Y-1781093D01*
X2000370Y-1781093D02*
G01*
X2000370Y-1749987D01*
X2006369Y-1743987D02*
G01*
X2033630Y-1743987D01*
X2094629Y-1730012D02*
G01*
X2094629Y-1698906D01*
X2055370Y-1698906D02*
G01*
X2055370Y-1730012D01*
X2061369Y-1736012D02*
G01*
X2088630Y-1736012D01*
X2094629Y-1649987D02*
G01*
X2094629Y-1681093D01*
X2055370Y-1681093D02*
G01*
X2055370Y-1649987D01*
X2061369Y-1643987D02*
G01*
X2088630Y-1643987D01*
X2144629Y-1730012D02*
G01*
X2144629Y-1698906D01*
X2105370Y-1698906D02*
G01*
X2105370Y-1730012D01*
X2111369Y-1736012D02*
G01*
X2138630Y-1736012D01*
X2144629Y-1649987D02*
G01*
X2144629Y-1681093D01*
X2105370Y-1681093D02*
G01*
X2105370Y-1649987D01*
X2111369Y-1643987D02*
G01*
X2138630Y-1643987D01*
D12*
X998109Y-2008355D02*
G01*
X998109Y-2140770D01*
X761890Y-2009229D02*
G01*
X761890Y-2141644D01*
D11*
G75*
G01*
X1712826Y-186444D02*
G03*
X1706826Y-180444I-6000J0D01*
G75*
G01*
X1647676Y-180444D02*
G03*
X1641676Y-186444I0J-6000D01*
G75*
G01*
X1712826Y-329058D02*
G02*
X1706826Y-335058I-6000J0D01*
G75*
G01*
X1647676Y-335058D02*
G02*
X1641676Y-329058I0J6000D01*
G75*
G01*
X1197826Y-186444D02*
G03*
X1191826Y-180444I-6000J0D01*
G75*
G01*
X1132676Y-180444D02*
G03*
X1126676Y-186444I0J-6000D01*
G75*
G01*
X1197826Y-329058D02*
G02*
X1191826Y-335058I-6000J0D01*
G75*
G01*
X1132676Y-335058D02*
G02*
X1126676Y-329058I0J6000D01*
G75*
G01*
X578693Y-1779425D02*
G03*
X572693Y-1785425I0J-6000D01*
G75*
G01*
X572693Y-1844575D02*
G03*
X578693Y-1850575I6000J0D01*
G75*
G01*
X721307Y-1779425D02*
G02*
X727307Y-1785425I0J-6000D01*
G75*
G01*
X727307Y-1844575D02*
G02*
X721307Y-1850575I-6000J0D01*
G75*
G01*
X1435575Y-2363693D02*
G03*
X1429575Y-2357693I-6000J0D01*
G75*
G01*
X1370425Y-2357693D02*
G03*
X1364425Y-2363693I0J-6000D01*
G75*
G01*
X1435575Y-2506307D02*
G02*
X1429575Y-2512307I-6000J0D01*
G75*
G01*
X1370425Y-2512307D02*
G02*
X1364425Y-2506307I0J6000D01*
G75*
G01*
X1384425Y-1331307D02*
G03*
X1390425Y-1337307I6000J0D01*
G75*
G01*
X1449575Y-1337307D02*
G03*
X1455575Y-1331307I0J6000D01*
G75*
G01*
X1384425Y-1188693D02*
G02*
X1390425Y-1182693I6000J0D01*
G75*
G01*
X1449575Y-1182693D02*
G02*
X1455575Y-1188693I0J-6000D01*
G75*
G01*
X1299425Y-1326307D02*
G03*
X1305425Y-1332307I6000J0D01*
G75*
G01*
X1364575Y-1332307D02*
G03*
X1370575Y-1326307I0J6000D01*
G75*
G01*
X1299425Y-1183693D02*
G02*
X1305425Y-1177693I6000J0D01*
G75*
G01*
X1364575Y-1177693D02*
G02*
X1370575Y-1183693I0J-6000D01*
G75*
G01*
X1533693Y-1599425D02*
G03*
X1527693Y-1605425I0J-6000D01*
G75*
G01*
X1527693Y-1664575D02*
G03*
X1533693Y-1670575I6000J0D01*
G75*
G01*
X1676307Y-1599425D02*
G02*
X1682307Y-1605425I0J-6000D01*
G75*
G01*
X1682307Y-1664575D02*
G02*
X1676307Y-1670575I-6000J0D01*
G75*
G01*
X1533693Y-1504425D02*
G03*
X1527693Y-1510425I0J-6000D01*
G75*
G01*
X1527693Y-1569575D02*
G03*
X1533693Y-1575575I6000J0D01*
G75*
G01*
X1676307Y-1504425D02*
G02*
X1682307Y-1510425I0J-6000D01*
G75*
G01*
X1682307Y-1569575D02*
G02*
X1676307Y-1575575I-6000J0D01*
G75*
G01*
X583693Y-2384425D02*
G03*
X577693Y-2390425I0J-6000D01*
G75*
G01*
X577693Y-2449575D02*
G03*
X583693Y-2455575I6000J0D01*
G75*
G01*
X726307Y-2384425D02*
G02*
X732307Y-2390425I0J-6000D01*
G75*
G01*
X732307Y-2449575D02*
G02*
X726307Y-2455575I-6000J0D01*
G75*
G01*
X583693Y-2294425D02*
G03*
X577693Y-2300425I0J-6000D01*
G75*
G01*
X577693Y-2359575D02*
G03*
X583693Y-2365575I6000J0D01*
G75*
G01*
X726307Y-2294425D02*
G02*
X732307Y-2300425I0J-6000D01*
G75*
G01*
X732307Y-2359575D02*
G02*
X726307Y-2365575I-6000J0D01*
G75*
G01*
X583693Y-2194425D02*
G03*
X577693Y-2200425I0J-6000D01*
G75*
G01*
X577693Y-2259575D02*
G03*
X583693Y-2265575I6000J0D01*
G75*
G01*
X726307Y-2194425D02*
G02*
X732307Y-2200425I0J-6000D01*
G75*
G01*
X732307Y-2259575D02*
G02*
X726307Y-2265575I-6000J0D01*
G75*
G01*
X559425Y-2171307D02*
G03*
X565425Y-2177307I6000J0D01*
G75*
G01*
X624575Y-2177307D02*
G03*
X630575Y-2171307I0J6000D01*
G75*
G01*
X559425Y-2028693D02*
G02*
X565425Y-2022693I6000J0D01*
G75*
G01*
X624575Y-2022693D02*
G02*
X630575Y-2028693I0J-6000D01*
D12*
G75*
G01*
X2732362Y-2137762D02*
G03*
X2527622Y-2141334I-102365J-2080D01*
D11*
G75*
G01*
X2114630Y-2249988D02*
G03*
X2108630Y-2243988I-6000J0D01*
G75*
G01*
X2081370Y-2243988D02*
G03*
X2075370Y-2249988I0J-6000D01*
G75*
G01*
X2114630Y-2330012D02*
G02*
X2108630Y-2336012I-6000J0D01*
G75*
G01*
X2081370Y-2336012D02*
G02*
X2075370Y-2330012I0J6000D01*
G75*
G01*
X540012Y-1574630D02*
G03*
X546012Y-1568630I0J6000D01*
G75*
G01*
X546012Y-1541370D02*
G03*
X540012Y-1535370I-6000J0D01*
G75*
G01*
X459988Y-1574630D02*
G02*
X453988Y-1568630I0J6000D01*
G75*
G01*
X453988Y-1541370D02*
G02*
X459988Y-1535370I6000J0D01*
G75*
G01*
X540012Y-1634630D02*
G03*
X546012Y-1628630I0J6000D01*
G75*
G01*
X546012Y-1601370D02*
G03*
X540012Y-1595370I-6000J0D01*
G75*
G01*
X459988Y-1634630D02*
G02*
X453988Y-1628630I0J6000D01*
G75*
G01*
X453988Y-1601370D02*
G02*
X459988Y-1595370I6000J0D01*
G75*
G01*
X2159988Y-2090370D02*
G03*
X2153988Y-2096370I0J-6000D01*
G75*
G01*
X2153988Y-2123630D02*
G03*
X2159988Y-2129630I6000J0D01*
G75*
G01*
X2240012Y-2090370D02*
G02*
X2246012Y-2096370I0J-6000D01*
G75*
G01*
X2246012Y-2123630D02*
G02*
X2240012Y-2129630I-6000J0D01*
G75*
G01*
X2160577Y-2148471D02*
G03*
X2154577Y-2154471I0J-6000D01*
G75*
G01*
X2154577Y-2181731D02*
G03*
X2160577Y-2187731I6000J0D01*
G75*
G01*
X2240601Y-2148471D02*
G02*
X2246601Y-2154471I0J-6000D01*
G75*
G01*
X2246601Y-2181731D02*
G02*
X2240601Y-2187731I-6000J0D01*
G75*
G01*
X60370Y-1550012D02*
G03*
X66370Y-1556012I6000J0D01*
G75*
G01*
X93630Y-1556012D02*
G03*
X99630Y-1550012I0J6000D01*
G75*
G01*
X60370Y-1469988D02*
G02*
X66370Y-1463988I6000J0D01*
G75*
G01*
X93630Y-1463988D02*
G02*
X99630Y-1469988I0J-6000D01*
G75*
G01*
X2094630Y-2144988D02*
G03*
X2088630Y-2138988I-6000J0D01*
G75*
G01*
X2061370Y-2138988D02*
G03*
X2055370Y-2144988I0J-6000D01*
G75*
G01*
X2094630Y-2225012D02*
G02*
X2088630Y-2231012I-6000J0D01*
G75*
G01*
X2061370Y-2231012D02*
G02*
X2055370Y-2225012I0J6000D01*
G75*
G01*
X2044630Y-2144988D02*
G03*
X2038630Y-2138988I-6000J0D01*
G75*
G01*
X2011370Y-2138988D02*
G03*
X2005370Y-2144988I0J-6000D01*
G75*
G01*
X2044630Y-2225012D02*
G02*
X2038630Y-2231012I-6000J0D01*
G75*
G01*
X2011370Y-2231012D02*
G02*
X2005370Y-2225012I0J6000D01*
G75*
G01*
X400370Y-1615012D02*
G03*
X406370Y-1621012I6000J0D01*
G75*
G01*
X433630Y-1621012D02*
G03*
X439630Y-1615012I0J6000D01*
G75*
G01*
X400370Y-1534988D02*
G02*
X406370Y-1528988I6000J0D01*
G75*
G01*
X433630Y-1528988D02*
G02*
X439630Y-1534988I0J-6000D01*
G75*
G01*
X205012Y-2459630D02*
G03*
X211012Y-2453630I0J6000D01*
G75*
G01*
X211012Y-2426370D02*
G03*
X205012Y-2420370I-6000J0D01*
G75*
G01*
X124988Y-2459630D02*
G02*
X118988Y-2453630I0J6000D01*
G75*
G01*
X118988Y-2426370D02*
G02*
X124988Y-2420370I6000J0D01*
G75*
G01*
X1705012Y-2144630D02*
G03*
X1711012Y-2138630I0J6000D01*
G75*
G01*
X1711012Y-2111370D02*
G03*
X1705012Y-2105370I-6000J0D01*
G75*
G01*
X1624988Y-2144630D02*
G02*
X1618988Y-2138630I0J6000D01*
G75*
G01*
X1618988Y-2111370D02*
G02*
X1624988Y-2105370I6000J0D01*
G75*
G01*
X1104630Y-884988D02*
G03*
X1098630Y-878988I-6000J0D01*
G75*
G01*
X1071370Y-878988D02*
G03*
X1065370Y-884988I0J-6000D01*
G75*
G01*
X1104630Y-965012D02*
G02*
X1098630Y-971012I-6000J0D01*
G75*
G01*
X1071370Y-971012D02*
G02*
X1065370Y-965012I0J6000D01*
G75*
G01*
X1780370Y-2230012D02*
G03*
X1786370Y-2236012I6000J0D01*
G75*
G01*
X1813630Y-2236012D02*
G03*
X1819630Y-2230012I0J6000D01*
G75*
G01*
X1780370Y-2149988D02*
G02*
X1786370Y-2143988I6000J0D01*
G75*
G01*
X1813630Y-2143988D02*
G02*
X1819630Y-2149988I0J-6000D01*
G75*
G01*
X1835370Y-2225012D02*
G03*
X1841370Y-2231012I6000J0D01*
G75*
G01*
X1868630Y-2231012D02*
G03*
X1874630Y-2225012I0J6000D01*
G75*
G01*
X1835370Y-2144988D02*
G02*
X1841370Y-2138988I6000J0D01*
G75*
G01*
X1868630Y-2138988D02*
G02*
X1874630Y-2144988I0J-6000D01*
G75*
G01*
X1874630Y-2334988D02*
G03*
X1868630Y-2328988I-6000J0D01*
G75*
G01*
X1841370Y-2328988D02*
G03*
X1835370Y-2334988I0J-6000D01*
G75*
G01*
X1874630Y-2415012D02*
G02*
X1868630Y-2421012I-6000J0D01*
G75*
G01*
X1841370Y-2421012D02*
G02*
X1835370Y-2415012I0J6000D01*
G75*
G01*
X1799630Y-2334988D02*
G03*
X1793630Y-2328988I-6000J0D01*
G75*
G01*
X1766370Y-2328988D02*
G03*
X1760370Y-2334988I0J-6000D01*
G75*
G01*
X1799630Y-2415012D02*
G02*
X1793630Y-2421012I-6000J0D01*
G75*
G01*
X1766370Y-2421012D02*
G02*
X1760370Y-2415012I0J6000D01*
G75*
G01*
X2369988Y-2090370D02*
G03*
X2363988Y-2096370I0J-6000D01*
G75*
G01*
X2363988Y-2123630D02*
G03*
X2369988Y-2129630I6000J0D01*
G75*
G01*
X2450012Y-2090370D02*
G02*
X2456012Y-2096370I0J-6000D01*
G75*
G01*
X2456012Y-2123630D02*
G02*
X2450012Y-2129630I-6000J0D01*
G75*
G01*
X2370577Y-2148471D02*
G03*
X2364577Y-2154471I0J-6000D01*
G75*
G01*
X2364577Y-2181731D02*
G03*
X2370577Y-2187731I6000J0D01*
G75*
G01*
X2450601Y-2148471D02*
G02*
X2456601Y-2154471I0J-6000D01*
G75*
G01*
X2456601Y-2181731D02*
G02*
X2450601Y-2187731I-6000J0D01*
G75*
G01*
X2345012Y-2129630D02*
G03*
X2351012Y-2123630I0J6000D01*
G75*
G01*
X2351012Y-2096370D02*
G03*
X2345012Y-2090370I-6000J0D01*
G75*
G01*
X2264988Y-2129630D02*
G02*
X2258988Y-2123630I0J6000D01*
G75*
G01*
X2258988Y-2096370D02*
G02*
X2264988Y-2090370I6000J0D01*
G75*
G01*
X2345601Y-2186959D02*
G03*
X2351601Y-2180959I0J6000D01*
G75*
G01*
X2351601Y-2153699D02*
G03*
X2345601Y-2147699I-6000J0D01*
G75*
G01*
X2265577Y-2186959D02*
G02*
X2259577Y-2180959I0J6000D01*
G75*
G01*
X2259577Y-2153699D02*
G02*
X2265577Y-2147699I6000J0D01*
G75*
G01*
X879630Y-879988D02*
G03*
X873630Y-873988I-6000J0D01*
G75*
G01*
X846370Y-873988D02*
G03*
X840370Y-879988I0J-6000D01*
G75*
G01*
X879630Y-960012D02*
G02*
X873630Y-966012I-6000J0D01*
G75*
G01*
X846370Y-966012D02*
G02*
X840370Y-960012I0J6000D01*
D16*
G75*
G01*
X1506510Y-761894D02*
G03*
X1506410Y-761894I-50J5906D01*
D11*
G75*
G01*
X1945370Y-1830012D02*
G03*
X1951370Y-1836012I6000J0D01*
G75*
G01*
X1978630Y-1836012D02*
G03*
X1984630Y-1830012I0J6000D01*
G75*
G01*
X1945370Y-1749988D02*
G02*
X1951370Y-1743988I6000J0D01*
G75*
G01*
X1978630Y-1743988D02*
G02*
X1984630Y-1749988I0J-6000D01*
G75*
G01*
X2000370Y-1830012D02*
G03*
X2006370Y-1836012I6000J0D01*
G75*
G01*
X2033630Y-1836012D02*
G03*
X2039630Y-1830012I0J6000D01*
G75*
G01*
X2000370Y-1749988D02*
G02*
X2006370Y-1743988I6000J0D01*
G75*
G01*
X2033630Y-1743988D02*
G02*
X2039630Y-1749988I0J-6000D01*
G75*
G01*
X2055370Y-1730012D02*
G03*
X2061370Y-1736012I6000J0D01*
G75*
G01*
X2088630Y-1736012D02*
G03*
X2094630Y-1730012I0J6000D01*
G75*
G01*
X2055370Y-1649988D02*
G02*
X2061370Y-1643988I6000J0D01*
G75*
G01*
X2088630Y-1643988D02*
G02*
X2094630Y-1649988I0J-6000D01*
G75*
G01*
X2105370Y-1730012D02*
G03*
X2111370Y-1736012I6000J0D01*
G75*
G01*
X2138630Y-1736012D02*
G03*
X2144630Y-1730012I0J6000D01*
G75*
G01*
X2105370Y-1649988D02*
G02*
X2111370Y-1643988I6000J0D01*
G75*
G01*
X2138630Y-1643988D02*
G02*
X2144630Y-1649988I0J-6000D01*
D12*
G75*
G01
X225130Y-1780010D02*
G03X225130Y-1780010I-55120J0D01*
G75*
G01
X262940Y-1858750D02*
G03X262940Y-1858750I-14200J0D01*
G75*
G01
X262940Y-1701270D02*
G03X262940Y-1701270I-14200J0D01*
G75*
G01
X105460Y-1701270D02*
G03X105460Y-1701270I-14200J0D01*
G75*
G01
X105460Y-1858750D02*
G03X105460Y-1858750I-14200J0D01*
G75*
G01
X225120Y-2260010D02*
G03X225120Y-2260010I-55120J0D01*
G75*
G01
X105470Y-2181270D02*
G03X105470Y-2181270I-14200J0D01*
G75*
G01
X105470Y-2338750D02*
G03X105470Y-2338750I-14200J0D01*
G75*
G01
X262950Y-2338750D02*
G03X262950Y-2338750I-14200J0D01*
G75*
G01
X262950Y-2181270D02*
G03X262950Y-2181270I-14200J0D01*
G75*
G01
X2265000Y-2240000D02*
G03X2265000Y-2240000I-5000J0D01*
G75*
G01
X1720000Y-2510000D02*
G03X1720000Y-2510000I-5000J0D01*
G75*
G01
X1335080Y-2377680D02*
G03X1335080Y-2377680I-2520J0D01*
D17*
G75*
G01
X259840Y-1455000D02*
G03X259840Y-1455000I-9840J0D01*
M02*
