G04 Layer: TopSolderMaskLayer*
G04 EasyEDA v6.5.51, 2025-09-17 03:18:51*
G04 4aee9cc30035422d88a860af958d7afb,d57bd40a603b42be9e37e0d49851eb9c,10*
G04 Gerber Generator version 0.2*
G04 Scale: 100 percent, Rotated: No, Reflected: No *
G04 Dimensions in inches *
G04 leading zeros omitted , absolute positions ,3 integer and 6 decimal *
%FSLAX36Y36*%
%MOIN*%

%AMMACRO1*4,1,8,-0.0343,-0.0355,-0.0355,-0.0343,-0.0355,0.0343,-0.0343,0.0355,0.0343,0.0355,0.0355,0.0343,0.0355,-0.0343,0.0343,-0.0355,-0.0343,-0.0355,0*%
%AMMACRO2*4,1,8,-0.0205,-0.0374,-0.0217,-0.0363,-0.0217,0.0363,-0.0205,0.0374,0.0205,0.0374,0.0217,0.0363,0.0217,-0.0363,0.0205,-0.0374,-0.0205,-0.0374,0*%
%AMMACRO3*4,1,8,-0.05,-0.061,-0.0512,-0.0599,-0.0512,0.0599,-0.05,0.061,0.05,0.061,0.0512,0.0599,0.0512,-0.0599,0.05,-0.061,-0.05,-0.061,0*%
%AMMACRO4*4,1,8,-0.0274,-0.0298,-0.0286,-0.0286,-0.0286,0.0286,-0.0274,0.0298,0.0274,0.0298,0.0286,0.0286,0.0286,-0.0286,0.0274,-0.0298,-0.0274,-0.0298,0*%
%AMMACRO5*4,1,8,-0.0286,-0.0286,-0.0298,-0.0274,-0.0298,0.0274,-0.0286,0.0286,0.0286,0.0286,0.0298,0.0274,0.0298,-0.0274,0.0286,-0.0286,-0.0286,-0.0286,0*%
%AMMACRO6*4,1,8,-0.0205,-0.0168,-0.0217,-0.0156,-0.0217,0.0156,-0.0205,0.0168,0.0205,0.0168,0.0217,0.0156,0.0217,-0.0156,0.0205,-0.0168,-0.0205,-0.0168,0*%
%AMMACRO7*4,1,8,-0.0548,-0.0445,-0.056,-0.0433,-0.056,0.0433,-0.0548,0.0445,0.0548,0.0445,0.056,0.0433,0.056,-0.0433,0.0548,-0.0445,-0.0548,-0.0445,0*%
%AMMACRO8*4,1,8,-0.0737,-0.0276,-0.0748,-0.0264,-0.0748,0.0264,-0.0737,0.0276,0.0737,0.0276,0.0748,0.0264,0.0748,-0.0264,0.0737,-0.0276,-0.0737,-0.0276,0*%
%AMMACRO9*4,1,8,-0.0363,-0.0374,-0.0374,-0.0363,-0.0374,0.0363,-0.0363,0.0374,0.0363,0.0374,0.0374,0.0363,0.0374,-0.0363,0.0363,-0.0374,-0.0363,-0.0374,0*%
%AMMACRO10*4,1,8,-0.0146,-0.0266,-0.0158,-0.0254,-0.0158,0.0254,-0.0146,0.0266,0.0146,0.0266,0.0158,0.0254,0.0158,-0.0254,0.0146,-0.0266,-0.0146,-0.0266,0*%
%AMMACRO11*4,1,8,-0.0254,-0.0158,-0.0266,-0.0146,-0.0266,0.0146,-0.0254,0.0158,0.0254,0.0158,0.0266,0.0146,0.0266,-0.0146,0.0254,-0.0158,-0.0254,-0.0158,0*%
%AMMACRO12*4,1,8,-0.0279,-0.0243,-0.0291,-0.0231,-0.0291,0.0231,-0.0279,0.0243,0.0279,0.0243,0.0291,0.0231,0.0291,-0.0231,0.0279,-0.0243,-0.0279,-0.0243,0*%
%AMMACRO13*4,1,8,-0.0231,-0.0291,-0.0243,-0.0279,-0.0243,0.0279,-0.0231,0.0291,0.0231,0.0291,0.0243,0.0279,0.0243,-0.0279,0.0231,-0.0291,-0.0231,-0.0291,0*%
%AMMACRO14*4,1,8,-0.0244,-0.0445,-0.0256,-0.0433,-0.0256,0.0433,-0.0244,0.0445,0.0244,0.0445,0.0256,0.0433,0.0256,-0.0433,0.0244,-0.0445,-0.0244,-0.0445,0*%
%AMMACRO15*4,1,8,-0.0115,-0.0176,-0.0126,-0.0164,-0.0126,0.0164,-0.0115,0.0176,0.0115,0.0176,0.0126,0.0164,0.0126,-0.0164,0.0115,-0.0176,-0.0115,-0.0176,0*%
%AMMACRO16*4,1,8,-0.0164,-0.0126,-0.0176,-0.0115,-0.0176,0.0115,-0.0164,0.0126,0.0164,0.0126,0.0176,0.0115,0.0176,-0.0115,0.0164,-0.0126,-0.0164,-0.0126,0*%
%AMMACRO17*4,1,8,-0.0126,-0.0237,-0.0138,-0.0225,-0.0138,0.0225,-0.0126,0.0237,0.0126,0.0237,0.0138,0.0225,0.0138,-0.0225,0.0126,-0.0237,-0.0126,-0.0237,0*%
%AMMACRO18*4,1,8,-0.0225,-0.0138,-0.0237,-0.0126,-0.0237,0.0126,-0.0225,0.0138,0.0225,0.0138,0.0237,0.0126,0.0237,-0.0126,0.0225,-0.0138,-0.0225,-0.0138,0*%
%AMMACRO19*4,1,8,-0.0146,-0.0237,-0.0158,-0.0225,-0.0158,0.0225,-0.0146,0.0237,0.0146,0.0237,0.0158,0.0225,0.0158,-0.0225,0.0146,-0.0237,-0.0146,-0.0237,0*%
%AMMACRO20*4,1,8,-0.0205,-0.0413,-0.0217,-0.0402,-0.0217,0.0402,-0.0205,0.0413,0.0205,0.0413,0.0217,0.0402,0.0217,-0.0402,0.0205,-0.0413,-0.0205,-0.0413,0*%
%AMMACRO21*4,1,8,-0.0146,-0.0157,-0.0157,-0.0146,-0.0157,0.0146,-0.0146,0.0157,0.0146,0.0157,0.0157,0.0146,0.0157,-0.0146,0.0146,-0.0157,-0.0146,-0.0157,0*%
%AMMACRO22*4,1,8,-0.0254,-0.0217,-0.0266,-0.0205,-0.0266,0.0205,-0.0254,0.0217,0.0254,0.0217,0.0266,0.0205,0.0266,-0.0205,0.0254,-0.0217,-0.0254,-0.0217,0*%
%AMMACRO23*4,1,8,-0.0126,-0.0453,-0.0138,-0.0441,-0.0138,0.0441,-0.0126,0.0453,0.0126,0.0453,0.0138,0.0441,0.0138,-0.0441,0.0126,-0.0453,-0.0126,-0.0453,0*%
%AMMACRO24*4,1,8,-0.0628,-0.064,-0.064,-0.0628,-0.064,0.0628,-0.0628,0.064,0.0628,0.064,0.064,0.0628,0.064,-0.0628,0.0628,-0.064,-0.0628,-0.064,0*%
%AMMACRO25*4,1,8,-0.0318,-0.0152,-0.033,-0.0141,-0.033,0.0141,-0.0318,0.0152,0.0318,0.0152,0.033,0.0141,0.033,-0.0141,0.0318,-0.0152,-0.0318,-0.0152,0*%
%AMMACRO26*4,1,8,-0.0107,-0.0244,-0.0118,-0.0233,-0.0118,0.0233,-0.0107,0.0244,0.0107,0.0244,0.0118,0.0233,0.0118,-0.0233,0.0107,-0.0244,-0.0107,-0.0244,0*%
%AMMACRO27*4,1,8,-0.0067,-0.0244,-0.0079,-0.0233,-0.0079,0.0233,-0.0067,0.0244,0.0067,0.0244,0.0079,0.0233,0.0079,-0.0233,0.0067,-0.0244,-0.0067,-0.0244,0*%
%AMMACRO28*4,1,8,-0.0264,-0.0748,-0.0276,-0.0737,-0.0276,0.0737,-0.0264,0.0748,0.0264,0.0748,0.0276,0.0737,0.0276,-0.0737,0.0264,-0.0748,-0.0264,-0.0748,0*%
%AMMACRO29*4,1,8,-0.0225,-0.0512,-0.0237,-0.05,-0.0237,0.05,-0.0225,0.0512,0.0225,0.0512,0.0237,0.05,0.0237,-0.05,0.0225,-0.0512,-0.0225,-0.0512,0*%
%AMMACRO30*4,1,8,-0.0717,-0.0481,-0.0729,-0.0469,-0.0729,0.0469,-0.0717,0.0481,0.0717,0.0481,0.0729,0.0469,0.0729,-0.0469,0.0717,-0.0481,-0.0717,-0.0481,0*%
%AMMACRO31*4,1,8,-0.113,-0.0512,-0.1142,-0.05,-0.1142,0.05,-0.113,0.0512,0.113,0.0512,0.1142,0.05,0.1142,-0.05,0.113,-0.0512,-0.113,-0.0512,0*%
%ADD10C,0.0709*%
%ADD11MACRO1*%
%ADD12MACRO2*%
%ADD13MACRO3*%
%ADD14C,0.3976*%
%ADD15MACRO4*%
%ADD16MACRO5*%
%ADD17C,0.1024*%
%ADD18MACRO6*%
%ADD19C,0.0155*%
%ADD20MACRO7*%
%ADD21MACRO8*%
%ADD22C,0.0670*%
%ADD23MACRO9*%
%ADD24MACRO10*%
%ADD25MACRO11*%
%ADD26MACRO12*%
%ADD27MACRO13*%
%ADD28MACRO14*%
%ADD29MACRO15*%
%ADD30MACRO16*%
%ADD31MACRO17*%
%ADD32MACRO18*%
%ADD33MACRO19*%
%ADD34MACRO20*%
%ADD35MACRO21*%
%ADD36MACRO22*%
%ADD37MACRO23*%
%ADD38O,0.015024X0.041402*%
%ADD39O,0.041402X0.015024*%
%ADD40MACRO24*%
%ADD41MACRO25*%
%ADD42MACRO26*%
%ADD43MACRO27*%
%ADD44O,0.04337X0.08274*%
%ADD45O,0.04337X0.074866*%
%ADD46MACRO28*%
%ADD47MACRO29*%
%ADD48MACRO30*%
%ADD49MACRO31*%

%LPD*%
D10*
G01*
X1470000Y-1890000D03*
G01*
X1470000Y-1990000D03*
G01*
X1570000Y-1890000D03*
G01*
X1570000Y-1990000D03*
G01*
X1670000Y-1890000D03*
D11*
G01*
X1670000Y-1990000D03*
D12*
G01*
X258583Y-1606776D03*
G01*
X81416Y-1606776D03*
G01*
X258583Y-1953233D03*
G01*
X81416Y-1953233D03*
G01*
X81416Y-2433233D03*
G01*
X258583Y-2433233D03*
G01*
X81416Y-2086776D03*
G01*
X258583Y-2086776D03*
D13*
G01*
X2464059Y-602558D03*
D14*
G01*
X2385010Y-1075000D03*
D13*
G01*
X2345950Y-602558D03*
G01*
X2345950Y-1547441D03*
G01*
X2464059Y-1547441D03*
D15*
G01*
X1677250Y-218379D03*
G01*
X1677250Y-297122D03*
G01*
X1162250Y-218379D03*
G01*
X1162250Y-297122D03*
D16*
G01*
X610629Y-1815000D03*
G01*
X689370Y-1815000D03*
D15*
G01*
X1400000Y-2395629D03*
G01*
X1400000Y-2474370D03*
G01*
X1420000Y-1299370D03*
G01*
X1420000Y-1220629D03*
G01*
X1335000Y-1294370D03*
G01*
X1335000Y-1215629D03*
D16*
G01*
X1565628Y-1635000D03*
G01*
X1644371Y-1635000D03*
G01*
X1565628Y-1540000D03*
G01*
X1644371Y-1540000D03*
G01*
X615629Y-2420000D03*
G01*
X694370Y-2420000D03*
G01*
X615629Y-2330000D03*
G01*
X694370Y-2330000D03*
G01*
X615629Y-2230000D03*
G01*
X694370Y-2230000D03*
D15*
G01*
X595000Y-2139370D03*
G01*
X595000Y-2060629D03*
D17*
G01*
X2630000Y-2141579D03*
G01*
X2630000Y-2338429D03*
D18*
G01*
X876163Y-1815000D03*
G01*
X783838Y-1815000D03*
G01*
X1188414Y-117751D03*
G01*
X1096089Y-117751D03*
D20*
G01*
X1500003Y-472999D03*
G01*
X1500003Y-647000D03*
G01*
X1310003Y-472999D03*
G01*
X1310003Y-647000D03*
D21*
G01*
X1845000Y-2482007D03*
G01*
X1845000Y-2607992D03*
D22*
G01*
X895000Y-75000D03*
G01*
X795000Y-75000D03*
G01*
X695000Y-75000D03*
G01*
X595000Y-75000D03*
G01*
X495000Y-75000D03*
D23*
G01*
X395000Y-75000D03*
D24*
G01*
X352599Y-2024370D03*
G01*
X427399Y-2024370D03*
G01*
X389999Y-1945629D03*
D25*
G01*
X424370Y-2322400D03*
G01*
X424370Y-2247600D03*
G01*
X345629Y-2285000D03*
D26*
G01*
X820000Y-1634371D03*
G01*
X820000Y-1555628D03*
G01*
X640000Y-1555628D03*
G01*
X640000Y-1634371D03*
D27*
G01*
X355628Y-2130000D03*
G01*
X434371Y-2130000D03*
D26*
G01*
X1225000Y-2235628D03*
G01*
X1225000Y-2314371D03*
D27*
G01*
X2084372Y-2480000D03*
G01*
X2005627Y-2480000D03*
D26*
G01*
X350000Y-1525628D03*
G01*
X350000Y-1604371D03*
D27*
G01*
X429371Y-2430000D03*
G01*
X350628Y-2430000D03*
D26*
G01*
X2155000Y-2004371D03*
G01*
X2155000Y-1925628D03*
G01*
X1325000Y-2314371D03*
G01*
X1325000Y-2235628D03*
G01*
X600000Y-560628D03*
G01*
X600000Y-639371D03*
D27*
G01*
X2279372Y-2430000D03*
G01*
X2200627Y-2430000D03*
D26*
G01*
X695000Y-560628D03*
G01*
X695000Y-639371D03*
D27*
G01*
X2084372Y-2395000D03*
G01*
X2005627Y-2395000D03*
D26*
G01*
X1072251Y-218378D03*
G01*
X1072251Y-297123D03*
G01*
X1767251Y-297123D03*
G01*
X1767251Y-218378D03*
D27*
G01*
X414371Y-630000D03*
G01*
X335628Y-630000D03*
D26*
G01*
X905000Y-1555628D03*
G01*
X905000Y-1634371D03*
G01*
X730000Y-1634371D03*
G01*
X730000Y-1555628D03*
G01*
X995000Y-1555628D03*
G01*
X995000Y-1634371D03*
D27*
G01*
X1659372Y-825000D03*
G01*
X1580627Y-825000D03*
G01*
X1659372Y-920000D03*
G01*
X1580627Y-920000D03*
D26*
G01*
X1365000Y-1934371D03*
G01*
X1365000Y-1855628D03*
G01*
X1250000Y-809371D03*
G01*
X1250000Y-730628D03*
G01*
X1225000Y-2070628D03*
G01*
X1225000Y-2149371D03*
D27*
G01*
X1445627Y-2245000D03*
G01*
X1524372Y-2245000D03*
D26*
G01*
X1160000Y-739371D03*
G01*
X1160000Y-660628D03*
D27*
G01*
X1524372Y-2160000D03*
G01*
X1445627Y-2160000D03*
D26*
G01*
X940000Y-954371D03*
G01*
X940000Y-875628D03*
D27*
G01*
X504371Y-2635000D03*
G01*
X425628Y-2635000D03*
D26*
G01*
X1030000Y-875628D03*
G01*
X1030000Y-954371D03*
D27*
G01*
X780627Y-2330000D03*
G01*
X859372Y-2330000D03*
G01*
X780627Y-2420000D03*
G01*
X859372Y-2420000D03*
D26*
G01*
X685000Y-2060628D03*
G01*
X685000Y-2139371D03*
D27*
G01*
X694371Y-1970000D03*
G01*
X615628Y-1970000D03*
D28*
G01*
X1232000Y-2640000D03*
G01*
X1310999Y-2640000D03*
G01*
X1390000Y-2640000D03*
G01*
X1467999Y-2640000D03*
G01*
X1937000Y-110000D03*
G01*
X2015999Y-110000D03*
G01*
X2095000Y-110000D03*
G01*
X2172999Y-110000D03*
D29*
G01*
X2095000Y-2268541D03*
G01*
X2095000Y-2311459D03*
D30*
G01*
X521458Y-1555000D03*
G01*
X478541Y-1555000D03*
G01*
X521458Y-1615000D03*
G01*
X478541Y-1615000D03*
G01*
X2178541Y-2110000D03*
G01*
X2221459Y-2110000D03*
G01*
X2179130Y-2168100D03*
G01*
X2222048Y-2168100D03*
D29*
G01*
X80000Y-1531458D03*
G01*
X80000Y-1488541D03*
G01*
X2075000Y-2163541D03*
G01*
X2075000Y-2206459D03*
G01*
X2025000Y-2163541D03*
G01*
X2025000Y-2206459D03*
G01*
X420000Y-1596458D03*
G01*
X420000Y-1553541D03*
D30*
G01*
X186458Y-2440000D03*
G01*
X143541Y-2440000D03*
G01*
X1686458Y-2125000D03*
G01*
X1643541Y-2125000D03*
D29*
G01*
X1085000Y-903541D03*
G01*
X1085000Y-946458D03*
G01*
X1800000Y-2211459D03*
G01*
X1800000Y-2168541D03*
G01*
X1855000Y-2206459D03*
G01*
X1855000Y-2163541D03*
G01*
X1855000Y-2353541D03*
G01*
X1855000Y-2396459D03*
G01*
X1780000Y-2353541D03*
G01*
X1780000Y-2396459D03*
D30*
G01*
X2388541Y-2110000D03*
G01*
X2431459Y-2110000D03*
G01*
X2389130Y-2168100D03*
G01*
X2432048Y-2168100D03*
G01*
X2326459Y-2110000D03*
G01*
X2283541Y-2110000D03*
G01*
X2327048Y-2167328D03*
G01*
X2284130Y-2167328D03*
D29*
G01*
X860000Y-898541D03*
G01*
X860000Y-941458D03*
D31*
G01*
X2157599Y-2241847D03*
G01*
X2195000Y-2241847D03*
G01*
X2232400Y-2241847D03*
G01*
X2232400Y-2348151D03*
G01*
X2195000Y-2348151D03*
G01*
X2157599Y-2348151D03*
D32*
G01*
X1713152Y-2407600D03*
G01*
X1713152Y-2445000D03*
G01*
X1713152Y-2482400D03*
G01*
X1606849Y-2482400D03*
G01*
X1606849Y-2445000D03*
G01*
X1606849Y-2407600D03*
D33*
G01*
X1307444Y-2384055D03*
G01*
X1270044Y-2384055D03*
G01*
X1232563Y-2384055D03*
G01*
X1232563Y-2485944D03*
G01*
X1307364Y-2485944D03*
D34*
G01*
X303779Y-1414489D03*
G01*
X362830Y-1414489D03*
G01*
X421890Y-1414489D03*
G01*
X480940Y-1414489D03*
G01*
X540000Y-1414489D03*
G01*
X599049Y-1414489D03*
G01*
X658109Y-1414489D03*
G01*
X717160Y-1414489D03*
G01*
X776220Y-1414489D03*
G01*
X776220Y-725510D03*
G01*
X717160Y-725510D03*
G01*
X658109Y-725510D03*
G01*
X599049Y-725510D03*
G01*
X540000Y-725510D03*
G01*
X480940Y-725510D03*
G01*
X421890Y-725510D03*
G01*
X362830Y-725510D03*
G01*
X303779Y-725510D03*
D35*
G01*
X504564Y-1075511D03*
G01*
X547871Y-1075511D03*
G01*
X591177Y-1075511D03*
G01*
X504564Y-1032204D03*
G01*
X547871Y-1032204D03*
G01*
X591177Y-1032204D03*
G01*
X591177Y-988897D03*
G01*
X547871Y-988897D03*
G01*
X504564Y-988897D03*
D36*
G01*
X2059996Y-1916692D03*
G01*
X2059996Y-2003311D03*
G01*
X1325003Y-2153307D03*
G01*
X1325003Y-2066688D03*
D37*
G01*
X1195000Y-1058999D03*
G01*
X1095000Y-1421000D03*
G01*
X1245000Y-1058999D03*
G01*
X1145000Y-1058999D03*
G01*
X1095000Y-1058999D03*
G01*
X1145000Y-1421000D03*
G01*
X1045000Y-1421000D03*
G01*
X995000Y-1421000D03*
G01*
X995000Y-1058999D03*
G01*
X895000Y-1421000D03*
G01*
X1045000Y-1058999D03*
G01*
X945000Y-1058999D03*
G01*
X945000Y-1421000D03*
G01*
X895000Y-1058999D03*
G01*
X1195000Y-1421000D03*
G01*
X1245000Y-1421000D03*
D38*
G01*
X1469110Y-784529D03*
G01*
X1449399Y-784529D03*
G01*
X1429709Y-784529D03*
G01*
X1410010Y-784529D03*
G01*
X1390309Y-784529D03*
G01*
X1370600Y-784529D03*
G01*
X1350910Y-784529D03*
D39*
G01*
X1314530Y-820900D03*
G01*
X1314530Y-840599D03*
G01*
X1314530Y-860300D03*
G01*
X1314530Y-880000D03*
G01*
X1314530Y-899699D03*
G01*
X1314530Y-919400D03*
G01*
X1314530Y-939099D03*
D38*
G01*
X1350910Y-975479D03*
G01*
X1370600Y-975479D03*
G01*
X1390309Y-975479D03*
G01*
X1410010Y-975479D03*
G01*
X1429709Y-975479D03*
G01*
X1449399Y-975479D03*
G01*
X1469110Y-975479D03*
D39*
G01*
X1505469Y-939099D03*
G01*
X1505469Y-919400D03*
G01*
X1505469Y-899699D03*
G01*
X1505469Y-880000D03*
G01*
X1505469Y-860300D03*
G01*
X1505469Y-840599D03*
G01*
X1505469Y-820900D03*
D40*
G01*
X1410005Y-879994D03*
G36*
X2401890Y-2339717D02*
G01*
X2401844Y-2339717D01*
X2400091Y-2339675D01*
X2400000Y-2339670D01*
X2398251Y-2339548D01*
X2398158Y-2339540D01*
X2396417Y-2339335D01*
X2396325Y-2339322D01*
X2394596Y-2339036D01*
X2394503Y-2339018D01*
X2392789Y-2338649D01*
X2392700Y-2338629D01*
X2391004Y-2338182D01*
X2390915Y-2338155D01*
X2389242Y-2337629D01*
X2389156Y-2337600D01*
X2387510Y-2336995D01*
X2387422Y-2336961D01*
X2385807Y-2336280D01*
X2385724Y-2336244D01*
X2384140Y-2335488D01*
X2384058Y-2335446D01*
X2382512Y-2334618D01*
X2382433Y-2334571D01*
X2380928Y-2333670D01*
X2380850Y-2333622D01*
X2379389Y-2332651D01*
X2379314Y-2332600D01*
X2377899Y-2331563D01*
X2377825Y-2331505D01*
X2376463Y-2330403D01*
X2376391Y-2330344D01*
X2375081Y-2329178D01*
X2375014Y-2329115D01*
X2373760Y-2327890D01*
X2373696Y-2327824D01*
X2372500Y-2326541D01*
X2372438Y-2326473D01*
X2371304Y-2325136D01*
X2371246Y-2325064D01*
X2370176Y-2323674D01*
X2370122Y-2323600D01*
X2369117Y-2322161D01*
X2369066Y-2322085D01*
X2368131Y-2320601D01*
X2368083Y-2320522D01*
X2367218Y-2318996D01*
X2367175Y-2318915D01*
X2366382Y-2317352D01*
X2366342Y-2317265D01*
X2366305Y-2317177D01*
X2366271Y-2317087D01*
X2366243Y-2316995D01*
X2366220Y-2316903D01*
X2365852Y-2315309D01*
X2300596Y-2315309D01*
X2300403Y-2315300D01*
X2300213Y-2315270D01*
X2300024Y-2315223D01*
X2299843Y-2315158D01*
X2299669Y-2315077D01*
X2299503Y-2314976D01*
X2299348Y-2314861D01*
X2299205Y-2314731D01*
X2299075Y-2314589D01*
X2298959Y-2314434D01*
X2298860Y-2314268D01*
X2298778Y-2314094D01*
X2298712Y-2313912D01*
X2298666Y-2313724D01*
X2298636Y-2313533D01*
X2298627Y-2313339D01*
X2298627Y-2287356D01*
X2298636Y-2287163D01*
X2298666Y-2286972D01*
X2298712Y-2286783D01*
X2298778Y-2286601D01*
X2298860Y-2286428D01*
X2298959Y-2286262D01*
X2299075Y-2286107D01*
X2299205Y-2285963D01*
X2299348Y-2285834D01*
X2299503Y-2285718D01*
X2299669Y-2285619D01*
X2299843Y-2285536D01*
X2300024Y-2285471D01*
X2300213Y-2285425D01*
X2300403Y-2285396D01*
X2300596Y-2285387D01*
X2365852Y-2285387D01*
X2366220Y-2283791D01*
X2366243Y-2283697D01*
X2366271Y-2283607D01*
X2366305Y-2283515D01*
X2366342Y-2283427D01*
X2366382Y-2283341D01*
X2367175Y-2281777D01*
X2367218Y-2281696D01*
X2368083Y-2280171D01*
X2368131Y-2280091D01*
X2369066Y-2278609D01*
X2369117Y-2278532D01*
X2370122Y-2277094D01*
X2370176Y-2277019D01*
X2371246Y-2275630D01*
X2371304Y-2275558D01*
X2372438Y-2274220D01*
X2372500Y-2274151D01*
X2373696Y-2272869D01*
X2373760Y-2272804D01*
X2375014Y-2271579D01*
X2375081Y-2271516D01*
X2376391Y-2270349D01*
X2376463Y-2270290D01*
X2377825Y-2269187D01*
X2377899Y-2269131D01*
X2379314Y-2268094D01*
X2379389Y-2268042D01*
X2380850Y-2267071D01*
X2380928Y-2267022D01*
X2382433Y-2266122D01*
X2382512Y-2266075D01*
X2384058Y-2265246D01*
X2384140Y-2265205D01*
X2385724Y-2264450D01*
X2385807Y-2264412D01*
X2387422Y-2263732D01*
X2387510Y-2263697D01*
X2389156Y-2263094D01*
X2389242Y-2263063D01*
X2390915Y-2262537D01*
X2391004Y-2262512D01*
X2392700Y-2262064D01*
X2392789Y-2262044D01*
X2394503Y-2261676D01*
X2394596Y-2261658D01*
X2396325Y-2261372D01*
X2396417Y-2261359D01*
X2398158Y-2261154D01*
X2398251Y-2261145D01*
X2400000Y-2261023D01*
X2400091Y-2261019D01*
X2401844Y-2260976D01*
X2401890Y-2260976D01*
X2474890Y-2260976D01*
X2474938Y-2260976D01*
X2476691Y-2261019D01*
X2476782Y-2261023D01*
X2478531Y-2261145D01*
X2478622Y-2261154D01*
X2480365Y-2261359D01*
X2480456Y-2261372D01*
X2482186Y-2261658D01*
X2482277Y-2261676D01*
X2483993Y-2262044D01*
X2484081Y-2262064D01*
X2485776Y-2262512D01*
X2485865Y-2262537D01*
X2487538Y-2263063D01*
X2487626Y-2263094D01*
X2489272Y-2263697D01*
X2489359Y-2263732D01*
X2490974Y-2264412D01*
X2491058Y-2264450D01*
X2492641Y-2265205D01*
X2492723Y-2265246D01*
X2494269Y-2266075D01*
X2494349Y-2266122D01*
X2495853Y-2267022D01*
X2495932Y-2267071D01*
X2497393Y-2268042D01*
X2497467Y-2268094D01*
X2498882Y-2269131D01*
X2498955Y-2269187D01*
X2500318Y-2270290D01*
X2500389Y-2270349D01*
X2501701Y-2271516D01*
X2501768Y-2271579D01*
X2503022Y-2272804D01*
X2503086Y-2272869D01*
X2504282Y-2274151D01*
X2504344Y-2274220D01*
X2505478Y-2275558D01*
X2505536Y-2275630D01*
X2506606Y-2277019D01*
X2506660Y-2277094D01*
X2507664Y-2278532D01*
X2507716Y-2278609D01*
X2508651Y-2280091D01*
X2508698Y-2280171D01*
X2509562Y-2281696D01*
X2509606Y-2281777D01*
X2510398Y-2283341D01*
X2510438Y-2283425D01*
X2511157Y-2285025D01*
X2511193Y-2285109D01*
X2511836Y-2286741D01*
X2511868Y-2286828D01*
X2512433Y-2288488D01*
X2512461Y-2288575D01*
X2512947Y-2290261D01*
X2512970Y-2290351D01*
X2513378Y-2292057D01*
X2513397Y-2292147D01*
X2513724Y-2293868D01*
X2513739Y-2293960D01*
X2513986Y-2295697D01*
X2513995Y-2295788D01*
X2514160Y-2297534D01*
X2514166Y-2297627D01*
X2514249Y-2299378D01*
X2514251Y-2299470D01*
X2514251Y-2301224D01*
X2514249Y-2301316D01*
X2514166Y-2303067D01*
X2514160Y-2303159D01*
X2513995Y-2304904D01*
X2513986Y-2304996D01*
X2513739Y-2306734D01*
X2513724Y-2306824D01*
X2513397Y-2308546D01*
X2513378Y-2308636D01*
X2512970Y-2310342D01*
X2512947Y-2310432D01*
X2512461Y-2312118D01*
X2512433Y-2312204D01*
X2511868Y-2313865D01*
X2511836Y-2313953D01*
X2511193Y-2315583D01*
X2511157Y-2315668D01*
X2510438Y-2317267D01*
X2510398Y-2317352D01*
X2509606Y-2318915D01*
X2509562Y-2318996D01*
X2508698Y-2320522D01*
X2508651Y-2320601D01*
X2507716Y-2322085D01*
X2507664Y-2322161D01*
X2506660Y-2323600D01*
X2506606Y-2323674D01*
X2505536Y-2325064D01*
X2505478Y-2325136D01*
X2504344Y-2326473D01*
X2504282Y-2326541D01*
X2503086Y-2327824D01*
X2503022Y-2327890D01*
X2501768Y-2329115D01*
X2501701Y-2329178D01*
X2500389Y-2330344D01*
X2500318Y-2330403D01*
X2498955Y-2331505D01*
X2498882Y-2331563D01*
X2497467Y-2332600D01*
X2497393Y-2332651D01*
X2495932Y-2333622D01*
X2495853Y-2333670D01*
X2494349Y-2334571D01*
X2494269Y-2334618D01*
X2492723Y-2335446D01*
X2492641Y-2335488D01*
X2491058Y-2336244D01*
X2490974Y-2336280D01*
X2489359Y-2336961D01*
X2489272Y-2336995D01*
X2487626Y-2337600D01*
X2487538Y-2337629D01*
X2485865Y-2338155D01*
X2485776Y-2338182D01*
X2484081Y-2338629D01*
X2483993Y-2338649D01*
X2482277Y-2339018D01*
X2482186Y-2339036D01*
X2480456Y-2339322D01*
X2480365Y-2339335D01*
X2478622Y-2339540D01*
X2478531Y-2339548D01*
X2476782Y-2339670D01*
X2476691Y-2339675D01*
X2474938Y-2339717D01*
X2474890Y-2339717D01*
G37*
D41*
G01*
X2331603Y-2359060D03*
G01*
X2331603Y-2240950D03*
D42*
G01*
X1301266Y-321580D03*
G01*
X1332763Y-321580D03*
D43*
G01*
X1358350Y-321576D03*
G01*
X1378050Y-321616D03*
G01*
X1397720Y-321576D03*
G01*
X1417410Y-321576D03*
G01*
X1437090Y-321576D03*
G01*
X1456780Y-321576D03*
G01*
X1476460Y-321576D03*
G01*
X1496150Y-321616D03*
D42*
G01*
X1521738Y-321580D03*
G01*
X1553235Y-321580D03*
D44*
G01*
X1597330Y-299239D03*
G01*
X1257169Y-299250D03*
D45*
G01*
X1257169Y-133890D03*
G01*
X1597330Y-133890D03*
D46*
G01*
X2412992Y-1960000D03*
G01*
X2287007Y-1960000D03*
D20*
G01*
X1019996Y-592000D03*
G01*
X1019996Y-417999D03*
D47*
G01*
X2005550Y-1686929D03*
G01*
X1915000Y-1686929D03*
G01*
X1824450Y-1686929D03*
D48*
G01*
X1915000Y-1453070D03*
D29*
G01*
X1965000Y-1811458D03*
G01*
X1965000Y-1768541D03*
G01*
X2020000Y-1811458D03*
G01*
X2020000Y-1768541D03*
G01*
X2075000Y-1711458D03*
G01*
X2075000Y-1668541D03*
G01*
X2125000Y-1711458D03*
G01*
X2125000Y-1668541D03*
D49*
G01*
X880499Y-2167520D03*
G01*
X879499Y-1982479D03*
M02*
