G04 Layer: BottomLayer*
G04 EasyEDA v6.5.51, 2025-09-17 03:18:51*
G04 4aee9cc30035422d88a860af958d7afb,d57bd40a603b42be9e37e0d49851eb9c,10*
G04 Gerber Generator version 0.2*
G04 Scale: 100 percent, Rotated: No, Reflected: No *
G04 Dimensions in inches *
G04 leading zeros omitted , absolute positions ,3 integer and 6 decimal *
%FSLAX36Y36*%
%MOIN*%

%AMMACRO1*21,1,$1,$2,0,0,$3*%
%ADD10C,0.0100*%
%ADD11C,0.0200*%
%ADD12C,0.0113*%
%ADD13R,0.0532X0.0555*%
%ADD14MACRO1,0.0531X0.0555X0.0000*%
%ADD15MACRO1,0.0531X0.0555X90.0000*%
%ADD16MACRO1,0.0374X0.0453X90.0000*%
%ADD17MACRO1,0.0374X0.0453X-90.0000*%
%ADD18R,0.0542X0.0446*%
%ADD19R,0.0194X0.0446*%
%ADD20MACRO1,0.0542X0.0446X0.0000*%
%ADD21MACRO1,0.0542X0.0446X90.0000*%
%ADD22MACRO1,0.0542X0.0446X-90.0000*%
%ADD23MACRO1,0.0433X0.0236X0.0000*%
%ADD24C,0.0669*%
%ADD25MACRO1,0.0669X0.0669X0.0000*%
%ADD26C,0.0984*%
%ADD27C,0.0630*%
%ADD28R,0.0709X0.0709*%
%ADD29R,0.0472X0.0850*%
%ADD30O,0.03937X0.07874*%
%ADD31O,0.03937X0.070866*%
%ADD32C,0.0244*%

%LPD*%
G36*
X1064720Y-1922800D02*
G01*
X1063000Y-1922580D01*
X1061540Y-1921639D01*
X1044280Y-1904400D01*
X1041840Y-1902380D01*
X1040240Y-1901240D01*
X1039500Y-1900000D01*
X1039260Y-1898600D01*
X1039260Y-1880780D01*
X1017680Y-1880780D01*
X1017680Y-1891360D01*
X1017960Y-1893839D01*
X1018400Y-1895980D01*
X1018040Y-1897460D01*
X1017159Y-1898700D01*
X1015900Y-1899520D01*
X1014400Y-1899800D01*
X986120Y-1899800D01*
X984500Y-1899460D01*
X983160Y-1898480D01*
X982320Y-1897060D01*
X982140Y-1895400D01*
X982640Y-1893820D01*
X983740Y-1892580D01*
X984800Y-1891800D01*
X987420Y-1889060D01*
X989539Y-1885920D01*
X991120Y-1882460D01*
X992060Y-1878779D01*
X992400Y-1875000D01*
X992060Y-1871220D01*
X991120Y-1867540D01*
X990020Y-1865140D01*
X989659Y-1863560D01*
X989960Y-1862000D01*
X990840Y-1860660D01*
X1010840Y-1840660D01*
X1012140Y-1839780D01*
X1013680Y-1839480D01*
X1015200Y-1839780D01*
X1016500Y-1840660D01*
X1017360Y-1841940D01*
X1017680Y-1843480D01*
X1017680Y-1849220D01*
X1039260Y-1849220D01*
X1039260Y-1828220D01*
X1032920Y-1828220D01*
X1031400Y-1827920D01*
X1030100Y-1827060D01*
X1029240Y-1825760D01*
X1028920Y-1824220D01*
X1029240Y-1822700D01*
X1030120Y-1821380D01*
X1031420Y-1820500D01*
X1032960Y-1820200D01*
X1167040Y-1820200D01*
X1168580Y-1820500D01*
X1169880Y-1821380D01*
X1171620Y-1823120D01*
X1172540Y-1824520D01*
X1172800Y-1826140D01*
X1172380Y-1827740D01*
X1171340Y-1829040D01*
X1169880Y-1829800D01*
X1168220Y-1829920D01*
X1164400Y-1828500D01*
X1161900Y-1828220D01*
X1106840Y-1828220D01*
X1104360Y-1828500D01*
X1102200Y-1829259D01*
X1100280Y-1830480D01*
X1098660Y-1832080D01*
X1097280Y-1833680D01*
X1095800Y-1834300D01*
X1094200Y-1834300D01*
X1092720Y-1833680D01*
X1091340Y-1832080D01*
X1089720Y-1830480D01*
X1087800Y-1829259D01*
X1085640Y-1828500D01*
X1083160Y-1828220D01*
X1072000Y-1828220D01*
X1072000Y-1849220D01*
X1092420Y-1849220D01*
X1093940Y-1849520D01*
X1095240Y-1850380D01*
X1096120Y-1851680D01*
X1096420Y-1853220D01*
X1096420Y-1876780D01*
X1096120Y-1878320D01*
X1095240Y-1879620D01*
X1093940Y-1880480D01*
X1092420Y-1880780D01*
X1072000Y-1880780D01*
X1072000Y-1901780D01*
X1073600Y-1902100D01*
X1074900Y-1903000D01*
X1075760Y-1904360D01*
X1076020Y-1905940D01*
X1075640Y-1907500D01*
X1074660Y-1908779D01*
X1073840Y-1909500D01*
X1071440Y-1912460D01*
X1069600Y-1915780D01*
X1068300Y-1919500D01*
X1067660Y-1921100D01*
X1066380Y-1922280D01*
G37*

%LPD*%
G36*
X522960Y-2354800D02*
G01*
X521420Y-2354500D01*
X520120Y-2353620D01*
X376380Y-2209880D01*
X375500Y-2208580D01*
X375200Y-2207040D01*
X375200Y-1924019D01*
X375500Y-1922500D01*
X376360Y-1921200D01*
X377640Y-1920320D01*
X379159Y-1920020D01*
X380700Y-1920300D01*
X383440Y-1921399D01*
X387160Y-1922200D01*
X390959Y-1922380D01*
X394720Y-1921879D01*
X398340Y-1920780D01*
X401740Y-1919060D01*
X404799Y-1916800D01*
X407420Y-1914060D01*
X409540Y-1910920D01*
X411120Y-1907460D01*
X412060Y-1903779D01*
X412400Y-1900000D01*
X412060Y-1896220D01*
X411120Y-1892540D01*
X409540Y-1889079D01*
X407420Y-1885940D01*
X406320Y-1884780D01*
X405480Y-1883500D01*
X405200Y-1882000D01*
X405200Y-1542960D01*
X405500Y-1541420D01*
X406380Y-1540120D01*
X417960Y-1528540D01*
X419340Y-1527640D01*
X424720Y-1526879D01*
X428340Y-1525780D01*
X431740Y-1524060D01*
X433420Y-1522820D01*
X435020Y-1522120D01*
X436780Y-1522160D01*
X438340Y-1522940D01*
X439420Y-1524319D01*
X439799Y-1526040D01*
X439799Y-2059800D01*
X440120Y-2062960D01*
X440980Y-2065800D01*
X442380Y-2068440D01*
X444400Y-2070880D01*
X471520Y-2098020D01*
X472380Y-2099320D01*
X472700Y-2100840D01*
X472700Y-2101900D01*
X473340Y-2105640D01*
X474600Y-2109220D01*
X476440Y-2112540D01*
X478840Y-2115500D01*
X481680Y-2118000D01*
X484920Y-2120000D01*
X488440Y-2121400D01*
X492160Y-2122200D01*
X495940Y-2122360D01*
X500260Y-2121780D01*
X501940Y-2121900D01*
X503420Y-2122720D01*
X504440Y-2124080D01*
X504799Y-2125740D01*
X504799Y-2152040D01*
X504500Y-2153580D01*
X503620Y-2154880D01*
X464400Y-2194120D01*
X462380Y-2196560D01*
X460980Y-2199200D01*
X460120Y-2202040D01*
X459799Y-2205200D01*
X459799Y-2231900D01*
X459580Y-2233240D01*
X458920Y-2234420D01*
X456440Y-2237460D01*
X454600Y-2240780D01*
X453340Y-2244360D01*
X452700Y-2248100D01*
X452700Y-2251900D01*
X453340Y-2255640D01*
X454600Y-2259220D01*
X456440Y-2262540D01*
X458840Y-2265500D01*
X461680Y-2268000D01*
X464920Y-2270000D01*
X468440Y-2271400D01*
X472160Y-2272200D01*
X475959Y-2272380D01*
X479720Y-2271880D01*
X483340Y-2270780D01*
X484000Y-2270440D01*
X485560Y-2270020D01*
X487160Y-2270260D01*
X488540Y-2271100D01*
X489480Y-2272440D01*
X489799Y-2274020D01*
X489799Y-2280800D01*
X490120Y-2283960D01*
X490980Y-2286800D01*
X492380Y-2289440D01*
X494380Y-2291880D01*
X532420Y-2329820D01*
X534860Y-2331820D01*
X537500Y-2333220D01*
X540340Y-2334080D01*
X543500Y-2334400D01*
X548120Y-2334400D01*
X549640Y-2334700D01*
X550940Y-2335580D01*
X551820Y-2336860D01*
X552120Y-2338400D01*
X552120Y-2346760D01*
X552700Y-2350980D01*
X552340Y-2352460D01*
X551460Y-2353700D01*
X550200Y-2354520D01*
X548700Y-2354800D01*
G37*

%LPD*%
G36*
X977960Y-2724800D02*
G01*
X976420Y-2724500D01*
X975120Y-2723620D01*
X810600Y-2559100D01*
X809720Y-2557780D01*
X809419Y-2556200D01*
X809760Y-2554660D01*
X810680Y-2553360D01*
X812020Y-2552520D01*
X813580Y-2552280D01*
X815960Y-2552380D01*
X819720Y-2551880D01*
X823340Y-2550780D01*
X826740Y-2549060D01*
X829800Y-2546800D01*
X832420Y-2544060D01*
X834539Y-2540920D01*
X836120Y-2537460D01*
X837060Y-2533780D01*
X837400Y-2530000D01*
X837060Y-2526220D01*
X836120Y-2522540D01*
X834539Y-2519080D01*
X832420Y-2515940D01*
X829800Y-2513200D01*
X826740Y-2510940D01*
X823340Y-2509220D01*
X819720Y-2508120D01*
X814340Y-2507360D01*
X812960Y-2506460D01*
X797000Y-2490500D01*
X796140Y-2489200D01*
X795819Y-2487680D01*
X795819Y-2438000D01*
X796120Y-2436500D01*
X796940Y-2435220D01*
X798060Y-2434060D01*
X800180Y-2430920D01*
X801740Y-2427460D01*
X802700Y-2423780D01*
X803020Y-2420000D01*
X802700Y-2416220D01*
X801740Y-2412540D01*
X800180Y-2409080D01*
X798060Y-2405940D01*
X795420Y-2403200D01*
X792360Y-2400940D01*
X788980Y-2399220D01*
X785340Y-2398120D01*
X781580Y-2397620D01*
X777780Y-2397800D01*
X774080Y-2398600D01*
X770540Y-2400000D01*
X767320Y-2402000D01*
X764460Y-2404500D01*
X762080Y-2407460D01*
X760220Y-2410780D01*
X758960Y-2414360D01*
X758319Y-2418100D01*
X758319Y-2421900D01*
X758960Y-2425640D01*
X760220Y-2429220D01*
X762080Y-2432540D01*
X764539Y-2435580D01*
X765200Y-2436760D01*
X765420Y-2438100D01*
X765420Y-2495440D01*
X765740Y-2498600D01*
X766600Y-2501440D01*
X768000Y-2504060D01*
X770020Y-2506520D01*
X791520Y-2528020D01*
X792380Y-2529320D01*
X792700Y-2530840D01*
X792700Y-2531540D01*
X792380Y-2533060D01*
X791520Y-2534360D01*
X790220Y-2535240D01*
X788700Y-2535540D01*
X787159Y-2535240D01*
X785860Y-2534360D01*
X695280Y-2443780D01*
X694400Y-2442480D01*
X694100Y-2440940D01*
X694100Y-2360720D01*
X694400Y-2359200D01*
X695280Y-2357900D01*
X696560Y-2357020D01*
X698100Y-2356720D01*
X705780Y-2356720D01*
X708259Y-2356440D01*
X710420Y-2355680D01*
X712340Y-2354480D01*
X713960Y-2352860D01*
X715160Y-2350940D01*
X715920Y-2348780D01*
X716200Y-2346300D01*
X716200Y-2302160D01*
X715920Y-2299660D01*
X715160Y-2297520D01*
X713960Y-2295600D01*
X712340Y-2293980D01*
X710420Y-2292760D01*
X708259Y-2292020D01*
X705780Y-2291740D01*
X652020Y-2291740D01*
X649520Y-2292020D01*
X647380Y-2292760D01*
X645440Y-2293980D01*
X643840Y-2295600D01*
X642620Y-2297520D01*
X641860Y-2299660D01*
X641580Y-2302160D01*
X641580Y-2346300D01*
X641860Y-2348780D01*
X642120Y-2349480D01*
X642340Y-2350980D01*
X641979Y-2352460D01*
X641100Y-2353700D01*
X639820Y-2354520D01*
X638340Y-2354800D01*
X629080Y-2354800D01*
X627600Y-2354520D01*
X626320Y-2353700D01*
X625440Y-2352460D01*
X625080Y-2350980D01*
X625380Y-2349240D01*
X625660Y-2346760D01*
X625660Y-2291700D01*
X625380Y-2289200D01*
X624640Y-2287060D01*
X623420Y-2285120D01*
X621820Y-2283520D01*
X620220Y-2282140D01*
X619580Y-2280660D01*
X619580Y-2279060D01*
X620220Y-2277580D01*
X621820Y-2276200D01*
X623420Y-2274580D01*
X624640Y-2272660D01*
X625380Y-2270500D01*
X625660Y-2268020D01*
X625660Y-2259680D01*
X625980Y-2258160D01*
X626840Y-2256860D01*
X628140Y-2256000D01*
X629660Y-2255680D01*
X637580Y-2255680D01*
X639120Y-2256000D01*
X640420Y-2256860D01*
X641280Y-2258160D01*
X641580Y-2259680D01*
X641580Y-2267560D01*
X641860Y-2270040D01*
X642620Y-2272200D01*
X643840Y-2274120D01*
X645440Y-2275740D01*
X647380Y-2276940D01*
X649520Y-2277700D01*
X652020Y-2277980D01*
X705780Y-2277980D01*
X708259Y-2277700D01*
X710420Y-2276940D01*
X712340Y-2275740D01*
X713960Y-2274120D01*
X715160Y-2272200D01*
X715920Y-2270040D01*
X716200Y-2267560D01*
X716200Y-2264680D01*
X716500Y-2263160D01*
X717380Y-2261860D01*
X718660Y-2261000D01*
X720200Y-2260680D01*
X737580Y-2260680D01*
X739120Y-2261000D01*
X740420Y-2261860D01*
X741280Y-2263160D01*
X741580Y-2264680D01*
X741580Y-2267560D01*
X741860Y-2270040D01*
X742620Y-2272200D01*
X743840Y-2274120D01*
X745440Y-2275740D01*
X747380Y-2276940D01*
X749520Y-2277700D01*
X752020Y-2277980D01*
X805780Y-2277980D01*
X808259Y-2277700D01*
X810420Y-2276940D01*
X812340Y-2275740D01*
X813960Y-2274120D01*
X815160Y-2272200D01*
X815920Y-2270040D01*
X816200Y-2267560D01*
X816200Y-2223420D01*
X815920Y-2220920D01*
X815160Y-2218780D01*
X813960Y-2216840D01*
X812340Y-2215240D01*
X810420Y-2214020D01*
X808259Y-2213280D01*
X805780Y-2213000D01*
X752020Y-2213000D01*
X749520Y-2213280D01*
X747380Y-2214020D01*
X745440Y-2215240D01*
X743840Y-2216840D01*
X742620Y-2218780D01*
X741860Y-2220920D01*
X741580Y-2223420D01*
X741580Y-2226280D01*
X741280Y-2227820D01*
X740420Y-2229120D01*
X739120Y-2229980D01*
X737580Y-2230280D01*
X720200Y-2230280D01*
X718660Y-2229980D01*
X717380Y-2229120D01*
X716500Y-2227820D01*
X716200Y-2226280D01*
X716200Y-2223420D01*
X715920Y-2220920D01*
X715160Y-2218780D01*
X713960Y-2216840D01*
X712340Y-2215240D01*
X710420Y-2214020D01*
X708259Y-2213280D01*
X705780Y-2213000D01*
X652020Y-2213000D01*
X649520Y-2213280D01*
X647380Y-2214020D01*
X645440Y-2215240D01*
X643840Y-2216840D01*
X642620Y-2218780D01*
X641860Y-2220920D01*
X641780Y-2221740D01*
X641360Y-2223120D01*
X640460Y-2224260D01*
X639220Y-2225020D01*
X637800Y-2225280D01*
X629660Y-2225280D01*
X628140Y-2224980D01*
X626840Y-2224120D01*
X625980Y-2222820D01*
X625660Y-2221280D01*
X625660Y-2212960D01*
X625380Y-2210460D01*
X624640Y-2208320D01*
X623420Y-2206380D01*
X621820Y-2204780D01*
X619880Y-2203560D01*
X617920Y-2202880D01*
X616560Y-2202060D01*
X615620Y-2200780D01*
X615240Y-2199220D01*
X615520Y-2197660D01*
X616360Y-2196320D01*
X617680Y-2195420D01*
X619240Y-2195100D01*
X669300Y-2195100D01*
X672460Y-2194780D01*
X675300Y-2193920D01*
X677940Y-2192520D01*
X680380Y-2190500D01*
X682560Y-2188340D01*
X683860Y-2187460D01*
X685400Y-2187160D01*
X721600Y-2187160D01*
X724080Y-2186880D01*
X726240Y-2186120D01*
X728160Y-2184920D01*
X729780Y-2183300D01*
X730980Y-2181380D01*
X731740Y-2179220D01*
X732020Y-2176740D01*
X732020Y-2122980D01*
X731740Y-2120480D01*
X730980Y-2118340D01*
X729780Y-2116400D01*
X728160Y-2114800D01*
X726240Y-2113580D01*
X724080Y-2112820D01*
X721600Y-2112540D01*
X711080Y-2112540D01*
X709520Y-2112240D01*
X708199Y-2111340D01*
X707340Y-2110000D01*
X707080Y-2108420D01*
X707440Y-2106880D01*
X708400Y-2105580D01*
X709760Y-2104780D01*
X710939Y-2104360D01*
X712880Y-2103140D01*
X714479Y-2101540D01*
X715699Y-2099600D01*
X716460Y-2097460D01*
X716740Y-2094960D01*
X716740Y-2058020D01*
X716460Y-2055520D01*
X715699Y-2053380D01*
X714479Y-2051440D01*
X712880Y-2049840D01*
X710939Y-2048620D01*
X708800Y-2047860D01*
X706300Y-2047580D01*
X661480Y-2047580D01*
X659000Y-2047860D01*
X656840Y-2048620D01*
X654920Y-2049840D01*
X653300Y-2051440D01*
X652080Y-2053380D01*
X651340Y-2055520D01*
X651080Y-2057740D01*
X650660Y-2059120D01*
X649780Y-2060260D01*
X648540Y-2061020D01*
X647120Y-2061279D01*
X629660Y-2061279D01*
X628140Y-2060980D01*
X626840Y-2060120D01*
X625980Y-2058820D01*
X625660Y-2057280D01*
X625660Y-2031699D01*
X625380Y-2029199D01*
X624640Y-2027060D01*
X623420Y-2025120D01*
X621820Y-2023520D01*
X620220Y-2022140D01*
X619580Y-2020660D01*
X619580Y-2019060D01*
X620220Y-2017580D01*
X621820Y-2016200D01*
X623420Y-2014580D01*
X624640Y-2012660D01*
X625380Y-2010500D01*
X625660Y-2008020D01*
X625660Y-1996860D01*
X604680Y-1996860D01*
X604680Y-2017280D01*
X604380Y-2018800D01*
X603500Y-2020100D01*
X602220Y-2020960D01*
X600680Y-2021279D01*
X577100Y-2021279D01*
X575580Y-2020960D01*
X574280Y-2020100D01*
X573420Y-2018800D01*
X573100Y-2017280D01*
X573100Y-1996860D01*
X552120Y-1996860D01*
X552120Y-2008020D01*
X552400Y-2010500D01*
X553160Y-2012660D01*
X554360Y-2014580D01*
X555980Y-2016200D01*
X557560Y-2017580D01*
X558200Y-2019060D01*
X558200Y-2020660D01*
X557560Y-2022140D01*
X555980Y-2023520D01*
X554360Y-2025120D01*
X553160Y-2027060D01*
X552400Y-2029199D01*
X552120Y-2031699D01*
X552120Y-2086759D01*
X552400Y-2089240D01*
X553160Y-2091399D01*
X554360Y-2093320D01*
X555980Y-2094940D01*
X557900Y-2096160D01*
X560060Y-2096900D01*
X562540Y-2097180D01*
X615240Y-2097180D01*
X617740Y-2096900D01*
X619880Y-2096160D01*
X621800Y-2094960D01*
X623800Y-2092900D01*
X625120Y-2092000D01*
X626660Y-2091680D01*
X647120Y-2091680D01*
X648540Y-2091960D01*
X649780Y-2092700D01*
X650660Y-2093860D01*
X651080Y-2095240D01*
X651340Y-2097460D01*
X652080Y-2099600D01*
X653300Y-2101540D01*
X654920Y-2103140D01*
X656840Y-2104360D01*
X659000Y-2105120D01*
X661480Y-2105400D01*
X664700Y-2105400D01*
X666220Y-2105700D01*
X667520Y-2106560D01*
X668379Y-2107860D01*
X668700Y-2109400D01*
X668700Y-2116180D01*
X668540Y-2117280D01*
X668060Y-2118340D01*
X667300Y-2120480D01*
X667020Y-2122980D01*
X667020Y-2159220D01*
X666720Y-2160740D01*
X665860Y-2162040D01*
X664380Y-2163520D01*
X663080Y-2164400D01*
X661540Y-2164700D01*
X539140Y-2164700D01*
X537520Y-2164360D01*
X536160Y-2163380D01*
X535340Y-2161960D01*
X535200Y-2159800D01*
X535200Y-1922960D01*
X535500Y-1921420D01*
X536380Y-1920120D01*
X575120Y-1881380D01*
X576420Y-1880500D01*
X577960Y-1880200D01*
X934800Y-1880200D01*
X937960Y-1879880D01*
X940840Y-1879019D01*
X942620Y-1878100D01*
X944240Y-1877660D01*
X945920Y-1877940D01*
X947320Y-1878880D01*
X948220Y-1880320D01*
X949599Y-1884220D01*
X951440Y-1887540D01*
X953840Y-1890500D01*
X956460Y-1892800D01*
X957420Y-1894079D01*
X957800Y-1895640D01*
X957560Y-1897220D01*
X956700Y-1898560D01*
X955380Y-1899480D01*
X953820Y-1899800D01*
X918900Y-1899800D01*
X915740Y-1900120D01*
X912900Y-1900980D01*
X910260Y-1902380D01*
X907820Y-1904400D01*
X857099Y-1955120D01*
X855080Y-1957560D01*
X853680Y-1960200D01*
X852940Y-1962620D01*
X852120Y-1964079D01*
X850759Y-1965100D01*
X849120Y-1965460D01*
X846280Y-1965460D01*
X843800Y-1965740D01*
X841640Y-1966480D01*
X839720Y-1967700D01*
X838100Y-1969300D01*
X836880Y-1971240D01*
X836140Y-1973380D01*
X835860Y-1975880D01*
X835860Y-1999040D01*
X836140Y-2001540D01*
X837400Y-2005280D01*
X837240Y-2006940D01*
X836400Y-2008380D01*
X835060Y-2009360D01*
X833420Y-2009700D01*
X812860Y-2009700D01*
X811320Y-2009400D01*
X810020Y-2008520D01*
X800280Y-1998779D01*
X799400Y-1997480D01*
X799100Y-1995940D01*
X799100Y-1976120D01*
X799400Y-1974600D01*
X800280Y-1973300D01*
X801560Y-1972420D01*
X803100Y-1972120D01*
X806300Y-1972120D01*
X808800Y-1971840D01*
X810939Y-1971100D01*
X812880Y-1969880D01*
X814479Y-1968260D01*
X815699Y-1966339D01*
X816460Y-1964180D01*
X816740Y-1961699D01*
X816740Y-1924740D01*
X816460Y-1922260D01*
X815699Y-1920100D01*
X814479Y-1918180D01*
X812880Y-1916560D01*
X810939Y-1915360D01*
X808800Y-1914600D01*
X806300Y-1914319D01*
X761480Y-1914319D01*
X759000Y-1914600D01*
X756840Y-1915360D01*
X754920Y-1916560D01*
X753300Y-1918180D01*
X752080Y-1920100D01*
X751340Y-1922260D01*
X751080Y-1924480D01*
X750660Y-1925860D01*
X749780Y-1927000D01*
X748540Y-1927760D01*
X747120Y-1928020D01*
X720680Y-1928020D01*
X719240Y-1927760D01*
X718020Y-1927000D01*
X717120Y-1925860D01*
X716700Y-1924480D01*
X716460Y-1922260D01*
X715699Y-1920100D01*
X714479Y-1918180D01*
X712880Y-1916560D01*
X710939Y-1915360D01*
X708800Y-1914600D01*
X706300Y-1914319D01*
X661480Y-1914319D01*
X659000Y-1914600D01*
X656840Y-1915360D01*
X654920Y-1916560D01*
X653300Y-1918180D01*
X652080Y-1920100D01*
X651340Y-1922260D01*
X651060Y-1924740D01*
X651060Y-1961699D01*
X651340Y-1964180D01*
X652080Y-1966339D01*
X653300Y-1968260D01*
X654920Y-1969880D01*
X656840Y-1971100D01*
X659000Y-1971840D01*
X661480Y-1972120D01*
X706300Y-1972120D01*
X708800Y-1971840D01*
X710939Y-1971100D01*
X712880Y-1969880D01*
X714479Y-1968260D01*
X715699Y-1966339D01*
X716460Y-1964180D01*
X716700Y-1961980D01*
X717120Y-1960580D01*
X718020Y-1959440D01*
X719240Y-1958680D01*
X720680Y-1958420D01*
X747120Y-1958420D01*
X748540Y-1958680D01*
X749780Y-1959440D01*
X750660Y-1960580D01*
X751080Y-1961980D01*
X751340Y-1964180D01*
X752080Y-1966339D01*
X753300Y-1968260D01*
X754920Y-1969880D01*
X756840Y-1971100D01*
X759000Y-1971840D01*
X761480Y-1972120D01*
X764700Y-1972120D01*
X766240Y-1972420D01*
X767520Y-1973300D01*
X768400Y-1974600D01*
X768700Y-1976120D01*
X768700Y-2003700D01*
X769020Y-2006860D01*
X769880Y-2009700D01*
X771280Y-2012340D01*
X773300Y-2014780D01*
X794020Y-2035500D01*
X796460Y-2037520D01*
X799100Y-2038920D01*
X801840Y-2039760D01*
X803259Y-2040540D01*
X804260Y-2041800D01*
X804680Y-2043360D01*
X804440Y-2044960D01*
X803600Y-2046339D01*
X802260Y-2047260D01*
X800680Y-2047580D01*
X761480Y-2047580D01*
X759000Y-2047860D01*
X756840Y-2048620D01*
X754920Y-2049840D01*
X753300Y-2051440D01*
X752080Y-2053380D01*
X751340Y-2055520D01*
X751060Y-2058020D01*
X751060Y-2094960D01*
X751340Y-2097460D01*
X752080Y-2099600D01*
X753300Y-2101540D01*
X754920Y-2103140D01*
X756840Y-2104360D01*
X758020Y-2104780D01*
X759400Y-2105580D01*
X760340Y-2106880D01*
X760699Y-2108420D01*
X760440Y-2110000D01*
X759580Y-2111340D01*
X758259Y-2112240D01*
X753700Y-2112820D01*
X751560Y-2113580D01*
X749620Y-2114800D01*
X748020Y-2116400D01*
X746800Y-2118340D01*
X746060Y-2120480D01*
X745780Y-2122980D01*
X745780Y-2176740D01*
X746060Y-2179220D01*
X746800Y-2181380D01*
X748020Y-2183300D01*
X749620Y-2184920D01*
X751560Y-2186120D01*
X753700Y-2186880D01*
X756200Y-2187160D01*
X800340Y-2187160D01*
X802820Y-2186880D01*
X804980Y-2186120D01*
X806900Y-2184920D01*
X808520Y-2183300D01*
X809720Y-2181380D01*
X810480Y-2179220D01*
X810759Y-2176740D01*
X810759Y-2122980D01*
X810480Y-2120480D01*
X809720Y-2118340D01*
X808520Y-2116400D01*
X806900Y-2114800D01*
X804980Y-2113580D01*
X803780Y-2113160D01*
X802420Y-2112360D01*
X801480Y-2111060D01*
X801100Y-2109520D01*
X801380Y-2107940D01*
X802240Y-2106600D01*
X803540Y-2105700D01*
X805100Y-2105400D01*
X806300Y-2105400D01*
X808800Y-2105120D01*
X810939Y-2104360D01*
X812880Y-2103140D01*
X814479Y-2101540D01*
X815699Y-2099600D01*
X816460Y-2097460D01*
X816700Y-2095240D01*
X817120Y-2093860D01*
X818020Y-2092700D01*
X819240Y-2091960D01*
X820680Y-2091680D01*
X848500Y-2091680D01*
X850040Y-2092000D01*
X851340Y-2092860D01*
X852200Y-2094160D01*
X852500Y-2095680D01*
X852500Y-2119240D01*
X852020Y-2122980D01*
X852020Y-2176740D01*
X852300Y-2179220D01*
X853060Y-2181380D01*
X854280Y-2183300D01*
X855879Y-2184920D01*
X857820Y-2186120D01*
X859960Y-2186880D01*
X862460Y-2187160D01*
X906600Y-2187160D01*
X909080Y-2186880D01*
X911240Y-2186120D01*
X913160Y-2184920D01*
X914780Y-2183300D01*
X915980Y-2181380D01*
X916740Y-2179220D01*
X917020Y-2176740D01*
X917020Y-2122980D01*
X916740Y-2120480D01*
X915980Y-2118340D01*
X914780Y-2116400D01*
X913160Y-2114800D01*
X911240Y-2113580D01*
X909080Y-2112820D01*
X906600Y-2112540D01*
X886900Y-2112540D01*
X885380Y-2112240D01*
X884080Y-2111380D01*
X883220Y-2110080D01*
X882900Y-2108540D01*
X882900Y-2088280D01*
X883220Y-2086740D01*
X884080Y-2085440D01*
X885380Y-2084580D01*
X886900Y-2084280D01*
X889140Y-2084280D01*
X891620Y-2084000D01*
X893780Y-2083240D01*
X895699Y-2082020D01*
X897320Y-2080420D01*
X898540Y-2078480D01*
X899280Y-2076339D01*
X899560Y-2073839D01*
X899560Y-2050680D01*
X899280Y-2048180D01*
X898540Y-2046040D01*
X897320Y-2044100D01*
X896840Y-2043620D01*
X895920Y-2042220D01*
X895660Y-2040600D01*
X896080Y-2038980D01*
X897120Y-2037700D01*
X899780Y-2035500D01*
X931420Y-2003880D01*
X932720Y-2003000D01*
X934260Y-2002700D01*
X935740Y-2002700D01*
X937240Y-2003000D01*
X938520Y-2003820D01*
X939400Y-2005080D01*
X939740Y-2006560D01*
X939500Y-2008080D01*
X938500Y-2010800D01*
X938220Y-2013260D01*
X938220Y-2016440D01*
X956740Y-2016440D01*
X956740Y-2013460D01*
X957039Y-2011940D01*
X957920Y-2010640D01*
X959220Y-2009780D01*
X960740Y-2009460D01*
X979400Y-2009460D01*
X980920Y-2009780D01*
X982220Y-2010640D01*
X983100Y-2011940D01*
X983400Y-2013460D01*
X983400Y-2016440D01*
X1001919Y-2016440D01*
X1001919Y-2013260D01*
X1001640Y-2010780D01*
X1000900Y-2008620D01*
X1000140Y-2006900D01*
X1000140Y-2005400D01*
X1000900Y-2003680D01*
X1001640Y-2001540D01*
X1001919Y-1999040D01*
X1001919Y-1975860D01*
X1001640Y-1973380D01*
X1000900Y-1971220D01*
X999680Y-1969300D01*
X998060Y-1967680D01*
X996140Y-1966480D01*
X993980Y-1965720D01*
X991500Y-1965440D01*
X948640Y-1965440D01*
X946160Y-1965720D01*
X944000Y-1966480D01*
X942080Y-1967680D01*
X940460Y-1969300D01*
X939760Y-1970420D01*
X938860Y-1971420D01*
X937680Y-1972080D01*
X936360Y-1972300D01*
X926500Y-1972300D01*
X923340Y-1972620D01*
X920500Y-1973480D01*
X917860Y-1974880D01*
X915420Y-1976900D01*
X906380Y-1985920D01*
X905100Y-1986780D01*
X903560Y-1987080D01*
X902039Y-1986780D01*
X900740Y-1985920D01*
X899860Y-1984620D01*
X899560Y-1983080D01*
X899560Y-1975880D01*
X899280Y-1973380D01*
X898520Y-1971240D01*
X897320Y-1969300D01*
X895699Y-1967700D01*
X894920Y-1967200D01*
X893860Y-1966240D01*
X893220Y-1964960D01*
X893060Y-1963540D01*
X893400Y-1962160D01*
X894220Y-1960980D01*
X923820Y-1931380D01*
X925120Y-1930500D01*
X926660Y-1930200D01*
X1025440Y-1930200D01*
X1026979Y-1930500D01*
X1028280Y-1931380D01*
X1069720Y-1972820D01*
X1070600Y-1974120D01*
X1070900Y-1975660D01*
X1070900Y-1999060D01*
X1091300Y-1999060D01*
X1092840Y-1999379D01*
X1094140Y-2000240D01*
X1095000Y-2001540D01*
X1095300Y-2003060D01*
X1095300Y-2026639D01*
X1095000Y-2028180D01*
X1094140Y-2029480D01*
X1092840Y-2030340D01*
X1091300Y-2030640D01*
X1070900Y-2030640D01*
X1070900Y-2051639D01*
X1082060Y-2051639D01*
X1084540Y-2051360D01*
X1086700Y-2050600D01*
X1088620Y-2049379D01*
X1090240Y-2047780D01*
X1091620Y-2046180D01*
X1093100Y-2045540D01*
X1094700Y-2045540D01*
X1096180Y-2046180D01*
X1097560Y-2047780D01*
X1099160Y-2049379D01*
X1101100Y-2050600D01*
X1103240Y-2051360D01*
X1105740Y-2051639D01*
X1160800Y-2051639D01*
X1163280Y-2051360D01*
X1165440Y-2050600D01*
X1167360Y-2049379D01*
X1168980Y-2047780D01*
X1170180Y-2045840D01*
X1170940Y-2043700D01*
X1171220Y-2041200D01*
X1171220Y-2039060D01*
X1171520Y-2037520D01*
X1172400Y-2036240D01*
X1173700Y-2035360D01*
X1175220Y-2035060D01*
X1194660Y-2035060D01*
X1196160Y-2035340D01*
X1198440Y-2036260D01*
X1202160Y-2037060D01*
X1205960Y-2037240D01*
X1209720Y-2036740D01*
X1213340Y-2035640D01*
X1216740Y-2033920D01*
X1219800Y-2031660D01*
X1222420Y-2028920D01*
X1224540Y-2025780D01*
X1226120Y-2022320D01*
X1227060Y-2018640D01*
X1227400Y-2014860D01*
X1227060Y-2011080D01*
X1226120Y-2007400D01*
X1224540Y-2003940D01*
X1222420Y-2000800D01*
X1219800Y-1998060D01*
X1216740Y-1995800D01*
X1213340Y-1994079D01*
X1209720Y-1992980D01*
X1205960Y-1992480D01*
X1202160Y-1992660D01*
X1198440Y-1993460D01*
X1196160Y-1994379D01*
X1194660Y-1994660D01*
X1175220Y-1994660D01*
X1173700Y-1994360D01*
X1172400Y-1993480D01*
X1171520Y-1992200D01*
X1171220Y-1990660D01*
X1171220Y-1988500D01*
X1170940Y-1986020D01*
X1170180Y-1983860D01*
X1168980Y-1981940D01*
X1167360Y-1980320D01*
X1165440Y-1979120D01*
X1163280Y-1978360D01*
X1160800Y-1978080D01*
X1157480Y-1978080D01*
X1155940Y-1977780D01*
X1154640Y-1976920D01*
X1153780Y-1975620D01*
X1153480Y-1974079D01*
X1153460Y-1968180D01*
X1153820Y-1966540D01*
X1154820Y-1965180D01*
X1156300Y-1964360D01*
X1157980Y-1964220D01*
X1163440Y-1966399D01*
X1167160Y-1967200D01*
X1170960Y-1967380D01*
X1174720Y-1966879D01*
X1178340Y-1965780D01*
X1181740Y-1964060D01*
X1186480Y-1960520D01*
X1188040Y-1960200D01*
X1209660Y-1960200D01*
X1211160Y-1960480D01*
X1213440Y-1961399D01*
X1217160Y-1962200D01*
X1220960Y-1962380D01*
X1222060Y-1962220D01*
X1223820Y-1962400D01*
X1225320Y-1963280D01*
X1226300Y-1964740D01*
X1226560Y-1966459D01*
X1226060Y-1968140D01*
X1224600Y-1970780D01*
X1223340Y-1974360D01*
X1222700Y-1978100D01*
X1222700Y-1981900D01*
X1223340Y-1985640D01*
X1224600Y-1989220D01*
X1226440Y-1992540D01*
X1228840Y-1995500D01*
X1231680Y-1998000D01*
X1234920Y-2000000D01*
X1238440Y-2001399D01*
X1242160Y-2002200D01*
X1247920Y-2002440D01*
X1249340Y-2003200D01*
X1283340Y-2031000D01*
X1284420Y-2032380D01*
X1284800Y-2034100D01*
X1284800Y-2060020D01*
X1284680Y-2061020D01*
X1284300Y-2061960D01*
X1263020Y-2100260D01*
X1262360Y-2101160D01*
X1259880Y-2103620D01*
X1258580Y-2104500D01*
X1257040Y-2104800D01*
X1200200Y-2104800D01*
X1197040Y-2105120D01*
X1194200Y-2105980D01*
X1191560Y-2107380D01*
X1189120Y-2109400D01*
X1178040Y-2120460D01*
X1176760Y-2121320D01*
X1175220Y-2121620D01*
X1173700Y-2121320D01*
X1172400Y-2120460D01*
X1171520Y-2119160D01*
X1171220Y-2117620D01*
X1171220Y-2083500D01*
X1170940Y-2081020D01*
X1170180Y-2078860D01*
X1168980Y-2076940D01*
X1167360Y-2075320D01*
X1165440Y-2074120D01*
X1163280Y-2073360D01*
X1160800Y-2073080D01*
X1105740Y-2073080D01*
X1103240Y-2073360D01*
X1101100Y-2074120D01*
X1099160Y-2075320D01*
X1097560Y-2076940D01*
X1096180Y-2078540D01*
X1094700Y-2079160D01*
X1093100Y-2079160D01*
X1091620Y-2078540D01*
X1090240Y-2076940D01*
X1088620Y-2075320D01*
X1086700Y-2074120D01*
X1084540Y-2073360D01*
X1082060Y-2073080D01*
X1040900Y-2073080D01*
X1039380Y-2072780D01*
X1038080Y-2071900D01*
X1024620Y-2058460D01*
X1023760Y-2057160D01*
X1023460Y-2055640D01*
X1023760Y-2054100D01*
X1024620Y-2052800D01*
X1025920Y-2051940D01*
X1027460Y-2051639D01*
X1038139Y-2051639D01*
X1038139Y-2030640D01*
X1016560Y-2030640D01*
X1016560Y-2041200D01*
X1016840Y-2043640D01*
X1016700Y-2045200D01*
X1015980Y-2046600D01*
X1014780Y-2047600D01*
X1013259Y-2048080D01*
X1011700Y-2047920D01*
X1009880Y-2047360D01*
X1006720Y-2047060D01*
X1004380Y-2047060D01*
X1002880Y-2046759D01*
X1001600Y-2045920D01*
X1000720Y-2044680D01*
X1000380Y-2043180D01*
X1000620Y-2041660D01*
X1001640Y-2038899D01*
X1001919Y-2036440D01*
X1001919Y-2033260D01*
X983400Y-2033260D01*
X983400Y-2036240D01*
X983100Y-2037780D01*
X982220Y-2039079D01*
X980920Y-2039940D01*
X979400Y-2040240D01*
X960740Y-2040240D01*
X959220Y-2039940D01*
X957920Y-2039079D01*
X957039Y-2037780D01*
X956740Y-2036240D01*
X956740Y-2033260D01*
X938220Y-2033260D01*
X938220Y-2036440D01*
X938500Y-2038940D01*
X939260Y-2041080D01*
X940020Y-2042820D01*
X940020Y-2044300D01*
X939260Y-2046020D01*
X938500Y-2048180D01*
X938220Y-2050660D01*
X938220Y-2073839D01*
X938500Y-2076339D01*
X939260Y-2078480D01*
X940460Y-2080400D01*
X942080Y-2082020D01*
X944000Y-2083240D01*
X946160Y-2083980D01*
X948640Y-2084259D01*
X991500Y-2084259D01*
X994000Y-2083980D01*
X996140Y-2083240D01*
X998080Y-2082020D01*
X998800Y-2081279D01*
X1000100Y-2080420D01*
X1001640Y-2080120D01*
X1003160Y-2080420D01*
X1004460Y-2081279D01*
X1015400Y-2092220D01*
X1016260Y-2093520D01*
X1016560Y-2095060D01*
X1016560Y-2136200D01*
X1016840Y-2138700D01*
X1017600Y-2140840D01*
X1018820Y-2142780D01*
X1020420Y-2144380D01*
X1022360Y-2145600D01*
X1024500Y-2146360D01*
X1027000Y-2146640D01*
X1035320Y-2146640D01*
X1036860Y-2146940D01*
X1038160Y-2147800D01*
X1039020Y-2149100D01*
X1039320Y-2150640D01*
X1039320Y-2151900D01*
X1039020Y-2153440D01*
X1038160Y-2154740D01*
X981060Y-2211820D01*
X979760Y-2212680D01*
X978240Y-2213000D01*
X942020Y-2213000D01*
X939520Y-2213280D01*
X937380Y-2214020D01*
X935440Y-2215240D01*
X933840Y-2216840D01*
X932620Y-2218780D01*
X931860Y-2220920D01*
X931580Y-2223420D01*
X931580Y-2226280D01*
X931280Y-2227820D01*
X930420Y-2229100D01*
X929120Y-2229980D01*
X927580Y-2230280D01*
X920200Y-2230280D01*
X918660Y-2229980D01*
X917380Y-2229100D01*
X916500Y-2227820D01*
X916200Y-2226280D01*
X916200Y-2223420D01*
X915920Y-2220920D01*
X915160Y-2218780D01*
X913960Y-2216840D01*
X912340Y-2215240D01*
X910420Y-2214020D01*
X908259Y-2213280D01*
X905780Y-2213000D01*
X852020Y-2213000D01*
X849520Y-2213280D01*
X847380Y-2214020D01*
X845440Y-2215240D01*
X843840Y-2216840D01*
X842620Y-2218780D01*
X841860Y-2220920D01*
X841580Y-2223420D01*
X841580Y-2267560D01*
X841860Y-2270040D01*
X842620Y-2272200D01*
X843840Y-2274120D01*
X845440Y-2275740D01*
X847380Y-2276940D01*
X849520Y-2277700D01*
X852020Y-2277980D01*
X905780Y-2277980D01*
X906940Y-2277840D01*
X908520Y-2277980D01*
X909920Y-2278720D01*
X910920Y-2279940D01*
X911360Y-2281460D01*
X911200Y-2283040D01*
X910100Y-2286460D01*
X909940Y-2288120D01*
X909539Y-2289540D01*
X908660Y-2290700D01*
X907400Y-2291460D01*
X905960Y-2291740D01*
X894940Y-2291740D01*
X894940Y-2310580D01*
X905800Y-2310580D01*
X907340Y-2310880D01*
X908620Y-2311760D01*
X909500Y-2313060D01*
X909800Y-2314580D01*
X909800Y-2333880D01*
X909500Y-2335400D01*
X908620Y-2336700D01*
X907340Y-2337580D01*
X905800Y-2337880D01*
X894940Y-2337880D01*
X894940Y-2356720D01*
X905800Y-2356720D01*
X907340Y-2357020D01*
X908620Y-2357900D01*
X909500Y-2359200D01*
X909800Y-2360720D01*
X909800Y-2364800D01*
X910120Y-2367960D01*
X910980Y-2370800D01*
X912380Y-2373440D01*
X914400Y-2375880D01*
X920180Y-2381680D01*
X921060Y-2383020D01*
X921360Y-2384600D01*
X921000Y-2386160D01*
X920060Y-2387460D01*
X918680Y-2388280D01*
X917820Y-2388580D01*
X915879Y-2389800D01*
X914280Y-2391400D01*
X913060Y-2393340D01*
X912300Y-2395480D01*
X912020Y-2397980D01*
X912020Y-2408800D01*
X930879Y-2408800D01*
X930879Y-2394180D01*
X931220Y-2392580D01*
X932159Y-2391260D01*
X933560Y-2390400D01*
X935180Y-2390200D01*
X954160Y-2390200D01*
X955699Y-2390500D01*
X957000Y-2391380D01*
X957860Y-2392660D01*
X958160Y-2394200D01*
X958160Y-2408800D01*
X965800Y-2408800D01*
X967340Y-2409100D01*
X968620Y-2409980D01*
X969500Y-2411280D01*
X969800Y-2412800D01*
X969800Y-2436900D01*
X969500Y-2438440D01*
X968620Y-2439740D01*
X967340Y-2440600D01*
X965800Y-2440900D01*
X958160Y-2440900D01*
X958160Y-2462160D01*
X966900Y-2462160D01*
X968540Y-2462500D01*
X969900Y-2463520D01*
X970720Y-2465000D01*
X970980Y-2465800D01*
X972380Y-2468440D01*
X974400Y-2470880D01*
X1143620Y-2640120D01*
X1144500Y-2641420D01*
X1144800Y-2642960D01*
X1144800Y-2659800D01*
X1145120Y-2662960D01*
X1145980Y-2665800D01*
X1147380Y-2668440D01*
X1149400Y-2670880D01*
X1194120Y-2715600D01*
X1196680Y-2717700D01*
X1197700Y-2718980D01*
X1198120Y-2720539D01*
X1197900Y-2722140D01*
X1197060Y-2723540D01*
X1195720Y-2724480D01*
X1194140Y-2724800D01*
G37*

%LPC*%
G36*
X1020960Y-2592380D02*
G01*
X1024720Y-2591880D01*
X1028340Y-2590779D01*
X1031740Y-2589060D01*
X1034800Y-2586800D01*
X1037420Y-2584060D01*
X1039539Y-2580920D01*
X1041120Y-2577460D01*
X1042060Y-2573780D01*
X1042400Y-2570000D01*
X1042060Y-2566220D01*
X1041120Y-2562540D01*
X1039539Y-2559080D01*
X1037420Y-2555940D01*
X1034800Y-2553200D01*
X1031740Y-2550940D01*
X1028340Y-2549220D01*
X1024720Y-2548120D01*
X1020960Y-2547620D01*
X1017159Y-2547800D01*
X1013439Y-2548600D01*
X1009920Y-2550000D01*
X1007400Y-2551560D01*
X1005720Y-2552120D01*
X1003980Y-2551920D01*
X1002480Y-2550980D01*
X943500Y-2492020D01*
X942700Y-2490860D01*
X942340Y-2489520D01*
X942060Y-2486220D01*
X941120Y-2482540D01*
X939539Y-2479080D01*
X937420Y-2475940D01*
X934800Y-2473200D01*
X931740Y-2470940D01*
X929360Y-2469740D01*
X928020Y-2468640D01*
X927280Y-2467100D01*
X927240Y-2465380D01*
X927940Y-2463800D01*
X929220Y-2462660D01*
X930879Y-2462180D01*
X930879Y-2440900D01*
X912020Y-2440900D01*
X912020Y-2451740D01*
X912300Y-2454220D01*
X913060Y-2456380D01*
X914280Y-2458300D01*
X915879Y-2459920D01*
X917220Y-2460760D01*
X918360Y-2461840D01*
X919000Y-2463260D01*
X919040Y-2464840D01*
X918460Y-2466300D01*
X917380Y-2467420D01*
X915939Y-2468060D01*
X913439Y-2468600D01*
X909920Y-2470000D01*
X906680Y-2472000D01*
X903840Y-2474500D01*
X901440Y-2477460D01*
X899599Y-2480780D01*
X898340Y-2484360D01*
X897700Y-2488100D01*
X897700Y-2491900D01*
X898340Y-2495640D01*
X899599Y-2499220D01*
X901440Y-2502540D01*
X903840Y-2505500D01*
X906680Y-2508000D01*
X909920Y-2510000D01*
X913439Y-2511400D01*
X917159Y-2512200D01*
X919320Y-2512300D01*
X920759Y-2512640D01*
X921979Y-2513460D01*
X989120Y-2580600D01*
X991560Y-2582620D01*
X994200Y-2584020D01*
X997039Y-2584880D01*
X1000200Y-2585200D01*
X1002000Y-2585200D01*
X1003400Y-2585460D01*
X1004640Y-2586200D01*
X1006680Y-2588000D01*
X1009920Y-2590000D01*
X1013439Y-2591400D01*
X1017159Y-2592200D01*
G37*
G36*
X752020Y-2356720D02*
G01*
X762840Y-2356720D01*
X762840Y-2337880D01*
X741580Y-2337880D01*
X741580Y-2346300D01*
X741860Y-2348780D01*
X742620Y-2350940D01*
X743840Y-2352860D01*
X745440Y-2354480D01*
X747380Y-2355680D01*
X749520Y-2356440D01*
G37*
G36*
X794940Y-2356720D02*
G01*
X805780Y-2356720D01*
X808259Y-2356440D01*
X810420Y-2355680D01*
X812340Y-2354480D01*
X813960Y-2352860D01*
X815160Y-2350940D01*
X815920Y-2348780D01*
X816200Y-2346300D01*
X816200Y-2337880D01*
X794940Y-2337880D01*
G37*
G36*
X852020Y-2356720D02*
G01*
X862840Y-2356720D01*
X862840Y-2337880D01*
X841580Y-2337880D01*
X841580Y-2346300D01*
X841860Y-2348780D01*
X842620Y-2350940D01*
X843840Y-2352860D01*
X845440Y-2354480D01*
X847380Y-2355680D01*
X849520Y-2356440D01*
G37*
G36*
X741580Y-2310580D02*
G01*
X762840Y-2310580D01*
X762840Y-2291740D01*
X752020Y-2291740D01*
X749520Y-2292020D01*
X747380Y-2292760D01*
X745440Y-2293980D01*
X743840Y-2295600D01*
X742620Y-2297520D01*
X741860Y-2299660D01*
X741580Y-2302160D01*
G37*
G36*
X794940Y-2310580D02*
G01*
X816200Y-2310580D01*
X816200Y-2302160D01*
X815920Y-2299660D01*
X815160Y-2297520D01*
X813960Y-2295600D01*
X812340Y-2293980D01*
X810420Y-2292760D01*
X808259Y-2292020D01*
X805780Y-2291740D01*
X794940Y-2291740D01*
G37*
G36*
X841580Y-2310580D02*
G01*
X862840Y-2310580D01*
X862840Y-2291740D01*
X852020Y-2291740D01*
X849520Y-2292020D01*
X847380Y-2292760D01*
X845440Y-2293980D01*
X843840Y-2295600D01*
X842620Y-2297520D01*
X841860Y-2299660D01*
X841580Y-2302160D01*
G37*
G36*
X941200Y-2187160D02*
G01*
X949620Y-2187160D01*
X949620Y-2165900D01*
X930780Y-2165900D01*
X930780Y-2176740D01*
X931060Y-2179220D01*
X931800Y-2181380D01*
X933020Y-2183300D01*
X934620Y-2184920D01*
X936560Y-2186120D01*
X938700Y-2186880D01*
G37*
G36*
X976919Y-2187160D02*
G01*
X985340Y-2187160D01*
X987820Y-2186880D01*
X989980Y-2186120D01*
X991900Y-2184920D01*
X993520Y-2183300D01*
X994720Y-2181380D01*
X995480Y-2179220D01*
X995759Y-2176740D01*
X995759Y-2165900D01*
X976919Y-2165900D01*
G37*
G36*
X976919Y-2133800D02*
G01*
X995759Y-2133800D01*
X995759Y-2122980D01*
X995480Y-2120480D01*
X994720Y-2118340D01*
X993520Y-2116400D01*
X991900Y-2114800D01*
X989980Y-2113580D01*
X987820Y-2112820D01*
X985340Y-2112540D01*
X976919Y-2112540D01*
G37*
G36*
X930780Y-2133800D02*
G01*
X949620Y-2133800D01*
X949620Y-2112540D01*
X941200Y-2112540D01*
X938700Y-2112820D01*
X936560Y-2113580D01*
X934620Y-2114800D01*
X933020Y-2116400D01*
X931800Y-2118340D01*
X931060Y-2120480D01*
X930780Y-2122980D01*
G37*
G36*
X1016560Y-1999060D02*
G01*
X1038139Y-1999060D01*
X1038139Y-1978080D01*
X1027000Y-1978080D01*
X1024500Y-1978360D01*
X1022360Y-1979120D01*
X1020420Y-1980320D01*
X1018820Y-1981940D01*
X1017600Y-1983860D01*
X1016840Y-1986020D01*
X1016560Y-1988500D01*
G37*
G36*
X604680Y-1964100D02*
G01*
X625660Y-1964100D01*
X625660Y-1952960D01*
X625380Y-1950460D01*
X624640Y-1948320D01*
X623420Y-1946380D01*
X621820Y-1944780D01*
X619880Y-1943560D01*
X617740Y-1942800D01*
X615240Y-1942520D01*
X604680Y-1942520D01*
G37*
G36*
X552120Y-1964100D02*
G01*
X573100Y-1964100D01*
X573100Y-1942520D01*
X562540Y-1942520D01*
X560060Y-1942800D01*
X557900Y-1943560D01*
X555980Y-1944780D01*
X554360Y-1946380D01*
X553160Y-1948320D01*
X552400Y-1950460D01*
X552120Y-1952960D01*
G37*

%LPD*%
G36*
X118379Y-2745700D02*
G01*
X109480Y-2745340D01*
X101080Y-2744340D01*
X92760Y-2742660D01*
X84620Y-2740360D01*
X76680Y-2737420D01*
X68980Y-2733860D01*
X61600Y-2729700D01*
X54560Y-2724980D01*
X47920Y-2719740D01*
X41700Y-2713980D01*
X35960Y-2707740D01*
X30720Y-2701080D01*
X26040Y-2694040D01*
X21900Y-2686640D01*
X18360Y-2678940D01*
X15440Y-2670980D01*
X13160Y-2662820D01*
X11520Y-2654520D01*
X10540Y-2646100D01*
X10200Y-2637520D01*
X10200Y-118379D01*
X10560Y-109480D01*
X11560Y-101080D01*
X13240Y-92760D01*
X15540Y-84620D01*
X18480Y-76680D01*
X22040Y-68980D01*
X26200Y-61600D01*
X30920Y-54560D01*
X36160Y-47920D01*
X41920Y-41700D01*
X48160Y-35960D01*
X54820Y-30720D01*
X61860Y-26040D01*
X69260Y-21900D01*
X76960Y-18360D01*
X84920Y-15440D01*
X93080Y-13160D01*
X101380Y-11520D01*
X109800Y-10540D01*
X118379Y-10200D01*
X2637520Y-10200D01*
X2646420Y-10560D01*
X2654820Y-11560D01*
X2663140Y-13240D01*
X2671280Y-15540D01*
X2679220Y-18480D01*
X2686920Y-22040D01*
X2694300Y-26200D01*
X2701340Y-30920D01*
X2707980Y-36160D01*
X2714200Y-41920D01*
X2719940Y-48160D01*
X2725179Y-54820D01*
X2729860Y-61860D01*
X2734000Y-69260D01*
X2737540Y-76960D01*
X2740460Y-84920D01*
X2742740Y-93080D01*
X2744380Y-101380D01*
X2745360Y-109800D01*
X2745700Y-118379D01*
X2745700Y-2637520D01*
X2745340Y-2646420D01*
X2744340Y-2654820D01*
X2742660Y-2663140D01*
X2740360Y-2671280D01*
X2737420Y-2679220D01*
X2733860Y-2686920D01*
X2729700Y-2694300D01*
X2724980Y-2701340D01*
X2719740Y-2707980D01*
X2713980Y-2714200D01*
X2707740Y-2719940D01*
X2701080Y-2725179D01*
X2694040Y-2729860D01*
X2686640Y-2734000D01*
X2678940Y-2737540D01*
X2670980Y-2740460D01*
X2662820Y-2742740D01*
X2654520Y-2744380D01*
X2646100Y-2745360D01*
X2637520Y-2745700D01*
X1390460Y-2745700D01*
X1388920Y-2745400D01*
X1387620Y-2744520D01*
X1386759Y-2743240D01*
X1386459Y-2741700D01*
X1386759Y-2740160D01*
X1387620Y-2738880D01*
X1400600Y-2725880D01*
X1402620Y-2723440D01*
X1404019Y-2720800D01*
X1404880Y-2717960D01*
X1405200Y-2714800D01*
X1405200Y-2696700D01*
X1405500Y-2695160D01*
X1406380Y-2693880D01*
X1407660Y-2693000D01*
X1409199Y-2692700D01*
X1413380Y-2692700D01*
X1415860Y-2692420D01*
X1418020Y-2691660D01*
X1419940Y-2690460D01*
X1421560Y-2688840D01*
X1422760Y-2686920D01*
X1423520Y-2684760D01*
X1423800Y-2682280D01*
X1423800Y-2597720D01*
X1423520Y-2595240D01*
X1422760Y-2593080D01*
X1421560Y-2591160D01*
X1419940Y-2589540D01*
X1418020Y-2588340D01*
X1415860Y-2587580D01*
X1413380Y-2587300D01*
X1377760Y-2587300D01*
X1376080Y-2586940D01*
X1374720Y-2585899D01*
X1373920Y-2584380D01*
X1373820Y-2582660D01*
X1376120Y-2577460D01*
X1377060Y-2573780D01*
X1377400Y-2570000D01*
X1377060Y-2566220D01*
X1376120Y-2562540D01*
X1374540Y-2559080D01*
X1372420Y-2555940D01*
X1369800Y-2553200D01*
X1366740Y-2550940D01*
X1363340Y-2549220D01*
X1359720Y-2548120D01*
X1355960Y-2547620D01*
X1352160Y-2547800D01*
X1348440Y-2548600D01*
X1344920Y-2550000D01*
X1341680Y-2552000D01*
X1338839Y-2554500D01*
X1336440Y-2557460D01*
X1334600Y-2560779D01*
X1333340Y-2564360D01*
X1332700Y-2568100D01*
X1332700Y-2571900D01*
X1333340Y-2575640D01*
X1334600Y-2579220D01*
X1335780Y-2581340D01*
X1336279Y-2582919D01*
X1336080Y-2584560D01*
X1335260Y-2586000D01*
X1333899Y-2586960D01*
X1332300Y-2587300D01*
X1287620Y-2587300D01*
X1285140Y-2587580D01*
X1282980Y-2588340D01*
X1281060Y-2589540D01*
X1279440Y-2591160D01*
X1278240Y-2593080D01*
X1277480Y-2595240D01*
X1277200Y-2597720D01*
X1277200Y-2682260D01*
X1277580Y-2685320D01*
X1277420Y-2686980D01*
X1276600Y-2688460D01*
X1275240Y-2689440D01*
X1273600Y-2689800D01*
X1269400Y-2689800D01*
X1267760Y-2689440D01*
X1266400Y-2688460D01*
X1265580Y-2686980D01*
X1265420Y-2685320D01*
X1265800Y-2682260D01*
X1265800Y-2597720D01*
X1265520Y-2595240D01*
X1264760Y-2593080D01*
X1263560Y-2591160D01*
X1261940Y-2589540D01*
X1260020Y-2588340D01*
X1257860Y-2587580D01*
X1255380Y-2587300D01*
X1235460Y-2587300D01*
X1233920Y-2587000D01*
X1232620Y-2586120D01*
X1216380Y-2569880D01*
X1215500Y-2568580D01*
X1215200Y-2567040D01*
X1215200Y-2350720D01*
X1215500Y-2349200D01*
X1216380Y-2347900D01*
X1217660Y-2347020D01*
X1219200Y-2346720D01*
X1255780Y-2346720D01*
X1258260Y-2346440D01*
X1260420Y-2345680D01*
X1262340Y-2344480D01*
X1263960Y-2342860D01*
X1265160Y-2340940D01*
X1265920Y-2338780D01*
X1266200Y-2336300D01*
X1266200Y-2292160D01*
X1265920Y-2289660D01*
X1265160Y-2287520D01*
X1263960Y-2285600D01*
X1262340Y-2283980D01*
X1260420Y-2282760D01*
X1258260Y-2282020D01*
X1255780Y-2281740D01*
X1202020Y-2281740D01*
X1199520Y-2282020D01*
X1197380Y-2282760D01*
X1195440Y-2283980D01*
X1193840Y-2285600D01*
X1192620Y-2287520D01*
X1191860Y-2289660D01*
X1191580Y-2292160D01*
X1191580Y-2295040D01*
X1191280Y-2296560D01*
X1190420Y-2297860D01*
X1189120Y-2298720D01*
X1187580Y-2299040D01*
X1179780Y-2299040D01*
X1178320Y-2298760D01*
X1177080Y-2297980D01*
X1176180Y-2296780D01*
X1175460Y-2295300D01*
X1175080Y-2294020D01*
X1175160Y-2292660D01*
X1175900Y-2291080D01*
X1176640Y-2288940D01*
X1176920Y-2286440D01*
X1176920Y-2283260D01*
X1158400Y-2283260D01*
X1158400Y-2286240D01*
X1158100Y-2287780D01*
X1157220Y-2289080D01*
X1155920Y-2289940D01*
X1154400Y-2290240D01*
X1135740Y-2290240D01*
X1134220Y-2289940D01*
X1132920Y-2289080D01*
X1132040Y-2287780D01*
X1131740Y-2286240D01*
X1131740Y-2283260D01*
X1113220Y-2283260D01*
X1113220Y-2286440D01*
X1113500Y-2288940D01*
X1114260Y-2291080D01*
X1115020Y-2292820D01*
X1115020Y-2294300D01*
X1114260Y-2296020D01*
X1113500Y-2298180D01*
X1113220Y-2300660D01*
X1113220Y-2323840D01*
X1113500Y-2326340D01*
X1114260Y-2328480D01*
X1115460Y-2330400D01*
X1115980Y-2330920D01*
X1116820Y-2332180D01*
X1117140Y-2333680D01*
X1116880Y-2335200D01*
X1116060Y-2336500D01*
X1114800Y-2337380D01*
X1113320Y-2337740D01*
X1112160Y-2337800D01*
X1108440Y-2338600D01*
X1104920Y-2340000D01*
X1101680Y-2342000D01*
X1098840Y-2344500D01*
X1096440Y-2347460D01*
X1094600Y-2350780D01*
X1093340Y-2354360D01*
X1092700Y-2358100D01*
X1092700Y-2359160D01*
X1092380Y-2360680D01*
X1091520Y-2361980D01*
X1084340Y-2369160D01*
X1082940Y-2370080D01*
X1081320Y-2370340D01*
X1079700Y-2369900D01*
X1078340Y-2369220D01*
X1074720Y-2368120D01*
X1070960Y-2367620D01*
X1067160Y-2367800D01*
X1063440Y-2368600D01*
X1059920Y-2370000D01*
X1056320Y-2372260D01*
X1054720Y-2372820D01*
X1053040Y-2372680D01*
X1051560Y-2371860D01*
X1050560Y-2370500D01*
X1050200Y-2368860D01*
X1050200Y-2338280D01*
X1050500Y-2336740D01*
X1051380Y-2335440D01*
X1052660Y-2334580D01*
X1054200Y-2334280D01*
X1064140Y-2334280D01*
X1066620Y-2334000D01*
X1068780Y-2333240D01*
X1070760Y-2332000D01*
X1072200Y-2331440D01*
X1073740Y-2331480D01*
X1077160Y-2332200D01*
X1080960Y-2332380D01*
X1084720Y-2331880D01*
X1088340Y-2330780D01*
X1091740Y-2329060D01*
X1094800Y-2326800D01*
X1097420Y-2324060D01*
X1099540Y-2320920D01*
X1101120Y-2317460D01*
X1102060Y-2313780D01*
X1102400Y-2310000D01*
X1102060Y-2306220D01*
X1101120Y-2302540D01*
X1099540Y-2299080D01*
X1097420Y-2295940D01*
X1096780Y-2295260D01*
X1095940Y-2293960D01*
X1095660Y-2292440D01*
X1095980Y-2290940D01*
X1096840Y-2289660D01*
X1106400Y-2280100D01*
X1107680Y-2279240D01*
X1108940Y-2278980D01*
X1109200Y-2277720D01*
X1110060Y-2276440D01*
X1118880Y-2267620D01*
X1120180Y-2266760D01*
X1121700Y-2266440D01*
X1131740Y-2266440D01*
X1131740Y-2263460D01*
X1132040Y-2261940D01*
X1132920Y-2260640D01*
X1134220Y-2259780D01*
X1135740Y-2259460D01*
X1154400Y-2259460D01*
X1155920Y-2259780D01*
X1157220Y-2260640D01*
X1158100Y-2261940D01*
X1158400Y-2263460D01*
X1158400Y-2266440D01*
X1176920Y-2266440D01*
X1176920Y-2263260D01*
X1176640Y-2260780D01*
X1175900Y-2258620D01*
X1175140Y-2256900D01*
X1175140Y-2255400D01*
X1175900Y-2253680D01*
X1176640Y-2251540D01*
X1176920Y-2249040D01*
X1176920Y-2228960D01*
X1177200Y-2227520D01*
X1177960Y-2226280D01*
X1179120Y-2225380D01*
X1181720Y-2224080D01*
X1185180Y-2221480D01*
X1186780Y-2220760D01*
X1188540Y-2220780D01*
X1190120Y-2221580D01*
X1191200Y-2222960D01*
X1191580Y-2224680D01*
X1191580Y-2257560D01*
X1191860Y-2260040D01*
X1192620Y-2262200D01*
X1193840Y-2264120D01*
X1195440Y-2265740D01*
X1197380Y-2266940D01*
X1199520Y-2267700D01*
X1202020Y-2267980D01*
X1255780Y-2267980D01*
X1258260Y-2267700D01*
X1260420Y-2266940D01*
X1262340Y-2265740D01*
X1263960Y-2264120D01*
X1265160Y-2262200D01*
X1265920Y-2260040D01*
X1266200Y-2257560D01*
X1266200Y-2246960D01*
X1266500Y-2245420D01*
X1267380Y-2244120D01*
X1382960Y-2128540D01*
X1384319Y-2127640D01*
X1390260Y-2126780D01*
X1391940Y-2126900D01*
X1393420Y-2127720D01*
X1394440Y-2129080D01*
X1394800Y-2130740D01*
X1394800Y-2242040D01*
X1394500Y-2243580D01*
X1393620Y-2244880D01*
X1391699Y-2246800D01*
X1390720Y-2247520D01*
X1389580Y-2247900D01*
X1388360Y-2247940D01*
X1385960Y-2247620D01*
X1382160Y-2247800D01*
X1378440Y-2248600D01*
X1374920Y-2250000D01*
X1371680Y-2252000D01*
X1369259Y-2254140D01*
X1368220Y-2254800D01*
X1364199Y-2255980D01*
X1361560Y-2257380D01*
X1359120Y-2259400D01*
X1299400Y-2319120D01*
X1297380Y-2321560D01*
X1295980Y-2324200D01*
X1295120Y-2327040D01*
X1294800Y-2330200D01*
X1294800Y-2363660D01*
X1294440Y-2365300D01*
X1293440Y-2366660D01*
X1291279Y-2368560D01*
X1288880Y-2371520D01*
X1287040Y-2374840D01*
X1285780Y-2378420D01*
X1285140Y-2382160D01*
X1285140Y-2385960D01*
X1285780Y-2389700D01*
X1287040Y-2393280D01*
X1288880Y-2396600D01*
X1291279Y-2399560D01*
X1294120Y-2402060D01*
X1297360Y-2404060D01*
X1300880Y-2405460D01*
X1304600Y-2406260D01*
X1308400Y-2406440D01*
X1312160Y-2405940D01*
X1315780Y-2404840D01*
X1319180Y-2403120D01*
X1322240Y-2400860D01*
X1324860Y-2398120D01*
X1326980Y-2394980D01*
X1328560Y-2391520D01*
X1329500Y-2387840D01*
X1329840Y-2384060D01*
X1329500Y-2380280D01*
X1328560Y-2376600D01*
X1326980Y-2373140D01*
X1325880Y-2371520D01*
X1325380Y-2370440D01*
X1325200Y-2369280D01*
X1325200Y-2337960D01*
X1325500Y-2336420D01*
X1326380Y-2335120D01*
X1370620Y-2290880D01*
X1371900Y-2290020D01*
X1373420Y-2289720D01*
X1374940Y-2290000D01*
X1378440Y-2291400D01*
X1382160Y-2292200D01*
X1385960Y-2292380D01*
X1389720Y-2291880D01*
X1393340Y-2290780D01*
X1396740Y-2289060D01*
X1399800Y-2286800D01*
X1402420Y-2284060D01*
X1404540Y-2280920D01*
X1406120Y-2277460D01*
X1406560Y-2275700D01*
X1406960Y-2274720D01*
X1407620Y-2273880D01*
X1420600Y-2260880D01*
X1422620Y-2258440D01*
X1424019Y-2255800D01*
X1424880Y-2252960D01*
X1425200Y-2249800D01*
X1425200Y-2111140D01*
X1425560Y-2109500D01*
X1426560Y-2108140D01*
X1428040Y-2107320D01*
X1429720Y-2107180D01*
X1431320Y-2107740D01*
X1434920Y-2110000D01*
X1438440Y-2111400D01*
X1442160Y-2112200D01*
X1445960Y-2112380D01*
X1449720Y-2111880D01*
X1453340Y-2110780D01*
X1456740Y-2109060D01*
X1459800Y-2106800D01*
X1462420Y-2104060D01*
X1464540Y-2100920D01*
X1466120Y-2097460D01*
X1467060Y-2093779D01*
X1467400Y-2090000D01*
X1467060Y-2086220D01*
X1466120Y-2082540D01*
X1464540Y-2079079D01*
X1462420Y-2075940D01*
X1461320Y-2074780D01*
X1460480Y-2073500D01*
X1460200Y-2072000D01*
X1460200Y-2037240D01*
X1460560Y-2035560D01*
X1461600Y-2034199D01*
X1463120Y-2033400D01*
X1464840Y-2033300D01*
X1465800Y-2033460D01*
X1471399Y-2033640D01*
X1476960Y-2033100D01*
X1482420Y-2031860D01*
X1487680Y-2029920D01*
X1492640Y-2027340D01*
X1497220Y-2024139D01*
X1501360Y-2020380D01*
X1504980Y-2016120D01*
X1508040Y-2011420D01*
X1510460Y-2006380D01*
X1512220Y-2001080D01*
X1513300Y-1995580D01*
X1513660Y-1990000D01*
X1513300Y-1984420D01*
X1512220Y-1978920D01*
X1510460Y-1973620D01*
X1508040Y-1968580D01*
X1504980Y-1963880D01*
X1501360Y-1959620D01*
X1497220Y-1955860D01*
X1492640Y-1952660D01*
X1487680Y-1950080D01*
X1482420Y-1948140D01*
X1476960Y-1946900D01*
X1471399Y-1946360D01*
X1465800Y-1946540D01*
X1460280Y-1947440D01*
X1454920Y-1949040D01*
X1449800Y-1951300D01*
X1445020Y-1954199D01*
X1440640Y-1957680D01*
X1436759Y-1961699D01*
X1433420Y-1966180D01*
X1430660Y-1971060D01*
X1428560Y-1976240D01*
X1427140Y-1981660D01*
X1426440Y-1987200D01*
X1426440Y-1992800D01*
X1427140Y-1998340D01*
X1428560Y-2003760D01*
X1430360Y-2008180D01*
X1430640Y-2009500D01*
X1430480Y-2010840D01*
X1430120Y-2012040D01*
X1429800Y-2015200D01*
X1429800Y-2029139D01*
X1429480Y-2030720D01*
X1428540Y-2032060D01*
X1427140Y-2032900D01*
X1425540Y-2033120D01*
X1423980Y-2032700D01*
X1422700Y-2031680D01*
X1420600Y-2029120D01*
X1185880Y-1794400D01*
X1183440Y-1792380D01*
X1180800Y-1790980D01*
X1177960Y-1790120D01*
X1174800Y-1789800D01*
X1041360Y-1789800D01*
X1039820Y-1789500D01*
X1038520Y-1788620D01*
X1037660Y-1787340D01*
X1037360Y-1785800D01*
X1037660Y-1784259D01*
X1038520Y-1782980D01*
X1131820Y-1689680D01*
X1133120Y-1688800D01*
X1134660Y-1688500D01*
X1181500Y-1688500D01*
X1184660Y-1688200D01*
X1187500Y-1687320D01*
X1190140Y-1685920D01*
X1192580Y-1683920D01*
X1230120Y-1646380D01*
X1231420Y-1645500D01*
X1232960Y-1645200D01*
X1279660Y-1645200D01*
X1281160Y-1645480D01*
X1283440Y-1646399D01*
X1287160Y-1647200D01*
X1289319Y-1647300D01*
X1290760Y-1647640D01*
X1291980Y-1648460D01*
X1321480Y-1677980D01*
X1322340Y-1679259D01*
X1322640Y-1680800D01*
X1322340Y-1682340D01*
X1321480Y-1683620D01*
X1320180Y-1684500D01*
X1318640Y-1684800D01*
X1215200Y-1684800D01*
X1212040Y-1685120D01*
X1209200Y-1685980D01*
X1206560Y-1687380D01*
X1204120Y-1689400D01*
X1196980Y-1696540D01*
X1195760Y-1697360D01*
X1194320Y-1697700D01*
X1192160Y-1697800D01*
X1188440Y-1698600D01*
X1184920Y-1700000D01*
X1181680Y-1702000D01*
X1178840Y-1704500D01*
X1176440Y-1707460D01*
X1174600Y-1710780D01*
X1173340Y-1714360D01*
X1172700Y-1718100D01*
X1172700Y-1721900D01*
X1173340Y-1725640D01*
X1174600Y-1729220D01*
X1176440Y-1732540D01*
X1178840Y-1735500D01*
X1181680Y-1738000D01*
X1184920Y-1740000D01*
X1188440Y-1741399D01*
X1192160Y-1742200D01*
X1195960Y-1742380D01*
X1199720Y-1741879D01*
X1203340Y-1740780D01*
X1206740Y-1739060D01*
X1209800Y-1736800D01*
X1212420Y-1734060D01*
X1214540Y-1730920D01*
X1216120Y-1727460D01*
X1217060Y-1723779D01*
X1217340Y-1720480D01*
X1217700Y-1719139D01*
X1218500Y-1717980D01*
X1220120Y-1716380D01*
X1221420Y-1715500D01*
X1222960Y-1715200D01*
X1312040Y-1715200D01*
X1313580Y-1715500D01*
X1314880Y-1716380D01*
X1338620Y-1740120D01*
X1339500Y-1741420D01*
X1339800Y-1742960D01*
X1339800Y-1751900D01*
X1339580Y-1753240D01*
X1338920Y-1754420D01*
X1336440Y-1757460D01*
X1334600Y-1760780D01*
X1333340Y-1764360D01*
X1332700Y-1768100D01*
X1332700Y-1771900D01*
X1333340Y-1775640D01*
X1334600Y-1779220D01*
X1336440Y-1782540D01*
X1338839Y-1785500D01*
X1341680Y-1788000D01*
X1344920Y-1790000D01*
X1348440Y-1791399D01*
X1352160Y-1792200D01*
X1355960Y-1792380D01*
X1359720Y-1791879D01*
X1362520Y-1791040D01*
X1364000Y-1790860D01*
X1365420Y-1791260D01*
X1366620Y-1792140D01*
X1367420Y-1793400D01*
X1367700Y-1794860D01*
X1367700Y-1796900D01*
X1368340Y-1800640D01*
X1369600Y-1804220D01*
X1371440Y-1807540D01*
X1373839Y-1810500D01*
X1376680Y-1813000D01*
X1379920Y-1815000D01*
X1383440Y-1816399D01*
X1387160Y-1817200D01*
X1390960Y-1817380D01*
X1394720Y-1816879D01*
X1398340Y-1815780D01*
X1401740Y-1814060D01*
X1404800Y-1811800D01*
X1407420Y-1809060D01*
X1409540Y-1805920D01*
X1411120Y-1802460D01*
X1412060Y-1798779D01*
X1412400Y-1795000D01*
X1412060Y-1791220D01*
X1411120Y-1787540D01*
X1409540Y-1784079D01*
X1407420Y-1780940D01*
X1406320Y-1779780D01*
X1405480Y-1778500D01*
X1405200Y-1777000D01*
X1405200Y-1725200D01*
X1404880Y-1722040D01*
X1404019Y-1719199D01*
X1402620Y-1716560D01*
X1400600Y-1714120D01*
X1313500Y-1627020D01*
X1312700Y-1625860D01*
X1312340Y-1624520D01*
X1312060Y-1621220D01*
X1311120Y-1617540D01*
X1309540Y-1614079D01*
X1307420Y-1610940D01*
X1304800Y-1608200D01*
X1303740Y-1607420D01*
X1302640Y-1606180D01*
X1302140Y-1604600D01*
X1302320Y-1602940D01*
X1303160Y-1601519D01*
X1304500Y-1600540D01*
X1306120Y-1600200D01*
X1342040Y-1600200D01*
X1343580Y-1600500D01*
X1344880Y-1601380D01*
X1373620Y-1630120D01*
X1374500Y-1631420D01*
X1374800Y-1632960D01*
X1374800Y-1669800D01*
X1375120Y-1672960D01*
X1375980Y-1675800D01*
X1377380Y-1678440D01*
X1379400Y-1680880D01*
X1414120Y-1715600D01*
X1416560Y-1717620D01*
X1419199Y-1719019D01*
X1422040Y-1719880D01*
X1425200Y-1720200D01*
X1427000Y-1720200D01*
X1428400Y-1720460D01*
X1429640Y-1721200D01*
X1431680Y-1723000D01*
X1434920Y-1725000D01*
X1438440Y-1726399D01*
X1442160Y-1727200D01*
X1445960Y-1727380D01*
X1449720Y-1726879D01*
X1453340Y-1725780D01*
X1456740Y-1724060D01*
X1459800Y-1721800D01*
X1462420Y-1719060D01*
X1464540Y-1715920D01*
X1466120Y-1712460D01*
X1467060Y-1708779D01*
X1467400Y-1705000D01*
X1467060Y-1701220D01*
X1466120Y-1697540D01*
X1464540Y-1694079D01*
X1462420Y-1690940D01*
X1459800Y-1688200D01*
X1456740Y-1685940D01*
X1453340Y-1684220D01*
X1449720Y-1683120D01*
X1445960Y-1682620D01*
X1442160Y-1682800D01*
X1438440Y-1683600D01*
X1434920Y-1685000D01*
X1432400Y-1686560D01*
X1430720Y-1687120D01*
X1428980Y-1686920D01*
X1427480Y-1685980D01*
X1406380Y-1664880D01*
X1405500Y-1663580D01*
X1405200Y-1662040D01*
X1405200Y-1625200D01*
X1404880Y-1622040D01*
X1404019Y-1619199D01*
X1402620Y-1616560D01*
X1400600Y-1614120D01*
X1360880Y-1574400D01*
X1358440Y-1572380D01*
X1355800Y-1570980D01*
X1352960Y-1570120D01*
X1349800Y-1569800D01*
X1075200Y-1569800D01*
X1072040Y-1570120D01*
X1069200Y-1570980D01*
X1066920Y-1572200D01*
X1065200Y-1572660D01*
X1062160Y-1572800D01*
X1058440Y-1573600D01*
X1054920Y-1575000D01*
X1051680Y-1577000D01*
X1048840Y-1579500D01*
X1046440Y-1582460D01*
X1044599Y-1585780D01*
X1043340Y-1589360D01*
X1042700Y-1593100D01*
X1042700Y-1596900D01*
X1043340Y-1600640D01*
X1044599Y-1604220D01*
X1046440Y-1607540D01*
X1048840Y-1610500D01*
X1051680Y-1613000D01*
X1054920Y-1615000D01*
X1058440Y-1616399D01*
X1062160Y-1617200D01*
X1065960Y-1617380D01*
X1069720Y-1616879D01*
X1073340Y-1615780D01*
X1076740Y-1614060D01*
X1079800Y-1611800D01*
X1082420Y-1609060D01*
X1084540Y-1605920D01*
X1086060Y-1602560D01*
X1086940Y-1601320D01*
X1088220Y-1600480D01*
X1089720Y-1600200D01*
X1273820Y-1600200D01*
X1275380Y-1600520D01*
X1276700Y-1601440D01*
X1277560Y-1602780D01*
X1277800Y-1604360D01*
X1277420Y-1605920D01*
X1276460Y-1607200D01*
X1273840Y-1609500D01*
X1270400Y-1613839D01*
X1269180Y-1614560D01*
X1267800Y-1614800D01*
X1225200Y-1614800D01*
X1222040Y-1615120D01*
X1219200Y-1615980D01*
X1216560Y-1617380D01*
X1214120Y-1619400D01*
X1176580Y-1656920D01*
X1175280Y-1657800D01*
X1173740Y-1658100D01*
X1126900Y-1658100D01*
X1123740Y-1658420D01*
X1120880Y-1659280D01*
X1118260Y-1660680D01*
X1115820Y-1662700D01*
X929880Y-1848620D01*
X928580Y-1849500D01*
X927039Y-1849800D01*
X570200Y-1849800D01*
X567040Y-1850120D01*
X564200Y-1850980D01*
X561560Y-1852380D01*
X559120Y-1854400D01*
X509400Y-1904120D01*
X507380Y-1906560D01*
X505980Y-1909199D01*
X505120Y-1912040D01*
X504799Y-1915200D01*
X504799Y-2074259D01*
X504440Y-2075920D01*
X503420Y-2077280D01*
X501940Y-2078100D01*
X500260Y-2078220D01*
X494320Y-2077360D01*
X492960Y-2076459D01*
X471380Y-2054880D01*
X470500Y-2053580D01*
X470200Y-2052040D01*
X470200Y-1819019D01*
X470500Y-1817500D01*
X471360Y-1816200D01*
X472640Y-1815320D01*
X474159Y-1815020D01*
X475700Y-1815300D01*
X478440Y-1816399D01*
X482160Y-1817200D01*
X485959Y-1817380D01*
X489720Y-1816879D01*
X493340Y-1815780D01*
X496740Y-1814060D01*
X501480Y-1810520D01*
X503040Y-1810200D01*
X544800Y-1810200D01*
X547960Y-1809880D01*
X550800Y-1809019D01*
X553440Y-1807620D01*
X555880Y-1805600D01*
X785600Y-1575880D01*
X787620Y-1573440D01*
X789020Y-1570800D01*
X789880Y-1567960D01*
X790200Y-1564800D01*
X790200Y-1492960D01*
X790500Y-1491420D01*
X791380Y-1490120D01*
X811960Y-1469520D01*
X813240Y-1468680D01*
X814740Y-1468360D01*
X816240Y-1468620D01*
X817540Y-1469440D01*
X818439Y-1470680D01*
X818800Y-1472180D01*
X818560Y-1473680D01*
X818340Y-1474360D01*
X817700Y-1478100D01*
X817700Y-1481900D01*
X818340Y-1485640D01*
X819599Y-1489220D01*
X821440Y-1492540D01*
X823840Y-1495500D01*
X826680Y-1498000D01*
X829920Y-1500000D01*
X833439Y-1501399D01*
X837159Y-1502200D01*
X839320Y-1502300D01*
X840759Y-1502640D01*
X841979Y-1503460D01*
X884120Y-1545600D01*
X886560Y-1547620D01*
X889200Y-1549019D01*
X892039Y-1549880D01*
X895200Y-1550200D01*
X1037000Y-1550200D01*
X1038400Y-1550460D01*
X1039640Y-1551200D01*
X1041680Y-1553000D01*
X1044920Y-1555000D01*
X1048439Y-1556399D01*
X1052160Y-1557200D01*
X1055960Y-1557380D01*
X1059720Y-1556879D01*
X1063340Y-1555780D01*
X1066740Y-1554060D01*
X1069800Y-1551800D01*
X1072420Y-1549079D01*
X1073500Y-1548280D01*
X1074780Y-1547880D01*
X1076140Y-1547940D01*
X1077400Y-1548440D01*
X1079920Y-1550000D01*
X1083440Y-1551399D01*
X1087160Y-1552200D01*
X1090960Y-1552380D01*
X1094720Y-1551879D01*
X1098340Y-1550780D01*
X1101740Y-1549060D01*
X1104800Y-1546800D01*
X1107420Y-1544060D01*
X1109540Y-1540920D01*
X1111120Y-1537460D01*
X1112060Y-1533779D01*
X1112400Y-1530000D01*
X1112060Y-1526220D01*
X1111120Y-1522540D01*
X1109540Y-1519079D01*
X1107420Y-1515940D01*
X1104800Y-1513200D01*
X1101740Y-1510940D01*
X1098340Y-1509220D01*
X1094720Y-1508120D01*
X1089340Y-1507360D01*
X1087960Y-1506459D01*
X1050880Y-1469400D01*
X1048439Y-1467380D01*
X1045800Y-1465980D01*
X1042960Y-1465120D01*
X1039800Y-1464800D01*
X1038040Y-1464800D01*
X1036480Y-1464480D01*
X1031740Y-1460940D01*
X1028340Y-1459220D01*
X1024720Y-1458120D01*
X1020960Y-1457620D01*
X1017159Y-1457800D01*
X1013439Y-1458600D01*
X1009920Y-1460000D01*
X1006680Y-1462000D01*
X1003840Y-1464500D01*
X1001440Y-1467460D01*
X999599Y-1470780D01*
X998340Y-1474360D01*
X997700Y-1478100D01*
X997700Y-1481900D01*
X998340Y-1485640D01*
X999599Y-1489220D01*
X1001440Y-1492540D01*
X1003840Y-1495500D01*
X1006680Y-1498000D01*
X1009920Y-1500000D01*
X1013439Y-1501399D01*
X1017159Y-1502200D01*
X1020960Y-1502380D01*
X1024720Y-1501879D01*
X1028340Y-1500780D01*
X1031740Y-1499060D01*
X1033580Y-1498000D01*
X1035000Y-1497860D01*
X1036360Y-1498220D01*
X1037520Y-1499019D01*
X1046760Y-1508260D01*
X1047640Y-1509560D01*
X1047940Y-1511100D01*
X1047620Y-1512640D01*
X1046740Y-1513940D01*
X1041680Y-1517000D01*
X1039640Y-1518800D01*
X1038400Y-1519540D01*
X1037000Y-1519800D01*
X902960Y-1519800D01*
X901420Y-1519500D01*
X900120Y-1518620D01*
X863500Y-1482020D01*
X862700Y-1480860D01*
X862340Y-1479520D01*
X862060Y-1476220D01*
X861120Y-1472540D01*
X859539Y-1469079D01*
X857420Y-1465940D01*
X854800Y-1463200D01*
X851740Y-1460940D01*
X848340Y-1459220D01*
X844720Y-1458120D01*
X840960Y-1457620D01*
X837159Y-1457800D01*
X833280Y-1458620D01*
X831580Y-1458620D01*
X830040Y-1457920D01*
X828920Y-1456620D01*
X828439Y-1455000D01*
X828680Y-1453320D01*
X829599Y-1451879D01*
X1270120Y-1011380D01*
X1271420Y-1010500D01*
X1272960Y-1010200D01*
X1522000Y-1010200D01*
X1523400Y-1010460D01*
X1524640Y-1011200D01*
X1526680Y-1013000D01*
X1529920Y-1015000D01*
X1533440Y-1016400D01*
X1537160Y-1017200D01*
X1540960Y-1017380D01*
X1544720Y-1016880D01*
X1548340Y-1015780D01*
X1551740Y-1014060D01*
X1554800Y-1011800D01*
X1557420Y-1009060D01*
X1559540Y-1005920D01*
X1561120Y-1002460D01*
X1562060Y-998780D01*
X1562400Y-995000D01*
X1562060Y-991220D01*
X1561120Y-987540D01*
X1559540Y-984080D01*
X1557420Y-980939D01*
X1554800Y-978199D01*
X1551740Y-975939D01*
X1548340Y-974220D01*
X1544720Y-973120D01*
X1540960Y-972620D01*
X1537160Y-972800D01*
X1533440Y-973600D01*
X1529920Y-975000D01*
X1526680Y-977000D01*
X1524640Y-978800D01*
X1523400Y-979539D01*
X1522000Y-979800D01*
X1314120Y-979800D01*
X1312500Y-979460D01*
X1311160Y-978480D01*
X1310320Y-977060D01*
X1309880Y-972039D01*
X1309019Y-969200D01*
X1307620Y-966560D01*
X1305600Y-964120D01*
X1266380Y-924880D01*
X1265500Y-923580D01*
X1265200Y-922039D01*
X1265200Y-738000D01*
X1265480Y-736500D01*
X1266320Y-735220D01*
X1267420Y-734060D01*
X1269540Y-730920D01*
X1271120Y-727460D01*
X1272060Y-723780D01*
X1272400Y-720000D01*
X1272060Y-716220D01*
X1271800Y-715200D01*
X1271700Y-713760D01*
X1272120Y-712360D01*
X1273000Y-711220D01*
X1274240Y-710460D01*
X1275680Y-710200D01*
X1307040Y-710200D01*
X1308580Y-710500D01*
X1309880Y-711380D01*
X1313180Y-714680D01*
X1314040Y-715960D01*
X1314340Y-717500D01*
X1314040Y-719040D01*
X1313180Y-720320D01*
X1304400Y-729120D01*
X1302380Y-731560D01*
X1300980Y-734200D01*
X1300120Y-737039D01*
X1299800Y-740200D01*
X1299800Y-741900D01*
X1299580Y-743240D01*
X1298920Y-744419D01*
X1296440Y-747460D01*
X1294600Y-750780D01*
X1293340Y-754360D01*
X1292700Y-758100D01*
X1292700Y-761900D01*
X1293340Y-765639D01*
X1294600Y-769220D01*
X1296440Y-772540D01*
X1298839Y-775500D01*
X1301680Y-778000D01*
X1304920Y-780000D01*
X1308440Y-781400D01*
X1312160Y-782200D01*
X1315960Y-782380D01*
X1319720Y-781880D01*
X1323340Y-780780D01*
X1326740Y-779060D01*
X1329800Y-776800D01*
X1332420Y-774060D01*
X1334540Y-770920D01*
X1336120Y-767460D01*
X1337060Y-763780D01*
X1337400Y-760000D01*
X1337060Y-756220D01*
X1336120Y-752540D01*
X1334540Y-749080D01*
X1333520Y-747560D01*
X1332960Y-746300D01*
X1332860Y-744940D01*
X1333220Y-743620D01*
X1334000Y-742500D01*
X1342960Y-733540D01*
X1344340Y-732640D01*
X1349720Y-731880D01*
X1353340Y-730780D01*
X1356740Y-729060D01*
X1359800Y-726800D01*
X1362420Y-724060D01*
X1364540Y-720920D01*
X1366120Y-717460D01*
X1367060Y-713780D01*
X1367400Y-710000D01*
X1367060Y-706220D01*
X1366120Y-702540D01*
X1364540Y-699080D01*
X1362420Y-695939D01*
X1359800Y-693199D01*
X1356740Y-690939D01*
X1353340Y-689220D01*
X1349720Y-688120D01*
X1345960Y-687620D01*
X1342160Y-687800D01*
X1338440Y-688600D01*
X1334940Y-690000D01*
X1333420Y-690280D01*
X1331900Y-689980D01*
X1330620Y-689120D01*
X1325880Y-684400D01*
X1323440Y-682380D01*
X1320800Y-680980D01*
X1317960Y-680120D01*
X1314800Y-679800D01*
X1240200Y-679800D01*
X1237040Y-680120D01*
X1234200Y-680980D01*
X1231560Y-682380D01*
X1229120Y-684400D01*
X1136980Y-776540D01*
X1135760Y-777360D01*
X1134320Y-777700D01*
X1132160Y-777800D01*
X1128440Y-778600D01*
X1124920Y-780000D01*
X1121680Y-782000D01*
X1119640Y-783800D01*
X1118400Y-784539D01*
X1117000Y-784800D01*
X1035200Y-784800D01*
X1032039Y-785120D01*
X1029200Y-785980D01*
X1026919Y-787200D01*
X1025200Y-787660D01*
X1022159Y-787800D01*
X1018439Y-788600D01*
X1014920Y-790000D01*
X1011680Y-792000D01*
X1008840Y-794500D01*
X1006440Y-797460D01*
X1004599Y-800780D01*
X1003340Y-804360D01*
X1002700Y-808100D01*
X1002700Y-811900D01*
X1003340Y-815639D01*
X1004599Y-819220D01*
X1006440Y-822540D01*
X1008840Y-825500D01*
X1011680Y-828000D01*
X1014920Y-830000D01*
X1018439Y-831400D01*
X1022159Y-832200D01*
X1025960Y-832380D01*
X1029720Y-831880D01*
X1033340Y-830780D01*
X1036740Y-829060D01*
X1039800Y-826800D01*
X1042420Y-824060D01*
X1044539Y-820920D01*
X1046060Y-817560D01*
X1046940Y-816320D01*
X1048220Y-815480D01*
X1049720Y-815200D01*
X1117000Y-815200D01*
X1118400Y-815460D01*
X1119640Y-816200D01*
X1121680Y-818000D01*
X1124920Y-820000D01*
X1128440Y-821400D01*
X1132160Y-822200D01*
X1135960Y-822380D01*
X1139720Y-821880D01*
X1143340Y-820780D01*
X1146740Y-819060D01*
X1149800Y-816800D01*
X1152420Y-814060D01*
X1154540Y-810920D01*
X1156120Y-807460D01*
X1157060Y-803780D01*
X1157340Y-800480D01*
X1157700Y-799140D01*
X1158500Y-797980D01*
X1225020Y-731480D01*
X1226240Y-730639D01*
X1227660Y-730300D01*
X1229120Y-730500D01*
X1230400Y-731220D01*
X1233920Y-735580D01*
X1234580Y-736760D01*
X1234800Y-738100D01*
X1234800Y-925800D01*
X1234500Y-927340D01*
X1233620Y-928620D01*
X1232340Y-929500D01*
X1230800Y-929800D01*
X1215200Y-929800D01*
X1212040Y-930120D01*
X1209200Y-930980D01*
X1206560Y-932380D01*
X1204120Y-934400D01*
X1184400Y-954120D01*
X1182380Y-956560D01*
X1180980Y-959200D01*
X1180120Y-962039D01*
X1179800Y-965200D01*
X1179800Y-976900D01*
X1179580Y-978240D01*
X1178920Y-979419D01*
X1176440Y-982460D01*
X1174600Y-985780D01*
X1173340Y-989360D01*
X1172700Y-993100D01*
X1172700Y-996900D01*
X1173340Y-1000639D01*
X1174600Y-1004220D01*
X1176440Y-1007540D01*
X1178840Y-1010500D01*
X1181680Y-1013000D01*
X1184920Y-1015000D01*
X1188440Y-1016400D01*
X1192160Y-1017200D01*
X1195960Y-1017380D01*
X1199720Y-1016880D01*
X1203340Y-1015780D01*
X1206740Y-1014060D01*
X1209800Y-1011800D01*
X1212420Y-1009060D01*
X1214540Y-1005920D01*
X1216120Y-1002460D01*
X1217060Y-998780D01*
X1217400Y-995000D01*
X1217060Y-991220D01*
X1216120Y-987540D01*
X1214540Y-984080D01*
X1212420Y-980939D01*
X1211320Y-979780D01*
X1210480Y-978500D01*
X1210200Y-977000D01*
X1210200Y-972960D01*
X1210500Y-971420D01*
X1211380Y-970120D01*
X1220120Y-961380D01*
X1221420Y-960500D01*
X1222960Y-960200D01*
X1257040Y-960200D01*
X1258580Y-960500D01*
X1259880Y-961380D01*
X1271480Y-972980D01*
X1272340Y-974260D01*
X1272640Y-975800D01*
X1272340Y-977340D01*
X1271480Y-978620D01*
X1270180Y-979500D01*
X1268640Y-979800D01*
X1265200Y-979800D01*
X1262040Y-980120D01*
X1259200Y-980980D01*
X1256560Y-982380D01*
X1254120Y-984400D01*
X768080Y-1470420D01*
X766680Y-1471320D01*
X765040Y-1471579D01*
X763420Y-1471140D01*
X762140Y-1470080D01*
X761380Y-1468600D01*
X761120Y-1467540D01*
X759539Y-1464079D01*
X757420Y-1460940D01*
X754800Y-1458200D01*
X751740Y-1455940D01*
X748340Y-1454220D01*
X744720Y-1453120D01*
X740960Y-1452620D01*
X737159Y-1452800D01*
X733439Y-1453600D01*
X729920Y-1455000D01*
X726680Y-1457000D01*
X723840Y-1459500D01*
X721440Y-1462460D01*
X719599Y-1465780D01*
X718340Y-1469360D01*
X717700Y-1473100D01*
X717700Y-1476900D01*
X718340Y-1480640D01*
X719599Y-1484220D01*
X721600Y-1487800D01*
X722080Y-1489440D01*
X721860Y-1491140D01*
X720920Y-1492580D01*
X540380Y-1673120D01*
X539220Y-1673940D01*
X537840Y-1674280D01*
X536420Y-1674139D01*
X535160Y-1673500D01*
X531720Y-1670920D01*
X528340Y-1669220D01*
X524720Y-1668120D01*
X520959Y-1667620D01*
X517160Y-1667800D01*
X513440Y-1668600D01*
X509920Y-1670000D01*
X506680Y-1672000D01*
X503840Y-1674500D01*
X501440Y-1677460D01*
X499600Y-1680780D01*
X498340Y-1684360D01*
X497700Y-1688100D01*
X497700Y-1691900D01*
X498340Y-1695640D01*
X499600Y-1699220D01*
X501440Y-1702540D01*
X503840Y-1705500D01*
X506680Y-1708000D01*
X509920Y-1710000D01*
X513440Y-1711399D01*
X517160Y-1712200D01*
X520959Y-1712380D01*
X524720Y-1711879D01*
X528340Y-1710780D01*
X531740Y-1709060D01*
X536480Y-1705520D01*
X538040Y-1705200D01*
X544800Y-1705200D01*
X547960Y-1704880D01*
X550800Y-1704019D01*
X553440Y-1702620D01*
X555880Y-1700600D01*
X750600Y-1505880D01*
X752700Y-1503320D01*
X753980Y-1502300D01*
X755540Y-1501879D01*
X757140Y-1502100D01*
X758540Y-1502940D01*
X759479Y-1504280D01*
X759800Y-1505860D01*
X759800Y-1557040D01*
X759500Y-1558580D01*
X758620Y-1559880D01*
X539880Y-1778620D01*
X538580Y-1779500D01*
X537040Y-1779800D01*
X503040Y-1779800D01*
X501480Y-1779480D01*
X496740Y-1775940D01*
X493340Y-1774220D01*
X489720Y-1773120D01*
X485959Y-1772620D01*
X482160Y-1772800D01*
X478440Y-1773600D01*
X475700Y-1774700D01*
X474159Y-1774980D01*
X472640Y-1774680D01*
X471360Y-1773800D01*
X470500Y-1772500D01*
X470200Y-1770980D01*
X470200Y-1535660D01*
X470600Y-1533940D01*
X471680Y-1532560D01*
X473280Y-1531780D01*
X475040Y-1531759D01*
X477160Y-1532200D01*
X480959Y-1532380D01*
X484720Y-1531879D01*
X488340Y-1530780D01*
X489520Y-1530300D01*
X490439Y-1530200D01*
X539980Y-1530200D01*
X541500Y-1530500D01*
X542800Y-1531380D01*
X563380Y-1551940D01*
X564320Y-1553440D01*
X564600Y-1554220D01*
X566440Y-1557540D01*
X568840Y-1560500D01*
X571680Y-1563000D01*
X574920Y-1565000D01*
X578440Y-1566399D01*
X582160Y-1567200D01*
X585960Y-1567380D01*
X589720Y-1566879D01*
X593340Y-1565780D01*
X596740Y-1564060D01*
X599800Y-1561800D01*
X602420Y-1559060D01*
X604540Y-1555920D01*
X606120Y-1552460D01*
X607060Y-1548779D01*
X607400Y-1545000D01*
X607060Y-1541220D01*
X606120Y-1537540D01*
X604540Y-1534079D01*
X602420Y-1530940D01*
X599800Y-1528200D01*
X596760Y-1525940D01*
X592900Y-1524019D01*
X591840Y-1523280D01*
X564340Y-1495780D01*
X562980Y-1494520D01*
X561580Y-1493460D01*
X560100Y-1492500D01*
X558540Y-1491699D01*
X556900Y-1491020D01*
X555220Y-1490500D01*
X553500Y-1490120D01*
X551760Y-1489880D01*
X549920Y-1489800D01*
X490439Y-1489800D01*
X489520Y-1489700D01*
X488340Y-1489220D01*
X484720Y-1488120D01*
X480959Y-1487620D01*
X477160Y-1487800D01*
X475040Y-1488240D01*
X473280Y-1488220D01*
X471680Y-1487440D01*
X470600Y-1486060D01*
X470200Y-1484340D01*
X470200Y-1247960D01*
X470500Y-1246420D01*
X471380Y-1245120D01*
X1095120Y-621380D01*
X1096420Y-620500D01*
X1097960Y-620200D01*
X1382040Y-620200D01*
X1383580Y-620500D01*
X1384880Y-621380D01*
X1514139Y-750639D01*
X1515060Y-752080D01*
X1515300Y-753780D01*
X1513340Y-759360D01*
X1512700Y-763100D01*
X1512700Y-766900D01*
X1513340Y-770639D01*
X1514600Y-774220D01*
X1516440Y-777540D01*
X1518839Y-780500D01*
X1521680Y-783000D01*
X1524920Y-785000D01*
X1528440Y-786400D01*
X1532160Y-787200D01*
X1535960Y-787380D01*
X1539720Y-786880D01*
X1543340Y-785780D01*
X1546740Y-784060D01*
X1549800Y-781800D01*
X1552420Y-779060D01*
X1554540Y-775920D01*
X1556120Y-772460D01*
X1557060Y-768780D01*
X1557400Y-765000D01*
X1557060Y-761220D01*
X1556120Y-757540D01*
X1554540Y-754080D01*
X1552420Y-750939D01*
X1550980Y-749440D01*
X1550240Y-748340D01*
X1549019Y-744200D01*
X1547620Y-741560D01*
X1545600Y-739120D01*
X1400880Y-594400D01*
X1398440Y-592380D01*
X1395800Y-590980D01*
X1392960Y-590120D01*
X1389800Y-589800D01*
X1090200Y-589800D01*
X1087040Y-590120D01*
X1084200Y-590980D01*
X1081560Y-592380D01*
X1079120Y-594400D01*
X444400Y-1229120D01*
X442380Y-1231560D01*
X440980Y-1234200D01*
X440120Y-1237040D01*
X439799Y-1240200D01*
X439799Y-1483959D01*
X439420Y-1485680D01*
X438340Y-1487060D01*
X436780Y-1487840D01*
X435020Y-1487880D01*
X433420Y-1487180D01*
X431740Y-1485940D01*
X428340Y-1484220D01*
X424720Y-1483120D01*
X421500Y-1482700D01*
X420040Y-1482220D01*
X418860Y-1481220D01*
X418160Y-1479840D01*
X418020Y-1478320D01*
X418480Y-1476840D01*
X419020Y-1475800D01*
X419880Y-1472960D01*
X420200Y-1469800D01*
X420200Y-1348000D01*
X420480Y-1346500D01*
X421320Y-1345220D01*
X422420Y-1344060D01*
X424540Y-1340920D01*
X426120Y-1337460D01*
X427060Y-1333779D01*
X427400Y-1330000D01*
X427060Y-1326220D01*
X426120Y-1322540D01*
X424540Y-1319079D01*
X422420Y-1315940D01*
X419799Y-1313200D01*
X416740Y-1310940D01*
X413340Y-1309220D01*
X409720Y-1308120D01*
X405959Y-1307620D01*
X402160Y-1307800D01*
X398440Y-1308600D01*
X394920Y-1310000D01*
X391680Y-1312000D01*
X388840Y-1314500D01*
X386440Y-1317460D01*
X384600Y-1320780D01*
X383340Y-1324360D01*
X382700Y-1328100D01*
X382700Y-1331900D01*
X383340Y-1335640D01*
X384600Y-1339220D01*
X386440Y-1342540D01*
X388920Y-1345580D01*
X389580Y-1346759D01*
X389799Y-1348100D01*
X389799Y-1462040D01*
X389500Y-1463580D01*
X388620Y-1464880D01*
X349400Y-1504120D01*
X347380Y-1506560D01*
X345980Y-1509199D01*
X345120Y-1512040D01*
X344799Y-1515200D01*
X344799Y-2214800D01*
X345120Y-2217960D01*
X345980Y-2220800D01*
X347380Y-2223440D01*
X349400Y-2225880D01*
X504120Y-2380600D01*
X506560Y-2382620D01*
X509200Y-2384020D01*
X512040Y-2384880D01*
X515200Y-2385200D01*
X659700Y-2385200D01*
X661240Y-2385500D01*
X662520Y-2386380D01*
X663400Y-2387660D01*
X663700Y-2389200D01*
X663700Y-2448700D01*
X664020Y-2451860D01*
X664880Y-2454700D01*
X666280Y-2457340D01*
X668300Y-2459780D01*
X947380Y-2738880D01*
X948240Y-2740160D01*
X948540Y-2741700D01*
X948240Y-2743240D01*
X947380Y-2744520D01*
X946080Y-2745400D01*
X944539Y-2745700D01*
G37*

%LPC*%
G36*
X2634500Y-2698440D02*
G01*
X2641080Y-2698440D01*
X2647600Y-2697740D01*
X2654020Y-2696320D01*
X2660240Y-2694220D01*
X2666200Y-2691440D01*
X2671820Y-2688039D01*
X2677060Y-2684060D01*
X2681800Y-2679520D01*
X2686040Y-2674500D01*
X2689720Y-2669060D01*
X2692780Y-2663240D01*
X2695179Y-2657120D01*
X2696900Y-2650779D01*
X2697940Y-2644300D01*
X2698240Y-2637980D01*
X2697940Y-2631280D01*
X2696900Y-2624800D01*
X2695179Y-2618460D01*
X2692780Y-2612340D01*
X2689720Y-2606520D01*
X2686040Y-2601080D01*
X2681800Y-2596060D01*
X2677060Y-2591520D01*
X2671820Y-2587540D01*
X2666200Y-2584140D01*
X2660240Y-2581360D01*
X2654020Y-2579260D01*
X2647600Y-2577840D01*
X2641080Y-2577140D01*
X2634500Y-2577140D01*
X2627980Y-2577840D01*
X2621560Y-2579260D01*
X2615340Y-2581360D01*
X2609380Y-2584140D01*
X2603759Y-2587540D01*
X2598519Y-2591520D01*
X2593780Y-2596060D01*
X2589540Y-2601080D01*
X2585860Y-2606520D01*
X2582799Y-2612340D01*
X2580400Y-2618460D01*
X2578680Y-2624800D01*
X2577640Y-2631280D01*
X2577340Y-2637600D01*
X2577640Y-2644300D01*
X2578680Y-2650779D01*
X2580400Y-2657120D01*
X2582799Y-2663240D01*
X2585860Y-2669060D01*
X2589540Y-2674500D01*
X2593780Y-2679520D01*
X2598519Y-2684060D01*
X2603759Y-2688039D01*
X2609380Y-2691440D01*
X2615340Y-2694220D01*
X2621560Y-2696320D01*
X2627980Y-2697740D01*
G37*
G36*
X114820Y-2698440D02*
G01*
X121400Y-2698440D01*
X127920Y-2697740D01*
X134340Y-2696320D01*
X140560Y-2694220D01*
X146520Y-2691440D01*
X152140Y-2688039D01*
X157380Y-2684060D01*
X162120Y-2679520D01*
X166360Y-2674500D01*
X170040Y-2669060D01*
X173100Y-2663240D01*
X175500Y-2657120D01*
X177220Y-2650779D01*
X178260Y-2644300D01*
X178560Y-2637980D01*
X178260Y-2631280D01*
X177220Y-2624800D01*
X175500Y-2618460D01*
X173100Y-2612340D01*
X170040Y-2606520D01*
X166360Y-2601080D01*
X162120Y-2596060D01*
X157380Y-2591520D01*
X152140Y-2587540D01*
X146520Y-2584140D01*
X140560Y-2581360D01*
X134340Y-2579260D01*
X127920Y-2577840D01*
X121400Y-2577140D01*
X114820Y-2577140D01*
X108300Y-2577840D01*
X101880Y-2579260D01*
X95660Y-2581360D01*
X89700Y-2584140D01*
X84080Y-2587540D01*
X78860Y-2591520D01*
X74100Y-2596060D01*
X69860Y-2601080D01*
X66180Y-2606520D01*
X63120Y-2612340D01*
X60720Y-2618460D01*
X59000Y-2624800D01*
X57960Y-2631280D01*
X57660Y-2637600D01*
X57960Y-2644300D01*
X59000Y-2650779D01*
X60720Y-2657120D01*
X63120Y-2663240D01*
X66180Y-2669060D01*
X69860Y-2674500D01*
X74100Y-2679520D01*
X78860Y-2684060D01*
X84080Y-2688039D01*
X89700Y-2691440D01*
X95660Y-2694220D01*
X101880Y-2696320D01*
X108300Y-2697740D01*
G37*
G36*
X1482300Y-2692700D02*
G01*
X1491380Y-2692700D01*
X1493860Y-2692420D01*
X1496020Y-2691660D01*
X1497940Y-2690460D01*
X1499560Y-2688840D01*
X1500760Y-2686920D01*
X1501519Y-2684760D01*
X1501800Y-2682280D01*
X1501800Y-2663759D01*
X1482300Y-2663759D01*
G37*
G36*
X1444620Y-2692700D02*
G01*
X1453700Y-2692700D01*
X1453700Y-2663759D01*
X1434199Y-2663759D01*
X1434199Y-2682280D01*
X1434480Y-2684760D01*
X1435240Y-2686920D01*
X1436440Y-2688840D01*
X1438060Y-2690460D01*
X1439980Y-2691660D01*
X1442140Y-2692420D01*
G37*
G36*
X1845960Y-2630360D02*
G01*
X1849720Y-2629880D01*
X1853340Y-2628759D01*
X1856740Y-2627060D01*
X1859800Y-2624800D01*
X1862420Y-2622060D01*
X1864540Y-2618900D01*
X1866120Y-2615440D01*
X1867060Y-2611780D01*
X1867400Y-2608000D01*
X1867060Y-2604200D01*
X1866120Y-2600539D01*
X1863760Y-2595500D01*
X1863660Y-2594120D01*
X1864019Y-2592799D01*
X1864820Y-2591680D01*
X1900600Y-2555880D01*
X1902620Y-2553440D01*
X1904019Y-2550800D01*
X1904880Y-2547960D01*
X1905200Y-2544800D01*
X1905200Y-2255200D01*
X1904880Y-2252040D01*
X1904019Y-2249200D01*
X1902620Y-2246560D01*
X1900600Y-2244120D01*
X1823500Y-2167020D01*
X1822700Y-2165860D01*
X1822340Y-2164520D01*
X1822060Y-2161220D01*
X1821120Y-2157540D01*
X1819540Y-2154080D01*
X1817420Y-2150940D01*
X1814800Y-2148200D01*
X1811740Y-2145940D01*
X1808340Y-2144220D01*
X1804720Y-2143120D01*
X1800960Y-2142620D01*
X1797160Y-2142800D01*
X1793440Y-2143600D01*
X1789920Y-2145000D01*
X1786680Y-2147000D01*
X1783839Y-2149500D01*
X1781440Y-2152460D01*
X1779600Y-2155780D01*
X1778340Y-2159360D01*
X1777700Y-2163100D01*
X1777700Y-2166900D01*
X1778340Y-2170640D01*
X1779600Y-2174220D01*
X1781440Y-2177540D01*
X1783839Y-2180500D01*
X1786680Y-2183000D01*
X1789920Y-2185000D01*
X1793440Y-2186400D01*
X1797160Y-2187200D01*
X1799319Y-2187300D01*
X1800760Y-2187640D01*
X1801980Y-2188460D01*
X1873620Y-2260120D01*
X1874500Y-2261420D01*
X1874800Y-2262960D01*
X1874800Y-2537040D01*
X1874500Y-2538580D01*
X1873620Y-2539880D01*
X1834400Y-2579120D01*
X1832380Y-2581560D01*
X1830980Y-2584200D01*
X1830120Y-2587040D01*
X1829800Y-2590260D01*
X1829520Y-2591380D01*
X1828920Y-2592380D01*
X1826440Y-2595460D01*
X1824600Y-2598759D01*
X1823340Y-2602340D01*
X1822700Y-2606100D01*
X1822700Y-2609880D01*
X1823340Y-2613639D01*
X1824600Y-2617220D01*
X1826440Y-2620520D01*
X1828839Y-2623480D01*
X1831680Y-2626000D01*
X1834920Y-2627980D01*
X1838440Y-2629400D01*
X1842160Y-2630200D01*
G37*
G36*
X1434199Y-2616259D02*
G01*
X1453700Y-2616259D01*
X1453700Y-2587300D01*
X1444620Y-2587300D01*
X1442140Y-2587580D01*
X1439980Y-2588340D01*
X1438060Y-2589540D01*
X1436440Y-2591160D01*
X1435240Y-2593080D01*
X1434480Y-2595240D01*
X1434199Y-2597720D01*
G37*
G36*
X1482300Y-2616259D02*
G01*
X1501800Y-2616259D01*
X1501800Y-2597720D01*
X1501519Y-2595240D01*
X1500760Y-2593080D01*
X1499560Y-2591160D01*
X1497940Y-2589540D01*
X1496020Y-2588340D01*
X1493860Y-2587580D01*
X1491380Y-2587300D01*
X1482300Y-2587300D01*
G37*
G36*
X2395960Y-2447380D02*
G01*
X2399720Y-2446880D01*
X2403340Y-2445780D01*
X2406740Y-2444060D01*
X2409800Y-2441800D01*
X2412420Y-2439060D01*
X2414540Y-2435920D01*
X2416120Y-2432460D01*
X2417060Y-2428780D01*
X2417400Y-2425000D01*
X2417060Y-2421220D01*
X2416120Y-2417540D01*
X2414540Y-2414080D01*
X2412420Y-2410940D01*
X2409800Y-2408200D01*
X2406740Y-2405940D01*
X2403340Y-2404220D01*
X2399720Y-2403120D01*
X2395960Y-2402620D01*
X2392160Y-2402800D01*
X2388440Y-2403600D01*
X2386160Y-2404520D01*
X2384660Y-2404800D01*
X2153760Y-2404800D01*
X2152400Y-2404560D01*
X2151200Y-2403880D01*
X2045920Y-2316140D01*
X2044840Y-2314720D01*
X2044540Y-2314080D01*
X2042420Y-2310940D01*
X2039800Y-2308200D01*
X2036740Y-2305940D01*
X2033340Y-2304220D01*
X2029720Y-2303120D01*
X2025960Y-2302620D01*
X2022160Y-2302800D01*
X2018440Y-2303600D01*
X2014920Y-2305000D01*
X2011680Y-2307000D01*
X2008839Y-2309500D01*
X2006440Y-2312460D01*
X2004600Y-2315780D01*
X2003340Y-2319360D01*
X2002700Y-2323100D01*
X2002700Y-2326900D01*
X2003340Y-2330640D01*
X2004600Y-2334220D01*
X2006440Y-2337540D01*
X2008839Y-2340500D01*
X2011680Y-2343000D01*
X2014920Y-2345000D01*
X2019340Y-2346720D01*
X2020140Y-2347240D01*
X2131940Y-2440400D01*
X2134900Y-2442480D01*
X2138100Y-2443960D01*
X2141500Y-2444880D01*
X2145180Y-2445200D01*
X2384660Y-2445200D01*
X2386160Y-2445480D01*
X2388440Y-2446400D01*
X2392160Y-2447200D01*
G37*
G36*
X2630000Y-2397820D02*
G01*
X2636660Y-2397460D01*
X2643220Y-2396340D01*
X2649620Y-2394500D01*
X2655779Y-2391940D01*
X2661600Y-2388720D01*
X2667040Y-2384860D01*
X2672000Y-2380420D01*
X2676440Y-2375460D01*
X2680299Y-2370020D01*
X2683519Y-2364200D01*
X2686080Y-2358040D01*
X2687919Y-2351640D01*
X2689040Y-2345080D01*
X2689400Y-2338420D01*
X2689040Y-2331760D01*
X2687919Y-2325200D01*
X2686080Y-2318800D01*
X2683519Y-2312640D01*
X2680299Y-2306820D01*
X2676440Y-2301380D01*
X2672000Y-2296420D01*
X2667040Y-2291980D01*
X2661600Y-2288120D01*
X2655779Y-2284900D01*
X2649620Y-2282340D01*
X2643220Y-2280500D01*
X2636660Y-2279380D01*
X2630000Y-2279020D01*
X2623340Y-2279380D01*
X2616780Y-2280500D01*
X2610380Y-2282340D01*
X2604220Y-2284900D01*
X2598399Y-2288120D01*
X2592960Y-2291980D01*
X2588000Y-2296420D01*
X2583560Y-2301380D01*
X2579700Y-2306820D01*
X2576480Y-2312640D01*
X2573920Y-2318800D01*
X2572080Y-2325200D01*
X2570960Y-2331760D01*
X2570600Y-2338420D01*
X2570960Y-2345080D01*
X2572080Y-2351640D01*
X2573920Y-2358040D01*
X2576480Y-2364200D01*
X2579700Y-2370020D01*
X2583560Y-2375460D01*
X2588000Y-2380420D01*
X2592960Y-2384860D01*
X2598399Y-2388720D01*
X2604220Y-2391940D01*
X2610380Y-2394500D01*
X2616780Y-2396340D01*
X2623340Y-2397460D01*
G37*
G36*
X1445960Y-2322380D02*
G01*
X1449720Y-2321880D01*
X1453340Y-2320780D01*
X1456740Y-2319060D01*
X1459800Y-2316800D01*
X1462420Y-2314060D01*
X1464540Y-2310920D01*
X1465820Y-2308120D01*
X1466639Y-2306940D01*
X1602200Y-2171380D01*
X1603500Y-2170500D01*
X1605020Y-2170200D01*
X1714660Y-2170200D01*
X1716160Y-2170480D01*
X1718440Y-2171400D01*
X1722160Y-2172200D01*
X1725960Y-2172380D01*
X1729720Y-2171880D01*
X1733340Y-2170780D01*
X1736740Y-2169060D01*
X1739800Y-2166800D01*
X1742420Y-2164060D01*
X1744540Y-2160920D01*
X1746120Y-2157460D01*
X1747060Y-2153780D01*
X1747400Y-2150000D01*
X1747060Y-2146220D01*
X1746120Y-2142540D01*
X1744540Y-2139080D01*
X1742420Y-2135940D01*
X1739800Y-2133200D01*
X1736740Y-2130940D01*
X1733340Y-2129220D01*
X1729720Y-2128120D01*
X1725960Y-2127620D01*
X1722160Y-2127800D01*
X1718440Y-2128600D01*
X1716160Y-2129520D01*
X1714660Y-2129800D01*
X1595080Y-2129800D01*
X1593240Y-2129880D01*
X1591500Y-2130120D01*
X1589780Y-2130500D01*
X1588100Y-2131020D01*
X1586459Y-2131700D01*
X1584900Y-2132500D01*
X1583420Y-2133460D01*
X1582020Y-2134520D01*
X1580660Y-2135780D01*
X1438020Y-2278420D01*
X1436680Y-2279300D01*
X1434920Y-2280000D01*
X1431680Y-2282000D01*
X1428839Y-2284500D01*
X1426440Y-2287460D01*
X1424600Y-2290780D01*
X1423340Y-2294360D01*
X1422700Y-2298100D01*
X1422700Y-2301900D01*
X1423340Y-2305640D01*
X1424600Y-2309220D01*
X1426440Y-2312540D01*
X1428839Y-2315500D01*
X1431680Y-2318000D01*
X1434920Y-2320000D01*
X1438440Y-2321400D01*
X1442160Y-2322200D01*
G37*
G36*
X2195960Y-2264220D02*
G01*
X2199720Y-2263740D01*
X2203340Y-2262620D01*
X2206740Y-2260920D01*
X2209800Y-2258660D01*
X2212420Y-2255920D01*
X2214540Y-2252760D01*
X2216120Y-2249300D01*
X2217060Y-2245640D01*
X2217400Y-2241860D01*
X2217060Y-2238060D01*
X2216120Y-2234400D01*
X2214540Y-2230940D01*
X2212420Y-2227780D01*
X2211320Y-2226620D01*
X2210480Y-2225360D01*
X2210200Y-2223860D01*
X2210200Y-2182960D01*
X2210500Y-2181420D01*
X2211380Y-2180120D01*
X2408080Y-1983420D01*
X2409460Y-1982520D01*
X2411080Y-1982240D01*
X2413940Y-1982380D01*
X2417700Y-1981879D01*
X2421340Y-1980780D01*
X2424720Y-1979060D01*
X2427780Y-1976800D01*
X2430420Y-1974060D01*
X2432540Y-1970920D01*
X2434100Y-1967460D01*
X2435060Y-1963779D01*
X2435380Y-1960000D01*
X2435060Y-1956220D01*
X2434100Y-1952540D01*
X2432540Y-1949079D01*
X2430420Y-1945940D01*
X2427780Y-1943200D01*
X2424720Y-1940940D01*
X2421340Y-1939220D01*
X2417700Y-1938120D01*
X2413940Y-1937620D01*
X2410140Y-1937800D01*
X2406440Y-1938600D01*
X2402900Y-1940000D01*
X2399680Y-1942000D01*
X2396820Y-1944500D01*
X2394440Y-1947460D01*
X2392580Y-1950780D01*
X2391320Y-1954360D01*
X2390960Y-1956519D01*
X2390560Y-1957680D01*
X2389840Y-1958660D01*
X2184400Y-2164120D01*
X2182380Y-2166560D01*
X2180980Y-2169200D01*
X2180120Y-2172040D01*
X2179800Y-2175200D01*
X2179800Y-2223740D01*
X2179580Y-2225080D01*
X2178920Y-2226260D01*
X2176440Y-2229320D01*
X2174600Y-2232620D01*
X2173340Y-2236200D01*
X2172700Y-2239960D01*
X2172700Y-2243740D01*
X2173340Y-2247500D01*
X2174600Y-2251080D01*
X2176440Y-2254380D01*
X2178840Y-2257340D01*
X2181680Y-2259860D01*
X2184920Y-2261840D01*
X2188440Y-2263260D01*
X2192160Y-2264060D01*
G37*
G36*
X2025960Y-2227380D02*
G01*
X2029720Y-2226880D01*
X2033340Y-2225780D01*
X2036740Y-2224060D01*
X2039800Y-2221800D01*
X2042420Y-2219060D01*
X2044540Y-2215920D01*
X2046120Y-2212460D01*
X2047060Y-2208780D01*
X2047400Y-2205000D01*
X2047060Y-2201220D01*
X2046120Y-2197540D01*
X2044540Y-2194080D01*
X2042420Y-2190940D01*
X2039800Y-2188200D01*
X2036740Y-2185940D01*
X2033340Y-2184220D01*
X2029720Y-2183120D01*
X2024340Y-2182360D01*
X2022960Y-2181460D01*
X1996380Y-2154880D01*
X1995500Y-2153580D01*
X1995200Y-2152040D01*
X1995200Y-1720460D01*
X1995500Y-1718920D01*
X1996380Y-1717620D01*
X2003520Y-1710460D01*
X2004900Y-1709580D01*
X2006500Y-1709300D01*
X2010260Y-1708820D01*
X2013899Y-1707700D01*
X2017280Y-1706000D01*
X2020340Y-1703740D01*
X2022980Y-1701000D01*
X2025100Y-1697840D01*
X2026660Y-1694379D01*
X2027620Y-1690720D01*
X2027940Y-1686940D01*
X2027620Y-1683140D01*
X2026660Y-1679480D01*
X2025100Y-1676020D01*
X2022980Y-1672860D01*
X2020340Y-1670120D01*
X2017280Y-1667860D01*
X2013899Y-1666160D01*
X2010260Y-1665040D01*
X2006500Y-1664560D01*
X2002700Y-1664720D01*
X1999000Y-1665520D01*
X1995460Y-1666940D01*
X1992240Y-1668920D01*
X1989379Y-1671440D01*
X1987000Y-1674400D01*
X1985140Y-1677700D01*
X1983880Y-1681279D01*
X1983240Y-1685040D01*
X1983240Y-1686100D01*
X1982940Y-1687640D01*
X1982060Y-1688940D01*
X1969400Y-1701620D01*
X1967380Y-1704060D01*
X1965980Y-1706699D01*
X1965120Y-1709540D01*
X1964800Y-1712700D01*
X1964800Y-2159800D01*
X1965120Y-2162960D01*
X1965980Y-2165800D01*
X1967380Y-2168440D01*
X1969400Y-2170880D01*
X2001519Y-2203020D01*
X2002380Y-2204320D01*
X2002700Y-2205840D01*
X2002700Y-2206900D01*
X2003340Y-2210640D01*
X2004600Y-2214220D01*
X2006440Y-2217540D01*
X2008839Y-2220500D01*
X2011680Y-2223000D01*
X2014920Y-2225000D01*
X2018440Y-2226400D01*
X2022160Y-2227200D01*
G37*
G36*
X2602900Y-2194360D02*
G01*
X2602900Y-2168680D01*
X2577220Y-2168680D01*
X2579700Y-2173180D01*
X2583560Y-2178600D01*
X2588000Y-2183580D01*
X2592960Y-2188020D01*
X2598399Y-2191880D01*
G37*
G36*
X2657100Y-2194360D02*
G01*
X2661600Y-2191880D01*
X2667040Y-2188020D01*
X2672000Y-2183580D01*
X2676440Y-2178600D01*
X2680299Y-2173180D01*
X2682780Y-2168680D01*
X2657100Y-2168680D01*
G37*
G36*
X2577220Y-2114460D02*
G01*
X2602900Y-2114460D01*
X2602900Y-2088779D01*
X2598399Y-2091260D01*
X2592960Y-2095120D01*
X2588000Y-2099560D01*
X2583560Y-2104540D01*
X2579700Y-2109960D01*
G37*
G36*
X2657100Y-2114460D02*
G01*
X2682780Y-2114460D01*
X2680299Y-2109960D01*
X2676440Y-2104540D01*
X2672000Y-2099560D01*
X2667040Y-2095120D01*
X2661600Y-2091260D01*
X2657100Y-2088779D01*
G37*
G36*
X1850960Y-2057380D02*
G01*
X1854720Y-2056879D01*
X1858340Y-2055780D01*
X1861740Y-2054060D01*
X1864800Y-2051800D01*
X1867420Y-2049060D01*
X1869540Y-2045920D01*
X1871120Y-2042460D01*
X1872060Y-2038779D01*
X1872340Y-2035480D01*
X1872700Y-2034139D01*
X1873500Y-2032980D01*
X1910600Y-1995880D01*
X1912620Y-1993440D01*
X1914019Y-1990800D01*
X1914880Y-1987960D01*
X1915200Y-1984800D01*
X1915200Y-1863000D01*
X1915480Y-1861500D01*
X1916320Y-1860220D01*
X1917420Y-1859060D01*
X1919540Y-1855920D01*
X1921120Y-1852460D01*
X1922060Y-1848779D01*
X1922400Y-1845000D01*
X1922060Y-1841220D01*
X1921120Y-1837540D01*
X1919540Y-1834079D01*
X1917420Y-1830940D01*
X1914800Y-1828200D01*
X1911740Y-1825940D01*
X1908340Y-1824220D01*
X1904720Y-1823120D01*
X1900960Y-1822620D01*
X1897160Y-1822800D01*
X1893440Y-1823600D01*
X1889920Y-1825000D01*
X1886680Y-1827000D01*
X1883839Y-1829500D01*
X1881440Y-1832460D01*
X1879600Y-1835780D01*
X1878340Y-1839360D01*
X1877700Y-1843100D01*
X1877700Y-1846900D01*
X1878340Y-1850640D01*
X1879600Y-1854220D01*
X1881440Y-1857540D01*
X1883920Y-1860580D01*
X1884580Y-1861759D01*
X1884800Y-1863100D01*
X1884800Y-1977040D01*
X1884500Y-1978580D01*
X1883620Y-1979880D01*
X1851980Y-2011540D01*
X1850760Y-2012360D01*
X1849319Y-2012700D01*
X1847160Y-2012800D01*
X1843440Y-2013600D01*
X1839920Y-2015000D01*
X1836680Y-2017000D01*
X1833839Y-2019500D01*
X1831440Y-2022460D01*
X1829600Y-2025780D01*
X1828340Y-2029360D01*
X1827700Y-2033100D01*
X1827700Y-2036900D01*
X1828340Y-2040640D01*
X1829600Y-2044220D01*
X1831440Y-2047540D01*
X1833839Y-2050500D01*
X1836680Y-2053000D01*
X1839920Y-2055000D01*
X1843440Y-2056399D01*
X1847160Y-2057200D01*
G37*
G36*
X1636759Y-2033660D02*
G01*
X1703240Y-2033660D01*
X1705720Y-2033380D01*
X1707880Y-2032640D01*
X1709800Y-2031420D01*
X1711420Y-2029800D01*
X1712640Y-2027880D01*
X1713380Y-2025720D01*
X1713660Y-2023240D01*
X1713660Y-1956759D01*
X1713380Y-1954280D01*
X1712640Y-1952120D01*
X1711420Y-1950200D01*
X1709800Y-1948580D01*
X1707880Y-1947360D01*
X1705720Y-1946620D01*
X1703240Y-1946339D01*
X1689199Y-1946339D01*
X1687660Y-1946040D01*
X1686380Y-1945160D01*
X1685500Y-1943860D01*
X1685200Y-1942340D01*
X1685200Y-1933620D01*
X1685460Y-1932200D01*
X1686220Y-1930960D01*
X1687360Y-1930060D01*
X1692640Y-1927340D01*
X1697220Y-1924139D01*
X1701360Y-1920380D01*
X1704980Y-1916120D01*
X1708040Y-1911420D01*
X1710460Y-1906380D01*
X1712220Y-1901080D01*
X1713300Y-1895580D01*
X1713660Y-1890000D01*
X1713300Y-1884420D01*
X1712220Y-1878920D01*
X1710460Y-1873620D01*
X1708040Y-1868580D01*
X1704980Y-1863880D01*
X1701360Y-1859620D01*
X1697220Y-1855860D01*
X1692640Y-1852680D01*
X1687360Y-1849940D01*
X1686220Y-1849040D01*
X1685460Y-1847800D01*
X1685200Y-1846380D01*
X1685200Y-1500200D01*
X1684880Y-1497040D01*
X1684019Y-1494199D01*
X1682620Y-1491560D01*
X1680600Y-1489120D01*
X1583500Y-1392020D01*
X1582700Y-1390860D01*
X1582340Y-1389520D01*
X1582060Y-1386220D01*
X1581120Y-1382540D01*
X1579540Y-1379079D01*
X1577420Y-1375940D01*
X1574800Y-1373200D01*
X1573060Y-1371920D01*
X1572360Y-1371240D01*
X1570600Y-1369120D01*
X1550880Y-1349400D01*
X1548440Y-1347380D01*
X1545800Y-1345980D01*
X1542960Y-1345120D01*
X1539800Y-1344800D01*
X1465200Y-1344800D01*
X1462040Y-1345120D01*
X1459199Y-1345980D01*
X1456560Y-1347380D01*
X1454120Y-1349400D01*
X1389880Y-1413620D01*
X1388580Y-1414500D01*
X1387040Y-1414800D01*
X1379199Y-1414800D01*
X1377460Y-1414460D01*
X1375860Y-1414300D01*
X1374379Y-1413820D01*
X1372880Y-1414300D01*
X1371279Y-1414460D01*
X1368300Y-1415360D01*
X1365960Y-1416620D01*
X1364400Y-1417080D01*
X1362800Y-1416879D01*
X1361399Y-1416060D01*
X1360440Y-1414780D01*
X1360060Y-1413200D01*
X1360360Y-1411600D01*
X1361240Y-1410260D01*
X1364520Y-1406980D01*
X1365820Y-1406100D01*
X1367360Y-1405800D01*
X1369440Y-1405800D01*
X1371279Y-1406180D01*
X1372880Y-1406339D01*
X1374379Y-1406800D01*
X1375860Y-1406339D01*
X1377460Y-1406180D01*
X1380440Y-1405280D01*
X1383180Y-1403800D01*
X1385580Y-1401840D01*
X1387540Y-1399440D01*
X1389019Y-1396699D01*
X1389920Y-1393720D01*
X1390220Y-1390640D01*
X1389920Y-1387540D01*
X1389019Y-1384560D01*
X1387540Y-1381819D01*
X1385580Y-1379420D01*
X1383180Y-1377460D01*
X1380440Y-1375980D01*
X1377460Y-1375080D01*
X1374379Y-1374780D01*
X1371279Y-1375080D01*
X1369640Y-1375400D01*
X1359600Y-1375400D01*
X1356440Y-1375720D01*
X1353600Y-1376579D01*
X1350960Y-1377980D01*
X1350240Y-1378580D01*
X1349060Y-1379240D01*
X1347700Y-1379480D01*
X1346360Y-1379240D01*
X1345160Y-1378580D01*
X1343800Y-1377460D01*
X1341060Y-1375980D01*
X1338100Y-1375080D01*
X1335000Y-1374780D01*
X1331900Y-1375080D01*
X1328940Y-1375980D01*
X1326200Y-1377460D01*
X1323800Y-1379420D01*
X1321819Y-1381819D01*
X1320360Y-1384560D01*
X1319460Y-1387540D01*
X1319300Y-1389139D01*
X1318820Y-1390640D01*
X1319300Y-1392120D01*
X1319460Y-1393720D01*
X1320360Y-1396699D01*
X1321819Y-1399440D01*
X1322940Y-1400800D01*
X1323620Y-1402000D01*
X1323860Y-1403340D01*
X1323620Y-1404680D01*
X1322940Y-1405880D01*
X1322380Y-1406560D01*
X1320980Y-1409199D01*
X1320120Y-1412040D01*
X1319800Y-1415200D01*
X1319800Y-1425180D01*
X1319460Y-1426900D01*
X1319300Y-1428520D01*
X1318820Y-1430000D01*
X1319300Y-1431480D01*
X1319460Y-1433100D01*
X1320360Y-1436060D01*
X1321819Y-1438800D01*
X1323800Y-1441200D01*
X1326200Y-1443180D01*
X1327220Y-1443740D01*
X1328440Y-1444720D01*
X1329400Y-1445880D01*
X1331339Y-1447840D01*
X1332240Y-1449220D01*
X1332520Y-1450820D01*
X1332120Y-1452420D01*
X1331120Y-1453720D01*
X1329680Y-1454500D01*
X1328940Y-1454720D01*
X1326200Y-1456200D01*
X1323800Y-1458160D01*
X1321819Y-1460560D01*
X1320840Y-1462040D01*
X1317160Y-1465720D01*
X1315780Y-1466620D01*
X1314180Y-1466879D01*
X1312580Y-1466480D01*
X1311279Y-1465480D01*
X1310500Y-1464060D01*
X1310280Y-1463300D01*
X1308800Y-1460560D01*
X1306840Y-1458160D01*
X1304440Y-1456200D01*
X1301699Y-1454720D01*
X1298720Y-1453820D01*
X1297120Y-1453660D01*
X1295520Y-1453160D01*
X1294280Y-1452040D01*
X1293600Y-1450520D01*
X1293600Y-1448839D01*
X1294280Y-1447320D01*
X1295520Y-1446220D01*
X1297120Y-1445700D01*
X1298720Y-1445540D01*
X1301699Y-1444640D01*
X1304440Y-1443180D01*
X1306840Y-1441200D01*
X1308800Y-1438800D01*
X1310280Y-1436060D01*
X1311180Y-1433100D01*
X1311339Y-1431480D01*
X1311800Y-1430000D01*
X1311339Y-1428520D01*
X1311180Y-1426900D01*
X1310280Y-1423940D01*
X1308800Y-1421200D01*
X1306840Y-1418800D01*
X1304440Y-1416819D01*
X1301699Y-1415360D01*
X1300940Y-1415140D01*
X1299520Y-1414340D01*
X1298520Y-1413040D01*
X1298120Y-1411459D01*
X1298380Y-1409840D01*
X1299280Y-1408480D01*
X1302960Y-1404780D01*
X1304440Y-1403800D01*
X1306840Y-1401840D01*
X1308800Y-1399440D01*
X1310280Y-1396699D01*
X1311180Y-1393720D01*
X1311339Y-1392120D01*
X1311800Y-1390640D01*
X1311339Y-1389139D01*
X1311180Y-1387540D01*
X1310280Y-1384560D01*
X1308800Y-1381819D01*
X1306840Y-1379420D01*
X1304440Y-1377460D01*
X1301699Y-1375980D01*
X1298720Y-1375080D01*
X1295640Y-1374780D01*
X1292540Y-1375080D01*
X1289560Y-1375980D01*
X1286819Y-1377460D01*
X1284420Y-1379420D01*
X1282460Y-1381819D01*
X1281480Y-1383300D01*
X1264400Y-1400380D01*
X1262380Y-1402820D01*
X1260980Y-1405460D01*
X1260120Y-1408300D01*
X1259800Y-1411459D01*
X1259800Y-1506900D01*
X1259580Y-1508240D01*
X1258920Y-1509420D01*
X1256440Y-1512460D01*
X1254600Y-1515780D01*
X1253340Y-1519360D01*
X1252700Y-1523100D01*
X1252700Y-1526900D01*
X1253340Y-1530640D01*
X1254600Y-1534220D01*
X1256440Y-1537540D01*
X1258840Y-1540500D01*
X1261680Y-1543000D01*
X1264920Y-1545000D01*
X1268440Y-1546399D01*
X1272160Y-1547200D01*
X1275960Y-1547380D01*
X1279720Y-1546879D01*
X1283340Y-1545780D01*
X1286740Y-1544060D01*
X1289800Y-1541800D01*
X1292420Y-1539060D01*
X1294540Y-1535920D01*
X1296120Y-1532460D01*
X1296900Y-1529400D01*
X1297660Y-1527900D01*
X1298980Y-1526840D01*
X1300600Y-1526420D01*
X1302260Y-1526699D01*
X1303660Y-1527640D01*
X1306440Y-1532540D01*
X1308839Y-1535500D01*
X1311680Y-1538000D01*
X1314920Y-1540000D01*
X1318440Y-1541399D01*
X1322160Y-1542200D01*
X1325960Y-1542380D01*
X1329720Y-1541879D01*
X1333340Y-1540780D01*
X1336740Y-1539060D01*
X1339800Y-1536800D01*
X1342420Y-1534060D01*
X1344540Y-1530920D01*
X1346120Y-1527460D01*
X1347060Y-1523779D01*
X1347400Y-1520000D01*
X1347060Y-1516220D01*
X1346120Y-1512540D01*
X1344540Y-1509079D01*
X1342420Y-1505940D01*
X1341320Y-1504780D01*
X1340480Y-1503500D01*
X1340200Y-1502000D01*
X1340200Y-1487320D01*
X1340500Y-1485800D01*
X1341380Y-1484500D01*
X1342340Y-1483520D01*
X1343800Y-1482540D01*
X1346200Y-1480580D01*
X1348180Y-1478180D01*
X1349640Y-1475440D01*
X1349880Y-1474680D01*
X1350660Y-1473260D01*
X1351960Y-1472260D01*
X1353540Y-1471860D01*
X1355160Y-1472120D01*
X1356519Y-1473020D01*
X1360220Y-1476699D01*
X1361200Y-1478180D01*
X1363160Y-1480580D01*
X1365560Y-1482540D01*
X1367040Y-1483520D01*
X1368620Y-1485120D01*
X1369500Y-1486420D01*
X1369800Y-1487960D01*
X1369800Y-1506900D01*
X1369580Y-1508240D01*
X1368920Y-1509420D01*
X1366440Y-1512460D01*
X1364600Y-1515780D01*
X1363340Y-1519360D01*
X1362700Y-1523100D01*
X1362700Y-1526900D01*
X1363340Y-1530640D01*
X1364600Y-1534220D01*
X1366440Y-1537540D01*
X1368839Y-1540500D01*
X1371680Y-1543000D01*
X1374920Y-1545000D01*
X1378440Y-1546399D01*
X1382160Y-1547200D01*
X1385960Y-1547380D01*
X1389720Y-1546879D01*
X1393340Y-1545780D01*
X1396740Y-1544060D01*
X1399800Y-1541800D01*
X1402420Y-1539060D01*
X1404540Y-1535920D01*
X1406120Y-1532460D01*
X1407060Y-1528779D01*
X1407400Y-1525000D01*
X1407060Y-1521220D01*
X1406120Y-1517540D01*
X1404540Y-1514079D01*
X1402420Y-1510940D01*
X1401320Y-1509780D01*
X1400480Y-1508500D01*
X1400200Y-1507000D01*
X1400200Y-1480200D01*
X1399880Y-1477040D01*
X1399019Y-1474199D01*
X1397620Y-1471560D01*
X1395600Y-1469120D01*
X1388520Y-1462040D01*
X1387540Y-1460560D01*
X1385580Y-1458160D01*
X1383180Y-1456200D01*
X1381699Y-1455220D01*
X1378520Y-1452020D01*
X1377660Y-1450740D01*
X1377360Y-1449199D01*
X1377660Y-1447660D01*
X1378520Y-1446380D01*
X1379820Y-1445500D01*
X1381360Y-1445200D01*
X1394800Y-1445200D01*
X1397960Y-1444880D01*
X1400800Y-1444019D01*
X1403440Y-1442620D01*
X1405880Y-1440600D01*
X1470120Y-1376380D01*
X1471420Y-1375500D01*
X1472960Y-1375200D01*
X1532040Y-1375200D01*
X1533580Y-1375500D01*
X1534880Y-1376380D01*
X1537740Y-1379220D01*
X1538580Y-1380460D01*
X1538899Y-1381920D01*
X1538680Y-1383380D01*
X1538340Y-1384360D01*
X1537700Y-1388100D01*
X1537700Y-1391900D01*
X1538340Y-1395640D01*
X1539600Y-1399220D01*
X1541440Y-1402540D01*
X1543839Y-1405500D01*
X1546680Y-1408000D01*
X1549920Y-1410000D01*
X1553440Y-1411399D01*
X1557160Y-1412200D01*
X1559319Y-1412300D01*
X1560760Y-1412640D01*
X1561980Y-1413460D01*
X1653620Y-1505120D01*
X1654500Y-1506420D01*
X1654800Y-1507960D01*
X1654800Y-1846480D01*
X1654500Y-1847980D01*
X1653680Y-1849259D01*
X1652420Y-1850140D01*
X1649800Y-1851300D01*
X1645020Y-1854199D01*
X1640640Y-1857680D01*
X1636759Y-1861699D01*
X1633420Y-1866180D01*
X1630660Y-1871060D01*
X1628560Y-1876240D01*
X1627140Y-1881660D01*
X1626440Y-1887200D01*
X1626440Y-1892800D01*
X1627140Y-1898340D01*
X1628560Y-1903760D01*
X1630660Y-1908940D01*
X1633420Y-1913820D01*
X1636759Y-1918300D01*
X1640640Y-1922320D01*
X1645020Y-1925800D01*
X1649800Y-1928700D01*
X1652420Y-1929860D01*
X1653680Y-1930740D01*
X1654500Y-1932020D01*
X1654800Y-1933520D01*
X1654800Y-1942340D01*
X1654500Y-1943860D01*
X1653620Y-1945160D01*
X1652340Y-1946040D01*
X1650800Y-1946339D01*
X1636759Y-1946339D01*
X1634280Y-1946620D01*
X1632120Y-1947360D01*
X1630200Y-1948580D01*
X1628580Y-1950200D01*
X1627360Y-1952120D01*
X1626620Y-1954280D01*
X1626339Y-1956759D01*
X1626339Y-2023240D01*
X1626620Y-2025720D01*
X1627360Y-2027880D01*
X1628580Y-2029800D01*
X1630200Y-2031420D01*
X1632120Y-2032640D01*
X1634280Y-2033380D01*
G37*
G36*
X1550760Y-2029139D02*
G01*
X1550760Y-2009240D01*
X1530840Y-2009240D01*
X1533420Y-2013820D01*
X1536759Y-2018300D01*
X1540640Y-2022320D01*
X1545020Y-2025800D01*
X1549800Y-2028700D01*
G37*
G36*
X1589240Y-2029100D02*
G01*
X1592640Y-2027340D01*
X1597220Y-2024139D01*
X1601360Y-2020380D01*
X1604980Y-2016120D01*
X1608040Y-2011420D01*
X1609100Y-2009240D01*
X1589240Y-2009240D01*
G37*
G36*
X1589240Y-1970760D02*
G01*
X1609100Y-1970760D01*
X1608040Y-1968580D01*
X1604980Y-1963880D01*
X1601360Y-1959620D01*
X1597220Y-1955860D01*
X1592640Y-1952660D01*
X1589240Y-1950900D01*
G37*
G36*
X1530840Y-1970760D02*
G01*
X1550760Y-1970760D01*
X1550760Y-1950860D01*
X1549800Y-1951300D01*
X1545020Y-1954199D01*
X1540640Y-1957680D01*
X1536759Y-1961699D01*
X1533420Y-1966180D01*
G37*
G36*
X1471399Y-1933640D02*
G01*
X1476960Y-1933100D01*
X1482420Y-1931860D01*
X1487680Y-1929920D01*
X1492640Y-1927340D01*
X1497220Y-1924139D01*
X1501360Y-1920380D01*
X1504980Y-1916120D01*
X1508040Y-1911420D01*
X1510460Y-1906380D01*
X1512220Y-1901080D01*
X1513300Y-1895580D01*
X1513660Y-1890000D01*
X1513300Y-1884420D01*
X1512220Y-1878920D01*
X1510460Y-1873620D01*
X1508040Y-1868580D01*
X1504980Y-1863880D01*
X1501360Y-1859620D01*
X1497220Y-1855860D01*
X1492640Y-1852660D01*
X1487680Y-1850080D01*
X1482420Y-1848140D01*
X1476960Y-1846900D01*
X1471399Y-1846360D01*
X1465800Y-1846540D01*
X1460280Y-1847440D01*
X1454920Y-1849040D01*
X1449800Y-1851300D01*
X1445020Y-1854199D01*
X1440640Y-1857680D01*
X1436759Y-1861699D01*
X1433420Y-1866180D01*
X1430660Y-1871060D01*
X1428560Y-1876240D01*
X1427140Y-1881660D01*
X1426440Y-1887200D01*
X1426440Y-1892800D01*
X1427140Y-1898340D01*
X1428560Y-1903760D01*
X1430660Y-1908940D01*
X1433420Y-1913820D01*
X1436759Y-1918300D01*
X1440640Y-1922320D01*
X1445020Y-1925800D01*
X1449800Y-1928700D01*
X1454920Y-1930980D01*
X1460280Y-1932560D01*
X1465800Y-1933460D01*
G37*
G36*
X1550760Y-1929139D02*
G01*
X1550760Y-1909240D01*
X1530840Y-1909240D01*
X1533420Y-1913820D01*
X1536759Y-1918300D01*
X1540640Y-1922320D01*
X1545020Y-1925800D01*
X1549800Y-1928700D01*
G37*
G36*
X1589240Y-1929100D02*
G01*
X1592640Y-1927340D01*
X1597220Y-1924139D01*
X1601360Y-1920380D01*
X1604980Y-1916120D01*
X1608040Y-1911420D01*
X1609100Y-1909240D01*
X1589240Y-1909240D01*
G37*
G36*
X1589240Y-1870760D02*
G01*
X1609100Y-1870760D01*
X1608040Y-1868580D01*
X1604980Y-1863880D01*
X1601360Y-1859620D01*
X1597220Y-1855860D01*
X1592640Y-1852660D01*
X1589240Y-1850900D01*
G37*
G36*
X1530840Y-1870760D02*
G01*
X1550760Y-1870760D01*
X1550760Y-1850860D01*
X1549800Y-1851300D01*
X1545020Y-1854199D01*
X1540640Y-1857680D01*
X1536759Y-1861699D01*
X1533420Y-1866180D01*
G37*
G36*
X1245960Y-1802380D02*
G01*
X1249720Y-1801879D01*
X1253340Y-1800780D01*
X1256740Y-1799060D01*
X1259800Y-1796800D01*
X1262420Y-1794060D01*
X1264540Y-1790920D01*
X1266120Y-1787460D01*
X1267060Y-1783779D01*
X1267400Y-1780000D01*
X1267060Y-1776220D01*
X1266120Y-1772540D01*
X1264540Y-1769079D01*
X1262420Y-1765940D01*
X1259800Y-1763200D01*
X1256740Y-1760940D01*
X1253340Y-1759220D01*
X1249720Y-1758120D01*
X1245960Y-1757620D01*
X1242160Y-1757800D01*
X1238440Y-1758600D01*
X1234920Y-1760000D01*
X1231680Y-1762000D01*
X1228840Y-1764500D01*
X1226440Y-1767460D01*
X1224600Y-1770780D01*
X1223340Y-1774360D01*
X1222700Y-1778100D01*
X1222700Y-1781900D01*
X1223340Y-1785640D01*
X1224600Y-1789220D01*
X1226440Y-1792540D01*
X1228840Y-1795500D01*
X1231680Y-1798000D01*
X1234920Y-1800000D01*
X1238440Y-1801399D01*
X1242160Y-1802200D01*
G37*
G36*
X245960Y-1527380D02*
G01*
X249720Y-1526879D01*
X253340Y-1525780D01*
X256740Y-1524060D01*
X259800Y-1521800D01*
X262420Y-1519060D01*
X264540Y-1515920D01*
X266120Y-1512460D01*
X267060Y-1508779D01*
X267340Y-1505480D01*
X267700Y-1504139D01*
X268500Y-1502980D01*
X285120Y-1486380D01*
X286420Y-1485500D01*
X287960Y-1485200D01*
X317000Y-1485200D01*
X318400Y-1485460D01*
X319640Y-1486200D01*
X321680Y-1488000D01*
X324920Y-1490000D01*
X328440Y-1491399D01*
X332160Y-1492200D01*
X335959Y-1492380D01*
X339720Y-1491879D01*
X343340Y-1490780D01*
X346740Y-1489060D01*
X349799Y-1486800D01*
X352420Y-1484060D01*
X354540Y-1480920D01*
X356120Y-1477460D01*
X357060Y-1473779D01*
X357400Y-1470000D01*
X357060Y-1466220D01*
X356120Y-1462540D01*
X354540Y-1459079D01*
X352420Y-1455940D01*
X349799Y-1453200D01*
X346740Y-1450940D01*
X343340Y-1449220D01*
X339720Y-1448120D01*
X335959Y-1447620D01*
X332160Y-1447800D01*
X328440Y-1448600D01*
X324920Y-1450000D01*
X321680Y-1452000D01*
X319640Y-1453800D01*
X318400Y-1454540D01*
X317000Y-1454800D01*
X280200Y-1454800D01*
X277040Y-1455120D01*
X274200Y-1455980D01*
X271560Y-1457380D01*
X269120Y-1459400D01*
X246980Y-1481540D01*
X245760Y-1482360D01*
X244320Y-1482700D01*
X242160Y-1482800D01*
X238440Y-1483600D01*
X234920Y-1485000D01*
X231680Y-1487000D01*
X228840Y-1489500D01*
X226439Y-1492460D01*
X224600Y-1495780D01*
X223340Y-1499360D01*
X222700Y-1503100D01*
X222700Y-1506900D01*
X223340Y-1510640D01*
X224600Y-1514220D01*
X226439Y-1517540D01*
X228840Y-1520500D01*
X231680Y-1523000D01*
X234920Y-1525000D01*
X238440Y-1526399D01*
X242160Y-1527200D01*
G37*
G36*
X1765960Y-1432380D02*
G01*
X1769720Y-1431879D01*
X1773340Y-1430780D01*
X1776740Y-1429060D01*
X1779800Y-1426800D01*
X1782420Y-1424060D01*
X1784540Y-1420920D01*
X1786120Y-1417460D01*
X1787060Y-1413779D01*
X1787400Y-1410000D01*
X1787060Y-1406220D01*
X1786120Y-1402540D01*
X1784540Y-1399079D01*
X1782420Y-1395940D01*
X1781320Y-1394780D01*
X1780480Y-1393500D01*
X1780200Y-1392000D01*
X1780200Y-795200D01*
X1779880Y-792039D01*
X1779019Y-789200D01*
X1777620Y-786560D01*
X1775600Y-784120D01*
X1720880Y-729400D01*
X1718440Y-727380D01*
X1715800Y-725980D01*
X1712960Y-725120D01*
X1709800Y-724800D01*
X1622960Y-724800D01*
X1621420Y-724500D01*
X1620120Y-723620D01*
X1390880Y-494400D01*
X1388440Y-492380D01*
X1385800Y-490980D01*
X1382960Y-490120D01*
X1379800Y-489799D01*
X1192960Y-489799D01*
X1191420Y-489500D01*
X1190120Y-488620D01*
X1036380Y-334880D01*
X1035500Y-333579D01*
X1035200Y-332040D01*
X1035200Y-148000D01*
X1035480Y-146500D01*
X1036320Y-145220D01*
X1037420Y-144060D01*
X1039539Y-140920D01*
X1041120Y-137460D01*
X1042060Y-133780D01*
X1042400Y-130000D01*
X1042060Y-126220D01*
X1041120Y-122540D01*
X1039539Y-119080D01*
X1037420Y-115940D01*
X1034800Y-113200D01*
X1031740Y-110940D01*
X1028340Y-109220D01*
X1024720Y-108120D01*
X1020960Y-107620D01*
X1017159Y-107800D01*
X1013439Y-108600D01*
X1009920Y-110000D01*
X1006680Y-112000D01*
X1003840Y-114500D01*
X1001440Y-117460D01*
X999599Y-120780D01*
X998340Y-124360D01*
X997700Y-128100D01*
X997700Y-131900D01*
X998340Y-135640D01*
X999599Y-139220D01*
X1001440Y-142540D01*
X1003920Y-145580D01*
X1004580Y-146760D01*
X1004800Y-148100D01*
X1004800Y-339799D01*
X1005120Y-342960D01*
X1005980Y-345800D01*
X1007380Y-348440D01*
X1009400Y-350880D01*
X1174120Y-515600D01*
X1176560Y-517620D01*
X1179200Y-519020D01*
X1182040Y-519880D01*
X1185200Y-520200D01*
X1372040Y-520200D01*
X1373580Y-520500D01*
X1374880Y-521380D01*
X1604120Y-750600D01*
X1606560Y-752620D01*
X1609199Y-754020D01*
X1612040Y-754880D01*
X1615200Y-755200D01*
X1702040Y-755200D01*
X1703580Y-755500D01*
X1704880Y-756380D01*
X1748620Y-800120D01*
X1749500Y-801420D01*
X1749800Y-802960D01*
X1749800Y-1391900D01*
X1749580Y-1393240D01*
X1748920Y-1394420D01*
X1746440Y-1397460D01*
X1744600Y-1400780D01*
X1743340Y-1404360D01*
X1742700Y-1408100D01*
X1742700Y-1411900D01*
X1743340Y-1415640D01*
X1744600Y-1419220D01*
X1746440Y-1422540D01*
X1748839Y-1425500D01*
X1751680Y-1428000D01*
X1754920Y-1430000D01*
X1758440Y-1431399D01*
X1762160Y-1432200D01*
G37*
G36*
X530960Y-842380D02*
G01*
X534720Y-841880D01*
X538340Y-840780D01*
X541740Y-839060D01*
X544800Y-836800D01*
X547420Y-834060D01*
X549540Y-830920D01*
X551120Y-827460D01*
X552060Y-823780D01*
X552400Y-820000D01*
X552060Y-816220D01*
X551120Y-812540D01*
X549540Y-809080D01*
X547420Y-805939D01*
X546320Y-804780D01*
X545480Y-803500D01*
X545200Y-802000D01*
X545200Y-230200D01*
X544880Y-227040D01*
X544020Y-224200D01*
X542620Y-221560D01*
X540600Y-219120D01*
X523500Y-202020D01*
X522700Y-200859D01*
X522340Y-199520D01*
X522060Y-196220D01*
X521120Y-192540D01*
X519540Y-189080D01*
X517420Y-185940D01*
X514799Y-183200D01*
X511740Y-180940D01*
X508340Y-179220D01*
X504720Y-178120D01*
X500959Y-177620D01*
X497160Y-177800D01*
X493440Y-178600D01*
X489920Y-180000D01*
X486680Y-182000D01*
X483840Y-184500D01*
X481440Y-187460D01*
X479600Y-190780D01*
X478340Y-194360D01*
X477700Y-198100D01*
X477700Y-201900D01*
X478340Y-205640D01*
X479600Y-209220D01*
X481440Y-212540D01*
X483840Y-215500D01*
X486680Y-218000D01*
X489920Y-220000D01*
X493440Y-221400D01*
X497160Y-222200D01*
X499320Y-222300D01*
X500760Y-222640D01*
X501980Y-223460D01*
X513620Y-235120D01*
X514500Y-236420D01*
X514799Y-237960D01*
X514799Y-801900D01*
X514580Y-803240D01*
X513920Y-804419D01*
X511440Y-807460D01*
X509600Y-810780D01*
X508340Y-814360D01*
X507700Y-818100D01*
X507700Y-821900D01*
X508340Y-825639D01*
X509600Y-829220D01*
X511440Y-832540D01*
X513840Y-835500D01*
X516680Y-838000D01*
X519920Y-840000D01*
X523440Y-841400D01*
X527160Y-842200D01*
G37*
G36*
X870960Y-762380D02*
G01*
X874720Y-761880D01*
X878340Y-760780D01*
X881740Y-759060D01*
X884800Y-756800D01*
X887420Y-754060D01*
X889539Y-750920D01*
X891120Y-747460D01*
X892060Y-743780D01*
X892400Y-740000D01*
X892060Y-736220D01*
X891120Y-732540D01*
X889539Y-729080D01*
X887420Y-725939D01*
X886320Y-724780D01*
X885480Y-723500D01*
X885200Y-722000D01*
X885200Y-575960D01*
X885500Y-574420D01*
X886380Y-573120D01*
X892960Y-566540D01*
X894340Y-565640D01*
X899720Y-564880D01*
X903340Y-563780D01*
X906740Y-562060D01*
X909800Y-559800D01*
X912420Y-557060D01*
X914539Y-553920D01*
X916120Y-550460D01*
X917060Y-546780D01*
X917400Y-543000D01*
X917060Y-539220D01*
X916120Y-535540D01*
X914539Y-532080D01*
X912420Y-528940D01*
X909800Y-526200D01*
X906740Y-523940D01*
X903340Y-522220D01*
X899720Y-521120D01*
X895960Y-520620D01*
X892159Y-520800D01*
X888439Y-521599D01*
X884920Y-523000D01*
X881680Y-525000D01*
X878840Y-527500D01*
X876440Y-530460D01*
X874599Y-533780D01*
X873340Y-537360D01*
X872700Y-541100D01*
X872700Y-542160D01*
X872380Y-543680D01*
X871520Y-544980D01*
X859400Y-557120D01*
X857380Y-559560D01*
X855980Y-562200D01*
X855120Y-565040D01*
X854800Y-568200D01*
X854800Y-721900D01*
X854580Y-723240D01*
X853920Y-724419D01*
X851440Y-727460D01*
X849599Y-730780D01*
X848340Y-734360D01*
X847700Y-738100D01*
X847700Y-741900D01*
X848340Y-745639D01*
X849599Y-749220D01*
X851440Y-752540D01*
X853840Y-755500D01*
X856680Y-758000D01*
X859920Y-760000D01*
X863439Y-761400D01*
X867159Y-762200D01*
G37*
G36*
X285960Y-677380D02*
G01*
X289720Y-676880D01*
X293340Y-675780D01*
X296740Y-674060D01*
X299800Y-671800D01*
X302420Y-669060D01*
X304540Y-665920D01*
X306120Y-662460D01*
X307060Y-658780D01*
X307400Y-655000D01*
X307060Y-651220D01*
X306120Y-647540D01*
X304540Y-644080D01*
X302420Y-640939D01*
X301320Y-639780D01*
X300480Y-638500D01*
X300200Y-637000D01*
X300200Y-457960D01*
X300500Y-456420D01*
X301380Y-455120D01*
X357960Y-398540D01*
X359340Y-397640D01*
X364720Y-396880D01*
X368340Y-395780D01*
X371740Y-394060D01*
X374799Y-391800D01*
X377420Y-389060D01*
X379540Y-385920D01*
X381120Y-382460D01*
X382060Y-378780D01*
X382400Y-375000D01*
X382060Y-371220D01*
X381120Y-367540D01*
X379540Y-364080D01*
X377420Y-360940D01*
X374799Y-358200D01*
X371740Y-355940D01*
X368340Y-354219D01*
X364720Y-353120D01*
X360959Y-352620D01*
X357160Y-352800D01*
X353440Y-353600D01*
X349920Y-355000D01*
X346680Y-357000D01*
X343840Y-359500D01*
X341440Y-362460D01*
X339600Y-365780D01*
X338340Y-369360D01*
X337700Y-373100D01*
X337700Y-374159D01*
X337380Y-375680D01*
X336520Y-376980D01*
X274400Y-439120D01*
X272380Y-441560D01*
X270980Y-444200D01*
X270120Y-447040D01*
X269800Y-450200D01*
X269800Y-636900D01*
X269580Y-638240D01*
X268920Y-639420D01*
X266440Y-642460D01*
X264600Y-645780D01*
X263340Y-649360D01*
X262700Y-653100D01*
X262700Y-656900D01*
X263340Y-660639D01*
X264600Y-664220D01*
X266440Y-667540D01*
X268840Y-670500D01*
X271680Y-673000D01*
X274920Y-675000D01*
X278440Y-676400D01*
X282160Y-677200D01*
G37*
G36*
X1825960Y-492380D02*
G01*
X1829720Y-491880D01*
X1833340Y-490780D01*
X1836740Y-489060D01*
X1839800Y-486800D01*
X1842420Y-484060D01*
X1844540Y-480920D01*
X1846120Y-477460D01*
X1847060Y-473780D01*
X1847400Y-470000D01*
X1847060Y-466220D01*
X1846120Y-462540D01*
X1844540Y-459080D01*
X1842420Y-455940D01*
X1839800Y-453200D01*
X1836740Y-450940D01*
X1833340Y-449219D01*
X1829720Y-448120D01*
X1824340Y-447360D01*
X1822960Y-446460D01*
X1715880Y-339400D01*
X1713440Y-337380D01*
X1710800Y-335980D01*
X1707960Y-335120D01*
X1704800Y-334799D01*
X1648040Y-334799D01*
X1646480Y-334480D01*
X1641740Y-330940D01*
X1638340Y-329219D01*
X1634740Y-328120D01*
X1630400Y-327600D01*
X1628940Y-327140D01*
X1627780Y-326180D01*
X1627040Y-324840D01*
X1626879Y-323340D01*
X1627220Y-318780D01*
X1627220Y-279700D01*
X1626860Y-275100D01*
X1625880Y-270760D01*
X1624240Y-266600D01*
X1622020Y-262720D01*
X1619220Y-259240D01*
X1615960Y-256200D01*
X1612260Y-253680D01*
X1608240Y-251740D01*
X1603980Y-250440D01*
X1599560Y-249760D01*
X1595100Y-249760D01*
X1590680Y-250440D01*
X1586420Y-251740D01*
X1582400Y-253680D01*
X1578700Y-256200D01*
X1575420Y-259240D01*
X1572640Y-262720D01*
X1570420Y-266600D01*
X1568839Y-270580D01*
X1568020Y-271880D01*
X1566759Y-272780D01*
X1565240Y-273120D01*
X1563720Y-272880D01*
X1562400Y-272060D01*
X1561500Y-270820D01*
X1560080Y-267780D01*
X1557880Y-264640D01*
X1555160Y-261920D01*
X1552020Y-259720D01*
X1548560Y-258100D01*
X1544840Y-257100D01*
X1541040Y-256780D01*
X1537220Y-257100D01*
X1533500Y-258100D01*
X1530040Y-259720D01*
X1526900Y-261920D01*
X1524180Y-264640D01*
X1521980Y-267780D01*
X1520360Y-271240D01*
X1519360Y-274960D01*
X1519040Y-278780D01*
X1519360Y-282580D01*
X1520360Y-286300D01*
X1521980Y-289760D01*
X1524180Y-292900D01*
X1526900Y-295620D01*
X1530040Y-297820D01*
X1533500Y-299440D01*
X1537220Y-300440D01*
X1541040Y-300760D01*
X1544840Y-300440D01*
X1548560Y-299440D01*
X1552020Y-297820D01*
X1555160Y-295620D01*
X1557880Y-292900D01*
X1560160Y-289640D01*
X1561399Y-288500D01*
X1562980Y-287960D01*
X1564640Y-288120D01*
X1566100Y-288940D01*
X1567100Y-290300D01*
X1567440Y-291940D01*
X1567440Y-318780D01*
X1567780Y-323380D01*
X1568779Y-327740D01*
X1570420Y-331880D01*
X1572640Y-335760D01*
X1575420Y-339240D01*
X1578700Y-342280D01*
X1582400Y-344799D01*
X1586420Y-346740D01*
X1590680Y-348060D01*
X1595100Y-348720D01*
X1599560Y-348720D01*
X1603100Y-348180D01*
X1604640Y-348260D01*
X1606040Y-348900D01*
X1607100Y-350040D01*
X1607640Y-351480D01*
X1608340Y-355640D01*
X1609600Y-359219D01*
X1611440Y-362540D01*
X1613839Y-365500D01*
X1616680Y-368000D01*
X1619920Y-370000D01*
X1623440Y-371400D01*
X1627160Y-372200D01*
X1630960Y-372380D01*
X1634720Y-371880D01*
X1638340Y-370780D01*
X1641740Y-369060D01*
X1646480Y-365520D01*
X1648040Y-365200D01*
X1697040Y-365200D01*
X1698580Y-365500D01*
X1699880Y-366380D01*
X1801519Y-468020D01*
X1802380Y-469320D01*
X1802700Y-470840D01*
X1802700Y-471900D01*
X1803340Y-475640D01*
X1804600Y-479219D01*
X1806440Y-482540D01*
X1808839Y-485500D01*
X1811680Y-488000D01*
X1814920Y-490000D01*
X1818440Y-491400D01*
X1822160Y-492200D01*
G37*
G36*
X1445960Y-427380D02*
G01*
X1449720Y-426880D01*
X1453340Y-425780D01*
X1456740Y-424060D01*
X1459800Y-421800D01*
X1462420Y-419060D01*
X1464540Y-415920D01*
X1466120Y-412460D01*
X1467060Y-408780D01*
X1467400Y-405000D01*
X1467060Y-401220D01*
X1466120Y-397540D01*
X1464540Y-394080D01*
X1462420Y-390940D01*
X1459800Y-388200D01*
X1456740Y-385940D01*
X1453340Y-384219D01*
X1449720Y-383120D01*
X1445960Y-382620D01*
X1442160Y-382800D01*
X1438440Y-383600D01*
X1434920Y-385000D01*
X1431680Y-387000D01*
X1429640Y-388800D01*
X1428400Y-389540D01*
X1427000Y-389799D01*
X1412960Y-389799D01*
X1411420Y-389500D01*
X1410120Y-388620D01*
X1405880Y-384400D01*
X1403440Y-382380D01*
X1400800Y-380980D01*
X1397960Y-380120D01*
X1394800Y-379799D01*
X1383040Y-379799D01*
X1381480Y-379480D01*
X1376740Y-375940D01*
X1373340Y-374219D01*
X1369720Y-373120D01*
X1365960Y-372620D01*
X1362160Y-372800D01*
X1358440Y-373600D01*
X1354920Y-375000D01*
X1351680Y-377000D01*
X1348839Y-379500D01*
X1346440Y-382460D01*
X1344600Y-385780D01*
X1343340Y-389360D01*
X1342700Y-393100D01*
X1342700Y-396900D01*
X1343340Y-400640D01*
X1344600Y-404219D01*
X1346440Y-407540D01*
X1348839Y-410500D01*
X1351680Y-413000D01*
X1354920Y-415000D01*
X1358440Y-416400D01*
X1362160Y-417200D01*
X1365960Y-417380D01*
X1369720Y-416880D01*
X1373340Y-415780D01*
X1376740Y-414060D01*
X1381480Y-410520D01*
X1383040Y-410200D01*
X1387040Y-410200D01*
X1388580Y-410500D01*
X1389880Y-411380D01*
X1394120Y-415600D01*
X1396560Y-417620D01*
X1399199Y-419020D01*
X1402040Y-419880D01*
X1405200Y-420200D01*
X1427000Y-420200D01*
X1428400Y-420460D01*
X1429640Y-421200D01*
X1431680Y-423000D01*
X1434920Y-425000D01*
X1438440Y-426400D01*
X1442160Y-427200D01*
G37*
G36*
X1254940Y-348720D02*
G01*
X1259400Y-348720D01*
X1263820Y-348060D01*
X1268080Y-346740D01*
X1272100Y-344799D01*
X1275800Y-342299D01*
X1279080Y-339260D01*
X1281860Y-335760D01*
X1284079Y-331900D01*
X1285720Y-327740D01*
X1286720Y-323380D01*
X1287060Y-318780D01*
X1287060Y-291940D01*
X1287400Y-290300D01*
X1288400Y-288960D01*
X1289860Y-288120D01*
X1291519Y-287960D01*
X1293100Y-288500D01*
X1294340Y-289640D01*
X1296620Y-292900D01*
X1299340Y-295620D01*
X1302480Y-297820D01*
X1305940Y-299440D01*
X1309660Y-300440D01*
X1313460Y-300760D01*
X1317280Y-300440D01*
X1321000Y-299440D01*
X1324460Y-297820D01*
X1327600Y-295620D01*
X1330320Y-292900D01*
X1332520Y-289760D01*
X1334139Y-286300D01*
X1335140Y-282580D01*
X1335460Y-278780D01*
X1335140Y-274960D01*
X1334139Y-271240D01*
X1332520Y-267780D01*
X1330320Y-264640D01*
X1327600Y-261920D01*
X1324460Y-259720D01*
X1321000Y-258100D01*
X1317280Y-257100D01*
X1313460Y-256780D01*
X1309660Y-257100D01*
X1305940Y-258100D01*
X1302480Y-259720D01*
X1299340Y-261920D01*
X1296620Y-264640D01*
X1294420Y-267780D01*
X1293000Y-270820D01*
X1292100Y-272060D01*
X1290780Y-272880D01*
X1289259Y-273120D01*
X1287740Y-272780D01*
X1286480Y-271880D01*
X1285660Y-270580D01*
X1284079Y-266600D01*
X1281860Y-262740D01*
X1279080Y-259240D01*
X1275800Y-256200D01*
X1272100Y-253700D01*
X1268080Y-251759D01*
X1263820Y-250440D01*
X1259400Y-249780D01*
X1254940Y-249780D01*
X1250520Y-250440D01*
X1246260Y-251759D01*
X1242240Y-253700D01*
X1238540Y-256200D01*
X1235280Y-259240D01*
X1232500Y-262740D01*
X1230260Y-266600D01*
X1228620Y-270760D01*
X1227640Y-275120D01*
X1227280Y-279720D01*
X1227280Y-318780D01*
X1227640Y-323380D01*
X1228620Y-327740D01*
X1230260Y-331900D01*
X1232500Y-335760D01*
X1235280Y-339260D01*
X1238540Y-342299D01*
X1242240Y-344799D01*
X1246260Y-346740D01*
X1250520Y-348060D01*
G37*
G36*
X1500960Y-242380D02*
G01*
X1504720Y-241880D01*
X1508340Y-240780D01*
X1511740Y-239060D01*
X1514800Y-236800D01*
X1517420Y-234060D01*
X1519540Y-230920D01*
X1521120Y-227460D01*
X1522060Y-223780D01*
X1522400Y-220000D01*
X1522060Y-216220D01*
X1521120Y-212540D01*
X1519540Y-209080D01*
X1517420Y-205940D01*
X1514800Y-203200D01*
X1511740Y-200940D01*
X1508340Y-199220D01*
X1504720Y-198120D01*
X1500960Y-197620D01*
X1499079Y-197560D01*
X1498100Y-197200D01*
X1495800Y-195980D01*
X1492960Y-195120D01*
X1489800Y-194800D01*
X1463040Y-194800D01*
X1461480Y-194480D01*
X1456740Y-190940D01*
X1453340Y-189220D01*
X1449720Y-188120D01*
X1445960Y-187620D01*
X1442160Y-187800D01*
X1438440Y-188600D01*
X1434920Y-190000D01*
X1431680Y-192000D01*
X1428839Y-194500D01*
X1426440Y-197460D01*
X1424600Y-200780D01*
X1423340Y-204360D01*
X1422700Y-208100D01*
X1422700Y-211900D01*
X1423340Y-215640D01*
X1424600Y-219220D01*
X1426440Y-222540D01*
X1428839Y-225500D01*
X1431680Y-228000D01*
X1434920Y-230000D01*
X1438440Y-231400D01*
X1442160Y-232200D01*
X1445960Y-232380D01*
X1449720Y-231880D01*
X1453340Y-230780D01*
X1456740Y-229060D01*
X1461480Y-225520D01*
X1463040Y-225200D01*
X1475340Y-225200D01*
X1476940Y-225539D01*
X1478280Y-226480D01*
X1479120Y-227860D01*
X1479600Y-229220D01*
X1481440Y-232540D01*
X1483839Y-235500D01*
X1486680Y-238000D01*
X1489920Y-240000D01*
X1493440Y-241400D01*
X1497160Y-242200D01*
G37*
G36*
X1254940Y-179440D02*
G01*
X1259400Y-179440D01*
X1263820Y-178760D01*
X1268080Y-177440D01*
X1272100Y-175520D01*
X1275800Y-173000D01*
X1279080Y-169960D01*
X1281860Y-166460D01*
X1284079Y-162600D01*
X1285720Y-158440D01*
X1286720Y-154100D01*
X1287060Y-149500D01*
X1287060Y-118300D01*
X1286720Y-113699D01*
X1285720Y-109340D01*
X1284079Y-105180D01*
X1281860Y-101320D01*
X1279080Y-97820D01*
X1275800Y-94780D01*
X1272100Y-92280D01*
X1268080Y-90340D01*
X1263820Y-89019D01*
X1259400Y-88360D01*
X1254940Y-88360D01*
X1250520Y-89019D01*
X1246260Y-90340D01*
X1242240Y-92280D01*
X1238540Y-94780D01*
X1235280Y-97820D01*
X1232500Y-101320D01*
X1230260Y-105180D01*
X1228620Y-109340D01*
X1227640Y-113699D01*
X1227280Y-118300D01*
X1227280Y-149500D01*
X1227640Y-154100D01*
X1228620Y-158440D01*
X1230260Y-162600D01*
X1232500Y-166460D01*
X1235280Y-169960D01*
X1238540Y-173000D01*
X1242240Y-175520D01*
X1246260Y-177440D01*
X1250520Y-178760D01*
G37*
G36*
X1595100Y-179440D02*
G01*
X1599560Y-179440D01*
X1603980Y-178760D01*
X1608240Y-177440D01*
X1612260Y-175520D01*
X1615960Y-173000D01*
X1619220Y-169960D01*
X1622020Y-166460D01*
X1624240Y-162600D01*
X1625880Y-158440D01*
X1626860Y-154100D01*
X1627220Y-149500D01*
X1627220Y-118300D01*
X1626860Y-113699D01*
X1625880Y-109340D01*
X1624240Y-105180D01*
X1622020Y-101320D01*
X1619220Y-97820D01*
X1615960Y-94780D01*
X1612260Y-92280D01*
X1608240Y-90340D01*
X1603980Y-89019D01*
X1599560Y-88360D01*
X1595100Y-88360D01*
X1590680Y-89019D01*
X1586420Y-90340D01*
X1582400Y-92280D01*
X1578700Y-94780D01*
X1575420Y-97820D01*
X1572640Y-101320D01*
X1570420Y-105180D01*
X1568779Y-109340D01*
X1567780Y-113699D01*
X1567440Y-118300D01*
X1567440Y-149500D01*
X1567780Y-154100D01*
X1568779Y-158440D01*
X1570420Y-162600D01*
X1572640Y-166460D01*
X1575420Y-169960D01*
X1578700Y-173000D01*
X1582400Y-175520D01*
X1586420Y-177440D01*
X1590680Y-178760D01*
G37*
G36*
X2634500Y-178760D02*
G01*
X2641080Y-178760D01*
X2647600Y-178060D01*
X2654020Y-176640D01*
X2660240Y-174540D01*
X2666200Y-171759D01*
X2671820Y-168359D01*
X2677060Y-164380D01*
X2681800Y-159840D01*
X2686040Y-154820D01*
X2689720Y-149380D01*
X2692780Y-143560D01*
X2695179Y-137440D01*
X2696900Y-131100D01*
X2697940Y-124620D01*
X2698240Y-118300D01*
X2697940Y-111600D01*
X2696900Y-105120D01*
X2695179Y-98780D01*
X2692780Y-92660D01*
X2689720Y-86840D01*
X2686040Y-81400D01*
X2681800Y-76380D01*
X2677060Y-71840D01*
X2671820Y-67860D01*
X2666200Y-64460D01*
X2660240Y-61680D01*
X2654020Y-59580D01*
X2647600Y-58160D01*
X2641080Y-57460D01*
X2634500Y-57460D01*
X2627980Y-58160D01*
X2621560Y-59580D01*
X2615340Y-61680D01*
X2609380Y-64460D01*
X2603759Y-67860D01*
X2598519Y-71840D01*
X2593780Y-76380D01*
X2589540Y-81400D01*
X2585860Y-86840D01*
X2582799Y-92660D01*
X2580400Y-98780D01*
X2578680Y-105120D01*
X2577640Y-111600D01*
X2577340Y-117920D01*
X2577640Y-124620D01*
X2578680Y-131100D01*
X2580400Y-137440D01*
X2582799Y-143560D01*
X2585860Y-149380D01*
X2589540Y-154820D01*
X2593780Y-159840D01*
X2598519Y-164380D01*
X2603759Y-168359D01*
X2609380Y-171759D01*
X2615340Y-174540D01*
X2621560Y-176640D01*
X2627980Y-178060D01*
G37*
G36*
X114820Y-178760D02*
G01*
X121400Y-178760D01*
X127920Y-178060D01*
X134340Y-176640D01*
X140560Y-174540D01*
X146520Y-171759D01*
X152140Y-168359D01*
X157380Y-164380D01*
X162120Y-159840D01*
X166360Y-154820D01*
X170040Y-149380D01*
X173100Y-143560D01*
X175500Y-137440D01*
X177220Y-131100D01*
X178260Y-124620D01*
X178560Y-118300D01*
X178260Y-111600D01*
X177220Y-105120D01*
X175500Y-98780D01*
X173100Y-92660D01*
X170040Y-86840D01*
X166360Y-81400D01*
X162120Y-76380D01*
X157380Y-71840D01*
X152140Y-67860D01*
X146520Y-64460D01*
X140560Y-61680D01*
X134340Y-59580D01*
X127920Y-58160D01*
X121400Y-57460D01*
X114820Y-57460D01*
X108300Y-58160D01*
X101880Y-59580D01*
X95660Y-61680D01*
X89700Y-64460D01*
X84080Y-67860D01*
X78860Y-71840D01*
X74100Y-76380D01*
X69860Y-81400D01*
X66180Y-86840D01*
X63120Y-92660D01*
X60720Y-98780D01*
X59000Y-105120D01*
X57960Y-111600D01*
X57660Y-117920D01*
X57960Y-124620D01*
X59000Y-131100D01*
X60720Y-137440D01*
X63120Y-143560D01*
X66180Y-149380D01*
X69860Y-154820D01*
X74100Y-159840D01*
X78860Y-164380D01*
X84080Y-168359D01*
X89700Y-171759D01*
X95660Y-174540D01*
X101880Y-176640D01*
X108300Y-178060D01*
G37*
G36*
X1913620Y-162700D02*
G01*
X1922700Y-162700D01*
X1922700Y-133760D01*
X1903200Y-133760D01*
X1903200Y-152280D01*
X1903480Y-154760D01*
X1904240Y-156920D01*
X1905440Y-158840D01*
X1907060Y-160460D01*
X1908980Y-161660D01*
X1911140Y-162420D01*
G37*
G36*
X1951300Y-162700D02*
G01*
X1960380Y-162700D01*
X1962860Y-162420D01*
X1965020Y-161660D01*
X1966940Y-160460D01*
X1968560Y-158840D01*
X1969760Y-156920D01*
X1970520Y-154760D01*
X1970800Y-152280D01*
X1970800Y-133760D01*
X1951300Y-133760D01*
G37*
G36*
X2149620Y-162700D02*
G01*
X2196380Y-162700D01*
X2198860Y-162420D01*
X2201020Y-161660D01*
X2202940Y-160460D01*
X2204560Y-158840D01*
X2205760Y-156920D01*
X2206520Y-154760D01*
X2206800Y-152280D01*
X2206800Y-67720D01*
X2206520Y-65240D01*
X2205760Y-63080D01*
X2204560Y-61160D01*
X2202940Y-59540D01*
X2201020Y-58339D01*
X2198860Y-57580D01*
X2196380Y-57300D01*
X2149620Y-57300D01*
X2147140Y-57580D01*
X2144980Y-58339D01*
X2143060Y-59540D01*
X2141440Y-61160D01*
X2140240Y-63080D01*
X2139480Y-65240D01*
X2139200Y-67720D01*
X2139200Y-152280D01*
X2139480Y-154760D01*
X2140240Y-156920D01*
X2141440Y-158840D01*
X2143060Y-160460D01*
X2144980Y-161660D01*
X2147140Y-162420D01*
G37*
G36*
X2071620Y-162700D02*
G01*
X2118380Y-162700D01*
X2120860Y-162420D01*
X2123020Y-161660D01*
X2124940Y-160460D01*
X2126560Y-158840D01*
X2127760Y-156920D01*
X2128520Y-154760D01*
X2128800Y-152280D01*
X2128800Y-67720D01*
X2128520Y-65240D01*
X2127760Y-63080D01*
X2126560Y-61160D01*
X2124940Y-59540D01*
X2123020Y-58339D01*
X2120860Y-57580D01*
X2118380Y-57300D01*
X2071620Y-57300D01*
X2069139Y-57580D01*
X2066980Y-58339D01*
X2065060Y-59540D01*
X2063440Y-61160D01*
X2062240Y-63080D01*
X2061480Y-65240D01*
X2061200Y-67720D01*
X2061200Y-152280D01*
X2061480Y-154760D01*
X2062240Y-156920D01*
X2063440Y-158840D01*
X2065060Y-160460D01*
X2066980Y-161660D01*
X2069139Y-162420D01*
G37*
G36*
X1992620Y-162700D02*
G01*
X2039379Y-162700D01*
X2041860Y-162420D01*
X2044019Y-161660D01*
X2045940Y-160460D01*
X2047560Y-158840D01*
X2048760Y-156920D01*
X2049520Y-154760D01*
X2049800Y-152280D01*
X2049800Y-67720D01*
X2049520Y-65240D01*
X2048760Y-63080D01*
X2047560Y-61160D01*
X2045940Y-59540D01*
X2044019Y-58339D01*
X2041860Y-57580D01*
X2039379Y-57300D01*
X1992620Y-57300D01*
X1990140Y-57580D01*
X1987980Y-58339D01*
X1986060Y-59540D01*
X1984440Y-61160D01*
X1983240Y-63080D01*
X1982480Y-65240D01*
X1982200Y-67720D01*
X1982200Y-152280D01*
X1982480Y-154760D01*
X1983240Y-156920D01*
X1984440Y-158840D01*
X1986060Y-160460D01*
X1987980Y-161660D01*
X1990140Y-162420D01*
G37*
G36*
X359799Y-120640D02*
G01*
X430200Y-120640D01*
X432700Y-120360D01*
X434840Y-119600D01*
X436780Y-118379D01*
X438380Y-116780D01*
X439600Y-114840D01*
X440360Y-112700D01*
X440640Y-110200D01*
X440640Y-39800D01*
X440360Y-37300D01*
X439600Y-35160D01*
X438380Y-33220D01*
X436780Y-31620D01*
X434840Y-30400D01*
X432700Y-29640D01*
X430200Y-29360D01*
X359799Y-29360D01*
X357299Y-29640D01*
X355160Y-30400D01*
X353220Y-31620D01*
X351620Y-33220D01*
X350400Y-35160D01*
X349640Y-37300D01*
X349360Y-39800D01*
X349360Y-110200D01*
X349640Y-112700D01*
X350400Y-114840D01*
X351620Y-116780D01*
X353220Y-118379D01*
X355160Y-119600D01*
X357299Y-120360D01*
G37*
G36*
X695000Y-116679D02*
G01*
X700440Y-116340D01*
X705780Y-115260D01*
X710960Y-113520D01*
X715840Y-111100D01*
X720380Y-108080D01*
X724479Y-104480D01*
X728080Y-100380D01*
X731100Y-95840D01*
X733520Y-90960D01*
X735260Y-85780D01*
X736340Y-80440D01*
X736680Y-75000D01*
X736340Y-69560D01*
X735260Y-64220D01*
X733520Y-59040D01*
X731100Y-54160D01*
X728080Y-49620D01*
X724479Y-45519D01*
X720380Y-41920D01*
X715840Y-38900D01*
X710960Y-36480D01*
X705780Y-34740D01*
X700440Y-33660D01*
X695000Y-33320D01*
X689560Y-33660D01*
X684220Y-34740D01*
X679040Y-36480D01*
X674160Y-38900D01*
X669620Y-41920D01*
X665520Y-45519D01*
X661919Y-49620D01*
X658900Y-54160D01*
X656480Y-59040D01*
X654740Y-64220D01*
X653660Y-69560D01*
X653319Y-75000D01*
X653660Y-80440D01*
X654740Y-85780D01*
X656480Y-90960D01*
X658900Y-95840D01*
X661919Y-100380D01*
X665520Y-104480D01*
X669620Y-108080D01*
X674160Y-111100D01*
X679040Y-113520D01*
X684220Y-115260D01*
X689560Y-116340D01*
G37*
G36*
X495000Y-116679D02*
G01*
X500439Y-116340D01*
X505780Y-115260D01*
X510959Y-113520D01*
X515840Y-111100D01*
X520379Y-108080D01*
X524480Y-104480D01*
X528080Y-100380D01*
X531100Y-95840D01*
X533520Y-90960D01*
X535260Y-85780D01*
X536340Y-80440D01*
X536680Y-75000D01*
X536340Y-69560D01*
X535260Y-64220D01*
X533520Y-59040D01*
X531100Y-54160D01*
X528080Y-49620D01*
X524480Y-45519D01*
X520379Y-41920D01*
X515840Y-38900D01*
X510959Y-36480D01*
X505780Y-34740D01*
X500439Y-33660D01*
X495000Y-33320D01*
X489560Y-33660D01*
X484219Y-34740D01*
X479040Y-36480D01*
X474159Y-38900D01*
X469620Y-41920D01*
X465520Y-45519D01*
X461920Y-49620D01*
X458900Y-54160D01*
X456480Y-59040D01*
X454739Y-64220D01*
X453660Y-69560D01*
X453320Y-75000D01*
X453660Y-80440D01*
X454739Y-85780D01*
X456480Y-90960D01*
X458900Y-95840D01*
X461920Y-100380D01*
X465520Y-104480D01*
X469620Y-108080D01*
X474159Y-111100D01*
X479040Y-113520D01*
X484219Y-115260D01*
X489560Y-116340D01*
G37*
G36*
X595000Y-116679D02*
G01*
X600440Y-116340D01*
X605780Y-115260D01*
X610960Y-113520D01*
X615840Y-111100D01*
X620380Y-108080D01*
X624480Y-104480D01*
X628080Y-100380D01*
X631100Y-95840D01*
X633520Y-90960D01*
X635260Y-85780D01*
X636340Y-80440D01*
X636680Y-75000D01*
X636340Y-69560D01*
X635260Y-64220D01*
X633520Y-59040D01*
X631100Y-54160D01*
X628080Y-49620D01*
X624480Y-45519D01*
X620380Y-41920D01*
X615840Y-38900D01*
X610960Y-36480D01*
X605780Y-34740D01*
X600440Y-33660D01*
X595000Y-33320D01*
X589560Y-33660D01*
X584220Y-34740D01*
X579040Y-36480D01*
X574160Y-38900D01*
X569620Y-41920D01*
X565520Y-45519D01*
X561920Y-49620D01*
X558900Y-54160D01*
X556480Y-59040D01*
X554740Y-64220D01*
X553660Y-69560D01*
X553320Y-75000D01*
X553660Y-80440D01*
X554740Y-85780D01*
X556480Y-90960D01*
X558900Y-95840D01*
X561920Y-100380D01*
X565520Y-104480D01*
X569620Y-108080D01*
X574160Y-111100D01*
X579040Y-113520D01*
X584220Y-115260D01*
X589560Y-116340D01*
G37*
G36*
X795000Y-116679D02*
G01*
X800440Y-116340D01*
X805780Y-115260D01*
X810960Y-113520D01*
X815840Y-111100D01*
X820380Y-108080D01*
X824479Y-104480D01*
X828080Y-100380D01*
X831100Y-95840D01*
X833520Y-90960D01*
X835260Y-85780D01*
X836340Y-80440D01*
X836680Y-75000D01*
X836340Y-69560D01*
X835260Y-64220D01*
X833520Y-59040D01*
X831100Y-54160D01*
X828080Y-49620D01*
X824479Y-45519D01*
X820380Y-41920D01*
X815840Y-38900D01*
X810960Y-36480D01*
X805780Y-34740D01*
X800440Y-33660D01*
X795000Y-33320D01*
X789560Y-33660D01*
X784220Y-34740D01*
X779040Y-36480D01*
X774160Y-38900D01*
X769620Y-41920D01*
X765520Y-45519D01*
X761919Y-49620D01*
X758900Y-54160D01*
X756480Y-59040D01*
X754740Y-64220D01*
X753660Y-69560D01*
X753319Y-75000D01*
X753660Y-80440D01*
X754740Y-85780D01*
X756480Y-90960D01*
X758900Y-95840D01*
X761919Y-100380D01*
X765520Y-104480D01*
X769620Y-108080D01*
X774160Y-111100D01*
X779040Y-113520D01*
X784220Y-115260D01*
X789560Y-116340D01*
G37*
G36*
X876760Y-112380D02*
G01*
X876760Y-93240D01*
X857620Y-93240D01*
X858900Y-95840D01*
X861919Y-100380D01*
X865520Y-104480D01*
X869620Y-108080D01*
X874160Y-111100D01*
G37*
G36*
X913240Y-112380D02*
G01*
X915840Y-111100D01*
X920380Y-108080D01*
X924479Y-104480D01*
X928080Y-100380D01*
X931100Y-95840D01*
X932380Y-93240D01*
X913240Y-93240D01*
G37*
G36*
X1903200Y-86260D02*
G01*
X1922700Y-86260D01*
X1922700Y-57300D01*
X1913620Y-57300D01*
X1911140Y-57580D01*
X1908980Y-58339D01*
X1907060Y-59540D01*
X1905440Y-61160D01*
X1904240Y-63080D01*
X1903480Y-65240D01*
X1903200Y-67720D01*
G37*
G36*
X1951300Y-86260D02*
G01*
X1970800Y-86260D01*
X1970800Y-67720D01*
X1970520Y-65240D01*
X1969760Y-63080D01*
X1968560Y-61160D01*
X1966940Y-59540D01*
X1965020Y-58339D01*
X1962860Y-57580D01*
X1960380Y-57300D01*
X1951300Y-57300D01*
G37*
G36*
X913240Y-56760D02*
G01*
X932380Y-56760D01*
X931100Y-54160D01*
X928080Y-49620D01*
X924479Y-45519D01*
X920380Y-41920D01*
X915840Y-38900D01*
X913240Y-37620D01*
G37*
G36*
X857620Y-56760D02*
G01*
X876760Y-56760D01*
X876760Y-37620D01*
X874160Y-38900D01*
X869620Y-41920D01*
X865520Y-45519D01*
X861919Y-49620D01*
X858900Y-54160D01*
G37*

%LPD*%
D10*
X1335000Y-1430000D02*
G01*
X1335000Y-1415000D01*
X1359399Y-1390599D01*
X1374399Y-1390599D01*
X1290000Y-1625000D02*
G01*
X1390000Y-1725000D01*
X1390000Y-1795000D01*
X1195000Y-1720000D02*
G01*
X1215000Y-1700000D01*
X1320000Y-1700000D01*
X1355000Y-1735000D01*
X1355000Y-1770000D01*
X968900Y-2245500D02*
G01*
X925000Y-2289400D01*
X925000Y-2365000D01*
X935000Y-2375000D01*
X970000Y-2375000D01*
X985000Y-2390000D01*
X985000Y-2460000D01*
X1160000Y-2635000D01*
X1160000Y-2660000D01*
X1205000Y-2705000D01*
X1290000Y-2705000D01*
X1295000Y-2700000D01*
X1311000Y-2685999D01*
X1311000Y-2640000D01*
X1231999Y-2640000D02*
G01*
X1231999Y-2606999D01*
X1200000Y-2575000D01*
X1200000Y-2314200D01*
X1228900Y-2314200D01*
X1307439Y-2384059D02*
G01*
X1310000Y-2381500D01*
X1310000Y-2330000D01*
X1370000Y-2270000D01*
X1385000Y-2270000D01*
X2195000Y-2241851D02*
G01*
X2195000Y-2175000D01*
X2410000Y-1960000D01*
X2412990Y-1960000D01*
X1115000Y-2360000D02*
G01*
X1085000Y-2390000D01*
X1070000Y-2390000D01*
X1065000Y-1595000D02*
G01*
X1075000Y-1585000D01*
X1350000Y-1585000D01*
X1390000Y-1625000D01*
X1390000Y-1670000D01*
X1425000Y-1705000D01*
X1445000Y-1705000D01*
X1800000Y-2165000D02*
G01*
X1890000Y-2255000D01*
X1890000Y-2545000D01*
X1845000Y-2590000D01*
X1845000Y-2607990D01*
X1670000Y-1990000D02*
G01*
X1670000Y-1500000D01*
X1560000Y-1390000D01*
X1900000Y-1845000D02*
G01*
X1900000Y-1985000D01*
X1850000Y-2035000D01*
X1020000Y-1480000D02*
G01*
X1040000Y-1480000D01*
X1090000Y-1530000D01*
X1135000Y-800000D02*
G01*
X1240000Y-695000D01*
X1315000Y-695000D01*
X1330000Y-710000D01*
X1345000Y-710000D01*
X1345000Y-710000D02*
G01*
X1315000Y-740000D01*
X1315000Y-760000D01*
X405000Y-1330000D02*
G01*
X405000Y-1470000D01*
X360000Y-1515000D01*
X360000Y-2215000D01*
X515000Y-2370000D01*
X665000Y-2370000D01*
X678899Y-2356100D01*
X678899Y-2324200D01*
X1311000Y-2645999D02*
G01*
X1311000Y-2640000D01*
X895000Y-543000D02*
G01*
X870000Y-568000D01*
X870000Y-740000D01*
X1195000Y-995000D02*
G01*
X1195000Y-965000D01*
X1215000Y-945000D01*
X1265000Y-945000D01*
X1295000Y-975000D01*
X1250000Y-930000D01*
X1250000Y-720000D01*
X1025000Y-810000D02*
G01*
X1035000Y-800000D01*
X1135000Y-800000D01*
X1054524Y-2109856D02*
G01*
X1006926Y-2062256D01*
X970081Y-2062256D01*
X878890Y-2245479D02*
G01*
X968890Y-2245479D01*
X245000Y-1505000D02*
G01*
X280000Y-1470000D01*
X335000Y-1470000D01*
D11*
X1134369Y-1865000D02*
G01*
X1133263Y-1866105D01*
X1133263Y-2014855D01*
X1090000Y-1925000D02*
G01*
X1133271Y-1968270D01*
X1133271Y-2014861D01*
X1042709Y-2237460D02*
G01*
X1042709Y-2212289D01*
X1065000Y-2190000D01*
X1133270Y-2014859D02*
G01*
X1205000Y-2014859D01*
X480000Y-1510000D02*
G01*
X550000Y-1510000D01*
X585000Y-1545000D01*
D10*
X520000Y-1690000D02*
G01*
X545000Y-1690000D01*
X740000Y-1495000D01*
X740000Y-1475000D01*
X500000Y-200000D02*
G01*
X530000Y-230000D01*
X530000Y-820000D01*
X360000Y-375000D02*
G01*
X285000Y-450000D01*
X285000Y-655000D01*
X420000Y-1505000D02*
G01*
X390000Y-1535000D01*
X390000Y-1900000D01*
X1825000Y-470000D02*
G01*
X1705000Y-350000D01*
X1630000Y-350000D01*
X840000Y-1480000D02*
G01*
X895000Y-1535000D01*
X1055000Y-1535000D01*
X1042707Y-2312256D02*
G01*
X1030739Y-2324225D01*
X968894Y-2324225D01*
X1054524Y-2109856D02*
G01*
X1054524Y-2159856D01*
X968894Y-2245486D01*
X699524Y-2149856D02*
G01*
X683894Y-2134225D01*
X683894Y-2076487D01*
X778263Y-2149856D02*
G01*
X783894Y-2144225D01*
X783894Y-2076487D01*
X783894Y-1943225D02*
G01*
X683894Y-1943225D01*
X588894Y-2059225D02*
G01*
X606154Y-2076487D01*
X683894Y-2076487D01*
X778894Y-2245486D02*
G01*
X678894Y-2245486D01*
X678894Y-2245486D02*
G01*
X673894Y-2240486D01*
X588894Y-2240486D01*
X867707Y-2062256D02*
G01*
X853478Y-2076487D01*
X783894Y-2076487D01*
X1445000Y-405000D02*
G01*
X1405000Y-405000D01*
X1395000Y-395000D01*
X1365000Y-395000D01*
X884524Y-2149856D02*
G01*
X867707Y-2133042D01*
X867707Y-2062256D01*
X1445000Y-210000D02*
G01*
X1490000Y-210000D01*
X1500000Y-220000D01*
X970100Y-1987500D02*
G01*
X926300Y-1987500D01*
X888900Y-2024899D01*
X804899Y-2024899D01*
X783900Y-2003899D01*
X783900Y-1943200D01*
D11*
X2025000Y-2325000D02*
G01*
X2145000Y-2425000D01*
X2395000Y-2425000D01*
D10*
X699499Y-2149899D02*
G01*
X669499Y-2179899D01*
X538899Y-2179899D01*
X505000Y-2213800D01*
X505000Y-2280999D01*
X543299Y-2319200D01*
X588899Y-2319200D01*
X1765000Y-1410000D02*
G01*
X1765000Y-795000D01*
X1710000Y-740000D01*
X1615000Y-740000D01*
X1380000Y-505000D01*
X1185000Y-505000D01*
X1020000Y-340000D01*
X1020000Y-130000D01*
X2005600Y-1686900D02*
G01*
X1980000Y-1712500D01*
X1980000Y-2160000D01*
X2025000Y-2205000D01*
X1374369Y-1469369D02*
G01*
X1340000Y-1435000D01*
X485000Y-1795000D02*
G01*
X545000Y-1795000D01*
X775000Y-1565000D01*
X775000Y-1485000D01*
X1265000Y-995000D01*
X1540000Y-995000D01*
X1295630Y-1390630D02*
G01*
X1275000Y-1411260D01*
X1275000Y-1525000D01*
X1145079Y-2312260D02*
G01*
X1147049Y-2314229D01*
X1228890Y-2314229D01*
X1560000Y-1390000D02*
G01*
X1560000Y-1380000D01*
X1540000Y-1360000D01*
X1465000Y-1360000D01*
X1395000Y-1430000D01*
X1374369Y-1430000D01*
X1335000Y-1469369D02*
G01*
X1325000Y-1479369D01*
X1325000Y-1520000D01*
X1390000Y-2640000D02*
G01*
X1390000Y-2715000D01*
X1365000Y-2740000D01*
X970000Y-2740000D01*
X678899Y-2448899D01*
X678899Y-2324200D01*
X1020000Y-2570000D02*
G01*
X1000000Y-2570000D01*
X920000Y-2490000D01*
X1374369Y-1469369D02*
G01*
X1385000Y-1480000D01*
X1385000Y-1525000D01*
X1220000Y-1940000D02*
G01*
X1215000Y-1945000D01*
X1170000Y-1945000D01*
X1125000Y-2500000D02*
G01*
X1140000Y-2500000D01*
X1170000Y-2470000D01*
X1170000Y-2405000D01*
X1140000Y-2385000D02*
G01*
X1075000Y-2450000D01*
X1075000Y-2505000D01*
X815000Y-2530000D02*
G01*
X780630Y-2495630D01*
X780630Y-2420000D01*
X1290000Y-1625000D02*
G01*
X1290000Y-1630000D01*
X1225000Y-1630000D01*
X1181698Y-1673301D01*
X1126698Y-1673301D01*
X935000Y-1865000D01*
X570000Y-1865000D01*
X520000Y-1915000D01*
X520000Y-2160000D01*
X475000Y-2205000D01*
X475000Y-2250000D01*
X1023299Y-2424899D02*
G01*
X1035000Y-2413099D01*
X1035000Y-2312300D01*
X1042700Y-2312300D01*
X1145100Y-2237500D02*
G01*
X1132500Y-2237500D01*
X968890Y-2245479D02*
G01*
X1003410Y-2280000D01*
X1085000Y-2280000D01*
X1127539Y-2237460D01*
X1145079Y-2237460D01*
X1042709Y-2312260D02*
G01*
X1044970Y-2310000D01*
X1080000Y-2310000D01*
X1095000Y-2195000D02*
G01*
X1133270Y-2156729D01*
X1133270Y-2109859D01*
X420000Y-1596460D02*
G01*
X420000Y-1665000D01*
X1245000Y-1980000D02*
G01*
X1300000Y-2025000D01*
X1300000Y-2065000D01*
X1275000Y-2110000D01*
X1274337Y-2375662D02*
G01*
X1265000Y-2385000D01*
X1325000Y-2235599D02*
G01*
X1280000Y-2280599D01*
X1280000Y-2370000D01*
X1274337Y-2375662D01*
D11*
X1445000Y-2300000D02*
G01*
X1595000Y-2150000D01*
X1725000Y-2150000D01*
D10*
X1170000Y-2205000D02*
G01*
X1170000Y-2150000D01*
X1200000Y-2120000D01*
X1265000Y-2120000D01*
X1275000Y-2110000D01*
X970000Y-1875000D02*
G01*
X970000Y-1860000D01*
X1025000Y-1805000D01*
X1175000Y-1805000D01*
X1410000Y-2040000D01*
X1410000Y-2250000D01*
X1390000Y-2270000D01*
X1385000Y-2270000D01*
X1470000Y-1990000D02*
G01*
X1445000Y-2015000D01*
X1445000Y-2090000D01*
X1385000Y-2105000D02*
G01*
X1254520Y-2235479D01*
X1228890Y-2235479D01*
X1535000Y-765000D02*
G01*
X1535000Y-750000D01*
X1390000Y-605000D01*
X1090000Y-605000D01*
X455000Y-1240000D01*
X455000Y-2060000D01*
X495000Y-2100000D01*
X420000Y-1665000D02*
G01*
X420000Y-1800000D01*
X1133299Y-2014899D02*
G01*
X1033400Y-1915000D01*
X918699Y-1915000D01*
X867700Y-1965999D01*
X867700Y-1987500D01*
X1054520Y-2014859D02*
G01*
X1015000Y-1975340D01*
X1015000Y-1955000D01*
D12*
G01*
X1295630Y-1469369D03*
G01*
X1335000Y-1469369D03*
G01*
X1374369Y-1469369D03*
G01*
X1295630Y-1430000D03*
G01*
X1335000Y-1430000D03*
G01*
X1374369Y-1430000D03*
G01*
X1295630Y-1390630D03*
G01*
X1335000Y-1390630D03*
G01*
X1374369Y-1390630D03*
D13*
G01*
X588890Y-1980489D03*
D14*
G01*
X588894Y-2059227D03*
D13*
G01*
X588890Y-2240490D03*
D14*
G01*
X588894Y-2319227D03*
D15*
G01*
X1054522Y-2014855D03*
G01*
X1133265Y-2014855D03*
G01*
X1055628Y-1865000D03*
G01*
X1134371Y-1865000D03*
G01*
X1054522Y-2109856D03*
G01*
X1133265Y-2109856D03*
D16*
G01*
X683894Y-1943225D03*
G01*
X683894Y-2076485D03*
D17*
G01*
X783894Y-2076485D03*
G01*
X783894Y-1943225D03*
D18*
G01*
X878890Y-2324229D03*
D20*
G01*
X878894Y-2245483D03*
D18*
G01*
X1228890Y-2314229D03*
D20*
G01*
X1228894Y-2235483D03*
D18*
G01*
X968890Y-2245479D03*
D20*
G01*
X968894Y-2324228D03*
G01*
X778894Y-2324228D03*
D18*
G01*
X778890Y-2245479D03*
G01*
X678890Y-2245479D03*
D20*
G01*
X678894Y-2324228D03*
D21*
G01*
X944521Y-2424856D03*
G01*
X1023265Y-2424856D03*
D22*
G01*
X963265Y-2149856D03*
G01*
X884521Y-2149856D03*
G01*
X778265Y-2149856D03*
G01*
X699521Y-2149856D03*
D23*
G01*
X1042708Y-2237455D03*
G01*
X1042708Y-2312256D03*
G01*
X1145079Y-2312256D03*
G01*
X1145079Y-2274856D03*
G01*
X1145079Y-2237455D03*
G01*
X867708Y-1987455D03*
G01*
X867708Y-2062255D03*
G01*
X970079Y-2062255D03*
G01*
X970079Y-2024856D03*
G01*
X970079Y-1987455D03*
D24*
G01*
X1470000Y-1890000D03*
G01*
X1470000Y-1990000D03*
G01*
X1570000Y-1890000D03*
G01*
X1570000Y-1990000D03*
G01*
X1670000Y-1890000D03*
D25*
G01*
X1670000Y-1990000D03*
D26*
G01*
X2630000Y-2141579D03*
G01*
X2630000Y-2338429D03*
D27*
G01*
X895000Y-75000D03*
G01*
X795000Y-75000D03*
G01*
X695000Y-75000D03*
G01*
X595000Y-75000D03*
G01*
X495000Y-75000D03*
D28*
G01*
X395000Y-75000D03*
D29*
G01*
X1231999Y-2640000D03*
G01*
X1311000Y-2640000D03*
G01*
X1390000Y-2640000D03*
G01*
X1468000Y-2640000D03*
G01*
X1936999Y-110000D03*
G01*
X2016000Y-110000D03*
G01*
X2095000Y-110000D03*
G01*
X2173000Y-110000D03*
D30*
G01*
X1597330Y-299239D03*
G01*
X1257169Y-299250D03*
D31*
G01*
X1257169Y-133890D03*
G01*
X1597330Y-133890D03*
D32*
G01*
X2025000Y-2325000D03*
G01*
X2395000Y-2425000D03*
G01*
X1445000Y-2300000D03*
G01*
X1725000Y-2150000D03*
G01*
X1365000Y-395000D03*
G01*
X1445000Y-405000D03*
G01*
X500000Y-200000D03*
G01*
X530000Y-820000D03*
G01*
X360000Y-375000D03*
G01*
X285000Y-655000D03*
G01*
X520000Y-1690000D03*
G01*
X740000Y-1475000D03*
G01*
X420000Y-1505000D03*
G01*
X390000Y-1900000D03*
G01*
X1825000Y-470000D03*
G01*
X1630000Y-350000D03*
G01*
X840000Y-1480000D03*
G01*
X1055000Y-1535000D03*
G01*
X480000Y-1510000D03*
G01*
X585000Y-1545000D03*
G01*
X1195000Y-995000D03*
G01*
X1250000Y-720000D03*
G01*
X1065000Y-1595000D03*
G01*
X1445000Y-1705000D03*
G01*
X1205000Y-2014859D03*
G01*
X1065000Y-2190000D03*
G01*
X1090000Y-1925000D03*
G01*
X245000Y-1505000D03*
G01*
X335000Y-1470000D03*
G01*
X1535000Y-765000D03*
G01*
X495000Y-2100000D03*
G01*
X405000Y-1330000D03*
G01*
X1540000Y-995000D03*
G01*
X485000Y-1795000D03*
G01*
X1125000Y-2500000D03*
G01*
X1765000Y-1410000D03*
G01*
X1020000Y-130000D03*
G01*
X1445000Y-210000D03*
G01*
X1500000Y-220000D03*
G01*
X970000Y-1875000D03*
G01*
X1385000Y-2270000D03*
G01*
X1900000Y-1845000D03*
G01*
X1850000Y-2035000D03*
G01*
X1290000Y-1625000D03*
G01*
X1560000Y-1390000D03*
G01*
X1355000Y-2570000D03*
G01*
X1020000Y-2570000D03*
G01*
X920000Y-2490000D03*
G01*
X1245000Y-1780000D03*
G01*
X1245000Y-1980000D03*
G01*
X1020000Y-1480000D03*
G01*
X1090000Y-1530000D03*
G01*
X1025000Y-810000D03*
G01*
X1135000Y-800000D03*
G01*
X1345000Y-710000D03*
G01*
X1315000Y-760000D03*
G01*
X895000Y-543000D03*
G01*
X870000Y-740000D03*
G01*
X2025000Y-2205000D03*
G01*
X2005550Y-1686930D03*
G01*
X1275000Y-1525000D03*
G01*
X1115000Y-2360000D03*
G01*
X1845000Y-2607990D03*
G01*
X1800000Y-2165000D03*
G01*
X1195000Y-1720000D03*
G01*
X1355000Y-1770000D03*
G01*
X1070000Y-2390000D03*
G01*
X2412990Y-1960000D03*
G01*
X2195000Y-2241849D03*
G01*
X1307439Y-2384059D03*
G01*
X1390000Y-1795000D03*
G01*
X1325000Y-1520000D03*
G01*
X1385000Y-1525000D03*
G01*
X1220000Y-1940000D03*
G01*
X1170000Y-1945000D03*
G01*
X1140000Y-2385000D03*
G01*
X1075000Y-2505000D03*
G01*
X815000Y-2530000D03*
G01*
X780630Y-2420000D03*
G01*
X475000Y-2250000D03*
G01*
X1170000Y-2205000D03*
G01*
X1170000Y-2405000D03*
G01*
X1080000Y-2310000D03*
G01*
X1095000Y-2195000D03*
G01*
X1095000Y-2195000D03*
G01*
X1780000Y-2353539D03*
G01*
X521460Y-1615000D03*
G01*
X420000Y-1596460D03*
G01*
X420000Y-1665000D03*
G01*
X521460Y-1555000D03*
G01*
X776220Y-1414490D03*
G01*
X1055630Y-1865000D03*
G01*
X1030000Y-875630D03*
G01*
X840000Y-900000D03*
G01*
X1162250Y-218380D03*
G01*
X1310000Y-473000D03*
G01*
X1301270Y-321579D03*
G01*
X1677250Y-218380D03*
G01*
X1553239Y-321579D03*
G01*
X1500000Y-473000D03*
G01*
X1325000Y-2235630D03*
G01*
X1274340Y-2375659D03*
G01*
X1445000Y-2090000D03*
G01*
X1385000Y-2105000D03*
G01*
X420000Y-1800000D03*
G01*
X1015000Y-1955000D03*
G01*
X930000Y-1760000D03*
M02*
