G04 Layer: TopPasteMaskLayer*
G04 EasyEDA v6.5.51, 2025-09-17 03:18:51*
G04 4aee9cc30035422d88a860af958d7afb,d57bd40a603b42be9e37e0d49851eb9c,10*
G04 Gerber Generator version 0.2*
G04 Scale: 100 percent, Rotated: No, Reflected: No *
G04 Dimensions in inches *
G04 leading zeros omitted , absolute positions ,3 integer and 6 decimal *
%FSLAX36Y36*%
%MOIN*%

%AMMACRO1*21,1,$1,$2,0,0,$3*%
%ADD10R,0.0394X0.0709*%
%ADD11R,0.0394X0.0295*%
%ADD12R,0.1080X0.0850*%
%ADD13R,0.1457X0.0512*%
%ADD14R,0.0276X0.0492*%
%ADD15R,0.0492X0.0276*%
%ADD16R,0.0236X0.0433*%
%ADD17R,0.0433X0.0236*%
%ADD18R,0.0122X0.0236*%
%ADD19R,0.0276X0.0433*%
%ADD20R,0.0394X0.0787*%
%ADD21R,0.0276X0.0276*%
%ADD22R,0.0492X0.0394*%
%ADD23R,0.0236X0.0866*%
%ADD24MACRO1,0.0265X0.062X-90.0000*%
%ADD25R,0.0512X0.1457*%
%ADD26R,0.0433X0.0984*%
%ADD27R,0.1417X0.0921*%
%ADD28R,0.2244X0.0984*%

%LPD*%
G36*
X1668200Y-275460D02*
G01*
X1652060Y-275660D01*
X1650080Y-277640D01*
X1650080Y-322900D01*
X1652060Y-324880D01*
X1702440Y-324880D01*
X1704420Y-322900D01*
X1704420Y-277640D01*
X1702440Y-275660D01*
X1685920Y-275860D01*
X1685920Y-293180D01*
X1668200Y-293180D01*
G37*
G36*
X1652060Y-190620D02*
G01*
X1650080Y-192600D01*
X1650080Y-237880D01*
X1652060Y-239840D01*
X1668580Y-239640D01*
X1668580Y-222320D01*
X1686300Y-222320D01*
X1686300Y-240040D01*
X1702440Y-239840D01*
X1704420Y-237880D01*
X1704420Y-192600D01*
X1702440Y-190620D01*
G37*
G36*
X1153200Y-275460D02*
G01*
X1137060Y-275660D01*
X1135080Y-277640D01*
X1135080Y-322900D01*
X1137060Y-324880D01*
X1187440Y-324880D01*
X1189420Y-322900D01*
X1189420Y-277640D01*
X1187440Y-275660D01*
X1170920Y-275860D01*
X1170920Y-293180D01*
X1153200Y-293180D01*
G37*
G36*
X1137060Y-190620D02*
G01*
X1135080Y-192600D01*
X1135080Y-237880D01*
X1137060Y-239840D01*
X1153580Y-239640D01*
X1153580Y-222320D01*
X1171300Y-222320D01*
X1171300Y-240040D01*
X1187440Y-239840D01*
X1189420Y-237880D01*
X1189420Y-192600D01*
X1187440Y-190620D01*
G37*
G36*
X669880Y-1787840D02*
G01*
X667920Y-1789800D01*
X668100Y-1806339D01*
X685440Y-1806339D01*
X685440Y-1824060D01*
X667720Y-1824060D01*
X667920Y-1840200D01*
X669880Y-1842160D01*
X715160Y-1842160D01*
X717120Y-1840200D01*
X717120Y-1789800D01*
X715160Y-1787840D01*
G37*
G36*
X584840Y-1787840D02*
G01*
X582880Y-1789800D01*
X582880Y-1840200D01*
X584840Y-1842160D01*
X630120Y-1842160D01*
X632080Y-1840200D01*
X631900Y-1823660D01*
X614560Y-1823660D01*
X614560Y-1805940D01*
X632280Y-1805940D01*
X632080Y-1789800D01*
X630120Y-1787840D01*
G37*
G36*
X1390940Y-2452720D02*
G01*
X1374800Y-2452920D01*
X1372840Y-2454880D01*
X1372840Y-2500160D01*
X1374800Y-2502120D01*
X1425200Y-2502120D01*
X1427160Y-2500160D01*
X1427160Y-2454880D01*
X1425200Y-2452920D01*
X1408660Y-2453100D01*
X1408660Y-2470440D01*
X1390940Y-2470440D01*
G37*
G36*
X1374800Y-2367880D02*
G01*
X1372840Y-2369840D01*
X1372840Y-2415120D01*
X1374800Y-2417080D01*
X1391339Y-2416900D01*
X1391339Y-2399560D01*
X1409060Y-2399560D01*
X1409060Y-2417280D01*
X1425200Y-2417080D01*
X1427160Y-2415120D01*
X1427160Y-2369840D01*
X1425200Y-2367880D01*
G37*
G36*
X1394800Y-1192880D02*
G01*
X1392840Y-1194840D01*
X1392840Y-1240120D01*
X1394800Y-1242080D01*
X1411339Y-1241900D01*
X1411339Y-1224560D01*
X1429060Y-1224560D01*
X1429060Y-1242280D01*
X1445200Y-1242080D01*
X1447160Y-1240120D01*
X1447160Y-1194840D01*
X1445200Y-1192880D01*
G37*
G36*
X1410940Y-1277720D02*
G01*
X1394800Y-1277920D01*
X1392840Y-1279880D01*
X1392840Y-1325160D01*
X1394800Y-1327120D01*
X1445200Y-1327120D01*
X1447160Y-1325160D01*
X1447160Y-1279880D01*
X1445200Y-1277920D01*
X1428660Y-1278100D01*
X1428660Y-1295440D01*
X1410940Y-1295440D01*
G37*
G36*
X1309800Y-1187880D02*
G01*
X1307840Y-1189840D01*
X1307840Y-1235120D01*
X1309800Y-1237080D01*
X1326339Y-1236900D01*
X1326339Y-1219560D01*
X1344060Y-1219560D01*
X1344060Y-1237280D01*
X1360200Y-1237080D01*
X1362160Y-1235120D01*
X1362160Y-1189840D01*
X1360200Y-1187880D01*
G37*
G36*
X1325940Y-1272720D02*
G01*
X1309800Y-1272920D01*
X1307840Y-1274880D01*
X1307840Y-1320160D01*
X1309800Y-1322120D01*
X1360200Y-1322120D01*
X1362160Y-1320160D01*
X1362160Y-1274880D01*
X1360200Y-1272920D01*
X1343660Y-1273100D01*
X1343660Y-1290440D01*
X1325940Y-1290440D01*
G37*
G36*
X1624880Y-1607840D02*
G01*
X1622920Y-1609800D01*
X1623100Y-1626339D01*
X1640440Y-1626339D01*
X1640440Y-1644060D01*
X1622720Y-1644060D01*
X1622920Y-1660200D01*
X1624880Y-1662160D01*
X1670160Y-1662160D01*
X1672120Y-1660200D01*
X1672120Y-1609800D01*
X1670160Y-1607840D01*
G37*
G36*
X1539840Y-1607840D02*
G01*
X1537880Y-1609800D01*
X1537880Y-1660200D01*
X1539840Y-1662160D01*
X1585120Y-1662160D01*
X1587080Y-1660200D01*
X1586900Y-1643660D01*
X1569560Y-1643660D01*
X1569560Y-1625940D01*
X1587280Y-1625940D01*
X1587080Y-1609800D01*
X1585120Y-1607840D01*
G37*
G36*
X1624880Y-1512840D02*
G01*
X1622920Y-1514800D01*
X1623100Y-1531339D01*
X1640440Y-1531339D01*
X1640440Y-1549060D01*
X1622720Y-1549060D01*
X1622920Y-1565200D01*
X1624880Y-1567160D01*
X1670160Y-1567160D01*
X1672120Y-1565200D01*
X1672120Y-1514800D01*
X1670160Y-1512840D01*
G37*
G36*
X1539840Y-1512840D02*
G01*
X1537880Y-1514800D01*
X1537880Y-1565200D01*
X1539840Y-1567160D01*
X1585120Y-1567160D01*
X1587080Y-1565200D01*
X1586900Y-1548660D01*
X1569560Y-1548660D01*
X1569560Y-1530940D01*
X1587280Y-1530940D01*
X1587080Y-1514800D01*
X1585120Y-1512840D01*
G37*
G36*
X674880Y-2392840D02*
G01*
X672920Y-2394800D01*
X673100Y-2411340D01*
X690440Y-2411340D01*
X690440Y-2429060D01*
X672720Y-2429060D01*
X672920Y-2445200D01*
X674880Y-2447160D01*
X720160Y-2447160D01*
X722120Y-2445200D01*
X722120Y-2394800D01*
X720160Y-2392840D01*
G37*
G36*
X589840Y-2392840D02*
G01*
X587880Y-2394800D01*
X587880Y-2445200D01*
X589840Y-2447160D01*
X635120Y-2447160D01*
X637080Y-2445200D01*
X636900Y-2428660D01*
X619560Y-2428660D01*
X619560Y-2410940D01*
X637280Y-2410940D01*
X637080Y-2394800D01*
X635120Y-2392840D01*
G37*
G36*
X674880Y-2302840D02*
G01*
X672920Y-2304800D01*
X673100Y-2321340D01*
X690440Y-2321340D01*
X690440Y-2339060D01*
X672720Y-2339060D01*
X672920Y-2355200D01*
X674880Y-2357160D01*
X720160Y-2357160D01*
X722120Y-2355200D01*
X722120Y-2304800D01*
X720160Y-2302840D01*
G37*
G36*
X589840Y-2302840D02*
G01*
X587880Y-2304800D01*
X587880Y-2355200D01*
X589840Y-2357160D01*
X635120Y-2357160D01*
X637080Y-2355200D01*
X636900Y-2338660D01*
X619560Y-2338660D01*
X619560Y-2320940D01*
X637280Y-2320940D01*
X637080Y-2304800D01*
X635120Y-2302840D01*
G37*
G36*
X674880Y-2202840D02*
G01*
X672920Y-2204800D01*
X673100Y-2221340D01*
X690440Y-2221340D01*
X690440Y-2239060D01*
X672720Y-2239060D01*
X672920Y-2255200D01*
X674880Y-2257160D01*
X720160Y-2257160D01*
X722120Y-2255200D01*
X722120Y-2204800D01*
X720160Y-2202840D01*
G37*
G36*
X589840Y-2202840D02*
G01*
X587880Y-2204800D01*
X587880Y-2255200D01*
X589840Y-2257160D01*
X635120Y-2257160D01*
X637080Y-2255200D01*
X636900Y-2238660D01*
X619560Y-2238660D01*
X619560Y-2220940D01*
X637280Y-2220940D01*
X637080Y-2204800D01*
X635120Y-2202840D01*
G37*
G36*
X569800Y-2032880D02*
G01*
X567840Y-2034840D01*
X567840Y-2080120D01*
X569800Y-2082080D01*
X586340Y-2081900D01*
X586340Y-2064560D01*
X604060Y-2064560D01*
X604060Y-2082280D01*
X620200Y-2082080D01*
X622160Y-2080120D01*
X622160Y-2034840D01*
X620200Y-2032880D01*
G37*
G36*
X585940Y-2117720D02*
G01*
X569800Y-2117920D01*
X567840Y-2119880D01*
X567840Y-2165160D01*
X569800Y-2167120D01*
X620200Y-2167120D01*
X622160Y-2165160D01*
X622160Y-2119880D01*
X620200Y-2117920D01*
X603660Y-2118100D01*
X603660Y-2135440D01*
X585940Y-2135440D01*
G37*
G36*
X794800Y-1528060D02*
G01*
X792840Y-1530040D01*
X792840Y-1575320D01*
X794800Y-1577280D01*
X811340Y-1577080D01*
X811340Y-1559760D01*
X829060Y-1559760D01*
X829060Y-1577480D01*
X845200Y-1577280D01*
X847159Y-1575320D01*
X847159Y-1530040D01*
X845200Y-1528060D01*
G37*
G36*
X794800Y-1612720D02*
G01*
X792840Y-1614680D01*
X792840Y-1659960D01*
X794800Y-1661920D01*
X845200Y-1661920D01*
X847159Y-1659960D01*
X847159Y-1614680D01*
X845200Y-1612720D01*
X829060Y-1612920D01*
X829060Y-1630240D01*
X811340Y-1630240D01*
X811340Y-1612720D01*
G37*
G36*
X630940Y-1612520D02*
G01*
X614800Y-1612720D01*
X612840Y-1614680D01*
X612840Y-1659960D01*
X614800Y-1661940D01*
X665200Y-1661940D01*
X667159Y-1659960D01*
X667159Y-1614680D01*
X665200Y-1612720D01*
X648660Y-1612920D01*
X648660Y-1630240D01*
X630940Y-1630240D01*
G37*
G36*
X614800Y-1528080D02*
G01*
X612840Y-1530040D01*
X612840Y-1575320D01*
X614800Y-1577280D01*
X630940Y-1577080D01*
X630940Y-1559760D01*
X648660Y-1559760D01*
X648660Y-1577280D01*
X665200Y-1577280D01*
X667159Y-1575320D01*
X667159Y-1530040D01*
X665200Y-1528080D01*
G37*
G36*
X414680Y-2102840D02*
G01*
X412720Y-2104800D01*
X412920Y-2121340D01*
X430240Y-2121340D01*
X430240Y-2139060D01*
X412520Y-2139060D01*
X412720Y-2155200D01*
X414680Y-2157160D01*
X459960Y-2157160D01*
X461940Y-2155200D01*
X461940Y-2104800D01*
X459960Y-2102840D01*
G37*
G36*
X330040Y-2102840D02*
G01*
X328080Y-2104800D01*
X328080Y-2155200D01*
X330040Y-2157160D01*
X375319Y-2157160D01*
X377280Y-2155200D01*
X377080Y-2139060D01*
X359760Y-2139060D01*
X359760Y-2121340D01*
X377280Y-2121340D01*
X377280Y-2104800D01*
X375319Y-2102840D01*
G37*
G36*
X1215940Y-2292520D02*
G01*
X1199800Y-2292720D01*
X1197840Y-2294680D01*
X1197840Y-2339960D01*
X1199800Y-2341940D01*
X1250200Y-2341940D01*
X1252160Y-2339960D01*
X1252160Y-2294680D01*
X1250200Y-2292720D01*
X1233660Y-2292920D01*
X1233660Y-2310240D01*
X1215940Y-2310240D01*
G37*
G36*
X1199800Y-2208080D02*
G01*
X1197840Y-2210040D01*
X1197840Y-2255320D01*
X1199800Y-2257280D01*
X1215940Y-2257080D01*
X1215940Y-2239760D01*
X1233660Y-2239760D01*
X1233660Y-2257280D01*
X1250200Y-2257280D01*
X1252160Y-2255320D01*
X1252160Y-2210040D01*
X1250200Y-2208080D01*
G37*
G36*
X1980040Y-2452840D02*
G01*
X1978060Y-2454800D01*
X1978060Y-2505200D01*
X1980040Y-2507160D01*
X2025320Y-2507160D01*
X2027280Y-2505200D01*
X2027080Y-2488660D01*
X2009760Y-2488660D01*
X2009760Y-2470940D01*
X2027480Y-2470940D01*
X2027280Y-2454800D01*
X2025320Y-2452840D01*
G37*
G36*
X2064680Y-2452840D02*
G01*
X2062720Y-2454800D01*
X2062920Y-2470940D01*
X2080240Y-2470940D01*
X2080240Y-2488660D01*
X2062720Y-2488660D01*
X2062720Y-2505200D01*
X2064680Y-2507160D01*
X2109960Y-2507160D01*
X2111920Y-2505200D01*
X2111920Y-2454800D01*
X2109960Y-2452840D01*
G37*
G36*
X340940Y-1582520D02*
G01*
X324799Y-1582720D01*
X322840Y-1584680D01*
X322840Y-1629960D01*
X324799Y-1631940D01*
X375200Y-1631940D01*
X377160Y-1629960D01*
X377160Y-1584680D01*
X375200Y-1582720D01*
X358660Y-1582920D01*
X358660Y-1600240D01*
X340940Y-1600240D01*
G37*
G36*
X324799Y-1498080D02*
G01*
X322840Y-1500040D01*
X322840Y-1545320D01*
X324799Y-1547280D01*
X340940Y-1547080D01*
X340940Y-1529760D01*
X358660Y-1529760D01*
X358660Y-1547280D01*
X375200Y-1547280D01*
X377160Y-1545320D01*
X377160Y-1500040D01*
X375200Y-1498080D01*
G37*
G36*
X325040Y-2402840D02*
G01*
X323060Y-2404800D01*
X323060Y-2455200D01*
X325040Y-2457160D01*
X370319Y-2457160D01*
X372280Y-2455200D01*
X372080Y-2438660D01*
X354760Y-2438660D01*
X354760Y-2420940D01*
X372480Y-2420940D01*
X372280Y-2404800D01*
X370319Y-2402840D01*
G37*
G36*
X409680Y-2402840D02*
G01*
X407720Y-2404800D01*
X407920Y-2420940D01*
X425240Y-2420940D01*
X425240Y-2438660D01*
X407720Y-2438660D01*
X407720Y-2455200D01*
X409680Y-2457160D01*
X454960Y-2457160D01*
X456920Y-2455200D01*
X456920Y-2404800D01*
X454960Y-2402840D01*
G37*
G36*
X2129800Y-1898060D02*
G01*
X2127840Y-1900040D01*
X2127840Y-1945320D01*
X2129800Y-1947280D01*
X2146340Y-1947080D01*
X2146340Y-1929760D01*
X2164060Y-1929760D01*
X2164060Y-1947480D01*
X2180200Y-1947280D01*
X2182160Y-1945320D01*
X2182160Y-1900040D01*
X2180200Y-1898060D01*
G37*
G36*
X2129800Y-1982720D02*
G01*
X2127840Y-1984680D01*
X2127840Y-2029960D01*
X2129800Y-2031920D01*
X2180200Y-2031920D01*
X2182160Y-2029960D01*
X2182160Y-1984680D01*
X2180200Y-1982720D01*
X2164060Y-1982920D01*
X2164060Y-2000240D01*
X2146340Y-2000240D01*
X2146340Y-1982720D01*
G37*
G36*
X1299800Y-2208060D02*
G01*
X1297840Y-2210040D01*
X1297840Y-2255320D01*
X1299800Y-2257280D01*
X1316339Y-2257080D01*
X1316339Y-2239760D01*
X1334060Y-2239760D01*
X1334060Y-2257480D01*
X1350200Y-2257280D01*
X1352160Y-2255320D01*
X1352160Y-2210040D01*
X1350200Y-2208060D01*
G37*
G36*
X1299800Y-2292720D02*
G01*
X1297840Y-2294680D01*
X1297840Y-2339960D01*
X1299800Y-2341920D01*
X1350200Y-2341920D01*
X1352160Y-2339960D01*
X1352160Y-2294680D01*
X1350200Y-2292720D01*
X1334060Y-2292920D01*
X1334060Y-2310240D01*
X1316339Y-2310240D01*
X1316339Y-2292720D01*
G37*
G36*
X590940Y-617520D02*
G01*
X574800Y-617720D01*
X572840Y-619680D01*
X572840Y-664960D01*
X574800Y-666940D01*
X625200Y-666940D01*
X627160Y-664960D01*
X627160Y-619680D01*
X625200Y-617720D01*
X608660Y-617920D01*
X608660Y-635240D01*
X590940Y-635240D01*
G37*
G36*
X574800Y-533080D02*
G01*
X572840Y-535040D01*
X572840Y-580320D01*
X574800Y-582280D01*
X590940Y-582080D01*
X590940Y-564760D01*
X608660Y-564760D01*
X608660Y-582280D01*
X625200Y-582280D01*
X627160Y-580320D01*
X627160Y-535040D01*
X625200Y-533080D01*
G37*
G36*
X2175040Y-2402840D02*
G01*
X2173060Y-2404800D01*
X2173060Y-2455200D01*
X2175040Y-2457160D01*
X2220320Y-2457160D01*
X2222280Y-2455200D01*
X2222080Y-2438660D01*
X2204760Y-2438660D01*
X2204760Y-2420940D01*
X2222480Y-2420940D01*
X2222280Y-2404800D01*
X2220320Y-2402840D01*
G37*
G36*
X2259680Y-2402840D02*
G01*
X2257720Y-2404800D01*
X2257920Y-2420940D01*
X2275240Y-2420940D01*
X2275240Y-2438660D01*
X2257720Y-2438660D01*
X2257720Y-2455200D01*
X2259680Y-2457160D01*
X2304960Y-2457160D01*
X2306920Y-2455200D01*
X2306920Y-2404800D01*
X2304960Y-2402840D01*
G37*
G36*
X685939Y-617520D02*
G01*
X669800Y-617720D01*
X667840Y-619680D01*
X667840Y-664960D01*
X669800Y-666940D01*
X720200Y-666940D01*
X722159Y-664960D01*
X722159Y-619680D01*
X720200Y-617720D01*
X703660Y-617920D01*
X703660Y-635240D01*
X685939Y-635240D01*
G37*
G36*
X669800Y-533080D02*
G01*
X667840Y-535040D01*
X667840Y-580320D01*
X669800Y-582280D01*
X685939Y-582080D01*
X685939Y-564760D01*
X703660Y-564760D01*
X703660Y-582280D01*
X720200Y-582280D01*
X722159Y-580320D01*
X722159Y-535040D01*
X720200Y-533080D01*
G37*
G36*
X1980040Y-2367840D02*
G01*
X1978060Y-2369800D01*
X1978060Y-2420200D01*
X1980040Y-2422160D01*
X2025320Y-2422160D01*
X2027280Y-2420200D01*
X2027080Y-2403660D01*
X2009760Y-2403660D01*
X2009760Y-2385940D01*
X2027480Y-2385940D01*
X2027280Y-2369800D01*
X2025320Y-2367840D01*
G37*
G36*
X2064680Y-2367840D02*
G01*
X2062720Y-2369800D01*
X2062920Y-2385940D01*
X2080240Y-2385940D01*
X2080240Y-2403660D01*
X2062720Y-2403660D01*
X2062720Y-2420200D01*
X2064680Y-2422160D01*
X2109960Y-2422160D01*
X2111920Y-2420200D01*
X2111920Y-2369800D01*
X2109960Y-2367840D01*
G37*
G36*
X1063200Y-275280D02*
G01*
X1047060Y-275460D01*
X1045080Y-277440D01*
X1045080Y-322720D01*
X1047060Y-324680D01*
X1097440Y-324680D01*
X1099420Y-322720D01*
X1099420Y-277440D01*
X1097440Y-275460D01*
X1080920Y-275660D01*
X1080920Y-292980D01*
X1063200Y-292980D01*
G37*
G36*
X1047060Y-190820D02*
G01*
X1045080Y-192800D01*
X1045080Y-238060D01*
X1047060Y-240040D01*
X1063200Y-239840D01*
X1063200Y-222520D01*
X1080920Y-222520D01*
X1080920Y-240040D01*
X1097440Y-240040D01*
X1099420Y-238060D01*
X1099420Y-192800D01*
X1097440Y-190820D01*
G37*
G36*
X1742060Y-190820D02*
G01*
X1740080Y-192780D01*
X1740080Y-238060D01*
X1742060Y-240040D01*
X1758580Y-239840D01*
X1758580Y-222520D01*
X1776300Y-222520D01*
X1776300Y-240240D01*
X1792440Y-240040D01*
X1794420Y-238060D01*
X1794420Y-192780D01*
X1792440Y-190820D01*
G37*
G36*
X1742060Y-275460D02*
G01*
X1740080Y-277440D01*
X1740080Y-322720D01*
X1742060Y-324680D01*
X1792440Y-324680D01*
X1794420Y-322720D01*
X1794420Y-277440D01*
X1792440Y-275460D01*
X1776300Y-275660D01*
X1776300Y-292980D01*
X1758580Y-292980D01*
X1758580Y-275460D01*
G37*
G36*
X310040Y-602840D02*
G01*
X308060Y-604800D01*
X308060Y-655200D01*
X310040Y-657159D01*
X355319Y-657159D01*
X357280Y-655200D01*
X357080Y-638660D01*
X339760Y-638660D01*
X339760Y-620940D01*
X357480Y-620940D01*
X357280Y-604800D01*
X355319Y-602840D01*
G37*
G36*
X394680Y-602840D02*
G01*
X392720Y-604800D01*
X392920Y-620940D01*
X410240Y-620940D01*
X410240Y-638660D01*
X392720Y-638660D01*
X392720Y-655200D01*
X394680Y-657159D01*
X439960Y-657159D01*
X441920Y-655200D01*
X441920Y-604800D01*
X439960Y-602840D01*
G37*
G36*
X895939Y-1612520D02*
G01*
X879800Y-1612720D01*
X877840Y-1614680D01*
X877840Y-1659960D01*
X879800Y-1661940D01*
X930200Y-1661940D01*
X932159Y-1659960D01*
X932159Y-1614680D01*
X930200Y-1612720D01*
X913660Y-1612920D01*
X913660Y-1630240D01*
X895939Y-1630240D01*
G37*
G36*
X879800Y-1528080D02*
G01*
X877840Y-1530040D01*
X877840Y-1575320D01*
X879800Y-1577280D01*
X895939Y-1577080D01*
X895939Y-1559760D01*
X913660Y-1559760D01*
X913660Y-1577280D01*
X930200Y-1577280D01*
X932159Y-1575320D01*
X932159Y-1530040D01*
X930200Y-1528080D01*
G37*
G36*
X704800Y-1528060D02*
G01*
X702840Y-1530040D01*
X702840Y-1575320D01*
X704800Y-1577280D01*
X721340Y-1577080D01*
X721340Y-1559760D01*
X739060Y-1559760D01*
X739060Y-1577480D01*
X755200Y-1577280D01*
X757159Y-1575320D01*
X757159Y-1530040D01*
X755200Y-1528060D01*
G37*
G36*
X704800Y-1612720D02*
G01*
X702840Y-1614680D01*
X702840Y-1659960D01*
X704800Y-1661920D01*
X755200Y-1661920D01*
X757159Y-1659960D01*
X757159Y-1614680D01*
X755200Y-1612720D01*
X739060Y-1612920D01*
X739060Y-1630240D01*
X721340Y-1630240D01*
X721340Y-1612720D01*
G37*
G36*
X985939Y-1612520D02*
G01*
X969800Y-1612720D01*
X967840Y-1614680D01*
X967840Y-1659960D01*
X969800Y-1661940D01*
X1020200Y-1661940D01*
X1022159Y-1659960D01*
X1022159Y-1614680D01*
X1020200Y-1612720D01*
X1003660Y-1612920D01*
X1003660Y-1630240D01*
X985939Y-1630240D01*
G37*
G36*
X969800Y-1528080D02*
G01*
X967840Y-1530040D01*
X967840Y-1575320D01*
X969800Y-1577280D01*
X985939Y-1577080D01*
X985939Y-1559760D01*
X1003660Y-1559760D01*
X1003660Y-1577280D01*
X1020200Y-1577280D01*
X1022159Y-1575320D01*
X1022159Y-1530040D01*
X1020200Y-1528080D01*
G37*
G36*
X1555040Y-797840D02*
G01*
X1553060Y-799800D01*
X1553060Y-850200D01*
X1555040Y-852159D01*
X1600320Y-852159D01*
X1602280Y-850200D01*
X1602080Y-833660D01*
X1584760Y-833660D01*
X1584760Y-815939D01*
X1602480Y-815939D01*
X1602280Y-799800D01*
X1600320Y-797840D01*
G37*
G36*
X1639680Y-797840D02*
G01*
X1637720Y-799800D01*
X1637920Y-815939D01*
X1655240Y-815939D01*
X1655240Y-833660D01*
X1637720Y-833660D01*
X1637720Y-850200D01*
X1639680Y-852159D01*
X1684960Y-852159D01*
X1686920Y-850200D01*
X1686920Y-799800D01*
X1684960Y-797840D01*
G37*
G36*
X1555040Y-892840D02*
G01*
X1553060Y-894800D01*
X1553060Y-945200D01*
X1555040Y-947159D01*
X1600320Y-947159D01*
X1602280Y-945200D01*
X1602080Y-928660D01*
X1584760Y-928660D01*
X1584760Y-910939D01*
X1602480Y-910939D01*
X1602280Y-894800D01*
X1600320Y-892840D01*
G37*
G36*
X1639680Y-892840D02*
G01*
X1637720Y-894800D01*
X1637920Y-910939D01*
X1655240Y-910939D01*
X1655240Y-928660D01*
X1637720Y-928660D01*
X1637720Y-945200D01*
X1639680Y-947159D01*
X1684960Y-947159D01*
X1686920Y-945200D01*
X1686920Y-894800D01*
X1684960Y-892840D01*
G37*
G36*
X1339800Y-1828060D02*
G01*
X1337840Y-1830040D01*
X1337840Y-1875320D01*
X1339800Y-1877280D01*
X1356339Y-1877080D01*
X1356339Y-1859760D01*
X1374060Y-1859760D01*
X1374060Y-1877480D01*
X1390200Y-1877280D01*
X1392160Y-1875320D01*
X1392160Y-1830040D01*
X1390200Y-1828060D01*
G37*
G36*
X1339800Y-1912720D02*
G01*
X1337840Y-1914680D01*
X1337840Y-1959960D01*
X1339800Y-1961920D01*
X1390200Y-1961920D01*
X1392160Y-1959960D01*
X1392160Y-1914680D01*
X1390200Y-1912720D01*
X1374060Y-1912920D01*
X1374060Y-1930240D01*
X1356339Y-1930240D01*
X1356339Y-1912720D01*
G37*
G36*
X1224800Y-703060D02*
G01*
X1222840Y-705040D01*
X1222840Y-750320D01*
X1224800Y-752280D01*
X1241340Y-752080D01*
X1241340Y-734760D01*
X1259060Y-734760D01*
X1259060Y-752480D01*
X1275200Y-752280D01*
X1277160Y-750320D01*
X1277160Y-705040D01*
X1275200Y-703060D01*
G37*
G36*
X1224800Y-787720D02*
G01*
X1222840Y-789680D01*
X1222840Y-834960D01*
X1224800Y-836919D01*
X1275200Y-836919D01*
X1277160Y-834960D01*
X1277160Y-789680D01*
X1275200Y-787720D01*
X1259060Y-787920D01*
X1259060Y-805240D01*
X1241340Y-805240D01*
X1241340Y-787720D01*
G37*
G36*
X1215940Y-2127520D02*
G01*
X1199800Y-2127720D01*
X1197840Y-2129680D01*
X1197840Y-2174960D01*
X1199800Y-2176940D01*
X1250200Y-2176940D01*
X1252160Y-2174960D01*
X1252160Y-2129680D01*
X1250200Y-2127720D01*
X1233660Y-2127920D01*
X1233660Y-2145240D01*
X1215940Y-2145240D01*
G37*
G36*
X1199800Y-2043080D02*
G01*
X1197840Y-2045040D01*
X1197840Y-2090320D01*
X1199800Y-2092280D01*
X1215940Y-2092080D01*
X1215940Y-2074760D01*
X1233660Y-2074760D01*
X1233660Y-2092280D01*
X1250200Y-2092280D01*
X1252160Y-2090320D01*
X1252160Y-2045040D01*
X1250200Y-2043080D01*
G37*
G36*
X1504680Y-2217840D02*
G01*
X1502720Y-2219800D01*
X1502920Y-2236340D01*
X1520240Y-2236340D01*
X1520240Y-2254060D01*
X1502520Y-2254060D01*
X1502720Y-2270200D01*
X1504680Y-2272160D01*
X1549960Y-2272160D01*
X1551940Y-2270200D01*
X1551940Y-2219800D01*
X1549960Y-2217840D01*
G37*
G36*
X1420040Y-2217840D02*
G01*
X1418080Y-2219800D01*
X1418080Y-2270200D01*
X1420040Y-2272160D01*
X1465320Y-2272160D01*
X1467280Y-2270200D01*
X1467080Y-2254060D01*
X1449760Y-2254060D01*
X1449760Y-2236340D01*
X1467280Y-2236340D01*
X1467280Y-2219800D01*
X1465320Y-2217840D01*
G37*
G36*
X1134800Y-633060D02*
G01*
X1132840Y-635040D01*
X1132840Y-680320D01*
X1134800Y-682280D01*
X1151340Y-682080D01*
X1151340Y-664760D01*
X1169060Y-664760D01*
X1169060Y-682480D01*
X1185200Y-682280D01*
X1187160Y-680320D01*
X1187160Y-635040D01*
X1185200Y-633060D01*
G37*
G36*
X1134800Y-717720D02*
G01*
X1132840Y-719680D01*
X1132840Y-764960D01*
X1134800Y-766919D01*
X1185200Y-766919D01*
X1187160Y-764960D01*
X1187160Y-719680D01*
X1185200Y-717720D01*
X1169060Y-717920D01*
X1169060Y-735240D01*
X1151340Y-735240D01*
X1151340Y-717720D01*
G37*
G36*
X1420040Y-2132840D02*
G01*
X1418060Y-2134800D01*
X1418060Y-2185200D01*
X1420040Y-2187160D01*
X1465320Y-2187160D01*
X1467280Y-2185200D01*
X1467080Y-2168660D01*
X1449760Y-2168660D01*
X1449760Y-2150940D01*
X1467480Y-2150940D01*
X1467280Y-2134800D01*
X1465320Y-2132840D01*
G37*
G36*
X1504680Y-2132840D02*
G01*
X1502720Y-2134800D01*
X1502920Y-2150940D01*
X1520240Y-2150940D01*
X1520240Y-2168660D01*
X1502720Y-2168660D01*
X1502720Y-2185200D01*
X1504680Y-2187160D01*
X1549960Y-2187160D01*
X1551920Y-2185200D01*
X1551920Y-2134800D01*
X1549960Y-2132840D01*
G37*
G36*
X914800Y-848060D02*
G01*
X912840Y-850040D01*
X912840Y-895320D01*
X914800Y-897280D01*
X931340Y-897080D01*
X931340Y-879760D01*
X949060Y-879760D01*
X949060Y-897480D01*
X965200Y-897280D01*
X967159Y-895320D01*
X967159Y-850040D01*
X965200Y-848060D01*
G37*
G36*
X914800Y-932720D02*
G01*
X912840Y-934680D01*
X912840Y-979960D01*
X914800Y-981919D01*
X965200Y-981919D01*
X967159Y-979960D01*
X967159Y-934680D01*
X965200Y-932720D01*
X949060Y-932920D01*
X949060Y-950240D01*
X931340Y-950240D01*
X931340Y-932720D01*
G37*
G36*
X400040Y-2607840D02*
G01*
X398060Y-2609800D01*
X398060Y-2660200D01*
X400040Y-2662160D01*
X445319Y-2662160D01*
X447280Y-2660200D01*
X447080Y-2643660D01*
X429760Y-2643660D01*
X429760Y-2625940D01*
X447480Y-2625940D01*
X447280Y-2609800D01*
X445319Y-2607840D01*
G37*
G36*
X484680Y-2607840D02*
G01*
X482720Y-2609800D01*
X482920Y-2625940D01*
X500240Y-2625940D01*
X500240Y-2643660D01*
X482720Y-2643660D01*
X482720Y-2660200D01*
X484680Y-2662160D01*
X529960Y-2662160D01*
X531920Y-2660200D01*
X531920Y-2609800D01*
X529960Y-2607840D01*
G37*
G36*
X1020939Y-932520D02*
G01*
X1004800Y-932720D01*
X1002840Y-934680D01*
X1002840Y-979960D01*
X1004800Y-981940D01*
X1055200Y-981940D01*
X1057160Y-979960D01*
X1057160Y-934680D01*
X1055200Y-932720D01*
X1038660Y-932920D01*
X1038660Y-950240D01*
X1020939Y-950240D01*
G37*
G36*
X1004800Y-848080D02*
G01*
X1002840Y-850040D01*
X1002840Y-895320D01*
X1004800Y-897280D01*
X1020939Y-897080D01*
X1020939Y-879760D01*
X1038660Y-879760D01*
X1038660Y-897280D01*
X1055200Y-897280D01*
X1057160Y-895320D01*
X1057160Y-850040D01*
X1055200Y-848080D01*
G37*
G36*
X839680Y-2302840D02*
G01*
X837720Y-2304800D01*
X837920Y-2321340D01*
X855240Y-2321340D01*
X855240Y-2339060D01*
X837520Y-2339060D01*
X837720Y-2355200D01*
X839680Y-2357160D01*
X884960Y-2357160D01*
X886940Y-2355200D01*
X886940Y-2304800D01*
X884960Y-2302840D01*
G37*
G36*
X755040Y-2302840D02*
G01*
X753080Y-2304800D01*
X753080Y-2355200D01*
X755040Y-2357160D01*
X800320Y-2357160D01*
X802280Y-2355200D01*
X802080Y-2339060D01*
X784760Y-2339060D01*
X784760Y-2321340D01*
X802280Y-2321340D01*
X802280Y-2304800D01*
X800320Y-2302840D01*
G37*
G36*
X839680Y-2392840D02*
G01*
X837720Y-2394800D01*
X837920Y-2411340D01*
X855240Y-2411340D01*
X855240Y-2429060D01*
X837520Y-2429060D01*
X837720Y-2445200D01*
X839680Y-2447160D01*
X884960Y-2447160D01*
X886940Y-2445200D01*
X886940Y-2394800D01*
X884960Y-2392840D01*
G37*
G36*
X755040Y-2392840D02*
G01*
X753080Y-2394800D01*
X753080Y-2445200D01*
X755040Y-2447160D01*
X800320Y-2447160D01*
X802280Y-2445200D01*
X802080Y-2429060D01*
X784760Y-2429060D01*
X784760Y-2411340D01*
X802280Y-2411340D01*
X802280Y-2394800D01*
X800320Y-2392840D01*
G37*
G36*
X675939Y-2117520D02*
G01*
X659800Y-2117720D01*
X657840Y-2119680D01*
X657840Y-2164960D01*
X659800Y-2166940D01*
X710200Y-2166940D01*
X712159Y-2164960D01*
X712159Y-2119680D01*
X710200Y-2117720D01*
X693660Y-2117920D01*
X693660Y-2135240D01*
X675939Y-2135240D01*
G37*
G36*
X659800Y-2033080D02*
G01*
X657840Y-2035040D01*
X657840Y-2080320D01*
X659800Y-2082280D01*
X675939Y-2082080D01*
X675939Y-2064760D01*
X693660Y-2064760D01*
X693660Y-2082280D01*
X710200Y-2082280D01*
X712159Y-2080320D01*
X712159Y-2035040D01*
X710200Y-2033080D01*
G37*
G36*
X590040Y-1942840D02*
G01*
X588060Y-1944800D01*
X588060Y-1995200D01*
X590040Y-1997160D01*
X635320Y-1997160D01*
X637280Y-1995200D01*
X637080Y-1978660D01*
X619760Y-1978660D01*
X619760Y-1960940D01*
X637480Y-1960940D01*
X637280Y-1944800D01*
X635320Y-1942840D01*
G37*
G36*
X674680Y-1942840D02*
G01*
X672720Y-1944800D01*
X672920Y-1960940D01*
X690240Y-1960940D01*
X690240Y-1978660D01*
X672720Y-1978660D01*
X672720Y-1995200D01*
X674680Y-1997160D01*
X719960Y-1997160D01*
X721919Y-1995200D01*
X721919Y-1944800D01*
X719960Y-1942840D01*
G37*
G36*
X2086140Y-2297080D02*
G01*
X2084180Y-2299840D01*
X2084180Y-2318740D01*
X2086140Y-2320700D01*
X2103860Y-2320700D01*
X2105820Y-2318740D01*
X2105820Y-2299840D01*
X2103860Y-2297080D01*
G37*
G36*
X2086140Y-2259300D02*
G01*
X2084180Y-2261260D01*
X2084180Y-2280160D01*
X2086140Y-2282920D01*
X2103860Y-2282920D01*
X2105820Y-2280160D01*
X2105820Y-2261260D01*
X2103860Y-2259300D01*
G37*
G36*
X471260Y-1544180D02*
G01*
X469300Y-1546140D01*
X469300Y-1563860D01*
X471260Y-1565820D01*
X490160Y-1565820D01*
X492920Y-1563860D01*
X492920Y-1546140D01*
X490160Y-1544180D01*
G37*
G36*
X509840Y-1544180D02*
G01*
X507080Y-1546140D01*
X507080Y-1563860D01*
X509840Y-1565820D01*
X528740Y-1565820D01*
X530700Y-1563860D01*
X530700Y-1546140D01*
X528740Y-1544180D01*
G37*
G36*
X471260Y-1604180D02*
G01*
X469300Y-1606140D01*
X469300Y-1623860D01*
X471260Y-1625820D01*
X490160Y-1625820D01*
X492920Y-1623860D01*
X492920Y-1606140D01*
X490160Y-1604180D01*
G37*
G36*
X509840Y-1604180D02*
G01*
X507080Y-1606140D01*
X507080Y-1623860D01*
X509840Y-1625820D01*
X528740Y-1625820D01*
X530700Y-1623860D01*
X530700Y-1606140D01*
X528740Y-1604180D01*
G37*
G36*
X2209840Y-2099180D02*
G01*
X2207080Y-2101140D01*
X2207080Y-2118860D01*
X2209840Y-2120820D01*
X2228740Y-2120820D01*
X2230700Y-2118860D01*
X2230700Y-2101140D01*
X2228740Y-2099180D01*
G37*
G36*
X2171260Y-2099180D02*
G01*
X2169300Y-2101140D01*
X2169300Y-2118860D01*
X2171260Y-2120820D01*
X2190160Y-2120820D01*
X2192920Y-2118860D01*
X2192920Y-2101140D01*
X2190160Y-2099180D01*
G37*
G36*
X2210440Y-2157280D02*
G01*
X2207680Y-2159240D01*
X2207680Y-2176960D01*
X2210440Y-2178920D01*
X2229340Y-2178920D01*
X2231300Y-2176960D01*
X2231300Y-2159240D01*
X2229340Y-2157280D01*
G37*
G36*
X2171860Y-2157280D02*
G01*
X2169880Y-2159240D01*
X2169880Y-2176960D01*
X2171860Y-2178920D01*
X2190740Y-2178920D01*
X2193500Y-2176960D01*
X2193500Y-2159240D01*
X2190740Y-2157280D01*
G37*
G36*
X71140Y-1479300D02*
G01*
X69180Y-1481260D01*
X69180Y-1500160D01*
X71140Y-1502920D01*
X88859Y-1502920D01*
X90820Y-1500160D01*
X90820Y-1481260D01*
X88859Y-1479300D01*
G37*
G36*
X71140Y-1517080D02*
G01*
X69180Y-1519840D01*
X69180Y-1538740D01*
X71140Y-1540700D01*
X88859Y-1540700D01*
X90820Y-1538740D01*
X90820Y-1519840D01*
X88859Y-1517080D01*
G37*
G36*
X2066140Y-2192080D02*
G01*
X2064180Y-2194840D01*
X2064180Y-2213740D01*
X2066140Y-2215700D01*
X2083860Y-2215700D01*
X2085820Y-2213740D01*
X2085820Y-2194840D01*
X2083860Y-2192080D01*
G37*
G36*
X2066140Y-2154300D02*
G01*
X2064180Y-2156260D01*
X2064180Y-2175160D01*
X2066140Y-2177920D01*
X2083860Y-2177920D01*
X2085820Y-2175160D01*
X2085820Y-2156260D01*
X2083860Y-2154300D01*
G37*
G36*
X2016140Y-2192080D02*
G01*
X2014180Y-2194840D01*
X2014180Y-2213740D01*
X2016140Y-2215700D01*
X2033860Y-2215700D01*
X2035820Y-2213740D01*
X2035820Y-2194840D01*
X2033860Y-2192080D01*
G37*
G36*
X2016140Y-2154300D02*
G01*
X2014180Y-2156260D01*
X2014180Y-2175160D01*
X2016140Y-2177920D01*
X2033860Y-2177920D01*
X2035820Y-2175160D01*
X2035820Y-2156260D01*
X2033860Y-2154300D01*
G37*
G36*
X411140Y-1544300D02*
G01*
X409180Y-1546260D01*
X409180Y-1565160D01*
X411140Y-1567920D01*
X428860Y-1567920D01*
X430820Y-1565160D01*
X430820Y-1546260D01*
X428860Y-1544300D01*
G37*
G36*
X411140Y-1582080D02*
G01*
X409180Y-1584840D01*
X409180Y-1603740D01*
X411140Y-1605700D01*
X428860Y-1605700D01*
X430820Y-1603740D01*
X430820Y-1584840D01*
X428860Y-1582080D01*
G37*
G36*
X136260Y-2429180D02*
G01*
X134300Y-2431140D01*
X134300Y-2448860D01*
X136260Y-2450820D01*
X155160Y-2450820D01*
X157920Y-2448860D01*
X157920Y-2431140D01*
X155160Y-2429180D01*
G37*
G36*
X174840Y-2429180D02*
G01*
X172079Y-2431140D01*
X172079Y-2448860D01*
X174840Y-2450820D01*
X193740Y-2450820D01*
X195700Y-2448860D01*
X195700Y-2431140D01*
X193740Y-2429180D01*
G37*
G36*
X1636260Y-2114180D02*
G01*
X1634300Y-2116140D01*
X1634300Y-2133860D01*
X1636260Y-2135820D01*
X1655160Y-2135820D01*
X1657920Y-2133860D01*
X1657920Y-2116140D01*
X1655160Y-2114180D01*
G37*
G36*
X1674840Y-2114180D02*
G01*
X1672080Y-2116140D01*
X1672080Y-2133860D01*
X1674840Y-2135820D01*
X1693740Y-2135820D01*
X1695700Y-2133860D01*
X1695700Y-2116140D01*
X1693740Y-2114180D01*
G37*
G36*
X1076140Y-932080D02*
G01*
X1074180Y-934840D01*
X1074180Y-953740D01*
X1076140Y-955699D01*
X1093860Y-955699D01*
X1095820Y-953740D01*
X1095820Y-934840D01*
X1093860Y-932080D01*
G37*
G36*
X1076140Y-894300D02*
G01*
X1074180Y-896260D01*
X1074180Y-915160D01*
X1076140Y-917920D01*
X1093860Y-917920D01*
X1095820Y-915160D01*
X1095820Y-896260D01*
X1093860Y-894300D01*
G37*
G36*
X1791140Y-2159300D02*
G01*
X1789180Y-2161260D01*
X1789180Y-2180160D01*
X1791140Y-2182920D01*
X1808860Y-2182920D01*
X1810820Y-2180160D01*
X1810820Y-2161260D01*
X1808860Y-2159300D01*
G37*
G36*
X1791140Y-2197080D02*
G01*
X1789180Y-2199840D01*
X1789180Y-2218740D01*
X1791140Y-2220700D01*
X1808860Y-2220700D01*
X1810820Y-2218740D01*
X1810820Y-2199840D01*
X1808860Y-2197080D01*
G37*
G36*
X1846140Y-2154300D02*
G01*
X1844180Y-2156260D01*
X1844180Y-2175160D01*
X1846140Y-2177920D01*
X1863860Y-2177920D01*
X1865820Y-2175160D01*
X1865820Y-2156260D01*
X1863860Y-2154300D01*
G37*
G36*
X1846140Y-2192080D02*
G01*
X1844180Y-2194840D01*
X1844180Y-2213740D01*
X1846140Y-2215700D01*
X1863860Y-2215700D01*
X1865820Y-2213740D01*
X1865820Y-2194840D01*
X1863860Y-2192080D01*
G37*
G36*
X1846140Y-2382080D02*
G01*
X1844180Y-2384840D01*
X1844180Y-2403740D01*
X1846140Y-2405700D01*
X1863860Y-2405700D01*
X1865820Y-2403740D01*
X1865820Y-2384840D01*
X1863860Y-2382080D01*
G37*
G36*
X1846140Y-2344300D02*
G01*
X1844180Y-2346260D01*
X1844180Y-2365160D01*
X1846140Y-2367920D01*
X1863860Y-2367920D01*
X1865820Y-2365160D01*
X1865820Y-2346260D01*
X1863860Y-2344300D01*
G37*
G36*
X1771140Y-2382080D02*
G01*
X1769180Y-2384840D01*
X1769180Y-2403740D01*
X1771140Y-2405700D01*
X1788860Y-2405700D01*
X1790820Y-2403740D01*
X1790820Y-2384840D01*
X1788860Y-2382080D01*
G37*
G36*
X1771140Y-2344300D02*
G01*
X1769180Y-2346260D01*
X1769180Y-2365160D01*
X1771140Y-2367920D01*
X1788860Y-2367920D01*
X1790820Y-2365160D01*
X1790820Y-2346260D01*
X1788860Y-2344300D01*
G37*
G36*
X2419840Y-2099180D02*
G01*
X2417080Y-2101140D01*
X2417080Y-2118860D01*
X2419840Y-2120820D01*
X2438740Y-2120820D01*
X2440700Y-2118860D01*
X2440700Y-2101140D01*
X2438740Y-2099180D01*
G37*
G36*
X2381260Y-2099180D02*
G01*
X2379300Y-2101140D01*
X2379300Y-2118860D01*
X2381260Y-2120820D01*
X2400160Y-2120820D01*
X2402920Y-2118860D01*
X2402920Y-2101140D01*
X2400160Y-2099180D01*
G37*
G36*
X2420440Y-2157280D02*
G01*
X2417680Y-2159240D01*
X2417680Y-2176960D01*
X2420440Y-2178920D01*
X2439340Y-2178920D01*
X2441300Y-2176960D01*
X2441300Y-2159240D01*
X2439340Y-2157280D01*
G37*
G36*
X2381860Y-2157280D02*
G01*
X2379880Y-2159240D01*
X2379880Y-2176960D01*
X2381860Y-2178920D01*
X2400740Y-2178920D01*
X2403500Y-2176960D01*
X2403500Y-2159240D01*
X2400740Y-2157280D01*
G37*
G36*
X2276260Y-2099180D02*
G01*
X2274300Y-2101140D01*
X2274300Y-2118860D01*
X2276260Y-2120820D01*
X2295160Y-2120820D01*
X2297920Y-2118860D01*
X2297920Y-2101140D01*
X2295160Y-2099180D01*
G37*
G36*
X2314840Y-2099180D02*
G01*
X2312080Y-2101140D01*
X2312080Y-2118860D01*
X2314840Y-2120820D01*
X2333740Y-2120820D01*
X2335700Y-2118860D01*
X2335700Y-2101140D01*
X2333740Y-2099180D01*
G37*
G36*
X2276840Y-2156500D02*
G01*
X2274880Y-2158480D01*
X2274880Y-2176180D01*
X2276840Y-2178160D01*
X2295740Y-2178160D01*
X2298500Y-2176180D01*
X2298500Y-2158480D01*
X2295740Y-2156500D01*
G37*
G36*
X2315440Y-2156500D02*
G01*
X2312680Y-2158480D01*
X2312680Y-2176180D01*
X2315440Y-2178160D01*
X2334320Y-2178160D01*
X2336300Y-2176180D01*
X2336300Y-2158480D01*
X2334320Y-2156500D01*
G37*
G36*
X851140Y-927080D02*
G01*
X849180Y-929840D01*
X849180Y-948740D01*
X851140Y-950699D01*
X868860Y-950699D01*
X870819Y-948740D01*
X870819Y-929840D01*
X868860Y-927080D01*
G37*
G36*
X851140Y-889300D02*
G01*
X849180Y-891260D01*
X849180Y-910160D01*
X851140Y-912920D01*
X868860Y-912920D01*
X870819Y-910160D01*
X870819Y-891260D01*
X868860Y-889300D01*
G37*
G36*
X1360400Y-830400D02*
G01*
X1360400Y-929599D01*
X1459620Y-929599D01*
X1459620Y-830400D01*
G37*
G36*
X1469100Y-765819D02*
G01*
X1467780Y-765980D01*
X1466540Y-766460D01*
X1465440Y-767220D01*
X1464560Y-768199D01*
X1463940Y-769380D01*
X1463620Y-770680D01*
X1463580Y-797720D01*
X1463740Y-799040D01*
X1464220Y-800280D01*
X1464980Y-801380D01*
X1465960Y-802260D01*
X1467140Y-802880D01*
X1468440Y-803180D01*
X1469760Y-803180D01*
X1471060Y-802880D01*
X1472240Y-802260D01*
X1473220Y-801380D01*
X1473980Y-800280D01*
X1474460Y-799040D01*
X1474620Y-797720D01*
X1474580Y-770680D01*
X1474259Y-769380D01*
X1473640Y-768199D01*
X1472760Y-767220D01*
X1471660Y-766460D01*
X1470420Y-765980D01*
G37*
G36*
X1449400Y-765819D02*
G01*
X1448080Y-765980D01*
X1446840Y-766460D01*
X1445740Y-767220D01*
X1444860Y-768199D01*
X1444240Y-769380D01*
X1443920Y-770680D01*
X1443880Y-797720D01*
X1444040Y-799040D01*
X1444520Y-800280D01*
X1445280Y-801380D01*
X1446260Y-802260D01*
X1447440Y-802880D01*
X1448740Y-803180D01*
X1450060Y-803180D01*
X1451360Y-802880D01*
X1452540Y-802260D01*
X1453520Y-801380D01*
X1454280Y-800280D01*
X1454760Y-799040D01*
X1454920Y-797720D01*
X1454880Y-770680D01*
X1454560Y-769380D01*
X1453940Y-768199D01*
X1453060Y-767220D01*
X1451960Y-766460D01*
X1450720Y-765980D01*
G37*
G36*
X1429360Y-766040D02*
G01*
X1428040Y-766280D01*
X1426800Y-766840D01*
X1425760Y-767680D01*
X1424940Y-768760D01*
X1424400Y-770000D01*
X1424199Y-771340D01*
X1424199Y-797720D01*
X1424400Y-799040D01*
X1424940Y-800300D01*
X1425760Y-801360D01*
X1426800Y-802220D01*
X1428040Y-802780D01*
X1429360Y-803020D01*
X1430720Y-802940D01*
X1432000Y-802540D01*
X1433140Y-801820D01*
X1434100Y-800860D01*
X1434760Y-799680D01*
X1435000Y-799040D01*
X1435200Y-797720D01*
X1435200Y-771340D01*
X1435000Y-770000D01*
X1434460Y-768760D01*
X1434100Y-768199D01*
X1433140Y-767240D01*
X1432000Y-766520D01*
X1430720Y-766120D01*
G37*
G36*
X1409660Y-766040D02*
G01*
X1408340Y-766280D01*
X1407100Y-766840D01*
X1406060Y-767680D01*
X1405240Y-768760D01*
X1404700Y-770000D01*
X1404500Y-771340D01*
X1404500Y-797720D01*
X1404700Y-799040D01*
X1405240Y-800300D01*
X1406060Y-801360D01*
X1407100Y-802220D01*
X1408340Y-802780D01*
X1409660Y-803020D01*
X1411020Y-802940D01*
X1412300Y-802540D01*
X1413440Y-801820D01*
X1414379Y-800860D01*
X1415060Y-799680D01*
X1415300Y-799040D01*
X1415500Y-797720D01*
X1415500Y-771340D01*
X1415300Y-770000D01*
X1414760Y-768760D01*
X1413940Y-767680D01*
X1412900Y-766840D01*
X1411660Y-766280D01*
X1410340Y-766040D01*
G37*
G36*
X1389960Y-765920D02*
G01*
X1388620Y-766160D01*
X1387380Y-766740D01*
X1386320Y-767620D01*
X1385500Y-768720D01*
X1384980Y-769980D01*
X1384800Y-771340D01*
X1384840Y-798400D01*
X1385200Y-799720D01*
X1385880Y-800920D01*
X1386819Y-801900D01*
X1387980Y-802640D01*
X1389280Y-803060D01*
X1390640Y-803139D01*
X1392000Y-802880D01*
X1392640Y-802640D01*
X1393800Y-801900D01*
X1394740Y-800920D01*
X1395120Y-800340D01*
X1395620Y-799080D01*
X1395820Y-797720D01*
X1395820Y-771340D01*
X1395620Y-769980D01*
X1395120Y-768720D01*
X1394300Y-767620D01*
X1393240Y-766740D01*
X1392000Y-766160D01*
X1390640Y-765920D01*
G37*
G36*
X1370260Y-765920D02*
G01*
X1368920Y-766160D01*
X1367680Y-766740D01*
X1366620Y-767620D01*
X1365800Y-768720D01*
X1365280Y-769980D01*
X1365100Y-771340D01*
X1365140Y-798400D01*
X1365500Y-799720D01*
X1366180Y-800920D01*
X1367120Y-801900D01*
X1368280Y-802640D01*
X1369580Y-803060D01*
X1370940Y-803139D01*
X1372300Y-802880D01*
X1372940Y-802640D01*
X1374100Y-801900D01*
X1375040Y-800920D01*
X1375700Y-799720D01*
X1376060Y-798400D01*
X1376120Y-797720D01*
X1376120Y-771340D01*
X1375920Y-769980D01*
X1375400Y-768720D01*
X1374600Y-767620D01*
X1373540Y-766740D01*
X1372300Y-766160D01*
X1370940Y-765920D01*
G37*
G36*
X1350560Y-765920D02*
G01*
X1349220Y-766160D01*
X1347980Y-766740D01*
X1346920Y-767620D01*
X1346459Y-768139D01*
X1345800Y-769340D01*
X1345440Y-770660D01*
X1345400Y-797720D01*
X1345580Y-799080D01*
X1346100Y-800340D01*
X1346459Y-800920D01*
X1347420Y-801900D01*
X1348580Y-802640D01*
X1349880Y-803060D01*
X1351240Y-803139D01*
X1352600Y-802880D01*
X1353240Y-802640D01*
X1354400Y-801900D01*
X1355340Y-800920D01*
X1356000Y-799720D01*
X1356360Y-798400D01*
X1356420Y-797720D01*
X1356420Y-771340D01*
X1356220Y-769980D01*
X1355700Y-768720D01*
X1354900Y-767620D01*
X1353839Y-766740D01*
X1352600Y-766160D01*
X1351240Y-765920D01*
G37*
G36*
X1301339Y-815380D02*
G01*
X1300020Y-815540D01*
X1298779Y-816020D01*
X1297680Y-816780D01*
X1296800Y-817760D01*
X1296180Y-818940D01*
X1295860Y-820240D01*
X1295860Y-821560D01*
X1296180Y-822860D01*
X1296800Y-824020D01*
X1297200Y-824560D01*
X1298200Y-825440D01*
X1299379Y-826060D01*
X1300660Y-826360D01*
X1327700Y-826400D01*
X1329019Y-826240D01*
X1329660Y-826060D01*
X1330840Y-825440D01*
X1331840Y-824560D01*
X1332580Y-823460D01*
X1333060Y-822220D01*
X1333220Y-820900D01*
X1333060Y-819580D01*
X1332580Y-818340D01*
X1331840Y-817240D01*
X1330840Y-816360D01*
X1329660Y-815740D01*
X1328380Y-815420D01*
G37*
G36*
X1301339Y-835080D02*
G01*
X1300020Y-835240D01*
X1298779Y-835720D01*
X1297680Y-836480D01*
X1296800Y-837460D01*
X1296180Y-838640D01*
X1295860Y-839940D01*
X1295860Y-841260D01*
X1296180Y-842560D01*
X1296800Y-843720D01*
X1297200Y-844260D01*
X1298200Y-845140D01*
X1299379Y-845759D01*
X1300660Y-846060D01*
X1327700Y-846100D01*
X1329019Y-845939D01*
X1329660Y-845759D01*
X1330840Y-845140D01*
X1331840Y-844260D01*
X1332580Y-843160D01*
X1333060Y-841919D01*
X1333220Y-840600D01*
X1333060Y-839280D01*
X1332580Y-838040D01*
X1331840Y-836940D01*
X1330840Y-836060D01*
X1329660Y-835440D01*
X1328380Y-835120D01*
G37*
G36*
X1301339Y-854780D02*
G01*
X1300020Y-854940D01*
X1298779Y-855420D01*
X1297680Y-856180D01*
X1296800Y-857159D01*
X1296180Y-858340D01*
X1295860Y-859640D01*
X1295860Y-860960D01*
X1296180Y-862260D01*
X1296800Y-863420D01*
X1297200Y-863960D01*
X1298200Y-864840D01*
X1299379Y-865460D01*
X1300660Y-865759D01*
X1327700Y-865800D01*
X1329019Y-865639D01*
X1329660Y-865460D01*
X1330840Y-864840D01*
X1331840Y-863960D01*
X1332580Y-862860D01*
X1333060Y-861620D01*
X1333220Y-860300D01*
X1333060Y-858980D01*
X1332580Y-857740D01*
X1331840Y-856640D01*
X1330840Y-855759D01*
X1329660Y-855140D01*
X1328380Y-854820D01*
G37*
G36*
X1301339Y-874479D02*
G01*
X1300020Y-874640D01*
X1298779Y-875120D01*
X1297680Y-875879D01*
X1296800Y-876860D01*
X1296180Y-878040D01*
X1295860Y-879340D01*
X1295860Y-880660D01*
X1296180Y-881960D01*
X1296800Y-883120D01*
X1297200Y-883660D01*
X1298200Y-884539D01*
X1299379Y-885160D01*
X1300660Y-885460D01*
X1327700Y-885500D01*
X1329019Y-885340D01*
X1329660Y-885160D01*
X1330840Y-884539D01*
X1331840Y-883660D01*
X1332580Y-882560D01*
X1333060Y-881320D01*
X1333220Y-880000D01*
X1333060Y-878680D01*
X1332580Y-877440D01*
X1331840Y-876340D01*
X1330840Y-875460D01*
X1329660Y-874840D01*
X1328380Y-874520D01*
G37*
G36*
X1301339Y-894180D02*
G01*
X1300020Y-894340D01*
X1298779Y-894820D01*
X1297680Y-895580D01*
X1296800Y-896560D01*
X1296180Y-897740D01*
X1295860Y-899040D01*
X1295860Y-900360D01*
X1296180Y-901660D01*
X1296800Y-902820D01*
X1297200Y-903360D01*
X1298200Y-904240D01*
X1299379Y-904860D01*
X1300660Y-905160D01*
X1327700Y-905200D01*
X1329019Y-905040D01*
X1329660Y-904860D01*
X1330840Y-904240D01*
X1331840Y-903360D01*
X1332580Y-902260D01*
X1333060Y-901020D01*
X1333220Y-899700D01*
X1333060Y-898379D01*
X1332580Y-897140D01*
X1331840Y-896040D01*
X1330840Y-895160D01*
X1329660Y-894539D01*
X1328380Y-894220D01*
G37*
G36*
X1301339Y-913880D02*
G01*
X1300020Y-914040D01*
X1298779Y-914520D01*
X1297680Y-915280D01*
X1296800Y-916260D01*
X1296180Y-917440D01*
X1295860Y-918740D01*
X1295860Y-920060D01*
X1296180Y-921360D01*
X1296800Y-922520D01*
X1297200Y-923060D01*
X1298200Y-923940D01*
X1299379Y-924560D01*
X1300660Y-924860D01*
X1327700Y-924900D01*
X1329019Y-924740D01*
X1329660Y-924560D01*
X1330840Y-923940D01*
X1331840Y-923060D01*
X1332580Y-921960D01*
X1333060Y-920720D01*
X1333220Y-919400D01*
X1333060Y-918080D01*
X1332580Y-916840D01*
X1331840Y-915740D01*
X1330840Y-914860D01*
X1329660Y-914240D01*
X1328380Y-913920D01*
G37*
G36*
X1301339Y-933580D02*
G01*
X1300020Y-933740D01*
X1298779Y-934220D01*
X1297680Y-934980D01*
X1296800Y-935960D01*
X1296180Y-937140D01*
X1295860Y-938439D01*
X1295860Y-939760D01*
X1296180Y-941060D01*
X1296800Y-942220D01*
X1297200Y-942760D01*
X1298200Y-943640D01*
X1299379Y-944260D01*
X1300660Y-944560D01*
X1327700Y-944599D01*
X1329019Y-944440D01*
X1329660Y-944260D01*
X1330840Y-943640D01*
X1331840Y-942760D01*
X1332580Y-941660D01*
X1333060Y-940420D01*
X1333220Y-939100D01*
X1333060Y-937780D01*
X1332580Y-936540D01*
X1331840Y-935440D01*
X1330840Y-934560D01*
X1329660Y-933940D01*
X1328380Y-933620D01*
G37*
G36*
X1350560Y-956860D02*
G01*
X1349880Y-956940D01*
X1348580Y-957360D01*
X1347420Y-958100D01*
X1346459Y-959080D01*
X1345800Y-960280D01*
X1345440Y-961600D01*
X1345440Y-989360D01*
X1345800Y-990680D01*
X1346459Y-991860D01*
X1347420Y-992860D01*
X1348580Y-993580D01*
X1349220Y-993840D01*
X1350560Y-994100D01*
X1351920Y-994000D01*
X1352600Y-993840D01*
X1353839Y-993259D01*
X1354900Y-992400D01*
X1355700Y-991300D01*
X1356220Y-990020D01*
X1356420Y-988660D01*
X1356420Y-962280D01*
X1356220Y-960939D01*
X1355700Y-959659D01*
X1354900Y-958560D01*
X1353839Y-957700D01*
X1353240Y-957360D01*
X1351920Y-956940D01*
G37*
G36*
X1370260Y-956860D02*
G01*
X1369580Y-956940D01*
X1368280Y-957360D01*
X1367120Y-958100D01*
X1366180Y-959080D01*
X1365500Y-960280D01*
X1365140Y-961600D01*
X1365140Y-989360D01*
X1365500Y-990680D01*
X1366180Y-991860D01*
X1367120Y-992860D01*
X1368280Y-993580D01*
X1368920Y-993840D01*
X1370260Y-994100D01*
X1371620Y-994000D01*
X1372300Y-993840D01*
X1373540Y-993259D01*
X1374600Y-992400D01*
X1375400Y-991300D01*
X1375920Y-990020D01*
X1376120Y-988660D01*
X1376120Y-962280D01*
X1375920Y-960939D01*
X1375400Y-959659D01*
X1374600Y-958560D01*
X1373540Y-957700D01*
X1372940Y-957360D01*
X1371620Y-956940D01*
G37*
G36*
X1389960Y-956860D02*
G01*
X1389280Y-956940D01*
X1387980Y-957360D01*
X1386819Y-958100D01*
X1385880Y-959080D01*
X1385200Y-960280D01*
X1384840Y-961600D01*
X1384840Y-989360D01*
X1385200Y-990680D01*
X1385880Y-991860D01*
X1386819Y-992860D01*
X1387980Y-993580D01*
X1388620Y-993840D01*
X1389960Y-994100D01*
X1391320Y-994000D01*
X1392000Y-993840D01*
X1393240Y-993259D01*
X1394300Y-992400D01*
X1395120Y-991300D01*
X1395620Y-990020D01*
X1395820Y-988660D01*
X1395820Y-962280D01*
X1395620Y-960939D01*
X1395120Y-959659D01*
X1394300Y-958560D01*
X1393240Y-957700D01*
X1392640Y-957360D01*
X1391320Y-956940D01*
G37*
G36*
X1409660Y-956979D02*
G01*
X1408340Y-957240D01*
X1407100Y-957800D01*
X1406060Y-958640D01*
X1405240Y-959720D01*
X1404700Y-960960D01*
X1404500Y-962280D01*
X1404500Y-988660D01*
X1404700Y-990000D01*
X1405240Y-991240D01*
X1406060Y-992320D01*
X1407100Y-993160D01*
X1408340Y-993720D01*
X1409660Y-993980D01*
X1411020Y-993880D01*
X1412300Y-993480D01*
X1413440Y-992780D01*
X1414379Y-991800D01*
X1415060Y-990639D01*
X1415300Y-990000D01*
X1415500Y-988660D01*
X1415500Y-962280D01*
X1415300Y-960960D01*
X1414760Y-959720D01*
X1413940Y-958640D01*
X1412900Y-957800D01*
X1411660Y-957240D01*
X1411020Y-957060D01*
G37*
G36*
X1429360Y-956979D02*
G01*
X1428040Y-957240D01*
X1426800Y-957800D01*
X1425760Y-958640D01*
X1424940Y-959720D01*
X1424400Y-960960D01*
X1424199Y-962280D01*
X1424199Y-988660D01*
X1424400Y-990000D01*
X1424940Y-991240D01*
X1425760Y-992320D01*
X1426800Y-993160D01*
X1428040Y-993720D01*
X1429360Y-993980D01*
X1430720Y-993880D01*
X1432000Y-993480D01*
X1433140Y-992780D01*
X1434100Y-991800D01*
X1434760Y-990639D01*
X1435000Y-990000D01*
X1435200Y-988660D01*
X1435200Y-962280D01*
X1435000Y-960960D01*
X1434460Y-959720D01*
X1434100Y-959140D01*
X1433140Y-958180D01*
X1432000Y-957480D01*
X1430720Y-957060D01*
G37*
G36*
X1449400Y-956780D02*
G01*
X1448080Y-956940D01*
X1446840Y-957400D01*
X1445740Y-958160D01*
X1444860Y-959160D01*
X1444240Y-960340D01*
X1443920Y-961620D01*
X1443880Y-988660D01*
X1444040Y-989980D01*
X1444520Y-991220D01*
X1445280Y-992320D01*
X1446260Y-993199D01*
X1447440Y-993820D01*
X1448740Y-994140D01*
X1450060Y-994140D01*
X1451360Y-993820D01*
X1452540Y-993199D01*
X1453520Y-992320D01*
X1454280Y-991220D01*
X1454760Y-989980D01*
X1454920Y-988660D01*
X1454880Y-961620D01*
X1454560Y-960340D01*
X1453940Y-959160D01*
X1453060Y-958160D01*
X1451960Y-957400D01*
X1450720Y-956940D01*
G37*
G36*
X1469100Y-956780D02*
G01*
X1467780Y-956940D01*
X1466540Y-957400D01*
X1465440Y-958160D01*
X1464560Y-959160D01*
X1463940Y-960340D01*
X1463620Y-961620D01*
X1463580Y-988660D01*
X1463740Y-989980D01*
X1464220Y-991220D01*
X1464980Y-992320D01*
X1465960Y-993199D01*
X1467140Y-993820D01*
X1468440Y-994140D01*
X1469760Y-994140D01*
X1471060Y-993820D01*
X1472240Y-993199D01*
X1473220Y-992320D01*
X1473980Y-991220D01*
X1474460Y-989980D01*
X1474620Y-988660D01*
X1474580Y-961620D01*
X1474259Y-960340D01*
X1473640Y-959160D01*
X1472760Y-958160D01*
X1471660Y-957400D01*
X1470420Y-956940D01*
G37*
G36*
X1492280Y-933580D02*
G01*
X1490960Y-933740D01*
X1489720Y-934220D01*
X1488620Y-934980D01*
X1487740Y-935960D01*
X1487140Y-937140D01*
X1486819Y-938439D01*
X1486819Y-939760D01*
X1487140Y-941060D01*
X1487740Y-942220D01*
X1488620Y-943220D01*
X1489720Y-943980D01*
X1490320Y-944260D01*
X1491620Y-944560D01*
X1518660Y-944599D01*
X1519980Y-944440D01*
X1520620Y-944260D01*
X1521800Y-943640D01*
X1522780Y-942760D01*
X1523540Y-941660D01*
X1524019Y-940420D01*
X1524180Y-939100D01*
X1524019Y-937780D01*
X1523540Y-936540D01*
X1522780Y-935440D01*
X1521800Y-934560D01*
X1520620Y-933940D01*
X1519319Y-933620D01*
G37*
G36*
X1492280Y-913880D02*
G01*
X1490960Y-914040D01*
X1489720Y-914520D01*
X1488620Y-915280D01*
X1487740Y-916260D01*
X1487140Y-917440D01*
X1486819Y-918740D01*
X1486819Y-920060D01*
X1487140Y-921360D01*
X1487740Y-922520D01*
X1488620Y-923520D01*
X1489720Y-924280D01*
X1490320Y-924560D01*
X1491620Y-924860D01*
X1518660Y-924900D01*
X1519980Y-924740D01*
X1520620Y-924560D01*
X1521800Y-923940D01*
X1522780Y-923060D01*
X1523540Y-921960D01*
X1524019Y-920720D01*
X1524180Y-919400D01*
X1524019Y-918080D01*
X1523540Y-916840D01*
X1522780Y-915740D01*
X1521800Y-914860D01*
X1520620Y-914240D01*
X1519319Y-913920D01*
G37*
G36*
X1492280Y-894180D02*
G01*
X1490960Y-894340D01*
X1489720Y-894820D01*
X1488620Y-895580D01*
X1487740Y-896560D01*
X1487140Y-897740D01*
X1486819Y-899040D01*
X1486819Y-900360D01*
X1487140Y-901660D01*
X1487740Y-902820D01*
X1488620Y-903820D01*
X1489720Y-904580D01*
X1490320Y-904860D01*
X1491620Y-905160D01*
X1518660Y-905200D01*
X1519980Y-905040D01*
X1520620Y-904860D01*
X1521800Y-904240D01*
X1522780Y-903360D01*
X1523540Y-902260D01*
X1524019Y-901020D01*
X1524180Y-899700D01*
X1524019Y-898379D01*
X1523540Y-897140D01*
X1522780Y-896040D01*
X1521800Y-895160D01*
X1520620Y-894539D01*
X1519319Y-894220D01*
G37*
G36*
X1492280Y-874479D02*
G01*
X1490960Y-874640D01*
X1489720Y-875120D01*
X1488620Y-875879D01*
X1487740Y-876860D01*
X1487140Y-878040D01*
X1486819Y-879340D01*
X1486819Y-880660D01*
X1487140Y-881960D01*
X1487740Y-883120D01*
X1488620Y-884120D01*
X1489720Y-884880D01*
X1490320Y-885160D01*
X1491620Y-885460D01*
X1518660Y-885500D01*
X1519980Y-885340D01*
X1520620Y-885160D01*
X1521800Y-884539D01*
X1522780Y-883660D01*
X1523540Y-882560D01*
X1524019Y-881320D01*
X1524180Y-880000D01*
X1524019Y-878680D01*
X1523540Y-877440D01*
X1522780Y-876340D01*
X1521800Y-875460D01*
X1520620Y-874840D01*
X1519319Y-874520D01*
G37*
G36*
X1492280Y-854780D02*
G01*
X1490960Y-854940D01*
X1489720Y-855420D01*
X1488620Y-856180D01*
X1487740Y-857159D01*
X1487140Y-858340D01*
X1486819Y-859640D01*
X1486819Y-860960D01*
X1487140Y-862260D01*
X1487740Y-863420D01*
X1488620Y-864419D01*
X1489720Y-865180D01*
X1490320Y-865460D01*
X1491620Y-865759D01*
X1518660Y-865800D01*
X1519980Y-865639D01*
X1520620Y-865460D01*
X1521800Y-864840D01*
X1522780Y-863960D01*
X1523540Y-862860D01*
X1524019Y-861620D01*
X1524180Y-860300D01*
X1524019Y-858980D01*
X1523540Y-857740D01*
X1522780Y-856640D01*
X1521800Y-855759D01*
X1520620Y-855140D01*
X1519319Y-854820D01*
G37*
G36*
X1492280Y-835080D02*
G01*
X1490960Y-835240D01*
X1489720Y-835720D01*
X1488620Y-836480D01*
X1487740Y-837460D01*
X1487140Y-838640D01*
X1486819Y-839940D01*
X1486819Y-841260D01*
X1487140Y-842560D01*
X1487740Y-843720D01*
X1488620Y-844720D01*
X1489720Y-845480D01*
X1490320Y-845759D01*
X1491620Y-846060D01*
X1518660Y-846100D01*
X1519980Y-845939D01*
X1520620Y-845759D01*
X1521800Y-845140D01*
X1522780Y-844260D01*
X1523540Y-843160D01*
X1524019Y-841919D01*
X1524180Y-840600D01*
X1524019Y-839280D01*
X1523540Y-838040D01*
X1522780Y-836940D01*
X1521800Y-836060D01*
X1520620Y-835440D01*
X1519319Y-835120D01*
G37*
G36*
X1492280Y-815380D02*
G01*
X1490960Y-815540D01*
X1489720Y-816020D01*
X1488620Y-816780D01*
X1487740Y-817760D01*
X1487140Y-818940D01*
X1486819Y-820240D01*
X1486819Y-821560D01*
X1487140Y-822860D01*
X1487740Y-824020D01*
X1488620Y-825020D01*
X1489720Y-825780D01*
X1490320Y-826060D01*
X1491620Y-826360D01*
X1518660Y-826400D01*
X1519980Y-826240D01*
X1520620Y-826060D01*
X1521800Y-825440D01*
X1522780Y-824560D01*
X1523540Y-823460D01*
X1524019Y-822220D01*
X1524180Y-820900D01*
X1524019Y-819580D01*
X1523540Y-818340D01*
X1522780Y-817240D01*
X1521800Y-816360D01*
X1520620Y-815740D01*
X1519319Y-815420D01*
G37*
G36*
X1372140Y-299180D02*
G01*
X1372140Y-344060D01*
X1383959Y-344060D01*
X1383959Y-299180D01*
G37*
G36*
X1490240Y-299180D02*
G01*
X1490240Y-344060D01*
X1502060Y-344060D01*
X1502060Y-299180D01*
G37*
G36*
X1543400Y-299140D02*
G01*
X1543400Y-344020D01*
X1563080Y-344020D01*
X1563080Y-299140D01*
G37*
G36*
X1291420Y-299140D02*
G01*
X1291420Y-344020D01*
X1311100Y-344020D01*
X1311100Y-299140D01*
G37*
G36*
X1511900Y-299140D02*
G01*
X1511900Y-344020D01*
X1531579Y-344020D01*
X1531579Y-299140D01*
G37*
G36*
X1322920Y-299140D02*
G01*
X1322920Y-344020D01*
X1342600Y-344020D01*
X1342600Y-299140D01*
G37*
G36*
X1431180Y-299140D02*
G01*
X1431180Y-344020D01*
X1443000Y-344020D01*
X1443000Y-299140D01*
G37*
G36*
X1411500Y-299140D02*
G01*
X1411500Y-344020D01*
X1423320Y-344020D01*
X1423320Y-299140D01*
G37*
G36*
X1391819Y-299140D02*
G01*
X1391819Y-344020D01*
X1403620Y-344020D01*
X1403620Y-299140D01*
G37*
G36*
X1450880Y-299140D02*
G01*
X1450880Y-344020D01*
X1462680Y-344020D01*
X1462680Y-299140D01*
G37*
G36*
X1470560Y-299140D02*
G01*
X1470560Y-344020D01*
X1482360Y-344020D01*
X1482360Y-299140D01*
G37*
G36*
X1352440Y-299140D02*
G01*
X1352440Y-344020D01*
X1364259Y-344020D01*
X1364259Y-299140D01*
G37*
G36*
X1256680Y-259880D02*
G01*
X1254720Y-260040D01*
X1252800Y-260380D01*
X1250900Y-260900D01*
X1249080Y-261620D01*
X1247320Y-262520D01*
X1245680Y-263580D01*
X1244140Y-264800D01*
X1242740Y-266180D01*
X1241480Y-267680D01*
X1240380Y-269300D01*
X1239440Y-271020D01*
X1238680Y-272840D01*
X1238100Y-274700D01*
X1237700Y-276640D01*
X1237520Y-278580D01*
X1237480Y-318940D01*
X1237580Y-320900D01*
X1237880Y-322840D01*
X1238360Y-324739D01*
X1239040Y-326580D01*
X1239880Y-328360D01*
X1240900Y-330020D01*
X1242100Y-331580D01*
X1243420Y-333020D01*
X1244900Y-334320D01*
X1246500Y-335480D01*
X1248200Y-336460D01*
X1249980Y-337260D01*
X1251840Y-337879D01*
X1253760Y-338320D01*
X1255700Y-338560D01*
X1257660Y-338620D01*
X1259620Y-338459D01*
X1261560Y-338120D01*
X1263440Y-337600D01*
X1265260Y-336880D01*
X1267020Y-335980D01*
X1268660Y-334920D01*
X1270200Y-333700D01*
X1271600Y-332320D01*
X1272860Y-330820D01*
X1273960Y-329200D01*
X1274900Y-327480D01*
X1275660Y-325660D01*
X1276240Y-323800D01*
X1276640Y-321860D01*
X1276840Y-319920D01*
X1276860Y-279560D01*
X1276760Y-277600D01*
X1276460Y-275660D01*
X1275980Y-273760D01*
X1275300Y-271920D01*
X1274460Y-270160D01*
X1273440Y-268480D01*
X1272260Y-266920D01*
X1270920Y-265480D01*
X1269440Y-264180D01*
X1267860Y-263020D01*
X1266160Y-262040D01*
X1264360Y-261240D01*
X1262500Y-260620D01*
X1260580Y-260180D01*
X1258640Y-259940D01*
G37*
G36*
X1596840Y-259880D02*
G01*
X1594880Y-260020D01*
X1592960Y-260360D01*
X1591060Y-260900D01*
X1589240Y-261620D01*
X1587480Y-262500D01*
X1585840Y-263580D01*
X1584300Y-264800D01*
X1582900Y-266160D01*
X1581639Y-267660D01*
X1580540Y-269300D01*
X1579600Y-271020D01*
X1578839Y-272820D01*
X1578260Y-274700D01*
X1577860Y-276620D01*
X1577660Y-278580D01*
X1577640Y-318920D01*
X1577740Y-320880D01*
X1578040Y-322819D01*
X1578520Y-324720D01*
X1579199Y-326580D01*
X1580040Y-328340D01*
X1581060Y-330020D01*
X1582260Y-331580D01*
X1583580Y-333020D01*
X1585060Y-334320D01*
X1586660Y-335460D01*
X1588360Y-336440D01*
X1590140Y-337239D01*
X1592000Y-337879D01*
X1593920Y-338320D01*
X1595860Y-338560D01*
X1597820Y-338600D01*
X1599780Y-338459D01*
X1601720Y-338120D01*
X1603600Y-337580D01*
X1605420Y-336860D01*
X1607180Y-335980D01*
X1608820Y-334900D01*
X1610360Y-333680D01*
X1611759Y-332320D01*
X1613020Y-330820D01*
X1614120Y-329180D01*
X1615060Y-327460D01*
X1615820Y-325660D01*
X1616399Y-323780D01*
X1616800Y-321860D01*
X1617000Y-319900D01*
X1617020Y-279560D01*
X1616920Y-277600D01*
X1616620Y-275660D01*
X1616140Y-273760D01*
X1615460Y-271900D01*
X1614620Y-270140D01*
X1613600Y-268460D01*
X1612420Y-266900D01*
X1611080Y-265460D01*
X1609600Y-264160D01*
X1608020Y-263020D01*
X1606320Y-262040D01*
X1604520Y-261240D01*
X1602660Y-260600D01*
X1600740Y-260159D01*
X1598800Y-259920D01*
G37*
G36*
X1256680Y-98460D02*
G01*
X1254720Y-98620D01*
X1252800Y-98960D01*
X1250900Y-99480D01*
X1249080Y-100200D01*
X1247320Y-101100D01*
X1245680Y-102160D01*
X1244140Y-103379D01*
X1242740Y-104760D01*
X1241480Y-106260D01*
X1240380Y-107880D01*
X1239440Y-109600D01*
X1238680Y-111420D01*
X1238100Y-113280D01*
X1237700Y-115200D01*
X1237520Y-117160D01*
X1237480Y-149640D01*
X1237580Y-151600D01*
X1237880Y-153540D01*
X1238360Y-155440D01*
X1239040Y-157280D01*
X1239880Y-159060D01*
X1240900Y-160720D01*
X1242100Y-162300D01*
X1243420Y-163740D01*
X1244900Y-165020D01*
X1246500Y-166180D01*
X1248200Y-167160D01*
X1249980Y-167960D01*
X1251840Y-168580D01*
X1253760Y-169020D01*
X1255700Y-169259D01*
X1257660Y-169320D01*
X1259620Y-169180D01*
X1261560Y-168820D01*
X1263440Y-168299D01*
X1265260Y-167580D01*
X1267020Y-166680D01*
X1268660Y-165620D01*
X1270200Y-164400D01*
X1271600Y-163020D01*
X1272860Y-161520D01*
X1273960Y-159900D01*
X1274900Y-158180D01*
X1275660Y-156380D01*
X1276240Y-154500D01*
X1276640Y-152580D01*
X1276840Y-150620D01*
X1276860Y-118140D01*
X1276760Y-116180D01*
X1276460Y-114240D01*
X1275980Y-112340D01*
X1275300Y-110500D01*
X1274460Y-108720D01*
X1273440Y-107060D01*
X1272260Y-105480D01*
X1270920Y-104060D01*
X1269440Y-102760D01*
X1267860Y-101600D01*
X1266160Y-100620D01*
X1264360Y-99820D01*
X1262500Y-99200D01*
X1260580Y-98760D01*
X1258640Y-98520D01*
G37*
G36*
X1596840Y-98460D02*
G01*
X1594880Y-98620D01*
X1592960Y-98960D01*
X1591060Y-99480D01*
X1589240Y-100200D01*
X1587480Y-101100D01*
X1585840Y-102160D01*
X1584300Y-103379D01*
X1582900Y-104760D01*
X1581639Y-106260D01*
X1580540Y-107880D01*
X1579600Y-109600D01*
X1578839Y-111420D01*
X1578260Y-113280D01*
X1577860Y-115200D01*
X1577660Y-117160D01*
X1577640Y-149640D01*
X1577740Y-151600D01*
X1578040Y-153540D01*
X1578520Y-155440D01*
X1579199Y-157280D01*
X1580040Y-159060D01*
X1581060Y-160720D01*
X1582260Y-162300D01*
X1583580Y-163740D01*
X1585060Y-165020D01*
X1586660Y-166180D01*
X1588360Y-167160D01*
X1590140Y-167960D01*
X1592000Y-168580D01*
X1593920Y-169020D01*
X1595860Y-169259D01*
X1597820Y-169320D01*
X1599780Y-169180D01*
X1601720Y-168820D01*
X1603600Y-168299D01*
X1605420Y-167580D01*
X1607180Y-166680D01*
X1608820Y-165620D01*
X1610360Y-164400D01*
X1611759Y-163020D01*
X1613020Y-161520D01*
X1614120Y-159900D01*
X1615060Y-158180D01*
X1615820Y-156380D01*
X1616399Y-154500D01*
X1616800Y-152580D01*
X1617000Y-150620D01*
X1617020Y-118140D01*
X1616920Y-116180D01*
X1616620Y-114240D01*
X1616140Y-112340D01*
X1615460Y-110500D01*
X1614620Y-108720D01*
X1613600Y-107060D01*
X1612420Y-105480D01*
X1611080Y-104060D01*
X1609600Y-102760D01*
X1608020Y-101600D01*
X1606320Y-100620D01*
X1604520Y-99820D01*
X1602660Y-99200D01*
X1600740Y-98760D01*
X1598800Y-98520D01*
G37*
G36*
X1956140Y-1759300D02*
G01*
X1954180Y-1761260D01*
X1954180Y-1780160D01*
X1956140Y-1782920D01*
X1973860Y-1782920D01*
X1975820Y-1780160D01*
X1975820Y-1761260D01*
X1973860Y-1759300D01*
G37*
G36*
X1956140Y-1797080D02*
G01*
X1954180Y-1799840D01*
X1954180Y-1818740D01*
X1956140Y-1820700D01*
X1973860Y-1820700D01*
X1975820Y-1818740D01*
X1975820Y-1799840D01*
X1973860Y-1797080D01*
G37*
G36*
X2011140Y-1759300D02*
G01*
X2009180Y-1761260D01*
X2009180Y-1780160D01*
X2011140Y-1782920D01*
X2028860Y-1782920D01*
X2030820Y-1780160D01*
X2030820Y-1761260D01*
X2028860Y-1759300D01*
G37*
G36*
X2011140Y-1797080D02*
G01*
X2009180Y-1799840D01*
X2009180Y-1818740D01*
X2011140Y-1820700D01*
X2028860Y-1820700D01*
X2030820Y-1818740D01*
X2030820Y-1799840D01*
X2028860Y-1797080D01*
G37*
G36*
X2066140Y-1659300D02*
G01*
X2064180Y-1661260D01*
X2064180Y-1680160D01*
X2066140Y-1682920D01*
X2083860Y-1682920D01*
X2085820Y-1680160D01*
X2085820Y-1661260D01*
X2083860Y-1659300D01*
G37*
G36*
X2066140Y-1697080D02*
G01*
X2064180Y-1699840D01*
X2064180Y-1718740D01*
X2066140Y-1720700D01*
X2083860Y-1720700D01*
X2085820Y-1718740D01*
X2085820Y-1699840D01*
X2083860Y-1697080D01*
G37*
G36*
X2116140Y-1659300D02*
G01*
X2114180Y-1661260D01*
X2114180Y-1680160D01*
X2116140Y-1682920D01*
X2133860Y-1682920D01*
X2135820Y-1680160D01*
X2135820Y-1661260D01*
X2133860Y-1659300D01*
G37*
G36*
X2116140Y-1697080D02*
G01*
X2114180Y-1699840D01*
X2114180Y-1718740D01*
X2116140Y-1720700D01*
X2133860Y-1720700D01*
X2135820Y-1718740D01*
X2135820Y-1699840D01*
X2133860Y-1697080D01*
G37*
D10*
G01*
X258580Y-1606779D03*
G01*
X81419Y-1606779D03*
G01*
X258580Y-1953229D03*
G01*
X81419Y-1953229D03*
G01*
X81419Y-2433229D03*
G01*
X258580Y-2433229D03*
G01*
X81419Y-2086779D03*
G01*
X258580Y-2086779D03*
D11*
G01*
X876159Y-1815000D03*
G01*
X783840Y-1815000D03*
G01*
X1188410Y-117750D03*
G01*
X1096090Y-117750D03*
D12*
G01*
X1500000Y-473000D03*
G01*
X1500000Y-646999D03*
G01*
X1310000Y-473000D03*
G01*
X1310000Y-646999D03*
D13*
G01*
X1845000Y-2482010D03*
G01*
X1845000Y-2607990D03*
D14*
G01*
X352600Y-2024369D03*
G01*
X427399Y-2024369D03*
G01*
X390000Y-1945630D03*
D15*
G01*
X424369Y-2322399D03*
G01*
X424369Y-2247600D03*
G01*
X345630Y-2285000D03*
D16*
G01*
X2157600Y-2241849D03*
G01*
X2195000Y-2241849D03*
G01*
X2232399Y-2241849D03*
G01*
X2232399Y-2348150D03*
G01*
X2195000Y-2348150D03*
G01*
X2157600Y-2348150D03*
D17*
G01*
X1713149Y-2407600D03*
G01*
X1713149Y-2445000D03*
G01*
X1713149Y-2482399D03*
G01*
X1606850Y-2482399D03*
G01*
X1606850Y-2445000D03*
G01*
X1606850Y-2407600D03*
D19*
G01*
X1307439Y-2384059D03*
G01*
X1270039Y-2384059D03*
G01*
X1232560Y-2384059D03*
G01*
X1232560Y-2485949D03*
G01*
X1307359Y-2485949D03*
D20*
G01*
X303780Y-1414490D03*
G01*
X362829Y-1414490D03*
G01*
X421889Y-1414490D03*
G01*
X480940Y-1414490D03*
G01*
X540000Y-1414490D03*
G01*
X599050Y-1414490D03*
G01*
X658110Y-1414490D03*
G01*
X717159Y-1414490D03*
G01*
X776220Y-1414490D03*
G01*
X776220Y-725509D03*
G01*
X717159Y-725509D03*
G01*
X658110Y-725509D03*
G01*
X599050Y-725509D03*
G01*
X540000Y-725509D03*
G01*
X480940Y-725509D03*
G01*
X421889Y-725509D03*
G01*
X362829Y-725509D03*
G01*
X303780Y-725509D03*
D21*
G01*
X504560Y-1075509D03*
G01*
X547869Y-1075509D03*
G01*
X591179Y-1075509D03*
G01*
X504560Y-1032210D03*
G01*
X547869Y-1032210D03*
G01*
X591179Y-1032210D03*
G01*
X591179Y-988899D03*
G01*
X547869Y-988899D03*
G01*
X504560Y-988899D03*
D22*
G01*
X2060000Y-1916689D03*
G01*
X2060000Y-2003310D03*
G01*
X1325000Y-2153310D03*
G01*
X1325000Y-2066689D03*
D23*
G01*
X1195000Y-1059000D03*
G01*
X1095000Y-1420999D03*
G01*
X1245000Y-1059000D03*
G01*
X1145000Y-1059000D03*
G01*
X1095000Y-1059000D03*
G01*
X1145000Y-1420999D03*
G01*
X1045000Y-1420999D03*
G01*
X995000Y-1420999D03*
G01*
X995000Y-1059000D03*
G01*
X895000Y-1420999D03*
G01*
X1045000Y-1059000D03*
G01*
X945000Y-1059000D03*
G01*
X945000Y-1420999D03*
G01*
X895000Y-1059000D03*
G01*
X1195000Y-1420999D03*
G01*
X1245000Y-1420999D03*
G36*
X2401890Y-2337748D02*
G01*
X2400137Y-2337707D01*
X2398388Y-2337584D01*
X2396647Y-2337379D01*
X2394916Y-2337093D01*
X2393202Y-2336725D01*
X2391507Y-2336278D01*
X2389834Y-2335752D01*
X2388188Y-2335147D01*
X2386571Y-2334466D01*
X2384988Y-2333712D01*
X2383443Y-2332883D01*
X2381939Y-2331981D01*
X2380478Y-2331012D01*
X2379063Y-2329974D01*
X2377700Y-2328872D01*
X2376390Y-2327707D01*
X2375136Y-2326482D01*
X2373940Y-2325198D01*
X2372806Y-2323861D01*
X2371736Y-2322473D01*
X2370731Y-2321035D01*
X2369796Y-2319551D01*
X2368932Y-2318026D01*
X2368139Y-2316462D01*
X2367421Y-2313339D01*
X2300596Y-2313339D01*
X2300596Y-2287356D01*
X2367421Y-2287356D01*
X2368139Y-2284232D01*
X2368932Y-2282667D01*
X2369796Y-2281142D01*
X2370731Y-2279659D01*
X2371736Y-2278220D01*
X2372806Y-2276831D01*
X2373940Y-2275495D01*
X2375136Y-2274212D01*
X2376390Y-2272986D01*
X2377700Y-2271821D01*
X2379063Y-2270718D01*
X2380478Y-2269681D01*
X2381939Y-2268712D01*
X2383443Y-2267811D01*
X2384988Y-2266981D01*
X2386571Y-2266226D01*
X2388188Y-2265545D01*
X2389834Y-2264942D01*
X2391507Y-2264416D01*
X2393202Y-2263969D01*
X2394916Y-2263600D01*
X2396647Y-2263314D01*
X2398388Y-2263110D01*
X2400137Y-2262986D01*
X2401890Y-2262944D01*
X2474890Y-2262944D01*
X2476643Y-2262986D01*
X2478392Y-2263110D01*
X2480135Y-2263314D01*
X2481864Y-2263600D01*
X2483580Y-2263969D01*
X2485275Y-2264416D01*
X2486948Y-2264942D01*
X2488594Y-2265545D01*
X2490209Y-2266226D01*
X2491792Y-2266981D01*
X2493338Y-2267811D01*
X2494843Y-2268712D01*
X2496304Y-2269681D01*
X2497718Y-2270718D01*
X2499080Y-2271821D01*
X2500392Y-2272986D01*
X2501646Y-2274212D01*
X2502842Y-2275495D01*
X2503976Y-2276831D01*
X2505046Y-2278220D01*
X2506049Y-2279659D01*
X2506985Y-2281142D01*
X2507849Y-2282667D01*
X2508643Y-2284232D01*
X2509360Y-2285832D01*
X2510003Y-2287462D01*
X2510568Y-2289122D01*
X2511055Y-2290808D01*
X2511463Y-2292514D01*
X2511790Y-2294236D01*
X2512035Y-2295972D01*
X2512200Y-2297719D01*
X2512281Y-2299470D01*
X2512281Y-2301224D01*
X2512200Y-2302975D01*
X2512035Y-2304720D01*
X2511790Y-2306457D01*
X2511463Y-2308180D01*
X2511055Y-2309886D01*
X2510568Y-2311570D01*
X2510003Y-2313231D01*
X2509360Y-2314861D01*
X2508643Y-2316462D01*
X2507849Y-2318026D01*
X2506985Y-2319551D01*
X2506049Y-2321035D01*
X2505046Y-2322473D01*
X2503976Y-2323861D01*
X2502842Y-2325198D01*
X2501646Y-2326482D01*
X2500392Y-2327707D01*
X2499080Y-2328872D01*
X2497718Y-2329974D01*
X2496304Y-2331012D01*
X2494843Y-2331981D01*
X2493338Y-2332883D01*
X2491792Y-2333712D01*
X2490209Y-2334466D01*
X2488594Y-2335147D01*
X2486948Y-2335752D01*
X2485275Y-2336278D01*
X2483580Y-2336725D01*
X2481864Y-2337093D01*
X2480135Y-2337379D01*
X2478392Y-2337584D01*
X2476643Y-2337707D01*
X2474890Y-2337748D01*
G37*
D24*
G01*
X2331603Y-2359059D03*
G01*
X2331603Y-2240950D03*
D25*
G01*
X2412990Y-1960000D03*
G01*
X2287010Y-1960000D03*
D12*
G01*
X1020000Y-591999D03*
G01*
X1020000Y-418000D03*
D26*
G01*
X2005550Y-1686930D03*
G01*
X1915000Y-1686930D03*
G01*
X1824449Y-1686930D03*
D27*
G01*
X1915000Y-1453069D03*
D28*
G01*
X880500Y-2167519D03*
G01*
X879499Y-1982480D03*
M02*
