G04 Layer: BottomSilkscreenLayer*
G04 EasyEDA v6.5.51, 2025-09-17 03:18:51*
G04 4aee9cc30035422d88a860af958d7afb,d57bd40a603b42be9e37e0d49851eb9c,10*
G04 Gerber Generator version 0.2*
G04 Scale: 100 percent, Rotated: No, Reflected: No *
G04 Dimensions in inches *
G04 leading zeros omitted , absolute positions ,3 integer and 6 decimal *
%FSLAX36Y36*%
%MOIN*%

%ADD10C,0.0020*%
%ADD11C,0.0100*%
%ADD12C,0.0060*%
%ADD13C,0.0060*%
%ADD14C,0.0039*%
%ADD15C,0.0173*%

%LPD*%
D10*
X1681364Y-1814364D02*
G01*
X1682272Y-1812545D01*
X1684090Y-1810727D01*
X1685909Y-1809818D01*
X1689544Y-1809818D01*
X1691364Y-1810727D01*
X1693181Y-1812545D01*
X1694090Y-1814364D01*
X1695000Y-1817091D01*
X1695000Y-1821635D01*
X1694090Y-1824364D01*
X1693181Y-1826181D01*
X1691364Y-1828000D01*
X1689544Y-1828908D01*
X1685909Y-1828908D01*
X1684090Y-1828000D01*
X1682272Y-1826181D01*
X1681364Y-1824364D01*
X1467727Y-1809818D02*
G01*
X1475000Y-1828908D01*
X1467727Y-1809818D02*
G01*
X1460455Y-1828908D01*
X1472272Y-1822545D02*
G01*
X1463181Y-1822545D01*
G36*
X1270180Y-1476860D02*
G01*
X1270180Y-1494820D01*
X1288140Y-1494820D01*
G37*
G36*
X1108520Y-2227820D02*
G01*
X1107020Y-2228060D01*
X1105600Y-2228620D01*
X1104360Y-2229480D01*
X1103320Y-2230600D01*
X1102540Y-2231900D01*
X1102080Y-2233340D01*
X1101920Y-2234860D01*
X1102080Y-2236360D01*
X1102260Y-2237100D01*
X1102900Y-2238480D01*
X1103800Y-2239700D01*
X1104960Y-2240680D01*
X1106300Y-2241400D01*
X1107020Y-2241660D01*
X1108520Y-2241900D01*
X1110040Y-2241820D01*
X1110780Y-2241660D01*
X1112180Y-2241080D01*
X1113440Y-2240220D01*
X1114480Y-2239120D01*
X1115240Y-2237820D01*
X1115720Y-2236360D01*
X1115840Y-2235620D01*
X1115840Y-2234100D01*
X1115520Y-2232620D01*
X1114900Y-2231220D01*
X1113980Y-2230020D01*
X1112840Y-2229020D01*
X1111500Y-2228300D01*
X1110040Y-2227900D01*
G37*
G36*
X933520Y-1977820D02*
G01*
X932020Y-1978060D01*
X930600Y-1978620D01*
X929360Y-1979480D01*
X928319Y-1980600D01*
X927540Y-1981900D01*
X927080Y-1983340D01*
X926919Y-1984860D01*
X927080Y-1986360D01*
X927260Y-1987100D01*
X927900Y-1988480D01*
X928800Y-1989700D01*
X929960Y-1990680D01*
X931300Y-1991399D01*
X932020Y-1991660D01*
X933520Y-1991900D01*
X935040Y-1991819D01*
X935780Y-1991660D01*
X937180Y-1991080D01*
X938439Y-1990220D01*
X939479Y-1989120D01*
X940240Y-1987820D01*
X940720Y-1986360D01*
X940840Y-1985620D01*
X940840Y-1984100D01*
X940520Y-1982620D01*
X939900Y-1981220D01*
X938980Y-1980020D01*
X937840Y-1979019D01*
X936500Y-1978300D01*
X935040Y-1977900D01*
G37*
D11*
X1410945Y-1840000D02*
G01*
X1410945Y-2040000D01*
X1729054Y-1840000D02*
G01*
X1410945Y-1840000D01*
X1729054Y-2040000D02*
G01*
X1410945Y-2040000D01*
X1729054Y-1939722D02*
G01*
X1620000Y-1939722D01*
X1620000Y-2040000D01*
X1729054Y-1840000D02*
G01*
X1729054Y-2040000D01*
D12*
X1399810Y-1494810D02*
G01*
X1399810Y-1365189D01*
X1270189Y-1365189D01*
X1270189Y-1494810D01*
X1399810Y-1494810D01*
X1288141Y-1503811D02*
G01*
X1261189Y-1503811D01*
X1261189Y-1476858D01*
X624468Y-1948548D02*
G01*
X624468Y-2004061D01*
X553319Y-2004061D02*
G01*
X553319Y-1948548D01*
X559319Y-1942548D02*
G01*
X618469Y-1942548D01*
X624468Y-2091163D02*
G01*
X624468Y-2035650D01*
X553319Y-2035650D02*
G01*
X553319Y-2091163D01*
X559319Y-2097163D02*
G01*
X618469Y-2097163D01*
X624468Y-2208548D02*
G01*
X624468Y-2264061D01*
X553319Y-2264061D02*
G01*
X553319Y-2208548D01*
X559319Y-2202548D02*
G01*
X618469Y-2202548D01*
X624468Y-2351163D02*
G01*
X624468Y-2295650D01*
X553319Y-2295650D02*
G01*
X553319Y-2351163D01*
X559319Y-2357163D02*
G01*
X618469Y-2357163D01*
X1022587Y-1979281D02*
G01*
X1078099Y-1979281D01*
X1078099Y-2050430D02*
G01*
X1022587Y-2050430D01*
X1016586Y-2044430D02*
G01*
X1016586Y-1985281D01*
X1165200Y-1979281D02*
G01*
X1109688Y-1979281D01*
X1109688Y-2050430D02*
G01*
X1165200Y-2050430D01*
X1171201Y-2044430D02*
G01*
X1171201Y-1985281D01*
X1023693Y-1829425D02*
G01*
X1079205Y-1829425D01*
X1079205Y-1900574D02*
G01*
X1023693Y-1900574D01*
X1017692Y-1894574D02*
G01*
X1017692Y-1835425D01*
X1166306Y-1829425D02*
G01*
X1110794Y-1829425D01*
X1110794Y-1900574D02*
G01*
X1166306Y-1900574D01*
X1172307Y-1894574D02*
G01*
X1172307Y-1835425D01*
X1022587Y-2074281D02*
G01*
X1078099Y-2074281D01*
X1078099Y-2145430D02*
G01*
X1022587Y-2145430D01*
X1016586Y-2139430D02*
G01*
X1016586Y-2080281D01*
X1165200Y-2074281D02*
G01*
X1109688Y-2074281D01*
X1109688Y-2145430D02*
G01*
X1165200Y-2145430D01*
X1171201Y-2139430D02*
G01*
X1171201Y-2080281D01*
D13*
X654164Y-2072060D02*
G01*
X654164Y-2065216D01*
X713623Y-2072060D02*
G01*
X713623Y-2065216D01*
X713623Y-2072060D02*
G01*
X717995Y-2072060D01*
X717995Y-2065216D01*
X649792Y-2065216D02*
G01*
X649792Y-2072060D01*
X654164Y-2072060D01*
X654164Y-2065216D02*
G01*
X649792Y-2065216D01*
X717995Y-2065216D02*
G01*
X713623Y-2065216D01*
X717995Y-2042420D02*
G01*
X649792Y-2042420D01*
D12*
X717995Y-2048045D02*
G01*
X649792Y-2048045D01*
X717995Y-2065216D02*
G01*
X717995Y-1954495D01*
X717995Y-1954495D02*
G01*
X711381Y-1954495D01*
X649792Y-2065216D02*
G01*
X649792Y-1954495D01*
X649792Y-1954495D02*
G01*
X656406Y-1954495D01*
D13*
X813623Y-1947651D02*
G01*
X813623Y-1954495D01*
X754164Y-1947651D02*
G01*
X754164Y-1954495D01*
X754164Y-1947651D02*
G01*
X749792Y-1947651D01*
X749792Y-1954495D01*
X817996Y-1954495D02*
G01*
X817996Y-1947651D01*
X813623Y-1947651D01*
X813623Y-1954495D02*
G01*
X817996Y-1954495D01*
X749792Y-1954495D02*
G01*
X754164Y-1954495D01*
X749792Y-1977292D02*
G01*
X817996Y-1977292D01*
D12*
X749792Y-1971667D02*
G01*
X817996Y-1971667D01*
X749792Y-1954495D02*
G01*
X749792Y-2065216D01*
X749792Y-2065216D02*
G01*
X756406Y-2065216D01*
X817996Y-1954495D02*
G01*
X817996Y-2065216D01*
X817996Y-2065216D02*
G01*
X811382Y-2065216D01*
X915000Y-2303604D02*
G01*
X915000Y-2354191D01*
X842788Y-2354191D01*
X842788Y-2303604D01*
X915000Y-2266107D02*
G01*
X915000Y-2215520D01*
X842788Y-2215520D01*
X842788Y-2266107D01*
X1265000Y-2293604D02*
G01*
X1265000Y-2344191D01*
X1192788Y-2344191D01*
X1192788Y-2293604D01*
X1265000Y-2256107D02*
G01*
X1265000Y-2205520D01*
X1192788Y-2205520D01*
X1192788Y-2256107D01*
X932788Y-2266107D02*
G01*
X932788Y-2215520D01*
X1005000Y-2215520D01*
X1005000Y-2266107D01*
X932788Y-2303604D02*
G01*
X932788Y-2354191D01*
X1005000Y-2354191D01*
X1005000Y-2303604D01*
X742788Y-2266107D02*
G01*
X742788Y-2215520D01*
X815000Y-2215520D01*
X815000Y-2266107D01*
X742788Y-2303604D02*
G01*
X742788Y-2354191D01*
X815000Y-2354191D01*
X815000Y-2303604D01*
X642788Y-2266107D02*
G01*
X642788Y-2215520D01*
X715000Y-2215520D01*
X715000Y-2266107D01*
X642788Y-2303604D02*
G01*
X642788Y-2354191D01*
X715000Y-2354191D01*
X715000Y-2303604D01*
X965146Y-2460961D02*
G01*
X914557Y-2460961D01*
X914557Y-2388750D01*
X965146Y-2388750D01*
X1002641Y-2460961D02*
G01*
X1053230Y-2460961D01*
X1053230Y-2388750D01*
X1002641Y-2388750D01*
X942641Y-2113750D02*
G01*
X993230Y-2113750D01*
X993230Y-2185961D01*
X942641Y-2185961D01*
X905146Y-2113750D02*
G01*
X854557Y-2113750D01*
X854557Y-2185961D01*
X905146Y-2185961D01*
X757642Y-2113750D02*
G01*
X808230Y-2113750D01*
X808230Y-2185961D01*
X757642Y-2185961D01*
X720145Y-2113750D02*
G01*
X669558Y-2113750D01*
X669558Y-2185961D01*
X720145Y-2185961D01*
D14*
X1129326Y-2219576D02*
G01*
X1129326Y-2213829D01*
X1129326Y-2256977D02*
G01*
X1129326Y-2255336D01*
X1129326Y-2294376D02*
G01*
X1129326Y-2292736D01*
X1129326Y-2335877D02*
G01*
X1129326Y-2330136D01*
X1058459Y-2219576D02*
G01*
X1058459Y-2213829D01*
X1058459Y-2294376D02*
G01*
X1058459Y-2255335D01*
X1058459Y-2335877D02*
G01*
X1058459Y-2330135D01*
X1058459Y-2335877D02*
G01*
X1129326Y-2335877D01*
X1058459Y-2213829D02*
G01*
X1129326Y-2213829D01*
X954326Y-1969576D02*
G01*
X954326Y-1963829D01*
X954326Y-2006977D02*
G01*
X954326Y-2005336D01*
X954326Y-2044376D02*
G01*
X954326Y-2042735D01*
X954326Y-2085877D02*
G01*
X954326Y-2080136D01*
X883459Y-1969576D02*
G01*
X883459Y-1963829D01*
X883459Y-2044376D02*
G01*
X883459Y-2005335D01*
X883459Y-2085877D02*
G01*
X883459Y-2080135D01*
X883459Y-2085877D02*
G01*
X954326Y-2085877D01*
X883459Y-1963829D02*
G01*
X954326Y-1963829D01*
D12*
G75*
G01*
X553319Y-1948549D02*
G02*
X559319Y-1942549I6000J0D01*
G75*
G01*
X618469Y-1942549D02*
G02*
X624469Y-1948549I0J-6000D01*
G75*
G01*
X553319Y-2091163D02*
G03*
X559319Y-2097163I6000J0D01*
G75*
G01*
X618469Y-2097163D02*
G03*
X624469Y-2091163I0J6000D01*
G75*
G01*
X553319Y-2208549D02*
G02*
X559319Y-2202549I6000J0D01*
G75*
G01*
X618469Y-2202549D02*
G02*
X624469Y-2208549I0J-6000D01*
G75*
G01*
X553319Y-2351163D02*
G03*
X559319Y-2357163I6000J0D01*
G75*
G01*
X618469Y-2357163D02*
G03*
X624469Y-2351163I0J6000D01*
G75*
G01*
X1022587Y-2050431D02*
G02*
X1016587Y-2044431I0J6000D01*
G75*
G01*
X1016587Y-1985281D02*
G02*
X1022587Y-1979281I6000J0D01*
G75*
G01*
X1165201Y-2050431D02*
G03*
X1171201Y-2044431I0J6000D01*
G75*
G01*
X1171201Y-1985281D02*
G03*
X1165201Y-1979281I-6000J0D01*
G75*
G01*
X1023693Y-1900575D02*
G02*
X1017693Y-1894575I0J6000D01*
G75*
G01*
X1017693Y-1835425D02*
G02*
X1023693Y-1829425I6000J0D01*
G75*
G01*
X1166307Y-1900575D02*
G03*
X1172307Y-1894575I0J6000D01*
G75*
G01*
X1172307Y-1835425D02*
G03*
X1166307Y-1829425I-6000J0D01*
G75*
G01*
X1022587Y-2145431D02*
G02*
X1016587Y-2139431I0J6000D01*
G75*
G01*
X1016587Y-2080281D02*
G02*
X1022587Y-2074281I6000J0D01*
G75*
G01*
X1165201Y-2145431D02*
G03*
X1171201Y-2139431I0J6000D01*
G75*
G01*
X1171201Y-2080281D02*
G03*
X1165201Y-2074281I-6000J0D01*
D14*
G75*
G01
X1252470Y-1469370D02*
G03X1252470Y-1469370I-1970J0D01*
M02*
