G04 Layer: BottomLayer*
G04 EasyEDA v6.5.51, 2025-09-20 15:47:23*
G04 253a245d6267489c8966ad05d83ebf9d,d57bd40a603b42be9e37e0d49851eb9c,10*
G04 Gerber Generator version 0.2*
G04 Scale: 100 percent, Rotated: No, Reflected: No *
G04 Dimensions in millimeters *
G04 leading zeros omitted , absolute positions ,4 integer and 5 decimal *
%FSLAX45Y45*%
%MOMM*%

%AMMACRO1*21,1,$1,$2,0,0,$3*%
%ADD10C,0.2800*%
%ADD11C,0.1500*%
%ADD12C,0.1600*%
%ADD13C,1.8000*%
%ADD14MACRO1,1.8X1.8X0.0000*%
%ADD15C,1.5240*%
%ADD16C,0.6096*%
%ADD17C,0.0143*%

%LPD*%
G36*
X914247Y-3060192D02*
G01*
X23368Y-3048000D01*
X19507Y-3047187D01*
X16256Y-3044952D01*
X14122Y-3041650D01*
X13360Y-3037789D01*
X25755Y-36017D01*
X26568Y-32156D01*
X28752Y-28854D01*
X32054Y-26670D01*
X35915Y-25908D01*
X1792732Y-25908D01*
X1796643Y-26670D01*
X1799894Y-28905D01*
X1802130Y-32156D01*
X1802892Y-36068D01*
X1802892Y-3037840D01*
X1802130Y-3041700D01*
X1799945Y-3044952D01*
X1796694Y-3047187D01*
X1792884Y-3048000D01*
G37*

%LPC*%
G36*
X177292Y-2973425D02*
G01*
X356108Y-2973425D01*
X362458Y-2972714D01*
X367893Y-2970784D01*
X372821Y-2967685D01*
X376885Y-2963621D01*
X379984Y-2958693D01*
X381914Y-2953258D01*
X382625Y-2946908D01*
X382625Y-2768092D01*
X381914Y-2761742D01*
X379984Y-2756306D01*
X376885Y-2751378D01*
X372821Y-2747314D01*
X367893Y-2744216D01*
X362458Y-2742285D01*
X356108Y-2741574D01*
X177292Y-2741574D01*
X170942Y-2742285D01*
X165506Y-2744216D01*
X160578Y-2747314D01*
X156514Y-2751378D01*
X153416Y-2756306D01*
X151485Y-2761742D01*
X150774Y-2768092D01*
X150774Y-2946908D01*
X151485Y-2953258D01*
X153416Y-2958693D01*
X156514Y-2963621D01*
X160578Y-2967685D01*
X165506Y-2970784D01*
X170942Y-2972714D01*
G37*
G36*
X767435Y-2973171D02*
G01*
X781964Y-2973171D01*
X796391Y-2971342D01*
X810514Y-2967736D01*
X824026Y-2962351D01*
X836777Y-2955340D01*
X848563Y-2946806D01*
X859180Y-2936849D01*
X868476Y-2925622D01*
X876249Y-2913329D01*
X882446Y-2900172D01*
X886968Y-2886303D01*
X889660Y-2872028D01*
X890574Y-2857500D01*
X889660Y-2842971D01*
X886968Y-2828696D01*
X882446Y-2814828D01*
X876249Y-2801670D01*
X868476Y-2789377D01*
X859180Y-2778150D01*
X848563Y-2768193D01*
X836777Y-2759659D01*
X824026Y-2752648D01*
X810514Y-2747264D01*
X796391Y-2743657D01*
X781964Y-2741828D01*
X767435Y-2741828D01*
X753008Y-2743657D01*
X738886Y-2747264D01*
X725373Y-2752648D01*
X712622Y-2759659D01*
X700836Y-2768193D01*
X690219Y-2778150D01*
X680923Y-2789377D01*
X673150Y-2801670D01*
X666953Y-2814828D01*
X662432Y-2828696D01*
X659739Y-2842971D01*
X658825Y-2857500D01*
X659739Y-2872028D01*
X662432Y-2886303D01*
X666953Y-2900172D01*
X673150Y-2913329D01*
X680923Y-2925622D01*
X690219Y-2936849D01*
X700836Y-2946806D01*
X712622Y-2955340D01*
X725373Y-2962351D01*
X738886Y-2967736D01*
X753008Y-2971342D01*
G37*
G36*
X572058Y-2961233D02*
G01*
X582777Y-2955340D01*
X594563Y-2946806D01*
X605180Y-2936849D01*
X614476Y-2925622D01*
X622249Y-2913329D01*
X624382Y-2908858D01*
X572058Y-2908858D01*
G37*
G36*
X469341Y-2961233D02*
G01*
X469341Y-2908858D01*
X417017Y-2908858D01*
X419150Y-2913329D01*
X426923Y-2925622D01*
X436219Y-2936849D01*
X446836Y-2946806D01*
X458622Y-2955340D01*
G37*
G36*
X417017Y-2806141D02*
G01*
X469341Y-2806141D01*
X469341Y-2753766D01*
X458622Y-2759659D01*
X446836Y-2768193D01*
X436219Y-2778150D01*
X426923Y-2789377D01*
X419150Y-2801670D01*
G37*
G36*
X572058Y-2806141D02*
G01*
X624382Y-2806141D01*
X622249Y-2801670D01*
X614476Y-2789377D01*
X605180Y-2778150D01*
X594563Y-2768193D01*
X582777Y-2759659D01*
X572058Y-2753766D01*
G37*
G36*
X259435Y-2719171D02*
G01*
X273964Y-2719171D01*
X288391Y-2717342D01*
X302514Y-2713736D01*
X316026Y-2708351D01*
X328777Y-2701340D01*
X340563Y-2692806D01*
X351180Y-2682849D01*
X360476Y-2671622D01*
X368249Y-2659329D01*
X374446Y-2646172D01*
X378968Y-2632303D01*
X381660Y-2618028D01*
X382574Y-2603500D01*
X381660Y-2588971D01*
X378968Y-2574696D01*
X374243Y-2560218D01*
X373786Y-2556560D01*
X374650Y-2552954D01*
X376732Y-2549906D01*
X739089Y-2187549D01*
X744321Y-2181148D01*
X748030Y-2174240D01*
X750316Y-2166772D01*
X751128Y-2158492D01*
X751128Y-1440688D01*
X751890Y-1436776D01*
X760018Y-1425194D01*
X764133Y-1416253D01*
X766673Y-1406804D01*
X767537Y-1397000D01*
X766673Y-1387195D01*
X764133Y-1377746D01*
X760018Y-1368806D01*
X754380Y-1360779D01*
X747420Y-1353820D01*
X739394Y-1348181D01*
X730453Y-1344066D01*
X721004Y-1341526D01*
X711200Y-1340662D01*
X701395Y-1341526D01*
X691946Y-1344066D01*
X683006Y-1348181D01*
X674979Y-1353820D01*
X668020Y-1360779D01*
X662381Y-1368806D01*
X658266Y-1377746D01*
X655726Y-1387195D01*
X654862Y-1397000D01*
X655726Y-1406804D01*
X658266Y-1416253D01*
X662381Y-1425194D01*
X670509Y-1436776D01*
X671271Y-1440688D01*
X671271Y-2138273D01*
X670509Y-2142134D01*
X668324Y-2145436D01*
X320090Y-2493670D01*
X316839Y-2495854D01*
X313029Y-2496616D01*
X309168Y-2495905D01*
X302514Y-2493264D01*
X288391Y-2489657D01*
X273964Y-2487828D01*
X259435Y-2487828D01*
X245008Y-2489657D01*
X230886Y-2493264D01*
X217373Y-2498648D01*
X204622Y-2505659D01*
X192836Y-2514193D01*
X182219Y-2524150D01*
X172923Y-2535377D01*
X165150Y-2547670D01*
X158953Y-2560828D01*
X154432Y-2574696D01*
X151739Y-2588971D01*
X150825Y-2603500D01*
X151739Y-2618028D01*
X154432Y-2632303D01*
X158953Y-2646172D01*
X165150Y-2659329D01*
X172923Y-2671622D01*
X182219Y-2682849D01*
X192836Y-2692806D01*
X204622Y-2701340D01*
X217373Y-2708351D01*
X230886Y-2713736D01*
X245008Y-2717342D01*
G37*
G36*
X767435Y-2719171D02*
G01*
X781964Y-2719171D01*
X796391Y-2717342D01*
X810514Y-2713736D01*
X824026Y-2708351D01*
X836777Y-2701340D01*
X848563Y-2692806D01*
X859180Y-2682849D01*
X868476Y-2671622D01*
X876249Y-2659329D01*
X882446Y-2646172D01*
X886968Y-2632303D01*
X889660Y-2618028D01*
X890574Y-2603500D01*
X889660Y-2588971D01*
X886968Y-2574696D01*
X882243Y-2560218D01*
X881786Y-2556560D01*
X882650Y-2552954D01*
X884732Y-2549906D01*
X954989Y-2479649D01*
X960221Y-2473248D01*
X963930Y-2466340D01*
X966216Y-2458872D01*
X967028Y-2450592D01*
X967028Y-1529588D01*
X967790Y-1525676D01*
X975918Y-1514094D01*
X980033Y-1505153D01*
X982573Y-1495704D01*
X983437Y-1485900D01*
X982573Y-1476095D01*
X980033Y-1466646D01*
X975918Y-1457706D01*
X970280Y-1449679D01*
X963320Y-1442720D01*
X955294Y-1437081D01*
X946353Y-1432966D01*
X936904Y-1430426D01*
X927100Y-1429562D01*
X917295Y-1430426D01*
X909777Y-1432407D01*
X906119Y-1432712D01*
X902563Y-1431645D01*
X899617Y-1429410D01*
X897686Y-1426260D01*
X897026Y-1422603D01*
X897026Y-902208D01*
X896213Y-894740D01*
X894080Y-888136D01*
X890524Y-881989D01*
X886917Y-877773D01*
X325323Y-316179D01*
X323189Y-313029D01*
X322326Y-309372D01*
X322884Y-305663D01*
X327050Y-293674D01*
X329793Y-280314D01*
X330708Y-266700D01*
X329793Y-253085D01*
X327050Y-239725D01*
X322580Y-226821D01*
X316433Y-214680D01*
X308711Y-203454D01*
X299567Y-193294D01*
X289153Y-184505D01*
X277672Y-177190D01*
X265277Y-171450D01*
X252272Y-167386D01*
X238810Y-165150D01*
X225196Y-164693D01*
X211632Y-166014D01*
X198374Y-169214D01*
X185623Y-174091D01*
X173685Y-180644D01*
X162712Y-188722D01*
X152908Y-198221D01*
X144424Y-208940D01*
X137464Y-220675D01*
X132181Y-233222D01*
X128574Y-246379D01*
X126746Y-259892D01*
X126746Y-273507D01*
X128574Y-287020D01*
X132181Y-300177D01*
X137464Y-312724D01*
X144424Y-324459D01*
X152908Y-335178D01*
X162712Y-344678D01*
X173685Y-352755D01*
X185623Y-359308D01*
X198374Y-364185D01*
X211632Y-367385D01*
X225196Y-368706D01*
X238810Y-368249D01*
X252272Y-366014D01*
X270560Y-360426D01*
X274624Y-361137D01*
X278028Y-363372D01*
X827227Y-912571D01*
X829411Y-915873D01*
X830173Y-919734D01*
X830173Y-1511909D01*
X829411Y-1515821D01*
X827227Y-1519123D01*
X820419Y-1525879D01*
X814781Y-1533906D01*
X810666Y-1542846D01*
X808126Y-1552295D01*
X807262Y-1562100D01*
X808126Y-1571904D01*
X810666Y-1581353D01*
X814781Y-1590294D01*
X820419Y-1598320D01*
X827379Y-1605280D01*
X835406Y-1610918D01*
X844346Y-1615033D01*
X853795Y-1617573D01*
X863600Y-1618437D01*
X878078Y-1617014D01*
X881634Y-1618081D01*
X884580Y-1620316D01*
X886510Y-1623517D01*
X887171Y-1627124D01*
X887171Y-2430373D01*
X886409Y-2434234D01*
X884224Y-2437536D01*
X828090Y-2493670D01*
X824839Y-2495854D01*
X821029Y-2496616D01*
X817168Y-2495905D01*
X810514Y-2493264D01*
X796391Y-2489657D01*
X781964Y-2487828D01*
X767435Y-2487828D01*
X753008Y-2489657D01*
X738886Y-2493264D01*
X725373Y-2498648D01*
X712622Y-2505659D01*
X700836Y-2514193D01*
X690219Y-2524150D01*
X680923Y-2535377D01*
X673150Y-2547670D01*
X666953Y-2560828D01*
X662432Y-2574696D01*
X659739Y-2588971D01*
X658825Y-2603500D01*
X659739Y-2618028D01*
X662432Y-2632303D01*
X666953Y-2646172D01*
X673150Y-2659329D01*
X680923Y-2671622D01*
X690219Y-2682849D01*
X700836Y-2692806D01*
X712622Y-2701340D01*
X725373Y-2708351D01*
X738886Y-2713736D01*
X753008Y-2717342D01*
G37*
G36*
X469341Y-2707233D02*
G01*
X469341Y-2654858D01*
X417017Y-2654858D01*
X419150Y-2659329D01*
X426923Y-2671622D01*
X436219Y-2682849D01*
X446836Y-2692806D01*
X458622Y-2701340D01*
G37*
G36*
X572058Y-2707233D02*
G01*
X582777Y-2701340D01*
X594563Y-2692806D01*
X605180Y-2682849D01*
X614476Y-2671622D01*
X622249Y-2659329D01*
X624382Y-2654858D01*
X572058Y-2654858D01*
G37*
G36*
X417017Y-2552141D02*
G01*
X469341Y-2552141D01*
X469341Y-2499766D01*
X458622Y-2505659D01*
X446836Y-2514193D01*
X436219Y-2524150D01*
X426923Y-2535377D01*
X419150Y-2547670D01*
G37*
G36*
X572058Y-2552141D02*
G01*
X624382Y-2552141D01*
X622249Y-2547670D01*
X614476Y-2535377D01*
X605180Y-2524150D01*
X594563Y-2514193D01*
X582777Y-2505659D01*
X572058Y-2499766D01*
G37*
G36*
X1404975Y-623112D02*
G01*
X1414780Y-622249D01*
X1424228Y-619709D01*
X1433169Y-615594D01*
X1441196Y-609955D01*
X1448155Y-602996D01*
X1453794Y-594969D01*
X1457909Y-586028D01*
X1460449Y-576580D01*
X1461312Y-566775D01*
X1460449Y-556971D01*
X1457909Y-547522D01*
X1453794Y-538581D01*
X1448155Y-530555D01*
X1441196Y-523595D01*
X1433169Y-517956D01*
X1424228Y-513842D01*
X1414780Y-511301D01*
X1404975Y-510438D01*
X1401978Y-510692D01*
X1397609Y-510133D01*
X1393901Y-507746D01*
X1201775Y-315620D01*
X1199692Y-312521D01*
X1198829Y-308864D01*
X1199388Y-305104D01*
X1203350Y-293674D01*
X1206093Y-280314D01*
X1207008Y-266700D01*
X1206093Y-253085D01*
X1203350Y-239725D01*
X1198880Y-226821D01*
X1192733Y-214680D01*
X1185011Y-203454D01*
X1175867Y-193294D01*
X1165453Y-184505D01*
X1153972Y-177190D01*
X1141577Y-171450D01*
X1128572Y-167386D01*
X1115110Y-165150D01*
X1101496Y-164693D01*
X1087932Y-166014D01*
X1074674Y-169214D01*
X1061923Y-174091D01*
X1049985Y-180644D01*
X1039012Y-188722D01*
X1029208Y-198221D01*
X1020724Y-208940D01*
X1013764Y-220675D01*
X1008481Y-233222D01*
X1004874Y-246379D01*
X1003046Y-259892D01*
X1003046Y-273507D01*
X1004874Y-287020D01*
X1008481Y-300177D01*
X1013764Y-312724D01*
X1020724Y-324459D01*
X1029208Y-335178D01*
X1039012Y-344678D01*
X1049985Y-352755D01*
X1061923Y-359308D01*
X1074674Y-364185D01*
X1087932Y-367385D01*
X1101496Y-368706D01*
X1115110Y-368249D01*
X1128572Y-366014D01*
X1141577Y-361950D01*
X1146403Y-360629D01*
X1150416Y-361340D01*
X1153871Y-363626D01*
X1345946Y-555701D01*
X1348333Y-559409D01*
X1348892Y-563778D01*
X1348638Y-566775D01*
X1349502Y-576580D01*
X1352042Y-586028D01*
X1356156Y-594969D01*
X1361795Y-602996D01*
X1368755Y-609955D01*
X1376781Y-615594D01*
X1385722Y-619709D01*
X1395171Y-622249D01*
G37*
G36*
X682396Y-368706D02*
G01*
X696010Y-368249D01*
X709472Y-366014D01*
X722477Y-361950D01*
X734872Y-356209D01*
X746353Y-348894D01*
X756767Y-340106D01*
X765911Y-329946D01*
X773633Y-318719D01*
X779780Y-306578D01*
X784250Y-293674D01*
X786993Y-280314D01*
X787908Y-266700D01*
X786993Y-253085D01*
X784250Y-239725D01*
X779780Y-226821D01*
X773633Y-214680D01*
X765911Y-203454D01*
X756767Y-193294D01*
X746353Y-184505D01*
X734872Y-177190D01*
X722477Y-171450D01*
X709472Y-167386D01*
X696010Y-165150D01*
X682396Y-164693D01*
X668832Y-166014D01*
X655574Y-169214D01*
X642823Y-174091D01*
X630885Y-180644D01*
X619912Y-188722D01*
X610108Y-198221D01*
X601624Y-208940D01*
X594664Y-220675D01*
X589381Y-233222D01*
X585774Y-246379D01*
X583946Y-259892D01*
X583946Y-273507D01*
X585774Y-287020D01*
X589381Y-300177D01*
X594664Y-312724D01*
X601624Y-324459D01*
X610108Y-335178D01*
X619912Y-344678D01*
X630885Y-352755D01*
X642823Y-359308D01*
X655574Y-364185D01*
X668832Y-367385D01*
G37*

%LPD*%
D10*
X774700Y-2603500D02*
G01*
X927100Y-2451100D01*
X927100Y-1485900D01*
X711200Y-1397000D02*
G01*
X711200Y-2159000D01*
X266700Y-2603500D01*
D11*
X863600Y-1562100D02*
G01*
X863600Y-901700D01*
X228600Y-266700D01*
D12*
X1404975Y-566775D02*
G01*
X1104900Y-266700D01*
D13*
G01*
X266700Y-2603500D03*
G01*
X266700Y-2857500D03*
G01*
X520700Y-2603500D03*
G01*
X520700Y-2857500D03*
G01*
X774700Y-2603500D03*
D14*
G01*
X774700Y-2857494D03*
D15*
G01*
X1104900Y-266700D03*
G01*
X685800Y-266700D03*
G01*
X228600Y-266700D03*
D16*
G01*
X1404975Y-566775D03*
G01*
X863600Y-1562100D03*
G01*
X927100Y-1485900D03*
G01*
X711200Y-1397000D03*
M02*
