G04 Layer: TopPasteMaskLayer*
G04 EasyEDA v6.5.51, 2025-09-20 15:47:23*
G04 253a245d6267489c8966ad05d83ebf9d,d57bd40a603b42be9e37e0d49851eb9c,10*
G04 Gerber Generator version 0.2*
G04 Scale: 100 percent, Rotated: No, Reflected: No *
G04 Dimensions in millimeters *
G04 leading zeros omitted , absolute positions ,4 integer and 5 decimal *
%FSLAX45Y45*%
%MOMM*%

%ADD10C,0.0177*%

%LPD*%
G36*
X1168501Y-2445613D02*
G01*
X1163472Y-2450592D01*
X1163472Y-2578608D01*
X1168501Y-2583586D01*
X1283512Y-2583586D01*
X1288491Y-2578608D01*
X1287983Y-2536596D01*
X1243990Y-2536596D01*
X1243990Y-2491587D01*
X1288999Y-2491587D01*
X1288491Y-2450592D01*
X1283512Y-2445613D01*
G37*
G36*
X1383487Y-2445613D02*
G01*
X1378508Y-2450592D01*
X1379016Y-2491587D01*
X1423009Y-2491587D01*
X1423009Y-2536596D01*
X1378508Y-2536596D01*
X1378508Y-2578608D01*
X1383487Y-2583586D01*
X1498498Y-2583586D01*
X1503476Y-2578608D01*
X1503476Y-2450592D01*
X1498498Y-2445613D01*
G37*
G36*
X548894Y-1533398D02*
G01*
X545998Y-1536293D01*
X545998Y-1559306D01*
X548894Y-1562201D01*
X571906Y-1562201D01*
X574802Y-1559306D01*
X574802Y-1536293D01*
X571906Y-1533398D01*
G37*
G36*
X548894Y-1433423D02*
G01*
X545998Y-1436268D01*
X545998Y-1459331D01*
X548894Y-1462176D01*
X571906Y-1462176D01*
X574802Y-1459331D01*
X574802Y-1436268D01*
X571906Y-1433423D01*
G37*
G36*
X548894Y-1333398D02*
G01*
X545998Y-1336294D01*
X545998Y-1359306D01*
X548894Y-1362202D01*
X571906Y-1362202D01*
X574802Y-1359306D01*
X574802Y-1336294D01*
X571906Y-1333398D01*
G37*
G36*
X648868Y-1533398D02*
G01*
X646023Y-1536293D01*
X646023Y-1559306D01*
X648868Y-1562201D01*
X671931Y-1562201D01*
X674776Y-1559306D01*
X674776Y-1536293D01*
X671931Y-1533398D01*
G37*
G36*
X648868Y-1433423D02*
G01*
X646023Y-1436268D01*
X646023Y-1459331D01*
X648868Y-1462176D01*
X671931Y-1462176D01*
X674776Y-1459331D01*
X674776Y-1436268D01*
X671931Y-1433423D01*
G37*
G36*
X648868Y-1333398D02*
G01*
X646023Y-1336294D01*
X646023Y-1359306D01*
X648868Y-1362202D01*
X671931Y-1362202D01*
X674776Y-1359306D01*
X674776Y-1336294D01*
X671931Y-1333398D01*
G37*
G36*
X748893Y-1533398D02*
G01*
X745998Y-1536293D01*
X745998Y-1559306D01*
X748893Y-1562201D01*
X771906Y-1562201D01*
X774801Y-1559306D01*
X774801Y-1536293D01*
X771906Y-1533398D01*
G37*
G36*
X748893Y-1433423D02*
G01*
X745998Y-1436268D01*
X745998Y-1459331D01*
X748893Y-1462176D01*
X771906Y-1462176D01*
X774801Y-1459331D01*
X774801Y-1436268D01*
X771906Y-1433423D01*
G37*
G36*
X748893Y-1333398D02*
G01*
X745998Y-1336294D01*
X745998Y-1359306D01*
X748893Y-1362202D01*
X771906Y-1362202D01*
X774801Y-1359306D01*
X774801Y-1336294D01*
X771906Y-1333398D01*
G37*
G36*
X1181201Y-2852013D02*
G01*
X1176172Y-2856992D01*
X1176172Y-2985008D01*
X1181201Y-2989986D01*
X1296212Y-2989986D01*
X1301191Y-2985008D01*
X1300683Y-2942996D01*
X1256690Y-2942996D01*
X1256690Y-2897987D01*
X1301699Y-2897987D01*
X1301191Y-2856992D01*
X1296212Y-2852013D01*
G37*
G36*
X1396187Y-2852013D02*
G01*
X1391208Y-2856992D01*
X1391716Y-2897987D01*
X1435709Y-2897987D01*
X1435709Y-2942996D01*
X1391208Y-2942996D01*
X1391208Y-2985008D01*
X1396187Y-2989986D01*
X1511198Y-2989986D01*
X1516176Y-2985008D01*
X1516176Y-2856992D01*
X1511198Y-2852013D01*
G37*
G36*
X1006094Y-1533398D02*
G01*
X1005179Y-1533550D01*
X1004366Y-1533956D01*
X1003757Y-1534566D01*
X1003350Y-1535379D01*
X1003198Y-1536293D01*
X1003198Y-1559306D01*
X1003350Y-1560220D01*
X1003757Y-1561033D01*
X1004366Y-1561642D01*
X1005179Y-1562049D01*
X1006094Y-1562201D01*
X1029106Y-1562201D01*
X1030020Y-1562049D01*
X1030833Y-1561642D01*
X1031443Y-1561033D01*
X1031849Y-1560220D01*
X1032002Y-1559306D01*
X1032002Y-1536293D01*
X1031849Y-1535379D01*
X1031443Y-1534566D01*
X1030833Y-1533956D01*
X1030020Y-1533550D01*
X1029106Y-1533398D01*
G37*
G36*
X1006094Y-1433423D02*
G01*
X1005179Y-1433525D01*
X1004366Y-1433931D01*
X1003350Y-1435404D01*
X1003198Y-1436268D01*
X1003198Y-1459331D01*
X1003350Y-1460195D01*
X1004366Y-1461668D01*
X1005179Y-1462074D01*
X1030020Y-1462074D01*
X1030833Y-1461668D01*
X1031849Y-1460195D01*
X1032002Y-1459331D01*
X1032002Y-1436268D01*
X1031849Y-1435404D01*
X1030833Y-1433931D01*
X1030020Y-1433525D01*
G37*
G36*
X1006094Y-1333398D02*
G01*
X1005179Y-1333550D01*
X1004366Y-1333957D01*
X1003757Y-1334566D01*
X1003350Y-1335379D01*
X1003198Y-1336294D01*
X1003198Y-1359306D01*
X1003350Y-1360220D01*
X1003757Y-1361033D01*
X1004366Y-1361643D01*
X1005179Y-1362049D01*
X1006094Y-1362202D01*
X1029106Y-1362202D01*
X1030020Y-1362049D01*
X1030833Y-1361643D01*
X1031443Y-1361033D01*
X1031849Y-1360220D01*
X1032002Y-1359306D01*
X1032002Y-1336294D01*
X1031849Y-1335379D01*
X1031443Y-1334566D01*
X1030833Y-1333957D01*
X1030020Y-1333550D01*
X1029106Y-1333398D01*
G37*
G36*
X1106068Y-1533398D02*
G01*
X1105204Y-1533550D01*
X1103731Y-1534566D01*
X1103325Y-1535379D01*
X1103325Y-1560220D01*
X1103731Y-1561033D01*
X1105204Y-1562049D01*
X1106068Y-1562201D01*
X1129131Y-1562201D01*
X1129995Y-1562049D01*
X1131468Y-1561033D01*
X1131874Y-1560220D01*
X1131874Y-1535379D01*
X1131468Y-1534566D01*
X1129995Y-1533550D01*
X1129131Y-1533398D01*
G37*
G36*
X1106068Y-1433423D02*
G01*
X1105204Y-1433525D01*
X1104392Y-1433931D01*
X1103731Y-1434592D01*
X1103325Y-1435404D01*
X1103325Y-1460195D01*
X1103731Y-1461008D01*
X1104392Y-1461668D01*
X1105204Y-1462074D01*
X1129995Y-1462074D01*
X1130808Y-1461668D01*
X1131468Y-1461008D01*
X1131874Y-1460195D01*
X1131874Y-1435404D01*
X1131468Y-1434592D01*
X1130808Y-1433931D01*
X1129995Y-1433525D01*
G37*
G36*
X1106068Y-1333398D02*
G01*
X1105204Y-1333550D01*
X1103731Y-1334566D01*
X1103325Y-1335379D01*
X1103325Y-1360220D01*
X1103731Y-1361033D01*
X1105204Y-1362049D01*
X1106068Y-1362202D01*
X1129131Y-1362202D01*
X1129995Y-1362049D01*
X1131468Y-1361033D01*
X1131874Y-1360220D01*
X1131874Y-1335379D01*
X1131468Y-1334566D01*
X1129995Y-1333550D01*
X1129131Y-1333398D01*
G37*
G36*
X1206093Y-1533398D02*
G01*
X1205179Y-1533550D01*
X1204366Y-1533956D01*
X1203756Y-1534566D01*
X1203350Y-1535379D01*
X1203198Y-1536293D01*
X1203198Y-1559306D01*
X1203350Y-1560220D01*
X1203756Y-1561033D01*
X1204366Y-1561642D01*
X1205179Y-1562049D01*
X1206093Y-1562201D01*
X1229106Y-1562201D01*
X1230020Y-1562049D01*
X1230833Y-1561642D01*
X1231442Y-1561033D01*
X1231849Y-1560220D01*
X1232001Y-1559306D01*
X1232001Y-1536293D01*
X1231849Y-1535379D01*
X1231442Y-1534566D01*
X1230833Y-1533956D01*
X1230020Y-1533550D01*
X1229106Y-1533398D01*
G37*
G36*
X1206093Y-1433423D02*
G01*
X1205179Y-1433525D01*
X1204366Y-1433931D01*
X1203350Y-1435404D01*
X1203198Y-1436268D01*
X1203198Y-1459331D01*
X1203350Y-1460195D01*
X1204366Y-1461668D01*
X1205179Y-1462074D01*
X1230020Y-1462074D01*
X1230833Y-1461668D01*
X1231849Y-1460195D01*
X1232001Y-1459331D01*
X1232001Y-1436268D01*
X1231849Y-1435404D01*
X1230833Y-1433931D01*
X1230020Y-1433525D01*
G37*
G36*
X1206093Y-1333398D02*
G01*
X1205179Y-1333550D01*
X1204366Y-1333957D01*
X1203756Y-1334566D01*
X1203350Y-1335379D01*
X1203198Y-1336294D01*
X1203198Y-1359306D01*
X1203350Y-1360220D01*
X1203756Y-1361033D01*
X1204366Y-1361643D01*
X1205179Y-1362049D01*
X1206093Y-1362202D01*
X1229106Y-1362202D01*
X1230020Y-1362049D01*
X1230833Y-1361643D01*
X1231442Y-1361033D01*
X1231849Y-1360220D01*
X1232001Y-1359306D01*
X1232001Y-1336294D01*
X1231849Y-1335379D01*
X1231442Y-1334566D01*
X1230833Y-1333957D01*
X1230020Y-1333550D01*
X1229106Y-1333398D01*
G37*
M02*
