M48
METRIC,LZ,000.000
;FILE_FORMAT=3:3
;TYPE=PLATED
;Layer: PTH_Through_Via
;EasyEDA v6.5.51, 2025-09-17 03:24:35
;4f8a5b0b326d43f2b3a6dc604e954ae0,d57bd40a603b42be9e37e0d49851eb9c,10
;Gerber Generator version 0.2
;Holesize 1 = 0.310 mm
T01C0.310
%
G05
G90
T01
X051435Y-059055
X060833Y-061595
X036703Y-058420
X043815Y-054610
X035052Y-054356
X034671Y-010033
X036703Y-010287
X012700Y-005080
X013462Y-020828
X009144Y-009525
X007239Y-016637
X013208Y-042926
X018796Y-037465
X010668Y-038227
X009906Y-048260
X046355Y-011938
X041402Y-008890
X021336Y-037592
X026797Y-038989
X056642Y-051181
X056642Y-052705
X012192Y-038354
X014859Y-039243
X030353Y-025273
X031750Y-018288
X027051Y-040513
X037592Y-043815
X030607Y-051177
X027305Y-055626
X027686Y-048895
X006223Y-038227
X008509Y-037338
X038989Y-019431
X012573Y-053340
X010287Y-033782
X039116Y-025273
X012319Y-045593
X028067Y-061214
X044196Y-035941
X025908Y-003302
X036703Y-005334
X038100Y-005588
X024765Y-048514
X035179Y-057658
X054102Y-054229
X051435Y-053848
X050673Y-027051
X057531Y-021717
X019558Y-032512
X019685Y-034417
X028321Y-037592
X028702Y-038989
X030480Y-039370
X037592Y-040767
X049276Y-054991
X049276Y-059690
X025781Y-054991
X027940Y-058166
X039751Y-005715
X039497Y-008255
X038100Y-013970
X057277Y-056007
X058801Y-056134
X010668Y-041783
X010668Y-043688
X031623Y-061595
X031877Y-064262
X037592Y-059817
X035560Y-059309
X030607Y-011049
X032385Y-009017
X048260Y-046863
X046990Y-051689
X038100Y-033528
X038100Y-035560
X032766Y-040767
X039624Y-035306
X012192Y-058166
X034417Y-065278
X025908Y-065278
X023368Y-063246
X029210Y-044577
X033401Y-046609
X031623Y-050292
X032385Y-053594
X029337Y-055753
X025908Y-037592
X027686Y-038862
X018923Y-048641
X026035Y-020574
X028829Y-020320
X034163Y-018034
X033401Y-019304
X022733Y-013792
X022098Y-018796
X026162Y-022241
X029464Y-016764
X051435Y-056007
X050941Y-042848
M30
