G04 Layer: TopPasteMaskLayer*
G04 EasyEDA v6.5.51, 2025-09-17 03:24:35*
G04 4f8a5b0b326d43f2b3a6dc604e954ae0,d57bd40a603b42be9e37e0d49851eb9c,10*
G04 Gerber Generator version 0.2*
G04 Scale: 100 percent, Rotated: No, Reflected: No *
G04 Dimensions in millimeters *
G04 leading zeros omitted , absolute positions ,4 integer and 5 decimal *
%FSLAX45Y45*%
%MOMM*%

%AMMACRO1*21,1,$1,$2,0,0,$3*%
%ADD10R,1.0000X0.7500*%
%ADD11R,2.7432X2.1590*%
%ADD12R,1.3000X3.7000*%
%ADD13R,0.7000X1.2500*%
%ADD14R,1.2500X0.7000*%
%ADD15R,0.6000X1.1000*%
%ADD16R,1.1000X0.6000*%
%ADD17R,0.7000X1.1000*%
%ADD18R,1.0000X2.0000*%
%ADD19R,0.0144X2.0000*%
%ADD20R,0.7000X0.7000*%
%ADD21R,1.2500X1.0000*%
%ADD22R,0.5994X2.1996*%
%ADD23MACRO1,0.672X1.575X-90.0000*%
%ADD24R,1.1000X2.5000*%
%ADD25R,3.6000X2.3400*%
%ADD26R,1.0000X1.8000*%
%ADD27R,5.7000X2.5000*%

%LPD*%
G36*
X4237228Y-699668D02*
G01*
X4196232Y-700176D01*
X4191203Y-705205D01*
X4191203Y-820166D01*
X4196232Y-825195D01*
X4324197Y-825195D01*
X4329226Y-820166D01*
X4329226Y-705205D01*
X4324197Y-700176D01*
X4282236Y-700684D01*
X4282236Y-744677D01*
X4237228Y-744677D01*
G37*
G36*
X4196232Y-484174D02*
G01*
X4191203Y-489204D01*
X4191203Y-604215D01*
X4196232Y-609193D01*
X4238193Y-608685D01*
X4238193Y-564692D01*
X4283202Y-564692D01*
X4283202Y-609701D01*
X4324197Y-609193D01*
X4329226Y-604215D01*
X4329226Y-489204D01*
X4324197Y-484174D01*
G37*
G36*
X2929128Y-699668D02*
G01*
X2888132Y-700176D01*
X2883103Y-705205D01*
X2883103Y-820166D01*
X2888132Y-825195D01*
X3016097Y-825195D01*
X3021126Y-820166D01*
X3021126Y-705205D01*
X3016097Y-700176D01*
X2974136Y-700684D01*
X2974136Y-744677D01*
X2929128Y-744677D01*
G37*
G36*
X2888132Y-484174D02*
G01*
X2883103Y-489204D01*
X2883103Y-604215D01*
X2888132Y-609193D01*
X2930093Y-608685D01*
X2930093Y-564692D01*
X2975102Y-564692D01*
X2975102Y-609701D01*
X3016097Y-609193D01*
X3021126Y-604215D01*
X3021126Y-489204D01*
X3016097Y-484174D01*
G37*
G36*
X1714195Y-4680813D02*
G01*
X1709216Y-4685792D01*
X1709674Y-4727803D01*
X1753717Y-4727803D01*
X1753717Y-4772812D01*
X1708708Y-4772812D01*
X1709216Y-4813808D01*
X1714195Y-4818786D01*
X1829206Y-4818786D01*
X1834184Y-4813808D01*
X1834184Y-4685792D01*
X1829206Y-4680813D01*
G37*
G36*
X1498193Y-4680813D02*
G01*
X1493215Y-4685792D01*
X1493215Y-4813808D01*
X1498193Y-4818786D01*
X1613204Y-4818786D01*
X1618183Y-4813808D01*
X1617726Y-4771796D01*
X1573682Y-4771796D01*
X1573682Y-4726787D01*
X1618691Y-4726787D01*
X1618183Y-4685792D01*
X1613204Y-4680813D01*
G37*
G36*
X3532987Y-6229908D02*
G01*
X3491992Y-6230416D01*
X3487013Y-6235395D01*
X3487013Y-6350406D01*
X3491992Y-6355384D01*
X3620008Y-6355384D01*
X3624986Y-6350406D01*
X3624986Y-6235395D01*
X3620008Y-6230416D01*
X3577996Y-6230874D01*
X3577996Y-6274917D01*
X3532987Y-6274917D01*
G37*
G36*
X3491992Y-6014415D02*
G01*
X3487013Y-6019393D01*
X3487013Y-6134404D01*
X3491992Y-6139383D01*
X3534003Y-6138926D01*
X3534003Y-6094882D01*
X3579012Y-6094882D01*
X3579012Y-6139891D01*
X3620008Y-6139383D01*
X3624986Y-6134404D01*
X3624986Y-6019393D01*
X3620008Y-6014415D01*
G37*
G36*
X3549142Y-3341065D02*
G01*
X3544163Y-3346043D01*
X3544163Y-3461054D01*
X3549142Y-3466033D01*
X3591153Y-3465525D01*
X3591153Y-3421532D01*
X3636162Y-3421532D01*
X3636162Y-3466541D01*
X3677158Y-3466033D01*
X3682136Y-3461054D01*
X3682136Y-3346043D01*
X3677158Y-3341065D01*
G37*
G36*
X3590137Y-3556558D02*
G01*
X3549142Y-3557066D01*
X3544163Y-3562045D01*
X3544163Y-3677056D01*
X3549142Y-3682034D01*
X3677158Y-3682034D01*
X3682136Y-3677056D01*
X3682136Y-3562045D01*
X3677158Y-3557066D01*
X3635146Y-3557524D01*
X3635146Y-3601516D01*
X3590137Y-3601516D01*
G37*
G36*
X3307842Y-3341065D02*
G01*
X3302863Y-3346043D01*
X3302863Y-3461054D01*
X3307842Y-3466033D01*
X3349853Y-3465525D01*
X3349853Y-3421532D01*
X3394862Y-3421532D01*
X3394862Y-3466541D01*
X3435858Y-3466033D01*
X3440836Y-3461054D01*
X3440836Y-3346043D01*
X3435858Y-3341065D01*
G37*
G36*
X3348837Y-3556558D02*
G01*
X3307842Y-3557066D01*
X3302863Y-3562045D01*
X3302863Y-3677056D01*
X3307842Y-3682034D01*
X3435858Y-3682034D01*
X3440836Y-3677056D01*
X3440836Y-3562045D01*
X3435858Y-3557066D01*
X3393846Y-3557524D01*
X3393846Y-3601516D01*
X3348837Y-3601516D01*
G37*
G36*
X4127195Y-4083913D02*
G01*
X4122216Y-4088892D01*
X4122674Y-4130903D01*
X4166717Y-4130903D01*
X4166717Y-4175912D01*
X4121708Y-4175912D01*
X4122216Y-4216908D01*
X4127195Y-4221886D01*
X4242206Y-4221886D01*
X4247184Y-4216908D01*
X4247184Y-4088892D01*
X4242206Y-4083913D01*
G37*
G36*
X3911193Y-4083913D02*
G01*
X3906215Y-4088892D01*
X3906215Y-4216908D01*
X3911193Y-4221886D01*
X4026204Y-4221886D01*
X4031183Y-4216908D01*
X4030726Y-4174896D01*
X3986682Y-4174896D01*
X3986682Y-4129887D01*
X4031691Y-4129887D01*
X4031183Y-4088892D01*
X4026204Y-4083913D01*
G37*
G36*
X4127195Y-3842613D02*
G01*
X4122216Y-3847592D01*
X4122674Y-3889603D01*
X4166717Y-3889603D01*
X4166717Y-3934612D01*
X4121708Y-3934612D01*
X4122216Y-3975608D01*
X4127195Y-3980586D01*
X4242206Y-3980586D01*
X4247184Y-3975608D01*
X4247184Y-3847592D01*
X4242206Y-3842613D01*
G37*
G36*
X3911193Y-3842613D02*
G01*
X3906215Y-3847592D01*
X3906215Y-3975608D01*
X3911193Y-3980586D01*
X4026204Y-3980586D01*
X4031183Y-3975608D01*
X4030726Y-3933596D01*
X3986682Y-3933596D01*
X3986682Y-3888587D01*
X4031691Y-3888587D01*
X4031183Y-3847592D01*
X4026204Y-3842613D01*
G37*
G36*
X1714195Y-6077813D02*
G01*
X1709216Y-6082792D01*
X1709674Y-6124803D01*
X1753717Y-6124803D01*
X1753717Y-6169812D01*
X1708708Y-6169812D01*
X1709216Y-6210808D01*
X1714195Y-6215786D01*
X1829206Y-6215786D01*
X1834184Y-6210808D01*
X1834184Y-6082792D01*
X1829206Y-6077813D01*
G37*
G36*
X1498193Y-6077813D02*
G01*
X1493215Y-6082792D01*
X1493215Y-6210808D01*
X1498193Y-6215786D01*
X1613204Y-6215786D01*
X1618183Y-6210808D01*
X1617726Y-6168796D01*
X1573682Y-6168796D01*
X1573682Y-6123787D01*
X1618691Y-6123787D01*
X1618183Y-6082792D01*
X1613204Y-6077813D01*
G37*
G36*
X1714195Y-5849213D02*
G01*
X1709216Y-5854192D01*
X1709674Y-5896203D01*
X1753717Y-5896203D01*
X1753717Y-5941212D01*
X1708708Y-5941212D01*
X1709216Y-5982208D01*
X1714195Y-5987186D01*
X1829206Y-5987186D01*
X1834184Y-5982208D01*
X1834184Y-5854192D01*
X1829206Y-5849213D01*
G37*
G36*
X1498193Y-5849213D02*
G01*
X1493215Y-5854192D01*
X1493215Y-5982208D01*
X1498193Y-5987186D01*
X1613204Y-5987186D01*
X1618183Y-5982208D01*
X1617726Y-5940196D01*
X1573682Y-5940196D01*
X1573682Y-5895187D01*
X1618691Y-5895187D01*
X1618183Y-5854192D01*
X1613204Y-5849213D01*
G37*
G36*
X1714195Y-5595213D02*
G01*
X1709216Y-5600192D01*
X1709674Y-5642203D01*
X1753717Y-5642203D01*
X1753717Y-5687212D01*
X1708708Y-5687212D01*
X1709216Y-5728208D01*
X1714195Y-5733186D01*
X1829206Y-5733186D01*
X1834184Y-5728208D01*
X1834184Y-5600192D01*
X1829206Y-5595213D01*
G37*
G36*
X1498193Y-5595213D02*
G01*
X1493215Y-5600192D01*
X1493215Y-5728208D01*
X1498193Y-5733186D01*
X1613204Y-5733186D01*
X1618183Y-5728208D01*
X1617726Y-5686196D01*
X1573682Y-5686196D01*
X1573682Y-5641187D01*
X1618691Y-5641187D01*
X1618183Y-5600192D01*
X1613204Y-5595213D01*
G37*
G36*
X1498092Y-5163515D02*
G01*
X1493113Y-5168493D01*
X1493113Y-5283504D01*
X1498092Y-5288483D01*
X1540103Y-5288026D01*
X1540103Y-5243982D01*
X1585112Y-5243982D01*
X1585112Y-5288991D01*
X1626107Y-5288483D01*
X1631086Y-5283504D01*
X1631086Y-5168493D01*
X1626107Y-5163515D01*
G37*
G36*
X1539087Y-5379008D02*
G01*
X1498092Y-5379516D01*
X1493113Y-5384495D01*
X1493113Y-5499506D01*
X1498092Y-5504484D01*
X1626107Y-5504484D01*
X1631086Y-5499506D01*
X1631086Y-5384495D01*
X1626107Y-5379516D01*
X1584096Y-5379974D01*
X1584096Y-5424017D01*
X1539087Y-5424017D01*
G37*
G36*
X2018792Y-3881272D02*
G01*
X2013813Y-3886301D01*
X2013813Y-4001312D01*
X2018792Y-4006291D01*
X2060803Y-4005783D01*
X2060803Y-3961790D01*
X2105812Y-3961790D01*
X2105812Y-4006799D01*
X2146808Y-4006291D01*
X2151786Y-4001312D01*
X2151786Y-3886301D01*
X2146808Y-3881272D01*
G37*
G36*
X2018792Y-4096308D02*
G01*
X2013813Y-4101287D01*
X2013813Y-4216298D01*
X2018792Y-4221276D01*
X2146808Y-4221276D01*
X2151786Y-4216298D01*
X2151786Y-4101287D01*
X2146808Y-4096308D01*
X2105812Y-4096816D01*
X2105812Y-4140809D01*
X2060803Y-4140809D01*
X2060803Y-4096308D01*
G37*
G36*
X1602587Y-4095800D02*
G01*
X1561592Y-4096308D01*
X1556613Y-4101287D01*
X1556613Y-4216298D01*
X1561592Y-4221327D01*
X1689607Y-4221327D01*
X1694586Y-4216298D01*
X1694586Y-4101287D01*
X1689607Y-4096308D01*
X1647596Y-4096816D01*
X1647596Y-4140809D01*
X1602587Y-4140809D01*
G37*
G36*
X1561592Y-3881323D02*
G01*
X1556613Y-3886301D01*
X1556613Y-4001312D01*
X1561592Y-4006291D01*
X1602587Y-4005783D01*
X1602587Y-3961790D01*
X1647596Y-3961790D01*
X1647596Y-4006291D01*
X1689607Y-4006291D01*
X1694586Y-4001312D01*
X1694586Y-3886301D01*
X1689607Y-3881323D01*
G37*
G36*
X1053287Y-5341213D02*
G01*
X1048308Y-5346192D01*
X1048816Y-5388203D01*
X1092809Y-5388203D01*
X1092809Y-5433212D01*
X1047800Y-5433212D01*
X1048308Y-5474208D01*
X1053287Y-5479186D01*
X1168298Y-5479186D01*
X1173327Y-5474208D01*
X1173327Y-5346192D01*
X1168298Y-5341213D01*
G37*
G36*
X838301Y-5341213D02*
G01*
X833323Y-5346192D01*
X833323Y-5474208D01*
X838301Y-5479186D01*
X953312Y-5479186D01*
X958291Y-5474208D01*
X957783Y-5433212D01*
X913790Y-5433212D01*
X913790Y-5388203D01*
X958291Y-5388203D01*
X958291Y-5346192D01*
X953312Y-5341213D01*
G37*
G36*
X3088487Y-5823000D02*
G01*
X3047492Y-5823508D01*
X3042513Y-5828487D01*
X3042513Y-5943498D01*
X3047492Y-5948527D01*
X3175508Y-5948527D01*
X3180486Y-5943498D01*
X3180486Y-5828487D01*
X3175508Y-5823508D01*
X3133496Y-5824016D01*
X3133496Y-5868009D01*
X3088487Y-5868009D01*
G37*
G36*
X3047492Y-5608523D02*
G01*
X3042513Y-5613501D01*
X3042513Y-5728512D01*
X3047492Y-5733491D01*
X3088487Y-5732983D01*
X3088487Y-5688990D01*
X3133496Y-5688990D01*
X3133496Y-5733491D01*
X3175508Y-5733491D01*
X3180486Y-5728512D01*
X3180486Y-5613501D01*
X3175508Y-5608523D01*
G37*
G36*
X5029301Y-6230213D02*
G01*
X5024272Y-6235192D01*
X5024272Y-6363208D01*
X5029301Y-6368186D01*
X5144312Y-6368186D01*
X5149291Y-6363208D01*
X5148783Y-6321196D01*
X5104790Y-6321196D01*
X5104790Y-6276187D01*
X5149799Y-6276187D01*
X5149291Y-6235192D01*
X5144312Y-6230213D01*
G37*
G36*
X5244287Y-6230213D02*
G01*
X5239308Y-6235192D01*
X5239816Y-6276187D01*
X5283809Y-6276187D01*
X5283809Y-6321196D01*
X5239308Y-6321196D01*
X5239308Y-6363208D01*
X5244287Y-6368186D01*
X5359298Y-6368186D01*
X5364276Y-6363208D01*
X5364276Y-6235192D01*
X5359298Y-6230213D01*
G37*
G36*
X865987Y-4019600D02*
G01*
X824992Y-4020108D01*
X820013Y-4025087D01*
X820013Y-4140098D01*
X824992Y-4145127D01*
X953008Y-4145127D01*
X957986Y-4140098D01*
X957986Y-4025087D01*
X953008Y-4020108D01*
X910996Y-4020616D01*
X910996Y-4064609D01*
X865987Y-4064609D01*
G37*
G36*
X824992Y-3805123D02*
G01*
X820013Y-3810101D01*
X820013Y-3925112D01*
X824992Y-3930091D01*
X865987Y-3929583D01*
X865987Y-3885590D01*
X910996Y-3885590D01*
X910996Y-3930091D01*
X953008Y-3930091D01*
X957986Y-3925112D01*
X957986Y-3810101D01*
X953008Y-3805123D01*
G37*
G36*
X825601Y-6103213D02*
G01*
X820572Y-6108192D01*
X820572Y-6236208D01*
X825601Y-6241186D01*
X940612Y-6241186D01*
X945591Y-6236208D01*
X945083Y-6194196D01*
X901090Y-6194196D01*
X901090Y-6149187D01*
X946099Y-6149187D01*
X945591Y-6108192D01*
X940612Y-6103213D01*
G37*
G36*
X1040587Y-6103213D02*
G01*
X1035608Y-6108192D01*
X1036116Y-6149187D01*
X1080109Y-6149187D01*
X1080109Y-6194196D01*
X1035608Y-6194196D01*
X1035608Y-6236208D01*
X1040587Y-6241186D01*
X1155598Y-6241186D01*
X1160576Y-6236208D01*
X1160576Y-6108192D01*
X1155598Y-6103213D01*
G37*
G36*
X5409692Y-4821072D02*
G01*
X5404713Y-4826101D01*
X5404713Y-4941112D01*
X5409692Y-4946091D01*
X5451703Y-4945583D01*
X5451703Y-4901590D01*
X5496712Y-4901590D01*
X5496712Y-4946599D01*
X5537708Y-4946091D01*
X5542686Y-4941112D01*
X5542686Y-4826101D01*
X5537708Y-4821072D01*
G37*
G36*
X5409692Y-5036108D02*
G01*
X5404713Y-5041087D01*
X5404713Y-5156098D01*
X5409692Y-5161076D01*
X5537708Y-5161076D01*
X5542686Y-5156098D01*
X5542686Y-5041087D01*
X5537708Y-5036108D01*
X5496712Y-5036616D01*
X5496712Y-5080609D01*
X5451703Y-5080609D01*
X5451703Y-5036108D01*
G37*
G36*
X3301492Y-5608472D02*
G01*
X3296513Y-5613501D01*
X3296513Y-5728512D01*
X3301492Y-5733491D01*
X3343503Y-5732983D01*
X3343503Y-5688990D01*
X3388512Y-5688990D01*
X3388512Y-5733999D01*
X3429508Y-5733491D01*
X3434486Y-5728512D01*
X3434486Y-5613501D01*
X3429508Y-5608472D01*
G37*
G36*
X3301492Y-5823508D02*
G01*
X3296513Y-5828487D01*
X3296513Y-5943498D01*
X3301492Y-5948476D01*
X3429508Y-5948476D01*
X3434486Y-5943498D01*
X3434486Y-5828487D01*
X3429508Y-5823508D01*
X3388512Y-5824016D01*
X3388512Y-5868009D01*
X3343503Y-5868009D01*
X3343503Y-5823508D01*
G37*
G36*
X1500987Y-1568500D02*
G01*
X1459992Y-1569008D01*
X1455013Y-1573987D01*
X1455013Y-1688998D01*
X1459992Y-1694027D01*
X1588008Y-1694027D01*
X1592986Y-1688998D01*
X1592986Y-1573987D01*
X1588008Y-1569008D01*
X1545996Y-1569516D01*
X1545996Y-1613509D01*
X1500987Y-1613509D01*
G37*
G36*
X1459992Y-1354023D02*
G01*
X1455013Y-1359001D01*
X1455013Y-1474012D01*
X1459992Y-1478991D01*
X1500987Y-1478483D01*
X1500987Y-1434490D01*
X1545996Y-1434490D01*
X1545996Y-1478991D01*
X1588008Y-1478991D01*
X1592986Y-1474012D01*
X1592986Y-1359001D01*
X1588008Y-1354023D01*
G37*
G36*
X5524601Y-6103213D02*
G01*
X5519572Y-6108192D01*
X5519572Y-6236208D01*
X5524601Y-6241186D01*
X5639612Y-6241186D01*
X5644591Y-6236208D01*
X5644083Y-6194196D01*
X5600090Y-6194196D01*
X5600090Y-6149187D01*
X5645099Y-6149187D01*
X5644591Y-6108192D01*
X5639612Y-6103213D01*
G37*
G36*
X5739587Y-6103213D02*
G01*
X5734608Y-6108192D01*
X5735116Y-6149187D01*
X5779109Y-6149187D01*
X5779109Y-6194196D01*
X5734608Y-6194196D01*
X5734608Y-6236208D01*
X5739587Y-6241186D01*
X5854598Y-6241186D01*
X5859576Y-6236208D01*
X5859576Y-6108192D01*
X5854598Y-6103213D01*
G37*
G36*
X1742287Y-1568500D02*
G01*
X1701292Y-1569008D01*
X1696313Y-1573987D01*
X1696313Y-1688998D01*
X1701292Y-1694027D01*
X1829307Y-1694027D01*
X1834286Y-1688998D01*
X1834286Y-1573987D01*
X1829307Y-1569008D01*
X1787296Y-1569516D01*
X1787296Y-1613509D01*
X1742287Y-1613509D01*
G37*
G36*
X1701292Y-1354023D02*
G01*
X1696313Y-1359001D01*
X1696313Y-1474012D01*
X1701292Y-1478991D01*
X1742287Y-1478483D01*
X1742287Y-1434490D01*
X1787296Y-1434490D01*
X1787296Y-1478991D01*
X1829307Y-1478991D01*
X1834286Y-1474012D01*
X1834286Y-1359001D01*
X1829307Y-1354023D01*
G37*
G36*
X5029301Y-6014313D02*
G01*
X5024272Y-6019292D01*
X5024272Y-6147308D01*
X5029301Y-6152286D01*
X5144312Y-6152286D01*
X5149291Y-6147308D01*
X5148783Y-6105296D01*
X5104790Y-6105296D01*
X5104790Y-6060287D01*
X5149799Y-6060287D01*
X5149291Y-6019292D01*
X5144312Y-6014313D01*
G37*
G36*
X5244287Y-6014313D02*
G01*
X5239308Y-6019292D01*
X5239816Y-6060287D01*
X5283809Y-6060287D01*
X5283809Y-6105296D01*
X5239308Y-6105296D01*
X5239308Y-6147308D01*
X5244287Y-6152286D01*
X5359298Y-6152286D01*
X5364276Y-6147308D01*
X5364276Y-6019292D01*
X5359298Y-6014313D01*
G37*
G36*
X2700528Y-699211D02*
G01*
X2659532Y-699668D01*
X2654503Y-704697D01*
X2654503Y-819708D01*
X2659532Y-824687D01*
X2787497Y-824687D01*
X2792526Y-819708D01*
X2792526Y-704697D01*
X2787497Y-699668D01*
X2745536Y-700176D01*
X2745536Y-744169D01*
X2700528Y-744169D01*
G37*
G36*
X2659532Y-484682D02*
G01*
X2654503Y-489712D01*
X2654503Y-604672D01*
X2659532Y-609701D01*
X2700528Y-609193D01*
X2700528Y-565200D01*
X2745536Y-565200D01*
X2745536Y-609701D01*
X2787497Y-609701D01*
X2792526Y-604672D01*
X2792526Y-489712D01*
X2787497Y-484682D01*
G37*
G36*
X4424832Y-484682D02*
G01*
X4419803Y-489661D01*
X4419803Y-604672D01*
X4424832Y-609701D01*
X4466793Y-609193D01*
X4466793Y-565200D01*
X4511802Y-565200D01*
X4511802Y-610209D01*
X4552797Y-609701D01*
X4557826Y-604672D01*
X4557826Y-489661D01*
X4552797Y-484682D01*
G37*
G36*
X4424832Y-699668D02*
G01*
X4419803Y-704697D01*
X4419803Y-819708D01*
X4424832Y-824687D01*
X4552797Y-824687D01*
X4557826Y-819708D01*
X4557826Y-704697D01*
X4552797Y-699668D01*
X4511802Y-700176D01*
X4511802Y-744169D01*
X4466793Y-744169D01*
X4466793Y-699668D01*
G37*
G36*
X787501Y-1531213D02*
G01*
X782472Y-1536192D01*
X782472Y-1664207D01*
X787501Y-1669186D01*
X902512Y-1669186D01*
X907491Y-1664207D01*
X906983Y-1622196D01*
X862990Y-1622196D01*
X862990Y-1577187D01*
X907999Y-1577187D01*
X907491Y-1536192D01*
X902512Y-1531213D01*
G37*
G36*
X1002487Y-1531213D02*
G01*
X997508Y-1536192D01*
X998016Y-1577187D01*
X1042009Y-1577187D01*
X1042009Y-1622196D01*
X997508Y-1622196D01*
X997508Y-1664207D01*
X1002487Y-1669186D01*
X1117498Y-1669186D01*
X1122476Y-1664207D01*
X1122476Y-1536192D01*
X1117498Y-1531213D01*
G37*
G36*
X2275687Y-4095800D02*
G01*
X2234692Y-4096308D01*
X2229713Y-4101287D01*
X2229713Y-4216298D01*
X2234692Y-4221327D01*
X2362708Y-4221327D01*
X2367686Y-4216298D01*
X2367686Y-4101287D01*
X2362708Y-4096308D01*
X2320696Y-4096816D01*
X2320696Y-4140809D01*
X2275687Y-4140809D01*
G37*
G36*
X2234692Y-3881323D02*
G01*
X2229713Y-3886301D01*
X2229713Y-4001312D01*
X2234692Y-4006291D01*
X2275687Y-4005783D01*
X2275687Y-3961790D01*
X2320696Y-3961790D01*
X2320696Y-4006291D01*
X2362708Y-4006291D01*
X2367686Y-4001312D01*
X2367686Y-3886301D01*
X2362708Y-3881323D01*
G37*
G36*
X1790192Y-3881272D02*
G01*
X1785213Y-3886301D01*
X1785213Y-4001312D01*
X1790192Y-4006291D01*
X1832203Y-4005783D01*
X1832203Y-3961790D01*
X1877212Y-3961790D01*
X1877212Y-4006799D01*
X1918207Y-4006291D01*
X1923186Y-4001312D01*
X1923186Y-3886301D01*
X1918207Y-3881272D01*
G37*
G36*
X1790192Y-4096308D02*
G01*
X1785213Y-4101287D01*
X1785213Y-4216298D01*
X1790192Y-4221276D01*
X1918207Y-4221276D01*
X1923186Y-4216298D01*
X1923186Y-4101287D01*
X1918207Y-4096308D01*
X1877212Y-4096816D01*
X1877212Y-4140809D01*
X1832203Y-4140809D01*
X1832203Y-4096308D01*
G37*
G36*
X2504287Y-4095800D02*
G01*
X2463292Y-4096308D01*
X2458313Y-4101287D01*
X2458313Y-4216298D01*
X2463292Y-4221327D01*
X2591308Y-4221327D01*
X2596286Y-4216298D01*
X2596286Y-4101287D01*
X2591308Y-4096308D01*
X2549296Y-4096816D01*
X2549296Y-4140809D01*
X2504287Y-4140809D01*
G37*
G36*
X2463292Y-3881323D02*
G01*
X2458313Y-3886301D01*
X2458313Y-4001312D01*
X2463292Y-4006291D01*
X2504287Y-4005783D01*
X2504287Y-3961790D01*
X2549296Y-3961790D01*
X2549296Y-4006291D01*
X2591308Y-4006291D01*
X2596286Y-4001312D01*
X2596286Y-3886301D01*
X2591308Y-3881323D01*
G37*
G36*
X3949801Y-2026513D02*
G01*
X3944772Y-2031492D01*
X3944772Y-2159508D01*
X3949801Y-2164486D01*
X4064812Y-2164486D01*
X4069791Y-2159508D01*
X4069283Y-2117496D01*
X4025290Y-2117496D01*
X4025290Y-2072487D01*
X4070299Y-2072487D01*
X4069791Y-2031492D01*
X4064812Y-2026513D01*
G37*
G36*
X4164787Y-2026513D02*
G01*
X4159808Y-2031492D01*
X4160316Y-2072487D01*
X4204309Y-2072487D01*
X4204309Y-2117496D01*
X4159808Y-2117496D01*
X4159808Y-2159508D01*
X4164787Y-2164486D01*
X4279798Y-2164486D01*
X4284776Y-2159508D01*
X4284776Y-2031492D01*
X4279798Y-2026513D01*
G37*
G36*
X3949801Y-2267813D02*
G01*
X3944772Y-2272792D01*
X3944772Y-2400808D01*
X3949801Y-2405786D01*
X4064812Y-2405786D01*
X4069791Y-2400808D01*
X4069283Y-2358796D01*
X4025290Y-2358796D01*
X4025290Y-2313787D01*
X4070299Y-2313787D01*
X4069791Y-2272792D01*
X4064812Y-2267813D01*
G37*
G36*
X4164787Y-2267813D02*
G01*
X4159808Y-2272792D01*
X4160316Y-2313787D01*
X4204309Y-2313787D01*
X4204309Y-2358796D01*
X4159808Y-2358796D01*
X4159808Y-2400808D01*
X4164787Y-2405786D01*
X4279798Y-2405786D01*
X4284776Y-2400808D01*
X4284776Y-2272792D01*
X4279798Y-2267813D01*
G37*
G36*
X3568192Y-4998872D02*
G01*
X3563213Y-5003901D01*
X3563213Y-5118912D01*
X3568192Y-5123891D01*
X3610203Y-5123383D01*
X3610203Y-5079390D01*
X3655212Y-5079390D01*
X3655212Y-5124399D01*
X3696208Y-5123891D01*
X3701186Y-5118912D01*
X3701186Y-5003901D01*
X3696208Y-4998872D01*
G37*
G36*
X3568192Y-5213908D02*
G01*
X3563213Y-5218887D01*
X3563213Y-5333898D01*
X3568192Y-5338876D01*
X3696208Y-5338876D01*
X3701186Y-5333898D01*
X3701186Y-5218887D01*
X3696208Y-5213908D01*
X3655212Y-5214416D01*
X3655212Y-5258409D01*
X3610203Y-5258409D01*
X3610203Y-5213908D01*
G37*
G36*
X3110992Y-1785772D02*
G01*
X3106013Y-1790801D01*
X3106013Y-1905812D01*
X3110992Y-1910791D01*
X3153003Y-1910283D01*
X3153003Y-1866290D01*
X3198012Y-1866290D01*
X3198012Y-1911299D01*
X3239008Y-1910791D01*
X3243986Y-1905812D01*
X3243986Y-1790801D01*
X3239008Y-1785772D01*
G37*
G36*
X3110992Y-2000808D02*
G01*
X3106013Y-2005787D01*
X3106013Y-2120798D01*
X3110992Y-2125776D01*
X3239008Y-2125776D01*
X3243986Y-2120798D01*
X3243986Y-2005787D01*
X3239008Y-2000808D01*
X3198012Y-2001316D01*
X3198012Y-2045309D01*
X3153003Y-2045309D01*
X3153003Y-2000808D01*
G37*
G36*
X3088487Y-5403900D02*
G01*
X3047492Y-5404408D01*
X3042513Y-5409387D01*
X3042513Y-5524398D01*
X3047492Y-5529427D01*
X3175508Y-5529427D01*
X3180486Y-5524398D01*
X3180486Y-5409387D01*
X3175508Y-5404408D01*
X3133496Y-5404916D01*
X3133496Y-5448909D01*
X3088487Y-5448909D01*
G37*
G36*
X3047492Y-5189423D02*
G01*
X3042513Y-5194401D01*
X3042513Y-5309412D01*
X3047492Y-5314391D01*
X3088487Y-5313883D01*
X3088487Y-5269890D01*
X3133496Y-5269890D01*
X3133496Y-5314391D01*
X3175508Y-5314391D01*
X3180486Y-5309412D01*
X3180486Y-5194401D01*
X3175508Y-5189423D01*
G37*
G36*
X3821887Y-5633313D02*
G01*
X3816908Y-5638292D01*
X3817416Y-5680303D01*
X3861409Y-5680303D01*
X3861409Y-5725312D01*
X3816400Y-5725312D01*
X3816908Y-5766308D01*
X3821887Y-5771286D01*
X3936898Y-5771286D01*
X3941927Y-5766308D01*
X3941927Y-5638292D01*
X3936898Y-5633313D01*
G37*
G36*
X3606901Y-5633313D02*
G01*
X3601923Y-5638292D01*
X3601923Y-5766308D01*
X3606901Y-5771286D01*
X3721912Y-5771286D01*
X3726891Y-5766308D01*
X3726383Y-5725312D01*
X3682390Y-5725312D01*
X3682390Y-5680303D01*
X3726891Y-5680303D01*
X3726891Y-5638292D01*
X3721912Y-5633313D01*
G37*
G36*
X2882392Y-1607972D02*
G01*
X2877413Y-1613001D01*
X2877413Y-1728012D01*
X2882392Y-1732991D01*
X2924403Y-1732483D01*
X2924403Y-1688490D01*
X2969412Y-1688490D01*
X2969412Y-1733499D01*
X3010408Y-1732991D01*
X3015386Y-1728012D01*
X3015386Y-1613001D01*
X3010408Y-1607972D01*
G37*
G36*
X2882392Y-1823008D02*
G01*
X2877413Y-1827987D01*
X2877413Y-1942998D01*
X2882392Y-1947976D01*
X3010408Y-1947976D01*
X3015386Y-1942998D01*
X3015386Y-1827987D01*
X3010408Y-1823008D01*
X2969412Y-1823516D01*
X2969412Y-1867509D01*
X2924403Y-1867509D01*
X2924403Y-1823008D01*
G37*
G36*
X3606901Y-5417413D02*
G01*
X3601872Y-5422392D01*
X3601872Y-5550408D01*
X3606901Y-5555386D01*
X3721912Y-5555386D01*
X3726891Y-5550408D01*
X3726383Y-5508396D01*
X3682390Y-5508396D01*
X3682390Y-5463387D01*
X3727399Y-5463387D01*
X3726891Y-5422392D01*
X3721912Y-5417413D01*
G37*
G36*
X3821887Y-5417413D02*
G01*
X3816908Y-5422392D01*
X3817416Y-5463387D01*
X3861409Y-5463387D01*
X3861409Y-5508396D01*
X3816908Y-5508396D01*
X3816908Y-5550408D01*
X3821887Y-5555386D01*
X3936898Y-5555386D01*
X3941876Y-5550408D01*
X3941876Y-5422392D01*
X3936898Y-5417413D01*
G37*
G36*
X2323592Y-2154072D02*
G01*
X2318613Y-2159101D01*
X2318613Y-2274112D01*
X2323592Y-2279091D01*
X2365603Y-2278583D01*
X2365603Y-2234590D01*
X2410612Y-2234590D01*
X2410612Y-2279599D01*
X2451608Y-2279091D01*
X2456586Y-2274112D01*
X2456586Y-2159101D01*
X2451608Y-2154072D01*
G37*
G36*
X2323592Y-2369108D02*
G01*
X2318613Y-2374087D01*
X2318613Y-2489098D01*
X2323592Y-2494076D01*
X2451608Y-2494076D01*
X2456586Y-2489098D01*
X2456586Y-2374087D01*
X2451608Y-2369108D01*
X2410612Y-2369616D01*
X2410612Y-2413609D01*
X2365603Y-2413609D01*
X2365603Y-2369108D01*
G37*
G36*
X1016101Y-6623913D02*
G01*
X1011072Y-6628892D01*
X1011072Y-6756908D01*
X1016101Y-6761886D01*
X1131112Y-6761886D01*
X1136091Y-6756908D01*
X1135583Y-6714896D01*
X1091590Y-6714896D01*
X1091590Y-6669887D01*
X1136599Y-6669887D01*
X1136091Y-6628892D01*
X1131112Y-6623913D01*
G37*
G36*
X1231087Y-6623913D02*
G01*
X1226108Y-6628892D01*
X1226616Y-6669887D01*
X1270609Y-6669887D01*
X1270609Y-6714896D01*
X1226108Y-6714896D01*
X1226108Y-6756908D01*
X1231087Y-6761886D01*
X1346098Y-6761886D01*
X1351076Y-6756908D01*
X1351076Y-6628892D01*
X1346098Y-6623913D01*
G37*
G36*
X2593187Y-2368600D02*
G01*
X2552192Y-2369108D01*
X2547213Y-2374087D01*
X2547213Y-2489098D01*
X2552192Y-2494127D01*
X2680208Y-2494127D01*
X2685186Y-2489098D01*
X2685186Y-2374087D01*
X2680208Y-2369108D01*
X2638196Y-2369616D01*
X2638196Y-2413609D01*
X2593187Y-2413609D01*
G37*
G36*
X2552192Y-2154123D02*
G01*
X2547213Y-2159101D01*
X2547213Y-2274112D01*
X2552192Y-2279091D01*
X2593187Y-2278583D01*
X2593187Y-2234590D01*
X2638196Y-2234590D01*
X2638196Y-2279091D01*
X2680208Y-2279091D01*
X2685186Y-2274112D01*
X2685186Y-2159101D01*
X2680208Y-2154123D01*
G37*
G36*
X2132787Y-5849213D02*
G01*
X2127808Y-5854192D01*
X2128316Y-5896203D01*
X2172309Y-5896203D01*
X2172309Y-5941212D01*
X2127300Y-5941212D01*
X2127808Y-5982208D01*
X2132787Y-5987186D01*
X2247798Y-5987186D01*
X2252827Y-5982208D01*
X2252827Y-5854192D01*
X2247798Y-5849213D01*
G37*
G36*
X1917801Y-5849213D02*
G01*
X1912823Y-5854192D01*
X1912823Y-5982208D01*
X1917801Y-5987186D01*
X2032812Y-5987186D01*
X2037791Y-5982208D01*
X2037283Y-5941212D01*
X1993290Y-5941212D01*
X1993290Y-5896203D01*
X2037791Y-5896203D01*
X2037791Y-5854192D01*
X2032812Y-5849213D01*
G37*
G36*
X2132787Y-6077813D02*
G01*
X2127808Y-6082792D01*
X2128316Y-6124803D01*
X2172309Y-6124803D01*
X2172309Y-6169812D01*
X2127300Y-6169812D01*
X2127808Y-6210808D01*
X2132787Y-6215786D01*
X2247798Y-6215786D01*
X2252827Y-6210808D01*
X2252827Y-6082792D01*
X2247798Y-6077813D01*
G37*
G36*
X1917801Y-6077813D02*
G01*
X1912823Y-6082792D01*
X1912823Y-6210808D01*
X1917801Y-6215786D01*
X2032812Y-6215786D01*
X2037791Y-6210808D01*
X2037283Y-6169812D01*
X1993290Y-6169812D01*
X1993290Y-6124803D01*
X2037791Y-6124803D01*
X2037791Y-6082792D01*
X2032812Y-6077813D01*
G37*
G36*
X1761642Y-5368544D02*
G01*
X1720596Y-5369052D01*
X1715617Y-5374081D01*
X1715617Y-5489041D01*
X1720596Y-5494070D01*
X1848612Y-5494070D01*
X1853590Y-5489041D01*
X1853590Y-5374081D01*
X1848612Y-5369052D01*
X1806600Y-5369560D01*
X1806600Y-5413552D01*
X1761642Y-5413552D01*
G37*
G36*
X1720596Y-5154066D02*
G01*
X1715617Y-5159044D01*
X1715617Y-5274056D01*
X1720596Y-5279085D01*
X1761642Y-5278577D01*
X1761642Y-5234584D01*
X1806600Y-5234584D01*
X1806600Y-5279085D01*
X1848612Y-5279085D01*
X1853590Y-5274056D01*
X1853590Y-5159044D01*
X1848612Y-5154066D01*
G37*
G36*
X1498701Y-4934813D02*
G01*
X1493672Y-4939792D01*
X1493672Y-5067808D01*
X1498701Y-5072786D01*
X1613712Y-5072786D01*
X1618691Y-5067808D01*
X1618183Y-5025796D01*
X1574190Y-5025796D01*
X1574190Y-4980787D01*
X1619199Y-4980787D01*
X1618691Y-4939792D01*
X1613712Y-4934813D01*
G37*
G36*
X1713687Y-4934813D02*
G01*
X1708708Y-4939792D01*
X1709216Y-4980787D01*
X1753209Y-4980787D01*
X1753209Y-5025796D01*
X1708708Y-5025796D01*
X1708708Y-5067808D01*
X1713687Y-5072786D01*
X1828698Y-5072786D01*
X1833676Y-5067808D01*
X1833676Y-4939792D01*
X1828698Y-4934813D01*
G37*
G36*
X5298795Y-5834583D02*
G01*
X5293817Y-5841593D01*
X5293817Y-5889599D01*
X5298795Y-5894578D01*
X5343804Y-5894578D01*
X5348782Y-5889599D01*
X5348782Y-5841593D01*
X5343804Y-5834583D01*
G37*
G36*
X5298795Y-5738622D02*
G01*
X5293817Y-5743600D01*
X5293817Y-5791606D01*
X5298795Y-5798616D01*
X5343804Y-5798616D01*
X5348782Y-5791606D01*
X5348782Y-5743600D01*
X5343804Y-5738622D01*
G37*
G36*
X1197000Y-3922217D02*
G01*
X1192022Y-3927195D01*
X1192022Y-3972204D01*
X1197000Y-3977182D01*
X1245006Y-3977182D01*
X1252016Y-3972204D01*
X1252016Y-3927195D01*
X1245006Y-3922217D01*
G37*
G36*
X1294993Y-3922217D02*
G01*
X1287983Y-3927195D01*
X1287983Y-3972204D01*
X1294993Y-3977182D01*
X1342999Y-3977182D01*
X1347978Y-3972204D01*
X1347978Y-3927195D01*
X1342999Y-3922217D01*
G37*
G36*
X1197000Y-4074617D02*
G01*
X1192022Y-4079595D01*
X1192022Y-4124604D01*
X1197000Y-4129582D01*
X1245006Y-4129582D01*
X1252016Y-4124604D01*
X1252016Y-4079595D01*
X1245006Y-4074617D01*
G37*
G36*
X1294993Y-4074617D02*
G01*
X1287983Y-4079595D01*
X1287983Y-4124604D01*
X1294993Y-4129582D01*
X1342999Y-4129582D01*
X1347978Y-4124604D01*
X1347978Y-4079595D01*
X1342999Y-4074617D01*
G37*
G36*
X5612993Y-5331917D02*
G01*
X5605983Y-5336895D01*
X5605983Y-5381904D01*
X5612993Y-5386882D01*
X5660999Y-5386882D01*
X5665978Y-5381904D01*
X5665978Y-5336895D01*
X5660999Y-5331917D01*
G37*
G36*
X5515000Y-5331917D02*
G01*
X5510022Y-5336895D01*
X5510022Y-5381904D01*
X5515000Y-5386882D01*
X5563006Y-5386882D01*
X5570016Y-5381904D01*
X5570016Y-5336895D01*
X5563006Y-5331917D01*
G37*
G36*
X5614517Y-5479491D02*
G01*
X5607507Y-5484469D01*
X5607507Y-5529478D01*
X5614517Y-5534456D01*
X5662523Y-5534456D01*
X5667502Y-5529478D01*
X5667502Y-5484469D01*
X5662523Y-5479491D01*
G37*
G36*
X5516524Y-5479491D02*
G01*
X5511495Y-5484469D01*
X5511495Y-5529478D01*
X5516524Y-5534456D01*
X5564479Y-5534456D01*
X5571490Y-5529478D01*
X5571490Y-5484469D01*
X5564479Y-5479491D01*
G37*
G36*
X180695Y-3757422D02*
G01*
X175717Y-3762400D01*
X175717Y-3810406D01*
X180695Y-3817416D01*
X225704Y-3817416D01*
X230682Y-3810406D01*
X230682Y-3762400D01*
X225704Y-3757422D01*
G37*
G36*
X180695Y-3853383D02*
G01*
X175717Y-3860393D01*
X175717Y-3908399D01*
X180695Y-3913378D01*
X225704Y-3913378D01*
X230682Y-3908399D01*
X230682Y-3860393D01*
X225704Y-3853383D01*
G37*
G36*
X5247995Y-5567883D02*
G01*
X5243017Y-5574893D01*
X5243017Y-5622899D01*
X5247995Y-5627878D01*
X5293004Y-5627878D01*
X5297982Y-5622899D01*
X5297982Y-5574893D01*
X5293004Y-5567883D01*
G37*
G36*
X5247995Y-5471922D02*
G01*
X5243017Y-5476900D01*
X5243017Y-5524906D01*
X5247995Y-5531916D01*
X5293004Y-5531916D01*
X5297982Y-5524906D01*
X5297982Y-5476900D01*
X5293004Y-5471922D01*
G37*
G36*
X5120995Y-5567883D02*
G01*
X5116017Y-5574893D01*
X5116017Y-5622899D01*
X5120995Y-5627878D01*
X5166004Y-5627878D01*
X5170982Y-5622899D01*
X5170982Y-5574893D01*
X5166004Y-5567883D01*
G37*
G36*
X5120995Y-5471922D02*
G01*
X5116017Y-5476900D01*
X5116017Y-5524906D01*
X5120995Y-5531916D01*
X5166004Y-5531916D01*
X5170982Y-5524906D01*
X5170982Y-5476900D01*
X5166004Y-5471922D01*
G37*
G36*
X1044295Y-3922522D02*
G01*
X1039317Y-3927500D01*
X1039317Y-3975506D01*
X1044295Y-3982516D01*
X1089304Y-3982516D01*
X1094282Y-3975506D01*
X1094282Y-3927500D01*
X1089304Y-3922522D01*
G37*
G36*
X1044295Y-4018483D02*
G01*
X1039317Y-4025493D01*
X1039317Y-4073499D01*
X1044295Y-4078478D01*
X1089304Y-4078478D01*
X1094282Y-4073499D01*
X1094282Y-4025493D01*
X1089304Y-4018483D01*
G37*
G36*
X346100Y-6170117D02*
G01*
X341122Y-6175095D01*
X341122Y-6220104D01*
X346100Y-6225082D01*
X394106Y-6225082D01*
X401116Y-6220104D01*
X401116Y-6175095D01*
X394106Y-6170117D01*
G37*
G36*
X444093Y-6170117D02*
G01*
X437083Y-6175095D01*
X437083Y-6220104D01*
X444093Y-6225082D01*
X492099Y-6225082D01*
X497078Y-6220104D01*
X497078Y-6175095D01*
X492099Y-6170117D01*
G37*
G36*
X4156100Y-5370017D02*
G01*
X4151122Y-5374995D01*
X4151122Y-5420004D01*
X4156100Y-5424982D01*
X4204106Y-5424982D01*
X4211116Y-5420004D01*
X4211116Y-5374995D01*
X4204106Y-5370017D01*
G37*
G36*
X4254093Y-5370017D02*
G01*
X4247083Y-5374995D01*
X4247083Y-5420004D01*
X4254093Y-5424982D01*
X4302099Y-5424982D01*
X4307078Y-5420004D01*
X4307078Y-5374995D01*
X4302099Y-5370017D01*
G37*
G36*
X2733395Y-2367483D02*
G01*
X2728417Y-2374493D01*
X2728417Y-2422499D01*
X2733395Y-2427478D01*
X2778404Y-2427478D01*
X2783382Y-2422499D01*
X2783382Y-2374493D01*
X2778404Y-2367483D01*
G37*
G36*
X2733395Y-2271522D02*
G01*
X2728417Y-2276500D01*
X2728417Y-2324506D01*
X2733395Y-2331516D01*
X2778404Y-2331516D01*
X2783382Y-2324506D01*
X2783382Y-2276500D01*
X2778404Y-2271522D01*
G37*
G36*
X4536795Y-5306771D02*
G01*
X4531817Y-5311800D01*
X4531817Y-5359806D01*
X4536795Y-5366816D01*
X4581804Y-5366816D01*
X4586782Y-5359806D01*
X4586782Y-5311800D01*
X4581804Y-5306771D01*
G37*
G36*
X4536795Y-5402783D02*
G01*
X4531817Y-5409793D01*
X4531817Y-5457799D01*
X4536795Y-5462778D01*
X4581804Y-5462778D01*
X4586782Y-5457799D01*
X4586782Y-5409793D01*
X4581804Y-5402783D01*
G37*
G36*
X4663795Y-5306771D02*
G01*
X4658817Y-5311800D01*
X4658817Y-5359806D01*
X4663795Y-5366816D01*
X4708804Y-5366816D01*
X4713782Y-5359806D01*
X4713782Y-5311800D01*
X4708804Y-5306771D01*
G37*
G36*
X4663795Y-5402783D02*
G01*
X4658817Y-5409793D01*
X4658817Y-5457799D01*
X4663795Y-5462778D01*
X4708804Y-5462778D01*
X4713782Y-5457799D01*
X4713782Y-5409793D01*
X4708804Y-5402783D01*
G37*
G36*
X4676495Y-5669483D02*
G01*
X4671517Y-5676493D01*
X4671517Y-5724499D01*
X4676495Y-5729478D01*
X4721504Y-5729478D01*
X4726482Y-5724499D01*
X4726482Y-5676493D01*
X4721504Y-5669483D01*
G37*
G36*
X4676495Y-5573522D02*
G01*
X4671517Y-5578500D01*
X4671517Y-5626506D01*
X4676495Y-5633516D01*
X4721504Y-5633516D01*
X4726482Y-5626506D01*
X4726482Y-5578500D01*
X4721504Y-5573522D01*
G37*
G36*
X4536795Y-5669483D02*
G01*
X4531817Y-5676493D01*
X4531817Y-5724499D01*
X4536795Y-5729478D01*
X4581804Y-5729478D01*
X4586782Y-5724499D01*
X4586782Y-5676493D01*
X4581804Y-5669483D01*
G37*
G36*
X4536795Y-5573522D02*
G01*
X4531817Y-5578500D01*
X4531817Y-5626506D01*
X4536795Y-5633516D01*
X4581804Y-5633516D01*
X4586782Y-5626506D01*
X4586782Y-5578500D01*
X4581804Y-5573522D01*
G37*
G36*
X6146393Y-5331917D02*
G01*
X6139383Y-5336895D01*
X6139383Y-5381904D01*
X6146393Y-5386882D01*
X6194399Y-5386882D01*
X6199378Y-5381904D01*
X6199378Y-5336895D01*
X6194399Y-5331917D01*
G37*
G36*
X6048400Y-5331917D02*
G01*
X6043422Y-5336895D01*
X6043422Y-5381904D01*
X6048400Y-5386882D01*
X6096406Y-5386882D01*
X6103416Y-5381904D01*
X6103416Y-5336895D01*
X6096406Y-5331917D01*
G37*
G36*
X6147917Y-5479491D02*
G01*
X6140907Y-5484469D01*
X6140907Y-5529478D01*
X6147917Y-5534456D01*
X6195923Y-5534456D01*
X6200902Y-5529478D01*
X6200902Y-5484469D01*
X6195923Y-5479491D01*
G37*
G36*
X6049924Y-5479491D02*
G01*
X6044895Y-5484469D01*
X6044895Y-5529478D01*
X6049924Y-5534456D01*
X6097879Y-5534456D01*
X6104890Y-5529478D01*
X6104890Y-5484469D01*
X6097879Y-5479491D01*
G37*
G36*
X5781700Y-5331917D02*
G01*
X5776722Y-5336895D01*
X5776722Y-5381904D01*
X5781700Y-5386882D01*
X5829706Y-5386882D01*
X5836716Y-5381904D01*
X5836716Y-5336895D01*
X5829706Y-5331917D01*
G37*
G36*
X5879693Y-5331917D02*
G01*
X5872683Y-5336895D01*
X5872683Y-5381904D01*
X5879693Y-5386882D01*
X5927699Y-5386882D01*
X5932678Y-5381904D01*
X5932678Y-5336895D01*
X5927699Y-5331917D01*
G37*
G36*
X5783173Y-5477510D02*
G01*
X5778195Y-5482539D01*
X5778195Y-5527497D01*
X5783173Y-5532526D01*
X5831179Y-5532526D01*
X5838190Y-5527497D01*
X5838190Y-5482539D01*
X5831179Y-5477510D01*
G37*
G36*
X5881217Y-5477510D02*
G01*
X5874207Y-5482539D01*
X5874207Y-5527497D01*
X5881217Y-5532526D01*
X5929172Y-5532526D01*
X5934202Y-5527497D01*
X5934202Y-5482539D01*
X5929172Y-5477510D01*
G37*
G36*
X2161895Y-2354783D02*
G01*
X2156917Y-2361793D01*
X2156917Y-2409799D01*
X2161895Y-2414778D01*
X2206904Y-2414778D01*
X2211882Y-2409799D01*
X2211882Y-2361793D01*
X2206904Y-2354783D01*
G37*
G36*
X2161895Y-2258822D02*
G01*
X2156917Y-2263800D01*
X2156917Y-2311806D01*
X2161895Y-2318816D01*
X2206904Y-2318816D01*
X2211882Y-2311806D01*
X2211882Y-2263800D01*
X2206904Y-2258822D01*
G37*
G36*
X3455415Y-2109216D02*
G01*
X3455415Y-2361184D01*
X3707434Y-2361184D01*
X3707434Y-2109216D01*
G37*
G36*
X3731514Y-1945182D02*
G01*
X3728161Y-1945589D01*
X3725011Y-1946808D01*
X3722217Y-1948738D01*
X3719982Y-1951228D01*
X3718407Y-1954225D01*
X3717594Y-1957527D01*
X3717493Y-2026208D01*
X3717899Y-2029561D01*
X3719118Y-2032711D01*
X3721049Y-2035505D01*
X3723538Y-2037740D01*
X3726535Y-2039315D01*
X3729837Y-2040077D01*
X3733190Y-2040077D01*
X3736492Y-2039315D01*
X3739489Y-2037740D01*
X3741978Y-2035505D01*
X3743909Y-2032711D01*
X3745128Y-2029561D01*
X3745534Y-2026208D01*
X3745433Y-1957527D01*
X3744620Y-1954225D01*
X3743045Y-1951228D01*
X3740810Y-1948738D01*
X3738016Y-1946808D01*
X3734866Y-1945589D01*
G37*
G36*
X3681476Y-1945182D02*
G01*
X3678123Y-1945589D01*
X3674973Y-1946808D01*
X3672179Y-1948738D01*
X3669944Y-1951228D01*
X3668369Y-1954225D01*
X3667556Y-1957527D01*
X3667455Y-2026208D01*
X3667861Y-2029561D01*
X3669080Y-2032711D01*
X3671011Y-2035505D01*
X3673500Y-2037740D01*
X3676497Y-2039315D01*
X3679799Y-2040077D01*
X3683152Y-2040077D01*
X3686454Y-2039315D01*
X3689451Y-2037740D01*
X3691940Y-2035505D01*
X3693871Y-2032711D01*
X3695090Y-2029561D01*
X3695496Y-2026208D01*
X3695395Y-1957527D01*
X3694582Y-1954225D01*
X3693007Y-1951228D01*
X3690772Y-1948738D01*
X3687978Y-1946808D01*
X3684828Y-1945589D01*
G37*
G36*
X3630574Y-1945741D02*
G01*
X3627221Y-1946351D01*
X3624072Y-1947773D01*
X3621430Y-1949907D01*
X3619347Y-1952650D01*
X3617976Y-1955800D01*
X3617468Y-1959203D01*
X3617468Y-2026208D01*
X3617976Y-2029561D01*
X3619347Y-2032762D01*
X3621430Y-2035454D01*
X3624072Y-2037638D01*
X3627221Y-2039061D01*
X3630574Y-2039670D01*
X3634028Y-2039467D01*
X3637279Y-2038451D01*
X3640175Y-2036622D01*
X3642614Y-2034184D01*
X3644290Y-2031187D01*
X3644900Y-2029561D01*
X3645408Y-2026208D01*
X3645408Y-1959203D01*
X3644900Y-1955800D01*
X3643528Y-1952650D01*
X3642614Y-1951228D01*
X3640175Y-1948789D01*
X3637279Y-1946960D01*
X3634028Y-1945944D01*
G37*
G36*
X3580536Y-1945741D02*
G01*
X3577183Y-1946351D01*
X3574034Y-1947773D01*
X3571392Y-1949907D01*
X3569309Y-1952650D01*
X3567937Y-1955800D01*
X3567429Y-1959203D01*
X3567429Y-2026208D01*
X3567937Y-2029561D01*
X3569309Y-2032762D01*
X3571392Y-2035454D01*
X3574034Y-2037638D01*
X3577183Y-2039061D01*
X3580536Y-2039670D01*
X3583990Y-2039467D01*
X3587242Y-2038451D01*
X3590137Y-2036622D01*
X3592525Y-2034184D01*
X3594252Y-2031187D01*
X3594862Y-2029561D01*
X3595370Y-2026208D01*
X3595370Y-1959203D01*
X3594862Y-1955800D01*
X3593490Y-1952650D01*
X3591407Y-1949907D01*
X3588765Y-1947773D01*
X3585616Y-1946351D01*
X3582263Y-1945741D01*
G37*
G36*
X3530498Y-1945436D02*
G01*
X3527094Y-1946046D01*
X3523945Y-1947519D01*
X3521252Y-1949754D01*
X3519170Y-1952548D01*
X3517849Y-1955749D01*
X3517392Y-1959203D01*
X3517493Y-2027936D01*
X3518408Y-2031288D01*
X3520135Y-2034336D01*
X3522522Y-2036825D01*
X3525469Y-2038705D01*
X3528771Y-2039772D01*
X3532225Y-2039975D01*
X3535679Y-2039315D01*
X3537305Y-2038705D01*
X3540251Y-2036825D01*
X3542639Y-2034336D01*
X3543604Y-2032863D01*
X3544874Y-2029663D01*
X3545382Y-2026208D01*
X3545382Y-1959203D01*
X3544874Y-1955749D01*
X3543604Y-1952548D01*
X3541522Y-1949754D01*
X3538829Y-1947519D01*
X3535679Y-1946046D01*
X3532225Y-1945436D01*
G37*
G36*
X3480460Y-1945436D02*
G01*
X3477056Y-1946046D01*
X3473907Y-1947519D01*
X3471214Y-1949754D01*
X3469132Y-1952548D01*
X3467811Y-1955749D01*
X3467354Y-1959203D01*
X3467455Y-2027936D01*
X3468370Y-2031288D01*
X3470097Y-2034336D01*
X3472484Y-2036825D01*
X3475431Y-2038705D01*
X3478733Y-2039772D01*
X3482187Y-2039975D01*
X3485642Y-2039315D01*
X3487267Y-2038705D01*
X3490214Y-2036825D01*
X3492601Y-2034336D01*
X3494278Y-2031288D01*
X3495192Y-2027936D01*
X3495344Y-2026208D01*
X3495344Y-1959203D01*
X3494836Y-1955749D01*
X3493515Y-1952548D01*
X3491484Y-1949754D01*
X3488791Y-1947519D01*
X3485642Y-1946046D01*
X3482187Y-1945436D01*
G37*
G36*
X3430422Y-1945436D02*
G01*
X3427018Y-1946046D01*
X3423869Y-1947519D01*
X3421176Y-1949754D01*
X3420008Y-1951075D01*
X3418332Y-1954123D01*
X3417417Y-1957476D01*
X3417315Y-2026208D01*
X3417773Y-2029663D01*
X3419094Y-2032863D01*
X3420008Y-2034336D01*
X3422446Y-2036825D01*
X3425393Y-2038705D01*
X3428695Y-2039772D01*
X3432149Y-2039975D01*
X3435604Y-2039315D01*
X3437229Y-2038705D01*
X3440176Y-2036825D01*
X3442563Y-2034336D01*
X3444240Y-2031288D01*
X3445154Y-2027936D01*
X3445306Y-2026208D01*
X3445306Y-1959203D01*
X3444798Y-1955749D01*
X3443478Y-1952548D01*
X3441446Y-1949754D01*
X3438753Y-1947519D01*
X3435604Y-1946046D01*
X3432149Y-1945436D01*
G37*
G36*
X3305403Y-2071065D02*
G01*
X3302050Y-2071471D01*
X3298901Y-2072690D01*
X3296107Y-2074621D01*
X3293872Y-2077110D01*
X3292297Y-2080107D01*
X3291484Y-2083409D01*
X3291484Y-2086762D01*
X3292297Y-2090064D01*
X3293872Y-2093010D01*
X3294887Y-2094382D01*
X3297428Y-2096617D01*
X3300425Y-2098192D01*
X3303676Y-2098954D01*
X3372358Y-2099056D01*
X3375710Y-2098649D01*
X3377336Y-2098192D01*
X3380333Y-2096617D01*
X3382873Y-2094382D01*
X3384753Y-2091588D01*
X3385972Y-2088438D01*
X3386378Y-2085086D01*
X3385972Y-2081733D01*
X3384753Y-2078583D01*
X3382873Y-2075789D01*
X3380333Y-2073554D01*
X3377336Y-2071979D01*
X3374085Y-2071166D01*
G37*
G36*
X3305403Y-2121103D02*
G01*
X3302050Y-2121509D01*
X3298901Y-2122728D01*
X3296107Y-2124659D01*
X3293872Y-2127148D01*
X3292297Y-2130145D01*
X3291484Y-2133447D01*
X3291484Y-2136800D01*
X3292297Y-2140102D01*
X3293872Y-2143048D01*
X3294887Y-2144420D01*
X3297428Y-2146655D01*
X3300425Y-2148230D01*
X3303676Y-2148992D01*
X3372358Y-2149094D01*
X3375710Y-2148687D01*
X3377336Y-2148230D01*
X3380333Y-2146655D01*
X3382873Y-2144420D01*
X3384753Y-2141626D01*
X3385972Y-2138476D01*
X3386378Y-2135124D01*
X3385972Y-2131771D01*
X3384753Y-2128621D01*
X3382873Y-2125827D01*
X3380333Y-2123592D01*
X3377336Y-2122017D01*
X3374085Y-2121204D01*
G37*
G36*
X3305403Y-2171141D02*
G01*
X3302050Y-2171547D01*
X3298901Y-2172766D01*
X3296107Y-2174697D01*
X3293872Y-2177186D01*
X3292297Y-2180183D01*
X3291484Y-2183485D01*
X3291484Y-2186838D01*
X3292297Y-2190140D01*
X3293872Y-2193086D01*
X3294887Y-2194458D01*
X3297428Y-2196693D01*
X3300425Y-2198268D01*
X3303676Y-2199030D01*
X3372358Y-2199132D01*
X3375710Y-2198725D01*
X3377336Y-2198268D01*
X3380333Y-2196693D01*
X3382873Y-2194458D01*
X3384753Y-2191664D01*
X3385972Y-2188514D01*
X3386378Y-2185162D01*
X3385972Y-2181809D01*
X3384753Y-2178659D01*
X3382873Y-2175865D01*
X3380333Y-2173630D01*
X3377336Y-2172055D01*
X3374085Y-2171242D01*
G37*
G36*
X3305403Y-2221179D02*
G01*
X3302050Y-2221585D01*
X3298901Y-2222804D01*
X3296107Y-2224735D01*
X3293872Y-2227224D01*
X3292297Y-2230221D01*
X3291484Y-2233523D01*
X3291484Y-2236876D01*
X3292297Y-2240178D01*
X3293872Y-2243124D01*
X3294887Y-2244496D01*
X3297428Y-2246731D01*
X3300425Y-2248306D01*
X3303676Y-2249068D01*
X3372358Y-2249170D01*
X3375710Y-2248763D01*
X3377336Y-2248306D01*
X3380333Y-2246731D01*
X3382873Y-2244496D01*
X3384753Y-2241702D01*
X3385972Y-2238552D01*
X3386378Y-2235200D01*
X3385972Y-2231847D01*
X3384753Y-2228697D01*
X3382873Y-2225903D01*
X3380333Y-2223668D01*
X3377336Y-2222093D01*
X3374085Y-2221280D01*
G37*
G36*
X3305403Y-2271217D02*
G01*
X3302050Y-2271623D01*
X3298901Y-2272842D01*
X3296107Y-2274773D01*
X3293872Y-2277262D01*
X3292297Y-2280259D01*
X3291484Y-2283561D01*
X3291484Y-2286914D01*
X3292297Y-2290216D01*
X3293872Y-2293162D01*
X3294887Y-2294534D01*
X3297428Y-2296769D01*
X3300425Y-2298344D01*
X3303676Y-2299106D01*
X3372358Y-2299208D01*
X3375710Y-2298801D01*
X3377336Y-2298344D01*
X3380333Y-2296769D01*
X3382873Y-2294534D01*
X3384753Y-2291740D01*
X3385972Y-2288590D01*
X3386378Y-2285238D01*
X3385972Y-2281885D01*
X3384753Y-2278735D01*
X3382873Y-2275941D01*
X3380333Y-2273706D01*
X3377336Y-2272131D01*
X3374085Y-2271318D01*
G37*
G36*
X3305403Y-2321255D02*
G01*
X3302050Y-2321661D01*
X3298901Y-2322880D01*
X3296107Y-2324811D01*
X3293872Y-2327300D01*
X3292297Y-2330297D01*
X3291484Y-2333599D01*
X3291484Y-2336952D01*
X3292297Y-2340254D01*
X3293872Y-2343200D01*
X3294887Y-2344572D01*
X3297428Y-2346807D01*
X3300425Y-2348382D01*
X3303676Y-2349144D01*
X3372358Y-2349246D01*
X3375710Y-2348839D01*
X3377336Y-2348382D01*
X3380333Y-2346807D01*
X3382873Y-2344572D01*
X3384753Y-2341778D01*
X3385972Y-2338628D01*
X3386378Y-2335276D01*
X3385972Y-2331923D01*
X3384753Y-2328773D01*
X3382873Y-2325979D01*
X3380333Y-2323744D01*
X3377336Y-2322169D01*
X3374085Y-2321356D01*
G37*
G36*
X3305403Y-2371293D02*
G01*
X3302050Y-2371699D01*
X3298901Y-2372918D01*
X3296107Y-2374849D01*
X3293872Y-2377338D01*
X3292297Y-2380335D01*
X3291484Y-2383637D01*
X3291484Y-2386990D01*
X3292297Y-2390292D01*
X3293872Y-2393238D01*
X3294887Y-2394610D01*
X3297428Y-2396845D01*
X3300425Y-2398420D01*
X3303676Y-2399182D01*
X3372358Y-2399284D01*
X3375710Y-2398877D01*
X3377336Y-2398420D01*
X3380333Y-2396845D01*
X3382873Y-2394610D01*
X3384753Y-2391816D01*
X3385972Y-2388666D01*
X3386378Y-2385314D01*
X3385972Y-2381961D01*
X3384753Y-2378811D01*
X3382873Y-2376017D01*
X3380333Y-2373782D01*
X3377336Y-2372207D01*
X3374085Y-2371394D01*
G37*
G36*
X3430422Y-2430424D02*
G01*
X3428695Y-2430627D01*
X3425393Y-2431694D01*
X3422446Y-2433574D01*
X3420008Y-2436063D01*
X3418332Y-2439111D01*
X3417417Y-2442464D01*
X3417417Y-2512974D01*
X3418332Y-2516327D01*
X3420008Y-2519324D01*
X3422446Y-2521864D01*
X3425393Y-2523693D01*
X3427018Y-2524353D01*
X3430422Y-2525014D01*
X3433876Y-2524760D01*
X3435604Y-2524353D01*
X3438753Y-2522880D01*
X3441446Y-2520696D01*
X3443478Y-2517902D01*
X3444798Y-2514650D01*
X3445306Y-2511196D01*
X3445306Y-2444191D01*
X3444798Y-2440787D01*
X3443478Y-2437536D01*
X3441446Y-2434742D01*
X3438753Y-2432558D01*
X3437229Y-2431694D01*
X3433876Y-2430627D01*
G37*
G36*
X3480460Y-2430424D02*
G01*
X3478733Y-2430627D01*
X3475431Y-2431694D01*
X3472484Y-2433574D01*
X3470097Y-2436063D01*
X3468370Y-2439111D01*
X3467455Y-2442464D01*
X3467455Y-2512974D01*
X3468370Y-2516327D01*
X3470097Y-2519324D01*
X3472484Y-2521864D01*
X3475431Y-2523693D01*
X3477056Y-2524353D01*
X3480460Y-2525014D01*
X3483914Y-2524760D01*
X3485642Y-2524353D01*
X3488791Y-2522880D01*
X3491484Y-2520696D01*
X3493515Y-2517902D01*
X3494836Y-2514650D01*
X3495344Y-2511196D01*
X3495344Y-2444191D01*
X3494836Y-2440787D01*
X3493515Y-2437536D01*
X3491484Y-2434742D01*
X3488791Y-2432558D01*
X3487267Y-2431694D01*
X3483914Y-2430627D01*
G37*
G36*
X3530498Y-2430424D02*
G01*
X3528771Y-2430627D01*
X3525469Y-2431694D01*
X3522522Y-2433574D01*
X3520135Y-2436063D01*
X3518408Y-2439111D01*
X3517493Y-2442464D01*
X3517493Y-2512974D01*
X3518408Y-2516327D01*
X3520135Y-2519324D01*
X3522522Y-2521864D01*
X3525469Y-2523693D01*
X3527094Y-2524353D01*
X3530498Y-2525014D01*
X3533952Y-2524760D01*
X3535679Y-2524353D01*
X3538829Y-2522880D01*
X3541522Y-2520696D01*
X3543604Y-2517902D01*
X3544874Y-2514650D01*
X3545382Y-2511196D01*
X3545382Y-2444191D01*
X3544874Y-2440787D01*
X3543604Y-2437536D01*
X3541522Y-2434742D01*
X3538829Y-2432558D01*
X3537305Y-2431694D01*
X3533952Y-2430627D01*
G37*
G36*
X3580536Y-2430729D02*
G01*
X3577183Y-2431389D01*
X3574034Y-2432812D01*
X3571392Y-2434945D01*
X3569309Y-2437688D01*
X3567937Y-2440838D01*
X3567429Y-2444191D01*
X3567429Y-2511196D01*
X3567937Y-2514600D01*
X3569309Y-2517749D01*
X3571392Y-2520492D01*
X3574034Y-2522626D01*
X3577183Y-2524048D01*
X3580536Y-2524709D01*
X3583990Y-2524455D01*
X3587242Y-2523439D01*
X3590137Y-2521661D01*
X3592525Y-2519172D01*
X3594252Y-2516225D01*
X3594862Y-2514600D01*
X3595370Y-2511196D01*
X3595370Y-2444191D01*
X3594862Y-2440838D01*
X3593490Y-2437688D01*
X3591407Y-2434945D01*
X3588765Y-2432812D01*
X3585616Y-2431389D01*
X3583990Y-2430932D01*
G37*
G36*
X3630574Y-2430729D02*
G01*
X3627221Y-2431389D01*
X3624072Y-2432812D01*
X3621430Y-2434945D01*
X3619347Y-2437688D01*
X3617976Y-2440838D01*
X3617468Y-2444191D01*
X3617468Y-2511196D01*
X3617976Y-2514600D01*
X3619347Y-2517749D01*
X3621430Y-2520492D01*
X3624072Y-2522626D01*
X3627221Y-2524048D01*
X3630574Y-2524709D01*
X3634028Y-2524455D01*
X3637279Y-2523439D01*
X3640175Y-2521661D01*
X3642614Y-2519172D01*
X3644290Y-2516225D01*
X3644900Y-2514600D01*
X3645408Y-2511196D01*
X3645408Y-2444191D01*
X3644900Y-2440838D01*
X3643528Y-2437688D01*
X3642614Y-2436215D01*
X3640175Y-2433777D01*
X3637279Y-2431999D01*
X3634028Y-2430932D01*
G37*
G36*
X3681476Y-2430221D02*
G01*
X3678123Y-2430627D01*
X3674973Y-2431796D01*
X3672179Y-2433726D01*
X3669944Y-2436266D01*
X3668369Y-2439263D01*
X3667556Y-2442514D01*
X3667455Y-2511196D01*
X3667861Y-2514549D01*
X3669080Y-2517698D01*
X3671011Y-2520492D01*
X3673500Y-2522728D01*
X3676497Y-2524302D01*
X3679799Y-2525115D01*
X3683152Y-2525115D01*
X3686454Y-2524302D01*
X3689451Y-2522728D01*
X3691940Y-2520492D01*
X3693871Y-2517698D01*
X3695090Y-2514549D01*
X3695496Y-2511196D01*
X3695395Y-2442514D01*
X3694582Y-2439263D01*
X3693007Y-2436266D01*
X3690772Y-2433726D01*
X3687978Y-2431796D01*
X3684828Y-2430627D01*
G37*
G36*
X3731514Y-2430221D02*
G01*
X3728161Y-2430627D01*
X3725011Y-2431796D01*
X3722217Y-2433726D01*
X3719982Y-2436266D01*
X3718407Y-2439263D01*
X3717594Y-2442514D01*
X3717493Y-2511196D01*
X3717899Y-2514549D01*
X3719118Y-2517698D01*
X3721049Y-2520492D01*
X3723538Y-2522728D01*
X3726535Y-2524302D01*
X3729837Y-2525115D01*
X3733190Y-2525115D01*
X3736492Y-2524302D01*
X3739489Y-2522728D01*
X3741978Y-2520492D01*
X3743909Y-2517698D01*
X3745128Y-2514549D01*
X3745534Y-2511196D01*
X3745433Y-2442514D01*
X3744620Y-2439263D01*
X3743045Y-2436266D01*
X3740810Y-2433726D01*
X3738016Y-2431796D01*
X3734866Y-2430627D01*
G37*
G36*
X3790391Y-2371293D02*
G01*
X3787038Y-2371699D01*
X3783888Y-2372918D01*
X3781094Y-2374849D01*
X3778859Y-2377338D01*
X3777335Y-2380335D01*
X3776522Y-2383637D01*
X3776522Y-2386990D01*
X3777335Y-2390292D01*
X3778859Y-2393238D01*
X3781094Y-2395778D01*
X3783888Y-2397709D01*
X3785412Y-2398420D01*
X3788714Y-2399182D01*
X3857396Y-2399284D01*
X3860749Y-2398877D01*
X3862374Y-2398420D01*
X3865372Y-2396845D01*
X3867861Y-2394610D01*
X3869791Y-2391816D01*
X3871010Y-2388666D01*
X3871417Y-2385314D01*
X3871010Y-2381961D01*
X3869791Y-2378811D01*
X3867861Y-2376017D01*
X3865372Y-2373782D01*
X3862374Y-2372207D01*
X3859072Y-2371394D01*
G37*
G36*
X3790391Y-2321255D02*
G01*
X3787038Y-2321661D01*
X3783888Y-2322880D01*
X3781094Y-2324811D01*
X3778859Y-2327300D01*
X3777335Y-2330297D01*
X3776522Y-2333599D01*
X3776522Y-2336952D01*
X3777335Y-2340254D01*
X3778859Y-2343200D01*
X3781094Y-2345740D01*
X3783888Y-2347671D01*
X3785412Y-2348382D01*
X3788714Y-2349144D01*
X3857396Y-2349246D01*
X3860749Y-2348839D01*
X3862374Y-2348382D01*
X3865372Y-2346807D01*
X3867861Y-2344572D01*
X3869791Y-2341778D01*
X3871010Y-2338628D01*
X3871417Y-2335276D01*
X3871010Y-2331923D01*
X3869791Y-2328773D01*
X3867861Y-2325979D01*
X3865372Y-2323744D01*
X3862374Y-2322169D01*
X3859072Y-2321356D01*
G37*
G36*
X3790391Y-2271217D02*
G01*
X3787038Y-2271623D01*
X3783888Y-2272842D01*
X3781094Y-2274773D01*
X3778859Y-2277262D01*
X3777335Y-2280259D01*
X3776522Y-2283561D01*
X3776522Y-2286914D01*
X3777335Y-2290216D01*
X3778859Y-2293162D01*
X3781094Y-2295702D01*
X3783888Y-2297633D01*
X3785412Y-2298344D01*
X3788714Y-2299106D01*
X3857396Y-2299208D01*
X3860749Y-2298801D01*
X3862374Y-2298344D01*
X3865372Y-2296769D01*
X3867861Y-2294534D01*
X3869791Y-2291740D01*
X3871010Y-2288590D01*
X3871417Y-2285238D01*
X3871010Y-2281885D01*
X3869791Y-2278735D01*
X3867861Y-2275941D01*
X3865372Y-2273706D01*
X3862374Y-2272131D01*
X3859072Y-2271318D01*
G37*
G36*
X3790391Y-2221179D02*
G01*
X3787038Y-2221585D01*
X3783888Y-2222804D01*
X3781094Y-2224735D01*
X3778859Y-2227224D01*
X3777335Y-2230221D01*
X3776522Y-2233523D01*
X3776522Y-2236876D01*
X3777335Y-2240178D01*
X3778859Y-2243124D01*
X3781094Y-2245664D01*
X3783888Y-2247595D01*
X3785412Y-2248306D01*
X3788714Y-2249068D01*
X3857396Y-2249170D01*
X3860749Y-2248763D01*
X3862374Y-2248306D01*
X3865372Y-2246731D01*
X3867861Y-2244496D01*
X3869791Y-2241702D01*
X3871010Y-2238552D01*
X3871417Y-2235200D01*
X3871010Y-2231847D01*
X3869791Y-2228697D01*
X3867861Y-2225903D01*
X3865372Y-2223668D01*
X3862374Y-2222093D01*
X3859072Y-2221280D01*
G37*
G36*
X3790391Y-2171141D02*
G01*
X3787038Y-2171547D01*
X3783888Y-2172766D01*
X3781094Y-2174697D01*
X3778859Y-2177186D01*
X3777335Y-2180183D01*
X3776522Y-2183485D01*
X3776522Y-2186838D01*
X3777335Y-2190140D01*
X3778859Y-2193086D01*
X3781094Y-2195626D01*
X3783888Y-2197557D01*
X3785412Y-2198268D01*
X3788714Y-2199030D01*
X3857396Y-2199132D01*
X3860749Y-2198725D01*
X3862374Y-2198268D01*
X3865372Y-2196693D01*
X3867861Y-2194458D01*
X3869791Y-2191664D01*
X3871010Y-2188514D01*
X3871417Y-2185162D01*
X3871010Y-2181809D01*
X3869791Y-2178659D01*
X3867861Y-2175865D01*
X3865372Y-2173630D01*
X3862374Y-2172055D01*
X3859072Y-2171242D01*
G37*
G36*
X3790391Y-2121103D02*
G01*
X3787038Y-2121509D01*
X3783888Y-2122728D01*
X3781094Y-2124659D01*
X3778859Y-2127148D01*
X3777335Y-2130145D01*
X3776522Y-2133447D01*
X3776522Y-2136800D01*
X3777335Y-2140102D01*
X3778859Y-2143048D01*
X3781094Y-2145588D01*
X3783888Y-2147519D01*
X3785412Y-2148230D01*
X3788714Y-2148992D01*
X3857396Y-2149094D01*
X3860749Y-2148687D01*
X3862374Y-2148230D01*
X3865372Y-2146655D01*
X3867861Y-2144420D01*
X3869791Y-2141626D01*
X3871010Y-2138476D01*
X3871417Y-2135124D01*
X3871010Y-2131771D01*
X3869791Y-2128621D01*
X3867861Y-2125827D01*
X3865372Y-2123592D01*
X3862374Y-2122017D01*
X3859072Y-2121204D01*
G37*
G36*
X3790391Y-2071065D02*
G01*
X3787038Y-2071471D01*
X3783888Y-2072690D01*
X3781094Y-2074621D01*
X3778859Y-2077110D01*
X3777335Y-2080107D01*
X3776522Y-2083409D01*
X3776522Y-2086762D01*
X3777335Y-2090064D01*
X3778859Y-2093010D01*
X3781094Y-2095550D01*
X3783888Y-2097481D01*
X3785412Y-2098192D01*
X3788714Y-2098954D01*
X3857396Y-2099056D01*
X3860749Y-2098649D01*
X3862374Y-2098192D01*
X3865372Y-2096617D01*
X3867861Y-2094382D01*
X3869791Y-2091588D01*
X3871010Y-2088438D01*
X3871417Y-2085086D01*
X3871010Y-2081733D01*
X3869791Y-2078583D01*
X3867861Y-2075789D01*
X3865372Y-2073554D01*
X3862374Y-2071979D01*
X3859072Y-2071166D01*
G37*
G36*
X3485235Y-759917D02*
G01*
X3485235Y-873912D01*
X3515258Y-873912D01*
X3515258Y-759917D01*
G37*
G36*
X3785209Y-759917D02*
G01*
X3785209Y-873912D01*
X3815232Y-873912D01*
X3815232Y-759917D01*
G37*
G36*
X3920236Y-759815D02*
G01*
X3920236Y-873810D01*
X3970223Y-873810D01*
X3970223Y-759815D01*
G37*
G36*
X3280206Y-759815D02*
G01*
X3280206Y-873810D01*
X3330194Y-873810D01*
X3330194Y-759815D01*
G37*
G36*
X3840226Y-759815D02*
G01*
X3840226Y-873810D01*
X3890213Y-873810D01*
X3890213Y-759815D01*
G37*
G36*
X3360216Y-759815D02*
G01*
X3360216Y-873810D01*
X3410204Y-873810D01*
X3410204Y-759815D01*
G37*
G36*
X3635197Y-759815D02*
G01*
X3635197Y-873810D01*
X3665220Y-873810D01*
X3665220Y-759815D01*
G37*
G36*
X3585210Y-759815D02*
G01*
X3585210Y-873810D01*
X3615232Y-873810D01*
X3615232Y-759815D01*
G37*
G36*
X3535222Y-759815D02*
G01*
X3535222Y-873810D01*
X3565194Y-873810D01*
X3565194Y-759815D01*
G37*
G36*
X3685235Y-759815D02*
G01*
X3685235Y-873810D01*
X3715207Y-873810D01*
X3715207Y-759815D01*
G37*
G36*
X3735222Y-759815D02*
G01*
X3735222Y-873810D01*
X3765194Y-873810D01*
X3765194Y-759815D01*
G37*
G36*
X3435197Y-759815D02*
G01*
X3435197Y-873810D01*
X3465220Y-873810D01*
X3465220Y-759815D01*
G37*
G36*
X3191967Y-660095D02*
G01*
X3186988Y-660501D01*
X3182112Y-661365D01*
X3177286Y-662686D01*
X3172663Y-664514D01*
X3168192Y-666800D01*
X3164027Y-669493D01*
X3160115Y-672592D01*
X3156559Y-676097D01*
X3153359Y-679907D01*
X3150565Y-684022D01*
X3148177Y-688390D01*
X3146247Y-693013D01*
X3144774Y-697738D01*
X3143758Y-702665D01*
X3143300Y-707593D01*
X3143199Y-810107D01*
X3143453Y-815086D01*
X3144215Y-820013D01*
X3145434Y-824839D01*
X3147161Y-829513D01*
X3149295Y-834034D01*
X3151886Y-838250D01*
X3154934Y-842213D01*
X3158286Y-845870D01*
X3162046Y-849172D01*
X3166110Y-852119D01*
X3170428Y-854608D01*
X3174949Y-856640D01*
X3179673Y-858215D01*
X3184550Y-859332D01*
X3189478Y-859942D01*
X3194456Y-860094D01*
X3199434Y-859688D01*
X3204362Y-858824D01*
X3209137Y-857503D01*
X3213760Y-855675D01*
X3218230Y-853389D01*
X3222396Y-850696D01*
X3226308Y-847598D01*
X3229864Y-844092D01*
X3233064Y-840282D01*
X3235858Y-836168D01*
X3238246Y-831799D01*
X3240176Y-827176D01*
X3241649Y-822452D01*
X3242665Y-817524D01*
X3243173Y-812596D01*
X3243224Y-710082D01*
X3242970Y-705104D01*
X3242208Y-700176D01*
X3240989Y-695350D01*
X3239262Y-690676D01*
X3237128Y-686206D01*
X3234537Y-681939D01*
X3231540Y-677976D01*
X3228136Y-674319D01*
X3224377Y-671017D01*
X3220364Y-668070D01*
X3216046Y-665581D01*
X3211474Y-663549D01*
X3206750Y-661974D01*
X3201873Y-660857D01*
X3196945Y-660247D01*
G37*
G36*
X4055973Y-660095D02*
G01*
X4050995Y-660450D01*
X4046118Y-661314D01*
X4041292Y-662686D01*
X4036669Y-664514D01*
X4032199Y-666750D01*
X4028033Y-669493D01*
X4024122Y-672592D01*
X4020565Y-676046D01*
X4017365Y-679856D01*
X4014571Y-684022D01*
X4012184Y-688390D01*
X4010253Y-692962D01*
X4008780Y-697738D01*
X4007764Y-702614D01*
X4007256Y-707593D01*
X4007205Y-810056D01*
X4007459Y-815035D01*
X4008221Y-819962D01*
X4009440Y-824788D01*
X4011168Y-829513D01*
X4013301Y-833983D01*
X4015892Y-838250D01*
X4018940Y-842213D01*
X4022293Y-845870D01*
X4026052Y-849172D01*
X4030116Y-852068D01*
X4034434Y-854557D01*
X4038955Y-856589D01*
X4043679Y-858215D01*
X4048556Y-859332D01*
X4053484Y-859942D01*
X4058462Y-860044D01*
X4063441Y-859688D01*
X4068368Y-858824D01*
X4073144Y-857453D01*
X4077766Y-855624D01*
X4082237Y-853389D01*
X4086402Y-850646D01*
X4090314Y-847547D01*
X4093870Y-844092D01*
X4097070Y-840282D01*
X4099864Y-836117D01*
X4102252Y-831748D01*
X4104182Y-827176D01*
X4105656Y-822401D01*
X4106672Y-817524D01*
X4107179Y-812546D01*
X4107230Y-710082D01*
X4106976Y-705104D01*
X4106214Y-700176D01*
X4104995Y-695350D01*
X4103268Y-690626D01*
X4101134Y-686155D01*
X4098544Y-681888D01*
X4095546Y-677926D01*
X4092143Y-674268D01*
X4088384Y-670966D01*
X4084370Y-668070D01*
X4080052Y-665581D01*
X4075480Y-663549D01*
X4070756Y-661924D01*
X4065879Y-660806D01*
X4060951Y-660196D01*
G37*
G36*
X3191967Y-250088D02*
G01*
X3186988Y-250494D01*
X3182112Y-251358D01*
X3177286Y-252679D01*
X3172663Y-254508D01*
X3168192Y-256794D01*
X3164027Y-259486D01*
X3160115Y-262585D01*
X3156559Y-266090D01*
X3153359Y-269900D01*
X3150565Y-274015D01*
X3148177Y-278384D01*
X3146247Y-283006D01*
X3144774Y-287731D01*
X3143758Y-292608D01*
X3143300Y-297586D01*
X3143199Y-380085D01*
X3143453Y-385064D01*
X3144215Y-389991D01*
X3145434Y-394817D01*
X3147161Y-399491D01*
X3149295Y-404012D01*
X3151886Y-408228D01*
X3154934Y-412242D01*
X3158286Y-415899D01*
X3162046Y-419150D01*
X3166110Y-422097D01*
X3170428Y-424586D01*
X3174949Y-426618D01*
X3179673Y-428193D01*
X3184550Y-429310D01*
X3189478Y-429920D01*
X3194456Y-430072D01*
X3199434Y-429717D01*
X3204362Y-428802D01*
X3209137Y-427482D01*
X3213760Y-425653D01*
X3218230Y-423367D01*
X3222396Y-420674D01*
X3226308Y-417576D01*
X3229864Y-414070D01*
X3233064Y-410260D01*
X3235858Y-406146D01*
X3238246Y-401777D01*
X3240176Y-397205D01*
X3241649Y-392430D01*
X3242665Y-387553D01*
X3243173Y-382574D01*
X3243224Y-300075D01*
X3242970Y-295097D01*
X3242208Y-290169D01*
X3240989Y-285343D01*
X3239262Y-280670D01*
X3237128Y-276148D01*
X3234537Y-271932D01*
X3231540Y-267919D01*
X3228136Y-264312D01*
X3224377Y-261010D01*
X3220364Y-258064D01*
X3216046Y-255574D01*
X3211474Y-253542D01*
X3206750Y-251967D01*
X3201873Y-250850D01*
X3196945Y-250240D01*
G37*
G36*
X4055973Y-250088D02*
G01*
X4050995Y-250494D01*
X4046118Y-251358D01*
X4041292Y-252679D01*
X4036669Y-254508D01*
X4032199Y-256794D01*
X4028033Y-259486D01*
X4024122Y-262585D01*
X4020565Y-266090D01*
X4017365Y-269900D01*
X4014571Y-274015D01*
X4012184Y-278384D01*
X4010253Y-283006D01*
X4008780Y-287731D01*
X4007764Y-292608D01*
X4007256Y-297586D01*
X4007205Y-380085D01*
X4007459Y-385064D01*
X4008221Y-389991D01*
X4009440Y-394817D01*
X4011168Y-399491D01*
X4013301Y-404012D01*
X4015892Y-408228D01*
X4018940Y-412242D01*
X4022293Y-415899D01*
X4026052Y-419150D01*
X4030116Y-422097D01*
X4034434Y-424586D01*
X4038955Y-426618D01*
X4043679Y-428193D01*
X4048556Y-429310D01*
X4053484Y-429920D01*
X4058462Y-430072D01*
X4063441Y-429717D01*
X4068368Y-428802D01*
X4073144Y-427482D01*
X4077766Y-425653D01*
X4082237Y-423367D01*
X4086402Y-420674D01*
X4090314Y-417576D01*
X4093870Y-414070D01*
X4097070Y-410260D01*
X4099864Y-406146D01*
X4102252Y-401777D01*
X4104182Y-397205D01*
X4105656Y-392430D01*
X4106672Y-387553D01*
X4107179Y-382574D01*
X4107230Y-300075D01*
X4106976Y-295097D01*
X4106214Y-290169D01*
X4104995Y-285343D01*
X4103268Y-280670D01*
X4101134Y-276148D01*
X4098544Y-271932D01*
X4095546Y-267919D01*
X4092143Y-264312D01*
X4088384Y-261010D01*
X4084370Y-258064D01*
X4080052Y-255574D01*
X4075480Y-253542D01*
X4070756Y-251967D01*
X4065879Y-250850D01*
X4060951Y-250240D01*
G37*
G36*
X4968595Y-4468622D02*
G01*
X4963617Y-4473600D01*
X4963617Y-4521606D01*
X4968595Y-4528616D01*
X5013604Y-4528616D01*
X5018582Y-4521606D01*
X5018582Y-4473600D01*
X5013604Y-4468622D01*
G37*
G36*
X4968595Y-4564583D02*
G01*
X4963617Y-4571593D01*
X4963617Y-4619599D01*
X4968595Y-4624578D01*
X5013604Y-4624578D01*
X5018582Y-4619599D01*
X5018582Y-4571593D01*
X5013604Y-4564583D01*
G37*
G36*
X5108295Y-4468622D02*
G01*
X5103317Y-4473600D01*
X5103317Y-4521606D01*
X5108295Y-4528616D01*
X5153304Y-4528616D01*
X5158282Y-4521606D01*
X5158282Y-4473600D01*
X5153304Y-4468622D01*
G37*
G36*
X5108295Y-4564583D02*
G01*
X5103317Y-4571593D01*
X5103317Y-4619599D01*
X5108295Y-4624578D01*
X5153304Y-4624578D01*
X5158282Y-4619599D01*
X5158282Y-4571593D01*
X5153304Y-4564583D01*
G37*
G36*
X5247995Y-4214622D02*
G01*
X5243017Y-4219600D01*
X5243017Y-4267606D01*
X5247995Y-4274616D01*
X5293004Y-4274616D01*
X5297982Y-4267606D01*
X5297982Y-4219600D01*
X5293004Y-4214622D01*
G37*
G36*
X5247995Y-4310583D02*
G01*
X5243017Y-4317593D01*
X5243017Y-4365599D01*
X5247995Y-4370578D01*
X5293004Y-4370578D01*
X5297982Y-4365599D01*
X5297982Y-4317593D01*
X5293004Y-4310583D01*
G37*
G36*
X5374995Y-4214622D02*
G01*
X5370017Y-4219600D01*
X5370017Y-4267606D01*
X5374995Y-4274616D01*
X5420004Y-4274616D01*
X5424982Y-4267606D01*
X5424982Y-4219600D01*
X5420004Y-4214622D01*
G37*
G36*
X5374995Y-4310583D02*
G01*
X5370017Y-4317593D01*
X5370017Y-4365599D01*
X5374995Y-4370578D01*
X5420004Y-4370578D01*
X5424982Y-4365599D01*
X5424982Y-4317593D01*
X5420004Y-4310583D01*
G37*
D10*
G01*
X2225446Y-4737100D03*
G01*
X1990953Y-4737100D03*
G01*
X3018561Y-299085D03*
G01*
X2784068Y-299085D03*
D11*
G01*
X3810000Y-1201420D03*
G01*
X3810000Y-1643379D03*
G01*
X3327400Y-1201420D03*
G01*
X3327400Y-1643379D03*
D12*
G01*
X4198594Y-5067300D03*
G01*
X3878605Y-5067300D03*
D13*
G01*
X895604Y-5141899D03*
G01*
X1085595Y-5141899D03*
G01*
X990600Y-4941900D03*
D14*
G01*
X1077899Y-5898895D03*
G01*
X1077899Y-5708904D03*
G01*
X877900Y-5803900D03*
D15*
G01*
X5480304Y-5694298D03*
G01*
X5575300Y-5694298D03*
G01*
X5670295Y-5694298D03*
G01*
X5670295Y-5964301D03*
G01*
X5575300Y-5964301D03*
G01*
X5480304Y-5964301D03*
D16*
G01*
X4364100Y-5543804D03*
G01*
X4364100Y-5638800D03*
G01*
X4364100Y-5733795D03*
G01*
X4094099Y-5733795D03*
G01*
X4094099Y-5638800D03*
G01*
X4094099Y-5543804D03*
D17*
G01*
X3320897Y-6055512D03*
G01*
X3225901Y-6055512D03*
G01*
X3130702Y-6055512D03*
G01*
X3130702Y-6314312D03*
G01*
X3320694Y-6314312D03*
D18*
G01*
X771601Y-3592804D03*
G01*
X921588Y-3592804D03*
G01*
X1071600Y-3592804D03*
G01*
X1221587Y-3592804D03*
G01*
X1371600Y-3592804D03*
G01*
X1521587Y-3592804D03*
G01*
X1671599Y-3592804D03*
G01*
X1821586Y-3592804D03*
G01*
X1971598Y-3592804D03*
G01*
X1971598Y-1842795D03*
G01*
X1821586Y-1842795D03*
G01*
X1671599Y-1842795D03*
G01*
X1521587Y-1842795D03*
G01*
X1371600Y-1842795D03*
G01*
X1221587Y-1842795D03*
G01*
X1071600Y-1842795D03*
G01*
X921588Y-1842795D03*
G01*
X771601Y-1842795D03*
D20*
G01*
X1281582Y-2731795D03*
G01*
X1391589Y-2731795D03*
G01*
X1501597Y-2731795D03*
G01*
X1281582Y-2621813D03*
G01*
X1391589Y-2621813D03*
G01*
X1501597Y-2621813D03*
G01*
X1501597Y-2511805D03*
G01*
X1391589Y-2511805D03*
G01*
X1281582Y-2511805D03*
D21*
G01*
X5232400Y-4868392D03*
G01*
X5232400Y-5088407D03*
G01*
X3365500Y-5469407D03*
G01*
X3365500Y-5249392D03*
D22*
G01*
X3035300Y-2689860D03*
G01*
X2781300Y-3609339D03*
G01*
X3162300Y-2689860D03*
G01*
X2908300Y-2689860D03*
G01*
X2781300Y-2689860D03*
G01*
X2908300Y-3609339D03*
G01*
X2654300Y-3609339D03*
G01*
X2527300Y-3609339D03*
G01*
X2527300Y-2689860D03*
G01*
X2273300Y-3609339D03*
G01*
X2654300Y-2689860D03*
G01*
X2400300Y-2689860D03*
G01*
X2400300Y-3609339D03*
G01*
X2273300Y-2689860D03*
G01*
X3035300Y-3609339D03*
G01*
X3162300Y-3609339D03*
G36*
X6100803Y-5937882D02*
G01*
X6096350Y-5937775D01*
X6091908Y-5937463D01*
X6087483Y-5936942D01*
X6083089Y-5936216D01*
X6078733Y-5935281D01*
X6074427Y-5934146D01*
X6070178Y-5932810D01*
X6065997Y-5931275D01*
X6061892Y-5929546D01*
X6057872Y-5927628D01*
X6053947Y-5925522D01*
X6050125Y-5923234D01*
X6046414Y-5920770D01*
X6042822Y-5918136D01*
X6039360Y-5915337D01*
X6036030Y-5912375D01*
X6032845Y-5909264D01*
X6029807Y-5906005D01*
X6026927Y-5902609D01*
X6024209Y-5899081D01*
X6021659Y-5895428D01*
X6019284Y-5891662D01*
X6017087Y-5887786D01*
X6015073Y-5883813D01*
X6013249Y-5875883D01*
X5843516Y-5875883D01*
X5843516Y-5809884D01*
X6013249Y-5809884D01*
X6015073Y-5801949D01*
X6017087Y-5797976D01*
X6019284Y-5794100D01*
X6021659Y-5790333D01*
X6024209Y-5786681D01*
X6026927Y-5783153D01*
X6029807Y-5779757D01*
X6032845Y-5776498D01*
X6036030Y-5773386D01*
X6039360Y-5770425D01*
X6042822Y-5767626D01*
X6046414Y-5764992D01*
X6050125Y-5762528D01*
X6053947Y-5760239D01*
X6057872Y-5758134D01*
X6061892Y-5756216D01*
X6065997Y-5754486D01*
X6070178Y-5752952D01*
X6074427Y-5751616D01*
X6078733Y-5750481D01*
X6083089Y-5749546D01*
X6087483Y-5748820D01*
X6091908Y-5748299D01*
X6096350Y-5747986D01*
X6100803Y-5747880D01*
X6286223Y-5747880D01*
X6290675Y-5747986D01*
X6295118Y-5748299D01*
X6299542Y-5748820D01*
X6303937Y-5749546D01*
X6308293Y-5750481D01*
X6312598Y-5751616D01*
X6316847Y-5752952D01*
X6321028Y-5754486D01*
X6325133Y-5756216D01*
X6329154Y-5758134D01*
X6333078Y-5760239D01*
X6336901Y-5762528D01*
X6340612Y-5764992D01*
X6344203Y-5767626D01*
X6347665Y-5770425D01*
X6350995Y-5773386D01*
X6354180Y-5776498D01*
X6357218Y-5779757D01*
X6360099Y-5783153D01*
X6362816Y-5786681D01*
X6365366Y-5790333D01*
X6367741Y-5794100D01*
X6369938Y-5797976D01*
X6371953Y-5801949D01*
X6373776Y-5806013D01*
X6375410Y-5810156D01*
X6376845Y-5814372D01*
X6378082Y-5818652D01*
X6379116Y-5822985D01*
X6379946Y-5827359D01*
X6380571Y-5831771D01*
X6380988Y-5836206D01*
X6381196Y-5840653D01*
X6381196Y-5845108D01*
X6380988Y-5849556D01*
X6380571Y-5853991D01*
X6379946Y-5858403D01*
X6379116Y-5862777D01*
X6378082Y-5867110D01*
X6376845Y-5871390D01*
X6375410Y-5875606D01*
X6373776Y-5879749D01*
X6371953Y-5883813D01*
X6369938Y-5887786D01*
X6367741Y-5891662D01*
X6365366Y-5895428D01*
X6362816Y-5899081D01*
X6360099Y-5902609D01*
X6357218Y-5906005D01*
X6354180Y-5909264D01*
X6350995Y-5912375D01*
X6347665Y-5915337D01*
X6344203Y-5918136D01*
X6340612Y-5920770D01*
X6336901Y-5923234D01*
X6333078Y-5925522D01*
X6329154Y-5927628D01*
X6325133Y-5929546D01*
X6321028Y-5931275D01*
X6316847Y-5932810D01*
X6312598Y-5934146D01*
X6308293Y-5935281D01*
X6303937Y-5936216D01*
X6299542Y-5936942D01*
X6295118Y-5937463D01*
X6290675Y-5937775D01*
X6286223Y-5937882D01*
G37*
D23*
G01*
X5922271Y-5992012D03*
G01*
X5922271Y-5692013D03*
D12*
G01*
X6128994Y-4978400D03*
G01*
X5809005Y-4978400D03*
D11*
G01*
X2590800Y-1503679D03*
G01*
X2590800Y-1061720D03*
D24*
G01*
X5094097Y-4284802D03*
G01*
X4864100Y-4284802D03*
G01*
X4634102Y-4284802D03*
D25*
G01*
X4864100Y-3690797D03*
D26*
G01*
X656793Y-4081221D03*
G01*
X206806Y-4081221D03*
G01*
X656793Y-4961204D03*
G01*
X206806Y-4961204D03*
G01*
X206806Y-6180404D03*
G01*
X656793Y-6180404D03*
G01*
X206806Y-5300421D03*
G01*
X656793Y-5300421D03*
D27*
G01*
X2236470Y-5505500D03*
G01*
X2233929Y-5035499D03*
M02*
