G04 Layer: BottomPasteMaskLayer*
G04 EasyEDA v6.5.51, 2025-09-17 03:24:35*
G04 4f8a5b0b326d43f2b3a6dc604e954ae0,d57bd40a603b42be9e37e0d49851eb9c,10*
G04 Gerber Generator version 0.2*
G04 Scale: 100 percent, Rotated: No, Reflected: No *
G04 Dimensions in millimeters *
G04 leading zeros omitted , absolute positions ,4 integer and 5 decimal *
%FSLAX45Y45*%
%MOMM*%

%AMMACRO1*21,1,$1,$2,0,0,$3*%
%ADD10MACRO1,0.95X1.15X90.0000*%
%ADD11MACRO1,0.95X1.15X-90.0000*%
%ADD12MACRO1,1.1X0.6X0.0000*%
%ADD13C,0.0102*%

%LPD*%
G36*
X3063494Y-4378198D02*
G01*
X3062579Y-4378350D01*
X3061766Y-4378756D01*
X3061157Y-4379366D01*
X3060750Y-4380179D01*
X3060598Y-4381093D01*
X3060598Y-4404106D01*
X3060750Y-4405020D01*
X3061157Y-4405833D01*
X3061766Y-4406442D01*
X3062579Y-4406849D01*
X3063494Y-4407001D01*
X3086506Y-4407001D01*
X3087420Y-4406849D01*
X3088233Y-4406442D01*
X3088843Y-4405833D01*
X3089249Y-4405020D01*
X3089402Y-4404106D01*
X3089402Y-4381093D01*
X3089249Y-4380179D01*
X3088843Y-4379366D01*
X3088233Y-4378756D01*
X3087420Y-4378350D01*
X3086506Y-4378198D01*
G37*
G36*
X3163468Y-4378198D02*
G01*
X3162604Y-4378350D01*
X3161131Y-4379366D01*
X3160725Y-4380179D01*
X3160725Y-4405020D01*
X3161131Y-4405833D01*
X3162604Y-4406849D01*
X3163468Y-4407001D01*
X3186531Y-4407001D01*
X3187395Y-4406849D01*
X3188868Y-4405833D01*
X3189274Y-4405020D01*
X3189274Y-4380179D01*
X3188868Y-4379366D01*
X3187395Y-4378350D01*
X3186531Y-4378198D01*
G37*
G36*
X3263493Y-4378198D02*
G01*
X3262579Y-4378350D01*
X3261766Y-4378756D01*
X3261156Y-4379366D01*
X3260750Y-4380179D01*
X3260598Y-4381093D01*
X3260598Y-4404106D01*
X3260750Y-4405020D01*
X3261156Y-4405833D01*
X3261766Y-4406442D01*
X3262579Y-4406849D01*
X3263493Y-4407001D01*
X3286506Y-4407001D01*
X3287420Y-4406849D01*
X3288233Y-4406442D01*
X3288842Y-4405833D01*
X3289249Y-4405020D01*
X3289401Y-4404106D01*
X3289401Y-4381093D01*
X3289249Y-4380179D01*
X3288842Y-4379366D01*
X3288233Y-4378756D01*
X3287420Y-4378350D01*
X3286506Y-4378198D01*
G37*
G36*
X3063494Y-4278223D02*
G01*
X3062579Y-4278325D01*
X3061766Y-4278731D01*
X3060750Y-4280204D01*
X3060598Y-4281068D01*
X3060598Y-4304131D01*
X3060750Y-4304995D01*
X3061766Y-4306468D01*
X3062579Y-4306874D01*
X3087420Y-4306874D01*
X3088233Y-4306468D01*
X3089249Y-4304995D01*
X3089402Y-4304131D01*
X3089402Y-4281068D01*
X3089249Y-4280204D01*
X3088233Y-4278731D01*
X3087420Y-4278325D01*
G37*
G36*
X3163468Y-4278223D02*
G01*
X3162604Y-4278325D01*
X3161792Y-4278731D01*
X3161131Y-4279392D01*
X3160725Y-4280204D01*
X3160725Y-4304995D01*
X3161131Y-4305808D01*
X3161792Y-4306468D01*
X3162604Y-4306874D01*
X3187395Y-4306874D01*
X3188208Y-4306468D01*
X3188868Y-4305808D01*
X3189274Y-4304995D01*
X3189274Y-4280204D01*
X3188868Y-4279392D01*
X3188208Y-4278731D01*
X3187395Y-4278325D01*
G37*
G36*
X3263493Y-4278223D02*
G01*
X3262579Y-4278325D01*
X3261766Y-4278731D01*
X3260750Y-4280204D01*
X3260598Y-4281068D01*
X3260598Y-4304131D01*
X3260750Y-4304995D01*
X3261766Y-4306468D01*
X3262579Y-4306874D01*
X3287420Y-4306874D01*
X3288233Y-4306468D01*
X3289249Y-4304995D01*
X3289401Y-4304131D01*
X3289401Y-4281068D01*
X3289249Y-4280204D01*
X3288233Y-4278731D01*
X3287420Y-4278325D01*
G37*
G36*
X3063494Y-4178198D02*
G01*
X3062579Y-4178350D01*
X3061766Y-4178757D01*
X3061157Y-4179366D01*
X3060750Y-4180179D01*
X3060598Y-4181094D01*
X3060598Y-4204106D01*
X3060750Y-4205020D01*
X3061157Y-4205833D01*
X3061766Y-4206443D01*
X3062579Y-4206849D01*
X3063494Y-4207002D01*
X3086506Y-4207002D01*
X3087420Y-4206849D01*
X3088233Y-4206443D01*
X3088843Y-4205833D01*
X3089249Y-4205020D01*
X3089402Y-4204106D01*
X3089402Y-4181094D01*
X3089249Y-4180179D01*
X3088843Y-4179366D01*
X3088233Y-4178757D01*
X3087420Y-4178350D01*
X3086506Y-4178198D01*
G37*
G36*
X3163468Y-4178198D02*
G01*
X3162604Y-4178350D01*
X3161131Y-4179366D01*
X3160725Y-4180179D01*
X3160725Y-4205020D01*
X3161131Y-4205833D01*
X3162604Y-4206849D01*
X3163468Y-4207002D01*
X3186531Y-4207002D01*
X3187395Y-4206849D01*
X3188868Y-4205833D01*
X3189274Y-4205020D01*
X3189274Y-4180179D01*
X3188868Y-4179366D01*
X3187395Y-4178350D01*
X3186531Y-4178198D01*
G37*
G36*
X3263493Y-4178198D02*
G01*
X3262579Y-4178350D01*
X3261766Y-4178757D01*
X3261156Y-4179366D01*
X3260750Y-4180179D01*
X3260598Y-4181094D01*
X3260598Y-4204106D01*
X3260750Y-4205020D01*
X3261156Y-4205833D01*
X3261766Y-4206443D01*
X3262579Y-4206849D01*
X3263493Y-4207002D01*
X3286506Y-4207002D01*
X3287420Y-4206849D01*
X3288233Y-4206443D01*
X3288842Y-4205833D01*
X3289249Y-4205020D01*
X3289401Y-4204106D01*
X3289401Y-4181094D01*
X3289249Y-4180179D01*
X3288842Y-4179366D01*
X3288233Y-4178757D01*
X3287420Y-4178350D01*
X3286506Y-4178198D01*
G37*
G36*
X1518767Y-5175453D02*
G01*
X1518767Y-5220411D01*
X1473809Y-5220411D01*
X1473809Y-5176418D01*
X1431798Y-5175910D01*
X1426768Y-5180939D01*
X1426768Y-5295950D01*
X1431798Y-5300929D01*
X1559814Y-5300929D01*
X1564792Y-5295950D01*
X1564792Y-5180939D01*
X1559814Y-5175910D01*
G37*
G36*
X1431798Y-4959959D02*
G01*
X1426768Y-4964938D01*
X1426768Y-5079949D01*
X1431798Y-5084927D01*
X1472793Y-5085435D01*
X1472793Y-5040426D01*
X1517802Y-5040426D01*
X1517802Y-5084419D01*
X1559814Y-5084927D01*
X1564792Y-5079949D01*
X1564792Y-4964938D01*
X1559814Y-4959959D01*
G37*
G36*
X1518767Y-5835853D02*
G01*
X1518767Y-5880811D01*
X1473809Y-5880811D01*
X1473809Y-5836818D01*
X1431798Y-5836310D01*
X1426768Y-5841339D01*
X1426768Y-5956350D01*
X1431798Y-5961329D01*
X1559814Y-5961329D01*
X1564792Y-5956350D01*
X1564792Y-5841339D01*
X1559814Y-5836310D01*
G37*
G36*
X1431798Y-5620359D02*
G01*
X1426768Y-5625338D01*
X1426768Y-5740349D01*
X1431798Y-5745327D01*
X1472793Y-5745835D01*
X1472793Y-5700826D01*
X1517802Y-5700826D01*
X1517802Y-5744819D01*
X1559814Y-5745327D01*
X1564792Y-5740349D01*
X1564792Y-5625338D01*
X1559814Y-5620359D01*
G37*
G36*
X2829001Y-5048758D02*
G01*
X2823972Y-5053736D01*
X2823464Y-5094732D01*
X2868472Y-5094732D01*
X2868472Y-5139740D01*
X2824480Y-5139740D01*
X2823972Y-5181752D01*
X2829001Y-5186730D01*
X2943961Y-5186730D01*
X2948990Y-5181752D01*
X2948990Y-5053736D01*
X2943961Y-5048758D01*
G37*
G36*
X2612999Y-5048707D02*
G01*
X2607970Y-5053736D01*
X2607970Y-5181752D01*
X2612999Y-5186730D01*
X2728010Y-5186730D01*
X2732989Y-5181752D01*
X2733497Y-5140706D01*
X2688488Y-5140706D01*
X2688488Y-5095748D01*
X2732481Y-5095748D01*
X2732989Y-5053736D01*
X2728010Y-5048707D01*
G37*
G36*
X2831795Y-4668113D02*
G01*
X2826816Y-4673092D01*
X2826308Y-4714087D01*
X2871317Y-4714087D01*
X2871317Y-4759096D01*
X2827274Y-4759096D01*
X2826816Y-4801108D01*
X2831795Y-4806086D01*
X2946806Y-4806086D01*
X2951784Y-4801108D01*
X2951784Y-4673092D01*
X2946806Y-4668113D01*
G37*
G36*
X2615793Y-4668113D02*
G01*
X2610815Y-4673092D01*
X2610815Y-4801108D01*
X2615793Y-4806086D01*
X2730804Y-4806086D01*
X2735783Y-4801108D01*
X2736291Y-4760112D01*
X2691282Y-4760112D01*
X2691282Y-4715103D01*
X2735326Y-4715103D01*
X2735783Y-4673092D01*
X2730804Y-4668113D01*
G37*
G36*
X2829001Y-5290058D02*
G01*
X2823972Y-5295036D01*
X2823464Y-5336032D01*
X2868472Y-5336032D01*
X2868472Y-5381040D01*
X2824480Y-5381040D01*
X2823972Y-5423052D01*
X2829001Y-5428030D01*
X2943961Y-5428030D01*
X2948990Y-5423052D01*
X2948990Y-5295036D01*
X2943961Y-5290058D01*
G37*
G36*
X2612999Y-5290007D02*
G01*
X2607970Y-5295036D01*
X2607970Y-5423052D01*
X2612999Y-5428030D01*
X2728010Y-5428030D01*
X2732989Y-5423052D01*
X2733497Y-5382006D01*
X2688488Y-5382006D01*
X2688488Y-5337048D01*
X2732481Y-5337048D01*
X2732989Y-5295036D01*
X2728010Y-5290007D01*
G37*
G36*
X2168398Y-5633516D02*
G01*
X2163368Y-5638546D01*
X2163368Y-5753557D01*
X2168398Y-5758535D01*
X2209393Y-5759043D01*
X2209393Y-5714034D01*
X2254402Y-5714034D01*
X2254402Y-5758027D01*
X2296414Y-5758535D01*
X2301392Y-5753557D01*
X2301392Y-5638546D01*
X2296414Y-5633516D01*
G37*
G36*
X2168398Y-5848553D02*
G01*
X2163368Y-5853531D01*
X2163368Y-5968542D01*
X2168398Y-5973521D01*
X2296414Y-5973521D01*
X2301392Y-5968542D01*
X2301392Y-5853531D01*
X2296414Y-5848553D01*
X2254402Y-5848553D01*
X2254402Y-5893054D01*
X2209393Y-5893054D01*
X2209393Y-5849061D01*
G37*
G36*
X3057398Y-5608116D02*
G01*
X3052368Y-5613146D01*
X3052368Y-5728157D01*
X3057398Y-5733135D01*
X3098393Y-5733643D01*
X3098393Y-5688634D01*
X3143402Y-5688634D01*
X3143402Y-5732627D01*
X3185414Y-5733135D01*
X3190392Y-5728157D01*
X3190392Y-5613146D01*
X3185414Y-5608116D01*
G37*
G36*
X3057398Y-5823153D02*
G01*
X3052368Y-5828131D01*
X3052368Y-5943142D01*
X3057398Y-5948121D01*
X3185414Y-5948121D01*
X3190392Y-5943142D01*
X3190392Y-5828131D01*
X3185414Y-5823153D01*
X3143402Y-5823153D01*
X3143402Y-5867654D01*
X3098393Y-5867654D01*
X3098393Y-5823661D01*
G37*
G36*
X2483967Y-5848045D02*
G01*
X2483967Y-5893054D01*
X2439009Y-5893054D01*
X2439009Y-5849010D01*
X2396998Y-5848553D01*
X2391968Y-5853531D01*
X2391968Y-5968542D01*
X2396998Y-5973521D01*
X2524963Y-5973521D01*
X2529992Y-5968542D01*
X2529992Y-5853531D01*
X2524963Y-5848553D01*
G37*
G36*
X2396998Y-5633516D02*
G01*
X2391968Y-5638546D01*
X2391968Y-5753557D01*
X2396998Y-5758535D01*
X2439009Y-5758535D01*
X2439009Y-5714034D01*
X2483967Y-5714034D01*
X2483967Y-5758027D01*
X2524963Y-5758535D01*
X2529992Y-5753557D01*
X2529992Y-5638546D01*
X2524963Y-5633516D01*
G37*
G36*
X2001367Y-5848045D02*
G01*
X2001367Y-5893054D01*
X1956409Y-5893054D01*
X1956409Y-5849010D01*
X1914398Y-5848553D01*
X1909368Y-5853531D01*
X1909368Y-5968542D01*
X1914398Y-5973521D01*
X2042363Y-5973521D01*
X2047392Y-5968542D01*
X2047392Y-5853531D01*
X2042363Y-5848553D01*
G37*
G36*
X1914398Y-5633516D02*
G01*
X1909368Y-5638546D01*
X1909368Y-5753557D01*
X1914398Y-5758535D01*
X1956409Y-5758535D01*
X1956409Y-5714034D01*
X2001367Y-5714034D01*
X2001367Y-5758027D01*
X2042363Y-5758535D01*
X2047392Y-5753557D01*
X2047392Y-5638546D01*
X2042363Y-5633516D01*
G37*
G36*
X1747367Y-5848045D02*
G01*
X1747367Y-5893054D01*
X1702409Y-5893054D01*
X1702409Y-5849010D01*
X1660398Y-5848553D01*
X1655368Y-5853531D01*
X1655368Y-5968542D01*
X1660398Y-5973521D01*
X1788414Y-5973521D01*
X1793392Y-5968542D01*
X1793392Y-5853531D01*
X1788414Y-5848553D01*
G37*
G36*
X1660398Y-5633516D02*
G01*
X1655368Y-5638546D01*
X1655368Y-5753557D01*
X1660398Y-5758535D01*
X1702409Y-5758535D01*
X1702409Y-5714034D01*
X1747367Y-5714034D01*
X1747367Y-5758027D01*
X1788414Y-5758535D01*
X1793392Y-5753557D01*
X1793392Y-5638546D01*
X1788414Y-5633516D01*
G37*
G36*
X2549093Y-6090158D02*
G01*
X2544114Y-6095136D01*
X2543606Y-6136132D01*
X2588564Y-6136132D01*
X2588564Y-6181140D01*
X2544572Y-6181140D01*
X2544114Y-6223152D01*
X2549093Y-6228130D01*
X2664104Y-6228130D01*
X2669082Y-6223152D01*
X2669082Y-6095136D01*
X2664104Y-6090158D01*
G37*
G36*
X2334107Y-6090158D02*
G01*
X2329078Y-6095136D01*
X2329078Y-6223152D01*
X2334107Y-6228130D01*
X2449068Y-6228130D01*
X2454097Y-6223152D01*
X2454097Y-6181140D01*
X2409596Y-6181140D01*
X2409596Y-6136132D01*
X2453589Y-6136132D01*
X2454097Y-6095136D01*
X2449068Y-6090158D01*
G37*
G36*
X2181707Y-5391607D02*
G01*
X2176678Y-5396636D01*
X2176678Y-5524652D01*
X2181707Y-5529630D01*
X2296668Y-5529630D01*
X2301697Y-5524652D01*
X2302205Y-5483606D01*
X2257196Y-5483606D01*
X2257196Y-5438648D01*
X2301189Y-5438648D01*
X2301697Y-5396636D01*
X2296668Y-5391607D01*
G37*
G36*
X2396693Y-5391607D02*
G01*
X2391714Y-5396636D01*
X2391714Y-5438648D01*
X2436164Y-5438648D01*
X2436164Y-5483606D01*
X2392172Y-5483606D01*
X2391714Y-5524652D01*
X2396693Y-5529630D01*
X2511704Y-5529630D01*
X2516682Y-5524652D01*
X2516682Y-5396636D01*
X2511704Y-5391607D01*
G37*
G36*
X1711807Y-5391607D02*
G01*
X1706778Y-5396636D01*
X1706778Y-5524652D01*
X1711807Y-5529630D01*
X1826768Y-5529630D01*
X1831797Y-5524652D01*
X1832305Y-5483606D01*
X1787296Y-5483606D01*
X1787296Y-5438648D01*
X1831289Y-5438648D01*
X1831797Y-5396636D01*
X1826768Y-5391607D01*
G37*
G36*
X1926793Y-5391607D02*
G01*
X1921814Y-5396636D01*
X1921814Y-5438648D01*
X1966264Y-5438648D01*
X1966264Y-5483606D01*
X1922272Y-5483606D01*
X1921814Y-5524652D01*
X1926793Y-5529630D01*
X2041804Y-5529630D01*
X2046782Y-5524652D01*
X2046782Y-5396636D01*
X2041804Y-5391607D01*
G37*
D10*
G01*
X1737090Y-4935794D03*
G01*
X1737090Y-5274274D03*
D11*
G01*
X1991090Y-5274274D03*
G01*
X1991090Y-4935794D03*
D12*
G01*
X2648479Y-5683138D03*
G01*
X2648479Y-5873130D03*
G01*
X2908501Y-5873130D03*
G01*
X2908501Y-5778134D03*
G01*
X2908501Y-5683138D03*
G01*
X2203979Y-5048138D03*
G01*
X2203979Y-5238130D03*
G01*
X2464001Y-5238130D03*
G01*
X2464001Y-5143134D03*
G01*
X2464001Y-5048138D03*
M02*
