G04 Layer: BottomSolderMaskLayer*
G04 EasyEDA v6.5.51, 2025-09-17 03:24:35*
G04 4f8a5b0b326d43f2b3a6dc604e954ae0,d57bd40a603b42be9e37e0d49851eb9c,10*
G04 Gerber Generator version 0.2*
G04 Scale: 100 percent, Rotated: No, Reflected: No *
G04 Dimensions in millimeters *
G04 leading zeros omitted , absolute positions ,4 integer and 5 decimal *
%FSLAX45Y45*%
%MOMM*%

%AMMACRO1*4,1,8,-0.8709,-0.9007,-0.9007,-0.8709,-0.9007,0.8709,-0.8709,0.9007,0.8709,0.9007,0.9007,0.8709,0.9007,-0.8709,0.8709,-0.9007,-0.8709,-0.9007,0*%
%AMMACRO2*4,1,8,-0.6961,-0.7558,-0.7258,-0.726,-0.7258,0.7261,-0.6961,0.7558,0.696,0.7558,0.7258,0.7261,0.7258,-0.726,0.696,-0.7558,-0.6961,-0.7558,0*%
%AMMACRO3*4,1,8,-0.7261,-0.7258,-0.7558,-0.696,-0.7558,0.6961,-0.7261,0.7258,0.726,0.7258,0.7558,0.6961,0.7558,-0.696,0.726,-0.7258,-0.7261,-0.7258,0*%
%AMMACRO4*4,1,8,-0.5961,-0.5258,-0.6258,-0.496,-0.6258,0.4961,-0.5961,0.5258,0.596,0.5258,0.6258,0.4961,0.6258,-0.496,0.596,-0.5258,-0.5961,-0.5258,0*%
%AMMACRO5*4,1,8,-0.7095,-0.6171,-0.7393,-0.5873,-0.7393,0.5873,-0.7095,0.6171,0.7095,0.6171,0.7393,0.5873,0.7393,-0.5873,0.7095,-0.6171,-0.7095,-0.6171,0*%
%AMMACRO6*4,1,8,-0.5873,-0.7393,-0.6171,-0.7095,-0.6171,0.7095,-0.5873,0.7393,0.5873,0.7393,0.6171,0.7095,0.6171,-0.7095,0.5873,-0.7393,-0.5873,-0.7393,0*%
%AMMACRO7*4,1,8,-0.5711,-0.3508,-0.6008,-0.321,-0.6008,0.3211,-0.5711,0.3508,0.571,0.3508,0.6008,0.3211,0.6008,-0.321,0.571,-0.3508,-0.5711,-0.3508,0*%
%AMMACRO8*4,1,8,-0.9211,-0.9508,-0.9508,-0.921,-0.9508,0.9211,-0.9211,0.9508,0.921,0.9508,0.9508,0.9211,0.9508,-0.921,0.921,-0.9508,-0.9211,-0.9508,0*%
%AMMACRO9*4,1,8,-0.6205,-1.1303,-0.6502,-1.1005,-0.6502,1.1006,-0.6205,1.1303,0.6205,1.1303,0.6502,1.1006,0.6502,-1.1005,0.6205,-1.1303,-0.6205,-1.1303,0*%
%ADD10C,1.8016*%
%ADD11MACRO1*%
%ADD12C,0.3896*%
%ADD13MACRO2*%
%ADD14MACRO3*%
%ADD15C,0.0126*%
%ADD16MACRO4*%
%ADD17MACRO5*%
%ADD18MACRO6*%
%ADD19MACRO7*%
%ADD20C,2.6016*%
%ADD21C,1.7016*%
%ADD22MACRO8*%
%ADD23MACRO9*%
%ADD24O,1.101598X2.101596*%
%ADD25O,1.101598X1.901596*%

%LPD*%
D10*
G01*
X3517900Y-2895600D03*
G01*
X3517900Y-3149600D03*
G01*
X3771900Y-2895600D03*
G01*
X3771900Y-3149600D03*
G01*
X4025900Y-2895600D03*
D11*
G01*
X4025900Y-3149600D03*
D12*
G01*
X3075000Y-4392599D03*
G01*
X3175000Y-4392599D03*
G01*
X3274999Y-4392599D03*
G01*
X3075000Y-4292600D03*
G01*
X3175000Y-4292600D03*
G01*
X3274999Y-4292600D03*
G01*
X3075000Y-4192600D03*
G01*
X3175000Y-4192600D03*
G01*
X3274999Y-4192600D03*
D13*
G01*
X1495790Y-5030431D03*
G01*
X1495790Y-5230436D03*
G01*
X1495790Y-5690831D03*
G01*
X1495790Y-5890836D03*
D14*
G01*
X2678488Y-5117734D03*
G01*
X2878493Y-5117734D03*
G01*
X2681297Y-4737100D03*
G01*
X2881302Y-4737100D03*
G01*
X2678488Y-5359034D03*
G01*
X2878493Y-5359034D03*
D16*
G01*
X1737090Y-4935794D03*
G01*
X1737090Y-5274274D03*
G01*
X1991090Y-5274274D03*
G01*
X1991090Y-4935794D03*
D17*
G01*
X2232390Y-5903539D03*
G01*
X2232390Y-5703529D03*
G01*
X3121390Y-5878139D03*
G01*
X3121390Y-5678129D03*
G01*
X2460990Y-5703529D03*
G01*
X2460990Y-5903539D03*
G01*
X1978390Y-5903539D03*
G01*
X1978390Y-5703529D03*
G01*
X1724390Y-5703529D03*
G01*
X1724390Y-5903539D03*
D18*
G01*
X2399085Y-6159134D03*
G01*
X2599095Y-6159134D03*
G01*
X2446695Y-5460634D03*
G01*
X2246685Y-5460634D03*
G01*
X1976795Y-5460634D03*
G01*
X1776785Y-5460634D03*
D19*
G01*
X2648479Y-5683138D03*
G01*
X2648479Y-5873130D03*
G01*
X2908501Y-5873130D03*
G01*
X2908501Y-5778134D03*
G01*
X2908501Y-5683138D03*
G01*
X2203979Y-5048138D03*
G01*
X2203979Y-5238130D03*
G01*
X2464001Y-5238130D03*
G01*
X2464001Y-5143134D03*
G01*
X2464001Y-5048138D03*
D20*
G01*
X6680200Y-5439613D03*
G01*
X6680200Y-5939612D03*
D21*
G01*
X2273300Y-190500D03*
G01*
X2019300Y-190500D03*
G01*
X1765300Y-190500D03*
G01*
X1511300Y-190500D03*
G01*
X1257300Y-190500D03*
D22*
G01*
X1003300Y-190500D03*
D23*
G01*
X3129280Y-6705600D03*
G01*
X3329939Y-6705600D03*
G01*
X3530600Y-6705600D03*
G01*
X3728719Y-6705600D03*
G01*
X4919980Y-279400D03*
G01*
X5120639Y-279400D03*
G01*
X5321300Y-279400D03*
G01*
X5519419Y-279400D03*
D24*
G01*
X4057218Y-760069D03*
G01*
X3193211Y-760095D03*
D25*
G01*
X3193211Y-340080D03*
G01*
X4057218Y-340080D03*
M02*
