G04 Layer: BottomLayer*
G04 EasyEDA v6.5.51, 2025-09-17 03:24:35*
G04 4f8a5b0b326d43f2b3a6dc604e954ae0,d57bd40a603b42be9e37e0d49851eb9c,10*
G04 Gerber Generator version 0.2*
G04 Scale: 100 percent, Rotated: No, Reflected: No *
G04 Dimensions in millimeters *
G04 leading zeros omitted , absolute positions ,4 integer and 5 decimal *
%FSLAX45Y45*%
%MOMM*%

%AMMACRO1*21,1,$1,$2,0,0,$3*%
%ADD10C,0.2540*%
%ADD11C,0.5080*%
%ADD12C,0.2880*%
%ADD13R,1.3500X1.4100*%
%ADD14MACRO1,1.35X1.41X0.0000*%
%ADD15MACRO1,1.35X1.41X90.0000*%
%ADD16C,0.0117*%
%ADD17MACRO1,0.95X1.15X90.0000*%
%ADD18MACRO1,0.95X1.15X-90.0000*%
%ADD19R,1.3770X1.1325*%
%ADD20MACRO1,1.377X1.1325X0.0000*%
%ADD21MACRO1,1.377X1.1325X90.0000*%
%ADD22MACRO1,1.377X1.1325X-90.0000*%
%ADD23MACRO1,1.1X0.6X0.0000*%
%ADD24C,1.7000*%
%ADD25MACRO1,1.6998X1.6998X0.0000*%
%ADD26C,2.5000*%
%ADD27C,1.6000*%
%ADD28R,1.8000X1.8000*%
%ADD29R,1.1989X2.1590*%
%ADD30O,0.999998X1.999996*%
%ADD31O,0.999998X1.799996*%
%ADD32C,0.6200*%

%LPD*%
G36*
X1155192Y-5807862D02*
G01*
X1151229Y-5807151D01*
X1147826Y-5804916D01*
X956005Y-5613095D01*
X953769Y-5609793D01*
X953008Y-5605881D01*
X953008Y-4887010D01*
X953769Y-4883150D01*
X955954Y-4879848D01*
X959205Y-4877612D01*
X963066Y-4876850D01*
X966978Y-4877562D01*
X973937Y-4880356D01*
X983386Y-4882388D01*
X993038Y-4882845D01*
X1002588Y-4881575D01*
X1011783Y-4878781D01*
X1020419Y-4874412D01*
X1028192Y-4868672D01*
X1034846Y-4861712D01*
X1040231Y-4853736D01*
X1044244Y-4844948D01*
X1046632Y-4835601D01*
X1047496Y-4826000D01*
X1046632Y-4816398D01*
X1044244Y-4807051D01*
X1040231Y-4798263D01*
X1034846Y-4790287D01*
X1032052Y-4787341D01*
X1029919Y-4784090D01*
X1029208Y-4780280D01*
X1029208Y-3919118D01*
X1029969Y-3915206D01*
X1032205Y-3911904D01*
X1061618Y-3882491D01*
X1065123Y-3880205D01*
X1078788Y-3878275D01*
X1087983Y-3875481D01*
X1096619Y-3871112D01*
X1100886Y-3867962D01*
X1104950Y-3866184D01*
X1109421Y-3866286D01*
X1113383Y-3868267D01*
X1116126Y-3871772D01*
X1117092Y-3876141D01*
X1117092Y-5231892D01*
X1117904Y-5239918D01*
X1120089Y-5247132D01*
X1123645Y-5253837D01*
X1128776Y-5260035D01*
X1197660Y-5328970D01*
X1199845Y-5332272D01*
X1200658Y-5336133D01*
X1200658Y-5338826D01*
X1202283Y-5348325D01*
X1205484Y-5357418D01*
X1210157Y-5365851D01*
X1216253Y-5373370D01*
X1223467Y-5379720D01*
X1231696Y-5384800D01*
X1240637Y-5388356D01*
X1250086Y-5390388D01*
X1259738Y-5390845D01*
X1269288Y-5389575D01*
X1278483Y-5386781D01*
X1287119Y-5382412D01*
X1294892Y-5376672D01*
X1301546Y-5369712D01*
X1306931Y-5361736D01*
X1310944Y-5352948D01*
X1313332Y-5343601D01*
X1314196Y-5334000D01*
X1313332Y-5324398D01*
X1310944Y-5315051D01*
X1306931Y-5306263D01*
X1301546Y-5298287D01*
X1294892Y-5291328D01*
X1287119Y-5285587D01*
X1278483Y-5281218D01*
X1269288Y-5278424D01*
X1255623Y-5276494D01*
X1252118Y-5274208D01*
X1197305Y-5219395D01*
X1195070Y-5216093D01*
X1194308Y-5212181D01*
X1194308Y-4620310D01*
X1195070Y-4616450D01*
X1197254Y-4613148D01*
X1200505Y-4610912D01*
X1204366Y-4610150D01*
X1208278Y-4610862D01*
X1215237Y-4613656D01*
X1224686Y-4615688D01*
X1234338Y-4616145D01*
X1243888Y-4614875D01*
X1253083Y-4612081D01*
X1261719Y-4607712D01*
X1269492Y-4601972D01*
X1276146Y-4595012D01*
X1281531Y-4587036D01*
X1285544Y-4578248D01*
X1287932Y-4568901D01*
X1288643Y-4560519D01*
X1289558Y-4557115D01*
X1291590Y-4554169D01*
X1841804Y-4004005D01*
X1845106Y-4001770D01*
X1849018Y-4001008D01*
X2651607Y-4001008D01*
X2655316Y-4001719D01*
X2658516Y-4003751D01*
X2660802Y-4006799D01*
X2661767Y-4010456D01*
X2661310Y-4014215D01*
X2659532Y-4017568D01*
X2657957Y-4019448D01*
X2653284Y-4027881D01*
X2650083Y-4036974D01*
X2648458Y-4046474D01*
X2648458Y-4056126D01*
X2650083Y-4065625D01*
X2653284Y-4074718D01*
X2657957Y-4083151D01*
X2664053Y-4090670D01*
X2671267Y-4097020D01*
X2679496Y-4102100D01*
X2688437Y-4105656D01*
X2697886Y-4107687D01*
X2707640Y-4108094D01*
X2711805Y-4108450D01*
X2715514Y-4110431D01*
X2718054Y-4113682D01*
X2719120Y-4117746D01*
X2718409Y-4121861D01*
X2716123Y-4125366D01*
X2690571Y-4150918D01*
X2687269Y-4153154D01*
X2683357Y-4153915D01*
X1827784Y-4153915D01*
X1819757Y-4154728D01*
X1812543Y-4156913D01*
X1805838Y-4160469D01*
X1799640Y-4165600D01*
X1370076Y-4595164D01*
X1364945Y-4601362D01*
X1361389Y-4608068D01*
X1359204Y-4615281D01*
X1358392Y-4623308D01*
X1358392Y-5364581D01*
X1357630Y-5368493D01*
X1355394Y-5371795D01*
X1192276Y-5534964D01*
X1187145Y-5541162D01*
X1183589Y-5547868D01*
X1181404Y-5555081D01*
X1180592Y-5563108D01*
X1180592Y-5770626D01*
X1180033Y-5774029D01*
X1178356Y-5777026D01*
X1172057Y-5784748D01*
X1167384Y-5793181D01*
X1164590Y-5801106D01*
X1162456Y-5804611D01*
X1159154Y-5806998D01*
G37*

%LPD*%
G36*
X2739085Y-5913882D02*
G01*
X2735072Y-5912916D01*
X2731770Y-5910376D01*
X2729788Y-5906719D01*
X2729382Y-5902553D01*
X2729382Y-5851042D01*
X2730195Y-5847130D01*
X2732379Y-5843828D01*
X2816453Y-5759754D01*
X2819755Y-5757570D01*
X2823616Y-5756757D01*
X2874619Y-5756757D01*
X2874619Y-5749188D01*
X2875381Y-5745327D01*
X2877616Y-5742025D01*
X2880918Y-5739841D01*
X2884779Y-5739028D01*
X2932176Y-5739028D01*
X2936036Y-5739841D01*
X2939338Y-5742025D01*
X2941574Y-5745327D01*
X2942336Y-5749188D01*
X2942336Y-5756757D01*
X2955137Y-5756757D01*
X2959201Y-5757621D01*
X2962605Y-5760059D01*
X2964738Y-5763615D01*
X2965246Y-5767730D01*
X2964078Y-5771743D01*
X2961589Y-5776468D01*
X2959404Y-5783681D01*
X2958744Y-5790336D01*
X2957677Y-5793892D01*
X2955442Y-5796838D01*
X2952292Y-5798820D01*
X2948635Y-5799480D01*
X2942336Y-5799480D01*
X2942336Y-5807049D01*
X2941574Y-5810961D01*
X2939338Y-5814263D01*
X2936036Y-5816447D01*
X2932176Y-5817209D01*
X2884779Y-5817209D01*
X2880918Y-5816447D01*
X2877616Y-5814263D01*
X2875381Y-5810961D01*
X2874619Y-5807049D01*
X2874619Y-5799480D01*
X2827578Y-5799480D01*
X2827578Y-5807557D01*
X2828290Y-5813907D01*
X2830220Y-5819343D01*
X2832201Y-5823762D01*
X2832201Y-5827522D01*
X2830880Y-5830976D01*
X2827731Y-5835446D01*
X2825496Y-5837021D01*
X2817520Y-5841238D01*
X2811322Y-5846318D01*
X2746654Y-5910935D01*
X2743200Y-5913221D01*
G37*

%LPD*%
G36*
X3224276Y-6832092D02*
G01*
X3220110Y-6831177D01*
X3216656Y-6828688D01*
X3214573Y-6824929D01*
X3214166Y-6820712D01*
X3215132Y-6812940D01*
X3215132Y-6598208D01*
X3214420Y-6591909D01*
X3212490Y-6586423D01*
X3209442Y-6581546D01*
X3205327Y-6577431D01*
X3200450Y-6574383D01*
X3194964Y-6572453D01*
X3188665Y-6571742D01*
X3096768Y-6571742D01*
X3092856Y-6570980D01*
X3089605Y-6568744D01*
X3087370Y-6565493D01*
X3086608Y-6561581D01*
X3086608Y-5970828D01*
X3087370Y-5966968D01*
X3089605Y-5963666D01*
X3092856Y-5961430D01*
X3096768Y-5960668D01*
X3189681Y-5960668D01*
X3195980Y-5959957D01*
X3201466Y-5958027D01*
X3206343Y-5954979D01*
X3210458Y-5950864D01*
X3213506Y-5945987D01*
X3215436Y-5940501D01*
X3216148Y-5934202D01*
X3216148Y-5822086D01*
X3215436Y-5815736D01*
X3213506Y-5810300D01*
X3210458Y-5805424D01*
X3206343Y-5801309D01*
X3201466Y-5798210D01*
X3195980Y-5796330D01*
X3189681Y-5795619D01*
X3075990Y-5795619D01*
X3072028Y-5794806D01*
X3068675Y-5792520D01*
X3066491Y-5789117D01*
X3065830Y-5785104D01*
X3066745Y-5781192D01*
X3069132Y-5777941D01*
X3085185Y-5763310D01*
X3088386Y-5761329D01*
X3092043Y-5760669D01*
X3189681Y-5760669D01*
X3195980Y-5759958D01*
X3201466Y-5758027D01*
X3206343Y-5754979D01*
X3210458Y-5750864D01*
X3213506Y-5745988D01*
X3215436Y-5740501D01*
X3216148Y-5734202D01*
X3216148Y-5622086D01*
X3215436Y-5615736D01*
X3213506Y-5610301D01*
X3210458Y-5605373D01*
X3206343Y-5601309D01*
X3201466Y-5598210D01*
X3195980Y-5596331D01*
X3189681Y-5595620D01*
X3053130Y-5595620D01*
X3046780Y-5596331D01*
X3041345Y-5598210D01*
X3036417Y-5601309D01*
X3032556Y-5605170D01*
X3029254Y-5607405D01*
X3025343Y-5608167D01*
X3021482Y-5607405D01*
X3018180Y-5605170D01*
X2993390Y-5580430D01*
X2991358Y-5577484D01*
X2990443Y-5574080D01*
X2989732Y-5565698D01*
X2987344Y-5556351D01*
X2983331Y-5547563D01*
X2977946Y-5539587D01*
X2971292Y-5532628D01*
X2963976Y-5527192D01*
X2961132Y-5523941D01*
X2959912Y-5519775D01*
X2960522Y-5515508D01*
X2962859Y-5511850D01*
X3034030Y-5440629D01*
X3039160Y-5434431D01*
X3042716Y-5427726D01*
X3044901Y-5420512D01*
X3045714Y-5412486D01*
X3045714Y-5270754D01*
X3044901Y-5262727D01*
X3042716Y-5255514D01*
X3039160Y-5248808D01*
X3034030Y-5242610D01*
X2996641Y-5205222D01*
X2990443Y-5200091D01*
X2983738Y-5196535D01*
X2982010Y-5195976D01*
X2978200Y-5193842D01*
X2975660Y-5190337D01*
X2974797Y-5186121D01*
X2974898Y-5179060D01*
X2975711Y-5175199D01*
X2977946Y-5171948D01*
X2981198Y-5169814D01*
X2985058Y-5169052D01*
X3034436Y-5169052D01*
X3038246Y-5169763D01*
X3044037Y-5172100D01*
X3053486Y-5174132D01*
X3063138Y-5174589D01*
X3072688Y-5173319D01*
X3081883Y-5170525D01*
X3090519Y-5166156D01*
X3098292Y-5160416D01*
X3104946Y-5153456D01*
X3110331Y-5145481D01*
X3114344Y-5136692D01*
X3116732Y-5127345D01*
X3117596Y-5117744D01*
X3116732Y-5108143D01*
X3114344Y-5098796D01*
X3110331Y-5090007D01*
X3104946Y-5082032D01*
X3098292Y-5075072D01*
X3090519Y-5069332D01*
X3081883Y-5064963D01*
X3072688Y-5062169D01*
X3063138Y-5060899D01*
X3053486Y-5061356D01*
X3044037Y-5063388D01*
X3038246Y-5065725D01*
X3034436Y-5066436D01*
X2985058Y-5066436D01*
X2981198Y-5065674D01*
X2977896Y-5063439D01*
X2975660Y-5060188D01*
X2974898Y-5056276D01*
X2974898Y-5050790D01*
X2974187Y-5044490D01*
X2972257Y-5039004D01*
X2969209Y-5034127D01*
X2965094Y-5030012D01*
X2960217Y-5026964D01*
X2954731Y-5025034D01*
X2948432Y-5024323D01*
X2939999Y-5024323D01*
X2936087Y-5023561D01*
X2932785Y-5021376D01*
X2930601Y-5018074D01*
X2929839Y-5014163D01*
X2929788Y-4840681D01*
X2930550Y-4836769D01*
X2932785Y-4833467D01*
X2936087Y-4831283D01*
X2939948Y-4830521D01*
X2951226Y-4830521D01*
X2957576Y-4829810D01*
X2963011Y-4827879D01*
X2967939Y-4824780D01*
X2972003Y-4820716D01*
X2975102Y-4815789D01*
X2976981Y-4810353D01*
X2977692Y-4804054D01*
X2977692Y-4670145D01*
X2976981Y-4663846D01*
X2975102Y-4658410D01*
X2972003Y-4653483D01*
X2967939Y-4649419D01*
X2963011Y-4646320D01*
X2957576Y-4644390D01*
X2951226Y-4643678D01*
X2811373Y-4643678D01*
X2805074Y-4644390D01*
X2799588Y-4646320D01*
X2794711Y-4649419D01*
X2790596Y-4653483D01*
X2787091Y-4657547D01*
X2783332Y-4659122D01*
X2779268Y-4659122D01*
X2775508Y-4657547D01*
X2772003Y-4653483D01*
X2767888Y-4649419D01*
X2763012Y-4646320D01*
X2757525Y-4644390D01*
X2751226Y-4643678D01*
X2722880Y-4643678D01*
X2722880Y-4697018D01*
X2774746Y-4697018D01*
X2778607Y-4697780D01*
X2781909Y-4699965D01*
X2784144Y-4703267D01*
X2784906Y-4707178D01*
X2784906Y-4767021D01*
X2784144Y-4770932D01*
X2781909Y-4774234D01*
X2778607Y-4776419D01*
X2774746Y-4777181D01*
X2722880Y-4777181D01*
X2722880Y-4830521D01*
X2726944Y-4831334D01*
X2730246Y-4833620D01*
X2732430Y-4837074D01*
X2733090Y-4841087D01*
X2732125Y-4845050D01*
X2729636Y-4848301D01*
X2727553Y-4850130D01*
X2721457Y-4857648D01*
X2716784Y-4866081D01*
X2713583Y-4875174D01*
X2711958Y-4884674D01*
X2711958Y-4891379D01*
X2711043Y-4895494D01*
X2708605Y-4898898D01*
X2704947Y-4901031D01*
X2700274Y-4901438D01*
X2530195Y-4901438D01*
X2525928Y-4900523D01*
X2522474Y-4897882D01*
X2520442Y-4894021D01*
X2520188Y-4889652D01*
X2521813Y-4885588D01*
X2526131Y-4879136D01*
X2530144Y-4870348D01*
X2532532Y-4861001D01*
X2533396Y-4851400D01*
X2532532Y-4841798D01*
X2530144Y-4832451D01*
X2526131Y-4823663D01*
X2520746Y-4815687D01*
X2517952Y-4812741D01*
X2515819Y-4809490D01*
X2515108Y-4805680D01*
X2515108Y-4731918D01*
X2515870Y-4728006D01*
X2518105Y-4724704D01*
X2567533Y-4675276D01*
X2570835Y-4673041D01*
X2574747Y-4672279D01*
X2578608Y-4673041D01*
X2581910Y-4675276D01*
X2584094Y-4678527D01*
X2584907Y-4682439D01*
X2584907Y-4697018D01*
X2639720Y-4697018D01*
X2639720Y-4643678D01*
X2623616Y-4643678D01*
X2619756Y-4642916D01*
X2616454Y-4640732D01*
X2614269Y-4637430D01*
X2613456Y-4633518D01*
X2614269Y-4629658D01*
X2616504Y-4626305D01*
X2619806Y-4624070D01*
X2623718Y-4623308D01*
X3142081Y-4623308D01*
X3145993Y-4624070D01*
X3149295Y-4626305D01*
X3527094Y-5004104D01*
X3529329Y-5007406D01*
X3530092Y-5011318D01*
X3530092Y-5698845D01*
X3529380Y-5702604D01*
X3527247Y-5705856D01*
X3524097Y-5708091D01*
X3520338Y-5708954D01*
X3510686Y-5709412D01*
X3501237Y-5711444D01*
X3492296Y-5715000D01*
X3484067Y-5720080D01*
X3476853Y-5726430D01*
X3470757Y-5733948D01*
X3466084Y-5742381D01*
X3462883Y-5751474D01*
X3461258Y-5760974D01*
X3461258Y-5770626D01*
X3462883Y-5780125D01*
X3466084Y-5789218D01*
X3470757Y-5797651D01*
X3476853Y-5805170D01*
X3484067Y-5811520D01*
X3496919Y-5819292D01*
X3499154Y-5822594D01*
X3499967Y-5826506D01*
X3499205Y-5830417D01*
X3496970Y-5833719D01*
X3300476Y-6030264D01*
X3295345Y-6036462D01*
X3291789Y-6043168D01*
X3289604Y-6050381D01*
X3288792Y-6058408D01*
X3288792Y-6209792D01*
X3289604Y-6217818D01*
X3291789Y-6225032D01*
X3295345Y-6231737D01*
X3300476Y-6237935D01*
X3400094Y-6337604D01*
X3402329Y-6340906D01*
X3403092Y-6344818D01*
X3403092Y-6481826D01*
X3402533Y-6485229D01*
X3400856Y-6488226D01*
X3394557Y-6495948D01*
X3389884Y-6504381D01*
X3386683Y-6513474D01*
X3385058Y-6522974D01*
X3385058Y-6532626D01*
X3386683Y-6542125D01*
X3389884Y-6551218D01*
X3392881Y-6556603D01*
X3394151Y-6560616D01*
X3393643Y-6564782D01*
X3391560Y-6568440D01*
X3388106Y-6570878D01*
X3384042Y-6571742D01*
X3270554Y-6571742D01*
X3264255Y-6572453D01*
X3258769Y-6574383D01*
X3253892Y-6577431D01*
X3249777Y-6581546D01*
X3246729Y-6586423D01*
X3244799Y-6591909D01*
X3244088Y-6598208D01*
X3244088Y-6812940D01*
X3245053Y-6820712D01*
X3244646Y-6824929D01*
X3242564Y-6828688D01*
X3239109Y-6831177D01*
X3234944Y-6832092D01*
G37*

%LPC*%
G36*
X3240938Y-5416245D02*
G01*
X3250488Y-5414975D01*
X3259683Y-5412181D01*
X3268319Y-5407812D01*
X3276092Y-5402072D01*
X3282746Y-5395112D01*
X3288131Y-5387136D01*
X3292144Y-5378348D01*
X3294532Y-5369001D01*
X3295396Y-5359400D01*
X3294532Y-5349798D01*
X3292144Y-5340451D01*
X3288131Y-5331663D01*
X3282746Y-5323687D01*
X3279952Y-5320741D01*
X3277819Y-5317490D01*
X3277108Y-5313680D01*
X3277108Y-5105908D01*
X3276295Y-5097881D01*
X3274110Y-5090668D01*
X3270554Y-5083962D01*
X3265424Y-5077764D01*
X3221990Y-5034330D01*
X3219958Y-5031384D01*
X3219043Y-5027980D01*
X3218332Y-5019598D01*
X3215944Y-5010251D01*
X3211931Y-5001463D01*
X3206546Y-4993487D01*
X3199892Y-4986528D01*
X3192119Y-4980787D01*
X3183483Y-4976418D01*
X3174288Y-4973624D01*
X3164738Y-4972354D01*
X3155086Y-4972812D01*
X3145637Y-4974844D01*
X3136696Y-4978400D01*
X3128467Y-4983480D01*
X3121253Y-4989830D01*
X3115157Y-4997348D01*
X3110484Y-5005781D01*
X3107283Y-5014874D01*
X3105658Y-5024374D01*
X3105658Y-5034026D01*
X3107283Y-5043525D01*
X3110484Y-5052618D01*
X3115157Y-5061051D01*
X3121253Y-5068570D01*
X3128467Y-5074920D01*
X3136696Y-5080000D01*
X3145637Y-5083556D01*
X3155086Y-5085588D01*
X3160572Y-5085842D01*
X3164230Y-5086705D01*
X3167329Y-5088788D01*
X3196894Y-5118404D01*
X3199130Y-5121706D01*
X3199892Y-5125618D01*
X3199892Y-5313426D01*
X3199333Y-5316829D01*
X3197656Y-5319826D01*
X3191357Y-5327548D01*
X3186684Y-5335981D01*
X3183483Y-5345074D01*
X3181858Y-5354574D01*
X3181858Y-5364226D01*
X3183483Y-5373725D01*
X3186684Y-5382818D01*
X3191357Y-5391251D01*
X3197453Y-5398770D01*
X3204667Y-5405120D01*
X3212896Y-5410200D01*
X3221837Y-5413756D01*
X3231286Y-5415788D01*
G37*
G36*
X2611374Y-4830521D02*
G01*
X2639720Y-4830521D01*
X2639720Y-4777181D01*
X2584907Y-4777181D01*
X2584907Y-4804054D01*
X2585618Y-4810353D01*
X2587498Y-4815789D01*
X2590596Y-4820716D01*
X2594660Y-4824780D01*
X2599588Y-4827879D01*
X2605024Y-4829810D01*
G37*

%LPD*%
G36*
X2865018Y-6920992D02*
G01*
X2861106Y-6920230D01*
X2857804Y-6917994D01*
X2337917Y-6398107D01*
X2335479Y-6394297D01*
X2334971Y-6389827D01*
X2336444Y-6385610D01*
X2339594Y-6382359D01*
X2343810Y-6380835D01*
X2348788Y-6380175D01*
X2357983Y-6377381D01*
X2366619Y-6373012D01*
X2371293Y-6370320D01*
X2374900Y-6369964D01*
X2378354Y-6370878D01*
X2381300Y-6372910D01*
X2531160Y-6522770D01*
X2533345Y-6526072D01*
X2534158Y-6529933D01*
X2534158Y-6532626D01*
X2535783Y-6542125D01*
X2538984Y-6551218D01*
X2543657Y-6559651D01*
X2549753Y-6567170D01*
X2556967Y-6573520D01*
X2565196Y-6578600D01*
X2574137Y-6582156D01*
X2583586Y-6584188D01*
X2593238Y-6584645D01*
X2602788Y-6583375D01*
X2611983Y-6580581D01*
X2620619Y-6576212D01*
X2628392Y-6570472D01*
X2635046Y-6563512D01*
X2640431Y-6555536D01*
X2644444Y-6546748D01*
X2646832Y-6537401D01*
X2647696Y-6527800D01*
X2646832Y-6518198D01*
X2644444Y-6508851D01*
X2640431Y-6500063D01*
X2635046Y-6492087D01*
X2628392Y-6485128D01*
X2620619Y-6479387D01*
X2611983Y-6475018D01*
X2602788Y-6472224D01*
X2589123Y-6470294D01*
X2585618Y-6468008D01*
X2415235Y-6297676D01*
X2409037Y-6292545D01*
X2402332Y-6288989D01*
X2395118Y-6286804D01*
X2387092Y-6285992D01*
X2382621Y-6285992D01*
X2378659Y-6285179D01*
X2366619Y-6276187D01*
X2360574Y-6273139D01*
X2357170Y-6270345D01*
X2355291Y-6266434D01*
X2355189Y-6262065D01*
X2356967Y-6258052D01*
X2360218Y-6255156D01*
X2364435Y-6253937D01*
X2364435Y-6199886D01*
X2316530Y-6199886D01*
X2316530Y-6227419D01*
X2317242Y-6233718D01*
X2319172Y-6239205D01*
X2322271Y-6244082D01*
X2326335Y-6248196D01*
X2329738Y-6250330D01*
X2332634Y-6253073D01*
X2334260Y-6256680D01*
X2334361Y-6260693D01*
X2332888Y-6264402D01*
X2330145Y-6267246D01*
X2326487Y-6268872D01*
X2320137Y-6270244D01*
X2311196Y-6273800D01*
X2302967Y-6278880D01*
X2295753Y-6285230D01*
X2289657Y-6292748D01*
X2284984Y-6301181D01*
X2281783Y-6310274D01*
X2280462Y-6317996D01*
X2278786Y-6322060D01*
X2275535Y-6325057D01*
X2271318Y-6326378D01*
X2266950Y-6325819D01*
X2263241Y-6323431D01*
X1940610Y-6000800D01*
X1938375Y-5997498D01*
X1937613Y-5993587D01*
X1937613Y-5938215D01*
X1882190Y-5938215D01*
X1878330Y-5937453D01*
X1875028Y-5935218D01*
X1822145Y-5882335D01*
X1819910Y-5879033D01*
X1819148Y-5875121D01*
X1819148Y-5847486D01*
X1818436Y-5841136D01*
X1816506Y-5835700D01*
X1813458Y-5830824D01*
X1809343Y-5826709D01*
X1804466Y-5823610D01*
X1798980Y-5821730D01*
X1792681Y-5821019D01*
X1656130Y-5821019D01*
X1649780Y-5821730D01*
X1644345Y-5823610D01*
X1639417Y-5826709D01*
X1635353Y-5830824D01*
X1632254Y-5835700D01*
X1630324Y-5841136D01*
X1629613Y-5847486D01*
X1629613Y-5959602D01*
X1630324Y-5965901D01*
X1630984Y-5967679D01*
X1631543Y-5971489D01*
X1630629Y-5975248D01*
X1628394Y-5978398D01*
X1625142Y-5980480D01*
X1621383Y-5981192D01*
X1597863Y-5981192D01*
X1594104Y-5980480D01*
X1590852Y-5978398D01*
X1588617Y-5975248D01*
X1587703Y-5971489D01*
X1588465Y-5967069D01*
X1589176Y-5960770D01*
X1589176Y-5820918D01*
X1588465Y-5814568D01*
X1586585Y-5809132D01*
X1583486Y-5804204D01*
X1579422Y-5800140D01*
X1575358Y-5796635D01*
X1573733Y-5792876D01*
X1573733Y-5788812D01*
X1575358Y-5785053D01*
X1579422Y-5781548D01*
X1583486Y-5777433D01*
X1586585Y-5772556D01*
X1588465Y-5767070D01*
X1589176Y-5760770D01*
X1589176Y-5739587D01*
X1589989Y-5735726D01*
X1592173Y-5732424D01*
X1595475Y-5730240D01*
X1599336Y-5729427D01*
X1619453Y-5729427D01*
X1623364Y-5730240D01*
X1626666Y-5732424D01*
X1628851Y-5735726D01*
X1629613Y-5739587D01*
X1629613Y-5759602D01*
X1630324Y-5765901D01*
X1632254Y-5771388D01*
X1635353Y-5776264D01*
X1639417Y-5780379D01*
X1644345Y-5783427D01*
X1649780Y-5785358D01*
X1656130Y-5786069D01*
X1792681Y-5786069D01*
X1798980Y-5785358D01*
X1804466Y-5783427D01*
X1809343Y-5780379D01*
X1813458Y-5776264D01*
X1816506Y-5771388D01*
X1818436Y-5765901D01*
X1819148Y-5759602D01*
X1819148Y-5752287D01*
X1819910Y-5748426D01*
X1822145Y-5745124D01*
X1825396Y-5742940D01*
X1829307Y-5742127D01*
X1873453Y-5742127D01*
X1877364Y-5742940D01*
X1880666Y-5745124D01*
X1882851Y-5748426D01*
X1883613Y-5752287D01*
X1883613Y-5759602D01*
X1884324Y-5765901D01*
X1886254Y-5771388D01*
X1889353Y-5776264D01*
X1893417Y-5780379D01*
X1898345Y-5783427D01*
X1903780Y-5785358D01*
X1910130Y-5786069D01*
X2046681Y-5786069D01*
X2052980Y-5785358D01*
X2058466Y-5783427D01*
X2063343Y-5780379D01*
X2067458Y-5776264D01*
X2070506Y-5771388D01*
X2072436Y-5765901D01*
X2073148Y-5759602D01*
X2073148Y-5647486D01*
X2072436Y-5641136D01*
X2070506Y-5635701D01*
X2067458Y-5630773D01*
X2063343Y-5626709D01*
X2058466Y-5623610D01*
X2052980Y-5621731D01*
X2046681Y-5621020D01*
X1910130Y-5621020D01*
X1903780Y-5621731D01*
X1898345Y-5623610D01*
X1893417Y-5626709D01*
X1889353Y-5630773D01*
X1886254Y-5635701D01*
X1884324Y-5641136D01*
X1883613Y-5647486D01*
X1883613Y-5654751D01*
X1882851Y-5658662D01*
X1880666Y-5661964D01*
X1877364Y-5664149D01*
X1873453Y-5664911D01*
X1829307Y-5664911D01*
X1825396Y-5664149D01*
X1822145Y-5661964D01*
X1819910Y-5658662D01*
X1819148Y-5654751D01*
X1819148Y-5647486D01*
X1818436Y-5641136D01*
X1816506Y-5635701D01*
X1813458Y-5630773D01*
X1809343Y-5626709D01*
X1804466Y-5623610D01*
X1798980Y-5621731D01*
X1792681Y-5621020D01*
X1656130Y-5621020D01*
X1649780Y-5621731D01*
X1644345Y-5623610D01*
X1639417Y-5626709D01*
X1635353Y-5630773D01*
X1632254Y-5635701D01*
X1630324Y-5641136D01*
X1630121Y-5643219D01*
X1629054Y-5646724D01*
X1626768Y-5649620D01*
X1623618Y-5651550D01*
X1620012Y-5652211D01*
X1599336Y-5652211D01*
X1595475Y-5651449D01*
X1592173Y-5649264D01*
X1589989Y-5645962D01*
X1589176Y-5642051D01*
X1589176Y-5620918D01*
X1588465Y-5614568D01*
X1586585Y-5609132D01*
X1583486Y-5604205D01*
X1579422Y-5600141D01*
X1574495Y-5597042D01*
X1569516Y-5595315D01*
X1566062Y-5593232D01*
X1563674Y-5589981D01*
X1562709Y-5586018D01*
X1563420Y-5582056D01*
X1565554Y-5578652D01*
X1568907Y-5576366D01*
X1572869Y-5575554D01*
X1700022Y-5575554D01*
X1708048Y-5574741D01*
X1715262Y-5572556D01*
X1721967Y-5569000D01*
X1728165Y-5563870D01*
X1733702Y-5558383D01*
X1737004Y-5556148D01*
X1740916Y-5555386D01*
X1832864Y-5555386D01*
X1839163Y-5554675D01*
X1844649Y-5552744D01*
X1849526Y-5549696D01*
X1853641Y-5545582D01*
X1856689Y-5540705D01*
X1858619Y-5535218D01*
X1859330Y-5528919D01*
X1859330Y-5392369D01*
X1858619Y-5386019D01*
X1856689Y-5380583D01*
X1853641Y-5375656D01*
X1849526Y-5371592D01*
X1844649Y-5368493D01*
X1839163Y-5366562D01*
X1832864Y-5365851D01*
X1806143Y-5365851D01*
X1802180Y-5365089D01*
X1798828Y-5362803D01*
X1796643Y-5359400D01*
X1795983Y-5355386D01*
X1796897Y-5351475D01*
X1799336Y-5348173D01*
X1802790Y-5346141D01*
X1805787Y-5345074D01*
X1810715Y-5341975D01*
X1814779Y-5337911D01*
X1817878Y-5332984D01*
X1819808Y-5327548D01*
X1820519Y-5321198D01*
X1820519Y-5227370D01*
X1819808Y-5221020D01*
X1817878Y-5215585D01*
X1814779Y-5210657D01*
X1810715Y-5206593D01*
X1805787Y-5203494D01*
X1800352Y-5201564D01*
X1794002Y-5200853D01*
X1680159Y-5200853D01*
X1673860Y-5201564D01*
X1668373Y-5203494D01*
X1663496Y-5206593D01*
X1659382Y-5210657D01*
X1656283Y-5215585D01*
X1654403Y-5221020D01*
X1653743Y-5226659D01*
X1652676Y-5230164D01*
X1650441Y-5233060D01*
X1647291Y-5234990D01*
X1643684Y-5235651D01*
X1599336Y-5235651D01*
X1595475Y-5234889D01*
X1592173Y-5232704D01*
X1589989Y-5229402D01*
X1589176Y-5225491D01*
X1589176Y-5160518D01*
X1588465Y-5154168D01*
X1586585Y-5148732D01*
X1583486Y-5143804D01*
X1579422Y-5139740D01*
X1575358Y-5136235D01*
X1573733Y-5132476D01*
X1573733Y-5128412D01*
X1575358Y-5124653D01*
X1579422Y-5121148D01*
X1583486Y-5117033D01*
X1586585Y-5112156D01*
X1588465Y-5106670D01*
X1589176Y-5100370D01*
X1589176Y-5072024D01*
X1535887Y-5072024D01*
X1535887Y-5123891D01*
X1535125Y-5127752D01*
X1532890Y-5131054D01*
X1529638Y-5133238D01*
X1525727Y-5134051D01*
X1465834Y-5134051D01*
X1461973Y-5133238D01*
X1458671Y-5131054D01*
X1456486Y-5127752D01*
X1455674Y-5123891D01*
X1455674Y-5072024D01*
X1445768Y-5072024D01*
X1441856Y-5071262D01*
X1438605Y-5069078D01*
X1436370Y-5065776D01*
X1435608Y-5061864D01*
X1435608Y-4998974D01*
X1436370Y-4995113D01*
X1438605Y-4991811D01*
X1441856Y-4989626D01*
X1445768Y-4988814D01*
X1455674Y-4988814D01*
X1455674Y-4934000D01*
X1445768Y-4934000D01*
X1441856Y-4933238D01*
X1438605Y-4931054D01*
X1436370Y-4927752D01*
X1435608Y-4923840D01*
X1435608Y-4643018D01*
X1436370Y-4639106D01*
X1438605Y-4635804D01*
X1840280Y-4234129D01*
X1843582Y-4231894D01*
X1847494Y-4231132D01*
X2446121Y-4231132D01*
X2450033Y-4231894D01*
X2453335Y-4234129D01*
X2455519Y-4237380D01*
X2456281Y-4241292D01*
X2455519Y-4245203D01*
X2453335Y-4248454D01*
X1897329Y-4804511D01*
X1894230Y-4806594D01*
X1890572Y-4807458D01*
X1885086Y-4807712D01*
X1875637Y-4809744D01*
X1866696Y-4813300D01*
X1858467Y-4818380D01*
X1851253Y-4824730D01*
X1845157Y-4832248D01*
X1840484Y-4840681D01*
X1837283Y-4849774D01*
X1835657Y-4859274D01*
X1835708Y-4870094D01*
X1834794Y-4874361D01*
X1832203Y-4877866D01*
X1828393Y-4879898D01*
X1824024Y-4880203D01*
X1819960Y-4878679D01*
X1816912Y-4875580D01*
X1814779Y-4872177D01*
X1810715Y-4868062D01*
X1805787Y-4865014D01*
X1800352Y-4863084D01*
X1794002Y-4862372D01*
X1680159Y-4862372D01*
X1673860Y-4863084D01*
X1668373Y-4865014D01*
X1663496Y-4868062D01*
X1659382Y-4872177D01*
X1656283Y-4877054D01*
X1654403Y-4882540D01*
X1653692Y-4888839D01*
X1653692Y-4982718D01*
X1654403Y-4989017D01*
X1656283Y-4994503D01*
X1659382Y-4999380D01*
X1663496Y-5003495D01*
X1668373Y-5006594D01*
X1673860Y-5008473D01*
X1680159Y-5009184D01*
X1794002Y-5009184D01*
X1800352Y-5008473D01*
X1805787Y-5006594D01*
X1810715Y-5003495D01*
X1814779Y-4999380D01*
X1817878Y-4994503D01*
X1819808Y-4989017D01*
X1820418Y-4983429D01*
X1821484Y-4979873D01*
X1823770Y-4976977D01*
X1826869Y-4975047D01*
X1830527Y-4974386D01*
X1897684Y-4974386D01*
X1901291Y-4975047D01*
X1904441Y-4976977D01*
X1906676Y-4979873D01*
X1907743Y-4983429D01*
X1908403Y-4989017D01*
X1910283Y-4994503D01*
X1913382Y-4999380D01*
X1917496Y-5003495D01*
X1922373Y-5006594D01*
X1927860Y-5008473D01*
X1934159Y-5009184D01*
X1942338Y-5009184D01*
X1946249Y-5009946D01*
X1949500Y-5012182D01*
X1951736Y-5015484D01*
X1952498Y-5019344D01*
X1952498Y-5089398D01*
X1953310Y-5097424D01*
X1955495Y-5104638D01*
X1959051Y-5111343D01*
X1964182Y-5117541D01*
X2016810Y-5170170D01*
X2023008Y-5175300D01*
X2029714Y-5178856D01*
X2036673Y-5180990D01*
X2040280Y-5182971D01*
X2042820Y-5186172D01*
X2043887Y-5190134D01*
X2043277Y-5194198D01*
X2041143Y-5197703D01*
X2037740Y-5200040D01*
X2033727Y-5200853D01*
X1934159Y-5200853D01*
X1927860Y-5201564D01*
X1922373Y-5203494D01*
X1917496Y-5206593D01*
X1913382Y-5210657D01*
X1910283Y-5215585D01*
X1908403Y-5221020D01*
X1907692Y-5227370D01*
X1907692Y-5321198D01*
X1908403Y-5327548D01*
X1910283Y-5332984D01*
X1913382Y-5337911D01*
X1917496Y-5341975D01*
X1922373Y-5345074D01*
X1925370Y-5346141D01*
X1928875Y-5348173D01*
X1931263Y-5351475D01*
X1932178Y-5355386D01*
X1931517Y-5359400D01*
X1929333Y-5362803D01*
X1925980Y-5365089D01*
X1914398Y-5366562D01*
X1908962Y-5368493D01*
X1904034Y-5371592D01*
X1899970Y-5375656D01*
X1896872Y-5380583D01*
X1894992Y-5386019D01*
X1894281Y-5392369D01*
X1894281Y-5528919D01*
X1894992Y-5535218D01*
X1896872Y-5540705D01*
X1899970Y-5545582D01*
X1904034Y-5549696D01*
X1908962Y-5552744D01*
X1914398Y-5554675D01*
X1920748Y-5555386D01*
X2032863Y-5555386D01*
X2039162Y-5554675D01*
X2044649Y-5552744D01*
X2049525Y-5549696D01*
X2053640Y-5545582D01*
X2056688Y-5540705D01*
X2058619Y-5535218D01*
X2059330Y-5528919D01*
X2059330Y-5392369D01*
X2058619Y-5386019D01*
X2056688Y-5380583D01*
X2053640Y-5375656D01*
X2049525Y-5371592D01*
X2044649Y-5368493D01*
X2041601Y-5367426D01*
X2038146Y-5365394D01*
X2035759Y-5362092D01*
X2034793Y-5358180D01*
X2035505Y-5354167D01*
X2037689Y-5350764D01*
X2040991Y-5348478D01*
X2044954Y-5347716D01*
X2048002Y-5347716D01*
X2054352Y-5347004D01*
X2059787Y-5345074D01*
X2064715Y-5341975D01*
X2068779Y-5337911D01*
X2071878Y-5332984D01*
X2073808Y-5327548D01*
X2074418Y-5321909D01*
X2075484Y-5318404D01*
X2077770Y-5315458D01*
X2080869Y-5313578D01*
X2084527Y-5312867D01*
X2155190Y-5312867D01*
X2159101Y-5313680D01*
X2162403Y-5315864D01*
X2164588Y-5319166D01*
X2165350Y-5323027D01*
X2165350Y-5382869D01*
X2164130Y-5392369D01*
X2164130Y-5528919D01*
X2164842Y-5535218D01*
X2166772Y-5540705D01*
X2169871Y-5545582D01*
X2173935Y-5549696D01*
X2178862Y-5552744D01*
X2184298Y-5554675D01*
X2190648Y-5555386D01*
X2302764Y-5555386D01*
X2309063Y-5554675D01*
X2314549Y-5552744D01*
X2319426Y-5549696D01*
X2323541Y-5545582D01*
X2326589Y-5540705D01*
X2328519Y-5535218D01*
X2329230Y-5528919D01*
X2329230Y-5392369D01*
X2328519Y-5386019D01*
X2326589Y-5380583D01*
X2323541Y-5375656D01*
X2319426Y-5371592D01*
X2314549Y-5368493D01*
X2309063Y-5366562D01*
X2302764Y-5365851D01*
X2252726Y-5365851D01*
X2248865Y-5365089D01*
X2245563Y-5362905D01*
X2243378Y-5359603D01*
X2242566Y-5355691D01*
X2242566Y-5304231D01*
X2243378Y-5300319D01*
X2245563Y-5297017D01*
X2248865Y-5294833D01*
X2252726Y-5294071D01*
X2258415Y-5294071D01*
X2264714Y-5293360D01*
X2270201Y-5291429D01*
X2275078Y-5288330D01*
X2279192Y-5284266D01*
X2282291Y-5279339D01*
X2284171Y-5273903D01*
X2284882Y-5267553D01*
X2284882Y-5208727D01*
X2284171Y-5202377D01*
X2282291Y-5196941D01*
X2279192Y-5192014D01*
X2277973Y-5190794D01*
X2275636Y-5187238D01*
X2274976Y-5183124D01*
X2276043Y-5179009D01*
X2278684Y-5175758D01*
X2285441Y-5170170D01*
X2365806Y-5089855D01*
X2369108Y-5087620D01*
X2373020Y-5086858D01*
X2376779Y-5086858D01*
X2380589Y-5087620D01*
X2383840Y-5089702D01*
X2386076Y-5092903D01*
X2386939Y-5096662D01*
X2386330Y-5100523D01*
X2383790Y-5107432D01*
X2383078Y-5113680D01*
X2383078Y-5121757D01*
X2430119Y-5121757D01*
X2430119Y-5114188D01*
X2430881Y-5110327D01*
X2433116Y-5107025D01*
X2436418Y-5104841D01*
X2440279Y-5104028D01*
X2487676Y-5104028D01*
X2491536Y-5104841D01*
X2494838Y-5107025D01*
X2497074Y-5110327D01*
X2497836Y-5114188D01*
X2497836Y-5121757D01*
X2544876Y-5121757D01*
X2544876Y-5113680D01*
X2544165Y-5107381D01*
X2542286Y-5101894D01*
X2540355Y-5097526D01*
X2540355Y-5093716D01*
X2542286Y-5089347D01*
X2544165Y-5083911D01*
X2544876Y-5077561D01*
X2544876Y-5018684D01*
X2544165Y-5012385D01*
X2542286Y-5006898D01*
X2539187Y-5002022D01*
X2531160Y-4994402D01*
X2529636Y-4990338D01*
X2529941Y-4986020D01*
X2531973Y-4982210D01*
X2535428Y-4979568D01*
X2539695Y-4978654D01*
X2680563Y-4978654D01*
X2684475Y-4979416D01*
X2687777Y-4981651D01*
X2717088Y-5010962D01*
X2719324Y-5014264D01*
X2720086Y-5018176D01*
X2720086Y-5077612D01*
X2771902Y-5077612D01*
X2775813Y-5078425D01*
X2779115Y-5080609D01*
X2781300Y-5083911D01*
X2782062Y-5087772D01*
X2782062Y-5147665D01*
X2781300Y-5151577D01*
X2779115Y-5154879D01*
X2775813Y-5157063D01*
X2771902Y-5157825D01*
X2720086Y-5157825D01*
X2720086Y-5211165D01*
X2733040Y-5211165D01*
X2736900Y-5211927D01*
X2740202Y-5214112D01*
X2742438Y-5217414D01*
X2743200Y-5221325D01*
X2742387Y-5225186D01*
X2740202Y-5228488D01*
X2705963Y-5262676D01*
X2702661Y-5264861D01*
X2698800Y-5265623D01*
X2643886Y-5265623D01*
X2640025Y-5264861D01*
X2636723Y-5262626D01*
X2602534Y-5228488D01*
X2600350Y-5225186D01*
X2599588Y-5221325D01*
X2600350Y-5217414D01*
X2602534Y-5214112D01*
X2605836Y-5211927D01*
X2609748Y-5211165D01*
X2636875Y-5211165D01*
X2636875Y-5157825D01*
X2582062Y-5157825D01*
X2582062Y-5184648D01*
X2582773Y-5190845D01*
X2582418Y-5194808D01*
X2580589Y-5198364D01*
X2577541Y-5200904D01*
X2573680Y-5202123D01*
X2569718Y-5201716D01*
X2565095Y-5200294D01*
X2557068Y-5199532D01*
X2551125Y-5199532D01*
X2547315Y-5198770D01*
X2544064Y-5196636D01*
X2541828Y-5193487D01*
X2540965Y-5189677D01*
X2541574Y-5185816D01*
X2544165Y-5178806D01*
X2544876Y-5172557D01*
X2544876Y-5164480D01*
X2497836Y-5164480D01*
X2497836Y-5172049D01*
X2497074Y-5175961D01*
X2494838Y-5179263D01*
X2491536Y-5181447D01*
X2487676Y-5182209D01*
X2440279Y-5182209D01*
X2436418Y-5181447D01*
X2433116Y-5179263D01*
X2430881Y-5175961D01*
X2430119Y-5172049D01*
X2430119Y-5164480D01*
X2383078Y-5164480D01*
X2383078Y-5172557D01*
X2383790Y-5178907D01*
X2385720Y-5184343D01*
X2387650Y-5188762D01*
X2387650Y-5192522D01*
X2385720Y-5196890D01*
X2383790Y-5202377D01*
X2383078Y-5208676D01*
X2383078Y-5267553D01*
X2383790Y-5273903D01*
X2385720Y-5279339D01*
X2388768Y-5284216D01*
X2392883Y-5288330D01*
X2397760Y-5291429D01*
X2403246Y-5293309D01*
X2409545Y-5294020D01*
X2518410Y-5294020D01*
X2524760Y-5293309D01*
X2530195Y-5291429D01*
X2535123Y-5288330D01*
X2536952Y-5286451D01*
X2540254Y-5284266D01*
X2544165Y-5283504D01*
X2548026Y-5284266D01*
X2551328Y-5286451D01*
X2579116Y-5314238D01*
X2581300Y-5317540D01*
X2582062Y-5321452D01*
X2582062Y-5425948D01*
X2582773Y-5432298D01*
X2584704Y-5437733D01*
X2587802Y-5442661D01*
X2591866Y-5446725D01*
X2596794Y-5449824D01*
X2602230Y-5451754D01*
X2608580Y-5452465D01*
X2629712Y-5452465D01*
X2633624Y-5453227D01*
X2636926Y-5455412D01*
X2639110Y-5458714D01*
X2639872Y-5462625D01*
X2639872Y-5465826D01*
X2639110Y-5469737D01*
X2636926Y-5473039D01*
X2491892Y-5618022D01*
X2488590Y-5620207D01*
X2484729Y-5621020D01*
X2392730Y-5621020D01*
X2386380Y-5621731D01*
X2380945Y-5623610D01*
X2376017Y-5626709D01*
X2371953Y-5630773D01*
X2368854Y-5635701D01*
X2366924Y-5641136D01*
X2366213Y-5647486D01*
X2366213Y-5654751D01*
X2365451Y-5658662D01*
X2363266Y-5661914D01*
X2359964Y-5664149D01*
X2356053Y-5664911D01*
X2337308Y-5664911D01*
X2333396Y-5664149D01*
X2330145Y-5661914D01*
X2327910Y-5658662D01*
X2327148Y-5654751D01*
X2327148Y-5647486D01*
X2326436Y-5641136D01*
X2324506Y-5635701D01*
X2321458Y-5630773D01*
X2317343Y-5626709D01*
X2312466Y-5623610D01*
X2306980Y-5621731D01*
X2300681Y-5621020D01*
X2164130Y-5621020D01*
X2157780Y-5621731D01*
X2152345Y-5623610D01*
X2147417Y-5626709D01*
X2143353Y-5630773D01*
X2140254Y-5635701D01*
X2138324Y-5641136D01*
X2137613Y-5647486D01*
X2137613Y-5759602D01*
X2138324Y-5765901D01*
X2140254Y-5771388D01*
X2143353Y-5776264D01*
X2147417Y-5780379D01*
X2152345Y-5783427D01*
X2157780Y-5785358D01*
X2164130Y-5786069D01*
X2300681Y-5786069D01*
X2303627Y-5785713D01*
X2307640Y-5786069D01*
X2311196Y-5787948D01*
X2313736Y-5791047D01*
X2314854Y-5794908D01*
X2314448Y-5798921D01*
X2311654Y-5807608D01*
X2311247Y-5811824D01*
X2310231Y-5815431D01*
X2307996Y-5818378D01*
X2304796Y-5820308D01*
X2301138Y-5821019D01*
X2273147Y-5821019D01*
X2273147Y-5868873D01*
X2300732Y-5868873D01*
X2304643Y-5869635D01*
X2307894Y-5871870D01*
X2310130Y-5875172D01*
X2310892Y-5879033D01*
X2310892Y-5928055D01*
X2310130Y-5931916D01*
X2307894Y-5935218D01*
X2304643Y-5937453D01*
X2300732Y-5938215D01*
X2273147Y-5938215D01*
X2273147Y-5986068D01*
X2300732Y-5986068D01*
X2304643Y-5986830D01*
X2307894Y-5989066D01*
X2310130Y-5992368D01*
X2310892Y-5996228D01*
X2310892Y-6006592D01*
X2311704Y-6014618D01*
X2313889Y-6021832D01*
X2317445Y-6028537D01*
X2322576Y-6034735D01*
X2337257Y-6049467D01*
X2339492Y-6052870D01*
X2340254Y-6056884D01*
X2339340Y-6060846D01*
X2336952Y-6064148D01*
X2333447Y-6066231D01*
X2331262Y-6066993D01*
X2326335Y-6070092D01*
X2322271Y-6074156D01*
X2319172Y-6079083D01*
X2317242Y-6084519D01*
X2316530Y-6090869D01*
X2316530Y-6118352D01*
X2364435Y-6118352D01*
X2364435Y-6091986D01*
X2365146Y-6088278D01*
X2367127Y-6085078D01*
X2370124Y-6082842D01*
X2373782Y-6081826D01*
X2377541Y-6082233D01*
X2380081Y-6082995D01*
X2388108Y-6083808D01*
X2423566Y-6083808D01*
X2427478Y-6084570D01*
X2430780Y-6086805D01*
X2432964Y-6090056D01*
X2433726Y-6093968D01*
X2433726Y-6118352D01*
X2453132Y-6118352D01*
X2457043Y-6119114D01*
X2460294Y-6121349D01*
X2462530Y-6124651D01*
X2463292Y-6128512D01*
X2463292Y-6189726D01*
X2462530Y-6193637D01*
X2460294Y-6196939D01*
X2457043Y-6199124D01*
X2453132Y-6199886D01*
X2433726Y-6199886D01*
X2433726Y-6253886D01*
X2455926Y-6253886D01*
X2460091Y-6254750D01*
X2463546Y-6257340D01*
X2465628Y-6261100D01*
X2466289Y-6263132D01*
X2469845Y-6269837D01*
X2474976Y-6276035D01*
X2904794Y-6705904D01*
X2907030Y-6709206D01*
X2907792Y-6713118D01*
X2907792Y-6755892D01*
X2908604Y-6763918D01*
X2910789Y-6771131D01*
X2914345Y-6777837D01*
X2919476Y-6784035D01*
X3033064Y-6897624D01*
X3039567Y-6902958D01*
X3042158Y-6906209D01*
X3043224Y-6910171D01*
X3042666Y-6914235D01*
X3040532Y-6917791D01*
X3037128Y-6920179D01*
X3033115Y-6920992D01*
G37*

%LPC*%
G36*
X2164130Y-5986068D02*
G01*
X2191613Y-5986068D01*
X2191613Y-5938215D01*
X2137613Y-5938215D01*
X2137613Y-5959602D01*
X2138324Y-5965901D01*
X2140254Y-5971387D01*
X2143353Y-5976264D01*
X2147417Y-5980379D01*
X2152345Y-5983427D01*
X2157780Y-5985357D01*
G37*
G36*
X2019147Y-5986068D02*
G01*
X2046681Y-5986068D01*
X2052980Y-5985357D01*
X2058466Y-5983427D01*
X2063343Y-5980379D01*
X2067458Y-5976264D01*
X2070506Y-5971387D01*
X2072436Y-5965901D01*
X2073148Y-5959602D01*
X2073148Y-5938215D01*
X2019147Y-5938215D01*
G37*
G36*
X1883613Y-5868873D02*
G01*
X1937613Y-5868873D01*
X1937613Y-5821019D01*
X1910130Y-5821019D01*
X1903780Y-5821730D01*
X1898345Y-5823610D01*
X1893417Y-5826709D01*
X1889353Y-5830824D01*
X1886254Y-5835700D01*
X1884324Y-5841136D01*
X1883613Y-5847486D01*
G37*
G36*
X2019147Y-5868873D02*
G01*
X2073148Y-5868873D01*
X2073148Y-5847486D01*
X2072436Y-5841136D01*
X2070506Y-5835700D01*
X2067458Y-5830824D01*
X2063343Y-5826709D01*
X2058466Y-5823610D01*
X2052980Y-5821730D01*
X2046681Y-5821019D01*
X2019147Y-5821019D01*
G37*
G36*
X2137613Y-5868873D02*
G01*
X2191613Y-5868873D01*
X2191613Y-5821019D01*
X2164130Y-5821019D01*
X2157780Y-5821730D01*
X2152345Y-5823610D01*
X2147417Y-5826709D01*
X2143353Y-5830824D01*
X2140254Y-5835700D01*
X2138324Y-5841136D01*
X2137613Y-5847486D01*
G37*
G36*
X2481376Y-5555386D02*
G01*
X2502763Y-5555386D01*
X2509062Y-5554675D01*
X2514549Y-5552744D01*
X2519426Y-5549696D01*
X2523540Y-5545582D01*
X2526588Y-5540705D01*
X2528519Y-5535218D01*
X2529230Y-5528919D01*
X2529230Y-5501386D01*
X2481376Y-5501386D01*
G37*
G36*
X2390648Y-5555386D02*
G01*
X2412034Y-5555386D01*
X2412034Y-5501386D01*
X2364181Y-5501386D01*
X2364181Y-5528919D01*
X2364892Y-5535218D01*
X2366772Y-5540705D01*
X2369870Y-5545582D01*
X2373934Y-5549696D01*
X2378862Y-5552744D01*
X2384298Y-5554675D01*
G37*
G36*
X2481376Y-5419852D02*
G01*
X2529230Y-5419852D01*
X2529230Y-5392369D01*
X2528519Y-5386019D01*
X2526588Y-5380583D01*
X2523540Y-5375656D01*
X2519426Y-5371592D01*
X2514549Y-5368493D01*
X2509062Y-5366562D01*
X2502763Y-5365851D01*
X2481376Y-5365851D01*
G37*
G36*
X2364181Y-5419852D02*
G01*
X2412034Y-5419852D01*
X2412034Y-5365851D01*
X2390648Y-5365851D01*
X2384298Y-5366562D01*
X2378862Y-5368493D01*
X2373934Y-5371592D01*
X2369870Y-5375656D01*
X2366772Y-5380583D01*
X2364892Y-5386019D01*
X2364181Y-5392369D01*
G37*
G36*
X2582062Y-5077612D02*
G01*
X2636875Y-5077612D01*
X2636875Y-5024323D01*
X2608580Y-5024323D01*
X2602230Y-5025034D01*
X2596794Y-5026964D01*
X2591866Y-5030012D01*
X2587802Y-5034127D01*
X2584704Y-5039004D01*
X2582773Y-5044490D01*
X2582062Y-5050790D01*
G37*
G36*
X1535887Y-4988814D02*
G01*
X1589176Y-4988814D01*
X1589176Y-4960518D01*
X1588465Y-4954168D01*
X1586585Y-4948732D01*
X1583486Y-4943805D01*
X1579422Y-4939741D01*
X1574495Y-4936642D01*
X1569059Y-4934712D01*
X1562709Y-4934000D01*
X1535887Y-4934000D01*
G37*

%LPD*%
G36*
X300685Y-6974078D02*
G01*
X278079Y-6973163D01*
X256743Y-6970623D01*
X235610Y-6966356D01*
X214934Y-6960514D01*
X194767Y-6953046D01*
X175209Y-6944004D01*
X156464Y-6933438D01*
X138582Y-6921449D01*
X121716Y-6908139D01*
X105918Y-6893509D01*
X91338Y-6877659D01*
X78028Y-6860743D01*
X66141Y-6842861D01*
X55626Y-6824065D01*
X46634Y-6804507D01*
X39217Y-6784289D01*
X33426Y-6763562D01*
X29260Y-6742480D01*
X26771Y-6721094D01*
X25908Y-6699300D01*
X25908Y-300685D01*
X26822Y-278079D01*
X29362Y-256743D01*
X33629Y-235610D01*
X39471Y-214934D01*
X46939Y-194767D01*
X55981Y-175209D01*
X66548Y-156464D01*
X78536Y-138582D01*
X91846Y-121716D01*
X106476Y-105918D01*
X122326Y-91338D01*
X139242Y-78028D01*
X157124Y-66141D01*
X175920Y-55626D01*
X195478Y-46634D01*
X215696Y-39217D01*
X236423Y-33426D01*
X257505Y-29260D01*
X278892Y-26771D01*
X300685Y-25908D01*
X6699300Y-25908D01*
X6721906Y-26822D01*
X6743242Y-29362D01*
X6764375Y-33629D01*
X6785051Y-39471D01*
X6805218Y-46939D01*
X6824776Y-55981D01*
X6843522Y-66548D01*
X6861403Y-78536D01*
X6878269Y-91846D01*
X6894068Y-106476D01*
X6908647Y-122326D01*
X6921957Y-139242D01*
X6933844Y-157124D01*
X6944359Y-175920D01*
X6953351Y-195478D01*
X6960768Y-215696D01*
X6966559Y-236423D01*
X6970725Y-257505D01*
X6973214Y-278892D01*
X6974078Y-300685D01*
X6974078Y-6699300D01*
X6973163Y-6721906D01*
X6970623Y-6743242D01*
X6966356Y-6764375D01*
X6960514Y-6785051D01*
X6953046Y-6805218D01*
X6944004Y-6824776D01*
X6933438Y-6843522D01*
X6921449Y-6861403D01*
X6908139Y-6878269D01*
X6893509Y-6894068D01*
X6877659Y-6908647D01*
X6860743Y-6921957D01*
X6842861Y-6933844D01*
X6824065Y-6944359D01*
X6804507Y-6953351D01*
X6784289Y-6960768D01*
X6763562Y-6966559D01*
X6742480Y-6970725D01*
X6721094Y-6973214D01*
X6699300Y-6974078D01*
X3531768Y-6974078D01*
X3527856Y-6973316D01*
X3524554Y-6971080D01*
X3522370Y-6967829D01*
X3521608Y-6963918D01*
X3522370Y-6960006D01*
X3524554Y-6956755D01*
X3557524Y-6923735D01*
X3562654Y-6917537D01*
X3566210Y-6910831D01*
X3568395Y-6903618D01*
X3569208Y-6895592D01*
X3569208Y-6849618D01*
X3569970Y-6845706D01*
X3572205Y-6842455D01*
X3575456Y-6840220D01*
X3579368Y-6839458D01*
X3589985Y-6839458D01*
X3596284Y-6838746D01*
X3601770Y-6836816D01*
X3606647Y-6833768D01*
X3610762Y-6829653D01*
X3613810Y-6824776D01*
X3615740Y-6819290D01*
X3616451Y-6812991D01*
X3616451Y-6598208D01*
X3615740Y-6591909D01*
X3613810Y-6586423D01*
X3610762Y-6581546D01*
X3606647Y-6577431D01*
X3601770Y-6574383D01*
X3596284Y-6572453D01*
X3589985Y-6571742D01*
X3499510Y-6571742D01*
X3495243Y-6570827D01*
X3491788Y-6568186D01*
X3489756Y-6564325D01*
X3489502Y-6559956D01*
X3495344Y-6546748D01*
X3497732Y-6537401D01*
X3498596Y-6527800D01*
X3497732Y-6518198D01*
X3495344Y-6508851D01*
X3491331Y-6500063D01*
X3485946Y-6492087D01*
X3483152Y-6489141D01*
X3481019Y-6485890D01*
X3480308Y-6482080D01*
X3480308Y-6325108D01*
X3479495Y-6317081D01*
X3477310Y-6309868D01*
X3473754Y-6303162D01*
X3468624Y-6296964D01*
X3369005Y-6197295D01*
X3366770Y-6193993D01*
X3366008Y-6190081D01*
X3366008Y-6078118D01*
X3366770Y-6074206D01*
X3369005Y-6070904D01*
X3596741Y-5843168D01*
X3600450Y-5840780D01*
X3604818Y-5840222D01*
X3609035Y-5841542D01*
X3612286Y-5844540D01*
X3613962Y-5848604D01*
X3615283Y-5856325D01*
X3618484Y-5865418D01*
X3623157Y-5873851D01*
X3629253Y-5881370D01*
X3636467Y-5887720D01*
X3644696Y-5892800D01*
X3653637Y-5896356D01*
X3663086Y-5898388D01*
X3672738Y-5898845D01*
X3682288Y-5897575D01*
X3691483Y-5894781D01*
X3700119Y-5890412D01*
X3707892Y-5884672D01*
X3714546Y-5877712D01*
X3719931Y-5869736D01*
X3723182Y-5862624D01*
X3725265Y-5859627D01*
X4069587Y-5515305D01*
X4072890Y-5513070D01*
X4076750Y-5512308D01*
X4355236Y-5512308D01*
X4359046Y-5513019D01*
X4364837Y-5515356D01*
X4374286Y-5517388D01*
X4383938Y-5517845D01*
X4393488Y-5516575D01*
X4402683Y-5513781D01*
X4411319Y-5509412D01*
X4419092Y-5503672D01*
X4425746Y-5496712D01*
X4431131Y-5488736D01*
X4435144Y-5479948D01*
X4437532Y-5470601D01*
X4438396Y-5461000D01*
X4437532Y-5451398D01*
X4435144Y-5442051D01*
X4431131Y-5433263D01*
X4425746Y-5425287D01*
X4419092Y-5418328D01*
X4411319Y-5412587D01*
X4402683Y-5408218D01*
X4393488Y-5405424D01*
X4383938Y-5404154D01*
X4374286Y-5404612D01*
X4364837Y-5406644D01*
X4359046Y-5408980D01*
X4355236Y-5409692D01*
X4051503Y-5409692D01*
X4046829Y-5409895D01*
X4042410Y-5410504D01*
X4038041Y-5411470D01*
X4033774Y-5412790D01*
X4029608Y-5414518D01*
X4025646Y-5416550D01*
X4021886Y-5418988D01*
X4018330Y-5421680D01*
X4014876Y-5424881D01*
X3726230Y-5713476D01*
X3722979Y-5715711D01*
X3719068Y-5716473D01*
X3715156Y-5715711D01*
X3711905Y-5713476D01*
X3709670Y-5710174D01*
X3708908Y-5706313D01*
X3708908Y-4788408D01*
X3708095Y-4780381D01*
X3705910Y-4773168D01*
X3702354Y-4766462D01*
X3697224Y-4760264D01*
X3310940Y-4373981D01*
X3308451Y-4370222D01*
X3303473Y-4364126D01*
X3300780Y-4361942D01*
X3298190Y-4358690D01*
X3297072Y-4354728D01*
X3297631Y-4350664D01*
X3299815Y-4347108D01*
X3303168Y-4344771D01*
X3307232Y-4343908D01*
X3364992Y-4343908D01*
X3373018Y-4343095D01*
X3380232Y-4340910D01*
X3386937Y-4337354D01*
X3393135Y-4332224D01*
X3430524Y-4294835D01*
X3435654Y-4288637D01*
X3439210Y-4281932D01*
X3441395Y-4274718D01*
X3442208Y-4266692D01*
X3442208Y-4166108D01*
X3441395Y-4158081D01*
X3439210Y-4150868D01*
X3435654Y-4144162D01*
X3430524Y-4137964D01*
X3361740Y-4069130D01*
X3359556Y-4065879D01*
X3358794Y-4061968D01*
X3359556Y-4058056D01*
X3361740Y-4054805D01*
X3365042Y-4052570D01*
X3368954Y-4051808D01*
X3383381Y-4051808D01*
X3387293Y-4052570D01*
X3390595Y-4054805D01*
X3700272Y-4364482D01*
X3702151Y-4367072D01*
X3703116Y-4370171D01*
X3703116Y-4373372D01*
X3702558Y-4376674D01*
X3702558Y-4386326D01*
X3704183Y-4395825D01*
X3707384Y-4404918D01*
X3712057Y-4413351D01*
X3718153Y-4420870D01*
X3725367Y-4427220D01*
X3733596Y-4432300D01*
X3742537Y-4435856D01*
X3751986Y-4437888D01*
X3761638Y-4438345D01*
X3771188Y-4437075D01*
X3780383Y-4434281D01*
X3789019Y-4429912D01*
X3796792Y-4424172D01*
X3803446Y-4417212D01*
X3808831Y-4409236D01*
X3812844Y-4400448D01*
X3815232Y-4391101D01*
X3816096Y-4381500D01*
X3815232Y-4371898D01*
X3812844Y-4362551D01*
X3808831Y-4353763D01*
X3803446Y-4345787D01*
X3796792Y-4338828D01*
X3789019Y-4333087D01*
X3780383Y-4328718D01*
X3773220Y-4326534D01*
X3770934Y-4325518D01*
X3769004Y-4323994D01*
X3431235Y-3986276D01*
X3425037Y-3981145D01*
X3418332Y-3977589D01*
X3411118Y-3975404D01*
X3403092Y-3974592D01*
X2962554Y-3974592D01*
X2958642Y-3973829D01*
X2955340Y-3971594D01*
X2953156Y-3968343D01*
X2952394Y-3964432D01*
X2953156Y-3960520D01*
X2955340Y-3957269D01*
X3137204Y-3775405D01*
X3140506Y-3773170D01*
X3144418Y-3772408D01*
X3872992Y-3772408D01*
X3881018Y-3771595D01*
X3888232Y-3769410D01*
X3894937Y-3765854D01*
X3901135Y-3760724D01*
X4427169Y-3234740D01*
X4430420Y-3232556D01*
X4434332Y-3231794D01*
X4438243Y-3232556D01*
X4441494Y-3234740D01*
X4443730Y-3238042D01*
X4444492Y-3241954D01*
X4444492Y-3510381D01*
X4443730Y-3514293D01*
X4441494Y-3517595D01*
X4424629Y-3534511D01*
X4421530Y-3536594D01*
X4417872Y-3537458D01*
X4412386Y-3537712D01*
X4402937Y-3539744D01*
X4393996Y-3543300D01*
X4385767Y-3548379D01*
X4378553Y-3554729D01*
X4372457Y-3562248D01*
X4367784Y-3570681D01*
X4364583Y-3579774D01*
X4362958Y-3589274D01*
X4362958Y-3598926D01*
X4364583Y-3608425D01*
X4367784Y-3617518D01*
X4372457Y-3625951D01*
X4378553Y-3633470D01*
X4385767Y-3639820D01*
X4393996Y-3644900D01*
X4402937Y-3648456D01*
X4412386Y-3650487D01*
X4422038Y-3650945D01*
X4431588Y-3649675D01*
X4440783Y-3646881D01*
X4449419Y-3642512D01*
X4457192Y-3636772D01*
X4463846Y-3629812D01*
X4469231Y-3621836D01*
X4473244Y-3613048D01*
X4475632Y-3603701D01*
X4476343Y-3595319D01*
X4477258Y-3591915D01*
X4479290Y-3588969D01*
X4510024Y-3558235D01*
X4515154Y-3552037D01*
X4518710Y-3545332D01*
X4520895Y-3538118D01*
X4521708Y-3530092D01*
X4521708Y-2019807D01*
X4520895Y-2011781D01*
X4518710Y-2004568D01*
X4515154Y-1997862D01*
X4510024Y-1991664D01*
X4371035Y-1852675D01*
X4364837Y-1847545D01*
X4358132Y-1843989D01*
X4350918Y-1841804D01*
X4342892Y-1840992D01*
X4122318Y-1840992D01*
X4118406Y-1840230D01*
X4115104Y-1837994D01*
X3532835Y-1255776D01*
X3526637Y-1250645D01*
X3519932Y-1247089D01*
X3512718Y-1244904D01*
X3504692Y-1244092D01*
X3030118Y-1244092D01*
X3026206Y-1243330D01*
X3022904Y-1241094D01*
X2632405Y-850595D01*
X2630170Y-847293D01*
X2629408Y-843381D01*
X2629408Y-375920D01*
X2630119Y-372110D01*
X2632252Y-368858D01*
X2635046Y-365912D01*
X2640431Y-357936D01*
X2644444Y-349148D01*
X2646832Y-339801D01*
X2647696Y-330200D01*
X2646832Y-320598D01*
X2644444Y-311251D01*
X2640431Y-302463D01*
X2635046Y-294487D01*
X2628392Y-287528D01*
X2620619Y-281787D01*
X2611983Y-277418D01*
X2602788Y-274624D01*
X2593238Y-273354D01*
X2583586Y-273812D01*
X2574137Y-275844D01*
X2565196Y-279400D01*
X2556967Y-284480D01*
X2549753Y-290830D01*
X2543657Y-298348D01*
X2538984Y-306781D01*
X2535783Y-315874D01*
X2534158Y-325374D01*
X2534158Y-335026D01*
X2535783Y-344525D01*
X2538984Y-353618D01*
X2543657Y-362051D01*
X2549956Y-369773D01*
X2551633Y-372770D01*
X2552192Y-376174D01*
X2552192Y-863092D01*
X2553004Y-871118D01*
X2555189Y-878332D01*
X2558745Y-885037D01*
X2563876Y-891235D01*
X2982264Y-1309624D01*
X2988462Y-1314754D01*
X2995168Y-1318310D01*
X3002381Y-1320495D01*
X3010408Y-1321308D01*
X3484981Y-1321308D01*
X3488893Y-1322070D01*
X3492195Y-1324305D01*
X4074464Y-1906524D01*
X4080662Y-1911654D01*
X4087368Y-1915210D01*
X4094581Y-1917395D01*
X4102608Y-1918207D01*
X4323181Y-1918207D01*
X4327093Y-1918970D01*
X4330395Y-1921205D01*
X4441494Y-2032304D01*
X4443730Y-2035606D01*
X4444492Y-2039518D01*
X4444492Y-2790545D01*
X4443730Y-2794457D01*
X4441494Y-2797759D01*
X4438243Y-2799943D01*
X4434332Y-2800705D01*
X4430420Y-2799943D01*
X4427169Y-2797759D01*
X4129735Y-2500376D01*
X4123537Y-2495245D01*
X4116832Y-2491689D01*
X4109618Y-2489504D01*
X4101592Y-2488692D01*
X3957421Y-2488692D01*
X3953459Y-2487879D01*
X3941419Y-2478887D01*
X3932783Y-2474518D01*
X3923588Y-2471724D01*
X3914038Y-2470454D01*
X3904386Y-2470912D01*
X3894937Y-2472944D01*
X3885996Y-2476500D01*
X3877767Y-2481580D01*
X3870553Y-2487930D01*
X3864457Y-2495448D01*
X3859784Y-2503881D01*
X3856583Y-2512974D01*
X3854958Y-2522474D01*
X3854958Y-2532126D01*
X3856583Y-2541625D01*
X3859784Y-2550718D01*
X3864457Y-2559151D01*
X3870553Y-2566670D01*
X3877767Y-2573020D01*
X3885996Y-2578100D01*
X3894937Y-2581656D01*
X3904386Y-2583688D01*
X3914038Y-2584145D01*
X3923588Y-2582875D01*
X3932783Y-2580081D01*
X3941419Y-2575712D01*
X3953459Y-2566720D01*
X3957421Y-2565908D01*
X4081881Y-2565908D01*
X4085793Y-2566670D01*
X4089095Y-2568905D01*
X4377994Y-2857804D01*
X4380230Y-2861106D01*
X4380992Y-2865018D01*
X4380992Y-3167481D01*
X4380230Y-3171393D01*
X4377994Y-3174695D01*
X4081830Y-3470859D01*
X4078579Y-3473043D01*
X4074668Y-3473805D01*
X4070756Y-3473043D01*
X4067505Y-3470859D01*
X4065270Y-3467557D01*
X4064508Y-3463645D01*
X4064508Y-3270656D01*
X4065270Y-3266795D01*
X4067505Y-3263493D01*
X4070756Y-3261258D01*
X4074668Y-3260496D01*
X4110329Y-3260496D01*
X4116628Y-3259785D01*
X4122115Y-3257905D01*
X4126992Y-3254806D01*
X4131106Y-3250692D01*
X4134205Y-3245815D01*
X4136085Y-3240328D01*
X4136796Y-3234029D01*
X4136796Y-3065170D01*
X4136085Y-3058871D01*
X4134205Y-3053384D01*
X4131106Y-3048508D01*
X4126992Y-3044393D01*
X4122115Y-3041294D01*
X4116628Y-3039414D01*
X4110329Y-3038703D01*
X4074668Y-3038703D01*
X4070756Y-3037941D01*
X4067505Y-3035706D01*
X4065270Y-3032404D01*
X4064508Y-3028543D01*
X4064508Y-3006394D01*
X4065168Y-3002788D01*
X4067098Y-2999638D01*
X4069994Y-2997352D01*
X4083405Y-2990443D01*
X4095038Y-2982315D01*
X4105554Y-2972765D01*
X4114749Y-2961944D01*
X4122521Y-2950006D01*
X4128668Y-2937205D01*
X4133138Y-2923743D01*
X4135882Y-2909773D01*
X4136796Y-2895600D01*
X4135882Y-2881426D01*
X4133138Y-2867456D01*
X4128668Y-2853994D01*
X4122521Y-2841193D01*
X4114749Y-2829255D01*
X4105554Y-2818434D01*
X4095038Y-2808884D01*
X4083405Y-2800756D01*
X4070807Y-2794203D01*
X4057446Y-2789275D01*
X4043578Y-2786126D01*
X4029456Y-2784754D01*
X4015232Y-2785211D01*
X4001211Y-2787497D01*
X3987596Y-2791561D01*
X3974592Y-2797302D01*
X3962450Y-2804668D01*
X3951325Y-2813507D01*
X3941470Y-2823718D01*
X3932986Y-2835097D01*
X3925976Y-2847492D01*
X3920642Y-2860649D01*
X3917035Y-2874416D01*
X3915257Y-2888488D01*
X3915257Y-2902712D01*
X3917035Y-2916783D01*
X3920642Y-2930550D01*
X3925976Y-2943707D01*
X3932986Y-2956102D01*
X3941470Y-2967482D01*
X3951325Y-2977692D01*
X3962450Y-2986532D01*
X3974592Y-2993898D01*
X3981246Y-2996844D01*
X3984447Y-2999079D01*
X3986529Y-3002330D01*
X3987292Y-3006140D01*
X3987292Y-3028543D01*
X3986529Y-3032404D01*
X3984294Y-3035706D01*
X3981043Y-3037941D01*
X3977132Y-3038703D01*
X3941470Y-3038703D01*
X3935171Y-3039414D01*
X3929684Y-3041294D01*
X3924808Y-3044393D01*
X3920693Y-3048508D01*
X3917594Y-3053384D01*
X3915714Y-3058871D01*
X3915003Y-3065170D01*
X3915003Y-3234029D01*
X3915714Y-3240328D01*
X3917594Y-3245815D01*
X3920693Y-3250692D01*
X3924808Y-3254806D01*
X3929684Y-3257905D01*
X3935171Y-3259785D01*
X3941470Y-3260496D01*
X3977132Y-3260496D01*
X3981043Y-3261258D01*
X3984294Y-3263493D01*
X3986529Y-3266795D01*
X3987292Y-3270656D01*
X3987292Y-3446881D01*
X3986529Y-3450793D01*
X3984294Y-3454095D01*
X3967429Y-3471011D01*
X3964330Y-3473094D01*
X3960672Y-3473958D01*
X3955186Y-3474212D01*
X3945737Y-3476244D01*
X3936796Y-3479800D01*
X3928567Y-3484879D01*
X3921353Y-3491229D01*
X3915257Y-3498748D01*
X3910584Y-3507181D01*
X3907383Y-3516274D01*
X3905758Y-3525774D01*
X3905758Y-3535426D01*
X3907383Y-3544925D01*
X3910584Y-3554018D01*
X3915257Y-3562451D01*
X3921353Y-3569970D01*
X3928567Y-3576320D01*
X3936796Y-3581400D01*
X3945737Y-3585006D01*
X3949649Y-3586835D01*
X3952392Y-3590086D01*
X3953611Y-3594201D01*
X3952951Y-3598468D01*
X3950614Y-3602075D01*
X3860495Y-3692194D01*
X3857193Y-3694429D01*
X3853281Y-3695192D01*
X3124708Y-3695192D01*
X3116681Y-3696004D01*
X3109468Y-3698189D01*
X3102762Y-3701745D01*
X3096564Y-3706876D01*
X2882595Y-3920794D01*
X2879293Y-3923029D01*
X2875381Y-3923792D01*
X2829560Y-3923792D01*
X2825597Y-3922979D01*
X2822244Y-3920744D01*
X2820060Y-3917340D01*
X2819400Y-3913378D01*
X2820263Y-3909466D01*
X2822244Y-3905148D01*
X2824632Y-3895801D01*
X2825496Y-3886200D01*
X2824632Y-3876598D01*
X2822244Y-3867251D01*
X2818231Y-3858463D01*
X2812846Y-3850487D01*
X2806192Y-3843528D01*
X2798419Y-3837787D01*
X2789783Y-3833418D01*
X2780588Y-3830624D01*
X2766923Y-3828694D01*
X2763418Y-3826408D01*
X2669235Y-3732276D01*
X2663037Y-3727145D01*
X2656332Y-3723589D01*
X2649118Y-3721404D01*
X2641092Y-3720592D01*
X2636621Y-3720592D01*
X2632659Y-3719779D01*
X2620619Y-3710787D01*
X2611983Y-3706418D01*
X2602788Y-3703624D01*
X2593238Y-3702354D01*
X2583586Y-3702812D01*
X2574137Y-3704844D01*
X2565196Y-3708400D01*
X2556967Y-3713479D01*
X2549753Y-3719829D01*
X2543657Y-3727348D01*
X2538984Y-3735781D01*
X2535783Y-3744874D01*
X2534158Y-3754374D01*
X2534158Y-3764026D01*
X2535783Y-3773525D01*
X2538984Y-3782618D01*
X2543657Y-3791051D01*
X2549753Y-3798570D01*
X2556967Y-3804920D01*
X2565196Y-3810000D01*
X2574137Y-3813556D01*
X2583586Y-3815587D01*
X2593238Y-3816045D01*
X2602788Y-3814775D01*
X2611983Y-3811981D01*
X2620619Y-3807612D01*
X2625293Y-3804920D01*
X2628900Y-3804564D01*
X2632354Y-3805478D01*
X2635300Y-3807510D01*
X2658770Y-3830980D01*
X2661005Y-3834282D01*
X2661767Y-3838194D01*
X2660954Y-3842105D01*
X2658719Y-3845407D01*
X2645867Y-3853179D01*
X2640685Y-3857751D01*
X2637536Y-3859631D01*
X2633980Y-3860292D01*
X2293518Y-3860292D01*
X2289606Y-3859529D01*
X2286304Y-3857294D01*
X2193290Y-3764330D01*
X2191258Y-3761384D01*
X2190343Y-3757980D01*
X2189632Y-3749598D01*
X2187244Y-3740251D01*
X2183231Y-3731463D01*
X2177846Y-3723487D01*
X2171192Y-3716528D01*
X2163419Y-3710787D01*
X2154783Y-3706418D01*
X2145588Y-3703624D01*
X2136038Y-3702354D01*
X2126386Y-3702812D01*
X2116937Y-3704844D01*
X2107996Y-3708400D01*
X2099767Y-3713479D01*
X2092553Y-3719829D01*
X2086457Y-3727348D01*
X2081784Y-3735781D01*
X2078583Y-3744874D01*
X2076957Y-3754374D01*
X2076957Y-3764026D01*
X2078583Y-3773525D01*
X2081784Y-3782618D01*
X2086457Y-3791051D01*
X2092553Y-3798570D01*
X2099767Y-3804920D01*
X2107996Y-3810000D01*
X2116937Y-3813556D01*
X2126386Y-3815587D01*
X2131872Y-3815842D01*
X2135530Y-3816705D01*
X2138629Y-3818788D01*
X2226259Y-3906469D01*
X2228443Y-3909720D01*
X2229205Y-3913632D01*
X2228443Y-3917543D01*
X2226259Y-3920794D01*
X2222957Y-3923029D01*
X2219045Y-3923792D01*
X1832254Y-3923792D01*
X1828342Y-3923029D01*
X1825040Y-3920794D01*
X1822856Y-3917543D01*
X1822094Y-3913632D01*
X1822856Y-3909720D01*
X1825040Y-3906469D01*
X1906524Y-3824935D01*
X1911654Y-3818737D01*
X1915210Y-3812032D01*
X1917395Y-3804818D01*
X1918207Y-3796792D01*
X1918207Y-3792220D01*
X1918919Y-3788410D01*
X1921052Y-3785158D01*
X1923846Y-3782212D01*
X1929231Y-3774236D01*
X1933244Y-3765448D01*
X1935632Y-3756101D01*
X1936496Y-3746500D01*
X1935632Y-3736898D01*
X1933244Y-3727551D01*
X1929231Y-3718763D01*
X1923846Y-3710787D01*
X1917192Y-3703828D01*
X1909419Y-3698087D01*
X1900783Y-3693718D01*
X1891588Y-3690924D01*
X1882038Y-3689654D01*
X1872386Y-3690112D01*
X1862937Y-3692144D01*
X1853996Y-3695700D01*
X1845767Y-3700779D01*
X1838553Y-3707129D01*
X1832457Y-3714648D01*
X1827784Y-3723081D01*
X1824583Y-3732174D01*
X1822957Y-3741674D01*
X1822957Y-3751326D01*
X1824583Y-3760825D01*
X1827784Y-3769918D01*
X1832864Y-3779012D01*
X1834083Y-3783177D01*
X1833524Y-3787495D01*
X1831136Y-3791153D01*
X1372565Y-4249724D01*
X1369618Y-4251807D01*
X1366113Y-4252671D01*
X1362506Y-4252315D01*
X1359306Y-4250690D01*
X1350568Y-4244136D01*
X1341983Y-4239818D01*
X1332788Y-4237024D01*
X1323238Y-4235754D01*
X1313586Y-4236212D01*
X1304137Y-4238244D01*
X1295196Y-4241800D01*
X1286967Y-4246880D01*
X1279753Y-4253230D01*
X1273657Y-4260748D01*
X1268984Y-4269181D01*
X1265783Y-4278274D01*
X1264158Y-4287774D01*
X1264158Y-4297426D01*
X1265783Y-4306925D01*
X1268984Y-4316018D01*
X1273657Y-4324451D01*
X1279753Y-4331970D01*
X1286967Y-4338320D01*
X1295196Y-4343400D01*
X1304137Y-4346956D01*
X1313586Y-4348988D01*
X1323238Y-4349445D01*
X1332788Y-4348175D01*
X1341983Y-4345381D01*
X1350619Y-4341012D01*
X1362659Y-4332020D01*
X1366621Y-4331208D01*
X1380845Y-4331208D01*
X1384757Y-4331970D01*
X1388059Y-4334205D01*
X1390243Y-4337456D01*
X1391005Y-4341368D01*
X1390243Y-4345279D01*
X1388059Y-4348530D01*
X1236929Y-4499711D01*
X1233830Y-4501794D01*
X1230172Y-4502658D01*
X1224686Y-4502912D01*
X1215237Y-4504944D01*
X1208278Y-4507738D01*
X1204366Y-4508449D01*
X1200505Y-4507687D01*
X1197254Y-4505452D01*
X1195070Y-4502150D01*
X1194308Y-4498289D01*
X1194308Y-3900576D01*
X1195324Y-3896207D01*
X1198067Y-3892702D01*
X1202131Y-3890721D01*
X1206601Y-3890670D01*
X1211986Y-3891787D01*
X1221638Y-3892245D01*
X1231188Y-3890975D01*
X1240383Y-3888181D01*
X1243380Y-3886962D01*
X1245717Y-3886708D01*
X1371549Y-3886708D01*
X1375410Y-3887470D01*
X1378712Y-3889705D01*
X1430985Y-3941927D01*
X1433372Y-3945737D01*
X1434084Y-3947718D01*
X1438757Y-3956151D01*
X1444853Y-3963670D01*
X1452067Y-3970020D01*
X1460296Y-3975100D01*
X1469237Y-3978656D01*
X1478686Y-3980687D01*
X1488338Y-3981145D01*
X1497888Y-3979875D01*
X1507083Y-3977081D01*
X1515719Y-3972712D01*
X1523492Y-3966972D01*
X1530146Y-3960012D01*
X1535531Y-3952036D01*
X1539544Y-3943248D01*
X1541932Y-3933901D01*
X1542796Y-3924300D01*
X1541932Y-3914698D01*
X1539544Y-3905351D01*
X1535531Y-3896563D01*
X1530146Y-3888587D01*
X1523492Y-3881628D01*
X1515770Y-3875887D01*
X1505966Y-3871010D01*
X1503273Y-3869131D01*
X1433423Y-3799281D01*
X1429969Y-3796080D01*
X1426413Y-3793388D01*
X1422654Y-3790950D01*
X1418691Y-3788918D01*
X1414526Y-3787190D01*
X1410258Y-3785870D01*
X1405890Y-3784904D01*
X1401470Y-3784295D01*
X1396796Y-3784092D01*
X1245717Y-3784092D01*
X1243380Y-3783837D01*
X1240383Y-3782618D01*
X1231188Y-3779824D01*
X1221638Y-3778554D01*
X1211986Y-3779012D01*
X1206601Y-3780129D01*
X1202131Y-3780078D01*
X1198067Y-3778097D01*
X1195324Y-3774592D01*
X1194308Y-3770223D01*
X1194308Y-3169818D01*
X1195070Y-3165906D01*
X1197305Y-3162604D01*
X2781604Y-1578305D01*
X2784906Y-1576070D01*
X2788818Y-1575308D01*
X3510381Y-1575308D01*
X3514293Y-1576070D01*
X3517595Y-1578305D01*
X3845915Y-1906625D01*
X3848252Y-1910283D01*
X3848862Y-1914601D01*
X3843883Y-1928774D01*
X3842258Y-1938274D01*
X3842258Y-1947925D01*
X3843883Y-1957425D01*
X3847084Y-1966518D01*
X3851757Y-1974951D01*
X3857853Y-1982470D01*
X3865067Y-1988820D01*
X3873296Y-1993900D01*
X3882237Y-1997456D01*
X3891686Y-1999488D01*
X3901338Y-1999945D01*
X3910888Y-1998675D01*
X3920083Y-1995881D01*
X3928719Y-1991512D01*
X3936492Y-1985772D01*
X3943146Y-1978812D01*
X3948531Y-1970836D01*
X3952544Y-1962048D01*
X3954932Y-1952701D01*
X3955796Y-1943100D01*
X3954932Y-1933498D01*
X3952544Y-1924151D01*
X3948531Y-1915363D01*
X3943146Y-1907387D01*
X3939489Y-1903577D01*
X3937609Y-1900783D01*
X3934510Y-1890268D01*
X3930954Y-1883562D01*
X3925824Y-1877364D01*
X3558235Y-1509776D01*
X3552037Y-1504645D01*
X3545332Y-1501089D01*
X3538118Y-1498904D01*
X3530092Y-1498092D01*
X2769108Y-1498092D01*
X2761081Y-1498904D01*
X2753868Y-1501089D01*
X2747162Y-1504645D01*
X2740964Y-1509776D01*
X1128776Y-3121964D01*
X1123645Y-3128162D01*
X1120089Y-3134868D01*
X1117904Y-3142081D01*
X1117092Y-3150108D01*
X1117092Y-3769258D01*
X1116126Y-3773627D01*
X1113383Y-3777132D01*
X1109421Y-3779113D01*
X1104950Y-3779215D01*
X1100886Y-3777437D01*
X1096619Y-3774287D01*
X1087983Y-3769918D01*
X1078788Y-3767124D01*
X1070610Y-3766058D01*
X1066901Y-3764838D01*
X1063904Y-3762298D01*
X1062126Y-3758793D01*
X1061770Y-3754932D01*
X1062939Y-3751173D01*
X1064310Y-3748532D01*
X1066495Y-3741318D01*
X1067308Y-3733292D01*
X1067308Y-3423920D01*
X1068019Y-3420110D01*
X1070152Y-3416858D01*
X1072946Y-3413912D01*
X1078331Y-3405936D01*
X1082344Y-3397148D01*
X1084732Y-3387801D01*
X1085596Y-3378200D01*
X1084732Y-3368598D01*
X1082344Y-3359251D01*
X1078331Y-3350463D01*
X1072946Y-3342487D01*
X1066292Y-3335528D01*
X1058519Y-3329787D01*
X1049883Y-3325418D01*
X1040688Y-3322624D01*
X1031138Y-3321354D01*
X1021486Y-3321812D01*
X1012037Y-3323844D01*
X1003096Y-3327400D01*
X994867Y-3332479D01*
X987653Y-3338829D01*
X981557Y-3346348D01*
X976884Y-3354781D01*
X973683Y-3363874D01*
X972058Y-3373374D01*
X972058Y-3383026D01*
X973683Y-3392525D01*
X976884Y-3401618D01*
X981557Y-3410051D01*
X987856Y-3417773D01*
X989533Y-3420770D01*
X990092Y-3424174D01*
X990092Y-3713581D01*
X989330Y-3717493D01*
X987094Y-3720795D01*
X887476Y-3820464D01*
X882345Y-3826662D01*
X878789Y-3833368D01*
X876604Y-3840581D01*
X875792Y-3848608D01*
X875792Y-5625592D01*
X876604Y-5633618D01*
X878789Y-5640832D01*
X882345Y-5647537D01*
X887476Y-5653735D01*
X1280464Y-6046724D01*
X1286662Y-6051854D01*
X1293368Y-6055410D01*
X1300581Y-6057595D01*
X1308608Y-6058408D01*
X1688592Y-6058408D01*
X1696618Y-6057595D01*
X1703832Y-6055410D01*
X1710537Y-6051854D01*
X1716735Y-6046724D01*
X1751330Y-6012129D01*
X1756460Y-6005931D01*
X1760016Y-5999226D01*
X1761845Y-5993282D01*
X1763928Y-5989523D01*
X1767382Y-5986983D01*
X1771548Y-5986068D01*
X1792681Y-5986068D01*
X1798980Y-5985357D01*
X1805533Y-5983071D01*
X1809292Y-5982512D01*
X1812950Y-5983325D01*
X1816100Y-5985459D01*
X2787345Y-6956755D01*
X2789529Y-6960006D01*
X2790291Y-6963918D01*
X2789529Y-6967829D01*
X2787345Y-6971080D01*
X2784043Y-6973316D01*
X2780131Y-6974078D01*
G37*

%LPC*%
G36*
X6691630Y-6854037D02*
G01*
X6708343Y-6854037D01*
X6724903Y-6852259D01*
X6741210Y-6848652D01*
X6757009Y-6843318D01*
X6772148Y-6836257D01*
X6786422Y-6827621D01*
X6799732Y-6817512D01*
X6811772Y-6805980D01*
X6822541Y-6793230D01*
X6831888Y-6779412D01*
X6839661Y-6764629D01*
X6845757Y-6749084D01*
X6850125Y-6732981D01*
X6852767Y-6716522D01*
X6853529Y-6700469D01*
X6852767Y-6683451D01*
X6850125Y-6666992D01*
X6845757Y-6650888D01*
X6839661Y-6635343D01*
X6831888Y-6620560D01*
X6822541Y-6606743D01*
X6811772Y-6593992D01*
X6799732Y-6582460D01*
X6786422Y-6572351D01*
X6772148Y-6563715D01*
X6757009Y-6556654D01*
X6741210Y-6551320D01*
X6724903Y-6547713D01*
X6708343Y-6545935D01*
X6691630Y-6545935D01*
X6675069Y-6547713D01*
X6658762Y-6551320D01*
X6642963Y-6556654D01*
X6627825Y-6563715D01*
X6613550Y-6572351D01*
X6600240Y-6582460D01*
X6588201Y-6593992D01*
X6577431Y-6606743D01*
X6568084Y-6620560D01*
X6560312Y-6635343D01*
X6554216Y-6650888D01*
X6549847Y-6666992D01*
X6547205Y-6683451D01*
X6546443Y-6699503D01*
X6547205Y-6716522D01*
X6549847Y-6732981D01*
X6554216Y-6749084D01*
X6560312Y-6764629D01*
X6568084Y-6779412D01*
X6577431Y-6793230D01*
X6588201Y-6805980D01*
X6600240Y-6817512D01*
X6613550Y-6827621D01*
X6627825Y-6836257D01*
X6642963Y-6843318D01*
X6658762Y-6848652D01*
X6675069Y-6852259D01*
G37*
G36*
X291642Y-6854037D02*
G01*
X308356Y-6854037D01*
X324916Y-6852259D01*
X341223Y-6848652D01*
X357022Y-6843318D01*
X372160Y-6836257D01*
X386435Y-6827621D01*
X399745Y-6817512D01*
X411784Y-6805980D01*
X422554Y-6793230D01*
X431901Y-6779412D01*
X439674Y-6764629D01*
X445770Y-6749084D01*
X450138Y-6732981D01*
X452780Y-6716522D01*
X453542Y-6700469D01*
X452780Y-6683451D01*
X450138Y-6666992D01*
X445770Y-6650888D01*
X439674Y-6635343D01*
X431901Y-6620560D01*
X422554Y-6606743D01*
X411784Y-6593992D01*
X399745Y-6582460D01*
X386435Y-6572351D01*
X372160Y-6563715D01*
X357022Y-6556654D01*
X341223Y-6551320D01*
X324916Y-6547713D01*
X308356Y-6545935D01*
X291642Y-6545935D01*
X275082Y-6547713D01*
X258775Y-6551320D01*
X242976Y-6556654D01*
X227838Y-6563715D01*
X213563Y-6572351D01*
X200304Y-6582460D01*
X188214Y-6593992D01*
X177444Y-6606743D01*
X168097Y-6620560D01*
X160324Y-6635343D01*
X154228Y-6650888D01*
X149860Y-6666992D01*
X147218Y-6683451D01*
X146456Y-6699503D01*
X147218Y-6716522D01*
X149860Y-6732981D01*
X154228Y-6749084D01*
X160324Y-6764629D01*
X168097Y-6779412D01*
X177444Y-6793230D01*
X188214Y-6805980D01*
X200304Y-6817512D01*
X213563Y-6827621D01*
X227838Y-6836257D01*
X242976Y-6843318D01*
X258775Y-6848652D01*
X275082Y-6852259D01*
G37*
G36*
X3765042Y-6839458D02*
G01*
X3788105Y-6839458D01*
X3794404Y-6838746D01*
X3799890Y-6836816D01*
X3804767Y-6833768D01*
X3808882Y-6829653D01*
X3811930Y-6824776D01*
X3813860Y-6819290D01*
X3814572Y-6812991D01*
X3814572Y-6765950D01*
X3765042Y-6765950D01*
G37*
G36*
X3669334Y-6839458D02*
G01*
X3692398Y-6839458D01*
X3692398Y-6765950D01*
X3642868Y-6765950D01*
X3642868Y-6812991D01*
X3643579Y-6819290D01*
X3645509Y-6824776D01*
X3648557Y-6829653D01*
X3652672Y-6833768D01*
X3657549Y-6836816D01*
X3663035Y-6838746D01*
G37*
G36*
X3765042Y-6645300D02*
G01*
X3814572Y-6645300D01*
X3814572Y-6598208D01*
X3813860Y-6591909D01*
X3811930Y-6586423D01*
X3808882Y-6581546D01*
X3804767Y-6577431D01*
X3799890Y-6574383D01*
X3794404Y-6572453D01*
X3788105Y-6571742D01*
X3765042Y-6571742D01*
G37*
G36*
X3642868Y-6645300D02*
G01*
X3692398Y-6645300D01*
X3692398Y-6571742D01*
X3669334Y-6571742D01*
X3663035Y-6572453D01*
X3657549Y-6574383D01*
X3652672Y-6577431D01*
X3648557Y-6581546D01*
X3645509Y-6586423D01*
X3643579Y-6591909D01*
X3642868Y-6598208D01*
G37*
G36*
X6085738Y-6216345D02*
G01*
X6095288Y-6215075D01*
X6104483Y-6212281D01*
X6113119Y-6207912D01*
X6120892Y-6202172D01*
X6127546Y-6195212D01*
X6132931Y-6187236D01*
X6136944Y-6178448D01*
X6139332Y-6169101D01*
X6140196Y-6159500D01*
X6139332Y-6149898D01*
X6136944Y-6140551D01*
X6132931Y-6131763D01*
X6127546Y-6123787D01*
X6120892Y-6116828D01*
X6113119Y-6111087D01*
X6104483Y-6106718D01*
X6095288Y-6103924D01*
X6085738Y-6102654D01*
X6076086Y-6103112D01*
X6066637Y-6105144D01*
X6060846Y-6107480D01*
X6057036Y-6108192D01*
X5470550Y-6108192D01*
X5467096Y-6107582D01*
X5464048Y-6105855D01*
X5196636Y-5882995D01*
X5193893Y-5879388D01*
X5193131Y-5877763D01*
X5187746Y-5869787D01*
X5181092Y-5862828D01*
X5173319Y-5857087D01*
X5164683Y-5852718D01*
X5155488Y-5849924D01*
X5145938Y-5848654D01*
X5136286Y-5849112D01*
X5126837Y-5851144D01*
X5117896Y-5854700D01*
X5109667Y-5859780D01*
X5102453Y-5866130D01*
X5096357Y-5873648D01*
X5091684Y-5882081D01*
X5088483Y-5891174D01*
X5086858Y-5900674D01*
X5086858Y-5910326D01*
X5088483Y-5919825D01*
X5091684Y-5928918D01*
X5096357Y-5937351D01*
X5102453Y-5944870D01*
X5109667Y-5951220D01*
X5117896Y-5956300D01*
X5129123Y-5960668D01*
X5131155Y-5961989D01*
X5415127Y-6198616D01*
X5422646Y-6203899D01*
X5430774Y-6207658D01*
X5439410Y-6209995D01*
X5448757Y-6210808D01*
X6057036Y-6210808D01*
X6060846Y-6211519D01*
X6066637Y-6213856D01*
X6076086Y-6215888D01*
G37*
G36*
X6680200Y-6090462D02*
G01*
X6697116Y-6089548D01*
X6713778Y-6086703D01*
X6730034Y-6082030D01*
X6745681Y-6075527D01*
X6760464Y-6067348D01*
X6774281Y-6057544D01*
X6786880Y-6046266D01*
X6798157Y-6033668D01*
X6807962Y-6019850D01*
X6816140Y-6005068D01*
X6822643Y-5989421D01*
X6827316Y-5973165D01*
X6830161Y-5956503D01*
X6831075Y-5939586D01*
X6830161Y-5922670D01*
X6827316Y-5906008D01*
X6822643Y-5889752D01*
X6816140Y-5874105D01*
X6807962Y-5859322D01*
X6798157Y-5845505D01*
X6786880Y-5832906D01*
X6774281Y-5821629D01*
X6760464Y-5811824D01*
X6745681Y-5803646D01*
X6730034Y-5797143D01*
X6713778Y-5792470D01*
X6697116Y-5789625D01*
X6680200Y-5788710D01*
X6663283Y-5789625D01*
X6646621Y-5792470D01*
X6630365Y-5797143D01*
X6614718Y-5803646D01*
X6599936Y-5811824D01*
X6586118Y-5821629D01*
X6573520Y-5832906D01*
X6562242Y-5845505D01*
X6552438Y-5859322D01*
X6544259Y-5874105D01*
X6537756Y-5889752D01*
X6533083Y-5906008D01*
X6530238Y-5922670D01*
X6529324Y-5939586D01*
X6530238Y-5956503D01*
X6533083Y-5973165D01*
X6537756Y-5989421D01*
X6544259Y-6005068D01*
X6552438Y-6019850D01*
X6562242Y-6033668D01*
X6573520Y-6046266D01*
X6586118Y-6057544D01*
X6599936Y-6067348D01*
X6614718Y-6075527D01*
X6630365Y-6082030D01*
X6646621Y-6086703D01*
X6663283Y-6089548D01*
G37*
G36*
X5145938Y-5657545D02*
G01*
X5155488Y-5656275D01*
X5164683Y-5653481D01*
X5173319Y-5649112D01*
X5181092Y-5643372D01*
X5187746Y-5636412D01*
X5193131Y-5628436D01*
X5197144Y-5619648D01*
X5199532Y-5610301D01*
X5200396Y-5600700D01*
X5199532Y-5591098D01*
X5197144Y-5581751D01*
X5193131Y-5572963D01*
X5187746Y-5564987D01*
X5181092Y-5558028D01*
X5173319Y-5552287D01*
X5164683Y-5547918D01*
X5155488Y-5545124D01*
X5141823Y-5543194D01*
X5138318Y-5540908D01*
X5070805Y-5473395D01*
X5068570Y-5470093D01*
X5067808Y-5466181D01*
X5067808Y-4369968D01*
X5068570Y-4366056D01*
X5070805Y-4362754D01*
X5088940Y-4344568D01*
X5092446Y-4342333D01*
X5096510Y-4341622D01*
X5106060Y-4340402D01*
X5115306Y-4337558D01*
X5123891Y-4333240D01*
X5131663Y-4327499D01*
X5138369Y-4320540D01*
X5143754Y-4312513D01*
X5147716Y-4303725D01*
X5150154Y-4294428D01*
X5150967Y-4284827D01*
X5150154Y-4275175D01*
X5147716Y-4265879D01*
X5143754Y-4257090D01*
X5138369Y-4249064D01*
X5131663Y-4242104D01*
X5123891Y-4236364D01*
X5115306Y-4232046D01*
X5106060Y-4229201D01*
X5096510Y-4227982D01*
X5086858Y-4228388D01*
X5077460Y-4230420D01*
X5068468Y-4234027D01*
X5060289Y-4239056D01*
X5053025Y-4245457D01*
X5046980Y-4252976D01*
X5042255Y-4261358D01*
X5039055Y-4270451D01*
X5037429Y-4280001D01*
X5037429Y-4282694D01*
X5036667Y-4286605D01*
X5034432Y-4289907D01*
X5002276Y-4322114D01*
X4997145Y-4328312D01*
X4993589Y-4335018D01*
X4991404Y-4342231D01*
X4990592Y-4350258D01*
X4990592Y-5485892D01*
X4991404Y-5493918D01*
X4993589Y-5501132D01*
X4997145Y-5507837D01*
X5002276Y-5514035D01*
X5083860Y-5595670D01*
X5086045Y-5598972D01*
X5086858Y-5602833D01*
X5086858Y-5605526D01*
X5088483Y-5615025D01*
X5091684Y-5624118D01*
X5096357Y-5632551D01*
X5102453Y-5640070D01*
X5109667Y-5646420D01*
X5117896Y-5651500D01*
X5126837Y-5655056D01*
X5136286Y-5657088D01*
G37*
G36*
X6611366Y-5573674D02*
G01*
X6611366Y-5508447D01*
X6546138Y-5508447D01*
X6552438Y-5519877D01*
X6562242Y-5533644D01*
X6573520Y-5546293D01*
X6586118Y-5557570D01*
X6599936Y-5567375D01*
G37*
G36*
X6749034Y-5573674D02*
G01*
X6760464Y-5567375D01*
X6774281Y-5557570D01*
X6786880Y-5546293D01*
X6798157Y-5533644D01*
X6807962Y-5519877D01*
X6814261Y-5508447D01*
X6749034Y-5508447D01*
G37*
G36*
X6546138Y-5370728D02*
G01*
X6611366Y-5370728D01*
X6611366Y-5305501D01*
X6599936Y-5311800D01*
X6586118Y-5321604D01*
X6573520Y-5332882D01*
X6562242Y-5345531D01*
X6552438Y-5359298D01*
G37*
G36*
X6749034Y-5370728D02*
G01*
X6814261Y-5370728D01*
X6807962Y-5359298D01*
X6798157Y-5345531D01*
X6786880Y-5332882D01*
X6774281Y-5321604D01*
X6760464Y-5311800D01*
X6749034Y-5305501D01*
G37*
G36*
X5666638Y-5327345D02*
G01*
X5676188Y-5326075D01*
X5685383Y-5323281D01*
X5694019Y-5318912D01*
X5701792Y-5313172D01*
X5708446Y-5306212D01*
X5713831Y-5298236D01*
X5717844Y-5289448D01*
X5720232Y-5280101D01*
X5721096Y-5270500D01*
X5720232Y-5260898D01*
X5717844Y-5251551D01*
X5716422Y-5248402D01*
X5715508Y-5244236D01*
X5715508Y-5144363D01*
X5716422Y-5140198D01*
X5717844Y-5137048D01*
X5720232Y-5127701D01*
X5721096Y-5118100D01*
X5720232Y-5108498D01*
X5717844Y-5099151D01*
X5713831Y-5090363D01*
X5708446Y-5082387D01*
X5701792Y-5075428D01*
X5694019Y-5069687D01*
X5685383Y-5065318D01*
X5676188Y-5062524D01*
X5666638Y-5061254D01*
X5656986Y-5061712D01*
X5647537Y-5063744D01*
X5638596Y-5067300D01*
X5630367Y-5072380D01*
X5623153Y-5078730D01*
X5617057Y-5086248D01*
X5612384Y-5094681D01*
X5609183Y-5103774D01*
X5607558Y-5113274D01*
X5607558Y-5122926D01*
X5609183Y-5132425D01*
X5612333Y-5141366D01*
X5612892Y-5144719D01*
X5612892Y-5243880D01*
X5612333Y-5247233D01*
X5609183Y-5256174D01*
X5607558Y-5265674D01*
X5607558Y-5275326D01*
X5609183Y-5284825D01*
X5612384Y-5293918D01*
X5617057Y-5302351D01*
X5623153Y-5309870D01*
X5630367Y-5316220D01*
X5638596Y-5321300D01*
X5647537Y-5324856D01*
X5656986Y-5326888D01*
G37*
G36*
X4701438Y-5225745D02*
G01*
X4710988Y-5224475D01*
X4720183Y-5221681D01*
X4728819Y-5217312D01*
X4736592Y-5211572D01*
X4743246Y-5204612D01*
X4748631Y-5196636D01*
X4752644Y-5187848D01*
X4755032Y-5178501D01*
X4755743Y-5170119D01*
X4756658Y-5166715D01*
X4758690Y-5163769D01*
X4852924Y-5069535D01*
X4858054Y-5063337D01*
X4861610Y-5056632D01*
X4863795Y-5049418D01*
X4864608Y-5041392D01*
X4864608Y-4732020D01*
X4865319Y-4728210D01*
X4867452Y-4724958D01*
X4870246Y-4722012D01*
X4875631Y-4714036D01*
X4879644Y-4705248D01*
X4882032Y-4695901D01*
X4882896Y-4686300D01*
X4882032Y-4676698D01*
X4879644Y-4667351D01*
X4875631Y-4658563D01*
X4870246Y-4650587D01*
X4863592Y-4643628D01*
X4855819Y-4637887D01*
X4847183Y-4633518D01*
X4837988Y-4630724D01*
X4828438Y-4629454D01*
X4818786Y-4629912D01*
X4809337Y-4631944D01*
X4800396Y-4635500D01*
X4792167Y-4640580D01*
X4784953Y-4646930D01*
X4778857Y-4654448D01*
X4774184Y-4662881D01*
X4770983Y-4671974D01*
X4769358Y-4681474D01*
X4769358Y-4691126D01*
X4770983Y-4700625D01*
X4774184Y-4709718D01*
X4778857Y-4718151D01*
X4785156Y-4725873D01*
X4786833Y-4728870D01*
X4787392Y-4732274D01*
X4787392Y-5021681D01*
X4786630Y-5025593D01*
X4784394Y-5028895D01*
X4704029Y-5109311D01*
X4700930Y-5111394D01*
X4697272Y-5112258D01*
X4691786Y-5112512D01*
X4682337Y-5114544D01*
X4673396Y-5118100D01*
X4665167Y-5123180D01*
X4657953Y-5129530D01*
X4651857Y-5137048D01*
X4647184Y-5145481D01*
X4643983Y-5154574D01*
X4642358Y-5164074D01*
X4642358Y-5173726D01*
X4643983Y-5183225D01*
X4647184Y-5192318D01*
X4651857Y-5200751D01*
X4657953Y-5208270D01*
X4665167Y-5214620D01*
X4673396Y-5219700D01*
X4682337Y-5223256D01*
X4691786Y-5225288D01*
G37*
G36*
X624738Y-3879545D02*
G01*
X634288Y-3878275D01*
X643483Y-3875481D01*
X652119Y-3871112D01*
X659892Y-3865372D01*
X666546Y-3858412D01*
X671931Y-3850436D01*
X675944Y-3841648D01*
X678332Y-3832301D01*
X679043Y-3823919D01*
X679958Y-3820515D01*
X681990Y-3817569D01*
X724204Y-3775405D01*
X727506Y-3773170D01*
X731418Y-3772408D01*
X805180Y-3772408D01*
X808736Y-3773068D01*
X811885Y-3774948D01*
X817067Y-3779520D01*
X825296Y-3784600D01*
X834237Y-3788156D01*
X843686Y-3790187D01*
X853338Y-3790645D01*
X862888Y-3789375D01*
X872083Y-3786581D01*
X880719Y-3782212D01*
X888492Y-3776472D01*
X895146Y-3769512D01*
X900531Y-3761536D01*
X904544Y-3752748D01*
X906932Y-3743401D01*
X907796Y-3733800D01*
X906932Y-3724198D01*
X904544Y-3714851D01*
X900531Y-3706063D01*
X895146Y-3698087D01*
X888492Y-3691128D01*
X880719Y-3685387D01*
X872083Y-3681018D01*
X862888Y-3678224D01*
X853338Y-3676954D01*
X843686Y-3677412D01*
X834237Y-3679444D01*
X825296Y-3683000D01*
X817067Y-3688079D01*
X811885Y-3692651D01*
X808736Y-3694531D01*
X805180Y-3695192D01*
X711708Y-3695192D01*
X703681Y-3696004D01*
X696468Y-3698189D01*
X689762Y-3701745D01*
X683564Y-3706876D01*
X627329Y-3763111D01*
X624230Y-3765194D01*
X620572Y-3766058D01*
X615086Y-3766312D01*
X605637Y-3768344D01*
X596696Y-3771900D01*
X588467Y-3776979D01*
X581253Y-3783329D01*
X575157Y-3790848D01*
X570484Y-3799281D01*
X567283Y-3808374D01*
X565658Y-3817874D01*
X565658Y-3827526D01*
X567283Y-3837025D01*
X570484Y-3846118D01*
X575157Y-3854551D01*
X581253Y-3862070D01*
X588467Y-3868420D01*
X596696Y-3873500D01*
X605637Y-3877056D01*
X615086Y-3879087D01*
G37*
G36*
X3812438Y-3612845D02*
G01*
X3821988Y-3611575D01*
X3831183Y-3608781D01*
X3839819Y-3604412D01*
X3847592Y-3598672D01*
X3854246Y-3591712D01*
X3859631Y-3583736D01*
X3863644Y-3574948D01*
X3866032Y-3565601D01*
X3866896Y-3556000D01*
X3866032Y-3546398D01*
X3863644Y-3537051D01*
X3859631Y-3528263D01*
X3854246Y-3520287D01*
X3851452Y-3517341D01*
X3849319Y-3514090D01*
X3848608Y-3510279D01*
X3848608Y-3398520D01*
X3849319Y-3394710D01*
X3851452Y-3391458D01*
X3854246Y-3388512D01*
X3859631Y-3380536D01*
X3863644Y-3371748D01*
X3866032Y-3362401D01*
X3866896Y-3352800D01*
X3866032Y-3343198D01*
X3863644Y-3333851D01*
X3859631Y-3325063D01*
X3854246Y-3317087D01*
X3847592Y-3310128D01*
X3839819Y-3304387D01*
X3831183Y-3300018D01*
X3821988Y-3297224D01*
X3812438Y-3295954D01*
X3802786Y-3296412D01*
X3793337Y-3298444D01*
X3784396Y-3302000D01*
X3776167Y-3307079D01*
X3770985Y-3311651D01*
X3767836Y-3313531D01*
X3764279Y-3314192D01*
X3741318Y-3314192D01*
X3737406Y-3313429D01*
X3734104Y-3311194D01*
X3623462Y-3200603D01*
X3621379Y-3197504D01*
X3620515Y-3193897D01*
X3621024Y-3190189D01*
X3625138Y-3177743D01*
X3627882Y-3163773D01*
X3628796Y-3149600D01*
X3627882Y-3135426D01*
X3625138Y-3121456D01*
X3620668Y-3107994D01*
X3614521Y-3095193D01*
X3606749Y-3083255D01*
X3597554Y-3072434D01*
X3587038Y-3062884D01*
X3575405Y-3054807D01*
X3561994Y-3047847D01*
X3559098Y-3045561D01*
X3557168Y-3042412D01*
X3556508Y-3038805D01*
X3556508Y-3006394D01*
X3557168Y-3002788D01*
X3559098Y-2999638D01*
X3561994Y-2997352D01*
X3575405Y-2990443D01*
X3587038Y-2982315D01*
X3597554Y-2972765D01*
X3606749Y-2961944D01*
X3614521Y-2950006D01*
X3620668Y-2937205D01*
X3625138Y-2923743D01*
X3627882Y-2909773D01*
X3628796Y-2895600D01*
X3627882Y-2881426D01*
X3625138Y-2867456D01*
X3620668Y-2853994D01*
X3614521Y-2841193D01*
X3606749Y-2829255D01*
X3597554Y-2818434D01*
X3587038Y-2808884D01*
X3575405Y-2800756D01*
X3562807Y-2794203D01*
X3549446Y-2789275D01*
X3535578Y-2786126D01*
X3521456Y-2784754D01*
X3507232Y-2785211D01*
X3493211Y-2787497D01*
X3479596Y-2791561D01*
X3466592Y-2797302D01*
X3454450Y-2804668D01*
X3443325Y-2813507D01*
X3433470Y-2823718D01*
X3424986Y-2835097D01*
X3417976Y-2847492D01*
X3412642Y-2860649D01*
X3409035Y-2874416D01*
X3407257Y-2888488D01*
X3407257Y-2902712D01*
X3409035Y-2916783D01*
X3412642Y-2930550D01*
X3417976Y-2943707D01*
X3424986Y-2956102D01*
X3433470Y-2967482D01*
X3443325Y-2977692D01*
X3454450Y-2986532D01*
X3466592Y-2993898D01*
X3473246Y-2996844D01*
X3476447Y-2999079D01*
X3478529Y-3002330D01*
X3479292Y-3006140D01*
X3479292Y-3039059D01*
X3478529Y-3042869D01*
X3476447Y-3046120D01*
X3473246Y-3048355D01*
X3466592Y-3051302D01*
X3454450Y-3058668D01*
X3443325Y-3067507D01*
X3433470Y-3077718D01*
X3424986Y-3089097D01*
X3417976Y-3101492D01*
X3412642Y-3114649D01*
X3409035Y-3128416D01*
X3407257Y-3142488D01*
X3407257Y-3156712D01*
X3409035Y-3170783D01*
X3412642Y-3184550D01*
X3417976Y-3197707D01*
X3424986Y-3210102D01*
X3433470Y-3221482D01*
X3443325Y-3231692D01*
X3454450Y-3240532D01*
X3466592Y-3247898D01*
X3479596Y-3253689D01*
X3493211Y-3257702D01*
X3507232Y-3259988D01*
X3521456Y-3260445D01*
X3535578Y-3259074D01*
X3549446Y-3255924D01*
X3558082Y-3252724D01*
X3561842Y-3252114D01*
X3565601Y-3252927D01*
X3568801Y-3255060D01*
X3693464Y-3379724D01*
X3699662Y-3384854D01*
X3706368Y-3388410D01*
X3713581Y-3390595D01*
X3721608Y-3391408D01*
X3761232Y-3391408D01*
X3765143Y-3392170D01*
X3768394Y-3394405D01*
X3770629Y-3397656D01*
X3771392Y-3401568D01*
X3771392Y-3510026D01*
X3770833Y-3513429D01*
X3769156Y-3516426D01*
X3762857Y-3524148D01*
X3758184Y-3532581D01*
X3754983Y-3541674D01*
X3753358Y-3551174D01*
X3753358Y-3560826D01*
X3754983Y-3570325D01*
X3758184Y-3579418D01*
X3762857Y-3587851D01*
X3768953Y-3595370D01*
X3776167Y-3601720D01*
X3784396Y-3606800D01*
X3793337Y-3610356D01*
X3802786Y-3612387D01*
G37*
G36*
X3723030Y-3249015D02*
G01*
X3723030Y-3198469D01*
X3672433Y-3198469D01*
X3678986Y-3210102D01*
X3687470Y-3221482D01*
X3697325Y-3231692D01*
X3708450Y-3240532D01*
X3720592Y-3247898D01*
G37*
G36*
X3820769Y-3248914D02*
G01*
X3829405Y-3244443D01*
X3841038Y-3236315D01*
X3851554Y-3226765D01*
X3860749Y-3215944D01*
X3868521Y-3204006D01*
X3871214Y-3198469D01*
X3820769Y-3198469D01*
G37*
G36*
X3820769Y-3100730D02*
G01*
X3871214Y-3100730D01*
X3868521Y-3095193D01*
X3860749Y-3083255D01*
X3851554Y-3072434D01*
X3841038Y-3062884D01*
X3829405Y-3054756D01*
X3820769Y-3050286D01*
G37*
G36*
X3672433Y-3100730D02*
G01*
X3723030Y-3100730D01*
X3723030Y-3050184D01*
X3720592Y-3051302D01*
X3708450Y-3058668D01*
X3697325Y-3067507D01*
X3687470Y-3077718D01*
X3678986Y-3089097D01*
G37*
G36*
X3723030Y-2995015D02*
G01*
X3723030Y-2944469D01*
X3672433Y-2944469D01*
X3678986Y-2956102D01*
X3687470Y-2967482D01*
X3697325Y-2977692D01*
X3708450Y-2986532D01*
X3720592Y-2993898D01*
G37*
G36*
X3820769Y-2994914D02*
G01*
X3829405Y-2990443D01*
X3841038Y-2982315D01*
X3851554Y-2972765D01*
X3860749Y-2961944D01*
X3868521Y-2950006D01*
X3871214Y-2944469D01*
X3820769Y-2944469D01*
G37*
G36*
X3820769Y-2846730D02*
G01*
X3871214Y-2846730D01*
X3868521Y-2841193D01*
X3860749Y-2829255D01*
X3851554Y-2818434D01*
X3841038Y-2808884D01*
X3829405Y-2800756D01*
X3820769Y-2796286D01*
G37*
G36*
X3672433Y-2846730D02*
G01*
X3723030Y-2846730D01*
X3723030Y-2796184D01*
X3720592Y-2797302D01*
X3708450Y-2804668D01*
X3697325Y-2813507D01*
X3687470Y-2823718D01*
X3678986Y-2835097D01*
G37*
G36*
X3037738Y-2584145D02*
G01*
X3047288Y-2582875D01*
X3056483Y-2580081D01*
X3065119Y-2575712D01*
X3072892Y-2569972D01*
X3079546Y-2563012D01*
X3084931Y-2555036D01*
X3088944Y-2546248D01*
X3091332Y-2536901D01*
X3092196Y-2527300D01*
X3091332Y-2517698D01*
X3088944Y-2508351D01*
X3084931Y-2499563D01*
X3079546Y-2491587D01*
X3076752Y-2488641D01*
X3074619Y-2485390D01*
X3073908Y-2481580D01*
X3073908Y-2471318D01*
X3074670Y-2467406D01*
X3076905Y-2464104D01*
X3099104Y-2441905D01*
X3102406Y-2439670D01*
X3106318Y-2438908D01*
X3192881Y-2438908D01*
X3196793Y-2439670D01*
X3200095Y-2441905D01*
X3261664Y-2503424D01*
X3267862Y-2508554D01*
X3274567Y-2512110D01*
X3281781Y-2514295D01*
X3289300Y-2515057D01*
X3296818Y-2514295D01*
X3304032Y-2512110D01*
X3310737Y-2508554D01*
X3316579Y-2503779D01*
X3321354Y-2497937D01*
X3324910Y-2491232D01*
X3327095Y-2484018D01*
X3327857Y-2476500D01*
X3327095Y-2468981D01*
X3324910Y-2461768D01*
X3321354Y-2455062D01*
X3316224Y-2448864D01*
X3216605Y-2349195D01*
X3214370Y-2345893D01*
X3213608Y-2341981D01*
X3213608Y-1874520D01*
X3214319Y-1870710D01*
X3216452Y-1867458D01*
X3219246Y-1864512D01*
X3224631Y-1856536D01*
X3228644Y-1847748D01*
X3231032Y-1838401D01*
X3231896Y-1828800D01*
X3231032Y-1819198D01*
X3230372Y-1816607D01*
X3230118Y-1812950D01*
X3231184Y-1809394D01*
X3233420Y-1806498D01*
X3236569Y-1804568D01*
X3240227Y-1803907D01*
X3319881Y-1803907D01*
X3323793Y-1804670D01*
X3327095Y-1806905D01*
X3335477Y-1815287D01*
X3337661Y-1818538D01*
X3338423Y-1822450D01*
X3337661Y-1826361D01*
X3335477Y-1829612D01*
X3313176Y-1851964D01*
X3308045Y-1858162D01*
X3304489Y-1864868D01*
X3302304Y-1872081D01*
X3301492Y-1880107D01*
X3301492Y-1884425D01*
X3300933Y-1887829D01*
X3299256Y-1890826D01*
X3292957Y-1898548D01*
X3288284Y-1906981D01*
X3285083Y-1916074D01*
X3283458Y-1925574D01*
X3283458Y-1935225D01*
X3285083Y-1944725D01*
X3288284Y-1953818D01*
X3292957Y-1962251D01*
X3299053Y-1969770D01*
X3306267Y-1976120D01*
X3314496Y-1981200D01*
X3323437Y-1984756D01*
X3332886Y-1986788D01*
X3342538Y-1987245D01*
X3352088Y-1985975D01*
X3361283Y-1983181D01*
X3369919Y-1978812D01*
X3377692Y-1973072D01*
X3384346Y-1966112D01*
X3389731Y-1958136D01*
X3393744Y-1949348D01*
X3396132Y-1940001D01*
X3396996Y-1930400D01*
X3396132Y-1920798D01*
X3393744Y-1911451D01*
X3389731Y-1902663D01*
X3387140Y-1898802D01*
X3385718Y-1895602D01*
X3385464Y-1892147D01*
X3386378Y-1888794D01*
X3388360Y-1885950D01*
X3411118Y-1863191D01*
X3414623Y-1860905D01*
X3428288Y-1858975D01*
X3437483Y-1856181D01*
X3446119Y-1851812D01*
X3453892Y-1846072D01*
X3460546Y-1839112D01*
X3465931Y-1831136D01*
X3469944Y-1822348D01*
X3472332Y-1813001D01*
X3473196Y-1803400D01*
X3472332Y-1793798D01*
X3469944Y-1784451D01*
X3465931Y-1775663D01*
X3460546Y-1767687D01*
X3453892Y-1760728D01*
X3446119Y-1754987D01*
X3437483Y-1750618D01*
X3428288Y-1747824D01*
X3418738Y-1746554D01*
X3409086Y-1747012D01*
X3399637Y-1749043D01*
X3390747Y-1752600D01*
X3386886Y-1753311D01*
X3383026Y-1752549D01*
X3379774Y-1750364D01*
X3367735Y-1738375D01*
X3361537Y-1733245D01*
X3354832Y-1729689D01*
X3347618Y-1727504D01*
X3339592Y-1726692D01*
X3150108Y-1726692D01*
X3142081Y-1727504D01*
X3134868Y-1729689D01*
X3128162Y-1733245D01*
X3121964Y-1738375D01*
X2887929Y-1972411D01*
X2884830Y-1974494D01*
X2881172Y-1975357D01*
X2875686Y-1975612D01*
X2866237Y-1977643D01*
X2857296Y-1981200D01*
X2849067Y-1986280D01*
X2843885Y-1990852D01*
X2840736Y-1992731D01*
X2837180Y-1993392D01*
X2629408Y-1993392D01*
X2621381Y-1994204D01*
X2614168Y-1996389D01*
X2608376Y-1999488D01*
X2604008Y-2000656D01*
X2596286Y-2001012D01*
X2586837Y-2003043D01*
X2577896Y-2006600D01*
X2569667Y-2011680D01*
X2562453Y-2018030D01*
X2556357Y-2025548D01*
X2551684Y-2033981D01*
X2548483Y-2043074D01*
X2546858Y-2052574D01*
X2546858Y-2062225D01*
X2548483Y-2071725D01*
X2551684Y-2080818D01*
X2556357Y-2089251D01*
X2562453Y-2096770D01*
X2569667Y-2103120D01*
X2577896Y-2108200D01*
X2586837Y-2111756D01*
X2596286Y-2113788D01*
X2605938Y-2114245D01*
X2615488Y-2112975D01*
X2624683Y-2110181D01*
X2633319Y-2105812D01*
X2641092Y-2100072D01*
X2647746Y-2093112D01*
X2653131Y-2085136D01*
X2656992Y-2076602D01*
X2659227Y-2073452D01*
X2662478Y-2071319D01*
X2666288Y-2070607D01*
X2837180Y-2070607D01*
X2840736Y-2071268D01*
X2843885Y-2073148D01*
X2849067Y-2077720D01*
X2857296Y-2082800D01*
X2866237Y-2086356D01*
X2875686Y-2088388D01*
X2885338Y-2088845D01*
X2894888Y-2087575D01*
X2904083Y-2084781D01*
X2912719Y-2080412D01*
X2920492Y-2074672D01*
X2927146Y-2067712D01*
X2932531Y-2059736D01*
X2936544Y-2050948D01*
X2938932Y-2041601D01*
X2939643Y-2033219D01*
X2940558Y-2029815D01*
X2942590Y-2026869D01*
X3111550Y-1857959D01*
X3114649Y-1855825D01*
X3118256Y-1854962D01*
X3121964Y-1855470D01*
X3125216Y-1857298D01*
X3134156Y-1868373D01*
X3135833Y-1871370D01*
X3136392Y-1874774D01*
X3136392Y-2351532D01*
X3135630Y-2355443D01*
X3133394Y-2358694D01*
X3130143Y-2360930D01*
X3126232Y-2361692D01*
X3086608Y-2361692D01*
X3078581Y-2362504D01*
X3071368Y-2364689D01*
X3064662Y-2368245D01*
X3058464Y-2373376D01*
X3008376Y-2423464D01*
X3003245Y-2429662D01*
X2999689Y-2436368D01*
X2997504Y-2443581D01*
X2996692Y-2451608D01*
X2996692Y-2481326D01*
X2996133Y-2484729D01*
X2994456Y-2487726D01*
X2988157Y-2495448D01*
X2983484Y-2503881D01*
X2980283Y-2512974D01*
X2978658Y-2522474D01*
X2978658Y-2532126D01*
X2980283Y-2541625D01*
X2983484Y-2550718D01*
X2988157Y-2559151D01*
X2994253Y-2566670D01*
X3001467Y-2573020D01*
X3009696Y-2578100D01*
X3018637Y-2581656D01*
X3028086Y-2583688D01*
G37*
G36*
X1348638Y-2139645D02*
G01*
X1358188Y-2138375D01*
X1367383Y-2135581D01*
X1376019Y-2131212D01*
X1383792Y-2125472D01*
X1390446Y-2118512D01*
X1395831Y-2110536D01*
X1399844Y-2101748D01*
X1402232Y-2092401D01*
X1403096Y-2082800D01*
X1402232Y-2073198D01*
X1399844Y-2063851D01*
X1395831Y-2055063D01*
X1390446Y-2047087D01*
X1387652Y-2044141D01*
X1385519Y-2040889D01*
X1384808Y-2037080D01*
X1384808Y-584708D01*
X1383995Y-576681D01*
X1381810Y-569468D01*
X1378254Y-562762D01*
X1373124Y-556564D01*
X1329690Y-513130D01*
X1327658Y-510184D01*
X1326743Y-506780D01*
X1326032Y-498398D01*
X1323644Y-489051D01*
X1319631Y-480263D01*
X1314246Y-472287D01*
X1307592Y-465328D01*
X1299819Y-459587D01*
X1291183Y-455218D01*
X1281988Y-452424D01*
X1272438Y-451154D01*
X1262786Y-451612D01*
X1253337Y-453643D01*
X1244396Y-457200D01*
X1236167Y-462280D01*
X1228953Y-468630D01*
X1222857Y-476148D01*
X1218184Y-484581D01*
X1214983Y-493674D01*
X1213358Y-503174D01*
X1213358Y-512826D01*
X1214983Y-522325D01*
X1218184Y-531418D01*
X1222857Y-539851D01*
X1228953Y-547370D01*
X1236167Y-553720D01*
X1244396Y-558800D01*
X1253337Y-562356D01*
X1262786Y-564388D01*
X1268272Y-564642D01*
X1271930Y-565505D01*
X1275029Y-567588D01*
X1304594Y-597204D01*
X1306830Y-600506D01*
X1307592Y-604418D01*
X1307592Y-2036825D01*
X1307033Y-2040229D01*
X1305356Y-2043226D01*
X1299057Y-2050948D01*
X1294384Y-2059381D01*
X1291183Y-2068474D01*
X1289558Y-2077974D01*
X1289558Y-2087625D01*
X1291183Y-2097125D01*
X1294384Y-2106218D01*
X1299057Y-2114651D01*
X1305153Y-2122170D01*
X1312367Y-2128520D01*
X1320596Y-2133600D01*
X1329537Y-2137156D01*
X1338986Y-2139188D01*
G37*
G36*
X2212238Y-1936445D02*
G01*
X2221788Y-1935175D01*
X2230983Y-1932381D01*
X2239619Y-1928012D01*
X2247392Y-1922272D01*
X2254046Y-1915312D01*
X2259431Y-1907336D01*
X2263444Y-1898548D01*
X2265832Y-1889201D01*
X2266696Y-1879600D01*
X2265832Y-1869998D01*
X2263444Y-1860651D01*
X2259431Y-1851863D01*
X2254046Y-1843887D01*
X2251252Y-1840941D01*
X2249119Y-1837689D01*
X2248408Y-1833880D01*
X2248408Y-1462938D01*
X2249170Y-1459026D01*
X2251405Y-1455724D01*
X2268118Y-1439011D01*
X2271623Y-1436725D01*
X2285288Y-1434795D01*
X2294483Y-1432001D01*
X2303119Y-1427632D01*
X2310892Y-1421892D01*
X2317546Y-1414932D01*
X2322931Y-1406956D01*
X2326944Y-1398168D01*
X2329332Y-1388821D01*
X2330196Y-1379220D01*
X2329332Y-1369618D01*
X2326944Y-1360271D01*
X2322931Y-1351483D01*
X2317546Y-1343507D01*
X2310892Y-1336548D01*
X2303119Y-1330807D01*
X2294483Y-1326438D01*
X2285288Y-1323644D01*
X2275738Y-1322374D01*
X2266086Y-1322832D01*
X2256637Y-1324864D01*
X2247696Y-1328420D01*
X2239467Y-1333500D01*
X2232253Y-1339850D01*
X2226157Y-1347368D01*
X2221484Y-1355801D01*
X2218283Y-1364894D01*
X2216658Y-1374394D01*
X2216658Y-1377086D01*
X2215845Y-1380947D01*
X2213660Y-1384249D01*
X2182876Y-1415084D01*
X2177745Y-1421282D01*
X2174189Y-1427988D01*
X2172004Y-1435201D01*
X2171192Y-1443228D01*
X2171192Y-1833625D01*
X2170633Y-1837029D01*
X2168956Y-1840026D01*
X2162657Y-1847748D01*
X2157984Y-1856181D01*
X2154783Y-1865274D01*
X2153158Y-1874774D01*
X2153158Y-1884425D01*
X2154783Y-1893925D01*
X2157984Y-1903018D01*
X2162657Y-1911451D01*
X2168753Y-1918970D01*
X2175967Y-1925320D01*
X2184196Y-1930400D01*
X2193137Y-1933956D01*
X2202586Y-1935988D01*
G37*
G36*
X726338Y-1720545D02*
G01*
X735888Y-1719275D01*
X745083Y-1716481D01*
X753719Y-1712112D01*
X761492Y-1706372D01*
X768146Y-1699412D01*
X773531Y-1691436D01*
X777544Y-1682648D01*
X779932Y-1673301D01*
X780796Y-1663700D01*
X779932Y-1654098D01*
X777544Y-1644751D01*
X773531Y-1635963D01*
X768146Y-1627987D01*
X765352Y-1625041D01*
X763219Y-1621790D01*
X762508Y-1617980D01*
X762508Y-1163218D01*
X763270Y-1159306D01*
X765505Y-1156004D01*
X909218Y-1012291D01*
X912723Y-1010005D01*
X926388Y-1008075D01*
X935583Y-1005281D01*
X944219Y-1000912D01*
X951992Y-995171D01*
X958646Y-988212D01*
X964031Y-980236D01*
X968044Y-971448D01*
X970432Y-962101D01*
X971296Y-952500D01*
X970432Y-942898D01*
X968044Y-933551D01*
X964031Y-924763D01*
X958646Y-916787D01*
X951992Y-909828D01*
X944219Y-904087D01*
X935583Y-899718D01*
X926388Y-896924D01*
X916838Y-895654D01*
X907186Y-896112D01*
X897737Y-898144D01*
X888796Y-901700D01*
X880567Y-906780D01*
X873353Y-913130D01*
X867257Y-920648D01*
X862584Y-929081D01*
X859383Y-938174D01*
X857758Y-947674D01*
X857758Y-950366D01*
X856945Y-954227D01*
X854760Y-957529D01*
X696976Y-1115364D01*
X691845Y-1121562D01*
X688289Y-1128268D01*
X686104Y-1135481D01*
X685292Y-1143508D01*
X685292Y-1617726D01*
X684733Y-1621129D01*
X683056Y-1624126D01*
X676757Y-1631848D01*
X672084Y-1640281D01*
X668883Y-1649374D01*
X667258Y-1658874D01*
X667258Y-1668525D01*
X668883Y-1678025D01*
X672084Y-1687118D01*
X676757Y-1695551D01*
X682853Y-1703070D01*
X690067Y-1709420D01*
X698296Y-1714500D01*
X707237Y-1718056D01*
X716686Y-1720088D01*
G37*
G36*
X4637938Y-1250645D02*
G01*
X4647488Y-1249375D01*
X4656683Y-1246581D01*
X4665319Y-1242212D01*
X4673092Y-1236472D01*
X4679746Y-1229512D01*
X4685131Y-1221536D01*
X4689144Y-1212748D01*
X4691532Y-1203401D01*
X4692396Y-1193800D01*
X4691532Y-1184198D01*
X4689144Y-1174851D01*
X4685131Y-1166063D01*
X4679746Y-1158087D01*
X4673092Y-1151128D01*
X4665319Y-1145387D01*
X4656683Y-1141018D01*
X4647488Y-1138224D01*
X4633823Y-1136294D01*
X4630318Y-1134008D01*
X4358335Y-862076D01*
X4352137Y-856945D01*
X4345432Y-853389D01*
X4338218Y-851204D01*
X4330192Y-850392D01*
X4186021Y-850392D01*
X4182059Y-849579D01*
X4170019Y-840587D01*
X4161383Y-836218D01*
X4152239Y-833424D01*
X4141215Y-832103D01*
X4137507Y-830935D01*
X4134561Y-828497D01*
X4132681Y-825093D01*
X4132275Y-821283D01*
X4133138Y-809701D01*
X4133138Y-710438D01*
X4132224Y-698754D01*
X4129735Y-687730D01*
X4125569Y-677164D01*
X4119930Y-667308D01*
X4112818Y-658469D01*
X4104538Y-650748D01*
X4095140Y-644347D01*
X4084929Y-639419D01*
X4074109Y-636117D01*
X4062882Y-634390D01*
X4051554Y-634390D01*
X4040327Y-636117D01*
X4029506Y-639419D01*
X4019296Y-644347D01*
X4009898Y-650748D01*
X4001566Y-658469D01*
X3994505Y-667308D01*
X3988866Y-677164D01*
X3984853Y-687273D01*
X3982770Y-690575D01*
X3979570Y-692861D01*
X3975709Y-693724D01*
X3971848Y-693115D01*
X3968496Y-691032D01*
X3966210Y-687882D01*
X3962603Y-680161D01*
X3957015Y-672185D01*
X3950106Y-665276D01*
X3942130Y-659688D01*
X3933342Y-655574D01*
X3923893Y-653034D01*
X3914241Y-652221D01*
X3904538Y-653034D01*
X3895090Y-655574D01*
X3886301Y-659688D01*
X3878326Y-665276D01*
X3871417Y-672185D01*
X3865829Y-680161D01*
X3861714Y-688949D01*
X3859174Y-698398D01*
X3858361Y-708101D01*
X3859174Y-717753D01*
X3861714Y-727202D01*
X3865829Y-735990D01*
X3871417Y-743966D01*
X3878326Y-750874D01*
X3886301Y-756462D01*
X3895090Y-760577D01*
X3904538Y-763117D01*
X3914241Y-763930D01*
X3923893Y-763117D01*
X3933342Y-760577D01*
X3942130Y-756462D01*
X3950106Y-750874D01*
X3957015Y-743966D01*
X3962806Y-735685D01*
X3965956Y-732790D01*
X3969969Y-731418D01*
X3974185Y-731824D01*
X3977894Y-733907D01*
X3980434Y-737362D01*
X3981297Y-741527D01*
X3981297Y-809701D01*
X3982161Y-821385D01*
X3984701Y-832459D01*
X3988866Y-842975D01*
X3994505Y-852830D01*
X4001566Y-861669D01*
X4009898Y-869391D01*
X4019296Y-875792D01*
X4029506Y-880719D01*
X4040327Y-884072D01*
X4051554Y-885748D01*
X4062882Y-885748D01*
X4071874Y-884377D01*
X4075785Y-884580D01*
X4079341Y-886206D01*
X4082034Y-889101D01*
X4083405Y-892759D01*
X4085183Y-903325D01*
X4088384Y-912418D01*
X4093057Y-920851D01*
X4099153Y-928369D01*
X4106367Y-934719D01*
X4114596Y-939800D01*
X4123537Y-943356D01*
X4132986Y-945387D01*
X4142638Y-945845D01*
X4152188Y-944575D01*
X4161383Y-941781D01*
X4170019Y-937412D01*
X4182059Y-928420D01*
X4186021Y-927608D01*
X4310481Y-927608D01*
X4314393Y-928369D01*
X4317695Y-930605D01*
X4575860Y-1188770D01*
X4578045Y-1192072D01*
X4578858Y-1195933D01*
X4578858Y-1198626D01*
X4580483Y-1208125D01*
X4583684Y-1217218D01*
X4588357Y-1225651D01*
X4594453Y-1233170D01*
X4601667Y-1239520D01*
X4609896Y-1244600D01*
X4618837Y-1248156D01*
X4628286Y-1250188D01*
G37*
G36*
X3672738Y-1085545D02*
G01*
X3682288Y-1084275D01*
X3691483Y-1081481D01*
X3700119Y-1077112D01*
X3707892Y-1071372D01*
X3714546Y-1064412D01*
X3719931Y-1056436D01*
X3723944Y-1047648D01*
X3726332Y-1038301D01*
X3727196Y-1028700D01*
X3726332Y-1019098D01*
X3723944Y-1009751D01*
X3719931Y-1000963D01*
X3714546Y-992987D01*
X3707892Y-986028D01*
X3700119Y-980287D01*
X3691483Y-975918D01*
X3682288Y-973124D01*
X3672738Y-971854D01*
X3663086Y-972312D01*
X3653637Y-974344D01*
X3644696Y-977900D01*
X3636467Y-982980D01*
X3631285Y-987552D01*
X3628136Y-989431D01*
X3624579Y-990092D01*
X3588918Y-990092D01*
X3585006Y-989330D01*
X3581704Y-987094D01*
X3570935Y-976376D01*
X3564737Y-971245D01*
X3558032Y-967689D01*
X3550818Y-965504D01*
X3542792Y-964692D01*
X3512921Y-964692D01*
X3508959Y-963879D01*
X3496919Y-954887D01*
X3488283Y-950518D01*
X3479088Y-947724D01*
X3469538Y-946454D01*
X3459886Y-946912D01*
X3450437Y-948944D01*
X3441496Y-952500D01*
X3433267Y-957580D01*
X3426053Y-963930D01*
X3419957Y-971448D01*
X3415284Y-979881D01*
X3412083Y-988974D01*
X3410458Y-998474D01*
X3410458Y-1008126D01*
X3412083Y-1017625D01*
X3415284Y-1026718D01*
X3419957Y-1035151D01*
X3426053Y-1042669D01*
X3433267Y-1049020D01*
X3441496Y-1054100D01*
X3450437Y-1057656D01*
X3459886Y-1059688D01*
X3469538Y-1060145D01*
X3479088Y-1058875D01*
X3488283Y-1056081D01*
X3496919Y-1051712D01*
X3508959Y-1042720D01*
X3512921Y-1041908D01*
X3523081Y-1041908D01*
X3526993Y-1042669D01*
X3530295Y-1044905D01*
X3541064Y-1055624D01*
X3547262Y-1060754D01*
X3553968Y-1064310D01*
X3561181Y-1066495D01*
X3569208Y-1067308D01*
X3624579Y-1067308D01*
X3628136Y-1067968D01*
X3631285Y-1069848D01*
X3636467Y-1074420D01*
X3644696Y-1079500D01*
X3653637Y-1083056D01*
X3663086Y-1085088D01*
G37*
G36*
X3187547Y-885748D02*
G01*
X3198876Y-885748D01*
X3210102Y-884072D01*
X3220923Y-880719D01*
X3231134Y-875792D01*
X3240532Y-869442D01*
X3248863Y-861720D01*
X3255924Y-852830D01*
X3261563Y-843026D01*
X3265728Y-832459D01*
X3268268Y-821385D01*
X3269132Y-809701D01*
X3269132Y-741527D01*
X3269996Y-737362D01*
X3272536Y-733958D01*
X3276244Y-731824D01*
X3280460Y-731418D01*
X3284474Y-732790D01*
X3287623Y-735685D01*
X3293414Y-743966D01*
X3300323Y-750874D01*
X3308299Y-756462D01*
X3317087Y-760577D01*
X3326536Y-763117D01*
X3336188Y-763930D01*
X3345891Y-763117D01*
X3355340Y-760577D01*
X3364128Y-756462D01*
X3372104Y-750874D01*
X3379012Y-743966D01*
X3384600Y-735990D01*
X3388715Y-727202D01*
X3391255Y-717753D01*
X3392068Y-708101D01*
X3391255Y-698398D01*
X3388715Y-688949D01*
X3384600Y-680161D01*
X3379012Y-672185D01*
X3372104Y-665276D01*
X3364128Y-659688D01*
X3355340Y-655574D01*
X3345891Y-653034D01*
X3336188Y-652221D01*
X3326536Y-653034D01*
X3317087Y-655574D01*
X3308299Y-659688D01*
X3300323Y-665276D01*
X3293414Y-672185D01*
X3287826Y-680161D01*
X3284220Y-687882D01*
X3281934Y-691032D01*
X3278581Y-693115D01*
X3274720Y-693724D01*
X3270859Y-692861D01*
X3267659Y-690575D01*
X3265576Y-687273D01*
X3261563Y-677164D01*
X3255924Y-667359D01*
X3248863Y-658469D01*
X3240532Y-650748D01*
X3231134Y-644398D01*
X3220923Y-639470D01*
X3210102Y-636117D01*
X3198876Y-634441D01*
X3187547Y-634441D01*
X3176320Y-636117D01*
X3165500Y-639470D01*
X3155289Y-644398D01*
X3145891Y-650748D01*
X3137611Y-658469D01*
X3130550Y-667359D01*
X3124860Y-677164D01*
X3120694Y-687730D01*
X3118205Y-698804D01*
X3117291Y-710488D01*
X3117291Y-809701D01*
X3118205Y-821385D01*
X3120694Y-832459D01*
X3124860Y-843026D01*
X3130550Y-852830D01*
X3137611Y-861720D01*
X3145891Y-869442D01*
X3155289Y-875792D01*
X3165500Y-880719D01*
X3176320Y-884072D01*
G37*
G36*
X3812438Y-615645D02*
G01*
X3821988Y-614375D01*
X3831183Y-611581D01*
X3839819Y-607212D01*
X3847592Y-601472D01*
X3854246Y-594512D01*
X3859631Y-586536D01*
X3863644Y-577748D01*
X3866032Y-568401D01*
X3866896Y-558800D01*
X3866032Y-549198D01*
X3863644Y-539851D01*
X3859631Y-531063D01*
X3854246Y-523087D01*
X3847592Y-516128D01*
X3839819Y-510387D01*
X3831183Y-506018D01*
X3821988Y-503224D01*
X3812438Y-501954D01*
X3807663Y-501802D01*
X3805174Y-500888D01*
X3799332Y-497789D01*
X3792118Y-495604D01*
X3784092Y-494792D01*
X3716121Y-494792D01*
X3712159Y-493979D01*
X3700119Y-484987D01*
X3691483Y-480618D01*
X3682288Y-477824D01*
X3672738Y-476554D01*
X3663086Y-477012D01*
X3653637Y-479043D01*
X3644696Y-482600D01*
X3636467Y-487680D01*
X3629253Y-494030D01*
X3623157Y-501548D01*
X3618484Y-509981D01*
X3615283Y-519074D01*
X3613658Y-528574D01*
X3613658Y-538226D01*
X3615283Y-547725D01*
X3618484Y-556818D01*
X3623157Y-565251D01*
X3629253Y-572770D01*
X3636467Y-579120D01*
X3644696Y-584200D01*
X3653637Y-587756D01*
X3663086Y-589788D01*
X3672738Y-590245D01*
X3682288Y-588975D01*
X3691483Y-586181D01*
X3700119Y-581812D01*
X3712159Y-572820D01*
X3716121Y-572008D01*
X3747363Y-572008D01*
X3751427Y-572871D01*
X3754831Y-575259D01*
X3756964Y-578764D01*
X3758184Y-582218D01*
X3762857Y-590651D01*
X3768953Y-598170D01*
X3776167Y-604520D01*
X3784396Y-609600D01*
X3793337Y-613156D01*
X3802786Y-615188D01*
G37*
G36*
X3187547Y-455777D02*
G01*
X3198876Y-455777D01*
X3210102Y-454050D01*
X3220923Y-450697D01*
X3231134Y-445820D01*
X3240532Y-439420D01*
X3248863Y-431698D01*
X3255924Y-422808D01*
X3261563Y-413004D01*
X3265728Y-402437D01*
X3268268Y-391414D01*
X3269132Y-379730D01*
X3269132Y-300482D01*
X3268268Y-288798D01*
X3265728Y-277723D01*
X3261563Y-267157D01*
X3255924Y-257352D01*
X3248863Y-248462D01*
X3240532Y-240741D01*
X3231134Y-234391D01*
X3220923Y-229463D01*
X3210102Y-226110D01*
X3198876Y-224434D01*
X3187547Y-224434D01*
X3176320Y-226110D01*
X3165500Y-229463D01*
X3155289Y-234391D01*
X3145891Y-240741D01*
X3137611Y-248462D01*
X3130550Y-257352D01*
X3124860Y-267157D01*
X3120694Y-277723D01*
X3118205Y-288798D01*
X3117291Y-300482D01*
X3117291Y-379730D01*
X3118205Y-391414D01*
X3120694Y-402437D01*
X3124860Y-413004D01*
X3130550Y-422808D01*
X3137611Y-431698D01*
X3145891Y-439420D01*
X3155289Y-445820D01*
X3165500Y-450697D01*
X3176320Y-454050D01*
G37*
G36*
X4051554Y-455777D02*
G01*
X4062882Y-455777D01*
X4074109Y-454050D01*
X4084929Y-450697D01*
X4095140Y-445820D01*
X4104538Y-439420D01*
X4112818Y-431698D01*
X4119930Y-422808D01*
X4125569Y-413004D01*
X4129735Y-402437D01*
X4132224Y-391414D01*
X4133138Y-379730D01*
X4133138Y-300482D01*
X4132224Y-288798D01*
X4129735Y-277723D01*
X4125569Y-267157D01*
X4119930Y-257352D01*
X4112818Y-248462D01*
X4104538Y-240741D01*
X4095140Y-234391D01*
X4084929Y-229463D01*
X4074109Y-226110D01*
X4062882Y-224434D01*
X4051554Y-224434D01*
X4040327Y-226110D01*
X4029506Y-229463D01*
X4019296Y-234391D01*
X4009898Y-240741D01*
X4001566Y-248462D01*
X3994505Y-257352D01*
X3988866Y-267157D01*
X3984701Y-277723D01*
X3982161Y-288798D01*
X3981297Y-300482D01*
X3981297Y-379730D01*
X3982161Y-391414D01*
X3984701Y-402437D01*
X3988866Y-413004D01*
X3994505Y-422808D01*
X4001566Y-431698D01*
X4009898Y-439420D01*
X4019296Y-445820D01*
X4029506Y-450697D01*
X4040327Y-454050D01*
G37*
G36*
X6691630Y-454050D02*
G01*
X6708343Y-454050D01*
X6724903Y-452272D01*
X6741210Y-448665D01*
X6757009Y-443331D01*
X6772148Y-436270D01*
X6786422Y-427634D01*
X6799732Y-417525D01*
X6811772Y-405993D01*
X6822541Y-393242D01*
X6831888Y-379425D01*
X6839661Y-364642D01*
X6845757Y-349097D01*
X6850125Y-332994D01*
X6852767Y-316534D01*
X6853529Y-300482D01*
X6852767Y-283464D01*
X6850125Y-267004D01*
X6845757Y-250901D01*
X6839661Y-235356D01*
X6831888Y-220573D01*
X6822541Y-206756D01*
X6811772Y-194005D01*
X6799732Y-182473D01*
X6786422Y-172364D01*
X6772148Y-163728D01*
X6757009Y-156667D01*
X6741210Y-151333D01*
X6724903Y-147726D01*
X6708343Y-145948D01*
X6691630Y-145948D01*
X6675069Y-147726D01*
X6658762Y-151333D01*
X6642963Y-156667D01*
X6627825Y-163728D01*
X6613550Y-172364D01*
X6600240Y-182473D01*
X6588201Y-194005D01*
X6577431Y-206756D01*
X6568084Y-220573D01*
X6560312Y-235356D01*
X6554216Y-250901D01*
X6549847Y-267004D01*
X6547205Y-283464D01*
X6546443Y-299516D01*
X6547205Y-316534D01*
X6549847Y-332994D01*
X6554216Y-349097D01*
X6560312Y-364642D01*
X6568084Y-379425D01*
X6577431Y-393242D01*
X6588201Y-405993D01*
X6600240Y-417525D01*
X6613550Y-427634D01*
X6627825Y-436270D01*
X6642963Y-443331D01*
X6658762Y-448665D01*
X6675069Y-452272D01*
G37*
G36*
X291642Y-454050D02*
G01*
X308356Y-454050D01*
X324916Y-452272D01*
X341223Y-448665D01*
X357022Y-443331D01*
X372160Y-436270D01*
X386435Y-427634D01*
X399745Y-417525D01*
X411784Y-405993D01*
X422554Y-393242D01*
X431901Y-379425D01*
X439674Y-364642D01*
X445770Y-349097D01*
X450138Y-332994D01*
X452780Y-316534D01*
X453542Y-300482D01*
X452780Y-283464D01*
X450138Y-267004D01*
X445770Y-250901D01*
X439674Y-235356D01*
X431901Y-220573D01*
X422554Y-206756D01*
X411784Y-194005D01*
X399745Y-182473D01*
X386435Y-172364D01*
X372160Y-163728D01*
X357022Y-156667D01*
X341223Y-151333D01*
X324916Y-147726D01*
X308356Y-145948D01*
X291642Y-145948D01*
X275082Y-147726D01*
X258775Y-151333D01*
X242976Y-156667D01*
X227838Y-163728D01*
X213563Y-172364D01*
X200304Y-182473D01*
X188214Y-194005D01*
X177444Y-206756D01*
X168097Y-220573D01*
X160324Y-235356D01*
X154228Y-250901D01*
X149860Y-267004D01*
X147218Y-283464D01*
X146456Y-299516D01*
X147218Y-316534D01*
X149860Y-332994D01*
X154228Y-349097D01*
X160324Y-364642D01*
X168097Y-379425D01*
X177444Y-393242D01*
X188214Y-405993D01*
X200304Y-417525D01*
X213563Y-427634D01*
X227838Y-436270D01*
X242976Y-443331D01*
X258775Y-448665D01*
X275082Y-452272D01*
G37*
G36*
X4956302Y-413258D02*
G01*
X4979365Y-413258D01*
X4985664Y-412546D01*
X4991150Y-410616D01*
X4996027Y-407568D01*
X5000142Y-403453D01*
X5003190Y-398576D01*
X5005120Y-393090D01*
X5005832Y-386791D01*
X5005832Y-339750D01*
X4956302Y-339750D01*
G37*
G36*
X4860594Y-413258D02*
G01*
X4883658Y-413258D01*
X4883658Y-339750D01*
X4834128Y-339750D01*
X4834128Y-386791D01*
X4834839Y-393090D01*
X4836769Y-398576D01*
X4839817Y-403453D01*
X4843932Y-407568D01*
X4848809Y-410616D01*
X4854295Y-412546D01*
G37*
G36*
X5460034Y-413258D02*
G01*
X5578805Y-413258D01*
X5585104Y-412546D01*
X5590590Y-410616D01*
X5595467Y-407568D01*
X5599582Y-403453D01*
X5602630Y-398576D01*
X5604560Y-393090D01*
X5605272Y-386791D01*
X5605272Y-172008D01*
X5604560Y-165709D01*
X5602630Y-160223D01*
X5599582Y-155346D01*
X5595467Y-151231D01*
X5590590Y-148183D01*
X5585104Y-146253D01*
X5578805Y-145542D01*
X5460034Y-145542D01*
X5453735Y-146253D01*
X5448249Y-148183D01*
X5443372Y-151231D01*
X5439257Y-155346D01*
X5436209Y-160223D01*
X5434279Y-165709D01*
X5433568Y-172008D01*
X5433568Y-386791D01*
X5434279Y-393090D01*
X5436209Y-398576D01*
X5439257Y-403453D01*
X5443372Y-407568D01*
X5448249Y-410616D01*
X5453735Y-412546D01*
G37*
G36*
X5061254Y-413258D02*
G01*
X5180025Y-413258D01*
X5186324Y-412546D01*
X5191810Y-410616D01*
X5196687Y-407568D01*
X5200802Y-403453D01*
X5203850Y-398576D01*
X5205780Y-393090D01*
X5206492Y-386791D01*
X5206492Y-172008D01*
X5205780Y-165709D01*
X5203850Y-160223D01*
X5200802Y-155346D01*
X5196687Y-151231D01*
X5191810Y-148183D01*
X5186324Y-146253D01*
X5180025Y-145542D01*
X5061254Y-145542D01*
X5054955Y-146253D01*
X5049469Y-148183D01*
X5044592Y-151231D01*
X5040477Y-155346D01*
X5037429Y-160223D01*
X5035499Y-165709D01*
X5034788Y-172008D01*
X5034788Y-386791D01*
X5035499Y-393090D01*
X5037429Y-398576D01*
X5040477Y-403453D01*
X5044592Y-407568D01*
X5049469Y-410616D01*
X5054955Y-412546D01*
G37*
G36*
X5261914Y-413258D02*
G01*
X5380685Y-413258D01*
X5386984Y-412546D01*
X5392470Y-410616D01*
X5397347Y-407568D01*
X5401462Y-403453D01*
X5404510Y-398576D01*
X5406440Y-393090D01*
X5407152Y-386791D01*
X5407152Y-172008D01*
X5406440Y-165709D01*
X5404510Y-160223D01*
X5401462Y-155346D01*
X5397347Y-151231D01*
X5392470Y-148183D01*
X5386984Y-146253D01*
X5380685Y-145542D01*
X5261914Y-145542D01*
X5255615Y-146253D01*
X5250129Y-148183D01*
X5245252Y-151231D01*
X5241137Y-155346D01*
X5238089Y-160223D01*
X5236159Y-165709D01*
X5235448Y-172008D01*
X5235448Y-386791D01*
X5236159Y-393090D01*
X5238089Y-398576D01*
X5241137Y-403453D01*
X5245252Y-407568D01*
X5250129Y-410616D01*
X5255615Y-412546D01*
G37*
G36*
X913892Y-306425D02*
G01*
X1092708Y-306425D01*
X1099058Y-305714D01*
X1104493Y-303784D01*
X1109421Y-300685D01*
X1113485Y-296621D01*
X1116584Y-291693D01*
X1118514Y-286258D01*
X1119225Y-279908D01*
X1119225Y-101092D01*
X1118514Y-94742D01*
X1116584Y-89306D01*
X1113485Y-84378D01*
X1109421Y-80314D01*
X1104493Y-77216D01*
X1099058Y-75285D01*
X1092708Y-74574D01*
X913892Y-74574D01*
X907542Y-75285D01*
X902106Y-77216D01*
X897178Y-80314D01*
X893114Y-84378D01*
X890016Y-89306D01*
X888085Y-94742D01*
X887374Y-101092D01*
X887374Y-279908D01*
X888085Y-286258D01*
X890016Y-291693D01*
X893114Y-296621D01*
X897178Y-300685D01*
X902106Y-303784D01*
X907542Y-305714D01*
G37*
G36*
X1511300Y-296367D02*
G01*
X1525117Y-295503D01*
X1538681Y-292760D01*
X1551838Y-288340D01*
X1564233Y-282194D01*
X1575765Y-274523D01*
X1586179Y-265379D01*
X1595323Y-254965D01*
X1602994Y-243433D01*
X1609140Y-231038D01*
X1613560Y-217881D01*
X1616303Y-204317D01*
X1617167Y-190500D01*
X1616303Y-176682D01*
X1613560Y-163118D01*
X1609140Y-149961D01*
X1602994Y-137566D01*
X1595323Y-126034D01*
X1586179Y-115620D01*
X1575765Y-106476D01*
X1564233Y-98806D01*
X1551838Y-92659D01*
X1538681Y-88239D01*
X1525117Y-85496D01*
X1511300Y-84632D01*
X1497482Y-85496D01*
X1483918Y-88239D01*
X1470761Y-92659D01*
X1458366Y-98806D01*
X1446834Y-106476D01*
X1436420Y-115620D01*
X1427276Y-126034D01*
X1419606Y-137566D01*
X1413459Y-149961D01*
X1409039Y-163118D01*
X1406296Y-176682D01*
X1405432Y-190500D01*
X1406296Y-204317D01*
X1409039Y-217881D01*
X1413459Y-231038D01*
X1419606Y-243433D01*
X1427276Y-254965D01*
X1436420Y-265379D01*
X1446834Y-274523D01*
X1458366Y-282194D01*
X1470761Y-288340D01*
X1483918Y-292760D01*
X1497482Y-295503D01*
G37*
G36*
X1257300Y-296367D02*
G01*
X1271117Y-295503D01*
X1284681Y-292760D01*
X1297838Y-288340D01*
X1310233Y-282194D01*
X1321765Y-274523D01*
X1332179Y-265379D01*
X1341323Y-254965D01*
X1348994Y-243433D01*
X1355140Y-231038D01*
X1359560Y-217881D01*
X1362303Y-204317D01*
X1363167Y-190500D01*
X1362303Y-176682D01*
X1359560Y-163118D01*
X1355140Y-149961D01*
X1348994Y-137566D01*
X1341323Y-126034D01*
X1332179Y-115620D01*
X1321765Y-106476D01*
X1310233Y-98806D01*
X1297838Y-92659D01*
X1284681Y-88239D01*
X1271117Y-85496D01*
X1257300Y-84632D01*
X1243482Y-85496D01*
X1229918Y-88239D01*
X1216761Y-92659D01*
X1204366Y-98806D01*
X1192834Y-106476D01*
X1182420Y-115620D01*
X1173276Y-126034D01*
X1165606Y-137566D01*
X1159459Y-149961D01*
X1155039Y-163118D01*
X1152296Y-176682D01*
X1151432Y-190500D01*
X1152296Y-204317D01*
X1155039Y-217881D01*
X1159459Y-231038D01*
X1165606Y-243433D01*
X1173276Y-254965D01*
X1182420Y-265379D01*
X1192834Y-274523D01*
X1204366Y-282194D01*
X1216761Y-288340D01*
X1229918Y-292760D01*
X1243482Y-295503D01*
G37*
G36*
X1765300Y-296367D02*
G01*
X1779117Y-295503D01*
X1792681Y-292760D01*
X1805838Y-288340D01*
X1818233Y-282194D01*
X1829765Y-274523D01*
X1840179Y-265379D01*
X1849323Y-254965D01*
X1856993Y-243433D01*
X1863140Y-231038D01*
X1867560Y-217881D01*
X1870303Y-204317D01*
X1871167Y-190500D01*
X1870303Y-176682D01*
X1867560Y-163118D01*
X1863140Y-149961D01*
X1856993Y-137566D01*
X1849323Y-126034D01*
X1840179Y-115620D01*
X1829765Y-106476D01*
X1818233Y-98806D01*
X1805838Y-92659D01*
X1792681Y-88239D01*
X1779117Y-85496D01*
X1765300Y-84632D01*
X1751482Y-85496D01*
X1737918Y-88239D01*
X1724761Y-92659D01*
X1712366Y-98806D01*
X1700834Y-106476D01*
X1690420Y-115620D01*
X1681276Y-126034D01*
X1673606Y-137566D01*
X1667459Y-149961D01*
X1663039Y-163118D01*
X1660296Y-176682D01*
X1659432Y-190500D01*
X1660296Y-204317D01*
X1663039Y-217881D01*
X1667459Y-231038D01*
X1673606Y-243433D01*
X1681276Y-254965D01*
X1690420Y-265379D01*
X1700834Y-274523D01*
X1712366Y-282194D01*
X1724761Y-288340D01*
X1737918Y-292760D01*
X1751482Y-295503D01*
G37*
G36*
X2019300Y-296367D02*
G01*
X2033117Y-295503D01*
X2046681Y-292760D01*
X2059838Y-288340D01*
X2072233Y-282194D01*
X2083765Y-274523D01*
X2094179Y-265379D01*
X2103323Y-254965D01*
X2110994Y-243433D01*
X2117140Y-231038D01*
X2121560Y-217881D01*
X2124303Y-204317D01*
X2125167Y-190500D01*
X2124303Y-176682D01*
X2121560Y-163118D01*
X2117140Y-149961D01*
X2110994Y-137566D01*
X2103323Y-126034D01*
X2094179Y-115620D01*
X2083765Y-106476D01*
X2072233Y-98806D01*
X2059838Y-92659D01*
X2046681Y-88239D01*
X2033117Y-85496D01*
X2019300Y-84632D01*
X2005482Y-85496D01*
X1991918Y-88239D01*
X1978761Y-92659D01*
X1966366Y-98806D01*
X1954834Y-106476D01*
X1944420Y-115620D01*
X1935276Y-126034D01*
X1927606Y-137566D01*
X1921459Y-149961D01*
X1917039Y-163118D01*
X1914296Y-176682D01*
X1913432Y-190500D01*
X1914296Y-204317D01*
X1917039Y-217881D01*
X1921459Y-231038D01*
X1927606Y-243433D01*
X1935276Y-254965D01*
X1944420Y-265379D01*
X1954834Y-274523D01*
X1966366Y-282194D01*
X1978761Y-288340D01*
X1991918Y-292760D01*
X2005482Y-295503D01*
G37*
G36*
X2319629Y-285445D02*
G01*
X2326233Y-282194D01*
X2337765Y-274523D01*
X2348179Y-265379D01*
X2357323Y-254965D01*
X2364994Y-243433D01*
X2368245Y-236829D01*
X2319629Y-236829D01*
G37*
G36*
X2226970Y-285445D02*
G01*
X2226970Y-236829D01*
X2178354Y-236829D01*
X2181606Y-243433D01*
X2189276Y-254965D01*
X2198420Y-265379D01*
X2208834Y-274523D01*
X2220366Y-282194D01*
G37*
G36*
X4834128Y-219100D02*
G01*
X4883658Y-219100D01*
X4883658Y-145542D01*
X4860594Y-145542D01*
X4854295Y-146253D01*
X4848809Y-148183D01*
X4843932Y-151231D01*
X4839817Y-155346D01*
X4836769Y-160223D01*
X4834839Y-165709D01*
X4834128Y-172008D01*
G37*
G36*
X4956302Y-219100D02*
G01*
X5005832Y-219100D01*
X5005832Y-172008D01*
X5005120Y-165709D01*
X5003190Y-160223D01*
X5000142Y-155346D01*
X4996027Y-151231D01*
X4991150Y-148183D01*
X4985664Y-146253D01*
X4979365Y-145542D01*
X4956302Y-145542D01*
G37*
G36*
X2319629Y-144170D02*
G01*
X2368245Y-144170D01*
X2364994Y-137566D01*
X2357323Y-126034D01*
X2348179Y-115620D01*
X2337765Y-106476D01*
X2326233Y-98806D01*
X2319629Y-95554D01*
G37*
G36*
X2178354Y-144170D02*
G01*
X2226970Y-144170D01*
X2226970Y-95554D01*
X2220366Y-98806D01*
X2208834Y-106476D01*
X2198420Y-115620D01*
X2189276Y-126034D01*
X2181606Y-137566D01*
G37*

%LPD*%
D10*
X2461006Y-5703570D02*
G01*
X2349500Y-5815076D01*
X2349500Y-6007100D01*
X2387600Y-6045200D01*
X2476500Y-6045200D01*
X2501900Y-6070600D01*
X2501900Y-6248400D01*
X2946400Y-6692900D01*
X2946400Y-6756400D01*
X3060700Y-6870700D01*
X3441700Y-6870700D01*
X3454400Y-6858000D01*
X3454400Y-6836486D01*
X3432886Y-6836486D01*
X3329940Y-6733539D01*
X3329940Y-6705600D01*
X4025900Y-3149600D02*
G01*
X4025900Y-3467100D01*
X3962400Y-3530600D01*
X2908554Y-5683250D02*
G01*
X2857500Y-5632195D01*
X2857500Y-5562600D01*
X3007106Y-5412994D01*
X3007106Y-5270245D01*
X2969006Y-5232145D01*
X2791206Y-5232145D01*
X2678429Y-5344668D01*
X2678429Y-5359145D01*
X3162300Y-5029200D02*
G01*
X3238500Y-5105400D01*
X3238500Y-5359400D01*
X2933700Y-5575300D02*
G01*
X3036519Y-5678119D01*
X3121380Y-5678119D01*
X4826000Y-4686300D02*
G01*
X4826000Y-5041900D01*
X4699000Y-5168900D01*
X2590800Y-3759200D02*
G01*
X2641600Y-3759200D01*
X2768600Y-3886200D01*
X2882900Y-2032000D02*
G01*
X3149600Y-1765300D01*
X3340100Y-1765300D01*
X3378200Y-1803400D01*
X3416300Y-1803400D01*
X3416300Y-1803400D02*
G01*
X3340100Y-1879600D01*
X3340100Y-1930400D01*
X2616200Y-2224023D02*
G01*
X2527300Y-2135123D01*
X2527300Y-1930400D01*
X2679700Y-1778000D01*
X2908554Y-5873242D02*
G01*
X2838958Y-5873242D01*
X2730500Y-5981700D01*
X2730500Y-6146800D01*
X2794000Y-6210300D01*
X3015995Y-6210300D01*
X3048000Y-6155689D01*
X1028700Y-3378200D02*
G01*
X1028700Y-3733800D01*
X914400Y-3848100D01*
X914400Y-5626100D01*
X1308100Y-6019800D01*
X1689100Y-6019800D01*
X1724405Y-5984494D01*
X1724405Y-5903468D01*
X4025900Y-2895600D02*
G01*
X4025900Y-3149600D01*
X3048000Y-3937000D02*
G01*
X3581400Y-3937000D01*
X3721100Y-4076700D01*
X3759200Y-4076700D01*
X3175000Y-4292600D02*
G01*
X3274999Y-4392599D01*
X2476500Y-4851400D02*
G01*
X2476500Y-4711700D01*
X2603500Y-4584700D01*
X3162300Y-4584700D01*
X3568700Y-4991100D01*
X3568700Y-5727700D01*
X3530600Y-5765800D01*
X3517900Y-5765800D01*
X2717800Y-4051300D02*
G01*
X2743200Y-4051300D01*
X2781300Y-4013200D01*
X3403600Y-4013200D01*
X3771900Y-4381500D01*
X3329940Y-6720839D02*
G01*
X3329940Y-6705600D01*
X3530600Y-6705600D02*
G01*
X3530600Y-6896100D01*
X3467100Y-6959600D01*
X2844800Y-6959600D01*
X1788668Y-5903468D01*
X1724405Y-5903468D01*
X2921000Y-4457700D02*
G01*
X3109899Y-4457700D01*
X3175000Y-4392599D01*
X2590800Y-6527800D02*
G01*
X2387600Y-6324600D01*
X2336800Y-6324600D01*
X2616200Y-2224023D02*
G01*
X2527300Y-2135123D01*
X2527300Y-1930400D01*
X2679700Y-1778000D01*
X2743200Y-1778000D01*
X2844800Y-1676400D01*
X2946400Y-1676400D01*
X3898900Y-1943100D02*
G01*
X3898900Y-1905000D01*
X3530600Y-1536700D01*
X2768600Y-1536700D01*
X1155700Y-3149600D01*
X1155700Y-5232400D01*
X1257300Y-5334000D01*
X2273300Y-1379220D02*
G01*
X2209800Y-1442720D01*
X2209800Y-1879600D01*
X3035300Y-2527300D02*
G01*
X3035300Y-2451100D01*
X3086100Y-2400300D01*
X3213100Y-2400300D01*
X3289300Y-2476500D01*
X3175000Y-2362200D01*
X3175000Y-1828800D01*
X2603500Y-2057400D02*
G01*
X2628900Y-2032000D01*
X2882900Y-2032000D01*
X3175000Y-4292600D02*
G01*
X3225800Y-4241800D01*
X3275075Y-4241800D01*
X3275075Y-4151376D01*
X3074924Y-4192523D02*
G01*
X2997200Y-4114800D01*
X2781300Y-4114800D01*
X2703575Y-4192523D01*
X1827276Y-4192523D01*
X1397000Y-4622800D01*
X1397000Y-5384800D01*
X1219200Y-5562600D01*
X1219200Y-5816600D01*
X3274999Y-4392599D02*
G01*
X3670300Y-4787900D01*
X3670300Y-5715000D01*
X3327400Y-6057900D01*
X3327400Y-6210300D01*
X3441700Y-6324600D01*
X3441700Y-6527800D01*
X3129279Y-6705600D02*
G01*
X3048000Y-6705600D01*
X3048000Y-5878068D01*
X3121406Y-5878068D01*
X2678490Y-5359034D02*
G01*
X2557592Y-5238130D01*
X2464005Y-5238130D01*
X2232380Y-5703519D02*
G01*
X2460980Y-5703519D01*
X622300Y-3822700D02*
G01*
X711200Y-3733800D01*
X850900Y-3733800D01*
D11*
X2881299Y-4737100D02*
G01*
X2878490Y-4739909D01*
X2878490Y-5117734D01*
X2768600Y-4889500D02*
G01*
X2878508Y-4999408D01*
X2878508Y-5117746D01*
X2648483Y-5683148D02*
G01*
X2648483Y-5644616D01*
X2730500Y-5562600D01*
X2878505Y-5117744D02*
G01*
X3060700Y-5117744D01*
X1219200Y-3835400D02*
G01*
X1397000Y-3835400D01*
X1485900Y-3924300D01*
D10*
X1320800Y-4292600D02*
G01*
X1384300Y-4292600D01*
X1879600Y-3797300D01*
X1879600Y-3746500D01*
D11*
X5664200Y-5118100D02*
G01*
X5664200Y-5270500D01*
D10*
X1270000Y-508000D02*
G01*
X1346200Y-584200D01*
X1346200Y-2082800D01*
X914400Y-952500D02*
G01*
X723900Y-1143000D01*
X723900Y-1663700D01*
X1066800Y-3822700D02*
G01*
X990600Y-3898900D01*
X990600Y-4826000D01*
X4635500Y-1193800D02*
G01*
X4330700Y-889000D01*
X4140200Y-889000D01*
X2133600Y-3759200D02*
G01*
X2273300Y-3898900D01*
X2679700Y-3898900D01*
D11*
X3670300Y-5842000D02*
G01*
X4051300Y-5461000D01*
X4381500Y-5461000D01*
D10*
X2648475Y-5873130D02*
G01*
X2618079Y-5903534D01*
X2460990Y-5903534D01*
X2678490Y-5359034D02*
G01*
X2678490Y-5486034D01*
X2460990Y-5703534D01*
X2648475Y-5873130D02*
G01*
X2803890Y-5717722D01*
X2803890Y-5498734D01*
X2878490Y-5424134D01*
X2878490Y-5359034D01*
X1776790Y-5460634D02*
G01*
X1737090Y-5420934D01*
X1737090Y-5274276D01*
X1976790Y-5460634D02*
G01*
X1991090Y-5446334D01*
X1991090Y-5274276D01*
X1991090Y-4935791D02*
G01*
X1737090Y-4935791D01*
X1495790Y-5230434D02*
G01*
X1539633Y-5274276D01*
X1737090Y-5274276D01*
X1978390Y-5703534D02*
G01*
X1724390Y-5703534D01*
X1724390Y-5703534D02*
G01*
X1711690Y-5690834D01*
X1495790Y-5690834D01*
X2203975Y-5238130D02*
G01*
X2167836Y-5274276D01*
X1991090Y-5274276D01*
X3670300Y-1028700D02*
G01*
X3568700Y-1028700D01*
X3543300Y-1003300D01*
X3467100Y-1003300D01*
X2599090Y-6159134D02*
G01*
X2648475Y-6109741D01*
X2648475Y-5873130D01*
X2246690Y-5460634D02*
G01*
X2203975Y-5417926D01*
X2203975Y-5238130D01*
X3670300Y-533400D02*
G01*
X3784600Y-533400D01*
X3810000Y-558800D01*
X2464054Y-5048250D02*
G01*
X2352802Y-5048250D01*
X2257806Y-5143245D01*
X2044445Y-5143245D01*
X1991106Y-5089905D01*
X1991106Y-4935728D01*
D11*
X5143500Y-5905500D02*
G01*
X5448300Y-6159500D01*
X6083300Y-6159500D01*
D10*
X5410200Y-5422900D02*
G01*
X5372100Y-5384800D01*
X5143500Y-5384800D01*
X5067300Y-2705100D02*
G01*
X5600700Y-2171700D01*
X5753100Y-2171700D01*
X1955800Y-3251200D02*
G01*
X1968500Y-3263900D01*
X1968500Y-3441700D01*
X2832100Y-3759200D02*
G01*
X2870200Y-3797300D01*
X2870200Y-3898900D01*
X4927600Y-5499100D02*
G01*
X4927600Y-5969000D01*
X2446705Y-5460644D02*
G01*
X2485161Y-5499100D01*
X2578100Y-5499100D01*
X2794000Y-5816600D02*
G01*
X2832455Y-5778144D01*
X2908503Y-5778144D01*
X1776729Y-5460745D02*
G01*
X1700529Y-5536945D01*
X1368805Y-5536945D01*
X1282700Y-5623052D01*
X1282700Y-5793739D01*
X1379981Y-5890768D01*
X1495805Y-5890768D01*
X5727700Y-5600700D02*
G01*
X5867400Y-5600700D01*
X5880100Y-5613400D01*
X1066800Y-4178300D02*
G01*
X1066800Y-4368800D01*
X3162300Y-6159500D02*
G01*
X3162300Y-6400800D01*
X3187700Y-6426200D01*
X3759200Y-5981700D02*
G01*
X3708400Y-5930900D01*
X3556000Y-5930900D01*
X3060700Y-1104900D02*
G01*
X3060700Y-1079500D01*
X3238500Y-901700D01*
X3975100Y-571500D02*
G01*
X3898900Y-571500D01*
X3797300Y-673100D01*
X3797300Y-1397000D01*
X3810000Y-1397000D01*
X3810000Y-1397000D02*
G01*
X3810000Y-1397000D01*
X3949700Y-1257300D01*
X3949700Y-825500D01*
X3911600Y-2527300D02*
G01*
X4102100Y-2527300D01*
X4419600Y-2844800D01*
X4419600Y-3187700D01*
X3873500Y-3733800D01*
X3124200Y-3733800D01*
X2895600Y-3962400D01*
X1828800Y-3962400D01*
X1231900Y-4559300D01*
X3276600Y-4076700D02*
G01*
X3314700Y-4076700D01*
X3403600Y-4165600D01*
X3403600Y-4267200D01*
X3365500Y-4305300D01*
X3287775Y-4305300D01*
X3275075Y-4292600D01*
X3276600Y-4076700D02*
G01*
X3162300Y-4076700D01*
X3111500Y-4127500D01*
X3124200Y-4140200D01*
X3124200Y-4216400D01*
X3111500Y-4216400D01*
X3077690Y-4250209D01*
X2506190Y-4250209D01*
X1892300Y-4864100D01*
X3121406Y-5678170D02*
G01*
X2997200Y-5791200D01*
X2997200Y-5930900D01*
X2806700Y-6121400D01*
X2878581Y-5117845D02*
G01*
X2700781Y-4940045D01*
X2257806Y-4940045D01*
X2203958Y-4993639D01*
X2203958Y-5048250D01*
X2921000Y-4457700D02*
G01*
X3136900Y-4457700D01*
X3340100Y-4660900D01*
X3810000Y-3352800D02*
G01*
X3810000Y-3556000D01*
X3810000Y-3352800D02*
G01*
X3721100Y-3352800D01*
X3517900Y-3149600D01*
X3517900Y-2895600D02*
G01*
X3517900Y-3149600D01*
X4419600Y-3594100D02*
G01*
X4483100Y-3530600D01*
X4483100Y-2019300D01*
X4343400Y-1879600D01*
X4102100Y-1879600D01*
X3505200Y-1282700D01*
X3009900Y-1282700D01*
X2590800Y-863600D01*
X2590800Y-330200D01*
X5094224Y-4284726D02*
G01*
X5029200Y-4349750D01*
X5029200Y-5486400D01*
X5143500Y-5600700D01*
D12*
G01*
X3075000Y-4392599D03*
G01*
X3175000Y-4392599D03*
G01*
X3274999Y-4392599D03*
G01*
X3075000Y-4292600D03*
G01*
X3175000Y-4292600D03*
G01*
X3274999Y-4292600D03*
G01*
X3075000Y-4192600D03*
G01*
X3175000Y-4192600D03*
G01*
X3274999Y-4192600D03*
D13*
G01*
X1495780Y-5030444D03*
D14*
G01*
X1495790Y-5230436D03*
D13*
G01*
X1495780Y-5690844D03*
D14*
G01*
X1495790Y-5890836D03*
D15*
G01*
X2678488Y-5117734D03*
G01*
X2878493Y-5117734D03*
G01*
X2681297Y-4737100D03*
G01*
X2881302Y-4737100D03*
G01*
X2678488Y-5359034D03*
G01*
X2878493Y-5359034D03*
D17*
G01*
X1737090Y-4935794D03*
G01*
X1737090Y-5274274D03*
D18*
G01*
X1991090Y-5274274D03*
G01*
X1991090Y-4935794D03*
D19*
G01*
X2232380Y-5903544D03*
D20*
G01*
X2232390Y-5703529D03*
D19*
G01*
X3121380Y-5878144D03*
D20*
G01*
X3121390Y-5678129D03*
D19*
G01*
X2460980Y-5703519D03*
D20*
G01*
X2460990Y-5903539D03*
G01*
X1978390Y-5903539D03*
D19*
G01*
X1978380Y-5703519D03*
G01*
X1724380Y-5703519D03*
D20*
G01*
X1724390Y-5903539D03*
D21*
G01*
X2399085Y-6159134D03*
G01*
X2599095Y-6159134D03*
D22*
G01*
X2446695Y-5460634D03*
G01*
X2246685Y-5460634D03*
G01*
X1976795Y-5460634D03*
G01*
X1776785Y-5460634D03*
D23*
G01*
X2648479Y-5683138D03*
G01*
X2648479Y-5873130D03*
G01*
X2908501Y-5873130D03*
G01*
X2908501Y-5778134D03*
G01*
X2908501Y-5683138D03*
G01*
X2203979Y-5048138D03*
G01*
X2203979Y-5238130D03*
G01*
X2464001Y-5238130D03*
G01*
X2464001Y-5143134D03*
G01*
X2464001Y-5048138D03*
D24*
G01*
X3517900Y-2895600D03*
G01*
X3517900Y-3149600D03*
G01*
X3771900Y-2895600D03*
G01*
X3771900Y-3149600D03*
G01*
X4025900Y-2895600D03*
D25*
G01*
X4025900Y-3149600D03*
D26*
G01*
X6680200Y-5439613D03*
G01*
X6680200Y-5939612D03*
D27*
G01*
X2273300Y-190500D03*
G01*
X2019300Y-190500D03*
G01*
X1765300Y-190500D03*
G01*
X1511300Y-190500D03*
G01*
X1257300Y-190500D03*
D28*
G01*
X1003300Y-190500D03*
D29*
G01*
X3129279Y-6705600D03*
G01*
X3329940Y-6705600D03*
G01*
X3530600Y-6705600D03*
G01*
X3728720Y-6705600D03*
G01*
X4919979Y-279400D03*
G01*
X5120640Y-279400D03*
G01*
X5321300Y-279400D03*
G01*
X5519420Y-279400D03*
D30*
G01*
X4057218Y-760069D03*
G01*
X3193211Y-760095D03*
D31*
G01*
X3193211Y-340080D03*
G01*
X4057218Y-340080D03*
D32*
G01*
X5143500Y-5905500D03*
G01*
X6083300Y-6159500D03*
G01*
X3670300Y-5842000D03*
G01*
X4381500Y-5461000D03*
G01*
X3505200Y-5435600D03*
G01*
X3467100Y-1003300D03*
G01*
X3670300Y-1028700D03*
G01*
X1270000Y-508000D03*
G01*
X1346200Y-2082800D03*
G01*
X914400Y-952500D03*
G01*
X723900Y-1663700D03*
G01*
X1320800Y-4292600D03*
G01*
X1879600Y-3746500D03*
G01*
X1066800Y-3822700D03*
G01*
X990600Y-4826000D03*
G01*
X4635500Y-1193800D03*
G01*
X4140200Y-889000D03*
G01*
X2133600Y-3759200D03*
G01*
X2679700Y-3898900D03*
G01*
X5664200Y-5118100D03*
G01*
X5664200Y-5270500D03*
G01*
X1219200Y-3835400D03*
G01*
X1485900Y-3924300D03*
G01*
X3035300Y-2527300D03*
G01*
X3175000Y-1828800D03*
G01*
X2705100Y-4051300D03*
G01*
X3759200Y-4381500D03*
G01*
X3060700Y-5117744D03*
G01*
X2730500Y-5562600D03*
G01*
X2768600Y-4889500D03*
G01*
X622300Y-3822700D03*
G01*
X850900Y-3733800D03*
G01*
X3898900Y-1943100D03*
G01*
X1257300Y-5334000D03*
G01*
X1028700Y-3378200D03*
G01*
X3911600Y-2527300D03*
G01*
X1231900Y-4559300D03*
G01*
X2806700Y-6121400D03*
G01*
X4419600Y-3594100D03*
G01*
X2590800Y-330200D03*
G01*
X3670300Y-533400D03*
G01*
X3810000Y-558800D03*
G01*
X2476500Y-4851400D03*
G01*
X3517900Y-5765800D03*
G01*
X5410200Y-5422900D03*
G01*
X5143500Y-5384800D03*
G01*
X5067300Y-2705100D03*
G01*
X5753100Y-2171700D03*
G01*
X1955800Y-3251200D03*
G01*
X1968500Y-3441700D03*
G01*
X2832100Y-3759200D03*
G01*
X2870200Y-3898900D03*
G01*
X3048000Y-3937000D03*
G01*
X3759200Y-4076700D03*
G01*
X4927600Y-5499100D03*
G01*
X4927600Y-5969000D03*
G01*
X2578100Y-5499100D03*
G01*
X2794000Y-5816600D03*
G01*
X3975100Y-571500D03*
G01*
X3949700Y-825500D03*
G01*
X3810000Y-1397000D03*
G01*
X5727700Y-5600700D03*
G01*
X5880100Y-5613400D03*
G01*
X1066800Y-4178300D03*
G01*
X1066800Y-4368800D03*
G01*
X3162300Y-6159500D03*
G01*
X3187700Y-6426200D03*
G01*
X3759200Y-5981700D03*
G01*
X3556000Y-5930900D03*
G01*
X3060700Y-1104900D03*
G01*
X3238500Y-901700D03*
G01*
X4826000Y-4686300D03*
G01*
X4699000Y-5168900D03*
G01*
X3810000Y-3352800D03*
G01*
X3810000Y-3556000D03*
G01*
X3276600Y-4076700D03*
G01*
X3962400Y-3530600D03*
G01*
X1219200Y-5816600D03*
G01*
X3441700Y-6527800D03*
G01*
X2590800Y-6527800D03*
G01*
X2336800Y-6324600D03*
G01*
X2921000Y-4457700D03*
G01*
X3340100Y-4660900D03*
G01*
X3162300Y-5029200D03*
G01*
X3238500Y-5359400D03*
G01*
X2933700Y-5575300D03*
G01*
X2590800Y-3759200D03*
G01*
X2768600Y-3886200D03*
G01*
X1892300Y-4864100D03*
G01*
X2603500Y-2057400D03*
G01*
X2882900Y-2032000D03*
G01*
X3416300Y-1803400D03*
G01*
X3340100Y-1930400D03*
G01*
X2273300Y-1379220D03*
G01*
X2209800Y-1879600D03*
G01*
X2616200Y-2224100D03*
G01*
X2946400Y-1676400D03*
G01*
X5143500Y-5600700D03*
G01*
X5094097Y-4284802D03*
M02*
